M48
; DRILL file {KiCad (5.1.9)-1} date 02/05/21 10:26:54
; FORMAT={-:-/ absolute / inch / decimal}
; #@! TF.CreationDate,2021-02-05T10:26:54+01:00
; #@! TF.GenerationSoftware,Kicad,Pcbnew,(5.1.9)-1
; #@! TF.FileFunction,Plated,1,2,PTH
FMAT,2
INCH
T1C0.0118
T2C0.0433
T3C0.0591
%
G90
G05
T1
X0.878Y2.032
X0.91Y2.46
X0.92Y2.52
X0.9265Y2.2765
X0.943Y1.982
X0.946Y2.3
X0.993Y1.954
X0.998Y2.464
X1.038Y2.107
X1.039Y2.034
X1.113Y2.107
X1.183Y2.3068
X1.183Y2.2792
X1.183Y2.034
X1.208Y2.464
X1.218Y2.217
X1.251Y2.345
X1.284Y1.998
X1.292Y2.361
X1.296Y1.962
X1.308Y2.542
X1.314Y2.383
X1.359Y2.276
X1.367Y2.151
X1.3976Y1.963
X1.407Y2.105
X1.409Y2.333
X1.416Y2.519
X1.444Y2.443
X1.446Y2.351
X1.468Y2.097
X1.478Y1.992
X1.493Y2.247
X1.522Y2.127
X1.563Y2.445
X1.575Y2.035
X1.577Y1.986
X1.593Y2.245
X1.603Y2.527
X1.6067Y2.4353
X1.615Y2.356
X1.6252Y2.4147
X1.626Y2.073
X1.667Y2.24
X1.671Y2.33
X1.681Y2.035
X1.743Y2.527
X1.788Y2.185
X1.788Y2.09
X1.788Y1.959
X1.981Y2.449
X1.988Y2.212
X1.989Y2.29
X2.033Y2.022
X2.084Y2.211
X2.113Y2.022
X2.118Y2.362
X2.147Y2.265
X2.188Y2.022
X2.229Y2.178
X2.233Y2.362
X2.268Y2.022
X2.313Y2.362
X2.348Y2.022
X2.388Y2.362
X2.423Y2.022
X2.442Y2.373
X2.592Y2.356
X2.597Y2.264
X2.606Y2.156
X2.631Y2.181
X2.633Y2.452
X2.656Y2.206
X2.661Y1.961
X2.676Y2.061
X2.676Y2.026
X2.676Y1.991
X2.681Y2.231
X2.685Y2.095
X2.705Y2.47
X2.706Y2.256
X2.706Y2.121
X2.731Y2.281
X2.731Y2.146
X2.771Y2.301
T3
X2.8248Y2.354
X2.8248Y2.154
X2.9248Y2.254
X3.0248Y2.354
X3.0248Y2.154
T2
G00X0.7329Y2.4744
M15
G01X0.7802Y2.4744
M16
G05
G00X0.7329Y2.0256
M15
G01X0.7802Y2.0256
M16
G05
T0
M30
