%TF.GenerationSoftware,KiCad,Pcbnew,(5.1.9)-1*%
%TF.CreationDate,2021-02-10T11:15:13+01:00*%
%TF.ProjectId,DynaLoRa_Dongle,44796e61-4c6f-4526-915f-446f6e676c65,rev?*%
%TF.SameCoordinates,Original*%
%TF.FileFunction,Other,Fab,Top*%
%FSLAX46Y46*%
G04 Gerber Fmt 4.6, Leading zero omitted, Abs format (unit mm)*
G04 Created by KiCad (PCBNEW (5.1.9)-1) date 2021-02-10 11:15:13*
%MOMM*%
%LPD*%
G01*
G04 APERTURE LIST*
%ADD10C,0.100000*%
%ADD11C,0.200000*%
%ADD12C,0.127000*%
%ADD13C,0.040000*%
%ADD14C,0.150000*%
%ADD15C,0.060000*%
%ADD16C,0.080000*%
%ADD17C,0.120000*%
%ADD18C,0.075000*%
G04 APERTURE END LIST*
D10*
%TO.C,C4*%
X33933377Y50422070D02*
X33226270Y51129177D01*
X34286930Y50775623D02*
X33933377Y50422070D01*
X33579823Y51482730D02*
X34286930Y50775623D01*
X33226270Y51129177D02*
X33579823Y51482730D01*
D11*
%TO.C,U2*%
X39331000Y50154202D02*
G75*
G03*
X39331000Y50154202I-100000J0D01*
G01*
D12*
X36982400Y61312347D02*
X41932147Y56362600D01*
X32032653Y56362600D02*
X36982400Y51412853D01*
X36982400Y61312347D02*
X32032653Y56362600D01*
X41932147Y56362600D02*
X36982400Y51412853D01*
D10*
%TO.C,J3*%
X78239400Y60751600D02*
X78239400Y53751600D01*
X78239400Y60751600D02*
X71239400Y60751600D01*
X71239400Y60751600D02*
X71239400Y53751600D01*
X78239400Y53751600D02*
X71239400Y53751600D01*
X90789400Y60251600D02*
X90789400Y54251600D01*
X90789400Y60251600D02*
X79359400Y60251600D01*
X90789400Y54251600D02*
X79359400Y54251600D01*
X78239400Y53351600D02*
X79359400Y53351600D01*
X79359400Y53351600D02*
X79359400Y61151600D01*
X79359400Y61151600D02*
X78239400Y61151600D01*
X78239400Y61151600D02*
X78239400Y53351600D01*
X80289400Y60251600D02*
X80989400Y54251600D01*
X81289400Y60251600D02*
X81989400Y54251600D01*
X82289400Y60251600D02*
X82989400Y54251600D01*
X83289400Y60251600D02*
X83989400Y54251600D01*
X84289400Y60251600D02*
X84989400Y54251600D01*
X85289400Y60251600D02*
X85989400Y54251600D01*
X86289400Y60251600D02*
X86989400Y54251600D01*
X87289400Y60251600D02*
X87989400Y54251600D01*
X88289400Y60251600D02*
X88989400Y54251600D01*
%TO.C,U3*%
X50349000Y64226200D02*
G75*
G03*
X50349000Y64226200I-500000J0D01*
G01*
X46999000Y65226200D02*
X64699000Y65226200D01*
X64699000Y65226200D02*
X64699000Y49226200D01*
X64699000Y49226200D02*
X46999000Y49226200D01*
X46999000Y49226200D02*
X46999000Y65226200D01*
%TO.C,C5*%
X31492557Y53375728D02*
X32623928Y52244357D01*
X30926872Y52810043D02*
X31492557Y53375728D01*
X32058243Y51678672D02*
X30926872Y52810043D01*
X32623928Y52244357D02*
X32058243Y51678672D01*
%TO.C,C6*%
X24415800Y53759000D02*
X25215800Y53759000D01*
X25215800Y53759000D02*
X25215800Y52159000D01*
X25215800Y52159000D02*
X24415800Y52159000D01*
X24415800Y52159000D02*
X24415800Y53759000D01*
%TO.C,C9*%
X29508400Y59550400D02*
X28708400Y59550400D01*
X28708400Y59550400D02*
X28708400Y61150400D01*
X28708400Y61150400D02*
X29508400Y61150400D01*
X29508400Y61150400D02*
X29508400Y59550400D01*
%TO.C,C10*%
X31007000Y61150400D02*
X31007000Y59550400D01*
X30207000Y61150400D02*
X31007000Y61150400D01*
X30207000Y59550400D02*
X30207000Y61150400D01*
X31007000Y59550400D02*
X30207000Y59550400D01*
%TO.C,D1*%
X67011600Y60632400D02*
X66011600Y61632400D01*
X69511600Y64132400D02*
X66011600Y64132400D01*
X66011600Y64132400D02*
X66011600Y60632400D01*
X66011600Y60632400D02*
X69511600Y60632400D01*
X69511600Y60632400D02*
X69511600Y64132400D01*
X69261600Y62382400D02*
G75*
G03*
X69261600Y62382400I-1500000J0D01*
G01*
%TO.C,D2*%
X26146000Y64709600D02*
X24446000Y64709600D01*
X24446000Y64709600D02*
X24146000Y64409600D01*
X24146000Y64409600D02*
X24146000Y63509600D01*
X24146000Y63509600D02*
X26146000Y63509600D01*
X26146000Y63509600D02*
X26146000Y64709600D01*
%TO.C,D3*%
X27448000Y50714200D02*
X27448000Y49514200D01*
X29448000Y50714200D02*
X27448000Y50714200D01*
X29448000Y49814200D02*
X29448000Y50714200D01*
X29148000Y49514200D02*
X29448000Y49814200D01*
X27448000Y49514200D02*
X29148000Y49514200D01*
%TO.C,L2*%
X24231800Y59100400D02*
X24231800Y61600400D01*
X24231800Y61600400D02*
X27431800Y61600400D01*
X27431800Y61600400D02*
X27431800Y59100400D01*
X27431800Y59100400D02*
X24231800Y59100400D01*
%TO.C,U1*%
X43863753Y53456767D02*
X43156647Y53456767D01*
X40761252Y51061372D02*
X43156647Y53456767D01*
X42882572Y48940052D02*
X40761252Y51061372D01*
X45631520Y51689000D02*
X42882572Y48940052D01*
X43863753Y53456767D02*
X45631520Y51689000D01*
%TO.C,U4*%
X26655600Y57364200D02*
X27305600Y56714200D01*
X27305600Y55564200D02*
X27305600Y56714200D01*
X26655600Y57364200D02*
X24205600Y57364200D01*
X24205600Y55564200D02*
X24205600Y57364200D01*
X27305600Y55564200D02*
X24205600Y55564200D01*
%TO.C,C1*%
X37519800Y64990600D02*
X38019800Y64990600D01*
X38019800Y64990600D02*
X38019800Y63990600D01*
X38019800Y63990600D02*
X37519800Y63990600D01*
X37519800Y63990600D02*
X37519800Y64990600D01*
%TO.C,C2*%
X29874400Y63990600D02*
X29874400Y64990600D01*
X30374400Y63990600D02*
X29874400Y63990600D01*
X30374400Y64990600D02*
X30374400Y63990600D01*
X29874400Y64990600D02*
X30374400Y64990600D01*
%TO.C,C3*%
X43030670Y58215777D02*
X43384223Y58569330D01*
X43384223Y58569330D02*
X44091330Y57862223D01*
X44091330Y57862223D02*
X43737777Y57508670D01*
X43737777Y57508670D02*
X43030670Y58215777D01*
%TO.C,R1*%
X37105400Y63990600D02*
X36605400Y63990600D01*
X36605400Y63990600D02*
X36605400Y64990600D01*
X36605400Y64990600D02*
X37105400Y64990600D01*
X37105400Y64990600D02*
X37105400Y63990600D01*
%TO.C,R2*%
X29434600Y63990600D02*
X28934600Y63990600D01*
X28934600Y63990600D02*
X28934600Y64990600D01*
X28934600Y64990600D02*
X29434600Y64990600D01*
X29434600Y64990600D02*
X29434600Y63990600D01*
%TO.C,R3*%
X66194800Y59051000D02*
X67194800Y59051000D01*
X66194800Y58551000D02*
X66194800Y59051000D01*
X67194800Y58551000D02*
X66194800Y58551000D01*
X67194800Y59051000D02*
X67194800Y58551000D01*
%TO.C,R4*%
X27707400Y64609600D02*
X27707400Y63609600D01*
X27207400Y64609600D02*
X27707400Y64609600D01*
X27207400Y63609600D02*
X27207400Y64609600D01*
X27707400Y63609600D02*
X27207400Y63609600D01*
%TO.C,R5*%
X26361200Y49614200D02*
X25861200Y49614200D01*
X25861200Y49614200D02*
X25861200Y50614200D01*
X25861200Y50614200D02*
X26361200Y50614200D01*
X26361200Y50614200D02*
X26361200Y49614200D01*
%TO.C,R6*%
X45665200Y54805200D02*
X45665200Y53805200D01*
X45165200Y54805200D02*
X45665200Y54805200D01*
X45165200Y53805200D02*
X45165200Y54805200D01*
X45665200Y53805200D02*
X45165200Y53805200D01*
%TO.C,R7*%
X27969400Y56116600D02*
X27969400Y57116600D01*
X28469400Y56116600D02*
X27969400Y56116600D01*
X28469400Y57116600D02*
X28469400Y56116600D01*
X27969400Y57116600D02*
X28469400Y57116600D01*
%TO.C,R8*%
X28179000Y54893400D02*
X28179000Y55393400D01*
X28179000Y55393400D02*
X29179000Y55393400D01*
X29179000Y55393400D02*
X29179000Y54893400D01*
X29179000Y54893400D02*
X28179000Y54893400D01*
%TO.C,SW1*%
X39292400Y63062800D02*
X39292400Y65562800D01*
X42292400Y63062800D02*
X39292400Y63062800D01*
X42292400Y65562800D02*
X42292400Y63062800D01*
X39292400Y65562800D02*
X42292400Y65562800D01*
X41642400Y65962800D02*
X41642400Y65562800D01*
X41242400Y66262800D02*
X41642400Y65962800D01*
X40342400Y66262800D02*
X41242400Y66262800D01*
X39942400Y65962800D02*
X40342400Y66262800D01*
X39942400Y65562800D02*
X39942400Y65962800D01*
%TO.C,SW2*%
X32220800Y65562800D02*
X32220800Y65962800D01*
X32220800Y65962800D02*
X32620800Y66262800D01*
X32620800Y66262800D02*
X33520800Y66262800D01*
X33520800Y66262800D02*
X33920800Y65962800D01*
X33920800Y65962800D02*
X33920800Y65562800D01*
X31570800Y65562800D02*
X34570800Y65562800D01*
X34570800Y65562800D02*
X34570800Y63062800D01*
X34570800Y63062800D02*
X31570800Y63062800D01*
X31570800Y63062800D02*
X31570800Y65562800D01*
%TD*%
%TO.C,C4*%
D13*
X33664002Y50918728D02*
X33647166Y50918728D01*
X33613495Y50935564D01*
X33596659Y50952400D01*
X33579823Y50986071D01*
X33579823Y51019743D01*
X33588241Y51044997D01*
X33613495Y51087087D01*
X33638748Y51112340D01*
X33680838Y51137594D01*
X33706092Y51146012D01*
X33739764Y51146012D01*
X33773435Y51129176D01*
X33790271Y51112340D01*
X33807107Y51078669D01*
X33807107Y51061833D01*
X33916540Y50868220D02*
X33798689Y50750369D01*
X33941794Y50977653D02*
X33773435Y50893474D01*
X33882869Y50784041D01*
%TO.C,J3*%
D14*
X73741780Y56918266D02*
X74456066Y56918266D01*
X74598923Y56870647D01*
X74694161Y56775409D01*
X74741780Y56632552D01*
X74741780Y56537314D01*
X73741780Y57299219D02*
X73741780Y57918266D01*
X74122733Y57584933D01*
X74122733Y57727790D01*
X74170352Y57823028D01*
X74217971Y57870647D01*
X74313209Y57918266D01*
X74551304Y57918266D01*
X74646542Y57870647D01*
X74694161Y57823028D01*
X74741780Y57727790D01*
X74741780Y57442076D01*
X74694161Y57346838D01*
X74646542Y57299219D01*
%TO.C,U3*%
X56087095Y57773819D02*
X56087095Y56964295D01*
X56134714Y56869057D01*
X56182333Y56821438D01*
X56277571Y56773819D01*
X56468047Y56773819D01*
X56563285Y56821438D01*
X56610904Y56869057D01*
X56658523Y56964295D01*
X56658523Y57773819D01*
X57039476Y57773819D02*
X57658523Y57773819D01*
X57325190Y57392866D01*
X57468047Y57392866D01*
X57563285Y57345247D01*
X57610904Y57297628D01*
X57658523Y57202390D01*
X57658523Y56964295D01*
X57610904Y56869057D01*
X57563285Y56821438D01*
X57468047Y56773819D01*
X57182333Y56773819D01*
X57087095Y56821438D01*
X57039476Y56869057D01*
%TO.C,C5*%
D15*
X31627244Y52473325D02*
X31600306Y52473325D01*
X31546432Y52500262D01*
X31519494Y52527200D01*
X31492557Y52581074D01*
X31492557Y52634949D01*
X31506025Y52675355D01*
X31546432Y52742699D01*
X31586838Y52783105D01*
X31654181Y52823511D01*
X31694587Y52836980D01*
X31748462Y52836980D01*
X31802337Y52810042D01*
X31829274Y52783105D01*
X31856212Y52729230D01*
X31856212Y52702293D01*
X32139054Y52473325D02*
X32004367Y52608012D01*
X31856212Y52486793D01*
X31883149Y52486793D01*
X31923555Y52473325D01*
X31990899Y52405981D01*
X32004367Y52365575D01*
X32004367Y52338638D01*
X31990899Y52298232D01*
X31923555Y52230888D01*
X31883149Y52217419D01*
X31856212Y52217419D01*
X31815806Y52230888D01*
X31748462Y52298232D01*
X31734993Y52338638D01*
X31734993Y52365575D01*
%TO.C,C6*%
X24958657Y52892333D02*
X24977704Y52873285D01*
X24996752Y52816142D01*
X24996752Y52778047D01*
X24977704Y52720904D01*
X24939609Y52682809D01*
X24901514Y52663761D01*
X24825323Y52644714D01*
X24768180Y52644714D01*
X24691990Y52663761D01*
X24653895Y52682809D01*
X24615800Y52720904D01*
X24596752Y52778047D01*
X24596752Y52816142D01*
X24615800Y52873285D01*
X24634847Y52892333D01*
X24596752Y53235190D02*
X24596752Y53159000D01*
X24615800Y53120904D01*
X24634847Y53101857D01*
X24691990Y53063761D01*
X24768180Y53044714D01*
X24920561Y53044714D01*
X24958657Y53063761D01*
X24977704Y53082809D01*
X24996752Y53120904D01*
X24996752Y53197095D01*
X24977704Y53235190D01*
X24958657Y53254238D01*
X24920561Y53273285D01*
X24825323Y53273285D01*
X24787228Y53254238D01*
X24768180Y53235190D01*
X24749133Y53197095D01*
X24749133Y53120904D01*
X24768180Y53082809D01*
X24787228Y53063761D01*
X24825323Y53044714D01*
%TO.C,C9*%
X29251257Y60283733D02*
X29270304Y60264685D01*
X29289352Y60207542D01*
X29289352Y60169447D01*
X29270304Y60112304D01*
X29232209Y60074209D01*
X29194114Y60055161D01*
X29117923Y60036114D01*
X29060780Y60036114D01*
X28984590Y60055161D01*
X28946495Y60074209D01*
X28908400Y60112304D01*
X28889352Y60169447D01*
X28889352Y60207542D01*
X28908400Y60264685D01*
X28927447Y60283733D01*
X29289352Y60474209D02*
X29289352Y60550400D01*
X29270304Y60588495D01*
X29251257Y60607542D01*
X29194114Y60645638D01*
X29117923Y60664685D01*
X28965542Y60664685D01*
X28927447Y60645638D01*
X28908400Y60626590D01*
X28889352Y60588495D01*
X28889352Y60512304D01*
X28908400Y60474209D01*
X28927447Y60455161D01*
X28965542Y60436114D01*
X29060780Y60436114D01*
X29098876Y60455161D01*
X29117923Y60474209D01*
X29136971Y60512304D01*
X29136971Y60588495D01*
X29117923Y60626590D01*
X29098876Y60645638D01*
X29060780Y60664685D01*
%TO.C,C10*%
X30749857Y60093257D02*
X30768904Y60074209D01*
X30787952Y60017066D01*
X30787952Y59978971D01*
X30768904Y59921828D01*
X30730809Y59883733D01*
X30692714Y59864685D01*
X30616523Y59845638D01*
X30559380Y59845638D01*
X30483190Y59864685D01*
X30445095Y59883733D01*
X30407000Y59921828D01*
X30387952Y59978971D01*
X30387952Y60017066D01*
X30407000Y60074209D01*
X30426047Y60093257D01*
X30787952Y60474209D02*
X30787952Y60245638D01*
X30787952Y60359923D02*
X30387952Y60359923D01*
X30445095Y60321828D01*
X30483190Y60283733D01*
X30502238Y60245638D01*
X30387952Y60721828D02*
X30387952Y60759923D01*
X30407000Y60798019D01*
X30426047Y60817066D01*
X30464142Y60836114D01*
X30540333Y60855161D01*
X30635571Y60855161D01*
X30711761Y60836114D01*
X30749857Y60817066D01*
X30768904Y60798019D01*
X30787952Y60759923D01*
X30787952Y60721828D01*
X30768904Y60683733D01*
X30749857Y60664685D01*
X30711761Y60645638D01*
X30635571Y60626590D01*
X30540333Y60626590D01*
X30464142Y60645638D01*
X30426047Y60664685D01*
X30407000Y60683733D01*
X30387952Y60721828D01*
%TO.C,D1*%
D10*
X67987790Y62013352D02*
X67487790Y62013352D01*
X67487790Y62132400D01*
X67511600Y62203828D01*
X67559219Y62251447D01*
X67606838Y62275257D01*
X67702076Y62299066D01*
X67773504Y62299066D01*
X67868742Y62275257D01*
X67916361Y62251447D01*
X67963980Y62203828D01*
X67987790Y62132400D01*
X67987790Y62013352D01*
X67987790Y62775257D02*
X67987790Y62489542D01*
X67987790Y62632400D02*
X67487790Y62632400D01*
X67559219Y62584780D01*
X67606838Y62537161D01*
X67630647Y62489542D01*
%TO.C,D2*%
D16*
X24776952Y63883409D02*
X24776952Y64383409D01*
X24896000Y64383409D01*
X24967428Y64359600D01*
X25015047Y64311980D01*
X25038857Y64264361D01*
X25062666Y64169123D01*
X25062666Y64097695D01*
X25038857Y64002457D01*
X25015047Y63954838D01*
X24967428Y63907219D01*
X24896000Y63883409D01*
X24776952Y63883409D01*
X25253142Y64335790D02*
X25276952Y64359600D01*
X25324571Y64383409D01*
X25443619Y64383409D01*
X25491238Y64359600D01*
X25515047Y64335790D01*
X25538857Y64288171D01*
X25538857Y64240552D01*
X25515047Y64169123D01*
X25229333Y63883409D01*
X25538857Y63883409D01*
%TO.C,D3*%
X28078952Y49888009D02*
X28078952Y50388009D01*
X28198000Y50388009D01*
X28269428Y50364200D01*
X28317047Y50316580D01*
X28340857Y50268961D01*
X28364666Y50173723D01*
X28364666Y50102295D01*
X28340857Y50007057D01*
X28317047Y49959438D01*
X28269428Y49911819D01*
X28198000Y49888009D01*
X28078952Y49888009D01*
X28531333Y50388009D02*
X28840857Y50388009D01*
X28674190Y50197533D01*
X28745619Y50197533D01*
X28793238Y50173723D01*
X28817047Y50149914D01*
X28840857Y50102295D01*
X28840857Y49983247D01*
X28817047Y49935628D01*
X28793238Y49911819D01*
X28745619Y49888009D01*
X28602761Y49888009D01*
X28555142Y49911819D01*
X28531333Y49935628D01*
%TO.C,L2*%
D17*
X25698466Y59988495D02*
X25317514Y59988495D01*
X25317514Y60788495D01*
X25927038Y60712304D02*
X25965133Y60750400D01*
X26041323Y60788495D01*
X26231800Y60788495D01*
X26307990Y60750400D01*
X26346085Y60712304D01*
X26384180Y60636114D01*
X26384180Y60559923D01*
X26346085Y60445638D01*
X25888942Y59988495D01*
X26384180Y59988495D01*
%TO.C,U1*%
D10*
X43404133Y52337181D02*
X43003440Y51936487D01*
X42979869Y51865776D01*
X42979869Y51818636D01*
X43003440Y51747925D01*
X43097721Y51653644D01*
X43168431Y51630074D01*
X43215572Y51630074D01*
X43286282Y51653644D01*
X43686976Y52054338D01*
X43686976Y51064389D02*
X43404133Y51347231D01*
X43545555Y51205810D02*
X44040530Y51700785D01*
X43922678Y51677214D01*
X43828398Y51677214D01*
X43757687Y51700785D01*
%TO.C,U4*%
D18*
X25374647Y56738009D02*
X25374647Y56333247D01*
X25398457Y56285628D01*
X25422266Y56261819D01*
X25469885Y56238009D01*
X25565123Y56238009D01*
X25612742Y56261819D01*
X25636552Y56285628D01*
X25660361Y56333247D01*
X25660361Y56738009D01*
X26112742Y56571342D02*
X26112742Y56238009D01*
X25993695Y56761819D02*
X25874647Y56404676D01*
X26184171Y56404676D01*
%TO.C,C1*%
D13*
X37859085Y64448933D02*
X37870990Y64437028D01*
X37882895Y64401314D01*
X37882895Y64377504D01*
X37870990Y64341790D01*
X37847180Y64317980D01*
X37823371Y64306076D01*
X37775752Y64294171D01*
X37740038Y64294171D01*
X37692419Y64306076D01*
X37668609Y64317980D01*
X37644800Y64341790D01*
X37632895Y64377504D01*
X37632895Y64401314D01*
X37644800Y64437028D01*
X37656704Y64448933D01*
X37882895Y64687028D02*
X37882895Y64544171D01*
X37882895Y64615600D02*
X37632895Y64615600D01*
X37668609Y64591790D01*
X37692419Y64567980D01*
X37704323Y64544171D01*
%TO.C,C2*%
X30213685Y64448933D02*
X30225590Y64437028D01*
X30237495Y64401314D01*
X30237495Y64377504D01*
X30225590Y64341790D01*
X30201780Y64317980D01*
X30177971Y64306076D01*
X30130352Y64294171D01*
X30094638Y64294171D01*
X30047019Y64306076D01*
X30023209Y64317980D01*
X29999400Y64341790D01*
X29987495Y64377504D01*
X29987495Y64401314D01*
X29999400Y64437028D01*
X30011304Y64448933D01*
X30011304Y64544171D02*
X29999400Y64556076D01*
X29987495Y64579885D01*
X29987495Y64639409D01*
X29999400Y64663219D01*
X30011304Y64675123D01*
X30035114Y64687028D01*
X30058923Y64687028D01*
X30094638Y64675123D01*
X30237495Y64532266D01*
X30237495Y64687028D01*
%TO.C,C3*%
X43468402Y58005328D02*
X43451566Y58005328D01*
X43417895Y58022164D01*
X43401059Y58039000D01*
X43384223Y58072671D01*
X43384223Y58106343D01*
X43392641Y58131597D01*
X43417895Y58173687D01*
X43443148Y58198940D01*
X43485238Y58224194D01*
X43510492Y58232612D01*
X43544164Y58232612D01*
X43577835Y58215776D01*
X43594671Y58198940D01*
X43611507Y58165269D01*
X43611507Y58148433D01*
X43687269Y58106343D02*
X43796702Y57996910D01*
X43670433Y57988492D01*
X43695687Y57963238D01*
X43704104Y57937984D01*
X43704104Y57921148D01*
X43695687Y57895895D01*
X43653597Y57853805D01*
X43628343Y57845387D01*
X43611507Y57845387D01*
X43586253Y57853805D01*
X43535746Y57904312D01*
X43527328Y57929566D01*
X43527328Y57946402D01*
%TO.C,R1*%
X36968495Y64448933D02*
X36849447Y64365600D01*
X36968495Y64306076D02*
X36718495Y64306076D01*
X36718495Y64401314D01*
X36730400Y64425123D01*
X36742304Y64437028D01*
X36766114Y64448933D01*
X36801828Y64448933D01*
X36825638Y64437028D01*
X36837542Y64425123D01*
X36849447Y64401314D01*
X36849447Y64306076D01*
X36968495Y64687028D02*
X36968495Y64544171D01*
X36968495Y64615600D02*
X36718495Y64615600D01*
X36754209Y64591790D01*
X36778019Y64567980D01*
X36789923Y64544171D01*
%TO.C,R2*%
X29297695Y64448933D02*
X29178647Y64365600D01*
X29297695Y64306076D02*
X29047695Y64306076D01*
X29047695Y64401314D01*
X29059600Y64425123D01*
X29071504Y64437028D01*
X29095314Y64448933D01*
X29131028Y64448933D01*
X29154838Y64437028D01*
X29166742Y64425123D01*
X29178647Y64401314D01*
X29178647Y64306076D01*
X29071504Y64544171D02*
X29059600Y64556076D01*
X29047695Y64579885D01*
X29047695Y64639409D01*
X29059600Y64663219D01*
X29071504Y64675123D01*
X29095314Y64687028D01*
X29119123Y64687028D01*
X29154838Y64675123D01*
X29297695Y64532266D01*
X29297695Y64687028D01*
%TO.C,R3*%
X66653133Y58687904D02*
X66569800Y58806952D01*
X66510276Y58687904D02*
X66510276Y58937904D01*
X66605514Y58937904D01*
X66629323Y58926000D01*
X66641228Y58914095D01*
X66653133Y58890285D01*
X66653133Y58854571D01*
X66641228Y58830761D01*
X66629323Y58818857D01*
X66605514Y58806952D01*
X66510276Y58806952D01*
X66736466Y58937904D02*
X66891228Y58937904D01*
X66807895Y58842666D01*
X66843609Y58842666D01*
X66867419Y58830761D01*
X66879323Y58818857D01*
X66891228Y58795047D01*
X66891228Y58735523D01*
X66879323Y58711714D01*
X66867419Y58699809D01*
X66843609Y58687904D01*
X66772180Y58687904D01*
X66748371Y58699809D01*
X66736466Y58711714D01*
%TO.C,R4*%
X27570495Y64067933D02*
X27451447Y63984600D01*
X27570495Y63925076D02*
X27320495Y63925076D01*
X27320495Y64020314D01*
X27332400Y64044123D01*
X27344304Y64056028D01*
X27368114Y64067933D01*
X27403828Y64067933D01*
X27427638Y64056028D01*
X27439542Y64044123D01*
X27451447Y64020314D01*
X27451447Y63925076D01*
X27403828Y64282219D02*
X27570495Y64282219D01*
X27308590Y64222695D02*
X27487161Y64163171D01*
X27487161Y64317933D01*
%TO.C,R5*%
X26224295Y50072533D02*
X26105247Y49989200D01*
X26224295Y49929676D02*
X25974295Y49929676D01*
X25974295Y50024914D01*
X25986200Y50048723D01*
X25998104Y50060628D01*
X26021914Y50072533D01*
X26057628Y50072533D01*
X26081438Y50060628D01*
X26093342Y50048723D01*
X26105247Y50024914D01*
X26105247Y49929676D01*
X25974295Y50298723D02*
X25974295Y50179676D01*
X26093342Y50167771D01*
X26081438Y50179676D01*
X26069533Y50203485D01*
X26069533Y50263009D01*
X26081438Y50286819D01*
X26093342Y50298723D01*
X26117152Y50310628D01*
X26176676Y50310628D01*
X26200485Y50298723D01*
X26212390Y50286819D01*
X26224295Y50263009D01*
X26224295Y50203485D01*
X26212390Y50179676D01*
X26200485Y50167771D01*
%TO.C,R6*%
X45528295Y54263533D02*
X45409247Y54180200D01*
X45528295Y54120676D02*
X45278295Y54120676D01*
X45278295Y54215914D01*
X45290200Y54239723D01*
X45302104Y54251628D01*
X45325914Y54263533D01*
X45361628Y54263533D01*
X45385438Y54251628D01*
X45397342Y54239723D01*
X45409247Y54215914D01*
X45409247Y54120676D01*
X45278295Y54477819D02*
X45278295Y54430200D01*
X45290200Y54406390D01*
X45302104Y54394485D01*
X45337819Y54370676D01*
X45385438Y54358771D01*
X45480676Y54358771D01*
X45504485Y54370676D01*
X45516390Y54382580D01*
X45528295Y54406390D01*
X45528295Y54454009D01*
X45516390Y54477819D01*
X45504485Y54489723D01*
X45480676Y54501628D01*
X45421152Y54501628D01*
X45397342Y54489723D01*
X45385438Y54477819D01*
X45373533Y54454009D01*
X45373533Y54406390D01*
X45385438Y54382580D01*
X45397342Y54370676D01*
X45421152Y54358771D01*
%TO.C,R7*%
X28332495Y56574933D02*
X28213447Y56491600D01*
X28332495Y56432076D02*
X28082495Y56432076D01*
X28082495Y56527314D01*
X28094400Y56551123D01*
X28106304Y56563028D01*
X28130114Y56574933D01*
X28165828Y56574933D01*
X28189638Y56563028D01*
X28201542Y56551123D01*
X28213447Y56527314D01*
X28213447Y56432076D01*
X28082495Y56658266D02*
X28082495Y56824933D01*
X28332495Y56717790D01*
%TO.C,R8*%
X28637333Y55030304D02*
X28554000Y55149352D01*
X28494476Y55030304D02*
X28494476Y55280304D01*
X28589714Y55280304D01*
X28613523Y55268400D01*
X28625428Y55256495D01*
X28637333Y55232685D01*
X28637333Y55196971D01*
X28625428Y55173161D01*
X28613523Y55161257D01*
X28589714Y55149352D01*
X28494476Y55149352D01*
X28780190Y55173161D02*
X28756380Y55185066D01*
X28744476Y55196971D01*
X28732571Y55220780D01*
X28732571Y55232685D01*
X28744476Y55256495D01*
X28756380Y55268400D01*
X28780190Y55280304D01*
X28827809Y55280304D01*
X28851619Y55268400D01*
X28863523Y55256495D01*
X28875428Y55232685D01*
X28875428Y55220780D01*
X28863523Y55196971D01*
X28851619Y55185066D01*
X28827809Y55173161D01*
X28780190Y55173161D01*
X28756380Y55161257D01*
X28744476Y55149352D01*
X28732571Y55125542D01*
X28732571Y55077923D01*
X28744476Y55054114D01*
X28756380Y55042209D01*
X28780190Y55030304D01*
X28827809Y55030304D01*
X28851619Y55042209D01*
X28863523Y55054114D01*
X28875428Y55077923D01*
X28875428Y55125542D01*
X28863523Y55149352D01*
X28851619Y55161257D01*
X28827809Y55173161D01*
%TO.C,SW1*%
D14*
X39459066Y66908038D02*
X39601923Y66860419D01*
X39840019Y66860419D01*
X39935257Y66908038D01*
X39982876Y66955657D01*
X40030495Y67050895D01*
X40030495Y67146133D01*
X39982876Y67241371D01*
X39935257Y67288990D01*
X39840019Y67336609D01*
X39649542Y67384228D01*
X39554304Y67431847D01*
X39506685Y67479466D01*
X39459066Y67574704D01*
X39459066Y67669942D01*
X39506685Y67765180D01*
X39554304Y67812800D01*
X39649542Y67860419D01*
X39887638Y67860419D01*
X40030495Y67812800D01*
X40363828Y67860419D02*
X40601923Y66860419D01*
X40792400Y67574704D01*
X40982876Y66860419D01*
X41220971Y67860419D01*
X42125733Y66860419D02*
X41554304Y66860419D01*
X41840019Y66860419D02*
X41840019Y67860419D01*
X41744780Y67717561D01*
X41649542Y67622323D01*
X41554304Y67574704D01*
%TO.C,SW2*%
X31737466Y66908038D02*
X31880323Y66860419D01*
X32118419Y66860419D01*
X32213657Y66908038D01*
X32261276Y66955657D01*
X32308895Y67050895D01*
X32308895Y67146133D01*
X32261276Y67241371D01*
X32213657Y67288990D01*
X32118419Y67336609D01*
X31927942Y67384228D01*
X31832704Y67431847D01*
X31785085Y67479466D01*
X31737466Y67574704D01*
X31737466Y67669942D01*
X31785085Y67765180D01*
X31832704Y67812800D01*
X31927942Y67860419D01*
X32166038Y67860419D01*
X32308895Y67812800D01*
X32642228Y67860419D02*
X32880323Y66860419D01*
X33070800Y67574704D01*
X33261276Y66860419D01*
X33499371Y67860419D01*
X33832704Y67765180D02*
X33880323Y67812800D01*
X33975561Y67860419D01*
X34213657Y67860419D01*
X34308895Y67812800D01*
X34356514Y67765180D01*
X34404133Y67669942D01*
X34404133Y67574704D01*
X34356514Y67431847D01*
X33785085Y66860419D01*
X34404133Y66860419D01*
%TD*%
M02*
