%TF.GenerationSoftware,KiCad,Pcbnew,(5.1.9)-1*%
%TF.CreationDate,2021-02-04T12:19:42+01:00*%
%TF.ProjectId,DynaLoRa_Dongle,44796e61-4c6f-4526-915f-446f6e676c65,rev?*%
%TF.SameCoordinates,Original*%
%TF.FileFunction,Legend,Bot*%
%TF.FilePolarity,Positive*%
%FSLAX46Y46*%
G04 Gerber Fmt 4.6, Leading zero omitted, Abs format (unit mm)*
G04 Created by KiCad (PCBNEW (5.1.9)-1) date 2021-02-04 12:19:42*
%MOMM*%
%LPD*%
G01*
G04 APERTURE LIST*
%ADD10C,0.150000*%
%ADD11C,0.010000*%
%ADD12C,0.120000*%
G04 APERTURE END LIST*
D10*
X68256095Y52883342D02*
X67608476Y52883342D01*
X67532285Y52921438D01*
X67494190Y52959533D01*
X67456095Y53035723D01*
X67456095Y53188104D01*
X67494190Y53264295D01*
X67532285Y53302390D01*
X67608476Y53340485D01*
X68256095Y53340485D01*
X67494190Y53683342D02*
X67456095Y53797628D01*
X67456095Y53988104D01*
X67494190Y54064295D01*
X67532285Y54102390D01*
X67608476Y54140485D01*
X67684666Y54140485D01*
X67760857Y54102390D01*
X67798952Y54064295D01*
X67837047Y53988104D01*
X67875142Y53835723D01*
X67913238Y53759533D01*
X67951333Y53721438D01*
X68027523Y53683342D01*
X68103714Y53683342D01*
X68179904Y53721438D01*
X68218000Y53759533D01*
X68256095Y53835723D01*
X68256095Y54026200D01*
X68218000Y54140485D01*
X67875142Y54750009D02*
X67837047Y54864295D01*
X67798952Y54902390D01*
X67722761Y54940485D01*
X67608476Y54940485D01*
X67532285Y54902390D01*
X67494190Y54864295D01*
X67456095Y54788104D01*
X67456095Y54483342D01*
X68256095Y54483342D01*
X68256095Y54750009D01*
X68218000Y54826200D01*
X68179904Y54864295D01*
X68103714Y54902390D01*
X68027523Y54902390D01*
X67951333Y54864295D01*
X67913238Y54826200D01*
X67875142Y54750009D01*
X67875142Y54483342D01*
X67456095Y55892866D02*
X68256095Y55892866D01*
X68256095Y56083342D01*
X68218000Y56197628D01*
X68141809Y56273819D01*
X68065619Y56311914D01*
X67913238Y56350009D01*
X67798952Y56350009D01*
X67646571Y56311914D01*
X67570380Y56273819D01*
X67494190Y56197628D01*
X67456095Y56083342D01*
X67456095Y55892866D01*
X67456095Y56807152D02*
X67494190Y56730961D01*
X67532285Y56692866D01*
X67608476Y56654771D01*
X67837047Y56654771D01*
X67913238Y56692866D01*
X67951333Y56730961D01*
X67989428Y56807152D01*
X67989428Y56921438D01*
X67951333Y56997628D01*
X67913238Y57035723D01*
X67837047Y57073819D01*
X67608476Y57073819D01*
X67532285Y57035723D01*
X67494190Y56997628D01*
X67456095Y56921438D01*
X67456095Y56807152D01*
X67989428Y57416676D02*
X67456095Y57416676D01*
X67913238Y57416676D02*
X67951333Y57454771D01*
X67989428Y57530961D01*
X67989428Y57645247D01*
X67951333Y57721438D01*
X67875142Y57759533D01*
X67456095Y57759533D01*
X67989428Y58483342D02*
X67341809Y58483342D01*
X67265619Y58445247D01*
X67227523Y58407152D01*
X67189428Y58330961D01*
X67189428Y58216676D01*
X67227523Y58140485D01*
X67494190Y58483342D02*
X67456095Y58407152D01*
X67456095Y58254771D01*
X67494190Y58178580D01*
X67532285Y58140485D01*
X67608476Y58102390D01*
X67837047Y58102390D01*
X67913238Y58140485D01*
X67951333Y58178580D01*
X67989428Y58254771D01*
X67989428Y58407152D01*
X67951333Y58483342D01*
X67456095Y58978580D02*
X67494190Y58902390D01*
X67570380Y58864295D01*
X68256095Y58864295D01*
X67494190Y59588104D02*
X67456095Y59511914D01*
X67456095Y59359533D01*
X67494190Y59283342D01*
X67570380Y59245247D01*
X67875142Y59245247D01*
X67951333Y59283342D01*
X67989428Y59359533D01*
X67989428Y59511914D01*
X67951333Y59588104D01*
X67875142Y59626200D01*
X67798952Y59626200D01*
X67722761Y59245247D01*
X67989428Y60502390D02*
X67456095Y60692866D01*
X67989428Y60883342D01*
X68179904Y61150009D02*
X68218000Y61188104D01*
X68256095Y61264295D01*
X68256095Y61454771D01*
X68218000Y61530961D01*
X68179904Y61569057D01*
X68103714Y61607152D01*
X68027523Y61607152D01*
X67913238Y61569057D01*
X67456095Y61111914D01*
X67456095Y61607152D01*
X59145133Y64165219D02*
X59145133Y64831885D01*
X59145133Y64736647D02*
X59097514Y64784266D01*
X59002276Y64831885D01*
X58859419Y64831885D01*
X58764180Y64784266D01*
X58716561Y64689028D01*
X58716561Y64165219D01*
X58716561Y64689028D02*
X58668942Y64784266D01*
X58573704Y64831885D01*
X58430847Y64831885D01*
X58335609Y64784266D01*
X58287990Y64689028D01*
X58287990Y64165219D01*
X57811800Y64165219D02*
X57811800Y64831885D01*
X57811800Y65165219D02*
X57859419Y65117600D01*
X57811800Y65069980D01*
X57764180Y65117600D01*
X57811800Y65165219D01*
X57811800Y65069980D01*
X56907038Y64212838D02*
X57002276Y64165219D01*
X57192752Y64165219D01*
X57287990Y64212838D01*
X57335609Y64260457D01*
X57383228Y64355695D01*
X57383228Y64641409D01*
X57335609Y64736647D01*
X57287990Y64784266D01*
X57192752Y64831885D01*
X57002276Y64831885D01*
X56907038Y64784266D01*
X56478466Y64165219D02*
X56478466Y64831885D01*
X56478466Y64641409D02*
X56430847Y64736647D01*
X56383228Y64784266D01*
X56287990Y64831885D01*
X56192752Y64831885D01*
X55716561Y64165219D02*
X55811800Y64212838D01*
X55859419Y64260457D01*
X55907038Y64355695D01*
X55907038Y64641409D01*
X55859419Y64736647D01*
X55811800Y64784266D01*
X55716561Y64831885D01*
X55573704Y64831885D01*
X55478466Y64784266D01*
X55430847Y64736647D01*
X55383228Y64641409D01*
X55383228Y64355695D01*
X55430847Y64260457D01*
X55478466Y64212838D01*
X55573704Y64165219D01*
X55716561Y64165219D01*
X55002276Y64212838D02*
X54859419Y64165219D01*
X54621323Y64165219D01*
X54526085Y64212838D01*
X54478466Y64260457D01*
X54430847Y64355695D01*
X54430847Y64450933D01*
X54478466Y64546171D01*
X54526085Y64593790D01*
X54621323Y64641409D01*
X54811800Y64689028D01*
X54907038Y64736647D01*
X54954657Y64784266D01*
X55002276Y64879504D01*
X55002276Y64974742D01*
X54954657Y65069980D01*
X54907038Y65117600D01*
X54811800Y65165219D01*
X54573704Y65165219D01*
X54430847Y65117600D01*
X54002276Y64165219D02*
X54002276Y65165219D01*
X53764180Y65165219D01*
X53621323Y65117600D01*
X53526085Y65022361D01*
X53478466Y64927123D01*
X53430847Y64736647D01*
X53430847Y64593790D01*
X53478466Y64403314D01*
X53526085Y64308076D01*
X53621323Y64212838D01*
X53764180Y64165219D01*
X54002276Y64165219D01*
X43569000Y54609904D02*
X43521380Y54705142D01*
X43521380Y54848000D01*
X43569000Y54990857D01*
X43664238Y55086095D01*
X43759476Y55133714D01*
X43949952Y55181333D01*
X44092809Y55181333D01*
X44283285Y55133714D01*
X44378523Y55086095D01*
X44473761Y54990857D01*
X44521380Y54848000D01*
X44521380Y54752761D01*
X44473761Y54609904D01*
X44426142Y54562285D01*
X44092809Y54562285D01*
X44092809Y54752761D01*
X44521380Y54133714D02*
X43521380Y54133714D01*
X44521380Y53562285D01*
X43521380Y53562285D01*
X44521380Y53086095D02*
X43521380Y53086095D01*
X43521380Y52848000D01*
X43569000Y52705142D01*
X43664238Y52609904D01*
X43759476Y52562285D01*
X43949952Y52514666D01*
X44092809Y52514666D01*
X44283285Y52562285D01*
X44378523Y52609904D01*
X44473761Y52705142D01*
X44521380Y52848000D01*
X44521380Y53086095D01*
X41930580Y55871857D02*
X40930580Y55871857D01*
X40930580Y55490904D01*
X40978200Y55395666D01*
X41025819Y55348047D01*
X41121057Y55300428D01*
X41263914Y55300428D01*
X41359152Y55348047D01*
X41406771Y55395666D01*
X41454390Y55490904D01*
X41454390Y55871857D01*
X41644866Y54919476D02*
X41644866Y54443285D01*
X41930580Y55014714D02*
X40930580Y54681380D01*
X41930580Y54348047D01*
X40930580Y53824238D02*
X40930580Y53729000D01*
X40978200Y53633761D01*
X41025819Y53586142D01*
X41121057Y53538523D01*
X41311533Y53490904D01*
X41549628Y53490904D01*
X41740104Y53538523D01*
X41835342Y53586142D01*
X41882961Y53633761D01*
X41930580Y53729000D01*
X41930580Y53824238D01*
X41882961Y53919476D01*
X41835342Y53967095D01*
X41740104Y54014714D01*
X41549628Y54062333D01*
X41311533Y54062333D01*
X41121057Y54014714D01*
X41025819Y53967095D01*
X40978200Y53919476D01*
X40930580Y53824238D01*
X41025819Y53109952D02*
X40978200Y53062333D01*
X40930580Y52967095D01*
X40930580Y52729000D01*
X40978200Y52633761D01*
X41025819Y52586142D01*
X41121057Y52538523D01*
X41216295Y52538523D01*
X41359152Y52586142D01*
X41930580Y53157571D01*
X41930580Y52538523D01*
X39415980Y55821057D02*
X38415980Y55821057D01*
X38415980Y55440104D01*
X38463600Y55344866D01*
X38511219Y55297247D01*
X38606457Y55249628D01*
X38749314Y55249628D01*
X38844552Y55297247D01*
X38892171Y55344866D01*
X38939790Y55440104D01*
X38939790Y55821057D01*
X39130266Y54868676D02*
X39130266Y54392485D01*
X39415980Y54963914D02*
X38415980Y54630580D01*
X39415980Y54297247D01*
X38415980Y53773438D02*
X38415980Y53678200D01*
X38463600Y53582961D01*
X38511219Y53535342D01*
X38606457Y53487723D01*
X38796933Y53440104D01*
X39035028Y53440104D01*
X39225504Y53487723D01*
X39320742Y53535342D01*
X39368361Y53582961D01*
X39415980Y53678200D01*
X39415980Y53773438D01*
X39368361Y53868676D01*
X39320742Y53916295D01*
X39225504Y53963914D01*
X39035028Y54011533D01*
X38796933Y54011533D01*
X38606457Y53963914D01*
X38511219Y53916295D01*
X38463600Y53868676D01*
X38415980Y53773438D01*
X39415980Y52487723D02*
X39415980Y53059152D01*
X39415980Y52773438D02*
X38415980Y52773438D01*
X38558838Y52868676D01*
X38654076Y52963914D01*
X38701695Y53059152D01*
X36901380Y55871857D02*
X35901380Y55871857D01*
X35901380Y55490904D01*
X35949000Y55395666D01*
X35996619Y55348047D01*
X36091857Y55300428D01*
X36234714Y55300428D01*
X36329952Y55348047D01*
X36377571Y55395666D01*
X36425190Y55490904D01*
X36425190Y55871857D01*
X36615666Y54919476D02*
X36615666Y54443285D01*
X36901380Y55014714D02*
X35901380Y54681380D01*
X36901380Y54348047D01*
X35901380Y53824238D02*
X35901380Y53729000D01*
X35949000Y53633761D01*
X35996619Y53586142D01*
X36091857Y53538523D01*
X36282333Y53490904D01*
X36520428Y53490904D01*
X36710904Y53538523D01*
X36806142Y53586142D01*
X36853761Y53633761D01*
X36901380Y53729000D01*
X36901380Y53824238D01*
X36853761Y53919476D01*
X36806142Y53967095D01*
X36710904Y54014714D01*
X36520428Y54062333D01*
X36282333Y54062333D01*
X36091857Y54014714D01*
X35996619Y53967095D01*
X35949000Y53919476D01*
X35901380Y53824238D01*
X35901380Y52871857D02*
X35901380Y52776619D01*
X35949000Y52681380D01*
X35996619Y52633761D01*
X36091857Y52586142D01*
X36282333Y52538523D01*
X36520428Y52538523D01*
X36710904Y52586142D01*
X36806142Y52633761D01*
X36853761Y52681380D01*
X36901380Y52776619D01*
X36901380Y52871857D01*
X36853761Y52967095D01*
X36806142Y53014714D01*
X36710904Y53062333D01*
X36520428Y53109952D01*
X36282333Y53109952D01*
X36091857Y53062333D01*
X35996619Y53014714D01*
X35949000Y52967095D01*
X35901380Y52871857D01*
X34313761Y56729047D02*
X34361380Y56586190D01*
X34361380Y56348095D01*
X34313761Y56252857D01*
X34266142Y56205238D01*
X34170904Y56157619D01*
X34075666Y56157619D01*
X33980428Y56205238D01*
X33932809Y56252857D01*
X33885190Y56348095D01*
X33837571Y56538571D01*
X33789952Y56633809D01*
X33742333Y56681428D01*
X33647095Y56729047D01*
X33551857Y56729047D01*
X33456619Y56681428D01*
X33409000Y56633809D01*
X33361380Y56538571D01*
X33361380Y56300476D01*
X33409000Y56157619D01*
X33361380Y55824285D02*
X34361380Y55586190D01*
X33647095Y55395714D01*
X34361380Y55205238D01*
X33361380Y54967142D01*
X34361380Y54586190D02*
X33361380Y54586190D01*
X33361380Y54348095D01*
X33409000Y54205238D01*
X33504238Y54110000D01*
X33599476Y54062380D01*
X33789952Y54014761D01*
X33932809Y54014761D01*
X34123285Y54062380D01*
X34218523Y54110000D01*
X34313761Y54205238D01*
X34361380Y54348095D01*
X34361380Y54586190D01*
X34361380Y53586190D02*
X33361380Y53586190D01*
X33361380Y52919523D02*
X33361380Y52729047D01*
X33409000Y52633809D01*
X33504238Y52538571D01*
X33694714Y52490952D01*
X34028047Y52490952D01*
X34218523Y52538571D01*
X34313761Y52633809D01*
X34361380Y52729047D01*
X34361380Y52919523D01*
X34313761Y53014761D01*
X34218523Y53110000D01*
X34028047Y53157619D01*
X33694714Y53157619D01*
X33504238Y53110000D01*
X33409000Y53014761D01*
X33361380Y52919523D01*
X31799161Y57049704D02*
X31846780Y56906847D01*
X31846780Y56668752D01*
X31799161Y56573514D01*
X31751542Y56525895D01*
X31656304Y56478276D01*
X31561066Y56478276D01*
X31465828Y56525895D01*
X31418209Y56573514D01*
X31370590Y56668752D01*
X31322971Y56859228D01*
X31275352Y56954466D01*
X31227733Y57002085D01*
X31132495Y57049704D01*
X31037257Y57049704D01*
X30942019Y57002085D01*
X30894400Y56954466D01*
X30846780Y56859228D01*
X30846780Y56621133D01*
X30894400Y56478276D01*
X30846780Y56144942D02*
X31846780Y55906847D01*
X31132495Y55716371D01*
X31846780Y55525895D01*
X30846780Y55287800D01*
X31751542Y54335419D02*
X31799161Y54383038D01*
X31846780Y54525895D01*
X31846780Y54621133D01*
X31799161Y54763990D01*
X31703923Y54859228D01*
X31608685Y54906847D01*
X31418209Y54954466D01*
X31275352Y54954466D01*
X31084876Y54906847D01*
X30989638Y54859228D01*
X30894400Y54763990D01*
X30846780Y54621133D01*
X30846780Y54525895D01*
X30894400Y54383038D01*
X30942019Y54335419D01*
X31846780Y53430657D02*
X31846780Y53906847D01*
X30846780Y53906847D01*
X31846780Y53097323D02*
X30846780Y53097323D01*
X31846780Y52525895D02*
X31275352Y52954466D01*
X30846780Y52525895D02*
X31418209Y53097323D01*
X28281380Y54959095D02*
X28281380Y54340047D01*
X28662333Y54673380D01*
X28662333Y54530523D01*
X28709952Y54435285D01*
X28757571Y54387666D01*
X28852809Y54340047D01*
X29090904Y54340047D01*
X29186142Y54387666D01*
X29233761Y54435285D01*
X29281380Y54530523D01*
X29281380Y54816238D01*
X29233761Y54911476D01*
X29186142Y54959095D01*
X28281380Y54054333D02*
X29281380Y53721000D01*
X28281380Y53387666D01*
X28281380Y53149571D02*
X28281380Y52530523D01*
X28662333Y52863857D01*
X28662333Y52721000D01*
X28709952Y52625761D01*
X28757571Y52578142D01*
X28852809Y52530523D01*
X29090904Y52530523D01*
X29186142Y52578142D01*
X29233761Y52625761D01*
X29281380Y52721000D01*
X29281380Y53006714D01*
X29233761Y53101952D01*
X29186142Y53149571D01*
X68853095Y54432533D02*
X69653095Y54432533D01*
X69653095Y54623009D01*
X69615000Y54737295D01*
X69538809Y54813485D01*
X69462619Y54851580D01*
X69310238Y54889676D01*
X69195952Y54889676D01*
X69043571Y54851580D01*
X68967380Y54813485D01*
X68891190Y54737295D01*
X68853095Y54623009D01*
X68853095Y54432533D01*
X69386428Y55156342D02*
X68853095Y55346819D01*
X69386428Y55537295D02*
X68853095Y55346819D01*
X68662619Y55270628D01*
X68624523Y55232533D01*
X68586428Y55156342D01*
X69386428Y55842057D02*
X68853095Y55842057D01*
X69310238Y55842057D02*
X69348333Y55880152D01*
X69386428Y55956342D01*
X69386428Y56070628D01*
X69348333Y56146819D01*
X69272142Y56184914D01*
X68853095Y56184914D01*
X68853095Y56908723D02*
X69272142Y56908723D01*
X69348333Y56870628D01*
X69386428Y56794438D01*
X69386428Y56642057D01*
X69348333Y56565866D01*
X68891190Y56908723D02*
X68853095Y56832533D01*
X68853095Y56642057D01*
X68891190Y56565866D01*
X68967380Y56527771D01*
X69043571Y56527771D01*
X69119761Y56565866D01*
X69157857Y56642057D01*
X69157857Y56832533D01*
X69195952Y56908723D01*
X68853095Y57670628D02*
X68853095Y57289676D01*
X69653095Y57289676D01*
X68853095Y58051580D02*
X68891190Y57975390D01*
X68929285Y57937295D01*
X69005476Y57899200D01*
X69234047Y57899200D01*
X69310238Y57937295D01*
X69348333Y57975390D01*
X69386428Y58051580D01*
X69386428Y58165866D01*
X69348333Y58242057D01*
X69310238Y58280152D01*
X69234047Y58318247D01*
X69005476Y58318247D01*
X68929285Y58280152D01*
X68891190Y58242057D01*
X68853095Y58165866D01*
X68853095Y58051580D01*
X68853095Y59118247D02*
X69234047Y58851580D01*
X68853095Y58661104D02*
X69653095Y58661104D01*
X69653095Y58965866D01*
X69615000Y59042057D01*
X69576904Y59080152D01*
X69500714Y59118247D01*
X69386428Y59118247D01*
X69310238Y59080152D01*
X69272142Y59042057D01*
X69234047Y58965866D01*
X69234047Y58661104D01*
X69081666Y59423009D02*
X69081666Y59803961D01*
X68853095Y59346819D02*
X69653095Y59613485D01*
X68853095Y59880152D01*
D11*
%TO.C,G\u002A\u002A\u002A*%
G36*
X43781509Y62951589D02*
G01*
X43703445Y62951569D01*
X43630493Y62951538D01*
X43562475Y62951495D01*
X43499211Y62951440D01*
X43440525Y62951373D01*
X43386235Y62951294D01*
X43336165Y62951201D01*
X43290135Y62951094D01*
X43247966Y62950973D01*
X43209480Y62950838D01*
X43174498Y62950688D01*
X43142841Y62950523D01*
X43114331Y62950343D01*
X43088788Y62950146D01*
X43066035Y62949933D01*
X43045892Y62949703D01*
X43028181Y62949456D01*
X43012723Y62949192D01*
X42999339Y62948909D01*
X42987850Y62948608D01*
X42978079Y62948289D01*
X42969845Y62947950D01*
X42962971Y62947591D01*
X42957277Y62947213D01*
X42952585Y62946814D01*
X42949859Y62946529D01*
X42865515Y62933373D01*
X42783431Y62913405D01*
X42703912Y62886772D01*
X42627262Y62853625D01*
X42553785Y62814112D01*
X42483785Y62768384D01*
X42417566Y62716590D01*
X42355433Y62658879D01*
X42347165Y62650426D01*
X42290269Y62586483D01*
X42239568Y62518765D01*
X42195070Y62447283D01*
X42167821Y62395433D01*
X42142312Y62339932D01*
X42121429Y62286952D01*
X42104385Y62234181D01*
X42090392Y62179303D01*
X42083993Y62148817D01*
X42082601Y62141845D01*
X42081285Y62135368D01*
X42080042Y62129179D01*
X42078872Y62123070D01*
X42077771Y62116834D01*
X42076738Y62110261D01*
X42075770Y62103145D01*
X42074866Y62095278D01*
X42074024Y62086452D01*
X42073242Y62076458D01*
X42072516Y62065090D01*
X42071847Y62052139D01*
X42071230Y62037397D01*
X42070666Y62020657D01*
X42070150Y62001711D01*
X42069682Y61980351D01*
X42069259Y61956369D01*
X42068880Y61929556D01*
X42068542Y61899707D01*
X42068243Y61866612D01*
X42067981Y61830063D01*
X42067755Y61789853D01*
X42067561Y61745775D01*
X42067399Y61697619D01*
X42067265Y61645179D01*
X42067159Y61588246D01*
X42067078Y61526613D01*
X42067019Y61460072D01*
X42066982Y61388414D01*
X42066964Y61311433D01*
X42066962Y61228919D01*
X42066975Y61140667D01*
X42067001Y61046466D01*
X42067038Y60946111D01*
X42067083Y60839392D01*
X42067136Y60726102D01*
X42067192Y60606034D01*
X42067252Y60478979D01*
X42067270Y60439300D01*
X42067989Y58853614D01*
X42075892Y58808257D01*
X42091964Y58729772D01*
X42112075Y58656502D01*
X42136643Y58587371D01*
X42166085Y58521305D01*
X42200820Y58457227D01*
X42231190Y58408935D01*
X42281113Y58339909D01*
X42334874Y58276975D01*
X42392602Y58219988D01*
X42418000Y58197845D01*
X42486448Y58144905D01*
X42557813Y58098589D01*
X42631968Y58058947D01*
X42708787Y58026028D01*
X42788145Y57999881D01*
X42869914Y57980555D01*
X42953970Y57968101D01*
X43016714Y57963375D01*
X43023502Y57963234D01*
X43037333Y57963103D01*
X43057992Y57962981D01*
X43085264Y57962869D01*
X43118936Y57962766D01*
X43158793Y57962672D01*
X43204620Y57962588D01*
X43256202Y57962513D01*
X43313326Y57962448D01*
X43375776Y57962393D01*
X43443339Y57962347D01*
X43515799Y57962311D01*
X43592943Y57962284D01*
X43674556Y57962268D01*
X43760423Y57962261D01*
X43850329Y57962264D01*
X43944061Y57962277D01*
X44041404Y57962300D01*
X44142144Y57962333D01*
X44246065Y57962375D01*
X44352953Y57962428D01*
X44462595Y57962491D01*
X44574775Y57962565D01*
X44689279Y57962648D01*
X44805892Y57962742D01*
X44924400Y57962846D01*
X45044589Y57962960D01*
X45065042Y57962980D01*
X45185125Y57963104D01*
X45303417Y57963235D01*
X45419712Y57963373D01*
X45533799Y57963515D01*
X45645472Y57963663D01*
X45754522Y57963816D01*
X45860740Y57963974D01*
X45963918Y57964135D01*
X46063847Y57964299D01*
X46160319Y57964467D01*
X46253126Y57964637D01*
X46342059Y57964809D01*
X46426911Y57964983D01*
X46507471Y57965157D01*
X46583533Y57965333D01*
X46654887Y57965509D01*
X46721326Y57965684D01*
X46782641Y57965859D01*
X46838622Y57966033D01*
X46889064Y57966205D01*
X46933755Y57966376D01*
X46972489Y57966543D01*
X47005057Y57966708D01*
X47031250Y57966870D01*
X47050861Y57967027D01*
X47063680Y57967180D01*
X47069499Y57967329D01*
X47069828Y57967363D01*
X47077150Y57968906D01*
X47089670Y57971165D01*
X47105406Y57973793D01*
X47117000Y57975624D01*
X47194589Y57991195D01*
X47271535Y58013785D01*
X47347289Y58043159D01*
X47421303Y58079079D01*
X47493028Y58121308D01*
X47556057Y58165179D01*
X47577564Y58182408D01*
X47602196Y58203931D01*
X47628664Y58228471D01*
X47655681Y58254751D01*
X47681960Y58281494D01*
X47706215Y58307424D01*
X47727157Y58331264D01*
X47741628Y58349243D01*
X47787123Y58413585D01*
X47826477Y58478812D01*
X47860105Y58545890D01*
X47888425Y58615784D01*
X47911855Y58689462D01*
X47930810Y58767889D01*
X47937758Y58803695D01*
X47946128Y58849985D01*
X47946128Y60452000D01*
X47946127Y60580716D01*
X47946124Y60702379D01*
X47946118Y60817194D01*
X47946107Y60925365D01*
X47946092Y61027097D01*
X47946071Y61122593D01*
X47946044Y61212060D01*
X47946009Y61295701D01*
X47945967Y61373720D01*
X47945915Y61446322D01*
X47945854Y61513712D01*
X47945783Y61576094D01*
X47945700Y61633672D01*
X47945604Y61686651D01*
X47945496Y61735235D01*
X47945375Y61779629D01*
X47945238Y61820038D01*
X47945086Y61856665D01*
X47944918Y61889715D01*
X47944733Y61919393D01*
X47944530Y61945903D01*
X47944309Y61969449D01*
X47944068Y61990237D01*
X47943806Y62008469D01*
X47943524Y62024352D01*
X47943220Y62038090D01*
X47942892Y62049886D01*
X47942542Y62059945D01*
X47942167Y62068473D01*
X47941767Y62075672D01*
X47941340Y62081749D01*
X47940887Y62086906D01*
X47940407Y62091349D01*
X47939898Y62095282D01*
X47939567Y62097557D01*
X47929439Y62150171D01*
X47265792Y62150171D01*
X47265494Y60902850D01*
X47265467Y60788313D01*
X47265441Y60680796D01*
X47265413Y60580066D01*
X47265381Y60485884D01*
X47265341Y60398017D01*
X47265291Y60316226D01*
X47265228Y60240278D01*
X47265150Y60169935D01*
X47265053Y60104961D01*
X47264934Y60045122D01*
X47264792Y59990181D01*
X47264624Y59939902D01*
X47264425Y59894048D01*
X47264195Y59852386D01*
X47263929Y59814677D01*
X47263626Y59780687D01*
X47263282Y59750179D01*
X47262895Y59722918D01*
X47262462Y59698667D01*
X47261980Y59677192D01*
X47261446Y59658254D01*
X47260858Y59641620D01*
X47260213Y59627053D01*
X47259508Y59614317D01*
X47258740Y59603176D01*
X47257907Y59593394D01*
X47257006Y59584736D01*
X47256034Y59576965D01*
X47254988Y59569845D01*
X47253866Y59563141D01*
X47252664Y59556616D01*
X47251381Y59550035D01*
X47250013Y59543163D01*
X47249541Y59540786D01*
X47229581Y59457587D01*
X47203308Y59377968D01*
X47170719Y59301921D01*
X47131810Y59229438D01*
X47086574Y59160508D01*
X47035008Y59095124D01*
X46992350Y59048585D01*
X46930365Y58990054D01*
X46864719Y58937752D01*
X46795605Y58891770D01*
X46723216Y58852200D01*
X46647744Y58819135D01*
X46569382Y58792665D01*
X46488324Y58772884D01*
X46404762Y58759882D01*
X46381342Y58757505D01*
X46373504Y58757136D01*
X46358860Y58756801D01*
X46337857Y58756502D01*
X46310946Y58756239D01*
X46278577Y58756015D01*
X46241198Y58755830D01*
X46199260Y58755686D01*
X46153212Y58755585D01*
X46103504Y58755527D01*
X46050585Y58755514D01*
X45994904Y58755547D01*
X45936913Y58755628D01*
X45877059Y58755758D01*
X45837928Y58755868D01*
X45764926Y58756101D01*
X45698821Y58756336D01*
X45639254Y58756576D01*
X45585867Y58756827D01*
X45538298Y58757093D01*
X45496189Y58757379D01*
X45459181Y58757688D01*
X45426914Y58758027D01*
X45399028Y58758399D01*
X45375164Y58758810D01*
X45354963Y58759262D01*
X45338065Y58759762D01*
X45324110Y58760314D01*
X45312740Y58760921D01*
X45303594Y58761590D01*
X45296314Y58762324D01*
X45292650Y58762804D01*
X45225676Y58776030D01*
X45161232Y58795806D01*
X45099712Y58821787D01*
X45041514Y58853629D01*
X44987034Y58890988D01*
X44936669Y58933520D01*
X44890815Y58980880D01*
X44849870Y59032725D01*
X44814230Y59088709D01*
X44784291Y59148490D01*
X44760450Y59211723D01*
X44755160Y59229171D01*
X44751501Y59241800D01*
X44748234Y59253167D01*
X44745338Y59263737D01*
X44742789Y59273971D01*
X44740567Y59284334D01*
X44738648Y59295287D01*
X44737010Y59307295D01*
X44735632Y59320821D01*
X44734490Y59336326D01*
X44733563Y59354275D01*
X44732829Y59375131D01*
X44732264Y59399356D01*
X44731848Y59427414D01*
X44731557Y59459768D01*
X44731370Y59496881D01*
X44731265Y59539216D01*
X44731218Y59587236D01*
X44731208Y59641404D01*
X44731213Y59702183D01*
X44731214Y59728100D01*
X44731223Y59792332D01*
X44731256Y59849765D01*
X44731325Y59900853D01*
X44731439Y59946053D01*
X44731609Y59985823D01*
X44731846Y60020618D01*
X44732161Y60050895D01*
X44732564Y60077111D01*
X44733065Y60099722D01*
X44733675Y60119185D01*
X44734405Y60135956D01*
X44735265Y60150491D01*
X44736266Y60163248D01*
X44737418Y60174683D01*
X44738732Y60185253D01*
X44740219Y60195413D01*
X44741888Y60205621D01*
X44742320Y60208143D01*
X44760027Y60289913D01*
X44784443Y60369209D01*
X44815340Y60445682D01*
X44852486Y60518984D01*
X44895653Y60588765D01*
X44944611Y60654676D01*
X44999130Y60716369D01*
X45058981Y60773495D01*
X45123935Y60825706D01*
X45169678Y60857427D01*
X45233144Y60895408D01*
X45299073Y60927990D01*
X45368277Y60955479D01*
X45441565Y60978183D01*
X45519747Y60996410D01*
X45551913Y61002401D01*
X45557989Y61003364D01*
X45564828Y61004228D01*
X45572850Y61005000D01*
X45582477Y61005685D01*
X45594130Y61006292D01*
X45608231Y61006827D01*
X45625202Y61007297D01*
X45645464Y61007709D01*
X45669438Y61008070D01*
X45697547Y61008387D01*
X45730210Y61008667D01*
X45767851Y61008916D01*
X45810890Y61009142D01*
X45859750Y61009352D01*
X45914850Y61009552D01*
X45976614Y61009750D01*
X46003935Y61009832D01*
X46420314Y61011060D01*
X46420314Y60452000D01*
X46060178Y60451985D01*
X45998349Y60451979D01*
X45943308Y60451950D01*
X45894585Y60451878D01*
X45851710Y60451743D01*
X45814214Y60451523D01*
X45781628Y60451197D01*
X45753481Y60450745D01*
X45729305Y60450146D01*
X45708630Y60449379D01*
X45690986Y60448422D01*
X45675904Y60447256D01*
X45662914Y60445858D01*
X45651547Y60444209D01*
X45641333Y60442287D01*
X45631802Y60440072D01*
X45622486Y60437542D01*
X45612914Y60434677D01*
X45603263Y60431659D01*
X45552548Y60411998D01*
X45503917Y60385840D01*
X45458519Y60353882D01*
X45422133Y60321496D01*
X45383292Y60278181D01*
X45350939Y60231766D01*
X45324882Y60181898D01*
X45304925Y60128224D01*
X45295048Y60090750D01*
X45293557Y60083949D01*
X45292257Y60077377D01*
X45291133Y60070497D01*
X45290169Y60062771D01*
X45289348Y60053662D01*
X45288655Y60042632D01*
X45288073Y60029144D01*
X45287587Y60012660D01*
X45287181Y59992643D01*
X45286837Y59968556D01*
X45286541Y59939860D01*
X45286277Y59906019D01*
X45286027Y59866495D01*
X45285777Y59820750D01*
X45285529Y59772232D01*
X45285269Y59709997D01*
X45285148Y59654926D01*
X45285169Y59606928D01*
X45285333Y59565912D01*
X45285639Y59531786D01*
X45286088Y59504458D01*
X45286682Y59483838D01*
X45287420Y59469835D01*
X45288041Y59463804D01*
X45296598Y59430667D01*
X45311435Y59400222D01*
X45331825Y59373268D01*
X45357043Y59350602D01*
X45386362Y59333024D01*
X45417165Y59321813D01*
X45421153Y59320957D01*
X45426450Y59320192D01*
X45433450Y59319513D01*
X45442548Y59318914D01*
X45454138Y59318392D01*
X45468615Y59317941D01*
X45486374Y59317556D01*
X45507810Y59317232D01*
X45533317Y59316964D01*
X45563291Y59316748D01*
X45598126Y59316579D01*
X45638216Y59316451D01*
X45683957Y59316359D01*
X45735744Y59316300D01*
X45793970Y59316267D01*
X45859032Y59316257D01*
X45863828Y59316257D01*
X45941124Y59316292D01*
X46011268Y59316399D01*
X46074249Y59316576D01*
X46130056Y59316824D01*
X46178678Y59317142D01*
X46220103Y59317531D01*
X46254321Y59317991D01*
X46281320Y59318521D01*
X46301091Y59319121D01*
X46313621Y59319791D01*
X46317138Y59320148D01*
X46360398Y59328954D01*
X46405274Y59343208D01*
X46449715Y59362099D01*
X46491670Y59384813D01*
X46510095Y59396678D01*
X46524037Y59407088D01*
X46540760Y59420936D01*
X46558090Y59436357D01*
X46572802Y59450435D01*
X46610354Y59492544D01*
X46641821Y59537876D01*
X46667519Y59587004D01*
X46687761Y59640501D01*
X46698439Y59679114D01*
X46699038Y59681842D01*
X46699600Y59685032D01*
X46700126Y59688919D01*
X46700618Y59693735D01*
X46701077Y59699712D01*
X46701504Y59707084D01*
X46701902Y59716084D01*
X46702270Y59726943D01*
X46702612Y59739896D01*
X46702928Y59755175D01*
X46703219Y59773012D01*
X46703487Y59793641D01*
X46703734Y59817295D01*
X46703961Y59844205D01*
X46704168Y59874606D01*
X46704359Y59908730D01*
X46704533Y59946810D01*
X46704693Y59989079D01*
X46704840Y60035769D01*
X46704975Y60087113D01*
X46705100Y60143345D01*
X46705216Y60204697D01*
X46705324Y60271401D01*
X46705426Y60343692D01*
X46705524Y60421801D01*
X46705618Y60505961D01*
X46705711Y60596406D01*
X46705803Y60693368D01*
X46705896Y60797080D01*
X46705992Y60907774D01*
X46706009Y60928250D01*
X46707045Y62150171D01*
X45284571Y62150171D01*
X45284571Y61104963D01*
X45274592Y61101200D01*
X45194821Y61067266D01*
X45117844Y61026803D01*
X45044071Y60980135D01*
X44973915Y60927588D01*
X44907785Y60869486D01*
X44846093Y60806154D01*
X44789250Y60737918D01*
X44753973Y60689459D01*
X44744065Y60675179D01*
X44735714Y60663361D01*
X44729730Y60655132D01*
X44726922Y60651622D01*
X44726832Y60651571D01*
X44726728Y60655143D01*
X44726627Y60665635D01*
X44726530Y60682707D01*
X44726436Y60706022D01*
X44726346Y60735243D01*
X44726300Y60754261D01*
X44581880Y60754261D01*
X44581398Y60695055D01*
X44574757Y60636344D01*
X44562060Y60578642D01*
X44543410Y60522464D01*
X44518910Y60468326D01*
X44488663Y60416743D01*
X44452772Y60368229D01*
X44411340Y60323300D01*
X44364470Y60282472D01*
X44332292Y60259152D01*
X44277010Y60226154D01*
X44219473Y60200049D01*
X44159804Y60180871D01*
X44098127Y60168656D01*
X44034565Y60163441D01*
X44001871Y60163476D01*
X43955525Y60166224D01*
X43912878Y60172051D01*
X43871341Y60181483D01*
X43828329Y60195048D01*
X43805834Y60203400D01*
X43758022Y60225210D01*
X43710589Y60253152D01*
X43664962Y60286174D01*
X43622565Y60323225D01*
X43584823Y60363256D01*
X43578307Y60371099D01*
X43560000Y60393612D01*
X43548707Y60387837D01*
X43531462Y60377825D01*
X43511071Y60364124D01*
X43489496Y60348197D01*
X43468701Y60331510D01*
X43450649Y60315527D01*
X43446825Y60311843D01*
X43407874Y60268528D01*
X43374969Y60221321D01*
X43348313Y60170636D01*
X43328108Y60116886D01*
X43314558Y60060485D01*
X43310760Y60034966D01*
X43310233Y60026870D01*
X43309744Y60011617D01*
X43309292Y59989305D01*
X43308879Y59960034D01*
X43308504Y59923904D01*
X43308170Y59881012D01*
X43307875Y59831460D01*
X43307621Y59775345D01*
X43307409Y59712768D01*
X43307238Y59643827D01*
X43307110Y59568623D01*
X43307024Y59487253D01*
X43306983Y59399818D01*
X43306979Y59377287D01*
X43306919Y58750200D01*
X42747958Y58750200D01*
X42749274Y59447793D01*
X42749428Y59531717D01*
X42749564Y59608718D01*
X42749693Y59679131D01*
X42749821Y59743288D01*
X42749957Y59801525D01*
X42750111Y59854175D01*
X42750290Y59901573D01*
X42750504Y59944052D01*
X42750760Y59981947D01*
X42751067Y60015591D01*
X42751434Y60045320D01*
X42751869Y60071466D01*
X42752381Y60094364D01*
X42752978Y60114348D01*
X42753670Y60131753D01*
X42754463Y60146911D01*
X42755367Y60160158D01*
X42756391Y60171827D01*
X42757543Y60182253D01*
X42758832Y60191770D01*
X42760265Y60200711D01*
X42761852Y60209411D01*
X42763601Y60218204D01*
X42765520Y60227424D01*
X42767619Y60237404D01*
X42769693Y60247433D01*
X42788917Y60323824D01*
X42814971Y60398627D01*
X42847504Y60471335D01*
X42886171Y60541442D01*
X42930621Y60608438D01*
X42980509Y60671817D01*
X43035485Y60731071D01*
X43095202Y60785692D01*
X43159311Y60835173D01*
X43184300Y60852225D01*
X43242468Y60887534D01*
X43303907Y60919196D01*
X43366987Y60946508D01*
X43430079Y60968764D01*
X43491555Y60985262D01*
X43492668Y60985509D01*
X43513236Y60990051D01*
X43543120Y61035804D01*
X43566599Y61068482D01*
X43594271Y61101572D01*
X43597292Y61104753D01*
X43307025Y61104753D01*
X43286148Y61095529D01*
X43210949Y61059838D01*
X43141563Y61021588D01*
X43076751Y60979936D01*
X43015276Y60934037D01*
X42955898Y60883050D01*
X42911451Y60840416D01*
X42867883Y60795097D01*
X42830063Y60752108D01*
X42797239Y60710551D01*
X42768661Y60669524D01*
X42768157Y60668748D01*
X42760136Y60656521D01*
X42753719Y60646995D01*
X42749826Y60641525D01*
X42749107Y60640732D01*
X42749018Y60644300D01*
X42748932Y60654786D01*
X42748848Y60671853D01*
X42748768Y60695161D01*
X42748691Y60724373D01*
X42748618Y60759149D01*
X42748550Y60799153D01*
X42748486Y60844044D01*
X42748428Y60893485D01*
X42748376Y60947137D01*
X42748329Y61004662D01*
X42748289Y61065721D01*
X42748256Y61129976D01*
X42748230Y61197089D01*
X42748212Y61266721D01*
X42748202Y61338533D01*
X42748200Y61388194D01*
X42748200Y62135702D01*
X43026692Y62134772D01*
X43305185Y62133843D01*
X43307025Y61104753D01*
X43597292Y61104753D01*
X43624560Y61133457D01*
X43655891Y61162520D01*
X43686689Y61187142D01*
X43698714Y61195524D01*
X43755333Y61228883D01*
X43814678Y61255689D01*
X43876209Y61275720D01*
X43918414Y61285245D01*
X43947173Y61289230D01*
X43980537Y61291600D01*
X44016304Y61292371D01*
X44052269Y61291560D01*
X44086231Y61289182D01*
X44115985Y61285255D01*
X44124023Y61283722D01*
X44188047Y61266879D01*
X44248341Y61243863D01*
X44304739Y61214788D01*
X44357070Y61179767D01*
X44405167Y61138911D01*
X44448860Y61092335D01*
X44487982Y61040152D01*
X44488303Y61039672D01*
X44520160Y60985722D01*
X44545343Y60929691D01*
X44563956Y60872094D01*
X44576100Y60813446D01*
X44581880Y60754261D01*
X44726300Y60754261D01*
X44726261Y60770030D01*
X44726181Y60810045D01*
X44726107Y60854952D01*
X44726039Y60904411D01*
X44725977Y60958085D01*
X44725923Y61015635D01*
X44725876Y61076724D01*
X44725837Y61141013D01*
X44725807Y61208165D01*
X44725785Y61277841D01*
X44725774Y61349703D01*
X44725771Y61400871D01*
X44725771Y62150171D01*
X45284571Y62150171D01*
X46707045Y62150171D01*
X47265792Y62150171D01*
X47929439Y62150171D01*
X47923160Y62182782D01*
X47900047Y62265237D01*
X47870241Y62344888D01*
X47833755Y62421705D01*
X47790602Y62495657D01*
X47742253Y62564798D01*
X47726450Y62584304D01*
X47706405Y62607067D01*
X47683373Y62631823D01*
X47658611Y62657306D01*
X47633373Y62682250D01*
X47608914Y62705390D01*
X47586491Y62725460D01*
X47567359Y62741195D01*
X47566942Y62741515D01*
X47499944Y62789275D01*
X47431700Y62830538D01*
X47361410Y62865646D01*
X47288275Y62894942D01*
X47211497Y62918769D01*
X47130275Y62937468D01*
X47094515Y62943896D01*
X47091525Y62944341D01*
X47087931Y62944765D01*
X47083553Y62945168D01*
X47078213Y62945551D01*
X47071730Y62945914D01*
X47063926Y62946259D01*
X47054622Y62946586D01*
X47043637Y62946895D01*
X47030792Y62947187D01*
X47015909Y62947464D01*
X46998808Y62947724D01*
X46979309Y62947970D01*
X46957234Y62948201D01*
X46932402Y62948418D01*
X46904635Y62948623D01*
X46873753Y62948815D01*
X46839576Y62948995D01*
X46801927Y62949164D01*
X46760624Y62949323D01*
X46715490Y62949471D01*
X46666343Y62949611D01*
X46613006Y62949742D01*
X46555299Y62949864D01*
X46493042Y62949980D01*
X46426057Y62950088D01*
X46354163Y62950191D01*
X46277182Y62950288D01*
X46194933Y62950380D01*
X46107239Y62950468D01*
X46013919Y62950553D01*
X45914794Y62950634D01*
X45809685Y62950713D01*
X45698412Y62950791D01*
X45580797Y62950867D01*
X45456659Y62950943D01*
X45325820Y62951020D01*
X45188100Y62951097D01*
X45043319Y62951175D01*
X45028757Y62951183D01*
X44882659Y62951260D01*
X44743640Y62951330D01*
X44611521Y62951393D01*
X44486123Y62951448D01*
X44367267Y62951495D01*
X44254774Y62951534D01*
X44148466Y62951564D01*
X44048165Y62951585D01*
X43953691Y62951597D01*
X43864865Y62951598D01*
X43781509Y62951589D01*
G37*
X43781509Y62951589D02*
X43703445Y62951569D01*
X43630493Y62951538D01*
X43562475Y62951495D01*
X43499211Y62951440D01*
X43440525Y62951373D01*
X43386235Y62951294D01*
X43336165Y62951201D01*
X43290135Y62951094D01*
X43247966Y62950973D01*
X43209480Y62950838D01*
X43174498Y62950688D01*
X43142841Y62950523D01*
X43114331Y62950343D01*
X43088788Y62950146D01*
X43066035Y62949933D01*
X43045892Y62949703D01*
X43028181Y62949456D01*
X43012723Y62949192D01*
X42999339Y62948909D01*
X42987850Y62948608D01*
X42978079Y62948289D01*
X42969845Y62947950D01*
X42962971Y62947591D01*
X42957277Y62947213D01*
X42952585Y62946814D01*
X42949859Y62946529D01*
X42865515Y62933373D01*
X42783431Y62913405D01*
X42703912Y62886772D01*
X42627262Y62853625D01*
X42553785Y62814112D01*
X42483785Y62768384D01*
X42417566Y62716590D01*
X42355433Y62658879D01*
X42347165Y62650426D01*
X42290269Y62586483D01*
X42239568Y62518765D01*
X42195070Y62447283D01*
X42167821Y62395433D01*
X42142312Y62339932D01*
X42121429Y62286952D01*
X42104385Y62234181D01*
X42090392Y62179303D01*
X42083993Y62148817D01*
X42082601Y62141845D01*
X42081285Y62135368D01*
X42080042Y62129179D01*
X42078872Y62123070D01*
X42077771Y62116834D01*
X42076738Y62110261D01*
X42075770Y62103145D01*
X42074866Y62095278D01*
X42074024Y62086452D01*
X42073242Y62076458D01*
X42072516Y62065090D01*
X42071847Y62052139D01*
X42071230Y62037397D01*
X42070666Y62020657D01*
X42070150Y62001711D01*
X42069682Y61980351D01*
X42069259Y61956369D01*
X42068880Y61929556D01*
X42068542Y61899707D01*
X42068243Y61866612D01*
X42067981Y61830063D01*
X42067755Y61789853D01*
X42067561Y61745775D01*
X42067399Y61697619D01*
X42067265Y61645179D01*
X42067159Y61588246D01*
X42067078Y61526613D01*
X42067019Y61460072D01*
X42066982Y61388414D01*
X42066964Y61311433D01*
X42066962Y61228919D01*
X42066975Y61140667D01*
X42067001Y61046466D01*
X42067038Y60946111D01*
X42067083Y60839392D01*
X42067136Y60726102D01*
X42067192Y60606034D01*
X42067252Y60478979D01*
X42067270Y60439300D01*
X42067989Y58853614D01*
X42075892Y58808257D01*
X42091964Y58729772D01*
X42112075Y58656502D01*
X42136643Y58587371D01*
X42166085Y58521305D01*
X42200820Y58457227D01*
X42231190Y58408935D01*
X42281113Y58339909D01*
X42334874Y58276975D01*
X42392602Y58219988D01*
X42418000Y58197845D01*
X42486448Y58144905D01*
X42557813Y58098589D01*
X42631968Y58058947D01*
X42708787Y58026028D01*
X42788145Y57999881D01*
X42869914Y57980555D01*
X42953970Y57968101D01*
X43016714Y57963375D01*
X43023502Y57963234D01*
X43037333Y57963103D01*
X43057992Y57962981D01*
X43085264Y57962869D01*
X43118936Y57962766D01*
X43158793Y57962672D01*
X43204620Y57962588D01*
X43256202Y57962513D01*
X43313326Y57962448D01*
X43375776Y57962393D01*
X43443339Y57962347D01*
X43515799Y57962311D01*
X43592943Y57962284D01*
X43674556Y57962268D01*
X43760423Y57962261D01*
X43850329Y57962264D01*
X43944061Y57962277D01*
X44041404Y57962300D01*
X44142144Y57962333D01*
X44246065Y57962375D01*
X44352953Y57962428D01*
X44462595Y57962491D01*
X44574775Y57962565D01*
X44689279Y57962648D01*
X44805892Y57962742D01*
X44924400Y57962846D01*
X45044589Y57962960D01*
X45065042Y57962980D01*
X45185125Y57963104D01*
X45303417Y57963235D01*
X45419712Y57963373D01*
X45533799Y57963515D01*
X45645472Y57963663D01*
X45754522Y57963816D01*
X45860740Y57963974D01*
X45963918Y57964135D01*
X46063847Y57964299D01*
X46160319Y57964467D01*
X46253126Y57964637D01*
X46342059Y57964809D01*
X46426911Y57964983D01*
X46507471Y57965157D01*
X46583533Y57965333D01*
X46654887Y57965509D01*
X46721326Y57965684D01*
X46782641Y57965859D01*
X46838622Y57966033D01*
X46889064Y57966205D01*
X46933755Y57966376D01*
X46972489Y57966543D01*
X47005057Y57966708D01*
X47031250Y57966870D01*
X47050861Y57967027D01*
X47063680Y57967180D01*
X47069499Y57967329D01*
X47069828Y57967363D01*
X47077150Y57968906D01*
X47089670Y57971165D01*
X47105406Y57973793D01*
X47117000Y57975624D01*
X47194589Y57991195D01*
X47271535Y58013785D01*
X47347289Y58043159D01*
X47421303Y58079079D01*
X47493028Y58121308D01*
X47556057Y58165179D01*
X47577564Y58182408D01*
X47602196Y58203931D01*
X47628664Y58228471D01*
X47655681Y58254751D01*
X47681960Y58281494D01*
X47706215Y58307424D01*
X47727157Y58331264D01*
X47741628Y58349243D01*
X47787123Y58413585D01*
X47826477Y58478812D01*
X47860105Y58545890D01*
X47888425Y58615784D01*
X47911855Y58689462D01*
X47930810Y58767889D01*
X47937758Y58803695D01*
X47946128Y58849985D01*
X47946128Y60452000D01*
X47946127Y60580716D01*
X47946124Y60702379D01*
X47946118Y60817194D01*
X47946107Y60925365D01*
X47946092Y61027097D01*
X47946071Y61122593D01*
X47946044Y61212060D01*
X47946009Y61295701D01*
X47945967Y61373720D01*
X47945915Y61446322D01*
X47945854Y61513712D01*
X47945783Y61576094D01*
X47945700Y61633672D01*
X47945604Y61686651D01*
X47945496Y61735235D01*
X47945375Y61779629D01*
X47945238Y61820038D01*
X47945086Y61856665D01*
X47944918Y61889715D01*
X47944733Y61919393D01*
X47944530Y61945903D01*
X47944309Y61969449D01*
X47944068Y61990237D01*
X47943806Y62008469D01*
X47943524Y62024352D01*
X47943220Y62038090D01*
X47942892Y62049886D01*
X47942542Y62059945D01*
X47942167Y62068473D01*
X47941767Y62075672D01*
X47941340Y62081749D01*
X47940887Y62086906D01*
X47940407Y62091349D01*
X47939898Y62095282D01*
X47939567Y62097557D01*
X47929439Y62150171D01*
X47265792Y62150171D01*
X47265494Y60902850D01*
X47265467Y60788313D01*
X47265441Y60680796D01*
X47265413Y60580066D01*
X47265381Y60485884D01*
X47265341Y60398017D01*
X47265291Y60316226D01*
X47265228Y60240278D01*
X47265150Y60169935D01*
X47265053Y60104961D01*
X47264934Y60045122D01*
X47264792Y59990181D01*
X47264624Y59939902D01*
X47264425Y59894048D01*
X47264195Y59852386D01*
X47263929Y59814677D01*
X47263626Y59780687D01*
X47263282Y59750179D01*
X47262895Y59722918D01*
X47262462Y59698667D01*
X47261980Y59677192D01*
X47261446Y59658254D01*
X47260858Y59641620D01*
X47260213Y59627053D01*
X47259508Y59614317D01*
X47258740Y59603176D01*
X47257907Y59593394D01*
X47257006Y59584736D01*
X47256034Y59576965D01*
X47254988Y59569845D01*
X47253866Y59563141D01*
X47252664Y59556616D01*
X47251381Y59550035D01*
X47250013Y59543163D01*
X47249541Y59540786D01*
X47229581Y59457587D01*
X47203308Y59377968D01*
X47170719Y59301921D01*
X47131810Y59229438D01*
X47086574Y59160508D01*
X47035008Y59095124D01*
X46992350Y59048585D01*
X46930365Y58990054D01*
X46864719Y58937752D01*
X46795605Y58891770D01*
X46723216Y58852200D01*
X46647744Y58819135D01*
X46569382Y58792665D01*
X46488324Y58772884D01*
X46404762Y58759882D01*
X46381342Y58757505D01*
X46373504Y58757136D01*
X46358860Y58756801D01*
X46337857Y58756502D01*
X46310946Y58756239D01*
X46278577Y58756015D01*
X46241198Y58755830D01*
X46199260Y58755686D01*
X46153212Y58755585D01*
X46103504Y58755527D01*
X46050585Y58755514D01*
X45994904Y58755547D01*
X45936913Y58755628D01*
X45877059Y58755758D01*
X45837928Y58755868D01*
X45764926Y58756101D01*
X45698821Y58756336D01*
X45639254Y58756576D01*
X45585867Y58756827D01*
X45538298Y58757093D01*
X45496189Y58757379D01*
X45459181Y58757688D01*
X45426914Y58758027D01*
X45399028Y58758399D01*
X45375164Y58758810D01*
X45354963Y58759262D01*
X45338065Y58759762D01*
X45324110Y58760314D01*
X45312740Y58760921D01*
X45303594Y58761590D01*
X45296314Y58762324D01*
X45292650Y58762804D01*
X45225676Y58776030D01*
X45161232Y58795806D01*
X45099712Y58821787D01*
X45041514Y58853629D01*
X44987034Y58890988D01*
X44936669Y58933520D01*
X44890815Y58980880D01*
X44849870Y59032725D01*
X44814230Y59088709D01*
X44784291Y59148490D01*
X44760450Y59211723D01*
X44755160Y59229171D01*
X44751501Y59241800D01*
X44748234Y59253167D01*
X44745338Y59263737D01*
X44742789Y59273971D01*
X44740567Y59284334D01*
X44738648Y59295287D01*
X44737010Y59307295D01*
X44735632Y59320821D01*
X44734490Y59336326D01*
X44733563Y59354275D01*
X44732829Y59375131D01*
X44732264Y59399356D01*
X44731848Y59427414D01*
X44731557Y59459768D01*
X44731370Y59496881D01*
X44731265Y59539216D01*
X44731218Y59587236D01*
X44731208Y59641404D01*
X44731213Y59702183D01*
X44731214Y59728100D01*
X44731223Y59792332D01*
X44731256Y59849765D01*
X44731325Y59900853D01*
X44731439Y59946053D01*
X44731609Y59985823D01*
X44731846Y60020618D01*
X44732161Y60050895D01*
X44732564Y60077111D01*
X44733065Y60099722D01*
X44733675Y60119185D01*
X44734405Y60135956D01*
X44735265Y60150491D01*
X44736266Y60163248D01*
X44737418Y60174683D01*
X44738732Y60185253D01*
X44740219Y60195413D01*
X44741888Y60205621D01*
X44742320Y60208143D01*
X44760027Y60289913D01*
X44784443Y60369209D01*
X44815340Y60445682D01*
X44852486Y60518984D01*
X44895653Y60588765D01*
X44944611Y60654676D01*
X44999130Y60716369D01*
X45058981Y60773495D01*
X45123935Y60825706D01*
X45169678Y60857427D01*
X45233144Y60895408D01*
X45299073Y60927990D01*
X45368277Y60955479D01*
X45441565Y60978183D01*
X45519747Y60996410D01*
X45551913Y61002401D01*
X45557989Y61003364D01*
X45564828Y61004228D01*
X45572850Y61005000D01*
X45582477Y61005685D01*
X45594130Y61006292D01*
X45608231Y61006827D01*
X45625202Y61007297D01*
X45645464Y61007709D01*
X45669438Y61008070D01*
X45697547Y61008387D01*
X45730210Y61008667D01*
X45767851Y61008916D01*
X45810890Y61009142D01*
X45859750Y61009352D01*
X45914850Y61009552D01*
X45976614Y61009750D01*
X46003935Y61009832D01*
X46420314Y61011060D01*
X46420314Y60452000D01*
X46060178Y60451985D01*
X45998349Y60451979D01*
X45943308Y60451950D01*
X45894585Y60451878D01*
X45851710Y60451743D01*
X45814214Y60451523D01*
X45781628Y60451197D01*
X45753481Y60450745D01*
X45729305Y60450146D01*
X45708630Y60449379D01*
X45690986Y60448422D01*
X45675904Y60447256D01*
X45662914Y60445858D01*
X45651547Y60444209D01*
X45641333Y60442287D01*
X45631802Y60440072D01*
X45622486Y60437542D01*
X45612914Y60434677D01*
X45603263Y60431659D01*
X45552548Y60411998D01*
X45503917Y60385840D01*
X45458519Y60353882D01*
X45422133Y60321496D01*
X45383292Y60278181D01*
X45350939Y60231766D01*
X45324882Y60181898D01*
X45304925Y60128224D01*
X45295048Y60090750D01*
X45293557Y60083949D01*
X45292257Y60077377D01*
X45291133Y60070497D01*
X45290169Y60062771D01*
X45289348Y60053662D01*
X45288655Y60042632D01*
X45288073Y60029144D01*
X45287587Y60012660D01*
X45287181Y59992643D01*
X45286837Y59968556D01*
X45286541Y59939860D01*
X45286277Y59906019D01*
X45286027Y59866495D01*
X45285777Y59820750D01*
X45285529Y59772232D01*
X45285269Y59709997D01*
X45285148Y59654926D01*
X45285169Y59606928D01*
X45285333Y59565912D01*
X45285639Y59531786D01*
X45286088Y59504458D01*
X45286682Y59483838D01*
X45287420Y59469835D01*
X45288041Y59463804D01*
X45296598Y59430667D01*
X45311435Y59400222D01*
X45331825Y59373268D01*
X45357043Y59350602D01*
X45386362Y59333024D01*
X45417165Y59321813D01*
X45421153Y59320957D01*
X45426450Y59320192D01*
X45433450Y59319513D01*
X45442548Y59318914D01*
X45454138Y59318392D01*
X45468615Y59317941D01*
X45486374Y59317556D01*
X45507810Y59317232D01*
X45533317Y59316964D01*
X45563291Y59316748D01*
X45598126Y59316579D01*
X45638216Y59316451D01*
X45683957Y59316359D01*
X45735744Y59316300D01*
X45793970Y59316267D01*
X45859032Y59316257D01*
X45863828Y59316257D01*
X45941124Y59316292D01*
X46011268Y59316399D01*
X46074249Y59316576D01*
X46130056Y59316824D01*
X46178678Y59317142D01*
X46220103Y59317531D01*
X46254321Y59317991D01*
X46281320Y59318521D01*
X46301091Y59319121D01*
X46313621Y59319791D01*
X46317138Y59320148D01*
X46360398Y59328954D01*
X46405274Y59343208D01*
X46449715Y59362099D01*
X46491670Y59384813D01*
X46510095Y59396678D01*
X46524037Y59407088D01*
X46540760Y59420936D01*
X46558090Y59436357D01*
X46572802Y59450435D01*
X46610354Y59492544D01*
X46641821Y59537876D01*
X46667519Y59587004D01*
X46687761Y59640501D01*
X46698439Y59679114D01*
X46699038Y59681842D01*
X46699600Y59685032D01*
X46700126Y59688919D01*
X46700618Y59693735D01*
X46701077Y59699712D01*
X46701504Y59707084D01*
X46701902Y59716084D01*
X46702270Y59726943D01*
X46702612Y59739896D01*
X46702928Y59755175D01*
X46703219Y59773012D01*
X46703487Y59793641D01*
X46703734Y59817295D01*
X46703961Y59844205D01*
X46704168Y59874606D01*
X46704359Y59908730D01*
X46704533Y59946810D01*
X46704693Y59989079D01*
X46704840Y60035769D01*
X46704975Y60087113D01*
X46705100Y60143345D01*
X46705216Y60204697D01*
X46705324Y60271401D01*
X46705426Y60343692D01*
X46705524Y60421801D01*
X46705618Y60505961D01*
X46705711Y60596406D01*
X46705803Y60693368D01*
X46705896Y60797080D01*
X46705992Y60907774D01*
X46706009Y60928250D01*
X46707045Y62150171D01*
X45284571Y62150171D01*
X45284571Y61104963D01*
X45274592Y61101200D01*
X45194821Y61067266D01*
X45117844Y61026803D01*
X45044071Y60980135D01*
X44973915Y60927588D01*
X44907785Y60869486D01*
X44846093Y60806154D01*
X44789250Y60737918D01*
X44753973Y60689459D01*
X44744065Y60675179D01*
X44735714Y60663361D01*
X44729730Y60655132D01*
X44726922Y60651622D01*
X44726832Y60651571D01*
X44726728Y60655143D01*
X44726627Y60665635D01*
X44726530Y60682707D01*
X44726436Y60706022D01*
X44726346Y60735243D01*
X44726300Y60754261D01*
X44581880Y60754261D01*
X44581398Y60695055D01*
X44574757Y60636344D01*
X44562060Y60578642D01*
X44543410Y60522464D01*
X44518910Y60468326D01*
X44488663Y60416743D01*
X44452772Y60368229D01*
X44411340Y60323300D01*
X44364470Y60282472D01*
X44332292Y60259152D01*
X44277010Y60226154D01*
X44219473Y60200049D01*
X44159804Y60180871D01*
X44098127Y60168656D01*
X44034565Y60163441D01*
X44001871Y60163476D01*
X43955525Y60166224D01*
X43912878Y60172051D01*
X43871341Y60181483D01*
X43828329Y60195048D01*
X43805834Y60203400D01*
X43758022Y60225210D01*
X43710589Y60253152D01*
X43664962Y60286174D01*
X43622565Y60323225D01*
X43584823Y60363256D01*
X43578307Y60371099D01*
X43560000Y60393612D01*
X43548707Y60387837D01*
X43531462Y60377825D01*
X43511071Y60364124D01*
X43489496Y60348197D01*
X43468701Y60331510D01*
X43450649Y60315527D01*
X43446825Y60311843D01*
X43407874Y60268528D01*
X43374969Y60221321D01*
X43348313Y60170636D01*
X43328108Y60116886D01*
X43314558Y60060485D01*
X43310760Y60034966D01*
X43310233Y60026870D01*
X43309744Y60011617D01*
X43309292Y59989305D01*
X43308879Y59960034D01*
X43308504Y59923904D01*
X43308170Y59881012D01*
X43307875Y59831460D01*
X43307621Y59775345D01*
X43307409Y59712768D01*
X43307238Y59643827D01*
X43307110Y59568623D01*
X43307024Y59487253D01*
X43306983Y59399818D01*
X43306979Y59377287D01*
X43306919Y58750200D01*
X42747958Y58750200D01*
X42749274Y59447793D01*
X42749428Y59531717D01*
X42749564Y59608718D01*
X42749693Y59679131D01*
X42749821Y59743288D01*
X42749957Y59801525D01*
X42750111Y59854175D01*
X42750290Y59901573D01*
X42750504Y59944052D01*
X42750760Y59981947D01*
X42751067Y60015591D01*
X42751434Y60045320D01*
X42751869Y60071466D01*
X42752381Y60094364D01*
X42752978Y60114348D01*
X42753670Y60131753D01*
X42754463Y60146911D01*
X42755367Y60160158D01*
X42756391Y60171827D01*
X42757543Y60182253D01*
X42758832Y60191770D01*
X42760265Y60200711D01*
X42761852Y60209411D01*
X42763601Y60218204D01*
X42765520Y60227424D01*
X42767619Y60237404D01*
X42769693Y60247433D01*
X42788917Y60323824D01*
X42814971Y60398627D01*
X42847504Y60471335D01*
X42886171Y60541442D01*
X42930621Y60608438D01*
X42980509Y60671817D01*
X43035485Y60731071D01*
X43095202Y60785692D01*
X43159311Y60835173D01*
X43184300Y60852225D01*
X43242468Y60887534D01*
X43303907Y60919196D01*
X43366987Y60946508D01*
X43430079Y60968764D01*
X43491555Y60985262D01*
X43492668Y60985509D01*
X43513236Y60990051D01*
X43543120Y61035804D01*
X43566599Y61068482D01*
X43594271Y61101572D01*
X43597292Y61104753D01*
X43307025Y61104753D01*
X43286148Y61095529D01*
X43210949Y61059838D01*
X43141563Y61021588D01*
X43076751Y60979936D01*
X43015276Y60934037D01*
X42955898Y60883050D01*
X42911451Y60840416D01*
X42867883Y60795097D01*
X42830063Y60752108D01*
X42797239Y60710551D01*
X42768661Y60669524D01*
X42768157Y60668748D01*
X42760136Y60656521D01*
X42753719Y60646995D01*
X42749826Y60641525D01*
X42749107Y60640732D01*
X42749018Y60644300D01*
X42748932Y60654786D01*
X42748848Y60671853D01*
X42748768Y60695161D01*
X42748691Y60724373D01*
X42748618Y60759149D01*
X42748550Y60799153D01*
X42748486Y60844044D01*
X42748428Y60893485D01*
X42748376Y60947137D01*
X42748329Y61004662D01*
X42748289Y61065721D01*
X42748256Y61129976D01*
X42748230Y61197089D01*
X42748212Y61266721D01*
X42748202Y61338533D01*
X42748200Y61388194D01*
X42748200Y62135702D01*
X43026692Y62134772D01*
X43305185Y62133843D01*
X43307025Y61104753D01*
X43597292Y61104753D01*
X43624560Y61133457D01*
X43655891Y61162520D01*
X43686689Y61187142D01*
X43698714Y61195524D01*
X43755333Y61228883D01*
X43814678Y61255689D01*
X43876209Y61275720D01*
X43918414Y61285245D01*
X43947173Y61289230D01*
X43980537Y61291600D01*
X44016304Y61292371D01*
X44052269Y61291560D01*
X44086231Y61289182D01*
X44115985Y61285255D01*
X44124023Y61283722D01*
X44188047Y61266879D01*
X44248341Y61243863D01*
X44304739Y61214788D01*
X44357070Y61179767D01*
X44405167Y61138911D01*
X44448860Y61092335D01*
X44487982Y61040152D01*
X44488303Y61039672D01*
X44520160Y60985722D01*
X44545343Y60929691D01*
X44563956Y60872094D01*
X44576100Y60813446D01*
X44581880Y60754261D01*
X44726300Y60754261D01*
X44726261Y60770030D01*
X44726181Y60810045D01*
X44726107Y60854952D01*
X44726039Y60904411D01*
X44725977Y60958085D01*
X44725923Y61015635D01*
X44725876Y61076724D01*
X44725837Y61141013D01*
X44725807Y61208165D01*
X44725785Y61277841D01*
X44725774Y61349703D01*
X44725771Y61400871D01*
X44725771Y62150171D01*
X45284571Y62150171D01*
X46707045Y62150171D01*
X47265792Y62150171D01*
X47929439Y62150171D01*
X47923160Y62182782D01*
X47900047Y62265237D01*
X47870241Y62344888D01*
X47833755Y62421705D01*
X47790602Y62495657D01*
X47742253Y62564798D01*
X47726450Y62584304D01*
X47706405Y62607067D01*
X47683373Y62631823D01*
X47658611Y62657306D01*
X47633373Y62682250D01*
X47608914Y62705390D01*
X47586491Y62725460D01*
X47567359Y62741195D01*
X47566942Y62741515D01*
X47499944Y62789275D01*
X47431700Y62830538D01*
X47361410Y62865646D01*
X47288275Y62894942D01*
X47211497Y62918769D01*
X47130275Y62937468D01*
X47094515Y62943896D01*
X47091525Y62944341D01*
X47087931Y62944765D01*
X47083553Y62945168D01*
X47078213Y62945551D01*
X47071730Y62945914D01*
X47063926Y62946259D01*
X47054622Y62946586D01*
X47043637Y62946895D01*
X47030792Y62947187D01*
X47015909Y62947464D01*
X46998808Y62947724D01*
X46979309Y62947970D01*
X46957234Y62948201D01*
X46932402Y62948418D01*
X46904635Y62948623D01*
X46873753Y62948815D01*
X46839576Y62948995D01*
X46801927Y62949164D01*
X46760624Y62949323D01*
X46715490Y62949471D01*
X46666343Y62949611D01*
X46613006Y62949742D01*
X46555299Y62949864D01*
X46493042Y62949980D01*
X46426057Y62950088D01*
X46354163Y62950191D01*
X46277182Y62950288D01*
X46194933Y62950380D01*
X46107239Y62950468D01*
X46013919Y62950553D01*
X45914794Y62950634D01*
X45809685Y62950713D01*
X45698412Y62950791D01*
X45580797Y62950867D01*
X45456659Y62950943D01*
X45325820Y62951020D01*
X45188100Y62951097D01*
X45043319Y62951175D01*
X45028757Y62951183D01*
X44882659Y62951260D01*
X44743640Y62951330D01*
X44611521Y62951393D01*
X44486123Y62951448D01*
X44367267Y62951495D01*
X44254774Y62951534D01*
X44148466Y62951564D01*
X44048165Y62951585D01*
X43953691Y62951597D01*
X43864865Y62951598D01*
X43781509Y62951589D01*
G36*
X35488395Y59955793D02*
G01*
X35488497Y59845460D01*
X35488588Y59742140D01*
X35488671Y59645588D01*
X35488752Y59555558D01*
X35488834Y59471807D01*
X35488922Y59394088D01*
X35489021Y59322158D01*
X35489133Y59255772D01*
X35489265Y59194685D01*
X35489420Y59138652D01*
X35489602Y59087428D01*
X35489816Y59040768D01*
X35490066Y58998428D01*
X35490356Y58960164D01*
X35490691Y58925729D01*
X35491075Y58894880D01*
X35491513Y58867372D01*
X35492008Y58842959D01*
X35492565Y58821397D01*
X35493188Y58802442D01*
X35493881Y58785848D01*
X35494650Y58771371D01*
X35495498Y58758766D01*
X35496429Y58747788D01*
X35497448Y58738193D01*
X35498559Y58729735D01*
X35499767Y58722170D01*
X35501076Y58715253D01*
X35502489Y58708739D01*
X35504012Y58702384D01*
X35505648Y58695942D01*
X35507403Y58689170D01*
X35509280Y58681821D01*
X35510962Y58674990D01*
X35528875Y58614772D01*
X35553225Y58554962D01*
X35583266Y58497000D01*
X35618254Y58442325D01*
X35657089Y58392785D01*
X35699294Y58349521D01*
X35747358Y58309758D01*
X35800610Y58273826D01*
X35858382Y58242053D01*
X35920005Y58214768D01*
X35984810Y58192298D01*
X36052129Y58174973D01*
X36121293Y58163120D01*
X36125962Y58162532D01*
X36134869Y58161905D01*
X36150912Y58161332D01*
X36173968Y58160814D01*
X36203915Y58160351D01*
X36240631Y58159945D01*
X36283995Y58159596D01*
X36333884Y58159305D01*
X36390177Y58159074D01*
X36452751Y58158903D01*
X36521484Y58158793D01*
X36596256Y58158745D01*
X36616726Y58158743D01*
X37076742Y58158743D01*
X37076742Y58659485D01*
X36616821Y58659549D01*
X36547613Y58659556D01*
X36485269Y58659568D01*
X36429396Y58659601D01*
X36379601Y58659671D01*
X36335491Y58659793D01*
X36296672Y58659984D01*
X36262751Y58660259D01*
X36233336Y58660633D01*
X36208033Y58661124D01*
X36186449Y58661745D01*
X36168190Y58662515D01*
X36152865Y58663447D01*
X36140079Y58664558D01*
X36129440Y58665864D01*
X36120555Y58667381D01*
X36113029Y58669124D01*
X36106471Y58671109D01*
X36100487Y58673352D01*
X36094684Y58675869D01*
X36088668Y58678676D01*
X36083772Y58680984D01*
X36056617Y58697638D01*
X36033607Y58720215D01*
X36014798Y58748642D01*
X36000247Y58782846D01*
X35996858Y58793743D01*
X35996217Y58796131D01*
X35995618Y58798868D01*
X35995058Y58802194D01*
X35994536Y58806347D01*
X35994050Y58811569D01*
X35993599Y58818098D01*
X35993181Y58826173D01*
X35992794Y58836036D01*
X35992437Y58847925D01*
X35992109Y58862081D01*
X35991807Y58878742D01*
X35991531Y58898149D01*
X35991278Y58920540D01*
X35991047Y58946157D01*
X35990836Y58975238D01*
X35990644Y59008024D01*
X35990470Y59044753D01*
X35990311Y59085666D01*
X35990166Y59131002D01*
X35990033Y59181001D01*
X35989911Y59235903D01*
X35989799Y59295947D01*
X35989694Y59361373D01*
X35989595Y59432421D01*
X35989501Y59509330D01*
X35989410Y59592340D01*
X35989320Y59681690D01*
X35989229Y59777621D01*
X35989137Y59880372D01*
X35989059Y59970307D01*
X35988061Y61123285D01*
X35487277Y61123285D01*
X35488395Y59955793D01*
G37*
X35488395Y59955793D02*
X35488497Y59845460D01*
X35488588Y59742140D01*
X35488671Y59645588D01*
X35488752Y59555558D01*
X35488834Y59471807D01*
X35488922Y59394088D01*
X35489021Y59322158D01*
X35489133Y59255772D01*
X35489265Y59194685D01*
X35489420Y59138652D01*
X35489602Y59087428D01*
X35489816Y59040768D01*
X35490066Y58998428D01*
X35490356Y58960164D01*
X35490691Y58925729D01*
X35491075Y58894880D01*
X35491513Y58867372D01*
X35492008Y58842959D01*
X35492565Y58821397D01*
X35493188Y58802442D01*
X35493881Y58785848D01*
X35494650Y58771371D01*
X35495498Y58758766D01*
X35496429Y58747788D01*
X35497448Y58738193D01*
X35498559Y58729735D01*
X35499767Y58722170D01*
X35501076Y58715253D01*
X35502489Y58708739D01*
X35504012Y58702384D01*
X35505648Y58695942D01*
X35507403Y58689170D01*
X35509280Y58681821D01*
X35510962Y58674990D01*
X35528875Y58614772D01*
X35553225Y58554962D01*
X35583266Y58497000D01*
X35618254Y58442325D01*
X35657089Y58392785D01*
X35699294Y58349521D01*
X35747358Y58309758D01*
X35800610Y58273826D01*
X35858382Y58242053D01*
X35920005Y58214768D01*
X35984810Y58192298D01*
X36052129Y58174973D01*
X36121293Y58163120D01*
X36125962Y58162532D01*
X36134869Y58161905D01*
X36150912Y58161332D01*
X36173968Y58160814D01*
X36203915Y58160351D01*
X36240631Y58159945D01*
X36283995Y58159596D01*
X36333884Y58159305D01*
X36390177Y58159074D01*
X36452751Y58158903D01*
X36521484Y58158793D01*
X36596256Y58158745D01*
X36616726Y58158743D01*
X37076742Y58158743D01*
X37076742Y58659485D01*
X36616821Y58659549D01*
X36547613Y58659556D01*
X36485269Y58659568D01*
X36429396Y58659601D01*
X36379601Y58659671D01*
X36335491Y58659793D01*
X36296672Y58659984D01*
X36262751Y58660259D01*
X36233336Y58660633D01*
X36208033Y58661124D01*
X36186449Y58661745D01*
X36168190Y58662515D01*
X36152865Y58663447D01*
X36140079Y58664558D01*
X36129440Y58665864D01*
X36120555Y58667381D01*
X36113029Y58669124D01*
X36106471Y58671109D01*
X36100487Y58673352D01*
X36094684Y58675869D01*
X36088668Y58678676D01*
X36083772Y58680984D01*
X36056617Y58697638D01*
X36033607Y58720215D01*
X36014798Y58748642D01*
X36000247Y58782846D01*
X35996858Y58793743D01*
X35996217Y58796131D01*
X35995618Y58798868D01*
X35995058Y58802194D01*
X35994536Y58806347D01*
X35994050Y58811569D01*
X35993599Y58818098D01*
X35993181Y58826173D01*
X35992794Y58836036D01*
X35992437Y58847925D01*
X35992109Y58862081D01*
X35991807Y58878742D01*
X35991531Y58898149D01*
X35991278Y58920540D01*
X35991047Y58946157D01*
X35990836Y58975238D01*
X35990644Y59008024D01*
X35990470Y59044753D01*
X35990311Y59085666D01*
X35990166Y59131002D01*
X35990033Y59181001D01*
X35989911Y59235903D01*
X35989799Y59295947D01*
X35989694Y59361373D01*
X35989595Y59432421D01*
X35989501Y59509330D01*
X35989410Y59592340D01*
X35989320Y59681690D01*
X35989229Y59777621D01*
X35989137Y59880372D01*
X35989059Y59970307D01*
X35988061Y61123285D01*
X35487277Y61123285D01*
X35488395Y59955793D01*
G36*
X31074533Y61123280D02*
G01*
X31023085Y61123245D01*
X30977824Y61123157D01*
X30938212Y61122990D01*
X30903714Y61122719D01*
X30873794Y61122318D01*
X30847916Y61121762D01*
X30825544Y61121026D01*
X30806143Y61120084D01*
X30789177Y61118911D01*
X30774110Y61117483D01*
X30760405Y61115772D01*
X30747528Y61113755D01*
X30734943Y61111406D01*
X30722113Y61108700D01*
X30708503Y61105611D01*
X30695900Y61102660D01*
X30627707Y61083518D01*
X30564258Y61059162D01*
X30504911Y61029247D01*
X30449022Y60993422D01*
X30395950Y60951341D01*
X30366219Y60923943D01*
X30318515Y60872884D01*
X30277297Y60818585D01*
X30242597Y60761114D01*
X30214448Y60700538D01*
X30192882Y60636923D01*
X30177932Y60570339D01*
X30171496Y60522757D01*
X30170778Y60512205D01*
X30170157Y60495723D01*
X30169633Y60473175D01*
X30169205Y60444426D01*
X30168871Y60409340D01*
X30168632Y60367782D01*
X30168486Y60319617D01*
X30168432Y60264708D01*
X30168471Y60202921D01*
X30168600Y60134120D01*
X30168766Y60074628D01*
X30170048Y59666414D01*
X30179834Y59622331D01*
X30192470Y59570066D01*
X30206002Y59523645D01*
X30220932Y59481666D01*
X30237760Y59442726D01*
X30256986Y59405424D01*
X30257711Y59404125D01*
X30293245Y59347325D01*
X30333724Y59294612D01*
X30378600Y59246430D01*
X30427323Y59203221D01*
X30479346Y59165430D01*
X30534120Y59133498D01*
X30591097Y59107869D01*
X30647068Y59089683D01*
X30657891Y59086796D01*
X30667763Y59084181D01*
X30677072Y59081822D01*
X30686209Y59079704D01*
X30695563Y59077812D01*
X30705523Y59076133D01*
X30716478Y59074650D01*
X30728819Y59073350D01*
X30742934Y59072216D01*
X30759213Y59071235D01*
X30778046Y59070392D01*
X30799821Y59069671D01*
X30824929Y59069059D01*
X30853759Y59068539D01*
X30886701Y59068098D01*
X30924142Y59067720D01*
X30966475Y59067391D01*
X31014086Y59067095D01*
X31067367Y59066819D01*
X31126707Y59066547D01*
X31192494Y59066264D01*
X31265119Y59065956D01*
X31271028Y59065930D01*
X31331809Y59065655D01*
X31390660Y59065360D01*
X31447167Y59065048D01*
X31500913Y59064724D01*
X31551486Y59064390D01*
X31598471Y59064050D01*
X31641452Y59063707D01*
X31680015Y59063366D01*
X31713746Y59063028D01*
X31742230Y59062699D01*
X31765052Y59062381D01*
X31781799Y59062077D01*
X31792054Y59061792D01*
X31795357Y59061566D01*
X31802406Y59060920D01*
X31814215Y59061218D01*
X31828357Y59062390D01*
X31829828Y59062555D01*
X31901494Y59073955D01*
X31970607Y59091234D01*
X32036625Y59114150D01*
X32099004Y59142464D01*
X32157201Y59175934D01*
X32210673Y59214319D01*
X32250252Y59248949D01*
X32290028Y59290992D01*
X32325996Y59337000D01*
X32357388Y59385738D01*
X32383434Y59435973D01*
X32403364Y59486471D01*
X32408263Y59502273D01*
X32415084Y59527014D01*
X32420360Y59549288D01*
X32424275Y59570657D01*
X32427014Y59592684D01*
X32428762Y59616932D01*
X32429704Y59644964D01*
X32430025Y59678344D01*
X32430031Y59686371D01*
X32429965Y59714164D01*
X32429729Y59736084D01*
X32429215Y59753516D01*
X32428318Y59767843D01*
X32426932Y59780450D01*
X32424950Y59792721D01*
X32422267Y59806041D01*
X32420119Y59815817D01*
X32402686Y59881734D01*
X32380887Y59942333D01*
X32354334Y59998366D01*
X32322637Y60050586D01*
X32285406Y60099747D01*
X32256477Y60132077D01*
X32215433Y60170645D01*
X32168601Y60206666D01*
X32117208Y60239453D01*
X32062481Y60268320D01*
X32005646Y60292577D01*
X31947930Y60311539D01*
X31925985Y60317222D01*
X31913580Y60320175D01*
X31902190Y60322790D01*
X31891314Y60325089D01*
X31880453Y60327093D01*
X31869105Y60328821D01*
X31856770Y60330295D01*
X31842947Y60331536D01*
X31827135Y60332565D01*
X31808834Y60333401D01*
X31787542Y60334067D01*
X31762761Y60334583D01*
X31733987Y60334969D01*
X31700722Y60335246D01*
X31662464Y60335436D01*
X31618713Y60335558D01*
X31568967Y60335634D01*
X31512727Y60335685D01*
X31480578Y60335708D01*
X31133142Y60335956D01*
X31133142Y59853285D01*
X31440664Y59853067D01*
X31496493Y59853021D01*
X31545577Y59852963D01*
X31588430Y59852885D01*
X31625564Y59852779D01*
X31657491Y59852637D01*
X31684724Y59852453D01*
X31707777Y59852219D01*
X31727161Y59851926D01*
X31743389Y59851568D01*
X31756974Y59851136D01*
X31768429Y59850623D01*
X31778266Y59850022D01*
X31786998Y59849324D01*
X31795138Y59848522D01*
X31802550Y59847686D01*
X31824357Y59842036D01*
X31847164Y59830768D01*
X31869409Y59815049D01*
X31889527Y59796049D01*
X31905952Y59774937D01*
X31910794Y59766800D01*
X31918771Y59746644D01*
X31923959Y59721916D01*
X31926231Y59694793D01*
X31925466Y59667453D01*
X31921537Y59642074D01*
X31918525Y59631331D01*
X31910322Y59615046D01*
X31896893Y59597793D01*
X31879799Y59581179D01*
X31860597Y59566812D01*
X31849785Y59560493D01*
X31843782Y59557289D01*
X31838378Y59554398D01*
X31833189Y59551803D01*
X31827833Y59549490D01*
X31821926Y59547442D01*
X31815087Y59545643D01*
X31806931Y59544077D01*
X31797076Y59542727D01*
X31785139Y59541579D01*
X31770736Y59540616D01*
X31753486Y59539822D01*
X31733004Y59539180D01*
X31708908Y59538676D01*
X31680815Y59538293D01*
X31648341Y59538015D01*
X31611105Y59537826D01*
X31568723Y59537710D01*
X31520811Y59537651D01*
X31466988Y59537633D01*
X31406869Y59537640D01*
X31340072Y59537656D01*
X31303162Y59537663D01*
X31232283Y59537670D01*
X31168281Y59537680D01*
X31110776Y59537711D01*
X31059389Y59537775D01*
X31013739Y59537890D01*
X30973446Y59538069D01*
X30938131Y59538329D01*
X30907413Y59538684D01*
X30880912Y59539150D01*
X30858249Y59539741D01*
X30839043Y59540474D01*
X30822915Y59541363D01*
X30809484Y59542423D01*
X30798371Y59543671D01*
X30789196Y59545120D01*
X30781578Y59546786D01*
X30775138Y59548685D01*
X30769495Y59550831D01*
X30764271Y59553240D01*
X30759084Y59555927D01*
X30753555Y59558908D01*
X30752005Y59559737D01*
X30726674Y59576778D01*
X30703566Y59599058D01*
X30684611Y59624565D01*
X30677564Y59637344D01*
X30673950Y59644639D01*
X30670724Y59651200D01*
X30667865Y59657459D01*
X30665351Y59663847D01*
X30663163Y59670796D01*
X30661278Y59678737D01*
X30659676Y59688102D01*
X30658337Y59699324D01*
X30657238Y59712832D01*
X30656359Y59729060D01*
X30655680Y59748438D01*
X30655179Y59771399D01*
X30654835Y59798373D01*
X30654627Y59829793D01*
X30654534Y59866090D01*
X30654536Y59907696D01*
X30654611Y59955042D01*
X30654739Y60008561D01*
X30654898Y60068683D01*
X30654985Y60102296D01*
X30655985Y60497357D01*
X30664008Y60518376D01*
X30675672Y60545369D01*
X30688515Y60567291D01*
X30703951Y60586322D01*
X30715442Y60597622D01*
X30729518Y60609330D01*
X30745135Y60620494D01*
X30759212Y60628938D01*
X30760905Y60629788D01*
X30768483Y60633486D01*
X30775390Y60636740D01*
X30782120Y60639578D01*
X30789164Y60642030D01*
X30797014Y60644123D01*
X30806164Y60645885D01*
X30817106Y60647345D01*
X30830331Y60648532D01*
X30846332Y60649473D01*
X30865603Y60650197D01*
X30888635Y60650733D01*
X30915920Y60651108D01*
X30947951Y60651351D01*
X30985221Y60651491D01*
X31028221Y60651555D01*
X31077445Y60651573D01*
X31133384Y60651571D01*
X31452457Y60651571D01*
X31452457Y61123285D01*
X31132701Y61123285D01*
X31074533Y61123280D01*
G37*
X31074533Y61123280D02*
X31023085Y61123245D01*
X30977824Y61123157D01*
X30938212Y61122990D01*
X30903714Y61122719D01*
X30873794Y61122318D01*
X30847916Y61121762D01*
X30825544Y61121026D01*
X30806143Y61120084D01*
X30789177Y61118911D01*
X30774110Y61117483D01*
X30760405Y61115772D01*
X30747528Y61113755D01*
X30734943Y61111406D01*
X30722113Y61108700D01*
X30708503Y61105611D01*
X30695900Y61102660D01*
X30627707Y61083518D01*
X30564258Y61059162D01*
X30504911Y61029247D01*
X30449022Y60993422D01*
X30395950Y60951341D01*
X30366219Y60923943D01*
X30318515Y60872884D01*
X30277297Y60818585D01*
X30242597Y60761114D01*
X30214448Y60700538D01*
X30192882Y60636923D01*
X30177932Y60570339D01*
X30171496Y60522757D01*
X30170778Y60512205D01*
X30170157Y60495723D01*
X30169633Y60473175D01*
X30169205Y60444426D01*
X30168871Y60409340D01*
X30168632Y60367782D01*
X30168486Y60319617D01*
X30168432Y60264708D01*
X30168471Y60202921D01*
X30168600Y60134120D01*
X30168766Y60074628D01*
X30170048Y59666414D01*
X30179834Y59622331D01*
X30192470Y59570066D01*
X30206002Y59523645D01*
X30220932Y59481666D01*
X30237760Y59442726D01*
X30256986Y59405424D01*
X30257711Y59404125D01*
X30293245Y59347325D01*
X30333724Y59294612D01*
X30378600Y59246430D01*
X30427323Y59203221D01*
X30479346Y59165430D01*
X30534120Y59133498D01*
X30591097Y59107869D01*
X30647068Y59089683D01*
X30657891Y59086796D01*
X30667763Y59084181D01*
X30677072Y59081822D01*
X30686209Y59079704D01*
X30695563Y59077812D01*
X30705523Y59076133D01*
X30716478Y59074650D01*
X30728819Y59073350D01*
X30742934Y59072216D01*
X30759213Y59071235D01*
X30778046Y59070392D01*
X30799821Y59069671D01*
X30824929Y59069059D01*
X30853759Y59068539D01*
X30886701Y59068098D01*
X30924142Y59067720D01*
X30966475Y59067391D01*
X31014086Y59067095D01*
X31067367Y59066819D01*
X31126707Y59066547D01*
X31192494Y59066264D01*
X31265119Y59065956D01*
X31271028Y59065930D01*
X31331809Y59065655D01*
X31390660Y59065360D01*
X31447167Y59065048D01*
X31500913Y59064724D01*
X31551486Y59064390D01*
X31598471Y59064050D01*
X31641452Y59063707D01*
X31680015Y59063366D01*
X31713746Y59063028D01*
X31742230Y59062699D01*
X31765052Y59062381D01*
X31781799Y59062077D01*
X31792054Y59061792D01*
X31795357Y59061566D01*
X31802406Y59060920D01*
X31814215Y59061218D01*
X31828357Y59062390D01*
X31829828Y59062555D01*
X31901494Y59073955D01*
X31970607Y59091234D01*
X32036625Y59114150D01*
X32099004Y59142464D01*
X32157201Y59175934D01*
X32210673Y59214319D01*
X32250252Y59248949D01*
X32290028Y59290992D01*
X32325996Y59337000D01*
X32357388Y59385738D01*
X32383434Y59435973D01*
X32403364Y59486471D01*
X32408263Y59502273D01*
X32415084Y59527014D01*
X32420360Y59549288D01*
X32424275Y59570657D01*
X32427014Y59592684D01*
X32428762Y59616932D01*
X32429704Y59644964D01*
X32430025Y59678344D01*
X32430031Y59686371D01*
X32429965Y59714164D01*
X32429729Y59736084D01*
X32429215Y59753516D01*
X32428318Y59767843D01*
X32426932Y59780450D01*
X32424950Y59792721D01*
X32422267Y59806041D01*
X32420119Y59815817D01*
X32402686Y59881734D01*
X32380887Y59942333D01*
X32354334Y59998366D01*
X32322637Y60050586D01*
X32285406Y60099747D01*
X32256477Y60132077D01*
X32215433Y60170645D01*
X32168601Y60206666D01*
X32117208Y60239453D01*
X32062481Y60268320D01*
X32005646Y60292577D01*
X31947930Y60311539D01*
X31925985Y60317222D01*
X31913580Y60320175D01*
X31902190Y60322790D01*
X31891314Y60325089D01*
X31880453Y60327093D01*
X31869105Y60328821D01*
X31856770Y60330295D01*
X31842947Y60331536D01*
X31827135Y60332565D01*
X31808834Y60333401D01*
X31787542Y60334067D01*
X31762761Y60334583D01*
X31733987Y60334969D01*
X31700722Y60335246D01*
X31662464Y60335436D01*
X31618713Y60335558D01*
X31568967Y60335634D01*
X31512727Y60335685D01*
X31480578Y60335708D01*
X31133142Y60335956D01*
X31133142Y59853285D01*
X31440664Y59853067D01*
X31496493Y59853021D01*
X31545577Y59852963D01*
X31588430Y59852885D01*
X31625564Y59852779D01*
X31657491Y59852637D01*
X31684724Y59852453D01*
X31707777Y59852219D01*
X31727161Y59851926D01*
X31743389Y59851568D01*
X31756974Y59851136D01*
X31768429Y59850623D01*
X31778266Y59850022D01*
X31786998Y59849324D01*
X31795138Y59848522D01*
X31802550Y59847686D01*
X31824357Y59842036D01*
X31847164Y59830768D01*
X31869409Y59815049D01*
X31889527Y59796049D01*
X31905952Y59774937D01*
X31910794Y59766800D01*
X31918771Y59746644D01*
X31923959Y59721916D01*
X31926231Y59694793D01*
X31925466Y59667453D01*
X31921537Y59642074D01*
X31918525Y59631331D01*
X31910322Y59615046D01*
X31896893Y59597793D01*
X31879799Y59581179D01*
X31860597Y59566812D01*
X31849785Y59560493D01*
X31843782Y59557289D01*
X31838378Y59554398D01*
X31833189Y59551803D01*
X31827833Y59549490D01*
X31821926Y59547442D01*
X31815087Y59545643D01*
X31806931Y59544077D01*
X31797076Y59542727D01*
X31785139Y59541579D01*
X31770736Y59540616D01*
X31753486Y59539822D01*
X31733004Y59539180D01*
X31708908Y59538676D01*
X31680815Y59538293D01*
X31648341Y59538015D01*
X31611105Y59537826D01*
X31568723Y59537710D01*
X31520811Y59537651D01*
X31466988Y59537633D01*
X31406869Y59537640D01*
X31340072Y59537656D01*
X31303162Y59537663D01*
X31232283Y59537670D01*
X31168281Y59537680D01*
X31110776Y59537711D01*
X31059389Y59537775D01*
X31013739Y59537890D01*
X30973446Y59538069D01*
X30938131Y59538329D01*
X30907413Y59538684D01*
X30880912Y59539150D01*
X30858249Y59539741D01*
X30839043Y59540474D01*
X30822915Y59541363D01*
X30809484Y59542423D01*
X30798371Y59543671D01*
X30789196Y59545120D01*
X30781578Y59546786D01*
X30775138Y59548685D01*
X30769495Y59550831D01*
X30764271Y59553240D01*
X30759084Y59555927D01*
X30753555Y59558908D01*
X30752005Y59559737D01*
X30726674Y59576778D01*
X30703566Y59599058D01*
X30684611Y59624565D01*
X30677564Y59637344D01*
X30673950Y59644639D01*
X30670724Y59651200D01*
X30667865Y59657459D01*
X30665351Y59663847D01*
X30663163Y59670796D01*
X30661278Y59678737D01*
X30659676Y59688102D01*
X30658337Y59699324D01*
X30657238Y59712832D01*
X30656359Y59729060D01*
X30655680Y59748438D01*
X30655179Y59771399D01*
X30654835Y59798373D01*
X30654627Y59829793D01*
X30654534Y59866090D01*
X30654536Y59907696D01*
X30654611Y59955042D01*
X30654739Y60008561D01*
X30654898Y60068683D01*
X30654985Y60102296D01*
X30655985Y60497357D01*
X30664008Y60518376D01*
X30675672Y60545369D01*
X30688515Y60567291D01*
X30703951Y60586322D01*
X30715442Y60597622D01*
X30729518Y60609330D01*
X30745135Y60620494D01*
X30759212Y60628938D01*
X30760905Y60629788D01*
X30768483Y60633486D01*
X30775390Y60636740D01*
X30782120Y60639578D01*
X30789164Y60642030D01*
X30797014Y60644123D01*
X30806164Y60645885D01*
X30817106Y60647345D01*
X30830331Y60648532D01*
X30846332Y60649473D01*
X30865603Y60650197D01*
X30888635Y60650733D01*
X30915920Y60651108D01*
X30947951Y60651351D01*
X30985221Y60651491D01*
X31028221Y60651555D01*
X31077445Y60651573D01*
X31133384Y60651571D01*
X31452457Y60651571D01*
X31452457Y61123285D01*
X31132701Y61123285D01*
X31074533Y61123280D01*
G36*
X40082107Y61786936D02*
G01*
X39989147Y61786888D01*
X39903153Y61786839D01*
X39823833Y61786786D01*
X39750898Y61786726D01*
X39684054Y61786658D01*
X39623011Y61786579D01*
X39567478Y61786486D01*
X39517163Y61786378D01*
X39471776Y61786251D01*
X39431024Y61786105D01*
X39394617Y61785935D01*
X39362264Y61785740D01*
X39333673Y61785518D01*
X39308553Y61785266D01*
X39286612Y61784982D01*
X39267560Y61784663D01*
X39251106Y61784308D01*
X39236957Y61783913D01*
X39224823Y61783476D01*
X39214413Y61782995D01*
X39205435Y61782469D01*
X39197598Y61781893D01*
X39190611Y61781266D01*
X39184182Y61780586D01*
X39178021Y61779850D01*
X39176060Y61779603D01*
X39103805Y61768639D01*
X39036491Y61754590D01*
X38972268Y61736921D01*
X38909282Y61715096D01*
X38845680Y61688580D01*
X38819820Y61676619D01*
X38740998Y61635304D01*
X38666748Y61588441D01*
X38597238Y61536252D01*
X38532637Y61478957D01*
X38473112Y61416777D01*
X38418832Y61349933D01*
X38369963Y61278645D01*
X38326674Y61203134D01*
X38289134Y61123621D01*
X38257509Y61040326D01*
X38231968Y60953470D01*
X38216457Y60883800D01*
X38213074Y60866050D01*
X38210090Y60849702D01*
X38207478Y60834196D01*
X38205215Y60818972D01*
X38203275Y60803469D01*
X38201633Y60787127D01*
X38200265Y60769386D01*
X38199146Y60749687D01*
X38198250Y60727468D01*
X38197554Y60702170D01*
X38197031Y60673232D01*
X38196658Y60640095D01*
X38196409Y60602198D01*
X38196259Y60558980D01*
X38196184Y60509883D01*
X38196159Y60454345D01*
X38196157Y60426600D01*
X38196165Y60368953D01*
X38196206Y60318000D01*
X38196299Y60273177D01*
X38196466Y60233921D01*
X38196728Y60199668D01*
X38197107Y60169855D01*
X38197624Y60143917D01*
X38198300Y60121293D01*
X38199157Y60101417D01*
X38200215Y60083727D01*
X38201496Y60067659D01*
X38203022Y60052650D01*
X38204812Y60038135D01*
X38206890Y60023553D01*
X38209276Y60008338D01*
X38211991Y59991928D01*
X38212729Y59987543D01*
X38230853Y59900582D01*
X38255382Y59816074D01*
X38286077Y59734386D01*
X38322700Y59655886D01*
X38365013Y59580941D01*
X38412775Y59509917D01*
X38465748Y59443182D01*
X38523694Y59381103D01*
X38586374Y59324048D01*
X38653549Y59272382D01*
X38696411Y59243809D01*
X38770202Y59201156D01*
X38847391Y59163856D01*
X38927001Y59132253D01*
X39008057Y59106693D01*
X39089582Y59087523D01*
X39170600Y59075086D01*
X39174057Y59074708D01*
X39187124Y59073061D01*
X39198547Y59071218D01*
X39203085Y59070258D01*
X39207498Y59070043D01*
X39218848Y59069824D01*
X39236815Y59069602D01*
X39261080Y59069379D01*
X39291323Y59069155D01*
X39327224Y59068933D01*
X39368463Y59068713D01*
X39414720Y59068496D01*
X39465675Y59068285D01*
X39521009Y59068079D01*
X39580402Y59067881D01*
X39643534Y59067691D01*
X39710085Y59067512D01*
X39779735Y59067343D01*
X39852165Y59067187D01*
X39927054Y59067045D01*
X40004083Y59066918D01*
X40073035Y59066819D01*
X40933914Y59065684D01*
X40933914Y59991171D01*
X40433171Y59991171D01*
X40433171Y59552114D01*
X39861857Y59552114D01*
X39784973Y59552121D01*
X39714998Y59552146D01*
X39651581Y59552190D01*
X39594375Y59552257D01*
X39543029Y59552350D01*
X39497196Y59552473D01*
X39456525Y59552629D01*
X39420667Y59552820D01*
X39389275Y59553050D01*
X39361998Y59553322D01*
X39338488Y59553640D01*
X39318395Y59554006D01*
X39301370Y59554424D01*
X39287065Y59554896D01*
X39275131Y59555427D01*
X39265217Y59556018D01*
X39256976Y59556674D01*
X39250058Y59557398D01*
X39247721Y59557689D01*
X39180669Y59569637D01*
X39116146Y59587559D01*
X39054702Y59611176D01*
X38996885Y59640211D01*
X38943246Y59674386D01*
X38894332Y59713426D01*
X38850693Y59757052D01*
X38848903Y59759071D01*
X38813870Y59803644D01*
X38782356Y59853476D01*
X38755096Y59907124D01*
X38732825Y59963146D01*
X38716584Y60018810D01*
X38713152Y60033395D01*
X38710158Y60046850D01*
X38707570Y60059776D01*
X38705353Y60072773D01*
X38703475Y60086442D01*
X38701903Y60101383D01*
X38700602Y60118197D01*
X38699541Y60137483D01*
X38698685Y60159844D01*
X38698001Y60185878D01*
X38697456Y60216187D01*
X38697018Y60251371D01*
X38696652Y60292031D01*
X38696325Y60338766D01*
X38696015Y60390314D01*
X38695717Y60448636D01*
X38695551Y60500274D01*
X38695538Y60545800D01*
X38695701Y60585787D01*
X38696060Y60620807D01*
X38696637Y60651433D01*
X38697453Y60678236D01*
X38698530Y60701789D01*
X38699888Y60722665D01*
X38701550Y60741435D01*
X38703536Y60758673D01*
X38705868Y60774950D01*
X38708567Y60790838D01*
X38711539Y60806329D01*
X38721460Y60849539D01*
X38733447Y60889100D01*
X38748531Y60928035D01*
X38766051Y60965941D01*
X38787738Y61006774D01*
X38810555Y61042710D01*
X38836178Y61076091D01*
X38866281Y61109258D01*
X38874756Y61117843D01*
X38923570Y61161869D01*
X38975779Y61199786D01*
X39031597Y61231687D01*
X39091236Y61257663D01*
X39154908Y61277808D01*
X39222827Y61292214D01*
X39295205Y61300974D01*
X39295234Y61300976D01*
X39304918Y61301447D01*
X39321760Y61301887D01*
X39345662Y61302298D01*
X39376523Y61302678D01*
X39414246Y61303027D01*
X39458732Y61303344D01*
X39509881Y61303630D01*
X39567594Y61303883D01*
X39631774Y61304104D01*
X39702319Y61304291D01*
X39779133Y61304445D01*
X39862115Y61304564D01*
X39951167Y61304649D01*
X40046190Y61304699D01*
X40137969Y61304714D01*
X40933914Y61304714D01*
X40933914Y61787359D01*
X40082107Y61786936D01*
G37*
X40082107Y61786936D02*
X39989147Y61786888D01*
X39903153Y61786839D01*
X39823833Y61786786D01*
X39750898Y61786726D01*
X39684054Y61786658D01*
X39623011Y61786579D01*
X39567478Y61786486D01*
X39517163Y61786378D01*
X39471776Y61786251D01*
X39431024Y61786105D01*
X39394617Y61785935D01*
X39362264Y61785740D01*
X39333673Y61785518D01*
X39308553Y61785266D01*
X39286612Y61784982D01*
X39267560Y61784663D01*
X39251106Y61784308D01*
X39236957Y61783913D01*
X39224823Y61783476D01*
X39214413Y61782995D01*
X39205435Y61782469D01*
X39197598Y61781893D01*
X39190611Y61781266D01*
X39184182Y61780586D01*
X39178021Y61779850D01*
X39176060Y61779603D01*
X39103805Y61768639D01*
X39036491Y61754590D01*
X38972268Y61736921D01*
X38909282Y61715096D01*
X38845680Y61688580D01*
X38819820Y61676619D01*
X38740998Y61635304D01*
X38666748Y61588441D01*
X38597238Y61536252D01*
X38532637Y61478957D01*
X38473112Y61416777D01*
X38418832Y61349933D01*
X38369963Y61278645D01*
X38326674Y61203134D01*
X38289134Y61123621D01*
X38257509Y61040326D01*
X38231968Y60953470D01*
X38216457Y60883800D01*
X38213074Y60866050D01*
X38210090Y60849702D01*
X38207478Y60834196D01*
X38205215Y60818972D01*
X38203275Y60803469D01*
X38201633Y60787127D01*
X38200265Y60769386D01*
X38199146Y60749687D01*
X38198250Y60727468D01*
X38197554Y60702170D01*
X38197031Y60673232D01*
X38196658Y60640095D01*
X38196409Y60602198D01*
X38196259Y60558980D01*
X38196184Y60509883D01*
X38196159Y60454345D01*
X38196157Y60426600D01*
X38196165Y60368953D01*
X38196206Y60318000D01*
X38196299Y60273177D01*
X38196466Y60233921D01*
X38196728Y60199668D01*
X38197107Y60169855D01*
X38197624Y60143917D01*
X38198300Y60121293D01*
X38199157Y60101417D01*
X38200215Y60083727D01*
X38201496Y60067659D01*
X38203022Y60052650D01*
X38204812Y60038135D01*
X38206890Y60023553D01*
X38209276Y60008338D01*
X38211991Y59991928D01*
X38212729Y59987543D01*
X38230853Y59900582D01*
X38255382Y59816074D01*
X38286077Y59734386D01*
X38322700Y59655886D01*
X38365013Y59580941D01*
X38412775Y59509917D01*
X38465748Y59443182D01*
X38523694Y59381103D01*
X38586374Y59324048D01*
X38653549Y59272382D01*
X38696411Y59243809D01*
X38770202Y59201156D01*
X38847391Y59163856D01*
X38927001Y59132253D01*
X39008057Y59106693D01*
X39089582Y59087523D01*
X39170600Y59075086D01*
X39174057Y59074708D01*
X39187124Y59073061D01*
X39198547Y59071218D01*
X39203085Y59070258D01*
X39207498Y59070043D01*
X39218848Y59069824D01*
X39236815Y59069602D01*
X39261080Y59069379D01*
X39291323Y59069155D01*
X39327224Y59068933D01*
X39368463Y59068713D01*
X39414720Y59068496D01*
X39465675Y59068285D01*
X39521009Y59068079D01*
X39580402Y59067881D01*
X39643534Y59067691D01*
X39710085Y59067512D01*
X39779735Y59067343D01*
X39852165Y59067187D01*
X39927054Y59067045D01*
X40004083Y59066918D01*
X40073035Y59066819D01*
X40933914Y59065684D01*
X40933914Y59991171D01*
X40433171Y59991171D01*
X40433171Y59552114D01*
X39861857Y59552114D01*
X39784973Y59552121D01*
X39714998Y59552146D01*
X39651581Y59552190D01*
X39594375Y59552257D01*
X39543029Y59552350D01*
X39497196Y59552473D01*
X39456525Y59552629D01*
X39420667Y59552820D01*
X39389275Y59553050D01*
X39361998Y59553322D01*
X39338488Y59553640D01*
X39318395Y59554006D01*
X39301370Y59554424D01*
X39287065Y59554896D01*
X39275131Y59555427D01*
X39265217Y59556018D01*
X39256976Y59556674D01*
X39250058Y59557398D01*
X39247721Y59557689D01*
X39180669Y59569637D01*
X39116146Y59587559D01*
X39054702Y59611176D01*
X38996885Y59640211D01*
X38943246Y59674386D01*
X38894332Y59713426D01*
X38850693Y59757052D01*
X38848903Y59759071D01*
X38813870Y59803644D01*
X38782356Y59853476D01*
X38755096Y59907124D01*
X38732825Y59963146D01*
X38716584Y60018810D01*
X38713152Y60033395D01*
X38710158Y60046850D01*
X38707570Y60059776D01*
X38705353Y60072773D01*
X38703475Y60086442D01*
X38701903Y60101383D01*
X38700602Y60118197D01*
X38699541Y60137483D01*
X38698685Y60159844D01*
X38698001Y60185878D01*
X38697456Y60216187D01*
X38697018Y60251371D01*
X38696652Y60292031D01*
X38696325Y60338766D01*
X38696015Y60390314D01*
X38695717Y60448636D01*
X38695551Y60500274D01*
X38695538Y60545800D01*
X38695701Y60585787D01*
X38696060Y60620807D01*
X38696637Y60651433D01*
X38697453Y60678236D01*
X38698530Y60701789D01*
X38699888Y60722665D01*
X38701550Y60741435D01*
X38703536Y60758673D01*
X38705868Y60774950D01*
X38708567Y60790838D01*
X38711539Y60806329D01*
X38721460Y60849539D01*
X38733447Y60889100D01*
X38748531Y60928035D01*
X38766051Y60965941D01*
X38787738Y61006774D01*
X38810555Y61042710D01*
X38836178Y61076091D01*
X38866281Y61109258D01*
X38874756Y61117843D01*
X38923570Y61161869D01*
X38975779Y61199786D01*
X39031597Y61231687D01*
X39091236Y61257663D01*
X39154908Y61277808D01*
X39222827Y61292214D01*
X39295205Y61300974D01*
X39295234Y61300976D01*
X39304918Y61301447D01*
X39321760Y61301887D01*
X39345662Y61302298D01*
X39376523Y61302678D01*
X39414246Y61303027D01*
X39458732Y61303344D01*
X39509881Y61303630D01*
X39567594Y61303883D01*
X39631774Y61304104D01*
X39702319Y61304291D01*
X39779133Y61304445D01*
X39862115Y61304564D01*
X39951167Y61304649D01*
X40046190Y61304699D01*
X40137969Y61304714D01*
X40933914Y61304714D01*
X40933914Y61787359D01*
X40082107Y61786936D01*
G36*
X37287137Y60423878D02*
G01*
X37287133Y60338425D01*
X37287131Y60259918D01*
X37287122Y60188046D01*
X37287099Y60122498D01*
X37287051Y60062963D01*
X37286971Y60009129D01*
X37286850Y59960686D01*
X37286678Y59917322D01*
X37286447Y59878726D01*
X37286149Y59844588D01*
X37285775Y59814596D01*
X37285316Y59788439D01*
X37284763Y59765807D01*
X37284108Y59746387D01*
X37283342Y59729868D01*
X37282456Y59715941D01*
X37281441Y59704293D01*
X37280290Y59694614D01*
X37278992Y59686592D01*
X37277540Y59679916D01*
X37275924Y59674276D01*
X37274136Y59669360D01*
X37272168Y59664856D01*
X37270010Y59660455D01*
X37267653Y59655845D01*
X37265506Y59651566D01*
X37248199Y59623023D01*
X37226559Y59599594D01*
X37199922Y59580719D01*
X37167623Y59565837D01*
X37161085Y59563515D01*
X37132985Y59553928D01*
X36810042Y59552114D01*
X36487100Y59550300D01*
X36486167Y59308093D01*
X36485234Y59065885D01*
X36818181Y59066466D01*
X36866989Y59066566D01*
X36913916Y59066689D01*
X36958429Y59066834D01*
X36999996Y59066997D01*
X37038081Y59067175D01*
X37072154Y59067365D01*
X37101679Y59067564D01*
X37126125Y59067769D01*
X37144957Y59067978D01*
X37157642Y59068186D01*
X37163648Y59068392D01*
X37163828Y59068408D01*
X37232485Y59078924D01*
X37299991Y59095449D01*
X37365165Y59117593D01*
X37426821Y59144961D01*
X37474877Y59171608D01*
X37527419Y59207928D01*
X37575999Y59249888D01*
X37620156Y59296819D01*
X37659427Y59348051D01*
X37693353Y59402916D01*
X37721471Y59460743D01*
X37743320Y59520864D01*
X37758438Y59582609D01*
X37758503Y59582957D01*
X37761796Y59600557D01*
X37764886Y59616793D01*
X37767370Y59629560D01*
X37768588Y59635571D01*
X37768859Y59640409D01*
X37769133Y59652156D01*
X37769410Y59670462D01*
X37769686Y59694980D01*
X37769962Y59725360D01*
X37770234Y59761254D01*
X37770500Y59802314D01*
X37770760Y59848191D01*
X37771012Y59898535D01*
X37771253Y59953000D01*
X37771481Y60011235D01*
X37771696Y60072893D01*
X37771894Y60137624D01*
X37772076Y60205080D01*
X37772237Y60274913D01*
X37772378Y60346774D01*
X37772443Y60385778D01*
X37773614Y61123285D01*
X37287200Y61123285D01*
X37287137Y60423878D01*
G37*
X37287137Y60423878D02*
X37287133Y60338425D01*
X37287131Y60259918D01*
X37287122Y60188046D01*
X37287099Y60122498D01*
X37287051Y60062963D01*
X37286971Y60009129D01*
X37286850Y59960686D01*
X37286678Y59917322D01*
X37286447Y59878726D01*
X37286149Y59844588D01*
X37285775Y59814596D01*
X37285316Y59788439D01*
X37284763Y59765807D01*
X37284108Y59746387D01*
X37283342Y59729868D01*
X37282456Y59715941D01*
X37281441Y59704293D01*
X37280290Y59694614D01*
X37278992Y59686592D01*
X37277540Y59679916D01*
X37275924Y59674276D01*
X37274136Y59669360D01*
X37272168Y59664856D01*
X37270010Y59660455D01*
X37267653Y59655845D01*
X37265506Y59651566D01*
X37248199Y59623023D01*
X37226559Y59599594D01*
X37199922Y59580719D01*
X37167623Y59565837D01*
X37161085Y59563515D01*
X37132985Y59553928D01*
X36810042Y59552114D01*
X36487100Y59550300D01*
X36486167Y59308093D01*
X36485234Y59065885D01*
X36818181Y59066466D01*
X36866989Y59066566D01*
X36913916Y59066689D01*
X36958429Y59066834D01*
X36999996Y59066997D01*
X37038081Y59067175D01*
X37072154Y59067365D01*
X37101679Y59067564D01*
X37126125Y59067769D01*
X37144957Y59067978D01*
X37157642Y59068186D01*
X37163648Y59068392D01*
X37163828Y59068408D01*
X37232485Y59078924D01*
X37299991Y59095449D01*
X37365165Y59117593D01*
X37426821Y59144961D01*
X37474877Y59171608D01*
X37527419Y59207928D01*
X37575999Y59249888D01*
X37620156Y59296819D01*
X37659427Y59348051D01*
X37693353Y59402916D01*
X37721471Y59460743D01*
X37743320Y59520864D01*
X37758438Y59582609D01*
X37758503Y59582957D01*
X37761796Y59600557D01*
X37764886Y59616793D01*
X37767370Y59629560D01*
X37768588Y59635571D01*
X37768859Y59640409D01*
X37769133Y59652156D01*
X37769410Y59670462D01*
X37769686Y59694980D01*
X37769962Y59725360D01*
X37770234Y59761254D01*
X37770500Y59802314D01*
X37770760Y59848191D01*
X37771012Y59898535D01*
X37771253Y59953000D01*
X37771481Y60011235D01*
X37771696Y60072893D01*
X37771894Y60137624D01*
X37772076Y60205080D01*
X37772237Y60274913D01*
X37772378Y60346774D01*
X37772443Y60385778D01*
X37773614Y61123285D01*
X37287200Y61123285D01*
X37287137Y60423878D01*
G36*
X34292721Y61122339D02*
G01*
X34207125Y61122205D01*
X34128473Y61122079D01*
X34056452Y61121957D01*
X33990749Y61121834D01*
X33931050Y61121708D01*
X33877043Y61121575D01*
X33828415Y61121432D01*
X33784853Y61121274D01*
X33746043Y61121099D01*
X33711672Y61120902D01*
X33681428Y61120680D01*
X33654996Y61120429D01*
X33632065Y61120146D01*
X33612321Y61119828D01*
X33595451Y61119470D01*
X33581142Y61119069D01*
X33569081Y61118622D01*
X33558954Y61118125D01*
X33550449Y61117574D01*
X33543252Y61116965D01*
X33537051Y61116296D01*
X33531533Y61115562D01*
X33526383Y61114761D01*
X33521290Y61113887D01*
X33518928Y61113469D01*
X33478419Y61105924D01*
X33443473Y61098606D01*
X33412423Y61091119D01*
X33383603Y61083066D01*
X33360755Y61075859D01*
X33285629Y61047732D01*
X33213510Y61014171D01*
X33145096Y60975604D01*
X33081088Y60932460D01*
X33022185Y60885168D01*
X32972828Y60838077D01*
X32923587Y60782102D01*
X32880223Y60722653D01*
X32842612Y60659463D01*
X32810632Y60592262D01*
X32784159Y60520782D01*
X32763069Y60444754D01*
X32747239Y60363911D01*
X32743612Y60339514D01*
X32743012Y60332898D01*
X32742452Y60321874D01*
X32741930Y60306239D01*
X32741444Y60285788D01*
X32740994Y60260318D01*
X32740577Y60229625D01*
X32740191Y60193505D01*
X32739834Y60151753D01*
X32739506Y60104166D01*
X32739203Y60050540D01*
X32738925Y59990670D01*
X32738670Y59924354D01*
X32738435Y59851386D01*
X32738220Y59771564D01*
X32738027Y59687278D01*
X32736716Y59065885D01*
X33237714Y59065885D01*
X33237970Y59647364D01*
X33238008Y59712057D01*
X33238065Y59774955D01*
X33238140Y59835657D01*
X33238230Y59893763D01*
X33238335Y59948874D01*
X33238454Y60000589D01*
X33238585Y60048509D01*
X33238727Y60092234D01*
X33238879Y60131365D01*
X33239039Y60165500D01*
X33239206Y60194240D01*
X33239380Y60217186D01*
X33239558Y60233937D01*
X33239739Y60244094D01*
X33239860Y60246985D01*
X33247523Y60300860D01*
X33260357Y60350401D01*
X33278234Y60395123D01*
X33280331Y60399385D01*
X33307858Y60446987D01*
X33339881Y60488901D01*
X33376419Y60525143D01*
X33417492Y60555726D01*
X33463120Y60580665D01*
X33513322Y60599974D01*
X33568119Y60613668D01*
X33578253Y60615500D01*
X33584596Y60616542D01*
X33591061Y60617476D01*
X33598061Y60618307D01*
X33606006Y60619043D01*
X33615309Y60619688D01*
X33626379Y60620250D01*
X33639628Y60620732D01*
X33655468Y60621142D01*
X33674309Y60621485D01*
X33696564Y60621768D01*
X33722642Y60621995D01*
X33752957Y60622174D01*
X33787918Y60622309D01*
X33827937Y60622407D01*
X33873425Y60622473D01*
X33924794Y60622514D01*
X33982455Y60622535D01*
X34046819Y60622542D01*
X34070815Y60622543D01*
X34522195Y60622543D01*
X34522203Y59852378D01*
X34522204Y59778044D01*
X34522205Y59705587D01*
X34522206Y59635346D01*
X34522207Y59567659D01*
X34522208Y59502864D01*
X34522209Y59441300D01*
X34522210Y59383304D01*
X34522211Y59329214D01*
X34522212Y59279370D01*
X34522213Y59234108D01*
X34522214Y59193767D01*
X34522215Y59158686D01*
X34522216Y59129203D01*
X34522217Y59105655D01*
X34522218Y59088381D01*
X34522219Y59077719D01*
X34522220Y59074050D01*
X34522228Y59065885D01*
X35022971Y59065885D01*
X35022971Y61123473D01*
X34292721Y61122339D01*
G37*
X34292721Y61122339D02*
X34207125Y61122205D01*
X34128473Y61122079D01*
X34056452Y61121957D01*
X33990749Y61121834D01*
X33931050Y61121708D01*
X33877043Y61121575D01*
X33828415Y61121432D01*
X33784853Y61121274D01*
X33746043Y61121099D01*
X33711672Y61120902D01*
X33681428Y61120680D01*
X33654996Y61120429D01*
X33632065Y61120146D01*
X33612321Y61119828D01*
X33595451Y61119470D01*
X33581142Y61119069D01*
X33569081Y61118622D01*
X33558954Y61118125D01*
X33550449Y61117574D01*
X33543252Y61116965D01*
X33537051Y61116296D01*
X33531533Y61115562D01*
X33526383Y61114761D01*
X33521290Y61113887D01*
X33518928Y61113469D01*
X33478419Y61105924D01*
X33443473Y61098606D01*
X33412423Y61091119D01*
X33383603Y61083066D01*
X33360755Y61075859D01*
X33285629Y61047732D01*
X33213510Y61014171D01*
X33145096Y60975604D01*
X33081088Y60932460D01*
X33022185Y60885168D01*
X32972828Y60838077D01*
X32923587Y60782102D01*
X32880223Y60722653D01*
X32842612Y60659463D01*
X32810632Y60592262D01*
X32784159Y60520782D01*
X32763069Y60444754D01*
X32747239Y60363911D01*
X32743612Y60339514D01*
X32743012Y60332898D01*
X32742452Y60321874D01*
X32741930Y60306239D01*
X32741444Y60285788D01*
X32740994Y60260318D01*
X32740577Y60229625D01*
X32740191Y60193505D01*
X32739834Y60151753D01*
X32739506Y60104166D01*
X32739203Y60050540D01*
X32738925Y59990670D01*
X32738670Y59924354D01*
X32738435Y59851386D01*
X32738220Y59771564D01*
X32738027Y59687278D01*
X32736716Y59065885D01*
X33237714Y59065885D01*
X33237970Y59647364D01*
X33238008Y59712057D01*
X33238065Y59774955D01*
X33238140Y59835657D01*
X33238230Y59893763D01*
X33238335Y59948874D01*
X33238454Y60000589D01*
X33238585Y60048509D01*
X33238727Y60092234D01*
X33238879Y60131365D01*
X33239039Y60165500D01*
X33239206Y60194240D01*
X33239380Y60217186D01*
X33239558Y60233937D01*
X33239739Y60244094D01*
X33239860Y60246985D01*
X33247523Y60300860D01*
X33260357Y60350401D01*
X33278234Y60395123D01*
X33280331Y60399385D01*
X33307858Y60446987D01*
X33339881Y60488901D01*
X33376419Y60525143D01*
X33417492Y60555726D01*
X33463120Y60580665D01*
X33513322Y60599974D01*
X33568119Y60613668D01*
X33578253Y60615500D01*
X33584596Y60616542D01*
X33591061Y60617476D01*
X33598061Y60618307D01*
X33606006Y60619043D01*
X33615309Y60619688D01*
X33626379Y60620250D01*
X33639628Y60620732D01*
X33655468Y60621142D01*
X33674309Y60621485D01*
X33696564Y60621768D01*
X33722642Y60621995D01*
X33752957Y60622174D01*
X33787918Y60622309D01*
X33827937Y60622407D01*
X33873425Y60622473D01*
X33924794Y60622514D01*
X33982455Y60622535D01*
X34046819Y60622542D01*
X34070815Y60622543D01*
X34522195Y60622543D01*
X34522203Y59852378D01*
X34522204Y59778044D01*
X34522205Y59705587D01*
X34522206Y59635346D01*
X34522207Y59567659D01*
X34522208Y59502864D01*
X34522209Y59441300D01*
X34522210Y59383304D01*
X34522211Y59329214D01*
X34522212Y59279370D01*
X34522213Y59234108D01*
X34522214Y59193767D01*
X34522215Y59158686D01*
X34522216Y59129203D01*
X34522217Y59105655D01*
X34522218Y59088381D01*
X34522219Y59077719D01*
X34522220Y59074050D01*
X34522228Y59065885D01*
X35022971Y59065885D01*
X35022971Y61123473D01*
X34292721Y61122339D01*
G36*
X28208637Y61123286D02*
G01*
X28125134Y61123272D01*
X28047658Y61123245D01*
X27975963Y61123202D01*
X27909804Y61123139D01*
X27848935Y61123053D01*
X27793108Y61122939D01*
X27742080Y61122796D01*
X27695603Y61122618D01*
X27653431Y61122403D01*
X27615320Y61122148D01*
X27581021Y61121847D01*
X27550291Y61121499D01*
X27522883Y61121100D01*
X27498550Y61120645D01*
X27477047Y61120132D01*
X27458128Y61119557D01*
X27441547Y61118917D01*
X27427058Y61118207D01*
X27414415Y61117425D01*
X27403372Y61116567D01*
X27393683Y61115630D01*
X27385102Y61114609D01*
X27377384Y61113502D01*
X27370282Y61112304D01*
X27363549Y61111013D01*
X27356942Y61109625D01*
X27350212Y61108136D01*
X27343115Y61106543D01*
X27336682Y61105120D01*
X27278130Y61089338D01*
X27218618Y61067632D01*
X27159861Y61040819D01*
X27103577Y61009722D01*
X27051483Y60975159D01*
X27029573Y60958461D01*
X26986687Y60919927D01*
X26946816Y60875476D01*
X26910527Y60826018D01*
X26878388Y60772470D01*
X26850967Y60715743D01*
X26828831Y60656752D01*
X26817412Y60617100D01*
X26815054Y60607839D01*
X26812885Y60599232D01*
X26810897Y60590959D01*
X26809083Y60582698D01*
X26807434Y60574128D01*
X26805942Y60564927D01*
X26804601Y60554773D01*
X26803401Y60543345D01*
X26802334Y60530323D01*
X26801394Y60515383D01*
X26800571Y60498205D01*
X26799859Y60478467D01*
X26799248Y60455848D01*
X26798732Y60430026D01*
X26798302Y60400680D01*
X26797950Y60367489D01*
X26797669Y60330130D01*
X26797450Y60288283D01*
X26797286Y60241626D01*
X26797168Y60189837D01*
X26797089Y60132596D01*
X26797041Y60069580D01*
X26797015Y60000468D01*
X26797005Y59924938D01*
X26797002Y59842670D01*
X26797000Y59788830D01*
X26796996Y59717655D01*
X26796993Y59648366D01*
X26796990Y59581317D01*
X26796987Y59516861D01*
X26796985Y59455352D01*
X26796983Y59397144D01*
X26796981Y59342589D01*
X26796980Y59292041D01*
X26796978Y59245855D01*
X26796978Y59204382D01*
X26796977Y59167978D01*
X26796977Y59136995D01*
X26796978Y59111786D01*
X26796979Y59092706D01*
X26796980Y59080108D01*
X26796981Y59074346D01*
X26796982Y59074050D01*
X26797000Y59065885D01*
X27297742Y59065885D01*
X27297806Y59765293D01*
X27297809Y59850792D01*
X27297810Y59929345D01*
X27297817Y60001263D01*
X27297840Y60066856D01*
X27297887Y60126435D01*
X27297967Y60180311D01*
X27298089Y60228795D01*
X27298262Y60272198D01*
X27298496Y60310831D01*
X27298799Y60345003D01*
X27299180Y60375028D01*
X27299648Y60401214D01*
X27300213Y60423873D01*
X27300882Y60443316D01*
X27301666Y60459854D01*
X27302573Y60473797D01*
X27303612Y60485456D01*
X27304792Y60495143D01*
X27306122Y60503167D01*
X27307611Y60509840D01*
X27309268Y60515473D01*
X27311103Y60520377D01*
X27313123Y60524861D01*
X27315339Y60529238D01*
X27317758Y60533818D01*
X27320161Y60538458D01*
X27335514Y60561954D01*
X27355738Y60582701D01*
X27378837Y60598777D01*
X27387121Y60602896D01*
X27395917Y60606692D01*
X27404411Y60609966D01*
X27413193Y60612757D01*
X27422854Y60615102D01*
X27433982Y60617040D01*
X27447168Y60618610D01*
X27463000Y60619850D01*
X27482070Y60620800D01*
X27504966Y60621496D01*
X27532279Y60621979D01*
X27564597Y60622287D01*
X27602511Y60622457D01*
X27646611Y60622530D01*
X27687661Y60622543D01*
X27914600Y60622543D01*
X27914600Y59065885D01*
X28415218Y59065885D01*
X28416187Y59774364D01*
X28417157Y60482843D01*
X28424900Y60505391D01*
X28439343Y60538175D01*
X28458315Y60565370D01*
X28481984Y60587111D01*
X28510514Y60603535D01*
X28544073Y60614775D01*
X28564114Y60618702D01*
X28571787Y60619494D01*
X28584023Y60620176D01*
X28601100Y60620750D01*
X28623295Y60621218D01*
X28650885Y60621584D01*
X28684149Y60621849D01*
X28723364Y60622016D01*
X28768807Y60622087D01*
X28820756Y60622065D01*
X28879488Y60621952D01*
X28925157Y60621819D01*
X29258985Y60620728D01*
X29259864Y59847843D01*
X29259949Y59773431D01*
X29260032Y59700928D01*
X29260112Y59630667D01*
X29260190Y59562985D01*
X29260264Y59498217D01*
X29260335Y59436698D01*
X29260402Y59378765D01*
X29260465Y59324752D01*
X29260523Y59274995D01*
X29260576Y59229829D01*
X29260624Y59189590D01*
X29260665Y59154614D01*
X29260701Y59125235D01*
X29260729Y59101790D01*
X29260751Y59084613D01*
X29260765Y59074041D01*
X29260771Y59070421D01*
X29262158Y59069505D01*
X29266589Y59068712D01*
X29274487Y59068036D01*
X29286274Y59067468D01*
X29302373Y59067000D01*
X29323208Y59066626D01*
X29349201Y59066338D01*
X29380776Y59066127D01*
X29418354Y59065987D01*
X29462360Y59065909D01*
X29511171Y59065885D01*
X29761542Y59065885D01*
X29761542Y61123285D01*
X28607843Y61123285D01*
X28497770Y61123287D01*
X28394709Y61123290D01*
X28298414Y61123291D01*
X28208637Y61123286D01*
G37*
X28208637Y61123286D02*
X28125134Y61123272D01*
X28047658Y61123245D01*
X27975963Y61123202D01*
X27909804Y61123139D01*
X27848935Y61123053D01*
X27793108Y61122939D01*
X27742080Y61122796D01*
X27695603Y61122618D01*
X27653431Y61122403D01*
X27615320Y61122148D01*
X27581021Y61121847D01*
X27550291Y61121499D01*
X27522883Y61121100D01*
X27498550Y61120645D01*
X27477047Y61120132D01*
X27458128Y61119557D01*
X27441547Y61118917D01*
X27427058Y61118207D01*
X27414415Y61117425D01*
X27403372Y61116567D01*
X27393683Y61115630D01*
X27385102Y61114609D01*
X27377384Y61113502D01*
X27370282Y61112304D01*
X27363549Y61111013D01*
X27356942Y61109625D01*
X27350212Y61108136D01*
X27343115Y61106543D01*
X27336682Y61105120D01*
X27278130Y61089338D01*
X27218618Y61067632D01*
X27159861Y61040819D01*
X27103577Y61009722D01*
X27051483Y60975159D01*
X27029573Y60958461D01*
X26986687Y60919927D01*
X26946816Y60875476D01*
X26910527Y60826018D01*
X26878388Y60772470D01*
X26850967Y60715743D01*
X26828831Y60656752D01*
X26817412Y60617100D01*
X26815054Y60607839D01*
X26812885Y60599232D01*
X26810897Y60590959D01*
X26809083Y60582698D01*
X26807434Y60574128D01*
X26805942Y60564927D01*
X26804601Y60554773D01*
X26803401Y60543345D01*
X26802334Y60530323D01*
X26801394Y60515383D01*
X26800571Y60498205D01*
X26799859Y60478467D01*
X26799248Y60455848D01*
X26798732Y60430026D01*
X26798302Y60400680D01*
X26797950Y60367489D01*
X26797669Y60330130D01*
X26797450Y60288283D01*
X26797286Y60241626D01*
X26797168Y60189837D01*
X26797089Y60132596D01*
X26797041Y60069580D01*
X26797015Y60000468D01*
X26797005Y59924938D01*
X26797002Y59842670D01*
X26797000Y59788830D01*
X26796996Y59717655D01*
X26796993Y59648366D01*
X26796990Y59581317D01*
X26796987Y59516861D01*
X26796985Y59455352D01*
X26796983Y59397144D01*
X26796981Y59342589D01*
X26796980Y59292041D01*
X26796978Y59245855D01*
X26796978Y59204382D01*
X26796977Y59167978D01*
X26796977Y59136995D01*
X26796978Y59111786D01*
X26796979Y59092706D01*
X26796980Y59080108D01*
X26796981Y59074346D01*
X26796982Y59074050D01*
X26797000Y59065885D01*
X27297742Y59065885D01*
X27297806Y59765293D01*
X27297809Y59850792D01*
X27297810Y59929345D01*
X27297817Y60001263D01*
X27297840Y60066856D01*
X27297887Y60126435D01*
X27297967Y60180311D01*
X27298089Y60228795D01*
X27298262Y60272198D01*
X27298496Y60310831D01*
X27298799Y60345003D01*
X27299180Y60375028D01*
X27299648Y60401214D01*
X27300213Y60423873D01*
X27300882Y60443316D01*
X27301666Y60459854D01*
X27302573Y60473797D01*
X27303612Y60485456D01*
X27304792Y60495143D01*
X27306122Y60503167D01*
X27307611Y60509840D01*
X27309268Y60515473D01*
X27311103Y60520377D01*
X27313123Y60524861D01*
X27315339Y60529238D01*
X27317758Y60533818D01*
X27320161Y60538458D01*
X27335514Y60561954D01*
X27355738Y60582701D01*
X27378837Y60598777D01*
X27387121Y60602896D01*
X27395917Y60606692D01*
X27404411Y60609966D01*
X27413193Y60612757D01*
X27422854Y60615102D01*
X27433982Y60617040D01*
X27447168Y60618610D01*
X27463000Y60619850D01*
X27482070Y60620800D01*
X27504966Y60621496D01*
X27532279Y60621979D01*
X27564597Y60622287D01*
X27602511Y60622457D01*
X27646611Y60622530D01*
X27687661Y60622543D01*
X27914600Y60622543D01*
X27914600Y59065885D01*
X28415218Y59065885D01*
X28416187Y59774364D01*
X28417157Y60482843D01*
X28424900Y60505391D01*
X28439343Y60538175D01*
X28458315Y60565370D01*
X28481984Y60587111D01*
X28510514Y60603535D01*
X28544073Y60614775D01*
X28564114Y60618702D01*
X28571787Y60619494D01*
X28584023Y60620176D01*
X28601100Y60620750D01*
X28623295Y60621218D01*
X28650885Y60621584D01*
X28684149Y60621849D01*
X28723364Y60622016D01*
X28768807Y60622087D01*
X28820756Y60622065D01*
X28879488Y60621952D01*
X28925157Y60621819D01*
X29258985Y60620728D01*
X29259864Y59847843D01*
X29259949Y59773431D01*
X29260032Y59700928D01*
X29260112Y59630667D01*
X29260190Y59562985D01*
X29260264Y59498217D01*
X29260335Y59436698D01*
X29260402Y59378765D01*
X29260465Y59324752D01*
X29260523Y59274995D01*
X29260576Y59229829D01*
X29260624Y59189590D01*
X29260665Y59154614D01*
X29260701Y59125235D01*
X29260729Y59101790D01*
X29260751Y59084613D01*
X29260765Y59074041D01*
X29260771Y59070421D01*
X29262158Y59069505D01*
X29266589Y59068712D01*
X29274487Y59068036D01*
X29286274Y59067468D01*
X29302373Y59067000D01*
X29323208Y59066626D01*
X29349201Y59066338D01*
X29380776Y59066127D01*
X29418354Y59065987D01*
X29462360Y59065909D01*
X29511171Y59065885D01*
X29761542Y59065885D01*
X29761542Y61123285D01*
X28607843Y61123285D01*
X28497770Y61123287D01*
X28394709Y61123290D01*
X28298414Y61123291D01*
X28208637Y61123286D01*
G36*
X25842685Y59065885D02*
G01*
X26328914Y59065885D01*
X26328914Y61123285D01*
X25842685Y61123285D01*
X25842685Y59065885D01*
G37*
X25842685Y59065885D02*
X26328914Y59065885D01*
X26328914Y61123285D01*
X25842685Y61123285D01*
X25842685Y59065885D01*
G36*
X23364371Y60622668D02*
G01*
X24065592Y60621698D01*
X24149518Y60621580D01*
X24226496Y60621466D01*
X24296837Y60621352D01*
X24360849Y60621234D01*
X24418843Y60621111D01*
X24471128Y60620978D01*
X24518014Y60620832D01*
X24559811Y60620670D01*
X24596828Y60620488D01*
X24629375Y60620283D01*
X24657762Y60620052D01*
X24682298Y60619792D01*
X24703292Y60619498D01*
X24721056Y60619169D01*
X24735898Y60618800D01*
X24748128Y60618388D01*
X24758056Y60617931D01*
X24765991Y60617424D01*
X24772243Y60616864D01*
X24777121Y60616248D01*
X24780937Y60615572D01*
X24783998Y60614835D01*
X24786615Y60614031D01*
X24786771Y60613978D01*
X24810109Y60605015D01*
X24828847Y60595057D01*
X24845621Y60582592D01*
X24852906Y60576067D01*
X24868063Y60560166D01*
X24879576Y60543547D01*
X24888732Y60523984D01*
X24896320Y60500985D01*
X24904700Y60471957D01*
X24904700Y60090957D01*
X24904694Y60029783D01*
X24904671Y59975432D01*
X24904624Y59927471D01*
X24904547Y59885467D01*
X24904432Y59848986D01*
X24904272Y59817594D01*
X24904061Y59790858D01*
X24903791Y59768345D01*
X24903456Y59749621D01*
X24903048Y59734252D01*
X24902561Y59721804D01*
X24901987Y59711846D01*
X24901320Y59703941D01*
X24900552Y59697659D01*
X24899677Y59692563D01*
X24898688Y59688222D01*
X24898196Y59686371D01*
X24888717Y59657518D01*
X24877374Y59634073D01*
X24863206Y59614240D01*
X24854674Y59605029D01*
X24833304Y59586825D01*
X24809309Y59572902D01*
X24780829Y59562256D01*
X24769514Y59559134D01*
X24766042Y59558287D01*
X24762323Y59557511D01*
X24758041Y59556803D01*
X24752879Y59556159D01*
X24746522Y59555577D01*
X24738652Y59555054D01*
X24728954Y59554587D01*
X24717111Y59554171D01*
X24702806Y59553805D01*
X24685723Y59553485D01*
X24665545Y59553208D01*
X24641957Y59552971D01*
X24614641Y59552771D01*
X24583282Y59552605D01*
X24547562Y59552469D01*
X24507166Y59552361D01*
X24461778Y59552277D01*
X24411079Y59552215D01*
X24354755Y59552171D01*
X24292489Y59552141D01*
X24223964Y59552124D01*
X24148863Y59552116D01*
X24066872Y59552114D01*
X24053485Y59552114D01*
X23970242Y59552111D01*
X23893953Y59552100D01*
X23824318Y59552079D01*
X23761034Y59552045D01*
X23703800Y59551995D01*
X23652313Y59551926D01*
X23606271Y59551837D01*
X23565373Y59551723D01*
X23529316Y59551583D01*
X23497798Y59551415D01*
X23470518Y59551214D01*
X23447174Y59550979D01*
X23427464Y59550707D01*
X23411085Y59550396D01*
X23397736Y59550042D01*
X23387114Y59549643D01*
X23378919Y59549196D01*
X23372847Y59548699D01*
X23368597Y59548149D01*
X23365867Y59547543D01*
X23364355Y59546879D01*
X23363760Y59546154D01*
X23363730Y59546037D01*
X23363542Y59541441D01*
X23363392Y59530210D01*
X23363281Y59512966D01*
X23363209Y59490329D01*
X23363177Y59462923D01*
X23363185Y59431368D01*
X23363234Y59396287D01*
X23363325Y59358302D01*
X23363457Y59318033D01*
X23363516Y59302923D01*
X23364474Y59065885D01*
X24067458Y59066360D01*
X24140006Y59066426D01*
X24210649Y59066523D01*
X24279030Y59066649D01*
X24344790Y59066802D01*
X24407574Y59066981D01*
X24467024Y59067184D01*
X24522781Y59067409D01*
X24574490Y59067654D01*
X24621793Y59067917D01*
X24664333Y59068197D01*
X24701752Y59068491D01*
X24733693Y59068799D01*
X24759798Y59069117D01*
X24779711Y59069444D01*
X24793075Y59069778D01*
X24799471Y59070111D01*
X24861850Y59079852D01*
X24923723Y59094721D01*
X24983748Y59114249D01*
X25040578Y59137967D01*
X25092870Y59165406D01*
X25118785Y59181629D01*
X25169935Y59219891D01*
X25217315Y59263610D01*
X25260398Y59312022D01*
X25298659Y59364361D01*
X25331573Y59419862D01*
X25358614Y59477761D01*
X25379256Y59537291D01*
X25388511Y59574219D01*
X25391062Y59586264D01*
X25393343Y59597527D01*
X25395369Y59608465D01*
X25397155Y59619533D01*
X25398717Y59631188D01*
X25400069Y59643884D01*
X25401226Y59658079D01*
X25402205Y59674227D01*
X25403018Y59692785D01*
X25403683Y59714209D01*
X25404214Y59738954D01*
X25404625Y59767477D01*
X25404933Y59800232D01*
X25405152Y59837677D01*
X25405297Y59880267D01*
X25405383Y59928457D01*
X25405427Y59982705D01*
X25405441Y60043465D01*
X25405442Y60085514D01*
X25405436Y60148931D01*
X25405411Y60205528D01*
X25405361Y60255741D01*
X25405281Y60300007D01*
X25405163Y60338761D01*
X25405003Y60372442D01*
X25404792Y60401485D01*
X25404525Y60426326D01*
X25404195Y60447404D01*
X25403797Y60465153D01*
X25403323Y60480011D01*
X25402768Y60492414D01*
X25402124Y60502799D01*
X25401386Y60511603D01*
X25400548Y60519261D01*
X25399602Y60526211D01*
X25398966Y60530313D01*
X25384390Y60601154D01*
X25364065Y60669169D01*
X25338260Y60733884D01*
X25307245Y60794827D01*
X25271292Y60851525D01*
X25230670Y60903503D01*
X25185648Y60950289D01*
X25136498Y60991410D01*
X25135226Y60992356D01*
X25082111Y61027405D01*
X25023929Y61057674D01*
X24961287Y61082908D01*
X24894792Y61102850D01*
X24848457Y61113111D01*
X24806728Y61121096D01*
X24085550Y61122277D01*
X23364371Y61123458D01*
X23364371Y60622668D01*
G37*
X23364371Y60622668D02*
X24065592Y60621698D01*
X24149518Y60621580D01*
X24226496Y60621466D01*
X24296837Y60621352D01*
X24360849Y60621234D01*
X24418843Y60621111D01*
X24471128Y60620978D01*
X24518014Y60620832D01*
X24559811Y60620670D01*
X24596828Y60620488D01*
X24629375Y60620283D01*
X24657762Y60620052D01*
X24682298Y60619792D01*
X24703292Y60619498D01*
X24721056Y60619169D01*
X24735898Y60618800D01*
X24748128Y60618388D01*
X24758056Y60617931D01*
X24765991Y60617424D01*
X24772243Y60616864D01*
X24777121Y60616248D01*
X24780937Y60615572D01*
X24783998Y60614835D01*
X24786615Y60614031D01*
X24786771Y60613978D01*
X24810109Y60605015D01*
X24828847Y60595057D01*
X24845621Y60582592D01*
X24852906Y60576067D01*
X24868063Y60560166D01*
X24879576Y60543547D01*
X24888732Y60523984D01*
X24896320Y60500985D01*
X24904700Y60471957D01*
X24904700Y60090957D01*
X24904694Y60029783D01*
X24904671Y59975432D01*
X24904624Y59927471D01*
X24904547Y59885467D01*
X24904432Y59848986D01*
X24904272Y59817594D01*
X24904061Y59790858D01*
X24903791Y59768345D01*
X24903456Y59749621D01*
X24903048Y59734252D01*
X24902561Y59721804D01*
X24901987Y59711846D01*
X24901320Y59703941D01*
X24900552Y59697659D01*
X24899677Y59692563D01*
X24898688Y59688222D01*
X24898196Y59686371D01*
X24888717Y59657518D01*
X24877374Y59634073D01*
X24863206Y59614240D01*
X24854674Y59605029D01*
X24833304Y59586825D01*
X24809309Y59572902D01*
X24780829Y59562256D01*
X24769514Y59559134D01*
X24766042Y59558287D01*
X24762323Y59557511D01*
X24758041Y59556803D01*
X24752879Y59556159D01*
X24746522Y59555577D01*
X24738652Y59555054D01*
X24728954Y59554587D01*
X24717111Y59554171D01*
X24702806Y59553805D01*
X24685723Y59553485D01*
X24665545Y59553208D01*
X24641957Y59552971D01*
X24614641Y59552771D01*
X24583282Y59552605D01*
X24547562Y59552469D01*
X24507166Y59552361D01*
X24461778Y59552277D01*
X24411079Y59552215D01*
X24354755Y59552171D01*
X24292489Y59552141D01*
X24223964Y59552124D01*
X24148863Y59552116D01*
X24066872Y59552114D01*
X24053485Y59552114D01*
X23970242Y59552111D01*
X23893953Y59552100D01*
X23824318Y59552079D01*
X23761034Y59552045D01*
X23703800Y59551995D01*
X23652313Y59551926D01*
X23606271Y59551837D01*
X23565373Y59551723D01*
X23529316Y59551583D01*
X23497798Y59551415D01*
X23470518Y59551214D01*
X23447174Y59550979D01*
X23427464Y59550707D01*
X23411085Y59550396D01*
X23397736Y59550042D01*
X23387114Y59549643D01*
X23378919Y59549196D01*
X23372847Y59548699D01*
X23368597Y59548149D01*
X23365867Y59547543D01*
X23364355Y59546879D01*
X23363760Y59546154D01*
X23363730Y59546037D01*
X23363542Y59541441D01*
X23363392Y59530210D01*
X23363281Y59512966D01*
X23363209Y59490329D01*
X23363177Y59462923D01*
X23363185Y59431368D01*
X23363234Y59396287D01*
X23363325Y59358302D01*
X23363457Y59318033D01*
X23363516Y59302923D01*
X23364474Y59065885D01*
X24067458Y59066360D01*
X24140006Y59066426D01*
X24210649Y59066523D01*
X24279030Y59066649D01*
X24344790Y59066802D01*
X24407574Y59066981D01*
X24467024Y59067184D01*
X24522781Y59067409D01*
X24574490Y59067654D01*
X24621793Y59067917D01*
X24664333Y59068197D01*
X24701752Y59068491D01*
X24733693Y59068799D01*
X24759798Y59069117D01*
X24779711Y59069444D01*
X24793075Y59069778D01*
X24799471Y59070111D01*
X24861850Y59079852D01*
X24923723Y59094721D01*
X24983748Y59114249D01*
X25040578Y59137967D01*
X25092870Y59165406D01*
X25118785Y59181629D01*
X25169935Y59219891D01*
X25217315Y59263610D01*
X25260398Y59312022D01*
X25298659Y59364361D01*
X25331573Y59419862D01*
X25358614Y59477761D01*
X25379256Y59537291D01*
X25388511Y59574219D01*
X25391062Y59586264D01*
X25393343Y59597527D01*
X25395369Y59608465D01*
X25397155Y59619533D01*
X25398717Y59631188D01*
X25400069Y59643884D01*
X25401226Y59658079D01*
X25402205Y59674227D01*
X25403018Y59692785D01*
X25403683Y59714209D01*
X25404214Y59738954D01*
X25404625Y59767477D01*
X25404933Y59800232D01*
X25405152Y59837677D01*
X25405297Y59880267D01*
X25405383Y59928457D01*
X25405427Y59982705D01*
X25405441Y60043465D01*
X25405442Y60085514D01*
X25405436Y60148931D01*
X25405411Y60205528D01*
X25405361Y60255741D01*
X25405281Y60300007D01*
X25405163Y60338761D01*
X25405003Y60372442D01*
X25404792Y60401485D01*
X25404525Y60426326D01*
X25404195Y60447404D01*
X25403797Y60465153D01*
X25403323Y60480011D01*
X25402768Y60492414D01*
X25402124Y60502799D01*
X25401386Y60511603D01*
X25400548Y60519261D01*
X25399602Y60526211D01*
X25398966Y60530313D01*
X25384390Y60601154D01*
X25364065Y60669169D01*
X25338260Y60733884D01*
X25307245Y60794827D01*
X25271292Y60851525D01*
X25230670Y60903503D01*
X25185648Y60950289D01*
X25136498Y60991410D01*
X25135226Y60992356D01*
X25082111Y61027405D01*
X25023929Y61057674D01*
X24961287Y61082908D01*
X24894792Y61102850D01*
X24848457Y61113111D01*
X24806728Y61121096D01*
X24085550Y61122277D01*
X23364371Y61123458D01*
X23364371Y60622668D01*
G36*
X21383171Y61123285D02*
G01*
X21383171Y60622543D01*
X21905362Y60622543D01*
X21977273Y60622540D01*
X22042291Y60622530D01*
X22100781Y60622508D01*
X22153109Y60622468D01*
X22199637Y60622407D01*
X22240732Y60622318D01*
X22276758Y60622199D01*
X22308079Y60622043D01*
X22335061Y60621847D01*
X22358067Y60621605D01*
X22377463Y60621313D01*
X22393613Y60620966D01*
X22406882Y60620559D01*
X22417634Y60620087D01*
X22426235Y60619547D01*
X22433048Y60618932D01*
X22438439Y60618239D01*
X22442772Y60617463D01*
X22446412Y60616599D01*
X22449723Y60615642D01*
X22450238Y60615482D01*
X22479236Y60602949D01*
X22504032Y60585197D01*
X22524140Y60563114D01*
X22539074Y60537587D01*
X22548350Y60509504D01*
X22551480Y60479752D01*
X22547979Y60449219D01*
X22545808Y60440866D01*
X22534238Y60413054D01*
X22517104Y60387965D01*
X22495613Y60367082D01*
X22475150Y60353916D01*
X22470228Y60351417D01*
X22465497Y60349164D01*
X22460578Y60347143D01*
X22455089Y60345340D01*
X22448652Y60343745D01*
X22440885Y60342343D01*
X22431408Y60341122D01*
X22419841Y60340070D01*
X22405804Y60339174D01*
X22388917Y60338421D01*
X22368798Y60337798D01*
X22345068Y60337292D01*
X22317347Y60336892D01*
X22285255Y60336583D01*
X22248410Y60336355D01*
X22206434Y60336193D01*
X22158944Y60336085D01*
X22105563Y60336019D01*
X22045908Y60335981D01*
X21979600Y60335960D01*
X21937344Y60335949D01*
X21871499Y60335907D01*
X21808963Y60335813D01*
X21750079Y60335671D01*
X21695190Y60335483D01*
X21644640Y60335251D01*
X21598771Y60334978D01*
X21557927Y60334667D01*
X21522450Y60334320D01*
X21492685Y60333939D01*
X21468973Y60333526D01*
X21451659Y60333085D01*
X21441086Y60332618D01*
X21438415Y60332372D01*
X21371067Y60319254D01*
X21306416Y60299485D01*
X21244799Y60273257D01*
X21186551Y60240760D01*
X21132008Y60202188D01*
X21081505Y60157731D01*
X21035378Y60107580D01*
X21027327Y60097664D01*
X20989082Y60043987D01*
X20956041Y59985916D01*
X20928713Y59924590D01*
X20907604Y59861146D01*
X20893277Y59797043D01*
X20890572Y59780144D01*
X20888608Y59765176D01*
X20887310Y59750560D01*
X20886600Y59734713D01*
X20886401Y59716056D01*
X20886636Y59693008D01*
X20887091Y59670043D01*
X20887924Y59639700D01*
X20888999Y59615256D01*
X20890427Y59595354D01*
X20892317Y59578637D01*
X20894779Y59563748D01*
X20896334Y59556227D01*
X20914213Y59491195D01*
X20938341Y59429560D01*
X20968401Y59371627D01*
X21004078Y59317701D01*
X21045054Y59268088D01*
X21091013Y59223092D01*
X21141638Y59183020D01*
X21196614Y59148175D01*
X21255623Y59118863D01*
X21318350Y59095389D01*
X21384477Y59078059D01*
X21394337Y59076073D01*
X21435785Y59068036D01*
X22272171Y59066893D01*
X23108557Y59065751D01*
X23107676Y59304397D01*
X23107524Y59345430D01*
X23107380Y59384367D01*
X23107246Y59420593D01*
X23107124Y59453494D01*
X23107016Y59482457D01*
X23106924Y59506867D01*
X23106852Y59526110D01*
X23106801Y59539571D01*
X23106773Y59546637D01*
X23106769Y59547538D01*
X23105428Y59548067D01*
X23101251Y59548560D01*
X23093999Y59549017D01*
X23083432Y59549442D01*
X23069312Y59549834D01*
X23051399Y59550197D01*
X23029452Y59550531D01*
X23003234Y59550838D01*
X22972504Y59551120D01*
X22937024Y59551379D01*
X22896553Y59551616D01*
X22850852Y59551833D01*
X22799682Y59552031D01*
X22742804Y59552212D01*
X22679978Y59552379D01*
X22610964Y59552532D01*
X22535524Y59552673D01*
X22453417Y59552804D01*
X22364405Y59552926D01*
X22320250Y59552981D01*
X21533757Y59553928D01*
X21508357Y59566335D01*
X21479901Y59584072D01*
X21456421Y59606657D01*
X21438383Y59633268D01*
X21426255Y59663085D01*
X21420504Y59695285D01*
X21420656Y59720487D01*
X21426644Y59750330D01*
X21438957Y59777689D01*
X21456880Y59801831D01*
X21479695Y59822022D01*
X21506684Y59837525D01*
X21537130Y59847607D01*
X21546527Y59849416D01*
X21554297Y59850059D01*
X21569300Y59850644D01*
X21591512Y59851171D01*
X21620907Y59851639D01*
X21657462Y59852048D01*
X21701152Y59852398D01*
X21751953Y59852689D01*
X21809841Y59852920D01*
X21874791Y59853092D01*
X21946780Y59853203D01*
X22025782Y59853255D01*
X22049014Y59853259D01*
X22117889Y59853266D01*
X22179906Y59853284D01*
X22235463Y59853317D01*
X22284961Y59853371D01*
X22328799Y59853452D01*
X22367375Y59853565D01*
X22401088Y59853715D01*
X22430338Y59853908D01*
X22455524Y59854149D01*
X22477045Y59854444D01*
X22495299Y59854798D01*
X22510687Y59855217D01*
X22523607Y59855705D01*
X22534458Y59856270D01*
X22543640Y59856915D01*
X22551552Y59857647D01*
X22558592Y59858471D01*
X22565160Y59859392D01*
X22571528Y59860395D01*
X22637793Y59874740D01*
X22701436Y59895549D01*
X22762027Y59922510D01*
X22819140Y59955306D01*
X22872346Y59993625D01*
X22921216Y60037150D01*
X22965324Y60085569D01*
X23004241Y60138566D01*
X23037538Y60195828D01*
X23042931Y60206623D01*
X23068782Y60266254D01*
X23088108Y60326147D01*
X23101467Y60388145D01*
X23104936Y60411437D01*
X23106662Y60431254D01*
X23107483Y60456238D01*
X23107442Y60484361D01*
X23106583Y60513598D01*
X23104952Y60541919D01*
X23102593Y60567299D01*
X23101310Y60577185D01*
X23088278Y60642528D01*
X23068661Y60705366D01*
X23042816Y60765318D01*
X23011097Y60822004D01*
X22973859Y60875043D01*
X22931459Y60924052D01*
X22884250Y60968652D01*
X22832590Y61008461D01*
X22776832Y61043098D01*
X22717332Y61072182D01*
X22654446Y61095332D01*
X22606000Y61108405D01*
X22597433Y61110329D01*
X22589043Y61112080D01*
X22580465Y61113666D01*
X22571337Y61115095D01*
X22561294Y61116376D01*
X22549974Y61117515D01*
X22537013Y61118522D01*
X22522047Y61119405D01*
X22504713Y61120172D01*
X22484648Y61120830D01*
X22461488Y61121389D01*
X22434870Y61121856D01*
X22404430Y61122240D01*
X22369804Y61122548D01*
X22330630Y61122790D01*
X22286544Y61122972D01*
X22237182Y61123103D01*
X22182180Y61123192D01*
X22121177Y61123247D01*
X22053807Y61123275D01*
X21979708Y61123285D01*
X21943928Y61123286D01*
X21383171Y61123285D01*
G37*
X21383171Y61123285D02*
X21383171Y60622543D01*
X21905362Y60622543D01*
X21977273Y60622540D01*
X22042291Y60622530D01*
X22100781Y60622508D01*
X22153109Y60622468D01*
X22199637Y60622407D01*
X22240732Y60622318D01*
X22276758Y60622199D01*
X22308079Y60622043D01*
X22335061Y60621847D01*
X22358067Y60621605D01*
X22377463Y60621313D01*
X22393613Y60620966D01*
X22406882Y60620559D01*
X22417634Y60620087D01*
X22426235Y60619547D01*
X22433048Y60618932D01*
X22438439Y60618239D01*
X22442772Y60617463D01*
X22446412Y60616599D01*
X22449723Y60615642D01*
X22450238Y60615482D01*
X22479236Y60602949D01*
X22504032Y60585197D01*
X22524140Y60563114D01*
X22539074Y60537587D01*
X22548350Y60509504D01*
X22551480Y60479752D01*
X22547979Y60449219D01*
X22545808Y60440866D01*
X22534238Y60413054D01*
X22517104Y60387965D01*
X22495613Y60367082D01*
X22475150Y60353916D01*
X22470228Y60351417D01*
X22465497Y60349164D01*
X22460578Y60347143D01*
X22455089Y60345340D01*
X22448652Y60343745D01*
X22440885Y60342343D01*
X22431408Y60341122D01*
X22419841Y60340070D01*
X22405804Y60339174D01*
X22388917Y60338421D01*
X22368798Y60337798D01*
X22345068Y60337292D01*
X22317347Y60336892D01*
X22285255Y60336583D01*
X22248410Y60336355D01*
X22206434Y60336193D01*
X22158944Y60336085D01*
X22105563Y60336019D01*
X22045908Y60335981D01*
X21979600Y60335960D01*
X21937344Y60335949D01*
X21871499Y60335907D01*
X21808963Y60335813D01*
X21750079Y60335671D01*
X21695190Y60335483D01*
X21644640Y60335251D01*
X21598771Y60334978D01*
X21557927Y60334667D01*
X21522450Y60334320D01*
X21492685Y60333939D01*
X21468973Y60333526D01*
X21451659Y60333085D01*
X21441086Y60332618D01*
X21438415Y60332372D01*
X21371067Y60319254D01*
X21306416Y60299485D01*
X21244799Y60273257D01*
X21186551Y60240760D01*
X21132008Y60202188D01*
X21081505Y60157731D01*
X21035378Y60107580D01*
X21027327Y60097664D01*
X20989082Y60043987D01*
X20956041Y59985916D01*
X20928713Y59924590D01*
X20907604Y59861146D01*
X20893277Y59797043D01*
X20890572Y59780144D01*
X20888608Y59765176D01*
X20887310Y59750560D01*
X20886600Y59734713D01*
X20886401Y59716056D01*
X20886636Y59693008D01*
X20887091Y59670043D01*
X20887924Y59639700D01*
X20888999Y59615256D01*
X20890427Y59595354D01*
X20892317Y59578637D01*
X20894779Y59563748D01*
X20896334Y59556227D01*
X20914213Y59491195D01*
X20938341Y59429560D01*
X20968401Y59371627D01*
X21004078Y59317701D01*
X21045054Y59268088D01*
X21091013Y59223092D01*
X21141638Y59183020D01*
X21196614Y59148175D01*
X21255623Y59118863D01*
X21318350Y59095389D01*
X21384477Y59078059D01*
X21394337Y59076073D01*
X21435785Y59068036D01*
X22272171Y59066893D01*
X23108557Y59065751D01*
X23107676Y59304397D01*
X23107524Y59345430D01*
X23107380Y59384367D01*
X23107246Y59420593D01*
X23107124Y59453494D01*
X23107016Y59482457D01*
X23106924Y59506867D01*
X23106852Y59526110D01*
X23106801Y59539571D01*
X23106773Y59546637D01*
X23106769Y59547538D01*
X23105428Y59548067D01*
X23101251Y59548560D01*
X23093999Y59549017D01*
X23083432Y59549442D01*
X23069312Y59549834D01*
X23051399Y59550197D01*
X23029452Y59550531D01*
X23003234Y59550838D01*
X22972504Y59551120D01*
X22937024Y59551379D01*
X22896553Y59551616D01*
X22850852Y59551833D01*
X22799682Y59552031D01*
X22742804Y59552212D01*
X22679978Y59552379D01*
X22610964Y59552532D01*
X22535524Y59552673D01*
X22453417Y59552804D01*
X22364405Y59552926D01*
X22320250Y59552981D01*
X21533757Y59553928D01*
X21508357Y59566335D01*
X21479901Y59584072D01*
X21456421Y59606657D01*
X21438383Y59633268D01*
X21426255Y59663085D01*
X21420504Y59695285D01*
X21420656Y59720487D01*
X21426644Y59750330D01*
X21438957Y59777689D01*
X21456880Y59801831D01*
X21479695Y59822022D01*
X21506684Y59837525D01*
X21537130Y59847607D01*
X21546527Y59849416D01*
X21554297Y59850059D01*
X21569300Y59850644D01*
X21591512Y59851171D01*
X21620907Y59851639D01*
X21657462Y59852048D01*
X21701152Y59852398D01*
X21751953Y59852689D01*
X21809841Y59852920D01*
X21874791Y59853092D01*
X21946780Y59853203D01*
X22025782Y59853255D01*
X22049014Y59853259D01*
X22117889Y59853266D01*
X22179906Y59853284D01*
X22235463Y59853317D01*
X22284961Y59853371D01*
X22328799Y59853452D01*
X22367375Y59853565D01*
X22401088Y59853715D01*
X22430338Y59853908D01*
X22455524Y59854149D01*
X22477045Y59854444D01*
X22495299Y59854798D01*
X22510687Y59855217D01*
X22523607Y59855705D01*
X22534458Y59856270D01*
X22543640Y59856915D01*
X22551552Y59857647D01*
X22558592Y59858471D01*
X22565160Y59859392D01*
X22571528Y59860395D01*
X22637793Y59874740D01*
X22701436Y59895549D01*
X22762027Y59922510D01*
X22819140Y59955306D01*
X22872346Y59993625D01*
X22921216Y60037150D01*
X22965324Y60085569D01*
X23004241Y60138566D01*
X23037538Y60195828D01*
X23042931Y60206623D01*
X23068782Y60266254D01*
X23088108Y60326147D01*
X23101467Y60388145D01*
X23104936Y60411437D01*
X23106662Y60431254D01*
X23107483Y60456238D01*
X23107442Y60484361D01*
X23106583Y60513598D01*
X23104952Y60541919D01*
X23102593Y60567299D01*
X23101310Y60577185D01*
X23088278Y60642528D01*
X23068661Y60705366D01*
X23042816Y60765318D01*
X23011097Y60822004D01*
X22973859Y60875043D01*
X22931459Y60924052D01*
X22884250Y60968652D01*
X22832590Y61008461D01*
X22776832Y61043098D01*
X22717332Y61072182D01*
X22654446Y61095332D01*
X22606000Y61108405D01*
X22597433Y61110329D01*
X22589043Y61112080D01*
X22580465Y61113666D01*
X22571337Y61115095D01*
X22561294Y61116376D01*
X22549974Y61117515D01*
X22537013Y61118522D01*
X22522047Y61119405D01*
X22504713Y61120172D01*
X22484648Y61120830D01*
X22461488Y61121389D01*
X22434870Y61121856D01*
X22404430Y61122240D01*
X22369804Y61122548D01*
X22330630Y61122790D01*
X22286544Y61122972D01*
X22237182Y61123103D01*
X22182180Y61123192D01*
X22121177Y61123247D01*
X22053807Y61123275D01*
X21979708Y61123285D01*
X21943928Y61123286D01*
X21383171Y61123285D01*
G36*
X25907310Y61778989D02*
G01*
X25887977Y61766694D01*
X25869937Y61750168D01*
X25855087Y61731447D01*
X25845326Y61712569D01*
X25845263Y61712393D01*
X25843663Y61707359D01*
X25842350Y61701592D01*
X25841296Y61694370D01*
X25840476Y61684971D01*
X25839862Y61672676D01*
X25839429Y61656762D01*
X25839150Y61636510D01*
X25838999Y61611197D01*
X25838950Y61580102D01*
X25838975Y61542506D01*
X25838978Y61540586D01*
X25839186Y61386976D01*
X25848663Y61365859D01*
X25861391Y61344797D01*
X25879183Y61325279D01*
X25899872Y61309478D01*
X25910840Y61303550D01*
X25915244Y61301615D01*
X25919769Y61300019D01*
X25925136Y61298727D01*
X25932068Y61297700D01*
X25941286Y61296904D01*
X25953511Y61296299D01*
X25969467Y61295851D01*
X25989874Y61295522D01*
X26015455Y61295275D01*
X26046931Y61295073D01*
X26080357Y61294902D01*
X26120790Y61294764D01*
X26154528Y61294783D01*
X26182131Y61294975D01*
X26204160Y61295351D01*
X26221175Y61295925D01*
X26233737Y61296709D01*
X26242406Y61297718D01*
X26247271Y61298805D01*
X26274214Y61311125D01*
X26297303Y61329285D01*
X26315639Y61352494D01*
X26322201Y61364585D01*
X26332537Y61386357D01*
X26332537Y61698414D01*
X26322201Y61720185D01*
X26308025Y61742706D01*
X26288805Y61762760D01*
X26266671Y61778233D01*
X26260609Y61781287D01*
X26256329Y61783174D01*
X26251945Y61784732D01*
X26246750Y61785991D01*
X26240040Y61786983D01*
X26231109Y61787741D01*
X26219250Y61788296D01*
X26203757Y61788679D01*
X26183927Y61788922D01*
X26159051Y61789057D01*
X26128425Y61789115D01*
X26091343Y61789128D01*
X25927957Y61789128D01*
X25907310Y61778989D01*
G37*
X25907310Y61778989D02*
X25887977Y61766694D01*
X25869937Y61750168D01*
X25855087Y61731447D01*
X25845326Y61712569D01*
X25845263Y61712393D01*
X25843663Y61707359D01*
X25842350Y61701592D01*
X25841296Y61694370D01*
X25840476Y61684971D01*
X25839862Y61672676D01*
X25839429Y61656762D01*
X25839150Y61636510D01*
X25838999Y61611197D01*
X25838950Y61580102D01*
X25838975Y61542506D01*
X25838978Y61540586D01*
X25839186Y61386976D01*
X25848663Y61365859D01*
X25861391Y61344797D01*
X25879183Y61325279D01*
X25899872Y61309478D01*
X25910840Y61303550D01*
X25915244Y61301615D01*
X25919769Y61300019D01*
X25925136Y61298727D01*
X25932068Y61297700D01*
X25941286Y61296904D01*
X25953511Y61296299D01*
X25969467Y61295851D01*
X25989874Y61295522D01*
X26015455Y61295275D01*
X26046931Y61295073D01*
X26080357Y61294902D01*
X26120790Y61294764D01*
X26154528Y61294783D01*
X26182131Y61294975D01*
X26204160Y61295351D01*
X26221175Y61295925D01*
X26233737Y61296709D01*
X26242406Y61297718D01*
X26247271Y61298805D01*
X26274214Y61311125D01*
X26297303Y61329285D01*
X26315639Y61352494D01*
X26322201Y61364585D01*
X26332537Y61386357D01*
X26332537Y61698414D01*
X26322201Y61720185D01*
X26308025Y61742706D01*
X26288805Y61762760D01*
X26266671Y61778233D01*
X26260609Y61781287D01*
X26256329Y61783174D01*
X26251945Y61784732D01*
X26246750Y61785991D01*
X26240040Y61786983D01*
X26231109Y61787741D01*
X26219250Y61788296D01*
X26203757Y61788679D01*
X26183927Y61788922D01*
X26159051Y61789057D01*
X26128425Y61789115D01*
X26091343Y61789128D01*
X25927957Y61789128D01*
X25907310Y61778989D01*
G36*
X43960033Y61004203D02*
G01*
X43922137Y60993586D01*
X43885983Y60977868D01*
X43852190Y60957225D01*
X43821380Y60931831D01*
X43794171Y60901863D01*
X43771185Y60867495D01*
X43753040Y60828904D01*
X43740359Y60786263D01*
X43740013Y60784660D01*
X43737179Y60764104D01*
X43736056Y60739063D01*
X43736563Y60712086D01*
X43738617Y60685721D01*
X43742134Y60662516D01*
X43744280Y60653385D01*
X43758642Y60613623D01*
X43778776Y60576904D01*
X43803963Y60543728D01*
X43833487Y60514595D01*
X43866631Y60490004D01*
X43902677Y60470457D01*
X43940909Y60456451D01*
X43980610Y60448488D01*
X44021063Y60447066D01*
X44038157Y60448547D01*
X44071702Y60454316D01*
X44104841Y60462989D01*
X44135748Y60473942D01*
X44162596Y60486552D01*
X44178730Y60496550D01*
X44211604Y60524031D01*
X44240125Y60556054D01*
X44263651Y60591568D01*
X44281543Y60629523D01*
X44293159Y60668867D01*
X44296548Y60689882D01*
X44298528Y60736853D01*
X44293633Y60781804D01*
X44281954Y60824452D01*
X44263582Y60864515D01*
X44238608Y60901710D01*
X44221978Y60920963D01*
X44189255Y60950963D01*
X44153932Y60974635D01*
X44116630Y60992153D01*
X44077969Y61003694D01*
X44038569Y61009432D01*
X43999050Y61009543D01*
X43960033Y61004203D01*
G37*
X43960033Y61004203D02*
X43922137Y60993586D01*
X43885983Y60977868D01*
X43852190Y60957225D01*
X43821380Y60931831D01*
X43794171Y60901863D01*
X43771185Y60867495D01*
X43753040Y60828904D01*
X43740359Y60786263D01*
X43740013Y60784660D01*
X43737179Y60764104D01*
X43736056Y60739063D01*
X43736563Y60712086D01*
X43738617Y60685721D01*
X43742134Y60662516D01*
X43744280Y60653385D01*
X43758642Y60613623D01*
X43778776Y60576904D01*
X43803963Y60543728D01*
X43833487Y60514595D01*
X43866631Y60490004D01*
X43902677Y60470457D01*
X43940909Y60456451D01*
X43980610Y60448488D01*
X44021063Y60447066D01*
X44038157Y60448547D01*
X44071702Y60454316D01*
X44104841Y60462989D01*
X44135748Y60473942D01*
X44162596Y60486552D01*
X44178730Y60496550D01*
X44211604Y60524031D01*
X44240125Y60556054D01*
X44263651Y60591568D01*
X44281543Y60629523D01*
X44293159Y60668867D01*
X44296548Y60689882D01*
X44298528Y60736853D01*
X44293633Y60781804D01*
X44281954Y60824452D01*
X44263582Y60864515D01*
X44238608Y60901710D01*
X44221978Y60920963D01*
X44189255Y60950963D01*
X44153932Y60974635D01*
X44116630Y60992153D01*
X44077969Y61003694D01*
X44038569Y61009432D01*
X43999050Y61009543D01*
X43960033Y61004203D01*
D12*
%TO.C,J1*%
X33123600Y50968600D02*
X29563600Y50968600D01*
X38203600Y50968600D02*
X34643600Y50968600D01*
X43283600Y50968600D02*
X39723600Y50968600D01*
X45373600Y50968600D02*
X44803600Y50968600D01*
X44803600Y50968600D02*
X44803600Y49448600D01*
X45364400Y52070000D02*
X27482800Y52070000D01*
X27473600Y50968600D02*
X27473600Y52070000D01*
X45373600Y50968600D02*
X45373600Y52070000D01*
%TO.C,J4*%
X49599400Y49816000D02*
X49599400Y50216000D01*
X49599400Y52736000D02*
X49599400Y58516000D01*
X49599400Y61036000D02*
X49599400Y63736000D01*
X63419400Y52736000D02*
X63419400Y58516000D01*
X63419400Y49816000D02*
X63419400Y50216000D01*
X63419400Y61036000D02*
X63419400Y63736000D01*
X63419400Y63736000D02*
X49599400Y63736000D01*
X49599400Y49816000D02*
X63419400Y49816000D01*
X62009400Y49816000D02*
X62009400Y48816000D01*
X51009400Y49816000D02*
X51009400Y48816000D01*
X51509400Y48316000D02*
X61509400Y48316000D01*
X51009400Y48916000D02*
X51809400Y49116000D01*
X51809400Y49116000D02*
X53509400Y49416000D01*
X53509400Y49416000D02*
X54309400Y49516000D01*
X54309400Y49516000D02*
X55609400Y49616000D01*
X55609400Y49616000D02*
X57409400Y49616000D01*
X57409400Y49616000D02*
X58709400Y49516000D01*
X58709400Y49516000D02*
X60209400Y49316000D01*
X60209400Y49316000D02*
X61509400Y49016000D01*
X61509400Y49016000D02*
X62009400Y48916000D01*
X51509400Y48316000D02*
G75*
G02*
X51009400Y48816000I0J500000D01*
G01*
X62009400Y48816000D02*
G75*
G02*
X61509400Y48316000I-500000J0D01*
G01*
%TO.C,J1*%
D10*
X45934380Y51768333D02*
X46648666Y51768333D01*
X46791523Y51815952D01*
X46886761Y51911190D01*
X46934380Y52054047D01*
X46934380Y52149285D01*
X46934380Y50768333D02*
X46934380Y51339761D01*
X46934380Y51054047D02*
X45934380Y51054047D01*
X46077238Y51149285D01*
X46172476Y51244523D01*
X46220095Y51339761D01*
%TO.C,J4*%
X65707333Y51550819D02*
X65707333Y50836533D01*
X65754952Y50693676D01*
X65850190Y50598438D01*
X65993047Y50550819D01*
X66088285Y50550819D01*
X64802571Y51217485D02*
X64802571Y50550819D01*
X65040666Y51598438D02*
X65278761Y50884152D01*
X64659714Y50884152D01*
%TD*%
M02*
