%TF.GenerationSoftware,KiCad,Pcbnew,(5.1.9)-1*%
%TF.CreationDate,2021-02-26T13:25:28+01:00*%
%TF.ProjectId,DynaLoRa_Dongle,44796e61-4c6f-4526-915f-446f6e676c65,rev?*%
%TF.SameCoordinates,Original*%
%TF.FileFunction,Other,Fab,Top*%
%FSLAX46Y46*%
G04 Gerber Fmt 4.6, Leading zero omitted, Abs format (unit mm)*
G04 Created by KiCad (PCBNEW (5.1.9)-1) date 2021-02-26 13:25:28*
%MOMM*%
%LPD*%
G01*
G04 APERTURE LIST*
%ADD10C,0.100000*%
%ADD11C,0.120000*%
%ADD12C,0.060000*%
%ADD13C,0.080000*%
%ADD14C,0.150000*%
%ADD15C,0.075000*%
G04 APERTURE END LIST*
D10*
%TO.C,C5*%
X28751310Y56091575D02*
X29882681Y54960204D01*
X28185625Y55525890D02*
X28751310Y56091575D01*
X29316996Y54394519D02*
X28185625Y55525890D01*
X29882681Y54960204D02*
X29316996Y54394519D01*
%TO.C,D2*%
X23866600Y49590400D02*
X25566600Y49590400D01*
X25566600Y49590400D02*
X25866600Y49890400D01*
X25866600Y49890400D02*
X25866600Y50790400D01*
X25866600Y50790400D02*
X23866600Y50790400D01*
X23866600Y50790400D02*
X23866600Y49590400D01*
%TO.C,U1*%
X40028353Y56580967D02*
X39321247Y56580967D01*
X36925852Y54185572D02*
X39321247Y56580967D01*
X39047172Y52064252D02*
X36925852Y54185572D01*
X41796120Y54813200D02*
X39047172Y52064252D01*
X40028353Y56580967D02*
X41796120Y54813200D01*
%TO.C,C1*%
X24740000Y54108400D02*
X24740000Y54908400D01*
X24740000Y54908400D02*
X26340000Y54908400D01*
X26340000Y54908400D02*
X26340000Y54108400D01*
X26340000Y54108400D02*
X24740000Y54108400D01*
%TO.C,C2*%
X38560643Y57571472D02*
X37429272Y58702843D01*
X39126328Y58137157D02*
X38560643Y57571472D01*
X37994957Y59268528D02*
X39126328Y58137157D01*
X37429272Y58702843D02*
X37994957Y59268528D01*
%TO.C,C3*%
X26340000Y59315400D02*
X24740000Y59315400D01*
X26340000Y60115400D02*
X26340000Y59315400D01*
X24740000Y60115400D02*
X26340000Y60115400D01*
X24740000Y59315400D02*
X24740000Y60115400D01*
%TO.C,C4*%
X30215672Y53495843D02*
X30781357Y54061528D01*
X30781357Y54061528D02*
X31912728Y52930157D01*
X31912728Y52930157D02*
X31347043Y52364472D01*
X31347043Y52364472D02*
X30215672Y53495843D01*
%TO.C,D1*%
X25866600Y64658800D02*
X24166600Y64658800D01*
X24166600Y64658800D02*
X23866600Y64358800D01*
X23866600Y64358800D02*
X23866600Y63458800D01*
X23866600Y63458800D02*
X25866600Y63458800D01*
X25866600Y63458800D02*
X25866600Y64658800D01*
%TO.C,D3*%
X67017200Y60632400D02*
X66017200Y61632400D01*
X69517200Y64132400D02*
X66017200Y64132400D01*
X66017200Y64132400D02*
X66017200Y60632400D01*
X66017200Y60632400D02*
X69517200Y60632400D01*
X69517200Y60632400D02*
X69517200Y64132400D01*
X69267200Y62382400D02*
G75*
G03*
X69267200Y62382400I-1500000J0D01*
G01*
%TO.C,J2*%
X78346600Y60700800D02*
X78346600Y53700800D01*
X78346600Y60700800D02*
X71346600Y60700800D01*
X71346600Y60700800D02*
X71346600Y53700800D01*
X78346600Y53700800D02*
X71346600Y53700800D01*
X90896600Y60200800D02*
X90896600Y54200800D01*
X90896600Y60200800D02*
X79466600Y60200800D01*
X90896600Y54200800D02*
X79466600Y54200800D01*
X78346600Y53300800D02*
X79466600Y53300800D01*
X79466600Y53300800D02*
X79466600Y61100800D01*
X79466600Y61100800D02*
X78346600Y61100800D01*
X78346600Y61100800D02*
X78346600Y53300800D01*
X80396600Y60200800D02*
X81096600Y54200800D01*
X81396600Y60200800D02*
X82096600Y54200800D01*
X82396600Y60200800D02*
X83096600Y54200800D01*
X83396600Y60200800D02*
X84096600Y54200800D01*
X84396600Y60200800D02*
X85096600Y54200800D01*
X85396600Y60200800D02*
X86096600Y54200800D01*
X86396600Y60200800D02*
X87096600Y54200800D01*
X87396600Y60200800D02*
X88096600Y54200800D01*
X88396600Y60200800D02*
X89096600Y54200800D01*
%TO.C,R1*%
X45878500Y52997200D02*
X45053500Y52997200D01*
X45053500Y52997200D02*
X45053500Y54597200D01*
X45053500Y54597200D02*
X45878500Y54597200D01*
X45878500Y54597200D02*
X45878500Y52997200D01*
%TO.C,R2*%
X66916400Y59086500D02*
X68516400Y59086500D01*
X66916400Y58261500D02*
X66916400Y59086500D01*
X68516400Y58261500D02*
X66916400Y58261500D01*
X68516400Y59086500D02*
X68516400Y58261500D01*
%TO.C,R3*%
X27844500Y64630200D02*
X27844500Y63030200D01*
X27019500Y64630200D02*
X27844500Y64630200D01*
X27019500Y63030200D02*
X27019500Y64630200D01*
X27844500Y63030200D02*
X27019500Y63030200D01*
%TO.C,R4*%
X25692000Y52457100D02*
X25692000Y51632100D01*
X25692000Y51632100D02*
X24092000Y51632100D01*
X24092000Y51632100D02*
X24092000Y52457100D01*
X24092000Y52457100D02*
X25692000Y52457100D01*
%TO.C,R5*%
X29762700Y61201200D02*
X30587700Y61201200D01*
X30587700Y61201200D02*
X30587700Y59601200D01*
X30587700Y59601200D02*
X29762700Y59601200D01*
X29762700Y59601200D02*
X29762700Y61201200D01*
%TO.C,R6*%
X28340300Y59601200D02*
X28340300Y61201200D01*
X29165300Y59601200D02*
X28340300Y59601200D01*
X29165300Y61201200D02*
X29165300Y59601200D01*
X28340300Y61201200D02*
X29165300Y61201200D01*
%TO.C,U3*%
X24652400Y56224600D02*
X24002400Y56874600D01*
X24002400Y58024600D02*
X24002400Y56874600D01*
X24652400Y56224600D02*
X27102400Y56224600D01*
X27102400Y58024600D02*
X27102400Y56224600D01*
X24002400Y58024600D02*
X27102400Y58024600D01*
%TO.C,U4*%
X50349000Y64223400D02*
G75*
G03*
X50349000Y64223400I-500000J0D01*
G01*
X46999000Y65223400D02*
X64699000Y65223400D01*
X64699000Y65223400D02*
X64699000Y49223400D01*
X64699000Y49223400D02*
X46999000Y49223400D01*
X46999000Y49223400D02*
X46999000Y65223400D01*
%TO.C,U2*%
X32846293Y54346973D02*
X30017866Y57175400D01*
X30017866Y57175400D02*
X33553400Y60710934D01*
X33553400Y60710934D02*
X37088934Y57175400D01*
X37088934Y57175400D02*
X34260507Y54346973D01*
X34260507Y54346973D02*
X32846293Y54346973D01*
D11*
%TO.C,SW1*%
X44751200Y63601600D02*
X44751200Y62839600D01*
X45513200Y63601600D02*
X44751200Y63601600D01*
X38401200Y62839600D02*
X45513200Y62839600D01*
X38401200Y64744600D02*
X38401200Y62839600D01*
X38528200Y64744600D02*
X38401200Y64744600D01*
X45513200Y64744600D02*
X38528200Y64744600D01*
X45513200Y62839600D02*
X45513200Y64744600D01*
%TO.C,SW2*%
X36195000Y62839600D02*
X36195000Y64744600D01*
X36195000Y64744600D02*
X29210000Y64744600D01*
X29210000Y64744600D02*
X29083000Y64744600D01*
X29083000Y64744600D02*
X29083000Y62839600D01*
X29083000Y62839600D02*
X36195000Y62839600D01*
X36195000Y63601600D02*
X35433000Y63601600D01*
X35433000Y63601600D02*
X35433000Y62839600D01*
D10*
%TO.C,J1*%
X44780200Y51003200D02*
X44780200Y49098200D01*
X44780200Y49098200D02*
X27000200Y49098200D01*
X27000200Y49098200D02*
X27000200Y51638200D01*
X27000200Y51638200D02*
X44145200Y51638200D01*
X44145200Y51638200D02*
X44780200Y51003200D01*
%TD*%
%TO.C,C5*%
D12*
X28885997Y55189172D02*
X28859059Y55189172D01*
X28805185Y55216109D01*
X28778247Y55243047D01*
X28751310Y55296921D01*
X28751310Y55350796D01*
X28764778Y55391202D01*
X28805185Y55458546D01*
X28845591Y55498952D01*
X28912934Y55539358D01*
X28953340Y55552827D01*
X29007215Y55552827D01*
X29061090Y55525889D01*
X29088027Y55498952D01*
X29114965Y55445077D01*
X29114965Y55418140D01*
X29397807Y55189172D02*
X29263120Y55323859D01*
X29114965Y55202640D01*
X29141902Y55202640D01*
X29182308Y55189172D01*
X29249652Y55121828D01*
X29263120Y55081422D01*
X29263120Y55054485D01*
X29249652Y55014079D01*
X29182308Y54946735D01*
X29141902Y54933266D01*
X29114965Y54933266D01*
X29074559Y54946735D01*
X29007215Y55014079D01*
X28993746Y55054485D01*
X28993746Y55081422D01*
%TO.C,D2*%
D13*
X24497552Y49964209D02*
X24497552Y50464209D01*
X24616600Y50464209D01*
X24688028Y50440400D01*
X24735647Y50392780D01*
X24759457Y50345161D01*
X24783266Y50249923D01*
X24783266Y50178495D01*
X24759457Y50083257D01*
X24735647Y50035638D01*
X24688028Y49988019D01*
X24616600Y49964209D01*
X24497552Y49964209D01*
X24973742Y50416590D02*
X24997552Y50440400D01*
X25045171Y50464209D01*
X25164219Y50464209D01*
X25211838Y50440400D01*
X25235647Y50416590D01*
X25259457Y50368971D01*
X25259457Y50321352D01*
X25235647Y50249923D01*
X24949933Y49964209D01*
X25259457Y49964209D01*
%TO.C,U1*%
D10*
X39568733Y55461381D02*
X39168040Y55060687D01*
X39144469Y54989976D01*
X39144469Y54942836D01*
X39168040Y54872125D01*
X39262321Y54777844D01*
X39333031Y54754274D01*
X39380172Y54754274D01*
X39450882Y54777844D01*
X39851576Y55178538D01*
X39851576Y54188589D02*
X39568733Y54471431D01*
X39710155Y54330010D02*
X40205130Y54824985D01*
X40087278Y54801414D01*
X39992998Y54801414D01*
X39922287Y54824985D01*
%TO.C,C1*%
D14*
X23897142Y53530780D02*
X23944761Y53578400D01*
X24040000Y53626019D01*
X24278095Y53626019D01*
X24373333Y53578400D01*
X24420952Y53530780D01*
X24468571Y53435542D01*
X24468571Y53340304D01*
X24420952Y53197447D01*
X23849523Y52626019D01*
X24468571Y52626019D01*
X24849523Y53530780D02*
X24897142Y53578400D01*
X24992380Y53626019D01*
X25230476Y53626019D01*
X25325714Y53578400D01*
X25373333Y53530780D01*
X25420952Y53435542D01*
X25420952Y53340304D01*
X25373333Y53197447D01*
X24801904Y52626019D01*
X25420952Y52626019D01*
X26278095Y53292685D02*
X26278095Y52626019D01*
X25849523Y53292685D02*
X25849523Y52768876D01*
X25897142Y52673638D01*
X25992380Y52626019D01*
X26135238Y52626019D01*
X26230476Y52673638D01*
X26278095Y52721257D01*
X27087619Y53149828D02*
X26754285Y53149828D01*
X26754285Y52626019D02*
X26754285Y53626019D01*
X27230476Y53626019D01*
D12*
X25473333Y54365542D02*
X25454285Y54346495D01*
X25397142Y54327447D01*
X25359047Y54327447D01*
X25301904Y54346495D01*
X25263809Y54384590D01*
X25244761Y54422685D01*
X25225714Y54498876D01*
X25225714Y54556019D01*
X25244761Y54632209D01*
X25263809Y54670304D01*
X25301904Y54708400D01*
X25359047Y54727447D01*
X25397142Y54727447D01*
X25454285Y54708400D01*
X25473333Y54689352D01*
X25854285Y54327447D02*
X25625714Y54327447D01*
X25740000Y54327447D02*
X25740000Y54727447D01*
X25701904Y54670304D01*
X25663809Y54632209D01*
X25625714Y54613161D01*
%TO.C,C2*%
D14*
X35852423Y58183287D02*
X35448362Y58587348D01*
X35650392Y58385317D02*
X36357499Y59092424D01*
X36189140Y59058752D01*
X36054453Y59058752D01*
X35953438Y59092424D01*
X36997262Y58452661D02*
X37064606Y58385317D01*
X37098278Y58284302D01*
X37098278Y58216959D01*
X37064606Y58115943D01*
X36963591Y57947585D01*
X36795232Y57779226D01*
X36626873Y57678211D01*
X36525858Y57644539D01*
X36458514Y57644539D01*
X36357499Y57678211D01*
X36290156Y57745554D01*
X36256484Y57846569D01*
X36256484Y57913913D01*
X36290156Y58014928D01*
X36391171Y58183287D01*
X36559530Y58351646D01*
X36727888Y58452661D01*
X36828904Y58486333D01*
X36896247Y58486333D01*
X36997262Y58452661D01*
X37670698Y57779226D02*
X37738041Y57711882D01*
X37771713Y57610867D01*
X37771713Y57543524D01*
X37738041Y57442508D01*
X37637026Y57274149D01*
X37468667Y57105791D01*
X37300308Y57004775D01*
X37199293Y56971104D01*
X37131949Y56971104D01*
X37030934Y57004775D01*
X36963591Y57072119D01*
X36929919Y57173134D01*
X36929919Y57240478D01*
X36963591Y57341493D01*
X37064606Y57509852D01*
X37232965Y57678211D01*
X37401324Y57779226D01*
X37502339Y57812898D01*
X37569682Y57812898D01*
X37670698Y57779226D01*
X37973743Y57004775D02*
X37502339Y56533371D01*
X37906400Y56937432D02*
X37973743Y56937432D01*
X38074759Y56903760D01*
X38175774Y56802745D01*
X38209446Y56701730D01*
X38175774Y56600714D01*
X37805385Y56230325D01*
X38748194Y56028295D02*
X38512491Y56263997D01*
X38142102Y55893608D02*
X38849209Y56600714D01*
X39185926Y56263997D01*
D12*
X38129644Y58366125D02*
X38102706Y58366125D01*
X38048832Y58393062D01*
X38021894Y58420000D01*
X37994957Y58473874D01*
X37994957Y58527749D01*
X38008425Y58568155D01*
X38048832Y58635499D01*
X38089238Y58675905D01*
X38156581Y58716311D01*
X38196987Y58729780D01*
X38250862Y58729780D01*
X38304737Y58702842D01*
X38331674Y58675905D01*
X38358612Y58622030D01*
X38358612Y58595093D01*
X38466361Y58487343D02*
X38493299Y58487343D01*
X38533705Y58473874D01*
X38601048Y58406531D01*
X38614517Y58366125D01*
X38614517Y58339187D01*
X38601048Y58298781D01*
X38574111Y58271844D01*
X38520236Y58244906D01*
X38196987Y58244906D01*
X38372080Y58069813D01*
%TO.C,C3*%
D14*
X23897142Y58737780D02*
X23944761Y58785400D01*
X24040000Y58833019D01*
X24278095Y58833019D01*
X24373333Y58785400D01*
X24420952Y58737780D01*
X24468571Y58642542D01*
X24468571Y58547304D01*
X24420952Y58404447D01*
X23849523Y57833019D01*
X24468571Y57833019D01*
X24849523Y58737780D02*
X24897142Y58785400D01*
X24992380Y58833019D01*
X25230476Y58833019D01*
X25325714Y58785400D01*
X25373333Y58737780D01*
X25420952Y58642542D01*
X25420952Y58547304D01*
X25373333Y58404447D01*
X24801904Y57833019D01*
X25420952Y57833019D01*
X26278095Y58499685D02*
X26278095Y57833019D01*
X25849523Y58499685D02*
X25849523Y57975876D01*
X25897142Y57880638D01*
X25992380Y57833019D01*
X26135238Y57833019D01*
X26230476Y57880638D01*
X26278095Y57928257D01*
X27087619Y58356828D02*
X26754285Y58356828D01*
X26754285Y57833019D02*
X26754285Y58833019D01*
X27230476Y58833019D01*
D12*
X25473333Y59572542D02*
X25454285Y59553495D01*
X25397142Y59534447D01*
X25359047Y59534447D01*
X25301904Y59553495D01*
X25263809Y59591590D01*
X25244761Y59629685D01*
X25225714Y59705876D01*
X25225714Y59763019D01*
X25244761Y59839209D01*
X25263809Y59877304D01*
X25301904Y59915400D01*
X25359047Y59934447D01*
X25397142Y59934447D01*
X25454285Y59915400D01*
X25473333Y59896352D01*
X25606666Y59934447D02*
X25854285Y59934447D01*
X25720952Y59782066D01*
X25778095Y59782066D01*
X25816190Y59763019D01*
X25835238Y59743971D01*
X25854285Y59705876D01*
X25854285Y59610638D01*
X25835238Y59572542D01*
X25816190Y59553495D01*
X25778095Y59534447D01*
X25663809Y59534447D01*
X25625714Y59553495D01*
X25606666Y59572542D01*
%TO.C,C4*%
D14*
X28638823Y52976287D02*
X28234762Y53380348D01*
X28436792Y53178317D02*
X29143899Y53885424D01*
X28975540Y53851752D01*
X28840853Y53851752D01*
X28739838Y53885424D01*
X29783662Y53245661D02*
X29851006Y53178317D01*
X29884678Y53077302D01*
X29884678Y53009959D01*
X29851006Y52908943D01*
X29749991Y52740585D01*
X29581632Y52572226D01*
X29413273Y52471211D01*
X29312258Y52437539D01*
X29244914Y52437539D01*
X29143899Y52471211D01*
X29076556Y52538554D01*
X29042884Y52639569D01*
X29042884Y52706913D01*
X29076556Y52807928D01*
X29177571Y52976287D01*
X29345930Y53144646D01*
X29514288Y53245661D01*
X29615304Y53279333D01*
X29682647Y53279333D01*
X29783662Y53245661D01*
X30457098Y52572226D02*
X30524441Y52504882D01*
X30558113Y52403867D01*
X30558113Y52336524D01*
X30524441Y52235508D01*
X30423426Y52067149D01*
X30255067Y51898791D01*
X30086708Y51797775D01*
X29985693Y51764104D01*
X29918349Y51764104D01*
X29817334Y51797775D01*
X29749991Y51865119D01*
X29716319Y51966134D01*
X29716319Y52033478D01*
X29749991Y52134493D01*
X29851006Y52302852D01*
X30019365Y52471211D01*
X30187724Y52572226D01*
X30288739Y52605898D01*
X30356082Y52605898D01*
X30457098Y52572226D01*
X30760143Y51797775D02*
X30288739Y51326371D01*
X30692800Y51730432D02*
X30760143Y51730432D01*
X30861159Y51696760D01*
X30962174Y51595745D01*
X30995846Y51494730D01*
X30962174Y51393714D01*
X30591785Y51023325D01*
X31534594Y50821295D02*
X31298891Y51056997D01*
X30928502Y50686608D02*
X31635609Y51393714D01*
X31972326Y51056997D01*
D12*
X30916044Y53159125D02*
X30889106Y53159125D01*
X30835232Y53186062D01*
X30808294Y53213000D01*
X30781357Y53266874D01*
X30781357Y53320749D01*
X30794825Y53361155D01*
X30835232Y53428499D01*
X30875638Y53468905D01*
X30942981Y53509311D01*
X30983387Y53522780D01*
X31037262Y53522780D01*
X31091137Y53495842D01*
X31118074Y53468905D01*
X31145012Y53415030D01*
X31145012Y53388093D01*
X31320105Y53078312D02*
X31131543Y52889751D01*
X31360511Y53253406D02*
X31091137Y53118719D01*
X31266230Y52943625D01*
%TO.C,D1*%
D14*
X21723742Y61956419D02*
X21247552Y61956419D01*
X21247552Y62956419D01*
X22057076Y62480228D02*
X22390409Y62480228D01*
X22533266Y61956419D02*
X22057076Y61956419D01*
X22057076Y62956419D01*
X22533266Y62956419D01*
X22961838Y61956419D02*
X22961838Y62956419D01*
X23199933Y62956419D01*
X23342790Y62908800D01*
X23438028Y62813561D01*
X23485647Y62718323D01*
X23533266Y62527847D01*
X23533266Y62384990D01*
X23485647Y62194514D01*
X23438028Y62099276D01*
X23342790Y62004038D01*
X23199933Y61956419D01*
X22961838Y61956419D01*
X23723742Y61861180D02*
X24485647Y61861180D01*
X24676123Y62004038D02*
X24818980Y61956419D01*
X25057076Y61956419D01*
X25152314Y62004038D01*
X25199933Y62051657D01*
X25247552Y62146895D01*
X25247552Y62242133D01*
X25199933Y62337371D01*
X25152314Y62384990D01*
X25057076Y62432609D01*
X24866600Y62480228D01*
X24771361Y62527847D01*
X24723742Y62575466D01*
X24676123Y62670704D01*
X24676123Y62765942D01*
X24723742Y62861180D01*
X24771361Y62908800D01*
X24866600Y62956419D01*
X25104695Y62956419D01*
X25247552Y62908800D01*
X25676123Y61956419D02*
X25676123Y62623085D01*
X25676123Y62527847D02*
X25723742Y62575466D01*
X25818980Y62623085D01*
X25961838Y62623085D01*
X26057076Y62575466D01*
X26104695Y62480228D01*
X26104695Y61956419D01*
X26104695Y62480228D02*
X26152314Y62575466D01*
X26247552Y62623085D01*
X26390409Y62623085D01*
X26485647Y62575466D01*
X26533266Y62480228D01*
X26533266Y61956419D01*
X27438028Y61956419D02*
X27438028Y62480228D01*
X27390409Y62575466D01*
X27295171Y62623085D01*
X27104695Y62623085D01*
X27009457Y62575466D01*
X27438028Y62004038D02*
X27342790Y61956419D01*
X27104695Y61956419D01*
X27009457Y62004038D01*
X26961838Y62099276D01*
X26961838Y62194514D01*
X27009457Y62289752D01*
X27104695Y62337371D01*
X27342790Y62337371D01*
X27438028Y62384990D01*
X28057076Y61956419D02*
X27961838Y62004038D01*
X27914219Y62099276D01*
X27914219Y62956419D01*
X28580885Y61956419D02*
X28485647Y62004038D01*
X28438028Y62099276D01*
X28438028Y62956419D01*
D13*
X24497552Y63832609D02*
X24497552Y64332609D01*
X24616600Y64332609D01*
X24688028Y64308800D01*
X24735647Y64261180D01*
X24759457Y64213561D01*
X24783266Y64118323D01*
X24783266Y64046895D01*
X24759457Y63951657D01*
X24735647Y63904038D01*
X24688028Y63856419D01*
X24616600Y63832609D01*
X24497552Y63832609D01*
X25259457Y63832609D02*
X24973742Y63832609D01*
X25116600Y63832609D02*
X25116600Y64332609D01*
X25068980Y64261180D01*
X25021361Y64213561D01*
X24973742Y64189752D01*
%TO.C,D3*%
D14*
X63969580Y59072876D02*
X64969580Y59310971D01*
X64255295Y59501447D01*
X64969580Y59691923D01*
X63969580Y59930019D01*
X64921961Y60263352D02*
X64969580Y60406209D01*
X64969580Y60644304D01*
X64921961Y60739542D01*
X64874342Y60787161D01*
X64779104Y60834780D01*
X64683866Y60834780D01*
X64588628Y60787161D01*
X64541009Y60739542D01*
X64493390Y60644304D01*
X64445771Y60453828D01*
X64398152Y60358590D01*
X64350533Y60310971D01*
X64255295Y60263352D01*
X64160057Y60263352D01*
X64064819Y60310971D01*
X64017200Y60358590D01*
X63969580Y60453828D01*
X63969580Y60691923D01*
X64017200Y60834780D01*
X64064819Y61215733D02*
X64017200Y61263352D01*
X63969580Y61358590D01*
X63969580Y61596685D01*
X64017200Y61691923D01*
X64064819Y61739542D01*
X64160057Y61787161D01*
X64255295Y61787161D01*
X64398152Y61739542D01*
X64969580Y61168114D01*
X64969580Y61787161D01*
X64398152Y62358590D02*
X64350533Y62263352D01*
X64302914Y62215733D01*
X64207676Y62168114D01*
X64160057Y62168114D01*
X64064819Y62215733D01*
X64017200Y62263352D01*
X63969580Y62358590D01*
X63969580Y62549066D01*
X64017200Y62644304D01*
X64064819Y62691923D01*
X64160057Y62739542D01*
X64207676Y62739542D01*
X64302914Y62691923D01*
X64350533Y62644304D01*
X64398152Y62549066D01*
X64398152Y62358590D01*
X64445771Y62263352D01*
X64493390Y62215733D01*
X64588628Y62168114D01*
X64779104Y62168114D01*
X64874342Y62215733D01*
X64921961Y62263352D01*
X64969580Y62358590D01*
X64969580Y62549066D01*
X64921961Y62644304D01*
X64874342Y62691923D01*
X64779104Y62739542D01*
X64588628Y62739542D01*
X64493390Y62691923D01*
X64445771Y62644304D01*
X64398152Y62549066D01*
X64969580Y63691923D02*
X64969580Y63120495D01*
X64969580Y63406209D02*
X63969580Y63406209D01*
X64112438Y63310971D01*
X64207676Y63215733D01*
X64255295Y63120495D01*
X64064819Y64072876D02*
X64017200Y64120495D01*
X63969580Y64215733D01*
X63969580Y64453828D01*
X64017200Y64549066D01*
X64064819Y64596685D01*
X64160057Y64644304D01*
X64255295Y64644304D01*
X64398152Y64596685D01*
X64969580Y64025257D01*
X64969580Y64644304D01*
X64445771Y65406209D02*
X64493390Y65549066D01*
X64541009Y65596685D01*
X64636247Y65644304D01*
X64779104Y65644304D01*
X64874342Y65596685D01*
X64921961Y65549066D01*
X64969580Y65453828D01*
X64969580Y65072876D01*
X63969580Y65072876D01*
X63969580Y65406209D01*
X64017200Y65501447D01*
X64064819Y65549066D01*
X64160057Y65596685D01*
X64255295Y65596685D01*
X64350533Y65549066D01*
X64398152Y65501447D01*
X64445771Y65406209D01*
X64445771Y65072876D01*
D10*
X67993390Y62013352D02*
X67493390Y62013352D01*
X67493390Y62132400D01*
X67517200Y62203828D01*
X67564819Y62251447D01*
X67612438Y62275257D01*
X67707676Y62299066D01*
X67779104Y62299066D01*
X67874342Y62275257D01*
X67921961Y62251447D01*
X67969580Y62203828D01*
X67993390Y62132400D01*
X67993390Y62013352D01*
X67493390Y62465733D02*
X67493390Y62775257D01*
X67683866Y62608590D01*
X67683866Y62680019D01*
X67707676Y62727638D01*
X67731485Y62751447D01*
X67779104Y62775257D01*
X67898152Y62775257D01*
X67945771Y62751447D01*
X67969580Y62727638D01*
X67993390Y62680019D01*
X67993390Y62537161D01*
X67969580Y62489542D01*
X67945771Y62465733D01*
%TO.C,J2*%
D14*
X69753742Y53010323D02*
X69801361Y52962704D01*
X69848980Y52819847D01*
X69848980Y52724609D01*
X69801361Y52581752D01*
X69706123Y52486514D01*
X69610885Y52438895D01*
X69420409Y52391276D01*
X69277552Y52391276D01*
X69087076Y52438895D01*
X68991838Y52486514D01*
X68896600Y52581752D01*
X68848980Y52724609D01*
X68848980Y52819847D01*
X68896600Y52962704D01*
X68944219Y53010323D01*
X69848980Y53581752D02*
X69801361Y53486514D01*
X69753742Y53438895D01*
X69658504Y53391276D01*
X69372790Y53391276D01*
X69277552Y53438895D01*
X69229933Y53486514D01*
X69182314Y53581752D01*
X69182314Y53724609D01*
X69229933Y53819847D01*
X69277552Y53867466D01*
X69372790Y53915085D01*
X69658504Y53915085D01*
X69753742Y53867466D01*
X69801361Y53819847D01*
X69848980Y53724609D01*
X69848980Y53581752D01*
X69182314Y54343657D02*
X69848980Y54343657D01*
X69277552Y54343657D02*
X69229933Y54391276D01*
X69182314Y54486514D01*
X69182314Y54629371D01*
X69229933Y54724609D01*
X69325171Y54772228D01*
X69848980Y54772228D01*
X69182314Y55248419D02*
X69848980Y55248419D01*
X69277552Y55248419D02*
X69229933Y55296038D01*
X69182314Y55391276D01*
X69182314Y55534133D01*
X69229933Y55629371D01*
X69325171Y55676990D01*
X69848980Y55676990D01*
X69944219Y55915085D02*
X69944219Y56676990D01*
X69753742Y57486514D02*
X69801361Y57438895D01*
X69848980Y57296038D01*
X69848980Y57200800D01*
X69801361Y57057942D01*
X69706123Y56962704D01*
X69610885Y56915085D01*
X69420409Y56867466D01*
X69277552Y56867466D01*
X69087076Y56915085D01*
X68991838Y56962704D01*
X68896600Y57057942D01*
X68848980Y57200800D01*
X68848980Y57296038D01*
X68896600Y57438895D01*
X68944219Y57486514D01*
X69848980Y58057942D02*
X69801361Y57962704D01*
X69753742Y57915085D01*
X69658504Y57867466D01*
X69372790Y57867466D01*
X69277552Y57915085D01*
X69229933Y57962704D01*
X69182314Y58057942D01*
X69182314Y58200800D01*
X69229933Y58296038D01*
X69277552Y58343657D01*
X69372790Y58391276D01*
X69658504Y58391276D01*
X69753742Y58343657D01*
X69801361Y58296038D01*
X69848980Y58200800D01*
X69848980Y58057942D01*
X69848980Y59248419D02*
X69325171Y59248419D01*
X69229933Y59200800D01*
X69182314Y59105561D01*
X69182314Y58915085D01*
X69229933Y58819847D01*
X69801361Y59248419D02*
X69848980Y59153180D01*
X69848980Y58915085D01*
X69801361Y58819847D01*
X69706123Y58772228D01*
X69610885Y58772228D01*
X69515647Y58819847D01*
X69468028Y58915085D01*
X69468028Y59153180D01*
X69420409Y59248419D01*
X69848980Y59629371D02*
X69182314Y60153180D01*
X69182314Y59629371D02*
X69848980Y60153180D01*
X69848980Y60534133D02*
X69182314Y60534133D01*
X68848980Y60534133D02*
X68896600Y60486514D01*
X68944219Y60534133D01*
X68896600Y60581752D01*
X68848980Y60534133D01*
X68944219Y60534133D01*
X69848980Y61438895D02*
X69325171Y61438895D01*
X69229933Y61391276D01*
X69182314Y61296038D01*
X69182314Y61105561D01*
X69229933Y61010323D01*
X69801361Y61438895D02*
X69848980Y61343657D01*
X69848980Y61105561D01*
X69801361Y61010323D01*
X69706123Y60962704D01*
X69610885Y60962704D01*
X69515647Y61010323D01*
X69468028Y61105561D01*
X69468028Y61343657D01*
X69420409Y61438895D01*
X69848980Y62057942D02*
X69801361Y61962704D01*
X69706123Y61915085D01*
X68848980Y61915085D01*
X73848980Y56867466D02*
X74563266Y56867466D01*
X74706123Y56819847D01*
X74801361Y56724609D01*
X74848980Y56581752D01*
X74848980Y56486514D01*
X73944219Y57296038D02*
X73896600Y57343657D01*
X73848980Y57438895D01*
X73848980Y57676990D01*
X73896600Y57772228D01*
X73944219Y57819847D01*
X74039457Y57867466D01*
X74134695Y57867466D01*
X74277552Y57819847D01*
X74848980Y57248419D01*
X74848980Y57867466D01*
%TO.C,J3*%
X15208380Y55464771D02*
X16017904Y55464771D01*
X16113142Y55512390D01*
X16160761Y55560009D01*
X16208380Y55655247D01*
X16208380Y55845723D01*
X16160761Y55940961D01*
X16113142Y55988580D01*
X16017904Y56036200D01*
X15208380Y56036200D01*
X16160761Y56464771D02*
X16208380Y56607628D01*
X16208380Y56845723D01*
X16160761Y56940961D01*
X16113142Y56988580D01*
X16017904Y57036200D01*
X15922666Y57036200D01*
X15827428Y56988580D01*
X15779809Y56940961D01*
X15732190Y56845723D01*
X15684571Y56655247D01*
X15636952Y56560009D01*
X15589333Y56512390D01*
X15494095Y56464771D01*
X15398857Y56464771D01*
X15303619Y56512390D01*
X15256000Y56560009D01*
X15208380Y56655247D01*
X15208380Y56893342D01*
X15256000Y57036200D01*
X15684571Y57798104D02*
X15732190Y57940961D01*
X15779809Y57988580D01*
X15875047Y58036200D01*
X16017904Y58036200D01*
X16113142Y57988580D01*
X16160761Y57940961D01*
X16208380Y57845723D01*
X16208380Y57464771D01*
X15208380Y57464771D01*
X15208380Y57798104D01*
X15256000Y57893342D01*
X15303619Y57940961D01*
X15398857Y57988580D01*
X15494095Y57988580D01*
X15589333Y57940961D01*
X15636952Y57893342D01*
X15684571Y57798104D01*
X15684571Y57464771D01*
X16303619Y58226676D02*
X16303619Y58988580D01*
X15922666Y59179057D02*
X15922666Y59655247D01*
X16208380Y59083819D02*
X15208380Y59417152D01*
X16208380Y59750485D01*
X23558580Y51452342D02*
X24368104Y51452342D01*
X24463342Y51499961D01*
X24510961Y51547580D01*
X24558580Y51642819D01*
X24558580Y51833295D01*
X24510961Y51928533D01*
X24463342Y51976152D01*
X24368104Y52023771D01*
X23558580Y52023771D01*
X24510961Y52452342D02*
X24558580Y52595200D01*
X24558580Y52833295D01*
X24510961Y52928533D01*
X24463342Y52976152D01*
X24368104Y53023771D01*
X24272866Y53023771D01*
X24177628Y52976152D01*
X24130009Y52928533D01*
X24082390Y52833295D01*
X24034771Y52642819D01*
X23987152Y52547580D01*
X23939533Y52499961D01*
X23844295Y52452342D01*
X23749057Y52452342D01*
X23653819Y52499961D01*
X23606200Y52547580D01*
X23558580Y52642819D01*
X23558580Y52880914D01*
X23606200Y53023771D01*
X24034771Y53785676D02*
X24082390Y53928533D01*
X24130009Y53976152D01*
X24225247Y54023771D01*
X24368104Y54023771D01*
X24463342Y53976152D01*
X24510961Y53928533D01*
X24558580Y53833295D01*
X24558580Y53452342D01*
X23558580Y53452342D01*
X23558580Y53785676D01*
X23606200Y53880914D01*
X23653819Y53928533D01*
X23749057Y53976152D01*
X23844295Y53976152D01*
X23939533Y53928533D01*
X23987152Y53880914D01*
X24034771Y53785676D01*
X24034771Y53452342D01*
X24653819Y54214247D02*
X24653819Y54976152D01*
X24034771Y55547580D02*
X24082390Y55690438D01*
X24130009Y55738057D01*
X24225247Y55785676D01*
X24368104Y55785676D01*
X24463342Y55738057D01*
X24510961Y55690438D01*
X24558580Y55595200D01*
X24558580Y55214247D01*
X23558580Y55214247D01*
X23558580Y55547580D01*
X23606200Y55642819D01*
X23653819Y55690438D01*
X23749057Y55738057D01*
X23844295Y55738057D01*
X23939533Y55690438D01*
X23987152Y55642819D01*
X24034771Y55547580D01*
X24034771Y55214247D01*
%TO.C,R1*%
X47348380Y52725771D02*
X47348380Y52154342D01*
X47348380Y52440057D02*
X46348380Y52440057D01*
X46491238Y52344819D01*
X46586476Y52249580D01*
X46634095Y52154342D01*
X46348380Y53344819D02*
X46348380Y53440057D01*
X46396000Y53535295D01*
X46443619Y53582914D01*
X46538857Y53630533D01*
X46729333Y53678152D01*
X46967428Y53678152D01*
X47157904Y53630533D01*
X47253142Y53582914D01*
X47300761Y53535295D01*
X47348380Y53440057D01*
X47348380Y53344819D01*
X47300761Y53249580D01*
X47253142Y53201961D01*
X47157904Y53154342D01*
X46967428Y53106723D01*
X46729333Y53106723D01*
X46538857Y53154342D01*
X46443619Y53201961D01*
X46396000Y53249580D01*
X46348380Y53344819D01*
X46348380Y54297200D02*
X46348380Y54392438D01*
X46396000Y54487676D01*
X46443619Y54535295D01*
X46538857Y54582914D01*
X46729333Y54630533D01*
X46967428Y54630533D01*
X47157904Y54582914D01*
X47253142Y54535295D01*
X47300761Y54487676D01*
X47348380Y54392438D01*
X47348380Y54297200D01*
X47300761Y54201961D01*
X47253142Y54154342D01*
X47157904Y54106723D01*
X46967428Y54059104D01*
X46729333Y54059104D01*
X46538857Y54106723D01*
X46443619Y54154342D01*
X46396000Y54201961D01*
X46348380Y54297200D01*
X47348380Y55059104D02*
X46348380Y55059104D01*
X46967428Y55154342D02*
X47348380Y55440057D01*
X46681714Y55440057D02*
X47062666Y55059104D01*
D12*
X45646952Y53730533D02*
X45456476Y53597200D01*
X45646952Y53501961D02*
X45246952Y53501961D01*
X45246952Y53654342D01*
X45266000Y53692438D01*
X45285047Y53711485D01*
X45323142Y53730533D01*
X45380285Y53730533D01*
X45418380Y53711485D01*
X45437428Y53692438D01*
X45456476Y53654342D01*
X45456476Y53501961D01*
X45646952Y54111485D02*
X45646952Y53882914D01*
X45646952Y53997200D02*
X45246952Y53997200D01*
X45304095Y53959104D01*
X45342190Y53921009D01*
X45361238Y53882914D01*
%TO.C,R2*%
D14*
X66502114Y60651619D02*
X66025923Y60651619D01*
X65978304Y60175428D01*
X66025923Y60223047D01*
X66121161Y60270666D01*
X66359257Y60270666D01*
X66454495Y60223047D01*
X66502114Y60175428D01*
X66549733Y60080190D01*
X66549733Y59842095D01*
X66502114Y59746857D01*
X66454495Y59699238D01*
X66359257Y59651619D01*
X66121161Y59651619D01*
X66025923Y59699238D01*
X65978304Y59746857D01*
X67502114Y59651619D02*
X66930685Y59651619D01*
X67216400Y59651619D02*
X67216400Y60651619D01*
X67121161Y60508761D01*
X67025923Y60413523D01*
X66930685Y60365904D01*
X68121161Y60651619D02*
X68216400Y60651619D01*
X68311638Y60604000D01*
X68359257Y60556380D01*
X68406876Y60461142D01*
X68454495Y60270666D01*
X68454495Y60032571D01*
X68406876Y59842095D01*
X68359257Y59746857D01*
X68311638Y59699238D01*
X68216400Y59651619D01*
X68121161Y59651619D01*
X68025923Y59699238D01*
X67978304Y59746857D01*
X67930685Y59842095D01*
X67883066Y60032571D01*
X67883066Y60270666D01*
X67930685Y60461142D01*
X67978304Y60556380D01*
X68025923Y60604000D01*
X68121161Y60651619D01*
X69454495Y59651619D02*
X69121161Y60127809D01*
X68883066Y59651619D02*
X68883066Y60651619D01*
X69264019Y60651619D01*
X69359257Y60604000D01*
X69406876Y60556380D01*
X69454495Y60461142D01*
X69454495Y60318285D01*
X69406876Y60223047D01*
X69359257Y60175428D01*
X69264019Y60127809D01*
X68883066Y60127809D01*
D12*
X67649733Y58493047D02*
X67516400Y58683523D01*
X67421161Y58493047D02*
X67421161Y58893047D01*
X67573542Y58893047D01*
X67611638Y58874000D01*
X67630685Y58854952D01*
X67649733Y58816857D01*
X67649733Y58759714D01*
X67630685Y58721619D01*
X67611638Y58702571D01*
X67573542Y58683523D01*
X67421161Y58683523D01*
X67802114Y58854952D02*
X67821161Y58874000D01*
X67859257Y58893047D01*
X67954495Y58893047D01*
X67992590Y58874000D01*
X68011638Y58854952D01*
X68030685Y58816857D01*
X68030685Y58778761D01*
X68011638Y58721619D01*
X67783066Y58493047D01*
X68030685Y58493047D01*
%TO.C,R3*%
D14*
X28314380Y62615914D02*
X28314380Y62139723D01*
X28790571Y62092104D01*
X28742952Y62139723D01*
X28695333Y62234961D01*
X28695333Y62473057D01*
X28742952Y62568295D01*
X28790571Y62615914D01*
X28885809Y62663533D01*
X29123904Y62663533D01*
X29219142Y62615914D01*
X29266761Y62568295D01*
X29314380Y62473057D01*
X29314380Y62234961D01*
X29266761Y62139723D01*
X29219142Y62092104D01*
X29314380Y63615914D02*
X29314380Y63044485D01*
X29314380Y63330200D02*
X28314380Y63330200D01*
X28457238Y63234961D01*
X28552476Y63139723D01*
X28600095Y63044485D01*
X28314380Y64234961D02*
X28314380Y64330200D01*
X28362000Y64425438D01*
X28409619Y64473057D01*
X28504857Y64520676D01*
X28695333Y64568295D01*
X28933428Y64568295D01*
X29123904Y64520676D01*
X29219142Y64473057D01*
X29266761Y64425438D01*
X29314380Y64330200D01*
X29314380Y64234961D01*
X29266761Y64139723D01*
X29219142Y64092104D01*
X29123904Y64044485D01*
X28933428Y63996866D01*
X28695333Y63996866D01*
X28504857Y64044485D01*
X28409619Y64092104D01*
X28362000Y64139723D01*
X28314380Y64234961D01*
X29314380Y65568295D02*
X28838190Y65234961D01*
X29314380Y64996866D02*
X28314380Y64996866D01*
X28314380Y65377819D01*
X28362000Y65473057D01*
X28409619Y65520676D01*
X28504857Y65568295D01*
X28647714Y65568295D01*
X28742952Y65520676D01*
X28790571Y65473057D01*
X28838190Y65377819D01*
X28838190Y64996866D01*
D12*
X27612952Y63763533D02*
X27422476Y63630200D01*
X27612952Y63534961D02*
X27212952Y63534961D01*
X27212952Y63687342D01*
X27232000Y63725438D01*
X27251047Y63744485D01*
X27289142Y63763533D01*
X27346285Y63763533D01*
X27384380Y63744485D01*
X27403428Y63725438D01*
X27422476Y63687342D01*
X27422476Y63534961D01*
X27212952Y63896866D02*
X27212952Y64144485D01*
X27365333Y64011152D01*
X27365333Y64068295D01*
X27384380Y64106390D01*
X27403428Y64125438D01*
X27441523Y64144485D01*
X27536761Y64144485D01*
X27574857Y64125438D01*
X27593904Y64106390D01*
X27612952Y64068295D01*
X27612952Y63954009D01*
X27593904Y63915914D01*
X27574857Y63896866D01*
%TO.C,R4*%
D14*
X23677714Y54022219D02*
X23201523Y54022219D01*
X23153904Y53546028D01*
X23201523Y53593647D01*
X23296761Y53641266D01*
X23534857Y53641266D01*
X23630095Y53593647D01*
X23677714Y53546028D01*
X23725333Y53450790D01*
X23725333Y53212695D01*
X23677714Y53117457D01*
X23630095Y53069838D01*
X23534857Y53022219D01*
X23296761Y53022219D01*
X23201523Y53069838D01*
X23153904Y53117457D01*
X24677714Y53022219D02*
X24106285Y53022219D01*
X24392000Y53022219D02*
X24392000Y54022219D01*
X24296761Y53879361D01*
X24201523Y53784123D01*
X24106285Y53736504D01*
X25296761Y54022219D02*
X25392000Y54022219D01*
X25487238Y53974600D01*
X25534857Y53926980D01*
X25582476Y53831742D01*
X25630095Y53641266D01*
X25630095Y53403171D01*
X25582476Y53212695D01*
X25534857Y53117457D01*
X25487238Y53069838D01*
X25392000Y53022219D01*
X25296761Y53022219D01*
X25201523Y53069838D01*
X25153904Y53117457D01*
X25106285Y53212695D01*
X25058666Y53403171D01*
X25058666Y53641266D01*
X25106285Y53831742D01*
X25153904Y53926980D01*
X25201523Y53974600D01*
X25296761Y54022219D01*
X26630095Y53022219D02*
X26296761Y53498409D01*
X26058666Y53022219D02*
X26058666Y54022219D01*
X26439619Y54022219D01*
X26534857Y53974600D01*
X26582476Y53926980D01*
X26630095Y53831742D01*
X26630095Y53688885D01*
X26582476Y53593647D01*
X26534857Y53546028D01*
X26439619Y53498409D01*
X26058666Y53498409D01*
D12*
X24825333Y51863647D02*
X24692000Y52054123D01*
X24596761Y51863647D02*
X24596761Y52263647D01*
X24749142Y52263647D01*
X24787238Y52244600D01*
X24806285Y52225552D01*
X24825333Y52187457D01*
X24825333Y52130314D01*
X24806285Y52092219D01*
X24787238Y52073171D01*
X24749142Y52054123D01*
X24596761Y52054123D01*
X25168190Y52130314D02*
X25168190Y51863647D01*
X25072952Y52282695D02*
X24977714Y51996980D01*
X25225333Y51996980D01*
%TO.C,R5*%
D14*
X29197580Y59329771D02*
X29197580Y58758342D01*
X29197580Y59044057D02*
X28197580Y59044057D01*
X28340438Y58948819D01*
X28435676Y58853580D01*
X28483295Y58758342D01*
X28197580Y59948819D02*
X28197580Y60044057D01*
X28245200Y60139295D01*
X28292819Y60186914D01*
X28388057Y60234533D01*
X28578533Y60282152D01*
X28816628Y60282152D01*
X29007104Y60234533D01*
X29102342Y60186914D01*
X29149961Y60139295D01*
X29197580Y60044057D01*
X29197580Y59948819D01*
X29149961Y59853580D01*
X29102342Y59805961D01*
X29007104Y59758342D01*
X28816628Y59710723D01*
X28578533Y59710723D01*
X28388057Y59758342D01*
X28292819Y59805961D01*
X28245200Y59853580D01*
X28197580Y59948819D01*
X28197580Y60901200D02*
X28197580Y60996438D01*
X28245200Y61091676D01*
X28292819Y61139295D01*
X28388057Y61186914D01*
X28578533Y61234533D01*
X28816628Y61234533D01*
X29007104Y61186914D01*
X29102342Y61139295D01*
X29149961Y61091676D01*
X29197580Y60996438D01*
X29197580Y60901200D01*
X29149961Y60805961D01*
X29102342Y60758342D01*
X29007104Y60710723D01*
X28816628Y60663104D01*
X28578533Y60663104D01*
X28388057Y60710723D01*
X28292819Y60758342D01*
X28245200Y60805961D01*
X28197580Y60901200D01*
X29197580Y61663104D02*
X28197580Y61663104D01*
X28816628Y61758342D02*
X29197580Y62044057D01*
X28530914Y62044057D02*
X28911866Y61663104D01*
D12*
X30356152Y60334533D02*
X30165676Y60201200D01*
X30356152Y60105961D02*
X29956152Y60105961D01*
X29956152Y60258342D01*
X29975200Y60296438D01*
X29994247Y60315485D01*
X30032342Y60334533D01*
X30089485Y60334533D01*
X30127580Y60315485D01*
X30146628Y60296438D01*
X30165676Y60258342D01*
X30165676Y60105961D01*
X29956152Y60696438D02*
X29956152Y60505961D01*
X30146628Y60486914D01*
X30127580Y60505961D01*
X30108533Y60544057D01*
X30108533Y60639295D01*
X30127580Y60677390D01*
X30146628Y60696438D01*
X30184723Y60715485D01*
X30279961Y60715485D01*
X30318057Y60696438D01*
X30337104Y60677390D01*
X30356152Y60639295D01*
X30356152Y60544057D01*
X30337104Y60505961D01*
X30318057Y60486914D01*
%TO.C,R6*%
D14*
X27775180Y59329771D02*
X27775180Y58758342D01*
X27775180Y59044057D02*
X26775180Y59044057D01*
X26918038Y58948819D01*
X27013276Y58853580D01*
X27060895Y58758342D01*
X26775180Y59948819D02*
X26775180Y60044057D01*
X26822800Y60139295D01*
X26870419Y60186914D01*
X26965657Y60234533D01*
X27156133Y60282152D01*
X27394228Y60282152D01*
X27584704Y60234533D01*
X27679942Y60186914D01*
X27727561Y60139295D01*
X27775180Y60044057D01*
X27775180Y59948819D01*
X27727561Y59853580D01*
X27679942Y59805961D01*
X27584704Y59758342D01*
X27394228Y59710723D01*
X27156133Y59710723D01*
X26965657Y59758342D01*
X26870419Y59805961D01*
X26822800Y59853580D01*
X26775180Y59948819D01*
X26775180Y60901200D02*
X26775180Y60996438D01*
X26822800Y61091676D01*
X26870419Y61139295D01*
X26965657Y61186914D01*
X27156133Y61234533D01*
X27394228Y61234533D01*
X27584704Y61186914D01*
X27679942Y61139295D01*
X27727561Y61091676D01*
X27775180Y60996438D01*
X27775180Y60901200D01*
X27727561Y60805961D01*
X27679942Y60758342D01*
X27584704Y60710723D01*
X27394228Y60663104D01*
X27156133Y60663104D01*
X26965657Y60710723D01*
X26870419Y60758342D01*
X26822800Y60805961D01*
X26775180Y60901200D01*
X27775180Y61663104D02*
X26775180Y61663104D01*
X27394228Y61758342D02*
X27775180Y62044057D01*
X27108514Y62044057D02*
X27489466Y61663104D01*
D12*
X28933752Y60334533D02*
X28743276Y60201200D01*
X28933752Y60105961D02*
X28533752Y60105961D01*
X28533752Y60258342D01*
X28552800Y60296438D01*
X28571847Y60315485D01*
X28609942Y60334533D01*
X28667085Y60334533D01*
X28705180Y60315485D01*
X28724228Y60296438D01*
X28743276Y60258342D01*
X28743276Y60105961D01*
X28533752Y60677390D02*
X28533752Y60601200D01*
X28552800Y60563104D01*
X28571847Y60544057D01*
X28628990Y60505961D01*
X28705180Y60486914D01*
X28857561Y60486914D01*
X28895657Y60505961D01*
X28914704Y60525009D01*
X28933752Y60563104D01*
X28933752Y60639295D01*
X28914704Y60677390D01*
X28895657Y60696438D01*
X28857561Y60715485D01*
X28762323Y60715485D01*
X28724228Y60696438D01*
X28705180Y60677390D01*
X28686133Y60639295D01*
X28686133Y60563104D01*
X28705180Y60525009D01*
X28724228Y60505961D01*
X28762323Y60486914D01*
%TO.C,U3*%
D14*
X28904780Y53934123D02*
X27904780Y53934123D01*
X28619066Y54267457D01*
X27904780Y54600790D01*
X28904780Y54600790D01*
X28380971Y55076980D02*
X28380971Y55410314D01*
X28904780Y55553171D02*
X28904780Y55076980D01*
X27904780Y55076980D01*
X27904780Y55553171D01*
X27904780Y56410314D02*
X27904780Y56219838D01*
X27952400Y56124600D01*
X28000019Y56076980D01*
X28142876Y55981742D01*
X28333352Y55934123D01*
X28714304Y55934123D01*
X28809542Y55981742D01*
X28857161Y56029361D01*
X28904780Y56124600D01*
X28904780Y56315076D01*
X28857161Y56410314D01*
X28809542Y56457933D01*
X28714304Y56505552D01*
X28476209Y56505552D01*
X28380971Y56457933D01*
X28333352Y56410314D01*
X28285733Y56315076D01*
X28285733Y56124600D01*
X28333352Y56029361D01*
X28380971Y55981742D01*
X28476209Y55934123D01*
X28000019Y56886504D02*
X27952400Y56934123D01*
X27904780Y57029361D01*
X27904780Y57267457D01*
X27952400Y57362695D01*
X28000019Y57410314D01*
X28095257Y57457933D01*
X28190495Y57457933D01*
X28333352Y57410314D01*
X28904780Y56838885D01*
X28904780Y57457933D01*
X28904780Y58410314D02*
X28904780Y57838885D01*
X28904780Y58124600D02*
X27904780Y58124600D01*
X28047638Y58029361D01*
X28142876Y57934123D01*
X28190495Y57838885D01*
X28904780Y59362695D02*
X28904780Y58791266D01*
X28904780Y59076980D02*
X27904780Y59076980D01*
X28047638Y58981742D01*
X28142876Y58886504D01*
X28190495Y58791266D01*
X28809542Y60362695D02*
X28857161Y60315076D01*
X28904780Y60172219D01*
X28904780Y60076980D01*
X28857161Y59934123D01*
X28761923Y59838885D01*
X28666685Y59791266D01*
X28476209Y59743647D01*
X28333352Y59743647D01*
X28142876Y59791266D01*
X28047638Y59838885D01*
X27952400Y59934123D01*
X27904780Y60076980D01*
X27904780Y60172219D01*
X27952400Y60315076D01*
X28000019Y60362695D01*
D15*
X25171447Y57398409D02*
X25171447Y56993647D01*
X25195257Y56946028D01*
X25219066Y56922219D01*
X25266685Y56898409D01*
X25361923Y56898409D01*
X25409542Y56922219D01*
X25433352Y56946028D01*
X25457161Y56993647D01*
X25457161Y57398409D01*
X25647638Y57398409D02*
X25957161Y57398409D01*
X25790495Y57207933D01*
X25861923Y57207933D01*
X25909542Y57184123D01*
X25933352Y57160314D01*
X25957161Y57112695D01*
X25957161Y56993647D01*
X25933352Y56946028D01*
X25909542Y56922219D01*
X25861923Y56898409D01*
X25719066Y56898409D01*
X25671447Y56922219D01*
X25647638Y56946028D01*
%TO.C,U4*%
D14*
X55206142Y54271019D02*
X54872809Y54747209D01*
X54634714Y54271019D02*
X54634714Y55271019D01*
X55015666Y55271019D01*
X55110904Y55223400D01*
X55158523Y55175780D01*
X55206142Y55080542D01*
X55206142Y54937685D01*
X55158523Y54842447D01*
X55110904Y54794828D01*
X55015666Y54747209D01*
X54634714Y54747209D01*
X55968047Y54794828D02*
X55634714Y54794828D01*
X55634714Y54271019D02*
X55634714Y55271019D01*
X56110904Y55271019D01*
X56491857Y54271019D02*
X56491857Y55271019D01*
X56825190Y54556733D01*
X57158523Y55271019D01*
X57158523Y54271019D01*
X57682333Y54271019D02*
X57872809Y54271019D01*
X57968047Y54318638D01*
X58015666Y54366257D01*
X58110904Y54509114D01*
X58158523Y54699590D01*
X58158523Y55080542D01*
X58110904Y55175780D01*
X58063285Y55223400D01*
X57968047Y55271019D01*
X57777571Y55271019D01*
X57682333Y55223400D01*
X57634714Y55175780D01*
X57587095Y55080542D01*
X57587095Y54842447D01*
X57634714Y54747209D01*
X57682333Y54699590D01*
X57777571Y54651971D01*
X57968047Y54651971D01*
X58063285Y54699590D01*
X58110904Y54747209D01*
X58158523Y54842447D01*
X58491857Y55271019D02*
X59158523Y54271019D01*
X59158523Y55271019D02*
X58491857Y54271019D01*
X56087095Y57771019D02*
X56087095Y56961495D01*
X56134714Y56866257D01*
X56182333Y56818638D01*
X56277571Y56771019D01*
X56468047Y56771019D01*
X56563285Y56818638D01*
X56610904Y56866257D01*
X56658523Y56961495D01*
X56658523Y57771019D01*
X57563285Y57437685D02*
X57563285Y56771019D01*
X57325190Y57818638D02*
X57087095Y57104352D01*
X57706142Y57104352D01*
%TO.C,U2*%
X30937105Y64930004D02*
X31273822Y64593287D01*
X30667731Y64795317D02*
X31610540Y65266722D01*
X31139135Y64323913D01*
X31980929Y64896332D02*
X32384990Y64492271D01*
X31475853Y63987195D02*
X32182959Y64694302D01*
X31913585Y63616806D02*
X31980929Y63482119D01*
X32149288Y63313760D01*
X32250303Y63280088D01*
X32317646Y63280088D01*
X32418662Y63313760D01*
X32486005Y63381104D01*
X32519677Y63482119D01*
X32519677Y63549462D01*
X32486005Y63650478D01*
X32384990Y63818836D01*
X32351318Y63919852D01*
X32351318Y63987195D01*
X32384990Y64088210D01*
X32452333Y64155554D01*
X32553349Y64189226D01*
X32620692Y64189226D01*
X32721707Y64155554D01*
X32890066Y63987195D01*
X32957410Y63852508D01*
X32755379Y63111730D02*
X33092097Y62775012D01*
X32486005Y62977043D02*
X33428814Y63448447D01*
X32957410Y62505638D01*
X33193112Y62269936D02*
X33900219Y62977043D01*
X33630845Y62236264D01*
X34371623Y62505638D01*
X33664517Y61798531D01*
X34001234Y61461814D02*
X34708341Y62168920D01*
X34876700Y62000562D01*
X34944043Y61865875D01*
X34944043Y61731188D01*
X34910371Y61630172D01*
X34809356Y61461814D01*
X34708341Y61360798D01*
X34539982Y61259783D01*
X34438967Y61226111D01*
X34304280Y61226111D01*
X34169593Y61293455D01*
X34001234Y61461814D01*
X35314432Y61428142D02*
X35381776Y61428142D01*
X35482791Y61394470D01*
X35651150Y61226111D01*
X35684822Y61125096D01*
X35684822Y61057753D01*
X35651150Y60956737D01*
X35583806Y60889394D01*
X35449119Y60822050D01*
X34640997Y60822050D01*
X35078730Y60384318D01*
X35752165Y59710883D02*
X35348104Y60114944D01*
X35550135Y59912913D02*
X36257241Y60620020D01*
X36088883Y60586348D01*
X35954196Y60586348D01*
X35853180Y60620020D01*
X36425600Y59778226D02*
X36661302Y59542524D01*
X36391928Y59071119D02*
X36055211Y59407837D01*
X36762318Y60114944D01*
X37099035Y59778226D01*
X37065363Y58397684D02*
X36661302Y58801745D01*
X36863333Y58599715D02*
X37570440Y59306822D01*
X37402081Y59273150D01*
X37267394Y59273150D01*
X37166379Y59306822D01*
X37873485Y58397684D02*
X37839814Y58498700D01*
X37839814Y58566043D01*
X37873485Y58667058D01*
X37907157Y58700730D01*
X38008172Y58734402D01*
X38075516Y58734402D01*
X38176531Y58700730D01*
X38311218Y58566043D01*
X38344890Y58465028D01*
X38344890Y58397684D01*
X38311218Y58296669D01*
X38277546Y58262997D01*
X38176531Y58229326D01*
X38109188Y58229326D01*
X38008172Y58262997D01*
X37873485Y58397684D01*
X37772470Y58431356D01*
X37705127Y58431356D01*
X37604111Y58397684D01*
X37469424Y58262997D01*
X37435753Y58161982D01*
X37435753Y58094639D01*
X37469424Y57993623D01*
X37604111Y57858936D01*
X37705127Y57825265D01*
X37772470Y57825265D01*
X37873485Y57858936D01*
X38008172Y57993623D01*
X38041844Y58094639D01*
X38041844Y58161982D01*
X38008172Y58262997D01*
X38210203Y57656906D02*
X38546920Y57320188D01*
X37940829Y57522219D02*
X38883638Y57993623D01*
X38412233Y57050814D01*
X38917310Y57084486D02*
X39456058Y56545738D01*
X39691760Y56175349D02*
X40028478Y55838631D01*
X39422386Y56040662D02*
X40365195Y56512066D01*
X39893791Y55569257D01*
X40836600Y56040662D02*
X40264180Y55468242D01*
X40230508Y55367227D01*
X40230508Y55299883D01*
X40264180Y55198868D01*
X40398867Y55064181D01*
X40499882Y55030509D01*
X40567226Y55030509D01*
X40668241Y55064181D01*
X41240661Y55636601D01*
X41476363Y55400898D02*
X41880424Y54996837D01*
X40971287Y54491761D02*
X41678393Y55198868D01*
X33401877Y58101373D02*
X32829457Y57528953D01*
X32795785Y57427938D01*
X32795785Y57360594D01*
X32829457Y57259579D01*
X32964144Y57124892D01*
X33065159Y57091220D01*
X33132503Y57091220D01*
X33233518Y57124892D01*
X33805938Y57697312D01*
X34041640Y57326922D02*
X34108983Y57326922D01*
X34209999Y57293251D01*
X34378357Y57124892D01*
X34412029Y57023877D01*
X34412029Y56956533D01*
X34378357Y56855518D01*
X34311014Y56788174D01*
X34176327Y56720831D01*
X33368205Y56720831D01*
X33805938Y56283098D01*
%TO.C,SW1*%
D10*
X40903200Y63612742D02*
X40988914Y63584171D01*
X41131771Y63584171D01*
X41188914Y63612742D01*
X41217485Y63641314D01*
X41246057Y63698457D01*
X41246057Y63755600D01*
X41217485Y63812742D01*
X41188914Y63841314D01*
X41131771Y63869885D01*
X41017485Y63898457D01*
X40960342Y63927028D01*
X40931771Y63955600D01*
X40903200Y64012742D01*
X40903200Y64069885D01*
X40931771Y64127028D01*
X40960342Y64155600D01*
X41017485Y64184171D01*
X41160342Y64184171D01*
X41246057Y64155600D01*
X41446057Y64184171D02*
X41588914Y63584171D01*
X41703200Y64012742D01*
X41817485Y63584171D01*
X41960342Y64184171D01*
X42503200Y63584171D02*
X42160342Y63584171D01*
X42331771Y63584171D02*
X42331771Y64184171D01*
X42274628Y64098457D01*
X42217485Y64041314D01*
X42160342Y64012742D01*
%TO.C,SW2*%
X31585000Y63612742D02*
X31670714Y63584171D01*
X31813571Y63584171D01*
X31870714Y63612742D01*
X31899285Y63641314D01*
X31927857Y63698457D01*
X31927857Y63755600D01*
X31899285Y63812742D01*
X31870714Y63841314D01*
X31813571Y63869885D01*
X31699285Y63898457D01*
X31642142Y63927028D01*
X31613571Y63955600D01*
X31585000Y64012742D01*
X31585000Y64069885D01*
X31613571Y64127028D01*
X31642142Y64155600D01*
X31699285Y64184171D01*
X31842142Y64184171D01*
X31927857Y64155600D01*
X32127857Y64184171D02*
X32270714Y63584171D01*
X32385000Y64012742D01*
X32499285Y63584171D01*
X32642142Y64184171D01*
X32842142Y64127028D02*
X32870714Y64155600D01*
X32927857Y64184171D01*
X33070714Y64184171D01*
X33127857Y64155600D01*
X33156428Y64127028D01*
X33185000Y64069885D01*
X33185000Y64012742D01*
X33156428Y63927028D01*
X32813571Y63584171D01*
X33185000Y63584171D01*
%TO.C,J1*%
D14*
X26297342Y46630104D02*
X26344961Y46582485D01*
X26392580Y46439628D01*
X26392580Y46344390D01*
X26344961Y46201533D01*
X26249723Y46106295D01*
X26154485Y46058676D01*
X25964009Y46011057D01*
X25821152Y46011057D01*
X25630676Y46058676D01*
X25535438Y46106295D01*
X25440200Y46201533D01*
X25392580Y46344390D01*
X25392580Y46439628D01*
X25440200Y46582485D01*
X25487819Y46630104D01*
X26392580Y47201533D02*
X26344961Y47106295D01*
X26297342Y47058676D01*
X26202104Y47011057D01*
X25916390Y47011057D01*
X25821152Y47058676D01*
X25773533Y47106295D01*
X25725914Y47201533D01*
X25725914Y47344390D01*
X25773533Y47439628D01*
X25821152Y47487247D01*
X25916390Y47534866D01*
X26202104Y47534866D01*
X26297342Y47487247D01*
X26344961Y47439628D01*
X26392580Y47344390D01*
X26392580Y47201533D01*
X25725914Y47963438D02*
X26392580Y47963438D01*
X25821152Y47963438D02*
X25773533Y48011057D01*
X25725914Y48106295D01*
X25725914Y48249152D01*
X25773533Y48344390D01*
X25868771Y48392009D01*
X26392580Y48392009D01*
X25725914Y48868200D02*
X26392580Y48868200D01*
X25821152Y48868200D02*
X25773533Y48915819D01*
X25725914Y49011057D01*
X25725914Y49153914D01*
X25773533Y49249152D01*
X25868771Y49296771D01*
X26392580Y49296771D01*
X26487819Y49534866D02*
X26487819Y50296771D01*
X25392580Y50725342D02*
X25392580Y50820580D01*
X25440200Y50915819D01*
X25487819Y50963438D01*
X25583057Y51011057D01*
X25773533Y51058676D01*
X26011628Y51058676D01*
X26202104Y51011057D01*
X26297342Y50963438D01*
X26344961Y50915819D01*
X26392580Y50820580D01*
X26392580Y50725342D01*
X26344961Y50630104D01*
X26297342Y50582485D01*
X26202104Y50534866D01*
X26011628Y50487247D01*
X25773533Y50487247D01*
X25583057Y50534866D01*
X25487819Y50582485D01*
X25440200Y50630104D01*
X25392580Y50725342D01*
X26392580Y52011057D02*
X26392580Y51439628D01*
X26392580Y51725342D02*
X25392580Y51725342D01*
X25535438Y51630104D01*
X25630676Y51534866D01*
X25678295Y51439628D01*
X26392580Y52344390D02*
X25725914Y52868200D01*
X25725914Y52344390D02*
X26392580Y52868200D01*
X25392580Y53439628D02*
X25392580Y53534866D01*
X25440200Y53630104D01*
X25487819Y53677723D01*
X25583057Y53725342D01*
X25773533Y53772961D01*
X26011628Y53772961D01*
X26202104Y53725342D01*
X26297342Y53677723D01*
X26344961Y53630104D01*
X26392580Y53534866D01*
X26392580Y53439628D01*
X26344961Y53344390D01*
X26297342Y53296771D01*
X26202104Y53249152D01*
X26011628Y53201533D01*
X25773533Y53201533D01*
X25583057Y53249152D01*
X25487819Y53296771D01*
X25440200Y53344390D01*
X25392580Y53439628D01*
X25392580Y54106295D02*
X25392580Y54772961D01*
X26392580Y54344390D01*
X35556866Y50915819D02*
X35556866Y50201533D01*
X35509247Y50058676D01*
X35414009Y49963438D01*
X35271152Y49915819D01*
X35175914Y49915819D01*
X36556866Y49915819D02*
X35985438Y49915819D01*
X36271152Y49915819D02*
X36271152Y50915819D01*
X36175914Y50772961D01*
X36080676Y50677723D01*
X35985438Y50630104D01*
%TD*%
M02*
