%TF.GenerationSoftware,KiCad,Pcbnew,(5.1.9)-1*%
%TF.CreationDate,2021-02-26T13:25:28+01:00*%
%TF.ProjectId,DynaLoRa_Dongle,44796e61-4c6f-4526-915f-446f6e676c65,rev?*%
%TF.SameCoordinates,Original*%
%TF.FileFunction,Legend,Bot*%
%TF.FilePolarity,Positive*%
%FSLAX46Y46*%
G04 Gerber Fmt 4.6, Leading zero omitted, Abs format (unit mm)*
G04 Created by KiCad (PCBNEW (5.1.9)-1) date 2021-02-26 13:25:28*
%MOMM*%
%LPD*%
G01*
G04 APERTURE LIST*
%ADD10C,0.150000*%
%ADD11C,0.010000*%
%ADD12C,0.120000*%
G04 APERTURE END LIST*
D10*
X36393380Y54078095D02*
X35393380Y54078095D01*
X35393380Y53840000D01*
X35441000Y53697142D01*
X35536238Y53601904D01*
X35631476Y53554285D01*
X35821952Y53506666D01*
X35964809Y53506666D01*
X36155285Y53554285D01*
X36250523Y53601904D01*
X36345761Y53697142D01*
X36393380Y53840000D01*
X36393380Y54078095D01*
X35393380Y52887619D02*
X35393380Y52792380D01*
X35441000Y52697142D01*
X35488619Y52649523D01*
X35583857Y52601904D01*
X35774333Y52554285D01*
X36012428Y52554285D01*
X36202904Y52601904D01*
X36298142Y52649523D01*
X36345761Y52697142D01*
X36393380Y52792380D01*
X36393380Y52887619D01*
X36345761Y52982857D01*
X36298142Y53030476D01*
X36202904Y53078095D01*
X36012428Y53125714D01*
X35774333Y53125714D01*
X35583857Y53078095D01*
X35488619Y53030476D01*
X35441000Y52982857D01*
X35393380Y52887619D01*
X68256095Y52883342D02*
X67608476Y52883342D01*
X67532285Y52921438D01*
X67494190Y52959533D01*
X67456095Y53035723D01*
X67456095Y53188104D01*
X67494190Y53264295D01*
X67532285Y53302390D01*
X67608476Y53340485D01*
X68256095Y53340485D01*
X67494190Y53683342D02*
X67456095Y53797628D01*
X67456095Y53988104D01*
X67494190Y54064295D01*
X67532285Y54102390D01*
X67608476Y54140485D01*
X67684666Y54140485D01*
X67760857Y54102390D01*
X67798952Y54064295D01*
X67837047Y53988104D01*
X67875142Y53835723D01*
X67913238Y53759533D01*
X67951333Y53721438D01*
X68027523Y53683342D01*
X68103714Y53683342D01*
X68179904Y53721438D01*
X68218000Y53759533D01*
X68256095Y53835723D01*
X68256095Y54026200D01*
X68218000Y54140485D01*
X67875142Y54750009D02*
X67837047Y54864295D01*
X67798952Y54902390D01*
X67722761Y54940485D01*
X67608476Y54940485D01*
X67532285Y54902390D01*
X67494190Y54864295D01*
X67456095Y54788104D01*
X67456095Y54483342D01*
X68256095Y54483342D01*
X68256095Y54750009D01*
X68218000Y54826200D01*
X68179904Y54864295D01*
X68103714Y54902390D01*
X68027523Y54902390D01*
X67951333Y54864295D01*
X67913238Y54826200D01*
X67875142Y54750009D01*
X67875142Y54483342D01*
X67456095Y55892866D02*
X68256095Y55892866D01*
X68256095Y56083342D01*
X68218000Y56197628D01*
X68141809Y56273819D01*
X68065619Y56311914D01*
X67913238Y56350009D01*
X67798952Y56350009D01*
X67646571Y56311914D01*
X67570380Y56273819D01*
X67494190Y56197628D01*
X67456095Y56083342D01*
X67456095Y55892866D01*
X67456095Y56807152D02*
X67494190Y56730961D01*
X67532285Y56692866D01*
X67608476Y56654771D01*
X67837047Y56654771D01*
X67913238Y56692866D01*
X67951333Y56730961D01*
X67989428Y56807152D01*
X67989428Y56921438D01*
X67951333Y56997628D01*
X67913238Y57035723D01*
X67837047Y57073819D01*
X67608476Y57073819D01*
X67532285Y57035723D01*
X67494190Y56997628D01*
X67456095Y56921438D01*
X67456095Y56807152D01*
X67989428Y57416676D02*
X67456095Y57416676D01*
X67913238Y57416676D02*
X67951333Y57454771D01*
X67989428Y57530961D01*
X67989428Y57645247D01*
X67951333Y57721438D01*
X67875142Y57759533D01*
X67456095Y57759533D01*
X67989428Y58483342D02*
X67341809Y58483342D01*
X67265619Y58445247D01*
X67227523Y58407152D01*
X67189428Y58330961D01*
X67189428Y58216676D01*
X67227523Y58140485D01*
X67494190Y58483342D02*
X67456095Y58407152D01*
X67456095Y58254771D01*
X67494190Y58178580D01*
X67532285Y58140485D01*
X67608476Y58102390D01*
X67837047Y58102390D01*
X67913238Y58140485D01*
X67951333Y58178580D01*
X67989428Y58254771D01*
X67989428Y58407152D01*
X67951333Y58483342D01*
X67456095Y58978580D02*
X67494190Y58902390D01*
X67570380Y58864295D01*
X68256095Y58864295D01*
X67494190Y59588104D02*
X67456095Y59511914D01*
X67456095Y59359533D01*
X67494190Y59283342D01*
X67570380Y59245247D01*
X67875142Y59245247D01*
X67951333Y59283342D01*
X67989428Y59359533D01*
X67989428Y59511914D01*
X67951333Y59588104D01*
X67875142Y59626200D01*
X67798952Y59626200D01*
X67722761Y59245247D01*
X67989428Y60502390D02*
X67456095Y60692866D01*
X67989428Y60883342D01*
X68256095Y61111914D02*
X68256095Y61607152D01*
X67951333Y61340485D01*
X67951333Y61454771D01*
X67913238Y61530961D01*
X67875142Y61569057D01*
X67798952Y61607152D01*
X67608476Y61607152D01*
X67532285Y61569057D01*
X67494190Y61530961D01*
X67456095Y61454771D01*
X67456095Y61226200D01*
X67494190Y61150009D01*
X67532285Y61111914D01*
X59145133Y64165219D02*
X59145133Y64831885D01*
X59145133Y64736647D02*
X59097514Y64784266D01*
X59002276Y64831885D01*
X58859419Y64831885D01*
X58764180Y64784266D01*
X58716561Y64689028D01*
X58716561Y64165219D01*
X58716561Y64689028D02*
X58668942Y64784266D01*
X58573704Y64831885D01*
X58430847Y64831885D01*
X58335609Y64784266D01*
X58287990Y64689028D01*
X58287990Y64165219D01*
X57811800Y64165219D02*
X57811800Y64831885D01*
X57811800Y65165219D02*
X57859419Y65117600D01*
X57811800Y65069980D01*
X57764180Y65117600D01*
X57811800Y65165219D01*
X57811800Y65069980D01*
X56907038Y64212838D02*
X57002276Y64165219D01*
X57192752Y64165219D01*
X57287990Y64212838D01*
X57335609Y64260457D01*
X57383228Y64355695D01*
X57383228Y64641409D01*
X57335609Y64736647D01*
X57287990Y64784266D01*
X57192752Y64831885D01*
X57002276Y64831885D01*
X56907038Y64784266D01*
X56478466Y64165219D02*
X56478466Y64831885D01*
X56478466Y64641409D02*
X56430847Y64736647D01*
X56383228Y64784266D01*
X56287990Y64831885D01*
X56192752Y64831885D01*
X55716561Y64165219D02*
X55811800Y64212838D01*
X55859419Y64260457D01*
X55907038Y64355695D01*
X55907038Y64641409D01*
X55859419Y64736647D01*
X55811800Y64784266D01*
X55716561Y64831885D01*
X55573704Y64831885D01*
X55478466Y64784266D01*
X55430847Y64736647D01*
X55383228Y64641409D01*
X55383228Y64355695D01*
X55430847Y64260457D01*
X55478466Y64212838D01*
X55573704Y64165219D01*
X55716561Y64165219D01*
X55002276Y64212838D02*
X54859419Y64165219D01*
X54621323Y64165219D01*
X54526085Y64212838D01*
X54478466Y64260457D01*
X54430847Y64355695D01*
X54430847Y64450933D01*
X54478466Y64546171D01*
X54526085Y64593790D01*
X54621323Y64641409D01*
X54811800Y64689028D01*
X54907038Y64736647D01*
X54954657Y64784266D01*
X55002276Y64879504D01*
X55002276Y64974742D01*
X54954657Y65069980D01*
X54907038Y65117600D01*
X54811800Y65165219D01*
X54573704Y65165219D01*
X54430847Y65117600D01*
X54002276Y64165219D02*
X54002276Y65165219D01*
X53764180Y65165219D01*
X53621323Y65117600D01*
X53526085Y65022361D01*
X53478466Y64927123D01*
X53430847Y64736647D01*
X53430847Y64593790D01*
X53478466Y64403314D01*
X53526085Y64308076D01*
X53621323Y64212838D01*
X53764180Y64165219D01*
X54002276Y64165219D01*
X43569000Y54609904D02*
X43521380Y54705142D01*
X43521380Y54848000D01*
X43569000Y54990857D01*
X43664238Y55086095D01*
X43759476Y55133714D01*
X43949952Y55181333D01*
X44092809Y55181333D01*
X44283285Y55133714D01*
X44378523Y55086095D01*
X44473761Y54990857D01*
X44521380Y54848000D01*
X44521380Y54752761D01*
X44473761Y54609904D01*
X44426142Y54562285D01*
X44092809Y54562285D01*
X44092809Y54752761D01*
X44521380Y54133714D02*
X43521380Y54133714D01*
X44521380Y53562285D01*
X43521380Y53562285D01*
X44521380Y53086095D02*
X43521380Y53086095D01*
X43521380Y52848000D01*
X43569000Y52705142D01*
X43664238Y52609904D01*
X43759476Y52562285D01*
X43949952Y52514666D01*
X44092809Y52514666D01*
X44283285Y52562285D01*
X44378523Y52609904D01*
X44473761Y52705142D01*
X44521380Y52848000D01*
X44521380Y53086095D01*
X41092428Y54959095D02*
X41044809Y54911476D01*
X40997190Y54816238D01*
X41092428Y54625761D01*
X41044809Y54530523D01*
X40997190Y54482904D01*
X41473380Y54101952D02*
X40473380Y54101952D01*
X40473380Y53863857D01*
X40521000Y53721000D01*
X40616238Y53625761D01*
X40711476Y53578142D01*
X40901952Y53530523D01*
X41044809Y53530523D01*
X41235285Y53578142D01*
X41330523Y53625761D01*
X41425761Y53721000D01*
X41473380Y53863857D01*
X41473380Y54101952D01*
X40568619Y53149571D02*
X40521000Y53101952D01*
X40473380Y53006714D01*
X40473380Y52768619D01*
X40521000Y52673380D01*
X40568619Y52625761D01*
X40663857Y52578142D01*
X40759095Y52578142D01*
X40901952Y52625761D01*
X41473380Y53197190D01*
X41473380Y52578142D01*
X38933380Y54078095D02*
X37933380Y54078095D01*
X37933380Y53840000D01*
X37981000Y53697142D01*
X38076238Y53601904D01*
X38171476Y53554285D01*
X38361952Y53506666D01*
X38504809Y53506666D01*
X38695285Y53554285D01*
X38790523Y53601904D01*
X38885761Y53697142D01*
X38933380Y53840000D01*
X38933380Y54078095D01*
X38933380Y52554285D02*
X38933380Y53125714D01*
X38933380Y52840000D02*
X37933380Y52840000D01*
X38076238Y52935238D01*
X38171476Y53030476D01*
X38219095Y53125714D01*
X33853380Y54078095D02*
X32853380Y54078095D01*
X32853380Y53840000D01*
X32901000Y53697142D01*
X32996238Y53601904D01*
X33091476Y53554285D01*
X33281952Y53506666D01*
X33424809Y53506666D01*
X33615285Y53554285D01*
X33710523Y53601904D01*
X33805761Y53697142D01*
X33853380Y53840000D01*
X33853380Y54078095D01*
X33186714Y52649523D02*
X33853380Y52649523D01*
X32805761Y52887619D02*
X33520047Y53125714D01*
X33520047Y52506666D01*
X31313380Y54078095D02*
X30313380Y54078095D01*
X30313380Y53840000D01*
X30361000Y53697142D01*
X30456238Y53601904D01*
X30551476Y53554285D01*
X30741952Y53506666D01*
X30884809Y53506666D01*
X31075285Y53554285D01*
X31170523Y53601904D01*
X31265761Y53697142D01*
X31313380Y53840000D01*
X31313380Y54078095D01*
X30313380Y53173333D02*
X30313380Y52554285D01*
X30694333Y52887619D01*
X30694333Y52744761D01*
X30741952Y52649523D01*
X30789571Y52601904D01*
X30884809Y52554285D01*
X31122904Y52554285D01*
X31218142Y52601904D01*
X31265761Y52649523D01*
X31313380Y52744761D01*
X31313380Y53030476D01*
X31265761Y53125714D01*
X31218142Y53173333D01*
X27773380Y54959095D02*
X27773380Y54340047D01*
X28154333Y54673380D01*
X28154333Y54530523D01*
X28201952Y54435285D01*
X28249571Y54387666D01*
X28344809Y54340047D01*
X28582904Y54340047D01*
X28678142Y54387666D01*
X28725761Y54435285D01*
X28773380Y54530523D01*
X28773380Y54816238D01*
X28725761Y54911476D01*
X28678142Y54959095D01*
X27773380Y54054333D02*
X28773380Y53721000D01*
X27773380Y53387666D01*
X27773380Y53149571D02*
X27773380Y52530523D01*
X28154333Y52863857D01*
X28154333Y52721000D01*
X28201952Y52625761D01*
X28249571Y52578142D01*
X28344809Y52530523D01*
X28582904Y52530523D01*
X28678142Y52578142D01*
X28725761Y52625761D01*
X28773380Y52721000D01*
X28773380Y53006714D01*
X28725761Y53101952D01*
X28678142Y53149571D01*
X68853095Y54432533D02*
X69653095Y54432533D01*
X69653095Y54623009D01*
X69615000Y54737295D01*
X69538809Y54813485D01*
X69462619Y54851580D01*
X69310238Y54889676D01*
X69195952Y54889676D01*
X69043571Y54851580D01*
X68967380Y54813485D01*
X68891190Y54737295D01*
X68853095Y54623009D01*
X68853095Y54432533D01*
X69386428Y55156342D02*
X68853095Y55346819D01*
X69386428Y55537295D02*
X68853095Y55346819D01*
X68662619Y55270628D01*
X68624523Y55232533D01*
X68586428Y55156342D01*
X69386428Y55842057D02*
X68853095Y55842057D01*
X69310238Y55842057D02*
X69348333Y55880152D01*
X69386428Y55956342D01*
X69386428Y56070628D01*
X69348333Y56146819D01*
X69272142Y56184914D01*
X68853095Y56184914D01*
X68853095Y56908723D02*
X69272142Y56908723D01*
X69348333Y56870628D01*
X69386428Y56794438D01*
X69386428Y56642057D01*
X69348333Y56565866D01*
X68891190Y56908723D02*
X68853095Y56832533D01*
X68853095Y56642057D01*
X68891190Y56565866D01*
X68967380Y56527771D01*
X69043571Y56527771D01*
X69119761Y56565866D01*
X69157857Y56642057D01*
X69157857Y56832533D01*
X69195952Y56908723D01*
X68853095Y57670628D02*
X68853095Y57289676D01*
X69653095Y57289676D01*
X68853095Y58051580D02*
X68891190Y57975390D01*
X68929285Y57937295D01*
X69005476Y57899200D01*
X69234047Y57899200D01*
X69310238Y57937295D01*
X69348333Y57975390D01*
X69386428Y58051580D01*
X69386428Y58165866D01*
X69348333Y58242057D01*
X69310238Y58280152D01*
X69234047Y58318247D01*
X69005476Y58318247D01*
X68929285Y58280152D01*
X68891190Y58242057D01*
X68853095Y58165866D01*
X68853095Y58051580D01*
X68853095Y59118247D02*
X69234047Y58851580D01*
X68853095Y58661104D02*
X69653095Y58661104D01*
X69653095Y58965866D01*
X69615000Y59042057D01*
X69576904Y59080152D01*
X69500714Y59118247D01*
X69386428Y59118247D01*
X69310238Y59080152D01*
X69272142Y59042057D01*
X69234047Y58965866D01*
X69234047Y58661104D01*
X69081666Y59423009D02*
X69081666Y59803961D01*
X68853095Y59346819D02*
X69653095Y59613485D01*
X68853095Y59880152D01*
D11*
%TO.C,G\u002A\u002A\u002A*%
G36*
X43368913Y62097332D02*
G01*
X43315760Y62086797D01*
X43266971Y62074463D01*
X43220673Y62059723D01*
X43174991Y62041973D01*
X43128054Y62020607D01*
X43121263Y62017286D01*
X43067208Y61988670D01*
X43017836Y61958185D01*
X42971525Y61924690D01*
X42926649Y61887047D01*
X42899430Y61861700D01*
X42847694Y61807537D01*
X42801402Y61750104D01*
X42760555Y61689406D01*
X42725155Y61625445D01*
X42695203Y61558224D01*
X42670701Y61487746D01*
X42651651Y61414015D01*
X42639768Y61348938D01*
X42639399Y61343291D01*
X42639045Y61331545D01*
X42638705Y61313949D01*
X42638381Y61290755D01*
X42638071Y61262212D01*
X42637776Y61228570D01*
X42637496Y61190081D01*
X42637231Y61146994D01*
X42636981Y61099560D01*
X42636745Y61048029D01*
X42636525Y60992652D01*
X42636319Y60933678D01*
X42636128Y60871358D01*
X42635952Y60805943D01*
X42635791Y60737683D01*
X42635644Y60666828D01*
X42635513Y60593628D01*
X42635396Y60518335D01*
X42635294Y60441197D01*
X42635207Y60362466D01*
X42635135Y60282392D01*
X42635078Y60201226D01*
X42635035Y60119216D01*
X42635007Y60036615D01*
X42634995Y59953672D01*
X42634997Y59870638D01*
X42635013Y59787763D01*
X42635045Y59705297D01*
X42635092Y59623490D01*
X42635153Y59542594D01*
X42635229Y59462858D01*
X42635320Y59384533D01*
X42635426Y59307868D01*
X42635547Y59233116D01*
X42635682Y59160524D01*
X42635833Y59090345D01*
X42635998Y59022829D01*
X42636178Y58958225D01*
X42636373Y58896784D01*
X42636583Y58838757D01*
X42636808Y58784393D01*
X42637047Y58733944D01*
X42637301Y58687659D01*
X42637570Y58645789D01*
X42637854Y58608584D01*
X42638153Y58576294D01*
X42638467Y58549171D01*
X42638795Y58527463D01*
X42639139Y58511422D01*
X42639497Y58501298D01*
X42639768Y58497788D01*
X42654194Y58421300D01*
X42674072Y58348063D01*
X42699402Y58278080D01*
X42730182Y58211354D01*
X42766410Y58147889D01*
X42808084Y58087686D01*
X42855203Y58030750D01*
X42899430Y57985025D01*
X42944310Y57944239D01*
X42989638Y57908313D01*
X43037041Y57876105D01*
X43088146Y57846477D01*
X43121263Y57829462D01*
X43168071Y57807768D01*
X43213566Y57789638D01*
X43259581Y57774473D01*
X43307955Y57761676D01*
X43360522Y57750650D01*
X43367325Y57749395D01*
X43407013Y57742169D01*
X45194538Y57741780D01*
X45300852Y57741759D01*
X45405601Y57741742D01*
X45508605Y57741729D01*
X45609685Y57741721D01*
X45708660Y57741717D01*
X45805349Y57741717D01*
X45899572Y57741721D01*
X45991150Y57741728D01*
X46079902Y57741740D01*
X46165648Y57741755D01*
X46248207Y57741774D01*
X46327400Y57741796D01*
X46403046Y57741822D01*
X46474965Y57741852D01*
X46542977Y57741885D01*
X46606902Y57741921D01*
X46666559Y57741960D01*
X46721768Y57742002D01*
X46772349Y57742048D01*
X46818121Y57742096D01*
X46858906Y57742147D01*
X46894521Y57742201D01*
X46924788Y57742258D01*
X46949526Y57742318D01*
X46968554Y57742380D01*
X46981693Y57742444D01*
X46988762Y57742511D01*
X46990000Y57742549D01*
X46996690Y57743450D01*
X47007713Y57744855D01*
X47021099Y57746516D01*
X47026513Y57747176D01*
X47081849Y57756262D01*
X47139125Y57770098D01*
X47196756Y57788153D01*
X47253157Y57809892D01*
X47306743Y57834785D01*
X47338635Y57852014D01*
X47382647Y57878726D01*
X47422892Y57906409D01*
X47461200Y57936450D01*
X47499399Y57970238D01*
X47518143Y57988104D01*
X47569792Y58042663D01*
X47615970Y58100440D01*
X47656661Y58161406D01*
X47691851Y58225531D01*
X47721525Y58292785D01*
X47745667Y58363140D01*
X47764263Y58436566D01*
X47774708Y58494613D01*
X47775077Y58500257D01*
X47775431Y58512001D01*
X47775770Y58529594D01*
X47776094Y58552788D01*
X47776403Y58581331D01*
X47776698Y58614974D01*
X47776978Y58653466D01*
X47777242Y58696559D01*
X47777493Y58744000D01*
X47777728Y58795542D01*
X47777948Y58850932D01*
X47778154Y58909922D01*
X47778345Y58972262D01*
X47778521Y59037701D01*
X47778683Y59105989D01*
X47778829Y59176876D01*
X47778961Y59250112D01*
X47779078Y59325447D01*
X47779180Y59402632D01*
X47779267Y59481415D01*
X47779339Y59561547D01*
X47779397Y59642779D01*
X47779440Y59724859D01*
X47779468Y59807537D01*
X47779481Y59890565D01*
X47779480Y59973691D01*
X47779463Y60056666D01*
X47779432Y60139239D01*
X47779386Y60221161D01*
X47779325Y60302181D01*
X47779250Y60382049D01*
X47779159Y60460516D01*
X47779054Y60537332D01*
X47778934Y60612245D01*
X47778799Y60685007D01*
X47778650Y60755366D01*
X47778485Y60823074D01*
X47778306Y60887880D01*
X47778112Y60949534D01*
X47777903Y61007785D01*
X47777680Y61062385D01*
X47777441Y61113082D01*
X47777188Y61159627D01*
X47776920Y61201770D01*
X47776637Y61239261D01*
X47776339Y61271849D01*
X47776027Y61299284D01*
X47775699Y61321317D01*
X47775357Y61337698D01*
X47775000Y61348176D01*
X47774708Y61352113D01*
X47764859Y61404500D01*
X47183781Y61404500D01*
X47182749Y60298807D01*
X47181717Y59193113D01*
X47175012Y59153302D01*
X47159671Y59078981D01*
X47139265Y59008415D01*
X47113690Y58941393D01*
X47082839Y58877701D01*
X47046606Y58817127D01*
X47004886Y58759461D01*
X46957574Y58704489D01*
X46944032Y58690291D01*
X46891388Y58640303D01*
X46836209Y58595965D01*
X46777914Y58556886D01*
X46715927Y58522678D01*
X46654852Y58495053D01*
X46605346Y58476964D01*
X46552320Y58461551D01*
X46497685Y58449232D01*
X46443353Y58440424D01*
X46391236Y58435547D01*
X46380400Y58435048D01*
X46370312Y58434810D01*
X46354630Y58434620D01*
X46333810Y58434477D01*
X46308307Y58434378D01*
X46278576Y58434321D01*
X46245070Y58434304D01*
X46208246Y58434324D01*
X46168556Y58434379D01*
X46126457Y58434468D01*
X46082403Y58434588D01*
X46036849Y58434737D01*
X45990248Y58434913D01*
X45943057Y58435114D01*
X45895730Y58435336D01*
X45848720Y58435579D01*
X45802484Y58435841D01*
X45757476Y58436118D01*
X45714150Y58436408D01*
X45672962Y58436711D01*
X45634365Y58437023D01*
X45598815Y58437342D01*
X45566767Y58437666D01*
X45538674Y58437993D01*
X45514992Y58438321D01*
X45496176Y58438647D01*
X45482680Y58438970D01*
X45474958Y58439287D01*
X45473938Y58439370D01*
X45416301Y58448441D01*
X45360432Y58463388D01*
X45306710Y58483890D01*
X45255517Y58509625D01*
X45207233Y58540273D01*
X45162240Y58575511D01*
X45120917Y58615020D01*
X45083646Y58658477D01*
X45050807Y58705563D01*
X45022782Y58755955D01*
X44999950Y58809333D01*
X44986689Y58850327D01*
X44983544Y58861488D01*
X44980733Y58871602D01*
X44978239Y58881072D01*
X44976041Y58890299D01*
X44974122Y58899688D01*
X44972462Y58909641D01*
X44971043Y58920560D01*
X44969846Y58932850D01*
X44968851Y58946912D01*
X44968041Y58963149D01*
X44967397Y58981965D01*
X44966899Y59003761D01*
X44966529Y59028942D01*
X44966267Y59057910D01*
X44966096Y59091067D01*
X44965997Y59128817D01*
X44965949Y59171562D01*
X44965936Y59219705D01*
X44965937Y59273650D01*
X44965938Y59294713D01*
X44965937Y59350656D01*
X44965944Y59400666D01*
X44965977Y59445158D01*
X44966055Y59484549D01*
X44966194Y59519256D01*
X44966412Y59549694D01*
X44966726Y59576280D01*
X44967155Y59599430D01*
X44967715Y59619561D01*
X44968425Y59637089D01*
X44969301Y59652430D01*
X44970361Y59666001D01*
X44971624Y59678217D01*
X44973106Y59689496D01*
X44974824Y59700253D01*
X44976798Y59710905D01*
X44979043Y59721868D01*
X44981578Y59733559D01*
X44984420Y59746393D01*
X44985114Y59749528D01*
X45000051Y59805906D01*
X45019960Y59863462D01*
X45044132Y59920537D01*
X45071855Y59975476D01*
X45102421Y60026622D01*
X45106563Y60032900D01*
X45149020Y60090943D01*
X45196067Y60144938D01*
X45247319Y60194620D01*
X45302392Y60239724D01*
X45360900Y60279982D01*
X45422457Y60315130D01*
X45486679Y60344902D01*
X45553181Y60369031D01*
X45619024Y60386687D01*
X45631651Y60389512D01*
X45643051Y60392040D01*
X45653629Y60394289D01*
X45663791Y60396277D01*
X45673941Y60398021D01*
X45684485Y60399538D01*
X45695826Y60400845D01*
X45708369Y60401961D01*
X45722521Y60402903D01*
X45738684Y60403687D01*
X45757264Y60404333D01*
X45778667Y60404856D01*
X45803295Y60405275D01*
X45831556Y60405608D01*
X45863853Y60405870D01*
X45900590Y60406081D01*
X45942174Y60406258D01*
X45989008Y60406417D01*
X46041498Y60406576D01*
X46082744Y60406701D01*
X46443900Y60407804D01*
X46443900Y59918600D01*
X46125164Y59918600D01*
X46071932Y59918590D01*
X46024664Y59918554D01*
X45982977Y59918487D01*
X45946485Y59918385D01*
X45914804Y59918241D01*
X45887547Y59918050D01*
X45864332Y59917806D01*
X45844771Y59917505D01*
X45828481Y59917140D01*
X45815077Y59916707D01*
X45804173Y59916199D01*
X45795385Y59915612D01*
X45788328Y59914940D01*
X45782616Y59914177D01*
X45779882Y59913712D01*
X45731152Y59901837D01*
X45685787Y59884693D01*
X45643393Y59862071D01*
X45603577Y59833764D01*
X45569073Y59802713D01*
X45535921Y59765908D01*
X45508620Y59727246D01*
X45486803Y59686142D01*
X45472489Y59649432D01*
X45468917Y59638736D01*
X45465790Y59629221D01*
X45463076Y59620404D01*
X45460744Y59611804D01*
X45458762Y59602938D01*
X45457100Y59593326D01*
X45455725Y59582484D01*
X45454607Y59569932D01*
X45453714Y59555187D01*
X45453014Y59537768D01*
X45452475Y59517192D01*
X45452068Y59492978D01*
X45451759Y59464644D01*
X45451519Y59431708D01*
X45451314Y59393689D01*
X45451114Y59350104D01*
X45450977Y59319694D01*
X45450760Y59271435D01*
X45450595Y59229083D01*
X45450506Y59192194D01*
X45450516Y59160326D01*
X45450651Y59133036D01*
X45450933Y59109879D01*
X45451388Y59090414D01*
X45452038Y59074197D01*
X45452908Y59060784D01*
X45454022Y59049733D01*
X45455403Y59040600D01*
X45457076Y59032943D01*
X45459066Y59026318D01*
X45461395Y59020282D01*
X45464087Y59014393D01*
X45467168Y59008205D01*
X45467918Y59006725D01*
X45482227Y58984817D01*
X45501435Y58964802D01*
X45524135Y58947794D01*
X45548924Y58934906D01*
X45565595Y58929239D01*
X45569093Y58928565D01*
X45574464Y58927961D01*
X45582029Y58927423D01*
X45592106Y58926948D01*
X45605017Y58926533D01*
X45621080Y58926173D01*
X45640615Y58925866D01*
X45663943Y58925607D01*
X45691383Y58925394D01*
X45723254Y58925222D01*
X45759878Y58925088D01*
X45801572Y58924989D01*
X45848658Y58924921D01*
X45901455Y58924880D01*
X45960156Y58924863D01*
X46018615Y58924856D01*
X46071095Y58924855D01*
X46117966Y58924877D01*
X46159598Y58924934D01*
X46196362Y58925041D01*
X46228628Y58925214D01*
X46256767Y58925466D01*
X46281150Y58925812D01*
X46302146Y58926266D01*
X46320126Y58926843D01*
X46335461Y58927558D01*
X46348521Y58928424D01*
X46359677Y58929456D01*
X46369299Y58930669D01*
X46377758Y58932078D01*
X46385424Y58933696D01*
X46392667Y58935538D01*
X46399858Y58937619D01*
X46407368Y58939952D01*
X46415566Y58942554D01*
X46415925Y58942667D01*
X46447317Y58953886D01*
X46475918Y58967138D01*
X46504528Y58983773D01*
X46514065Y58989979D01*
X46554542Y59020632D01*
X46590638Y59055675D01*
X46622019Y59094673D01*
X46648349Y59137188D01*
X46669293Y59182785D01*
X46675460Y59199902D01*
X46677205Y59204951D01*
X46678842Y59209489D01*
X46680373Y59213722D01*
X46681803Y59217856D01*
X46683135Y59222099D01*
X46684373Y59226655D01*
X46685519Y59231731D01*
X46686578Y59237533D01*
X46687553Y59244268D01*
X46688447Y59252141D01*
X46689264Y59261360D01*
X46690008Y59272129D01*
X46690681Y59284656D01*
X46691287Y59299146D01*
X46691830Y59315806D01*
X46692313Y59334841D01*
X46692739Y59356459D01*
X46693113Y59380865D01*
X46693437Y59408265D01*
X46693715Y59438866D01*
X46693950Y59472874D01*
X46694147Y59510495D01*
X46694307Y59551935D01*
X46694436Y59597401D01*
X46694536Y59647098D01*
X46694610Y59701233D01*
X46694663Y59760013D01*
X46694697Y59823642D01*
X46694717Y59892328D01*
X46694725Y59966277D01*
X46694725Y60045694D01*
X46694721Y60130786D01*
X46694716Y60221760D01*
X46694713Y60318821D01*
X46694713Y60346432D01*
X46694725Y61404500D01*
X45450125Y61404500D01*
X45450125Y60491204D01*
X45417582Y60477515D01*
X45345619Y60443900D01*
X45277153Y60405129D01*
X45212420Y60361393D01*
X45151651Y60312883D01*
X45095082Y60259792D01*
X45042945Y60202311D01*
X44995474Y60140632D01*
X44980893Y60119419D01*
X44973403Y60108362D01*
X44967277Y60099612D01*
X44963318Y60094300D01*
X44962286Y60093225D01*
X44962178Y60096351D01*
X44962072Y60105531D01*
X44961970Y60120469D01*
X44961901Y60134937D01*
X44833821Y60134937D01*
X44833373Y60119882D01*
X44832299Y60106194D01*
X44830515Y60092214D01*
X44828189Y60077759D01*
X44815932Y60023727D01*
X44798366Y59972711D01*
X44775867Y59924907D01*
X44748816Y59880509D01*
X44717589Y59839712D01*
X44682567Y59802711D01*
X44644126Y59769702D01*
X44602647Y59740879D01*
X44558507Y59716437D01*
X44512084Y59696572D01*
X44463758Y59681478D01*
X44413907Y59671350D01*
X44362910Y59666383D01*
X44311144Y59666772D01*
X44258988Y59672713D01*
X44206822Y59684400D01*
X44155023Y59702028D01*
X44124669Y59715350D01*
X44089015Y59734774D01*
X44052903Y59758889D01*
X44017978Y59786394D01*
X43985888Y59815990D01*
X43958279Y59846375D01*
X43957423Y59847425D01*
X43940903Y59867787D01*
X43923195Y59857914D01*
X43884700Y59832939D01*
X43848882Y59802713D01*
X43816343Y59767986D01*
X43787685Y59729508D01*
X43763514Y59688029D01*
X43744430Y59644301D01*
X43739156Y59628890D01*
X43736603Y59620998D01*
X43734268Y59613867D01*
X43732140Y59607197D01*
X43730209Y59600691D01*
X43728466Y59594051D01*
X43726899Y59586979D01*
X43725499Y59579177D01*
X43724255Y59570347D01*
X43723159Y59560192D01*
X43722199Y59548413D01*
X43721366Y59534713D01*
X43720649Y59518794D01*
X43720039Y59500357D01*
X43719525Y59479105D01*
X43719098Y59454740D01*
X43718747Y59426964D01*
X43718462Y59395479D01*
X43718233Y59359987D01*
X43718050Y59320191D01*
X43717903Y59275792D01*
X43717782Y59226492D01*
X43717677Y59171994D01*
X43717578Y59112000D01*
X43717475Y59046212D01*
X43717374Y58984357D01*
X43716438Y58429525D01*
X43230800Y58429525D01*
X43230800Y59008502D01*
X43230819Y59085391D01*
X43230874Y59157877D01*
X43230965Y59225809D01*
X43231091Y59289035D01*
X43231252Y59347404D01*
X43231446Y59400764D01*
X43231672Y59448964D01*
X43231931Y59491852D01*
X43232220Y59529277D01*
X43232540Y59561087D01*
X43232889Y59587132D01*
X43233267Y59607259D01*
X43233673Y59621318D01*
X43234042Y59628421D01*
X43242898Y59700869D01*
X43257740Y59771554D01*
X43278375Y59840180D01*
X43304612Y59906448D01*
X43336258Y59970060D01*
X43373120Y60030718D01*
X43415006Y60088125D01*
X43461723Y60141982D01*
X43513079Y60191991D01*
X43568881Y60237855D01*
X43628936Y60279275D01*
X43670538Y60303883D01*
X43706469Y60322338D01*
X43746194Y60340158D01*
X43787654Y60356540D01*
X43828791Y60370684D01*
X43867549Y60381790D01*
X43875916Y60383831D01*
X43900320Y60389566D01*
X43926412Y60429514D01*
X43948359Y60459961D01*
X43974137Y60490446D01*
X44002320Y60519514D01*
X44031485Y60545710D01*
X44060206Y60567580D01*
X44064375Y60570390D01*
X44112959Y60598855D01*
X44163557Y60621495D01*
X44215715Y60638279D01*
X44268979Y60649178D01*
X44322894Y60654165D01*
X44377006Y60653211D01*
X44430863Y60646286D01*
X44484008Y60633361D01*
X44535988Y60614408D01*
X44562713Y60602008D01*
X44611319Y60574255D01*
X44655795Y60541767D01*
X44695951Y60504790D01*
X44731598Y60463568D01*
X44762546Y60418347D01*
X44788606Y60369372D01*
X44809589Y60316888D01*
X44824858Y60263088D01*
X44827801Y60248058D01*
X44830032Y60231048D01*
X44831673Y60210758D01*
X44832849Y60185886D01*
X44833176Y60175775D01*
X44833727Y60153016D01*
X44833821Y60134937D01*
X44961901Y60134937D01*
X44961872Y60140870D01*
X44961778Y60166438D01*
X44961689Y60196877D01*
X44961605Y60231890D01*
X44961527Y60271184D01*
X44961456Y60314460D01*
X44961392Y60361425D01*
X44961335Y60411782D01*
X44961286Y60465234D01*
X44961245Y60521487D01*
X44961213Y60580245D01*
X44961191Y60641211D01*
X44961178Y60704091D01*
X44961175Y60748863D01*
X44961175Y61391800D01*
X43716575Y61391800D01*
X43716575Y60487806D01*
X43691969Y60477576D01*
X43646431Y60456675D01*
X43598917Y60431211D01*
X43550773Y60402031D01*
X43503347Y60369981D01*
X43457985Y60335910D01*
X43429238Y60312220D01*
X43400111Y60285874D01*
X43369990Y60256141D01*
X43339964Y60224244D01*
X43311119Y60191410D01*
X43284541Y60158863D01*
X43261318Y60127828D01*
X43247340Y60107193D01*
X43240561Y60096758D01*
X43235190Y60088716D01*
X43232050Y60084291D01*
X43231594Y60083806D01*
X43231517Y60086921D01*
X43231441Y60096090D01*
X43231368Y60111017D01*
X43231298Y60131406D01*
X43231230Y60156960D01*
X43231167Y60187384D01*
X43231107Y60222381D01*
X43231051Y60261655D01*
X43231000Y60304911D01*
X43230954Y60351852D01*
X43230914Y60402182D01*
X43230879Y60455605D01*
X43230850Y60511824D01*
X43230827Y60570544D01*
X43230811Y60631469D01*
X43230802Y60694303D01*
X43230800Y60737750D01*
X43230800Y61391800D01*
X43716575Y61391800D01*
X44961175Y61391800D01*
X44961175Y61404500D01*
X45450125Y61404500D01*
X46694725Y61404500D01*
X47183781Y61404500D01*
X47764859Y61404500D01*
X47761478Y61422477D01*
X47743240Y61491038D01*
X47720281Y61556950D01*
X47692887Y61619367D01*
X47669112Y61664235D01*
X47642400Y61708247D01*
X47614717Y61748492D01*
X47584676Y61786800D01*
X47550888Y61824999D01*
X47533022Y61843743D01*
X47478463Y61895392D01*
X47420686Y61941570D01*
X47359720Y61982261D01*
X47295595Y62017451D01*
X47228341Y62047125D01*
X47157986Y62071267D01*
X47084560Y62089863D01*
X47026513Y62100308D01*
X47023584Y62100620D01*
X47018967Y62100917D01*
X47012516Y62101199D01*
X47004087Y62101467D01*
X46993538Y62101722D01*
X46980723Y62101962D01*
X46965499Y62102190D01*
X46947721Y62102405D01*
X46927246Y62102607D01*
X46903930Y62102797D01*
X46877628Y62102975D01*
X46848197Y62103142D01*
X46815492Y62103298D01*
X46779370Y62103442D01*
X46739687Y62103577D01*
X46696298Y62103701D01*
X46649059Y62103815D01*
X46597827Y62103920D01*
X46542458Y62104016D01*
X46482807Y62104103D01*
X46418730Y62104181D01*
X46350084Y62104252D01*
X46276724Y62104314D01*
X46198507Y62104370D01*
X46115288Y62104418D01*
X46026923Y62104459D01*
X45933269Y62104494D01*
X45834181Y62104523D01*
X45729516Y62104546D01*
X45619129Y62104564D01*
X45502876Y62104576D01*
X45380613Y62104584D01*
X45252197Y62104588D01*
X43410188Y62104588D01*
X43368913Y62097332D01*
G37*
X43368913Y62097332D02*
X43315760Y62086797D01*
X43266971Y62074463D01*
X43220673Y62059723D01*
X43174991Y62041973D01*
X43128054Y62020607D01*
X43121263Y62017286D01*
X43067208Y61988670D01*
X43017836Y61958185D01*
X42971525Y61924690D01*
X42926649Y61887047D01*
X42899430Y61861700D01*
X42847694Y61807537D01*
X42801402Y61750104D01*
X42760555Y61689406D01*
X42725155Y61625445D01*
X42695203Y61558224D01*
X42670701Y61487746D01*
X42651651Y61414015D01*
X42639768Y61348938D01*
X42639399Y61343291D01*
X42639045Y61331545D01*
X42638705Y61313949D01*
X42638381Y61290755D01*
X42638071Y61262212D01*
X42637776Y61228570D01*
X42637496Y61190081D01*
X42637231Y61146994D01*
X42636981Y61099560D01*
X42636745Y61048029D01*
X42636525Y60992652D01*
X42636319Y60933678D01*
X42636128Y60871358D01*
X42635952Y60805943D01*
X42635791Y60737683D01*
X42635644Y60666828D01*
X42635513Y60593628D01*
X42635396Y60518335D01*
X42635294Y60441197D01*
X42635207Y60362466D01*
X42635135Y60282392D01*
X42635078Y60201226D01*
X42635035Y60119216D01*
X42635007Y60036615D01*
X42634995Y59953672D01*
X42634997Y59870638D01*
X42635013Y59787763D01*
X42635045Y59705297D01*
X42635092Y59623490D01*
X42635153Y59542594D01*
X42635229Y59462858D01*
X42635320Y59384533D01*
X42635426Y59307868D01*
X42635547Y59233116D01*
X42635682Y59160524D01*
X42635833Y59090345D01*
X42635998Y59022829D01*
X42636178Y58958225D01*
X42636373Y58896784D01*
X42636583Y58838757D01*
X42636808Y58784393D01*
X42637047Y58733944D01*
X42637301Y58687659D01*
X42637570Y58645789D01*
X42637854Y58608584D01*
X42638153Y58576294D01*
X42638467Y58549171D01*
X42638795Y58527463D01*
X42639139Y58511422D01*
X42639497Y58501298D01*
X42639768Y58497788D01*
X42654194Y58421300D01*
X42674072Y58348063D01*
X42699402Y58278080D01*
X42730182Y58211354D01*
X42766410Y58147889D01*
X42808084Y58087686D01*
X42855203Y58030750D01*
X42899430Y57985025D01*
X42944310Y57944239D01*
X42989638Y57908313D01*
X43037041Y57876105D01*
X43088146Y57846477D01*
X43121263Y57829462D01*
X43168071Y57807768D01*
X43213566Y57789638D01*
X43259581Y57774473D01*
X43307955Y57761676D01*
X43360522Y57750650D01*
X43367325Y57749395D01*
X43407013Y57742169D01*
X45194538Y57741780D01*
X45300852Y57741759D01*
X45405601Y57741742D01*
X45508605Y57741729D01*
X45609685Y57741721D01*
X45708660Y57741717D01*
X45805349Y57741717D01*
X45899572Y57741721D01*
X45991150Y57741728D01*
X46079902Y57741740D01*
X46165648Y57741755D01*
X46248207Y57741774D01*
X46327400Y57741796D01*
X46403046Y57741822D01*
X46474965Y57741852D01*
X46542977Y57741885D01*
X46606902Y57741921D01*
X46666559Y57741960D01*
X46721768Y57742002D01*
X46772349Y57742048D01*
X46818121Y57742096D01*
X46858906Y57742147D01*
X46894521Y57742201D01*
X46924788Y57742258D01*
X46949526Y57742318D01*
X46968554Y57742380D01*
X46981693Y57742444D01*
X46988762Y57742511D01*
X46990000Y57742549D01*
X46996690Y57743450D01*
X47007713Y57744855D01*
X47021099Y57746516D01*
X47026513Y57747176D01*
X47081849Y57756262D01*
X47139125Y57770098D01*
X47196756Y57788153D01*
X47253157Y57809892D01*
X47306743Y57834785D01*
X47338635Y57852014D01*
X47382647Y57878726D01*
X47422892Y57906409D01*
X47461200Y57936450D01*
X47499399Y57970238D01*
X47518143Y57988104D01*
X47569792Y58042663D01*
X47615970Y58100440D01*
X47656661Y58161406D01*
X47691851Y58225531D01*
X47721525Y58292785D01*
X47745667Y58363140D01*
X47764263Y58436566D01*
X47774708Y58494613D01*
X47775077Y58500257D01*
X47775431Y58512001D01*
X47775770Y58529594D01*
X47776094Y58552788D01*
X47776403Y58581331D01*
X47776698Y58614974D01*
X47776978Y58653466D01*
X47777242Y58696559D01*
X47777493Y58744000D01*
X47777728Y58795542D01*
X47777948Y58850932D01*
X47778154Y58909922D01*
X47778345Y58972262D01*
X47778521Y59037701D01*
X47778683Y59105989D01*
X47778829Y59176876D01*
X47778961Y59250112D01*
X47779078Y59325447D01*
X47779180Y59402632D01*
X47779267Y59481415D01*
X47779339Y59561547D01*
X47779397Y59642779D01*
X47779440Y59724859D01*
X47779468Y59807537D01*
X47779481Y59890565D01*
X47779480Y59973691D01*
X47779463Y60056666D01*
X47779432Y60139239D01*
X47779386Y60221161D01*
X47779325Y60302181D01*
X47779250Y60382049D01*
X47779159Y60460516D01*
X47779054Y60537332D01*
X47778934Y60612245D01*
X47778799Y60685007D01*
X47778650Y60755366D01*
X47778485Y60823074D01*
X47778306Y60887880D01*
X47778112Y60949534D01*
X47777903Y61007785D01*
X47777680Y61062385D01*
X47777441Y61113082D01*
X47777188Y61159627D01*
X47776920Y61201770D01*
X47776637Y61239261D01*
X47776339Y61271849D01*
X47776027Y61299284D01*
X47775699Y61321317D01*
X47775357Y61337698D01*
X47775000Y61348176D01*
X47774708Y61352113D01*
X47764859Y61404500D01*
X47183781Y61404500D01*
X47182749Y60298807D01*
X47181717Y59193113D01*
X47175012Y59153302D01*
X47159671Y59078981D01*
X47139265Y59008415D01*
X47113690Y58941393D01*
X47082839Y58877701D01*
X47046606Y58817127D01*
X47004886Y58759461D01*
X46957574Y58704489D01*
X46944032Y58690291D01*
X46891388Y58640303D01*
X46836209Y58595965D01*
X46777914Y58556886D01*
X46715927Y58522678D01*
X46654852Y58495053D01*
X46605346Y58476964D01*
X46552320Y58461551D01*
X46497685Y58449232D01*
X46443353Y58440424D01*
X46391236Y58435547D01*
X46380400Y58435048D01*
X46370312Y58434810D01*
X46354630Y58434620D01*
X46333810Y58434477D01*
X46308307Y58434378D01*
X46278576Y58434321D01*
X46245070Y58434304D01*
X46208246Y58434324D01*
X46168556Y58434379D01*
X46126457Y58434468D01*
X46082403Y58434588D01*
X46036849Y58434737D01*
X45990248Y58434913D01*
X45943057Y58435114D01*
X45895730Y58435336D01*
X45848720Y58435579D01*
X45802484Y58435841D01*
X45757476Y58436118D01*
X45714150Y58436408D01*
X45672962Y58436711D01*
X45634365Y58437023D01*
X45598815Y58437342D01*
X45566767Y58437666D01*
X45538674Y58437993D01*
X45514992Y58438321D01*
X45496176Y58438647D01*
X45482680Y58438970D01*
X45474958Y58439287D01*
X45473938Y58439370D01*
X45416301Y58448441D01*
X45360432Y58463388D01*
X45306710Y58483890D01*
X45255517Y58509625D01*
X45207233Y58540273D01*
X45162240Y58575511D01*
X45120917Y58615020D01*
X45083646Y58658477D01*
X45050807Y58705563D01*
X45022782Y58755955D01*
X44999950Y58809333D01*
X44986689Y58850327D01*
X44983544Y58861488D01*
X44980733Y58871602D01*
X44978239Y58881072D01*
X44976041Y58890299D01*
X44974122Y58899688D01*
X44972462Y58909641D01*
X44971043Y58920560D01*
X44969846Y58932850D01*
X44968851Y58946912D01*
X44968041Y58963149D01*
X44967397Y58981965D01*
X44966899Y59003761D01*
X44966529Y59028942D01*
X44966267Y59057910D01*
X44966096Y59091067D01*
X44965997Y59128817D01*
X44965949Y59171562D01*
X44965936Y59219705D01*
X44965937Y59273650D01*
X44965938Y59294713D01*
X44965937Y59350656D01*
X44965944Y59400666D01*
X44965977Y59445158D01*
X44966055Y59484549D01*
X44966194Y59519256D01*
X44966412Y59549694D01*
X44966726Y59576280D01*
X44967155Y59599430D01*
X44967715Y59619561D01*
X44968425Y59637089D01*
X44969301Y59652430D01*
X44970361Y59666001D01*
X44971624Y59678217D01*
X44973106Y59689496D01*
X44974824Y59700253D01*
X44976798Y59710905D01*
X44979043Y59721868D01*
X44981578Y59733559D01*
X44984420Y59746393D01*
X44985114Y59749528D01*
X45000051Y59805906D01*
X45019960Y59863462D01*
X45044132Y59920537D01*
X45071855Y59975476D01*
X45102421Y60026622D01*
X45106563Y60032900D01*
X45149020Y60090943D01*
X45196067Y60144938D01*
X45247319Y60194620D01*
X45302392Y60239724D01*
X45360900Y60279982D01*
X45422457Y60315130D01*
X45486679Y60344902D01*
X45553181Y60369031D01*
X45619024Y60386687D01*
X45631651Y60389512D01*
X45643051Y60392040D01*
X45653629Y60394289D01*
X45663791Y60396277D01*
X45673941Y60398021D01*
X45684485Y60399538D01*
X45695826Y60400845D01*
X45708369Y60401961D01*
X45722521Y60402903D01*
X45738684Y60403687D01*
X45757264Y60404333D01*
X45778667Y60404856D01*
X45803295Y60405275D01*
X45831556Y60405608D01*
X45863853Y60405870D01*
X45900590Y60406081D01*
X45942174Y60406258D01*
X45989008Y60406417D01*
X46041498Y60406576D01*
X46082744Y60406701D01*
X46443900Y60407804D01*
X46443900Y59918600D01*
X46125164Y59918600D01*
X46071932Y59918590D01*
X46024664Y59918554D01*
X45982977Y59918487D01*
X45946485Y59918385D01*
X45914804Y59918241D01*
X45887547Y59918050D01*
X45864332Y59917806D01*
X45844771Y59917505D01*
X45828481Y59917140D01*
X45815077Y59916707D01*
X45804173Y59916199D01*
X45795385Y59915612D01*
X45788328Y59914940D01*
X45782616Y59914177D01*
X45779882Y59913712D01*
X45731152Y59901837D01*
X45685787Y59884693D01*
X45643393Y59862071D01*
X45603577Y59833764D01*
X45569073Y59802713D01*
X45535921Y59765908D01*
X45508620Y59727246D01*
X45486803Y59686142D01*
X45472489Y59649432D01*
X45468917Y59638736D01*
X45465790Y59629221D01*
X45463076Y59620404D01*
X45460744Y59611804D01*
X45458762Y59602938D01*
X45457100Y59593326D01*
X45455725Y59582484D01*
X45454607Y59569932D01*
X45453714Y59555187D01*
X45453014Y59537768D01*
X45452475Y59517192D01*
X45452068Y59492978D01*
X45451759Y59464644D01*
X45451519Y59431708D01*
X45451314Y59393689D01*
X45451114Y59350104D01*
X45450977Y59319694D01*
X45450760Y59271435D01*
X45450595Y59229083D01*
X45450506Y59192194D01*
X45450516Y59160326D01*
X45450651Y59133036D01*
X45450933Y59109879D01*
X45451388Y59090414D01*
X45452038Y59074197D01*
X45452908Y59060784D01*
X45454022Y59049733D01*
X45455403Y59040600D01*
X45457076Y59032943D01*
X45459066Y59026318D01*
X45461395Y59020282D01*
X45464087Y59014393D01*
X45467168Y59008205D01*
X45467918Y59006725D01*
X45482227Y58984817D01*
X45501435Y58964802D01*
X45524135Y58947794D01*
X45548924Y58934906D01*
X45565595Y58929239D01*
X45569093Y58928565D01*
X45574464Y58927961D01*
X45582029Y58927423D01*
X45592106Y58926948D01*
X45605017Y58926533D01*
X45621080Y58926173D01*
X45640615Y58925866D01*
X45663943Y58925607D01*
X45691383Y58925394D01*
X45723254Y58925222D01*
X45759878Y58925088D01*
X45801572Y58924989D01*
X45848658Y58924921D01*
X45901455Y58924880D01*
X45960156Y58924863D01*
X46018615Y58924856D01*
X46071095Y58924855D01*
X46117966Y58924877D01*
X46159598Y58924934D01*
X46196362Y58925041D01*
X46228628Y58925214D01*
X46256767Y58925466D01*
X46281150Y58925812D01*
X46302146Y58926266D01*
X46320126Y58926843D01*
X46335461Y58927558D01*
X46348521Y58928424D01*
X46359677Y58929456D01*
X46369299Y58930669D01*
X46377758Y58932078D01*
X46385424Y58933696D01*
X46392667Y58935538D01*
X46399858Y58937619D01*
X46407368Y58939952D01*
X46415566Y58942554D01*
X46415925Y58942667D01*
X46447317Y58953886D01*
X46475918Y58967138D01*
X46504528Y58983773D01*
X46514065Y58989979D01*
X46554542Y59020632D01*
X46590638Y59055675D01*
X46622019Y59094673D01*
X46648349Y59137188D01*
X46669293Y59182785D01*
X46675460Y59199902D01*
X46677205Y59204951D01*
X46678842Y59209489D01*
X46680373Y59213722D01*
X46681803Y59217856D01*
X46683135Y59222099D01*
X46684373Y59226655D01*
X46685519Y59231731D01*
X46686578Y59237533D01*
X46687553Y59244268D01*
X46688447Y59252141D01*
X46689264Y59261360D01*
X46690008Y59272129D01*
X46690681Y59284656D01*
X46691287Y59299146D01*
X46691830Y59315806D01*
X46692313Y59334841D01*
X46692739Y59356459D01*
X46693113Y59380865D01*
X46693437Y59408265D01*
X46693715Y59438866D01*
X46693950Y59472874D01*
X46694147Y59510495D01*
X46694307Y59551935D01*
X46694436Y59597401D01*
X46694536Y59647098D01*
X46694610Y59701233D01*
X46694663Y59760013D01*
X46694697Y59823642D01*
X46694717Y59892328D01*
X46694725Y59966277D01*
X46694725Y60045694D01*
X46694721Y60130786D01*
X46694716Y60221760D01*
X46694713Y60318821D01*
X46694713Y60346432D01*
X46694725Y61404500D01*
X45450125Y61404500D01*
X45450125Y60491204D01*
X45417582Y60477515D01*
X45345619Y60443900D01*
X45277153Y60405129D01*
X45212420Y60361393D01*
X45151651Y60312883D01*
X45095082Y60259792D01*
X45042945Y60202311D01*
X44995474Y60140632D01*
X44980893Y60119419D01*
X44973403Y60108362D01*
X44967277Y60099612D01*
X44963318Y60094300D01*
X44962286Y60093225D01*
X44962178Y60096351D01*
X44962072Y60105531D01*
X44961970Y60120469D01*
X44961901Y60134937D01*
X44833821Y60134937D01*
X44833373Y60119882D01*
X44832299Y60106194D01*
X44830515Y60092214D01*
X44828189Y60077759D01*
X44815932Y60023727D01*
X44798366Y59972711D01*
X44775867Y59924907D01*
X44748816Y59880509D01*
X44717589Y59839712D01*
X44682567Y59802711D01*
X44644126Y59769702D01*
X44602647Y59740879D01*
X44558507Y59716437D01*
X44512084Y59696572D01*
X44463758Y59681478D01*
X44413907Y59671350D01*
X44362910Y59666383D01*
X44311144Y59666772D01*
X44258988Y59672713D01*
X44206822Y59684400D01*
X44155023Y59702028D01*
X44124669Y59715350D01*
X44089015Y59734774D01*
X44052903Y59758889D01*
X44017978Y59786394D01*
X43985888Y59815990D01*
X43958279Y59846375D01*
X43957423Y59847425D01*
X43940903Y59867787D01*
X43923195Y59857914D01*
X43884700Y59832939D01*
X43848882Y59802713D01*
X43816343Y59767986D01*
X43787685Y59729508D01*
X43763514Y59688029D01*
X43744430Y59644301D01*
X43739156Y59628890D01*
X43736603Y59620998D01*
X43734268Y59613867D01*
X43732140Y59607197D01*
X43730209Y59600691D01*
X43728466Y59594051D01*
X43726899Y59586979D01*
X43725499Y59579177D01*
X43724255Y59570347D01*
X43723159Y59560192D01*
X43722199Y59548413D01*
X43721366Y59534713D01*
X43720649Y59518794D01*
X43720039Y59500357D01*
X43719525Y59479105D01*
X43719098Y59454740D01*
X43718747Y59426964D01*
X43718462Y59395479D01*
X43718233Y59359987D01*
X43718050Y59320191D01*
X43717903Y59275792D01*
X43717782Y59226492D01*
X43717677Y59171994D01*
X43717578Y59112000D01*
X43717475Y59046212D01*
X43717374Y58984357D01*
X43716438Y58429525D01*
X43230800Y58429525D01*
X43230800Y59008502D01*
X43230819Y59085391D01*
X43230874Y59157877D01*
X43230965Y59225809D01*
X43231091Y59289035D01*
X43231252Y59347404D01*
X43231446Y59400764D01*
X43231672Y59448964D01*
X43231931Y59491852D01*
X43232220Y59529277D01*
X43232540Y59561087D01*
X43232889Y59587132D01*
X43233267Y59607259D01*
X43233673Y59621318D01*
X43234042Y59628421D01*
X43242898Y59700869D01*
X43257740Y59771554D01*
X43278375Y59840180D01*
X43304612Y59906448D01*
X43336258Y59970060D01*
X43373120Y60030718D01*
X43415006Y60088125D01*
X43461723Y60141982D01*
X43513079Y60191991D01*
X43568881Y60237855D01*
X43628936Y60279275D01*
X43670538Y60303883D01*
X43706469Y60322338D01*
X43746194Y60340158D01*
X43787654Y60356540D01*
X43828791Y60370684D01*
X43867549Y60381790D01*
X43875916Y60383831D01*
X43900320Y60389566D01*
X43926412Y60429514D01*
X43948359Y60459961D01*
X43974137Y60490446D01*
X44002320Y60519514D01*
X44031485Y60545710D01*
X44060206Y60567580D01*
X44064375Y60570390D01*
X44112959Y60598855D01*
X44163557Y60621495D01*
X44215715Y60638279D01*
X44268979Y60649178D01*
X44322894Y60654165D01*
X44377006Y60653211D01*
X44430863Y60646286D01*
X44484008Y60633361D01*
X44535988Y60614408D01*
X44562713Y60602008D01*
X44611319Y60574255D01*
X44655795Y60541767D01*
X44695951Y60504790D01*
X44731598Y60463568D01*
X44762546Y60418347D01*
X44788606Y60369372D01*
X44809589Y60316888D01*
X44824858Y60263088D01*
X44827801Y60248058D01*
X44830032Y60231048D01*
X44831673Y60210758D01*
X44832849Y60185886D01*
X44833176Y60175775D01*
X44833727Y60153016D01*
X44833821Y60134937D01*
X44961901Y60134937D01*
X44961872Y60140870D01*
X44961778Y60166438D01*
X44961689Y60196877D01*
X44961605Y60231890D01*
X44961527Y60271184D01*
X44961456Y60314460D01*
X44961392Y60361425D01*
X44961335Y60411782D01*
X44961286Y60465234D01*
X44961245Y60521487D01*
X44961213Y60580245D01*
X44961191Y60641211D01*
X44961178Y60704091D01*
X44961175Y60748863D01*
X44961175Y61391800D01*
X43716575Y61391800D01*
X43716575Y60487806D01*
X43691969Y60477576D01*
X43646431Y60456675D01*
X43598917Y60431211D01*
X43550773Y60402031D01*
X43503347Y60369981D01*
X43457985Y60335910D01*
X43429238Y60312220D01*
X43400111Y60285874D01*
X43369990Y60256141D01*
X43339964Y60224244D01*
X43311119Y60191410D01*
X43284541Y60158863D01*
X43261318Y60127828D01*
X43247340Y60107193D01*
X43240561Y60096758D01*
X43235190Y60088716D01*
X43232050Y60084291D01*
X43231594Y60083806D01*
X43231517Y60086921D01*
X43231441Y60096090D01*
X43231368Y60111017D01*
X43231298Y60131406D01*
X43231230Y60156960D01*
X43231167Y60187384D01*
X43231107Y60222381D01*
X43231051Y60261655D01*
X43231000Y60304911D01*
X43230954Y60351852D01*
X43230914Y60402182D01*
X43230879Y60455605D01*
X43230850Y60511824D01*
X43230827Y60570544D01*
X43230811Y60631469D01*
X43230802Y60694303D01*
X43230800Y60737750D01*
X43230800Y61391800D01*
X43716575Y61391800D01*
X44961175Y61391800D01*
X44961175Y61404500D01*
X45450125Y61404500D01*
X46694725Y61404500D01*
X47183781Y61404500D01*
X47764859Y61404500D01*
X47761478Y61422477D01*
X47743240Y61491038D01*
X47720281Y61556950D01*
X47692887Y61619367D01*
X47669112Y61664235D01*
X47642400Y61708247D01*
X47614717Y61748492D01*
X47584676Y61786800D01*
X47550888Y61824999D01*
X47533022Y61843743D01*
X47478463Y61895392D01*
X47420686Y61941570D01*
X47359720Y61982261D01*
X47295595Y62017451D01*
X47228341Y62047125D01*
X47157986Y62071267D01*
X47084560Y62089863D01*
X47026513Y62100308D01*
X47023584Y62100620D01*
X47018967Y62100917D01*
X47012516Y62101199D01*
X47004087Y62101467D01*
X46993538Y62101722D01*
X46980723Y62101962D01*
X46965499Y62102190D01*
X46947721Y62102405D01*
X46927246Y62102607D01*
X46903930Y62102797D01*
X46877628Y62102975D01*
X46848197Y62103142D01*
X46815492Y62103298D01*
X46779370Y62103442D01*
X46739687Y62103577D01*
X46696298Y62103701D01*
X46649059Y62103815D01*
X46597827Y62103920D01*
X46542458Y62104016D01*
X46482807Y62104103D01*
X46418730Y62104181D01*
X46350084Y62104252D01*
X46276724Y62104314D01*
X46198507Y62104370D01*
X46115288Y62104418D01*
X46026923Y62104459D01*
X45933269Y62104494D01*
X45834181Y62104523D01*
X45729516Y62104546D01*
X45619129Y62104564D01*
X45502876Y62104576D01*
X45380613Y62104584D01*
X45252197Y62104588D01*
X43410188Y62104588D01*
X43368913Y62097332D01*
G36*
X36877628Y59503469D02*
G01*
X36877639Y59400023D01*
X36877670Y59301543D01*
X36877721Y59208109D01*
X36877792Y59119802D01*
X36877882Y59036701D01*
X36877993Y58958889D01*
X36878122Y58886444D01*
X36878270Y58819448D01*
X36878437Y58757982D01*
X36878622Y58702125D01*
X36878825Y58651958D01*
X36879047Y58607562D01*
X36879286Y58569017D01*
X36879542Y58536404D01*
X36879816Y58509803D01*
X36880107Y58489295D01*
X36880414Y58474960D01*
X36880738Y58466879D01*
X36880803Y58466038D01*
X36889531Y58403022D01*
X36904003Y58342255D01*
X36924100Y58284028D01*
X36949705Y58228630D01*
X36980699Y58176352D01*
X37016965Y58127485D01*
X37019928Y58123925D01*
X37053187Y58088586D01*
X37091764Y58055153D01*
X37134782Y58024134D01*
X37181365Y57996035D01*
X37230635Y57971361D01*
X37281718Y57950619D01*
X37333736Y57934316D01*
X37358638Y57928247D01*
X37369044Y57925952D01*
X37378629Y57923884D01*
X37387761Y57922030D01*
X37396806Y57920381D01*
X37406131Y57918922D01*
X37416103Y57917644D01*
X37427090Y57916533D01*
X37439457Y57915579D01*
X37453571Y57914769D01*
X37469800Y57914091D01*
X37488511Y57913534D01*
X37510069Y57913086D01*
X37534843Y57912734D01*
X37563198Y57912468D01*
X37595502Y57912276D01*
X37632122Y57912145D01*
X37673423Y57912064D01*
X37719775Y57912020D01*
X37771542Y57912003D01*
X37829092Y57912000D01*
X38271450Y57912000D01*
X38271450Y58349990D01*
X37859494Y58350960D01*
X37799482Y58351106D01*
X37745488Y58351252D01*
X37697181Y58351402D01*
X37654231Y58351561D01*
X37616306Y58351733D01*
X37583074Y58351925D01*
X37554204Y58352139D01*
X37529366Y58352382D01*
X37508228Y58352657D01*
X37490458Y58352971D01*
X37475725Y58353327D01*
X37463699Y58353731D01*
X37454047Y58354186D01*
X37446439Y58354699D01*
X37440543Y58355274D01*
X37436028Y58355916D01*
X37432562Y58356629D01*
X37430491Y58357202D01*
X37400618Y58368804D01*
X37375978Y58383720D01*
X37356136Y58402401D01*
X37340658Y58425297D01*
X37329111Y58452857D01*
X37325231Y58466309D01*
X37324640Y58468701D01*
X37324087Y58471240D01*
X37323571Y58474138D01*
X37323091Y58477605D01*
X37322645Y58481852D01*
X37322233Y58487090D01*
X37321852Y58493530D01*
X37321502Y58501382D01*
X37321181Y58510859D01*
X37320889Y58522169D01*
X37320623Y58535525D01*
X37320383Y58551137D01*
X37320166Y58569216D01*
X37319973Y58589973D01*
X37319802Y58613619D01*
X37319650Y58640364D01*
X37319518Y58670420D01*
X37319404Y58703997D01*
X37319306Y58741306D01*
X37319223Y58782559D01*
X37319154Y58827965D01*
X37319098Y58877736D01*
X37319053Y58932083D01*
X37319019Y58991216D01*
X37318993Y59055347D01*
X37318974Y59124686D01*
X37318962Y59199445D01*
X37318955Y59279833D01*
X37318952Y59366062D01*
X37318951Y59458342D01*
X37318950Y59498421D01*
X37318950Y60505975D01*
X36877625Y60505975D01*
X36877628Y59503469D01*
G37*
X36877628Y59503469D02*
X36877639Y59400023D01*
X36877670Y59301543D01*
X36877721Y59208109D01*
X36877792Y59119802D01*
X36877882Y59036701D01*
X36877993Y58958889D01*
X36878122Y58886444D01*
X36878270Y58819448D01*
X36878437Y58757982D01*
X36878622Y58702125D01*
X36878825Y58651958D01*
X36879047Y58607562D01*
X36879286Y58569017D01*
X36879542Y58536404D01*
X36879816Y58509803D01*
X36880107Y58489295D01*
X36880414Y58474960D01*
X36880738Y58466879D01*
X36880803Y58466038D01*
X36889531Y58403022D01*
X36904003Y58342255D01*
X36924100Y58284028D01*
X36949705Y58228630D01*
X36980699Y58176352D01*
X37016965Y58127485D01*
X37019928Y58123925D01*
X37053187Y58088586D01*
X37091764Y58055153D01*
X37134782Y58024134D01*
X37181365Y57996035D01*
X37230635Y57971361D01*
X37281718Y57950619D01*
X37333736Y57934316D01*
X37358638Y57928247D01*
X37369044Y57925952D01*
X37378629Y57923884D01*
X37387761Y57922030D01*
X37396806Y57920381D01*
X37406131Y57918922D01*
X37416103Y57917644D01*
X37427090Y57916533D01*
X37439457Y57915579D01*
X37453571Y57914769D01*
X37469800Y57914091D01*
X37488511Y57913534D01*
X37510069Y57913086D01*
X37534843Y57912734D01*
X37563198Y57912468D01*
X37595502Y57912276D01*
X37632122Y57912145D01*
X37673423Y57912064D01*
X37719775Y57912020D01*
X37771542Y57912003D01*
X37829092Y57912000D01*
X38271450Y57912000D01*
X38271450Y58349990D01*
X37859494Y58350960D01*
X37799482Y58351106D01*
X37745488Y58351252D01*
X37697181Y58351402D01*
X37654231Y58351561D01*
X37616306Y58351733D01*
X37583074Y58351925D01*
X37554204Y58352139D01*
X37529366Y58352382D01*
X37508228Y58352657D01*
X37490458Y58352971D01*
X37475725Y58353327D01*
X37463699Y58353731D01*
X37454047Y58354186D01*
X37446439Y58354699D01*
X37440543Y58355274D01*
X37436028Y58355916D01*
X37432562Y58356629D01*
X37430491Y58357202D01*
X37400618Y58368804D01*
X37375978Y58383720D01*
X37356136Y58402401D01*
X37340658Y58425297D01*
X37329111Y58452857D01*
X37325231Y58466309D01*
X37324640Y58468701D01*
X37324087Y58471240D01*
X37323571Y58474138D01*
X37323091Y58477605D01*
X37322645Y58481852D01*
X37322233Y58487090D01*
X37321852Y58493530D01*
X37321502Y58501382D01*
X37321181Y58510859D01*
X37320889Y58522169D01*
X37320623Y58535525D01*
X37320383Y58551137D01*
X37320166Y58569216D01*
X37319973Y58589973D01*
X37319802Y58613619D01*
X37319650Y58640364D01*
X37319518Y58670420D01*
X37319404Y58703997D01*
X37319306Y58741306D01*
X37319223Y58782559D01*
X37319154Y58827965D01*
X37319098Y58877736D01*
X37319053Y58932083D01*
X37319019Y58991216D01*
X37318993Y59055347D01*
X37318974Y59124686D01*
X37318962Y59199445D01*
X37318955Y59279833D01*
X37318952Y59366062D01*
X37318951Y59458342D01*
X37318950Y59498421D01*
X37318950Y60505975D01*
X36877625Y60505975D01*
X36877628Y59503469D01*
G36*
X33015963Y60505970D02*
G01*
X32970553Y60505939D01*
X32930570Y60505861D01*
X32895553Y60505715D01*
X32865041Y60505478D01*
X32838573Y60505129D01*
X32815687Y60504647D01*
X32795923Y60504009D01*
X32778818Y60503195D01*
X32763912Y60502182D01*
X32750744Y60500949D01*
X32738851Y60499475D01*
X32727774Y60497737D01*
X32717050Y60495714D01*
X32706218Y60493385D01*
X32694817Y60490728D01*
X32683450Y60487980D01*
X32648526Y60478794D01*
X32617676Y60469060D01*
X32588630Y60457970D01*
X32559120Y60444716D01*
X32551688Y60441110D01*
X32513880Y60421242D01*
X32479994Y60400467D01*
X32448474Y60377636D01*
X32417764Y60351599D01*
X32386306Y60321209D01*
X32378827Y60313508D01*
X32339564Y60268233D01*
X32305864Y60219909D01*
X32277775Y60168638D01*
X32255346Y60114523D01*
X32238626Y60057664D01*
X32227695Y59998408D01*
X32226884Y59989003D01*
X32226144Y59973849D01*
X32225475Y59953462D01*
X32224877Y59928355D01*
X32224349Y59899043D01*
X32223892Y59866040D01*
X32223505Y59829860D01*
X32223189Y59791017D01*
X32222942Y59750025D01*
X32222765Y59707399D01*
X32222658Y59663653D01*
X32222620Y59619300D01*
X32222651Y59574856D01*
X32222751Y59530833D01*
X32222921Y59487747D01*
X32223159Y59446111D01*
X32223465Y59406440D01*
X32223840Y59369248D01*
X32224283Y59335049D01*
X32224794Y59304357D01*
X32225373Y59277686D01*
X32226020Y59255551D01*
X32226734Y59238465D01*
X32227516Y59226943D01*
X32227956Y59223275D01*
X32238621Y59169215D01*
X32252782Y59116950D01*
X32269990Y59067975D01*
X32285010Y59033497D01*
X32314348Y58979356D01*
X32348595Y58929122D01*
X32387556Y58883020D01*
X32431035Y58841279D01*
X32478837Y58804127D01*
X32487368Y58798292D01*
X32537852Y58768157D01*
X32590795Y58743877D01*
X32646203Y58725449D01*
X32692975Y58714795D01*
X32732663Y58707516D01*
X33183513Y58705368D01*
X33236760Y58705105D01*
X33288417Y58704829D01*
X33338112Y58704544D01*
X33385472Y58704253D01*
X33430126Y58703959D01*
X33471702Y58703665D01*
X33509828Y58703373D01*
X33544132Y58703087D01*
X33574242Y58702810D01*
X33599787Y58702544D01*
X33620393Y58702293D01*
X33635690Y58702059D01*
X33645305Y58701846D01*
X33648650Y58701692D01*
X33660437Y58701023D01*
X33671787Y58701276D01*
X33674050Y58701492D01*
X33710327Y58707029D01*
X33749616Y58715119D01*
X33789589Y58725174D01*
X33827920Y58736609D01*
X33862280Y58748836D01*
X33862944Y58749098D01*
X33913695Y58772263D01*
X33961873Y58800436D01*
X34006988Y58833120D01*
X34048548Y58869819D01*
X34086060Y58910035D01*
X34119034Y58953270D01*
X34146977Y58999029D01*
X34169398Y59046814D01*
X34176645Y59066198D01*
X34187984Y59103103D01*
X34196180Y59140024D01*
X34201487Y59178616D01*
X34204162Y59220536D01*
X34204609Y59247088D01*
X34201739Y59307486D01*
X34192943Y59366236D01*
X34178352Y59422999D01*
X34158097Y59477430D01*
X34132312Y59529189D01*
X34101127Y59577934D01*
X34064675Y59623323D01*
X34055615Y59633194D01*
X34014652Y59672247D01*
X33969060Y59707504D01*
X33919575Y59738560D01*
X33866933Y59765013D01*
X33811872Y59786460D01*
X33755128Y59802499D01*
X33739951Y59805782D01*
X33727249Y59808240D01*
X33714600Y59810411D01*
X33701552Y59812311D01*
X33687654Y59813954D01*
X33672453Y59815357D01*
X33655500Y59816535D01*
X33636343Y59817504D01*
X33614529Y59818279D01*
X33589609Y59818875D01*
X33561131Y59819308D01*
X33528643Y59819593D01*
X33491694Y59819747D01*
X33449832Y59819783D01*
X33402608Y59819719D01*
X33349568Y59819569D01*
X33339088Y59819533D01*
X33069213Y59818588D01*
X33069213Y59393138D01*
X33366145Y59391550D01*
X33663078Y59389963D01*
X33684554Y59379389D01*
X33706019Y59365947D01*
X33726109Y59348038D01*
X33742889Y59327517D01*
X33749006Y59317632D01*
X33752544Y59311016D01*
X33755032Y59305190D01*
X33756654Y59298865D01*
X33757597Y59290749D01*
X33758044Y59279553D01*
X33758179Y59263986D01*
X33758188Y59253438D01*
X33758106Y59234623D01*
X33757765Y59220913D01*
X33757022Y59211067D01*
X33755734Y59203842D01*
X33753757Y59197995D01*
X33751196Y59192743D01*
X33735770Y59170578D01*
X33715120Y59151748D01*
X33689569Y59136499D01*
X33664068Y59126483D01*
X33638798Y59118500D01*
X33217194Y59118500D01*
X33156861Y59118503D01*
X33102540Y59118513D01*
X33053895Y59118535D01*
X33010588Y59118574D01*
X32972283Y59118635D01*
X32938643Y59118723D01*
X32909329Y59118842D01*
X32884006Y59118997D01*
X32862336Y59119192D01*
X32843982Y59119434D01*
X32828607Y59119725D01*
X32815873Y59120072D01*
X32805444Y59120479D01*
X32796982Y59120950D01*
X32790151Y59121490D01*
X32784613Y59122105D01*
X32780031Y59122798D01*
X32776068Y59123574D01*
X32772386Y59124439D01*
X32771034Y59124781D01*
X32745486Y59133008D01*
X32724073Y59143968D01*
X32704784Y59158781D01*
X32697344Y59165905D01*
X32679936Y59187390D01*
X32665694Y59212972D01*
X32655589Y59240787D01*
X32653302Y59250263D01*
X32652469Y59257486D01*
X32651709Y59270526D01*
X32651021Y59288855D01*
X32650405Y59311942D01*
X32649862Y59339259D01*
X32649390Y59370276D01*
X32648992Y59404464D01*
X32648665Y59441294D01*
X32648411Y59480237D01*
X32648230Y59520764D01*
X32648120Y59562344D01*
X32648083Y59604450D01*
X32648119Y59646552D01*
X32648227Y59688121D01*
X32648407Y59728627D01*
X32648660Y59767541D01*
X32648986Y59804335D01*
X32649383Y59838478D01*
X32649854Y59869442D01*
X32650397Y59896697D01*
X32651012Y59919715D01*
X32651700Y59937965D01*
X32652460Y59950920D01*
X32653285Y59958010D01*
X32663029Y59989706D01*
X32677973Y60017837D01*
X32697912Y60042170D01*
X32722640Y60062474D01*
X32751954Y60078517D01*
X32764089Y60083388D01*
X32786638Y60091638D01*
X33067625Y60093225D01*
X33348613Y60094813D01*
X33350247Y60505975D01*
X33067262Y60505975D01*
X33015963Y60505970D01*
G37*
X33015963Y60505970D02*
X32970553Y60505939D01*
X32930570Y60505861D01*
X32895553Y60505715D01*
X32865041Y60505478D01*
X32838573Y60505129D01*
X32815687Y60504647D01*
X32795923Y60504009D01*
X32778818Y60503195D01*
X32763912Y60502182D01*
X32750744Y60500949D01*
X32738851Y60499475D01*
X32727774Y60497737D01*
X32717050Y60495714D01*
X32706218Y60493385D01*
X32694817Y60490728D01*
X32683450Y60487980D01*
X32648526Y60478794D01*
X32617676Y60469060D01*
X32588630Y60457970D01*
X32559120Y60444716D01*
X32551688Y60441110D01*
X32513880Y60421242D01*
X32479994Y60400467D01*
X32448474Y60377636D01*
X32417764Y60351599D01*
X32386306Y60321209D01*
X32378827Y60313508D01*
X32339564Y60268233D01*
X32305864Y60219909D01*
X32277775Y60168638D01*
X32255346Y60114523D01*
X32238626Y60057664D01*
X32227695Y59998408D01*
X32226884Y59989003D01*
X32226144Y59973849D01*
X32225475Y59953462D01*
X32224877Y59928355D01*
X32224349Y59899043D01*
X32223892Y59866040D01*
X32223505Y59829860D01*
X32223189Y59791017D01*
X32222942Y59750025D01*
X32222765Y59707399D01*
X32222658Y59663653D01*
X32222620Y59619300D01*
X32222651Y59574856D01*
X32222751Y59530833D01*
X32222921Y59487747D01*
X32223159Y59446111D01*
X32223465Y59406440D01*
X32223840Y59369248D01*
X32224283Y59335049D01*
X32224794Y59304357D01*
X32225373Y59277686D01*
X32226020Y59255551D01*
X32226734Y59238465D01*
X32227516Y59226943D01*
X32227956Y59223275D01*
X32238621Y59169215D01*
X32252782Y59116950D01*
X32269990Y59067975D01*
X32285010Y59033497D01*
X32314348Y58979356D01*
X32348595Y58929122D01*
X32387556Y58883020D01*
X32431035Y58841279D01*
X32478837Y58804127D01*
X32487368Y58798292D01*
X32537852Y58768157D01*
X32590795Y58743877D01*
X32646203Y58725449D01*
X32692975Y58714795D01*
X32732663Y58707516D01*
X33183513Y58705368D01*
X33236760Y58705105D01*
X33288417Y58704829D01*
X33338112Y58704544D01*
X33385472Y58704253D01*
X33430126Y58703959D01*
X33471702Y58703665D01*
X33509828Y58703373D01*
X33544132Y58703087D01*
X33574242Y58702810D01*
X33599787Y58702544D01*
X33620393Y58702293D01*
X33635690Y58702059D01*
X33645305Y58701846D01*
X33648650Y58701692D01*
X33660437Y58701023D01*
X33671787Y58701276D01*
X33674050Y58701492D01*
X33710327Y58707029D01*
X33749616Y58715119D01*
X33789589Y58725174D01*
X33827920Y58736609D01*
X33862280Y58748836D01*
X33862944Y58749098D01*
X33913695Y58772263D01*
X33961873Y58800436D01*
X34006988Y58833120D01*
X34048548Y58869819D01*
X34086060Y58910035D01*
X34119034Y58953270D01*
X34146977Y58999029D01*
X34169398Y59046814D01*
X34176645Y59066198D01*
X34187984Y59103103D01*
X34196180Y59140024D01*
X34201487Y59178616D01*
X34204162Y59220536D01*
X34204609Y59247088D01*
X34201739Y59307486D01*
X34192943Y59366236D01*
X34178352Y59422999D01*
X34158097Y59477430D01*
X34132312Y59529189D01*
X34101127Y59577934D01*
X34064675Y59623323D01*
X34055615Y59633194D01*
X34014652Y59672247D01*
X33969060Y59707504D01*
X33919575Y59738560D01*
X33866933Y59765013D01*
X33811872Y59786460D01*
X33755128Y59802499D01*
X33739951Y59805782D01*
X33727249Y59808240D01*
X33714600Y59810411D01*
X33701552Y59812311D01*
X33687654Y59813954D01*
X33672453Y59815357D01*
X33655500Y59816535D01*
X33636343Y59817504D01*
X33614529Y59818279D01*
X33589609Y59818875D01*
X33561131Y59819308D01*
X33528643Y59819593D01*
X33491694Y59819747D01*
X33449832Y59819783D01*
X33402608Y59819719D01*
X33349568Y59819569D01*
X33339088Y59819533D01*
X33069213Y59818588D01*
X33069213Y59393138D01*
X33366145Y59391550D01*
X33663078Y59389963D01*
X33684554Y59379389D01*
X33706019Y59365947D01*
X33726109Y59348038D01*
X33742889Y59327517D01*
X33749006Y59317632D01*
X33752544Y59311016D01*
X33755032Y59305190D01*
X33756654Y59298865D01*
X33757597Y59290749D01*
X33758044Y59279553D01*
X33758179Y59263986D01*
X33758188Y59253438D01*
X33758106Y59234623D01*
X33757765Y59220913D01*
X33757022Y59211067D01*
X33755734Y59203842D01*
X33753757Y59197995D01*
X33751196Y59192743D01*
X33735770Y59170578D01*
X33715120Y59151748D01*
X33689569Y59136499D01*
X33664068Y59126483D01*
X33638798Y59118500D01*
X33217194Y59118500D01*
X33156861Y59118503D01*
X33102540Y59118513D01*
X33053895Y59118535D01*
X33010588Y59118574D01*
X32972283Y59118635D01*
X32938643Y59118723D01*
X32909329Y59118842D01*
X32884006Y59118997D01*
X32862336Y59119192D01*
X32843982Y59119434D01*
X32828607Y59119725D01*
X32815873Y59120072D01*
X32805444Y59120479D01*
X32796982Y59120950D01*
X32790151Y59121490D01*
X32784613Y59122105D01*
X32780031Y59122798D01*
X32776068Y59123574D01*
X32772386Y59124439D01*
X32771034Y59124781D01*
X32745486Y59133008D01*
X32724073Y59143968D01*
X32704784Y59158781D01*
X32697344Y59165905D01*
X32679936Y59187390D01*
X32665694Y59212972D01*
X32655589Y59240787D01*
X32653302Y59250263D01*
X32652469Y59257486D01*
X32651709Y59270526D01*
X32651021Y59288855D01*
X32650405Y59311942D01*
X32649862Y59339259D01*
X32649390Y59370276D01*
X32648992Y59404464D01*
X32648665Y59441294D01*
X32648411Y59480237D01*
X32648230Y59520764D01*
X32648120Y59562344D01*
X32648083Y59604450D01*
X32648119Y59646552D01*
X32648227Y59688121D01*
X32648407Y59728627D01*
X32648660Y59767541D01*
X32648986Y59804335D01*
X32649383Y59838478D01*
X32649854Y59869442D01*
X32650397Y59896697D01*
X32651012Y59919715D01*
X32651700Y59937965D01*
X32652460Y59950920D01*
X32653285Y59958010D01*
X32663029Y59989706D01*
X32677973Y60017837D01*
X32697912Y60042170D01*
X32722640Y60062474D01*
X32751954Y60078517D01*
X32764089Y60083388D01*
X32786638Y60091638D01*
X33067625Y60093225D01*
X33348613Y60094813D01*
X33350247Y60505975D01*
X33067262Y60505975D01*
X33015963Y60505970D01*
G36*
X40901144Y61089220D02*
G01*
X40819557Y61089091D01*
X40744056Y61088970D01*
X40674378Y61088852D01*
X40610258Y61088734D01*
X40551433Y61088609D01*
X40497640Y61088473D01*
X40448614Y61088322D01*
X40404092Y61088151D01*
X40363810Y61087955D01*
X40327504Y61087730D01*
X40294911Y61087470D01*
X40265767Y61087171D01*
X40239807Y61086828D01*
X40216769Y61086437D01*
X40196389Y61085992D01*
X40178402Y61085489D01*
X40162546Y61084924D01*
X40148556Y61084291D01*
X40136169Y61083586D01*
X40125120Y61082804D01*
X40115147Y61081941D01*
X40105985Y61080991D01*
X40097371Y61079950D01*
X40089040Y61078813D01*
X40080730Y61077575D01*
X40072176Y61076232D01*
X40063115Y61074780D01*
X40058975Y61074116D01*
X39985240Y61059253D01*
X39912790Y61038560D01*
X39842104Y61012312D01*
X39773659Y60980782D01*
X39707932Y60944244D01*
X39645400Y60902970D01*
X39586541Y60857234D01*
X39531831Y60807309D01*
X39481750Y60753469D01*
X39466066Y60734575D01*
X39421916Y60674956D01*
X39381958Y60611106D01*
X39346596Y60543887D01*
X39316228Y60474162D01*
X39291258Y60402792D01*
X39272085Y60330641D01*
X39267101Y60306821D01*
X39263897Y60290315D01*
X39261081Y60275413D01*
X39258627Y60261594D01*
X39256508Y60248339D01*
X39254695Y60235131D01*
X39253161Y60221448D01*
X39251879Y60206772D01*
X39250821Y60190585D01*
X39249960Y60172366D01*
X39249268Y60151596D01*
X39248718Y60127757D01*
X39248282Y60100329D01*
X39247932Y60068793D01*
X39247642Y60032630D01*
X39247383Y59991321D01*
X39247129Y59944346D01*
X39247045Y59928125D01*
X39246788Y59870995D01*
X39246666Y59819720D01*
X39246711Y59773806D01*
X39246955Y59732761D01*
X39247431Y59696091D01*
X39248169Y59663302D01*
X39249204Y59633900D01*
X39250566Y59607393D01*
X39252288Y59583285D01*
X39254403Y59561084D01*
X39256942Y59540296D01*
X39259938Y59520428D01*
X39263423Y59500985D01*
X39267429Y59481474D01*
X39271989Y59461402D01*
X39277134Y59440275D01*
X39279499Y59430884D01*
X39301463Y59356513D01*
X39328849Y59284783D01*
X39361437Y59216000D01*
X39399005Y59150469D01*
X39441330Y59088495D01*
X39488191Y59030383D01*
X39539367Y58976438D01*
X39594635Y58926967D01*
X39653774Y58882272D01*
X39699646Y58852607D01*
X39767345Y58815077D01*
X39837000Y58782882D01*
X39907906Y58756299D01*
X39979356Y58735606D01*
X40019470Y58726669D01*
X40029553Y58724637D01*
X40038709Y58722753D01*
X40047200Y58721014D01*
X40055282Y58719412D01*
X40063218Y58717942D01*
X40071264Y58716598D01*
X40079681Y58715373D01*
X40088729Y58714262D01*
X40098666Y58713259D01*
X40109751Y58712358D01*
X40122245Y58711553D01*
X40136406Y58710837D01*
X40152493Y58710205D01*
X40170767Y58709651D01*
X40191486Y58709169D01*
X40214909Y58708753D01*
X40241297Y58708397D01*
X40270908Y58708094D01*
X40304001Y58707839D01*
X40340836Y58707627D01*
X40381672Y58707450D01*
X40426769Y58707303D01*
X40476386Y58707180D01*
X40530782Y58707075D01*
X40590216Y58706982D01*
X40654948Y58706895D01*
X40725238Y58706808D01*
X40801343Y58706715D01*
X40883525Y58706610D01*
X40888444Y58706603D01*
X41643300Y58705598D01*
X41643300Y59515375D01*
X41205150Y59515375D01*
X41205150Y59131200D01*
X40711774Y59131200D01*
X40636827Y59131223D01*
X40567299Y59131291D01*
X40503274Y59131403D01*
X40444831Y59131558D01*
X40392054Y59131757D01*
X40345023Y59131999D01*
X40303820Y59132284D01*
X40268526Y59132610D01*
X40239224Y59132977D01*
X40215994Y59133385D01*
X40198919Y59133833D01*
X40188079Y59134321D01*
X40185518Y59134527D01*
X40126860Y59143249D01*
X40069951Y59157239D01*
X40015411Y59176240D01*
X39963857Y59199993D01*
X39915908Y59228240D01*
X39872183Y59260722D01*
X39861510Y59269894D01*
X39822367Y59308784D01*
X39787946Y59351855D01*
X39758317Y59398966D01*
X39733550Y59449976D01*
X39713713Y59504745D01*
X39698876Y59563131D01*
X39690063Y59616975D01*
X39689227Y59627082D01*
X39688479Y59642851D01*
X39687819Y59663653D01*
X39687247Y59688854D01*
X39686762Y59717826D01*
X39686365Y59749935D01*
X39686055Y59784552D01*
X39685833Y59821045D01*
X39685700Y59858783D01*
X39685653Y59897135D01*
X39685695Y59935469D01*
X39685824Y59973155D01*
X39686042Y60009561D01*
X39686347Y60044057D01*
X39686740Y60076010D01*
X39687221Y60104791D01*
X39687789Y60129767D01*
X39688446Y60150308D01*
X39689190Y60165782D01*
X39690022Y60175559D01*
X39690051Y60175775D01*
X39700138Y60234064D01*
X39714174Y60287938D01*
X39732436Y60338160D01*
X39755199Y60385495D01*
X39781043Y60428184D01*
X39814419Y60472448D01*
X39852651Y60512811D01*
X39895330Y60548924D01*
X39942047Y60580437D01*
X39986987Y60604472D01*
X40039736Y60626224D01*
X40096012Y60643229D01*
X40154830Y60655206D01*
X40176367Y60658225D01*
X40183061Y60658657D01*
X40195908Y60659059D01*
X40214924Y60659431D01*
X40240122Y60659772D01*
X40271516Y60660084D01*
X40309120Y60660365D01*
X40352949Y60660616D01*
X40403017Y60660837D01*
X40459336Y60661028D01*
X40521923Y60661190D01*
X40590789Y60661321D01*
X40665951Y60661423D01*
X40747421Y60661495D01*
X40835214Y60661538D01*
X40923286Y60661551D01*
X41643300Y60661550D01*
X41643300Y61090403D01*
X40901144Y61089220D01*
G37*
X40901144Y61089220D02*
X40819557Y61089091D01*
X40744056Y61088970D01*
X40674378Y61088852D01*
X40610258Y61088734D01*
X40551433Y61088609D01*
X40497640Y61088473D01*
X40448614Y61088322D01*
X40404092Y61088151D01*
X40363810Y61087955D01*
X40327504Y61087730D01*
X40294911Y61087470D01*
X40265767Y61087171D01*
X40239807Y61086828D01*
X40216769Y61086437D01*
X40196389Y61085992D01*
X40178402Y61085489D01*
X40162546Y61084924D01*
X40148556Y61084291D01*
X40136169Y61083586D01*
X40125120Y61082804D01*
X40115147Y61081941D01*
X40105985Y61080991D01*
X40097371Y61079950D01*
X40089040Y61078813D01*
X40080730Y61077575D01*
X40072176Y61076232D01*
X40063115Y61074780D01*
X40058975Y61074116D01*
X39985240Y61059253D01*
X39912790Y61038560D01*
X39842104Y61012312D01*
X39773659Y60980782D01*
X39707932Y60944244D01*
X39645400Y60902970D01*
X39586541Y60857234D01*
X39531831Y60807309D01*
X39481750Y60753469D01*
X39466066Y60734575D01*
X39421916Y60674956D01*
X39381958Y60611106D01*
X39346596Y60543887D01*
X39316228Y60474162D01*
X39291258Y60402792D01*
X39272085Y60330641D01*
X39267101Y60306821D01*
X39263897Y60290315D01*
X39261081Y60275413D01*
X39258627Y60261594D01*
X39256508Y60248339D01*
X39254695Y60235131D01*
X39253161Y60221448D01*
X39251879Y60206772D01*
X39250821Y60190585D01*
X39249960Y60172366D01*
X39249268Y60151596D01*
X39248718Y60127757D01*
X39248282Y60100329D01*
X39247932Y60068793D01*
X39247642Y60032630D01*
X39247383Y59991321D01*
X39247129Y59944346D01*
X39247045Y59928125D01*
X39246788Y59870995D01*
X39246666Y59819720D01*
X39246711Y59773806D01*
X39246955Y59732761D01*
X39247431Y59696091D01*
X39248169Y59663302D01*
X39249204Y59633900D01*
X39250566Y59607393D01*
X39252288Y59583285D01*
X39254403Y59561084D01*
X39256942Y59540296D01*
X39259938Y59520428D01*
X39263423Y59500985D01*
X39267429Y59481474D01*
X39271989Y59461402D01*
X39277134Y59440275D01*
X39279499Y59430884D01*
X39301463Y59356513D01*
X39328849Y59284783D01*
X39361437Y59216000D01*
X39399005Y59150469D01*
X39441330Y59088495D01*
X39488191Y59030383D01*
X39539367Y58976438D01*
X39594635Y58926967D01*
X39653774Y58882272D01*
X39699646Y58852607D01*
X39767345Y58815077D01*
X39837000Y58782882D01*
X39907906Y58756299D01*
X39979356Y58735606D01*
X40019470Y58726669D01*
X40029553Y58724637D01*
X40038709Y58722753D01*
X40047200Y58721014D01*
X40055282Y58719412D01*
X40063218Y58717942D01*
X40071264Y58716598D01*
X40079681Y58715373D01*
X40088729Y58714262D01*
X40098666Y58713259D01*
X40109751Y58712358D01*
X40122245Y58711553D01*
X40136406Y58710837D01*
X40152493Y58710205D01*
X40170767Y58709651D01*
X40191486Y58709169D01*
X40214909Y58708753D01*
X40241297Y58708397D01*
X40270908Y58708094D01*
X40304001Y58707839D01*
X40340836Y58707627D01*
X40381672Y58707450D01*
X40426769Y58707303D01*
X40476386Y58707180D01*
X40530782Y58707075D01*
X40590216Y58706982D01*
X40654948Y58706895D01*
X40725238Y58706808D01*
X40801343Y58706715D01*
X40883525Y58706610D01*
X40888444Y58706603D01*
X41643300Y58705598D01*
X41643300Y59515375D01*
X41205150Y59515375D01*
X41205150Y59131200D01*
X40711774Y59131200D01*
X40636827Y59131223D01*
X40567299Y59131291D01*
X40503274Y59131403D01*
X40444831Y59131558D01*
X40392054Y59131757D01*
X40345023Y59131999D01*
X40303820Y59132284D01*
X40268526Y59132610D01*
X40239224Y59132977D01*
X40215994Y59133385D01*
X40198919Y59133833D01*
X40188079Y59134321D01*
X40185518Y59134527D01*
X40126860Y59143249D01*
X40069951Y59157239D01*
X40015411Y59176240D01*
X39963857Y59199993D01*
X39915908Y59228240D01*
X39872183Y59260722D01*
X39861510Y59269894D01*
X39822367Y59308784D01*
X39787946Y59351855D01*
X39758317Y59398966D01*
X39733550Y59449976D01*
X39713713Y59504745D01*
X39698876Y59563131D01*
X39690063Y59616975D01*
X39689227Y59627082D01*
X39688479Y59642851D01*
X39687819Y59663653D01*
X39687247Y59688854D01*
X39686762Y59717826D01*
X39686365Y59749935D01*
X39686055Y59784552D01*
X39685833Y59821045D01*
X39685700Y59858783D01*
X39685653Y59897135D01*
X39685695Y59935469D01*
X39685824Y59973155D01*
X39686042Y60009561D01*
X39686347Y60044057D01*
X39686740Y60076010D01*
X39687221Y60104791D01*
X39687789Y60129767D01*
X39688446Y60150308D01*
X39689190Y60165782D01*
X39690022Y60175559D01*
X39690051Y60175775D01*
X39700138Y60234064D01*
X39714174Y60287938D01*
X39732436Y60338160D01*
X39755199Y60385495D01*
X39781043Y60428184D01*
X39814419Y60472448D01*
X39852651Y60512811D01*
X39895330Y60548924D01*
X39942047Y60580437D01*
X39986987Y60604472D01*
X40039736Y60626224D01*
X40096012Y60643229D01*
X40154830Y60655206D01*
X40176367Y60658225D01*
X40183061Y60658657D01*
X40195908Y60659059D01*
X40214924Y60659431D01*
X40240122Y60659772D01*
X40271516Y60660084D01*
X40309120Y60660365D01*
X40352949Y60660616D01*
X40403017Y60660837D01*
X40459336Y60661028D01*
X40521923Y60661190D01*
X40590789Y60661321D01*
X40665951Y60661423D01*
X40747421Y60661495D01*
X40835214Y60661538D01*
X40923286Y60661551D01*
X41643300Y60661550D01*
X41643300Y61090403D01*
X40901144Y61089220D01*
G36*
X38452425Y59896242D02*
G01*
X38452429Y59821465D01*
X38452433Y59752765D01*
X38452431Y59689869D01*
X38452415Y59632504D01*
X38452377Y59580398D01*
X38452309Y59533277D01*
X38452204Y59490868D01*
X38452054Y59452899D01*
X38451851Y59419096D01*
X38451588Y59389187D01*
X38451256Y59362898D01*
X38450848Y59339957D01*
X38450357Y59320091D01*
X38449774Y59303027D01*
X38449092Y59288492D01*
X38448303Y59276212D01*
X38447399Y59265916D01*
X38446373Y59257330D01*
X38445217Y59250181D01*
X38443923Y59244196D01*
X38442483Y59239102D01*
X38440890Y59234627D01*
X38439137Y59230497D01*
X38437214Y59226440D01*
X38435115Y59222182D01*
X38433230Y59218293D01*
X38419246Y59194426D01*
X38401677Y59174743D01*
X38379807Y59158636D01*
X38352917Y59145498D01*
X38342888Y59141734D01*
X38317488Y59132788D01*
X38034913Y59131200D01*
X37752338Y59129613D01*
X37751522Y58917682D01*
X37750705Y58705750D01*
X38042034Y58706077D01*
X38094716Y58706155D01*
X38141429Y58706268D01*
X38182554Y58706421D01*
X38218473Y58706619D01*
X38249566Y58706869D01*
X38276215Y58707176D01*
X38298802Y58707546D01*
X38317706Y58707984D01*
X38333310Y58708496D01*
X38345995Y58709088D01*
X38356141Y58709764D01*
X38364130Y58710531D01*
X38366700Y58710851D01*
X38426002Y58721531D01*
X38483406Y58737361D01*
X38538365Y58758063D01*
X38590333Y58783360D01*
X38638763Y58812975D01*
X38683109Y58846629D01*
X38722823Y58884046D01*
X38735677Y58898150D01*
X38753709Y58920276D01*
X38772642Y58946135D01*
X38791174Y58973768D01*
X38808002Y59001219D01*
X38821824Y59026530D01*
X38823846Y59030611D01*
X38841753Y59072338D01*
X38855972Y59116596D01*
X38866783Y59164424D01*
X38874468Y59216862D01*
X38874653Y59218513D01*
X38875054Y59225386D01*
X38875431Y59238474D01*
X38875783Y59257644D01*
X38876110Y59282761D01*
X38876411Y59313691D01*
X38876685Y59350300D01*
X38876932Y59392454D01*
X38877151Y59440019D01*
X38877342Y59492860D01*
X38877503Y59550843D01*
X38877634Y59613834D01*
X38877735Y59681699D01*
X38877805Y59754304D01*
X38877842Y59831514D01*
X38877849Y59876532D01*
X38877875Y60505975D01*
X38452425Y60505975D01*
X38452425Y59896242D01*
G37*
X38452425Y59896242D02*
X38452429Y59821465D01*
X38452433Y59752765D01*
X38452431Y59689869D01*
X38452415Y59632504D01*
X38452377Y59580398D01*
X38452309Y59533277D01*
X38452204Y59490868D01*
X38452054Y59452899D01*
X38451851Y59419096D01*
X38451588Y59389187D01*
X38451256Y59362898D01*
X38450848Y59339957D01*
X38450357Y59320091D01*
X38449774Y59303027D01*
X38449092Y59288492D01*
X38448303Y59276212D01*
X38447399Y59265916D01*
X38446373Y59257330D01*
X38445217Y59250181D01*
X38443923Y59244196D01*
X38442483Y59239102D01*
X38440890Y59234627D01*
X38439137Y59230497D01*
X38437214Y59226440D01*
X38435115Y59222182D01*
X38433230Y59218293D01*
X38419246Y59194426D01*
X38401677Y59174743D01*
X38379807Y59158636D01*
X38352917Y59145498D01*
X38342888Y59141734D01*
X38317488Y59132788D01*
X38034913Y59131200D01*
X37752338Y59129613D01*
X37751522Y58917682D01*
X37750705Y58705750D01*
X38042034Y58706077D01*
X38094716Y58706155D01*
X38141429Y58706268D01*
X38182554Y58706421D01*
X38218473Y58706619D01*
X38249566Y58706869D01*
X38276215Y58707176D01*
X38298802Y58707546D01*
X38317706Y58707984D01*
X38333310Y58708496D01*
X38345995Y58709088D01*
X38356141Y58709764D01*
X38364130Y58710531D01*
X38366700Y58710851D01*
X38426002Y58721531D01*
X38483406Y58737361D01*
X38538365Y58758063D01*
X38590333Y58783360D01*
X38638763Y58812975D01*
X38683109Y58846629D01*
X38722823Y58884046D01*
X38735677Y58898150D01*
X38753709Y58920276D01*
X38772642Y58946135D01*
X38791174Y58973768D01*
X38808002Y59001219D01*
X38821824Y59026530D01*
X38823846Y59030611D01*
X38841753Y59072338D01*
X38855972Y59116596D01*
X38866783Y59164424D01*
X38874468Y59216862D01*
X38874653Y59218513D01*
X38875054Y59225386D01*
X38875431Y59238474D01*
X38875783Y59257644D01*
X38876110Y59282761D01*
X38876411Y59313691D01*
X38876685Y59350300D01*
X38876932Y59392454D01*
X38877151Y59440019D01*
X38877342Y59492860D01*
X38877503Y59550843D01*
X38877634Y59613834D01*
X38877735Y59681699D01*
X38877805Y59754304D01*
X38877842Y59831514D01*
X38877849Y59876532D01*
X38877875Y60505975D01*
X38452425Y60505975D01*
X38452425Y59896242D01*
G36*
X35703064Y60505976D02*
G01*
X35639385Y60505966D01*
X35581195Y60505942D01*
X35528207Y60505898D01*
X35480133Y60505825D01*
X35436687Y60505720D01*
X35397582Y60505574D01*
X35362531Y60505383D01*
X35331246Y60505138D01*
X35303440Y60504835D01*
X35278827Y60504467D01*
X35257120Y60504028D01*
X35238030Y60503511D01*
X35221272Y60502910D01*
X35206559Y60502219D01*
X35193602Y60501431D01*
X35182116Y60500540D01*
X35171813Y60499540D01*
X35162406Y60498425D01*
X35153608Y60497188D01*
X35145132Y60495823D01*
X35136691Y60494323D01*
X35127998Y60492682D01*
X35118766Y60490895D01*
X35113334Y60489843D01*
X35050120Y60474801D01*
X34987165Y60454313D01*
X34925360Y60428834D01*
X34865597Y60398821D01*
X34808765Y60364729D01*
X34755755Y60327013D01*
X34707459Y60286130D01*
X34698312Y60277487D01*
X34651772Y60228338D01*
X34610446Y60175579D01*
X34574330Y60119203D01*
X34543422Y60059201D01*
X34517715Y59995566D01*
X34497208Y59928289D01*
X34481895Y59857364D01*
X34478416Y59836050D01*
X34477710Y59831037D01*
X34477065Y59825510D01*
X34476476Y59819172D01*
X34475941Y59811727D01*
X34475456Y59802878D01*
X34475017Y59792328D01*
X34474622Y59779781D01*
X34474268Y59764939D01*
X34473950Y59747507D01*
X34473665Y59727187D01*
X34473411Y59703683D01*
X34473183Y59676698D01*
X34472979Y59645935D01*
X34472794Y59611097D01*
X34472627Y59571888D01*
X34472472Y59528012D01*
X34472328Y59479170D01*
X34472190Y59425068D01*
X34472056Y59365407D01*
X34471921Y59299892D01*
X34471830Y59252644D01*
X34470786Y58705750D01*
X34909125Y58705750D01*
X34909128Y59208194D01*
X34909150Y59280172D01*
X34909214Y59347599D01*
X34909320Y59410323D01*
X34909465Y59468191D01*
X34909651Y59521054D01*
X34909875Y59568758D01*
X34910136Y59611153D01*
X34910435Y59648087D01*
X34910769Y59679408D01*
X34911138Y59704965D01*
X34911541Y59724606D01*
X34911978Y59738180D01*
X34912380Y59744905D01*
X34917199Y59782034D01*
X34924491Y59815089D01*
X34934839Y59846059D01*
X34948826Y59876933D01*
X34954023Y59886850D01*
X34978513Y59926057D01*
X35007209Y59960585D01*
X35040176Y59990479D01*
X35077475Y60015785D01*
X35119169Y60036549D01*
X35165321Y60052818D01*
X35190113Y60059286D01*
X35194376Y60060255D01*
X35198648Y60061126D01*
X35203278Y60061906D01*
X35208611Y60062600D01*
X35214994Y60063216D01*
X35222775Y60063758D01*
X35232300Y60064233D01*
X35243917Y60064648D01*
X35257972Y60065008D01*
X35274812Y60065320D01*
X35294784Y60065589D01*
X35318235Y60065822D01*
X35345512Y60066025D01*
X35376961Y60066204D01*
X35412931Y60066366D01*
X35453767Y60066515D01*
X35499817Y60066660D01*
X35551427Y60066805D01*
X35608945Y60066957D01*
X35625882Y60067000D01*
X36033075Y60068053D01*
X36033075Y58705750D01*
X36471225Y58705750D01*
X36471225Y60505975D01*
X35848037Y60505975D01*
X35772519Y60505977D01*
X35703064Y60505976D01*
G37*
X35703064Y60505976D02*
X35639385Y60505966D01*
X35581195Y60505942D01*
X35528207Y60505898D01*
X35480133Y60505825D01*
X35436687Y60505720D01*
X35397582Y60505574D01*
X35362531Y60505383D01*
X35331246Y60505138D01*
X35303440Y60504835D01*
X35278827Y60504467D01*
X35257120Y60504028D01*
X35238030Y60503511D01*
X35221272Y60502910D01*
X35206559Y60502219D01*
X35193602Y60501431D01*
X35182116Y60500540D01*
X35171813Y60499540D01*
X35162406Y60498425D01*
X35153608Y60497188D01*
X35145132Y60495823D01*
X35136691Y60494323D01*
X35127998Y60492682D01*
X35118766Y60490895D01*
X35113334Y60489843D01*
X35050120Y60474801D01*
X34987165Y60454313D01*
X34925360Y60428834D01*
X34865597Y60398821D01*
X34808765Y60364729D01*
X34755755Y60327013D01*
X34707459Y60286130D01*
X34698312Y60277487D01*
X34651772Y60228338D01*
X34610446Y60175579D01*
X34574330Y60119203D01*
X34543422Y60059201D01*
X34517715Y59995566D01*
X34497208Y59928289D01*
X34481895Y59857364D01*
X34478416Y59836050D01*
X34477710Y59831037D01*
X34477065Y59825510D01*
X34476476Y59819172D01*
X34475941Y59811727D01*
X34475456Y59802878D01*
X34475017Y59792328D01*
X34474622Y59779781D01*
X34474268Y59764939D01*
X34473950Y59747507D01*
X34473665Y59727187D01*
X34473411Y59703683D01*
X34473183Y59676698D01*
X34472979Y59645935D01*
X34472794Y59611097D01*
X34472627Y59571888D01*
X34472472Y59528012D01*
X34472328Y59479170D01*
X34472190Y59425068D01*
X34472056Y59365407D01*
X34471921Y59299892D01*
X34471830Y59252644D01*
X34470786Y58705750D01*
X34909125Y58705750D01*
X34909128Y59208194D01*
X34909150Y59280172D01*
X34909214Y59347599D01*
X34909320Y59410323D01*
X34909465Y59468191D01*
X34909651Y59521054D01*
X34909875Y59568758D01*
X34910136Y59611153D01*
X34910435Y59648087D01*
X34910769Y59679408D01*
X34911138Y59704965D01*
X34911541Y59724606D01*
X34911978Y59738180D01*
X34912380Y59744905D01*
X34917199Y59782034D01*
X34924491Y59815089D01*
X34934839Y59846059D01*
X34948826Y59876933D01*
X34954023Y59886850D01*
X34978513Y59926057D01*
X35007209Y59960585D01*
X35040176Y59990479D01*
X35077475Y60015785D01*
X35119169Y60036549D01*
X35165321Y60052818D01*
X35190113Y60059286D01*
X35194376Y60060255D01*
X35198648Y60061126D01*
X35203278Y60061906D01*
X35208611Y60062600D01*
X35214994Y60063216D01*
X35222775Y60063758D01*
X35232300Y60064233D01*
X35243917Y60064648D01*
X35257972Y60065008D01*
X35274812Y60065320D01*
X35294784Y60065589D01*
X35318235Y60065822D01*
X35345512Y60066025D01*
X35376961Y60066204D01*
X35412931Y60066366D01*
X35453767Y60066515D01*
X35499817Y60066660D01*
X35551427Y60066805D01*
X35608945Y60066957D01*
X35625882Y60067000D01*
X36033075Y60068053D01*
X36033075Y58705750D01*
X36471225Y58705750D01*
X36471225Y60505975D01*
X35848037Y60505975D01*
X35772519Y60505977D01*
X35703064Y60505976D01*
G36*
X30839569Y60505215D02*
G01*
X29811663Y60504377D01*
X29776529Y60497305D01*
X29711421Y60481423D01*
X29650057Y60460789D01*
X29592605Y60435510D01*
X29539230Y60405695D01*
X29490097Y60371451D01*
X29445374Y60332884D01*
X29405226Y60290102D01*
X29369819Y60243213D01*
X29359958Y60228061D01*
X29346354Y60204194D01*
X29332445Y60175856D01*
X29318961Y60144844D01*
X29306635Y60112951D01*
X29296199Y60081972D01*
X29288385Y60053703D01*
X29287769Y60051062D01*
X29285966Y60043268D01*
X29284309Y60036107D01*
X29282790Y60029299D01*
X29281403Y60022562D01*
X29280142Y60015616D01*
X29279000Y60008179D01*
X29277971Y59999971D01*
X29277047Y59990711D01*
X29276224Y59980117D01*
X29275494Y59967910D01*
X29274850Y59953807D01*
X29274286Y59937528D01*
X29273796Y59918792D01*
X29273373Y59897318D01*
X29273010Y59872825D01*
X29272702Y59845031D01*
X29272440Y59813657D01*
X29272220Y59778421D01*
X29272035Y59739042D01*
X29271877Y59695240D01*
X29271741Y59646732D01*
X29271620Y59593239D01*
X29271507Y59534479D01*
X29271396Y59470171D01*
X29271281Y59400035D01*
X29271174Y59335194D01*
X29270117Y58705750D01*
X29711557Y58705750D01*
X29712398Y59327257D01*
X29713238Y59948763D01*
X29720889Y59970377D01*
X29733493Y59998038D01*
X29750120Y60020843D01*
X29771035Y60039057D01*
X29796503Y60052944D01*
X29808488Y60057504D01*
X29833888Y60066134D01*
X30042644Y60067148D01*
X30251400Y60068161D01*
X30251400Y58705750D01*
X30689426Y58705750D01*
X30690305Y59324082D01*
X30690413Y59397987D01*
X30690519Y59465810D01*
X30690625Y59527823D01*
X30690735Y59584292D01*
X30690852Y59635488D01*
X30690977Y59681679D01*
X30691113Y59723134D01*
X30691264Y59760124D01*
X30691433Y59792916D01*
X30691620Y59821779D01*
X30691831Y59846984D01*
X30692066Y59868799D01*
X30692329Y59887492D01*
X30692623Y59903334D01*
X30692950Y59916593D01*
X30693313Y59927538D01*
X30693714Y59936439D01*
X30694157Y59943564D01*
X30694644Y59949183D01*
X30695177Y59953565D01*
X30695761Y59956978D01*
X30696396Y59959692D01*
X30696702Y59960766D01*
X30704840Y59983298D01*
X30714900Y60001836D01*
X30728171Y60018707D01*
X30729870Y60020547D01*
X30744471Y60034252D01*
X30760437Y60045008D01*
X30779715Y60053995D01*
X30792738Y60058715D01*
X30814963Y60066188D01*
X31429325Y60068064D01*
X31429325Y58705750D01*
X31867475Y58705750D01*
X31867475Y60506052D01*
X30839569Y60505215D01*
G37*
X30839569Y60505215D02*
X29811663Y60504377D01*
X29776529Y60497305D01*
X29711421Y60481423D01*
X29650057Y60460789D01*
X29592605Y60435510D01*
X29539230Y60405695D01*
X29490097Y60371451D01*
X29445374Y60332884D01*
X29405226Y60290102D01*
X29369819Y60243213D01*
X29359958Y60228061D01*
X29346354Y60204194D01*
X29332445Y60175856D01*
X29318961Y60144844D01*
X29306635Y60112951D01*
X29296199Y60081972D01*
X29288385Y60053703D01*
X29287769Y60051062D01*
X29285966Y60043268D01*
X29284309Y60036107D01*
X29282790Y60029299D01*
X29281403Y60022562D01*
X29280142Y60015616D01*
X29279000Y60008179D01*
X29277971Y59999971D01*
X29277047Y59990711D01*
X29276224Y59980117D01*
X29275494Y59967910D01*
X29274850Y59953807D01*
X29274286Y59937528D01*
X29273796Y59918792D01*
X29273373Y59897318D01*
X29273010Y59872825D01*
X29272702Y59845031D01*
X29272440Y59813657D01*
X29272220Y59778421D01*
X29272035Y59739042D01*
X29271877Y59695240D01*
X29271741Y59646732D01*
X29271620Y59593239D01*
X29271507Y59534479D01*
X29271396Y59470171D01*
X29271281Y59400035D01*
X29271174Y59335194D01*
X29270117Y58705750D01*
X29711557Y58705750D01*
X29712398Y59327257D01*
X29713238Y59948763D01*
X29720889Y59970377D01*
X29733493Y59998038D01*
X29750120Y60020843D01*
X29771035Y60039057D01*
X29796503Y60052944D01*
X29808488Y60057504D01*
X29833888Y60066134D01*
X30042644Y60067148D01*
X30251400Y60068161D01*
X30251400Y58705750D01*
X30689426Y58705750D01*
X30690305Y59324082D01*
X30690413Y59397987D01*
X30690519Y59465810D01*
X30690625Y59527823D01*
X30690735Y59584292D01*
X30690852Y59635488D01*
X30690977Y59681679D01*
X30691113Y59723134D01*
X30691264Y59760124D01*
X30691433Y59792916D01*
X30691620Y59821779D01*
X30691831Y59846984D01*
X30692066Y59868799D01*
X30692329Y59887492D01*
X30692623Y59903334D01*
X30692950Y59916593D01*
X30693313Y59927538D01*
X30693714Y59936439D01*
X30694157Y59943564D01*
X30694644Y59949183D01*
X30695177Y59953565D01*
X30695761Y59956978D01*
X30696396Y59959692D01*
X30696702Y59960766D01*
X30704840Y59983298D01*
X30714900Y60001836D01*
X30728171Y60018707D01*
X30729870Y60020547D01*
X30744471Y60034252D01*
X30760437Y60045008D01*
X30779715Y60053995D01*
X30792738Y60058715D01*
X30814963Y60066188D01*
X31429325Y60068064D01*
X31429325Y58705750D01*
X31867475Y58705750D01*
X31867475Y60506052D01*
X30839569Y60505215D01*
G36*
X28438475Y58705750D02*
G01*
X28863925Y58705750D01*
X28863925Y60505975D01*
X28438475Y60505975D01*
X28438475Y58705750D01*
G37*
X28438475Y58705750D02*
X28863925Y58705750D01*
X28863925Y60505975D01*
X28438475Y60505975D01*
X28438475Y58705750D01*
G36*
X26269950Y60067936D02*
G01*
X26881932Y60067018D01*
X26955655Y60066904D01*
X27023296Y60066791D01*
X27085123Y60066676D01*
X27141403Y60066557D01*
X27192403Y60066432D01*
X27238393Y60066296D01*
X27279639Y60066149D01*
X27316408Y60065986D01*
X27348970Y60065807D01*
X27377592Y60065607D01*
X27402540Y60065385D01*
X27424084Y60065138D01*
X27442491Y60064863D01*
X27458028Y60064558D01*
X27470963Y60064220D01*
X27481565Y60063847D01*
X27490100Y60063435D01*
X27496836Y60062982D01*
X27502042Y60062486D01*
X27505985Y60061944D01*
X27508932Y60061354D01*
X27510563Y60060905D01*
X27539840Y60049332D01*
X27563957Y60034285D01*
X27583333Y60015326D01*
X27598387Y59992016D01*
X27609538Y59963916D01*
X27612227Y59954319D01*
X27613116Y59950493D01*
X27613904Y59946074D01*
X27614597Y59940683D01*
X27615202Y59933939D01*
X27615725Y59925463D01*
X27616170Y59914873D01*
X27616545Y59901790D01*
X27616855Y59885833D01*
X27617106Y59866622D01*
X27617304Y59843778D01*
X27617455Y59816919D01*
X27617564Y59785665D01*
X27617638Y59749636D01*
X27617682Y59708453D01*
X27617702Y59661734D01*
X27617705Y59609099D01*
X27617705Y59601100D01*
X27617671Y59269313D01*
X27610503Y59243971D01*
X27599794Y59214783D01*
X27585387Y59190502D01*
X27566854Y59170597D01*
X27543769Y59154534D01*
X27535480Y59150182D01*
X27531040Y59147950D01*
X27527012Y59145900D01*
X27523122Y59144026D01*
X27519094Y59142319D01*
X27514654Y59140771D01*
X27509526Y59139375D01*
X27503437Y59138123D01*
X27496110Y59137007D01*
X27487272Y59136019D01*
X27476647Y59135152D01*
X27463960Y59134397D01*
X27448936Y59133747D01*
X27431301Y59133193D01*
X27410779Y59132729D01*
X27387095Y59132346D01*
X27359976Y59132036D01*
X27329145Y59131792D01*
X27294328Y59131605D01*
X27255250Y59131469D01*
X27211636Y59131374D01*
X27163211Y59131314D01*
X27109700Y59131280D01*
X27050828Y59131265D01*
X26986321Y59131260D01*
X26915903Y59131258D01*
X26870819Y59131256D01*
X26269950Y59131200D01*
X26269950Y58705750D01*
X26889869Y58706078D01*
X26966859Y58706126D01*
X27037740Y58706187D01*
X27102753Y58706264D01*
X27162140Y58706356D01*
X27216141Y58706467D01*
X27264997Y58706598D01*
X27308949Y58706750D01*
X27348239Y58706926D01*
X27383108Y58707126D01*
X27413797Y58707353D01*
X27440546Y58707608D01*
X27463597Y58707893D01*
X27483192Y58708209D01*
X27499570Y58708559D01*
X27512973Y58708943D01*
X27523643Y58709364D01*
X27531819Y58709823D01*
X27537745Y58710323D01*
X27539950Y58710589D01*
X27604153Y58722321D01*
X27664703Y58739176D01*
X27721543Y58761120D01*
X27774615Y58788120D01*
X27823863Y58820139D01*
X27869227Y58857143D01*
X27910651Y58899099D01*
X27948077Y58945970D01*
X27959595Y58962593D01*
X27984049Y59001848D01*
X28004224Y59040494D01*
X28020737Y59080074D01*
X28034201Y59122135D01*
X28045233Y59168222D01*
X28048851Y59186763D01*
X28049865Y59192456D01*
X28050770Y59198192D01*
X28051573Y59204359D01*
X28052282Y59211343D01*
X28052906Y59219532D01*
X28053451Y59229312D01*
X28053927Y59241071D01*
X28054339Y59255196D01*
X28054698Y59272073D01*
X28055010Y59292091D01*
X28055283Y59315635D01*
X28055524Y59343092D01*
X28055743Y59374851D01*
X28055947Y59411298D01*
X28056143Y59452819D01*
X28056340Y59499803D01*
X28056544Y59552636D01*
X28056607Y59569350D01*
X28056815Y59631673D01*
X28056947Y59687853D01*
X28057000Y59738096D01*
X28056975Y59782612D01*
X28056870Y59821605D01*
X28056683Y59855283D01*
X28056413Y59883852D01*
X28056060Y59907521D01*
X28055621Y59926495D01*
X28055096Y59940981D01*
X28054483Y59951187D01*
X28054274Y59953525D01*
X28045348Y60014871D01*
X28031108Y60074452D01*
X28011807Y60131798D01*
X27987698Y60186434D01*
X27959033Y60237890D01*
X27926067Y60285692D01*
X27889051Y60329368D01*
X27848239Y60368445D01*
X27820075Y60390948D01*
X27771335Y60423177D01*
X27718881Y60450458D01*
X27663200Y60472603D01*
X27604779Y60489425D01*
X27544105Y60500738D01*
X27528838Y60502661D01*
X27521680Y60503102D01*
X27508240Y60503513D01*
X27488588Y60503893D01*
X27462790Y60504242D01*
X27430916Y60504560D01*
X27393034Y60504845D01*
X27349212Y60505099D01*
X27299519Y60505321D01*
X27244023Y60505510D01*
X27182792Y60505665D01*
X27115895Y60505787D01*
X27043400Y60505876D01*
X26965376Y60505930D01*
X26885107Y60505949D01*
X26269950Y60505975D01*
X26269950Y60067936D01*
G37*
X26269950Y60067936D02*
X26881932Y60067018D01*
X26955655Y60066904D01*
X27023296Y60066791D01*
X27085123Y60066676D01*
X27141403Y60066557D01*
X27192403Y60066432D01*
X27238393Y60066296D01*
X27279639Y60066149D01*
X27316408Y60065986D01*
X27348970Y60065807D01*
X27377592Y60065607D01*
X27402540Y60065385D01*
X27424084Y60065138D01*
X27442491Y60064863D01*
X27458028Y60064558D01*
X27470963Y60064220D01*
X27481565Y60063847D01*
X27490100Y60063435D01*
X27496836Y60062982D01*
X27502042Y60062486D01*
X27505985Y60061944D01*
X27508932Y60061354D01*
X27510563Y60060905D01*
X27539840Y60049332D01*
X27563957Y60034285D01*
X27583333Y60015326D01*
X27598387Y59992016D01*
X27609538Y59963916D01*
X27612227Y59954319D01*
X27613116Y59950493D01*
X27613904Y59946074D01*
X27614597Y59940683D01*
X27615202Y59933939D01*
X27615725Y59925463D01*
X27616170Y59914873D01*
X27616545Y59901790D01*
X27616855Y59885833D01*
X27617106Y59866622D01*
X27617304Y59843778D01*
X27617455Y59816919D01*
X27617564Y59785665D01*
X27617638Y59749636D01*
X27617682Y59708453D01*
X27617702Y59661734D01*
X27617705Y59609099D01*
X27617705Y59601100D01*
X27617671Y59269313D01*
X27610503Y59243971D01*
X27599794Y59214783D01*
X27585387Y59190502D01*
X27566854Y59170597D01*
X27543769Y59154534D01*
X27535480Y59150182D01*
X27531040Y59147950D01*
X27527012Y59145900D01*
X27523122Y59144026D01*
X27519094Y59142319D01*
X27514654Y59140771D01*
X27509526Y59139375D01*
X27503437Y59138123D01*
X27496110Y59137007D01*
X27487272Y59136019D01*
X27476647Y59135152D01*
X27463960Y59134397D01*
X27448936Y59133747D01*
X27431301Y59133193D01*
X27410779Y59132729D01*
X27387095Y59132346D01*
X27359976Y59132036D01*
X27329145Y59131792D01*
X27294328Y59131605D01*
X27255250Y59131469D01*
X27211636Y59131374D01*
X27163211Y59131314D01*
X27109700Y59131280D01*
X27050828Y59131265D01*
X26986321Y59131260D01*
X26915903Y59131258D01*
X26870819Y59131256D01*
X26269950Y59131200D01*
X26269950Y58705750D01*
X26889869Y58706078D01*
X26966859Y58706126D01*
X27037740Y58706187D01*
X27102753Y58706264D01*
X27162140Y58706356D01*
X27216141Y58706467D01*
X27264997Y58706598D01*
X27308949Y58706750D01*
X27348239Y58706926D01*
X27383108Y58707126D01*
X27413797Y58707353D01*
X27440546Y58707608D01*
X27463597Y58707893D01*
X27483192Y58708209D01*
X27499570Y58708559D01*
X27512973Y58708943D01*
X27523643Y58709364D01*
X27531819Y58709823D01*
X27537745Y58710323D01*
X27539950Y58710589D01*
X27604153Y58722321D01*
X27664703Y58739176D01*
X27721543Y58761120D01*
X27774615Y58788120D01*
X27823863Y58820139D01*
X27869227Y58857143D01*
X27910651Y58899099D01*
X27948077Y58945970D01*
X27959595Y58962593D01*
X27984049Y59001848D01*
X28004224Y59040494D01*
X28020737Y59080074D01*
X28034201Y59122135D01*
X28045233Y59168222D01*
X28048851Y59186763D01*
X28049865Y59192456D01*
X28050770Y59198192D01*
X28051573Y59204359D01*
X28052282Y59211343D01*
X28052906Y59219532D01*
X28053451Y59229312D01*
X28053927Y59241071D01*
X28054339Y59255196D01*
X28054698Y59272073D01*
X28055010Y59292091D01*
X28055283Y59315635D01*
X28055524Y59343092D01*
X28055743Y59374851D01*
X28055947Y59411298D01*
X28056143Y59452819D01*
X28056340Y59499803D01*
X28056544Y59552636D01*
X28056607Y59569350D01*
X28056815Y59631673D01*
X28056947Y59687853D01*
X28057000Y59738096D01*
X28056975Y59782612D01*
X28056870Y59821605D01*
X28056683Y59855283D01*
X28056413Y59883852D01*
X28056060Y59907521D01*
X28055621Y59926495D01*
X28055096Y59940981D01*
X28054483Y59951187D01*
X28054274Y59953525D01*
X28045348Y60014871D01*
X28031108Y60074452D01*
X28011807Y60131798D01*
X27987698Y60186434D01*
X27959033Y60237890D01*
X27926067Y60285692D01*
X27889051Y60329368D01*
X27848239Y60368445D01*
X27820075Y60390948D01*
X27771335Y60423177D01*
X27718881Y60450458D01*
X27663200Y60472603D01*
X27604779Y60489425D01*
X27544105Y60500738D01*
X27528838Y60502661D01*
X27521680Y60503102D01*
X27508240Y60503513D01*
X27488588Y60503893D01*
X27462790Y60504242D01*
X27430916Y60504560D01*
X27393034Y60504845D01*
X27349212Y60505099D01*
X27299519Y60505321D01*
X27244023Y60505510D01*
X27182792Y60505665D01*
X27115895Y60505787D01*
X27043400Y60505876D01*
X26965376Y60505930D01*
X26885107Y60505949D01*
X26269950Y60505975D01*
X26269950Y60067936D01*
G36*
X24536400Y60505975D02*
G01*
X24536400Y60067929D01*
X24999157Y60067084D01*
X25063339Y60066975D01*
X25121486Y60066887D01*
X25173914Y60066804D01*
X25220938Y60066711D01*
X25262873Y60066595D01*
X25300034Y60066440D01*
X25332737Y60066231D01*
X25361296Y60065955D01*
X25386028Y60065597D01*
X25407246Y60065141D01*
X25425267Y60064574D01*
X25440406Y60063880D01*
X25452978Y60063046D01*
X25463298Y60062056D01*
X25471682Y60060896D01*
X25478444Y60059552D01*
X25483900Y60058008D01*
X25488365Y60056250D01*
X25492154Y60054264D01*
X25495583Y60052035D01*
X25498967Y60049548D01*
X25502621Y60046789D01*
X25506861Y60043743D01*
X25507148Y60043545D01*
X25521316Y60031312D01*
X25534847Y60015205D01*
X25546058Y59997513D01*
X25553124Y59981008D01*
X25556132Y59965125D01*
X25557124Y59945996D01*
X25556171Y59926244D01*
X25553344Y59908494D01*
X25550958Y59900379D01*
X25538909Y59876612D01*
X25521800Y59855813D01*
X25500587Y59838910D01*
X25476224Y59826833D01*
X25474847Y59826340D01*
X25472136Y59825442D01*
X25469157Y59824635D01*
X25465571Y59823915D01*
X25461041Y59823277D01*
X25455228Y59822716D01*
X25447793Y59822227D01*
X25438397Y59821805D01*
X25426703Y59821445D01*
X25412371Y59821142D01*
X25395063Y59820891D01*
X25374440Y59820687D01*
X25350165Y59820526D01*
X25321897Y59820402D01*
X25289300Y59820310D01*
X25252034Y59820246D01*
X25209760Y59820204D01*
X25162141Y59820180D01*
X25108837Y59820168D01*
X25051624Y59820165D01*
X24988993Y59820155D01*
X24932359Y59820122D01*
X24881368Y59820058D01*
X24835664Y59819952D01*
X24794895Y59819797D01*
X24758706Y59819582D01*
X24726743Y59819298D01*
X24698653Y59818937D01*
X24674082Y59818489D01*
X24652675Y59817944D01*
X24634080Y59817294D01*
X24617941Y59816530D01*
X24603905Y59815641D01*
X24591618Y59814620D01*
X24580726Y59813457D01*
X24570876Y59812142D01*
X24561712Y59810666D01*
X24552882Y59809021D01*
X24544032Y59807196D01*
X24542823Y59806938D01*
X24487003Y59791748D01*
X24433493Y59770865D01*
X24382653Y59744638D01*
X24334842Y59713414D01*
X24290420Y59677545D01*
X24249747Y59637378D01*
X24213183Y59593264D01*
X24181086Y59545550D01*
X24153817Y59494586D01*
X24131735Y59440722D01*
X24117609Y59394083D01*
X24111975Y59370678D01*
X24107727Y59349288D01*
X24104726Y59328443D01*
X24102829Y59306672D01*
X24101895Y59282504D01*
X24101783Y59254469D01*
X24102096Y59232800D01*
X24102644Y59208893D01*
X24103319Y59189976D01*
X24104250Y59174687D01*
X24105568Y59161667D01*
X24107403Y59149555D01*
X24109883Y59136990D01*
X24112250Y59126438D01*
X24127319Y59072376D01*
X24146760Y59022310D01*
X24170982Y58975519D01*
X24200397Y58931283D01*
X24235416Y58888879D01*
X24265530Y58857920D01*
X24308935Y58820329D01*
X24356032Y58787810D01*
X24406904Y58760322D01*
X24461634Y58737821D01*
X24520304Y58720265D01*
X24544338Y58714735D01*
X24579263Y58707338D01*
X25313504Y58706492D01*
X26047746Y58705645D01*
X26046929Y58917629D01*
X26046113Y59129613D01*
X25358725Y59131200D01*
X24671338Y59132788D01*
X24654465Y59139704D01*
X24628402Y59153640D01*
X24606533Y59172332D01*
X24588931Y59195702D01*
X24577152Y59219766D01*
X24571807Y59239918D01*
X24569783Y59263015D01*
X24571068Y59286598D01*
X24575651Y59308207D01*
X24577600Y59313763D01*
X24587137Y59331536D01*
X24601162Y59349198D01*
X24618006Y59365077D01*
X24636002Y59377501D01*
X24645938Y59382316D01*
X24664988Y59389963D01*
X25104725Y59391800D01*
X25166391Y59392060D01*
X25222044Y59392301D01*
X25272020Y59392529D01*
X25316658Y59392751D01*
X25356292Y59392973D01*
X25391261Y59393201D01*
X25421902Y59393441D01*
X25448551Y59393698D01*
X25471544Y59393980D01*
X25491220Y59394292D01*
X25507914Y59394641D01*
X25521964Y59395031D01*
X25533707Y59395470D01*
X25543479Y59395964D01*
X25551617Y59396518D01*
X25558459Y59397139D01*
X25564340Y59397832D01*
X25569599Y59398605D01*
X25574571Y59399462D01*
X25579388Y59400370D01*
X25640708Y59415134D01*
X25698479Y59435073D01*
X25752611Y59460139D01*
X25803016Y59490280D01*
X25849605Y59525445D01*
X25892289Y59565585D01*
X25916255Y59592355D01*
X25951598Y59639206D01*
X25981311Y59688531D01*
X26005414Y59739896D01*
X26023925Y59792871D01*
X26036862Y59847024D01*
X26044243Y59901923D01*
X26046087Y59957138D01*
X26042413Y60012236D01*
X26033237Y60066787D01*
X26018580Y60120358D01*
X25998459Y60172519D01*
X25972892Y60222838D01*
X25941897Y60270882D01*
X25905494Y60316222D01*
X25884587Y60338431D01*
X25847428Y60372650D01*
X25806994Y60404096D01*
X25765004Y60431511D01*
X25734865Y60448002D01*
X25701357Y60462974D01*
X25663799Y60476649D01*
X25624460Y60488345D01*
X25585608Y60497382D01*
X25552484Y60502732D01*
X25545247Y60503207D01*
X25531779Y60503647D01*
X25512198Y60504051D01*
X25486623Y60504419D01*
X25455173Y60504750D01*
X25417966Y60505043D01*
X25375121Y60505298D01*
X25326756Y60505513D01*
X25272991Y60505688D01*
X25213943Y60505822D01*
X25149732Y60505915D01*
X25080475Y60505966D01*
X25030990Y60505976D01*
X24536400Y60505975D01*
G37*
X24536400Y60505975D02*
X24536400Y60067929D01*
X24999157Y60067084D01*
X25063339Y60066975D01*
X25121486Y60066887D01*
X25173914Y60066804D01*
X25220938Y60066711D01*
X25262873Y60066595D01*
X25300034Y60066440D01*
X25332737Y60066231D01*
X25361296Y60065955D01*
X25386028Y60065597D01*
X25407246Y60065141D01*
X25425267Y60064574D01*
X25440406Y60063880D01*
X25452978Y60063046D01*
X25463298Y60062056D01*
X25471682Y60060896D01*
X25478444Y60059552D01*
X25483900Y60058008D01*
X25488365Y60056250D01*
X25492154Y60054264D01*
X25495583Y60052035D01*
X25498967Y60049548D01*
X25502621Y60046789D01*
X25506861Y60043743D01*
X25507148Y60043545D01*
X25521316Y60031312D01*
X25534847Y60015205D01*
X25546058Y59997513D01*
X25553124Y59981008D01*
X25556132Y59965125D01*
X25557124Y59945996D01*
X25556171Y59926244D01*
X25553344Y59908494D01*
X25550958Y59900379D01*
X25538909Y59876612D01*
X25521800Y59855813D01*
X25500587Y59838910D01*
X25476224Y59826833D01*
X25474847Y59826340D01*
X25472136Y59825442D01*
X25469157Y59824635D01*
X25465571Y59823915D01*
X25461041Y59823277D01*
X25455228Y59822716D01*
X25447793Y59822227D01*
X25438397Y59821805D01*
X25426703Y59821445D01*
X25412371Y59821142D01*
X25395063Y59820891D01*
X25374440Y59820687D01*
X25350165Y59820526D01*
X25321897Y59820402D01*
X25289300Y59820310D01*
X25252034Y59820246D01*
X25209760Y59820204D01*
X25162141Y59820180D01*
X25108837Y59820168D01*
X25051624Y59820165D01*
X24988993Y59820155D01*
X24932359Y59820122D01*
X24881368Y59820058D01*
X24835664Y59819952D01*
X24794895Y59819797D01*
X24758706Y59819582D01*
X24726743Y59819298D01*
X24698653Y59818937D01*
X24674082Y59818489D01*
X24652675Y59817944D01*
X24634080Y59817294D01*
X24617941Y59816530D01*
X24603905Y59815641D01*
X24591618Y59814620D01*
X24580726Y59813457D01*
X24570876Y59812142D01*
X24561712Y59810666D01*
X24552882Y59809021D01*
X24544032Y59807196D01*
X24542823Y59806938D01*
X24487003Y59791748D01*
X24433493Y59770865D01*
X24382653Y59744638D01*
X24334842Y59713414D01*
X24290420Y59677545D01*
X24249747Y59637378D01*
X24213183Y59593264D01*
X24181086Y59545550D01*
X24153817Y59494586D01*
X24131735Y59440722D01*
X24117609Y59394083D01*
X24111975Y59370678D01*
X24107727Y59349288D01*
X24104726Y59328443D01*
X24102829Y59306672D01*
X24101895Y59282504D01*
X24101783Y59254469D01*
X24102096Y59232800D01*
X24102644Y59208893D01*
X24103319Y59189976D01*
X24104250Y59174687D01*
X24105568Y59161667D01*
X24107403Y59149555D01*
X24109883Y59136990D01*
X24112250Y59126438D01*
X24127319Y59072376D01*
X24146760Y59022310D01*
X24170982Y58975519D01*
X24200397Y58931283D01*
X24235416Y58888879D01*
X24265530Y58857920D01*
X24308935Y58820329D01*
X24356032Y58787810D01*
X24406904Y58760322D01*
X24461634Y58737821D01*
X24520304Y58720265D01*
X24544338Y58714735D01*
X24579263Y58707338D01*
X25313504Y58706492D01*
X26047746Y58705645D01*
X26046929Y58917629D01*
X26046113Y59129613D01*
X25358725Y59131200D01*
X24671338Y59132788D01*
X24654465Y59139704D01*
X24628402Y59153640D01*
X24606533Y59172332D01*
X24588931Y59195702D01*
X24577152Y59219766D01*
X24571807Y59239918D01*
X24569783Y59263015D01*
X24571068Y59286598D01*
X24575651Y59308207D01*
X24577600Y59313763D01*
X24587137Y59331536D01*
X24601162Y59349198D01*
X24618006Y59365077D01*
X24636002Y59377501D01*
X24645938Y59382316D01*
X24664988Y59389963D01*
X25104725Y59391800D01*
X25166391Y59392060D01*
X25222044Y59392301D01*
X25272020Y59392529D01*
X25316658Y59392751D01*
X25356292Y59392973D01*
X25391261Y59393201D01*
X25421902Y59393441D01*
X25448551Y59393698D01*
X25471544Y59393980D01*
X25491220Y59394292D01*
X25507914Y59394641D01*
X25521964Y59395031D01*
X25533707Y59395470D01*
X25543479Y59395964D01*
X25551617Y59396518D01*
X25558459Y59397139D01*
X25564340Y59397832D01*
X25569599Y59398605D01*
X25574571Y59399462D01*
X25579388Y59400370D01*
X25640708Y59415134D01*
X25698479Y59435073D01*
X25752611Y59460139D01*
X25803016Y59490280D01*
X25849605Y59525445D01*
X25892289Y59565585D01*
X25916255Y59592355D01*
X25951598Y59639206D01*
X25981311Y59688531D01*
X26005414Y59739896D01*
X26023925Y59792871D01*
X26036862Y59847024D01*
X26044243Y59901923D01*
X26046087Y59957138D01*
X26042413Y60012236D01*
X26033237Y60066787D01*
X26018580Y60120358D01*
X25998459Y60172519D01*
X25972892Y60222838D01*
X25941897Y60270882D01*
X25905494Y60316222D01*
X25884587Y60338431D01*
X25847428Y60372650D01*
X25806994Y60404096D01*
X25765004Y60431511D01*
X25734865Y60448002D01*
X25701357Y60462974D01*
X25663799Y60476649D01*
X25624460Y60488345D01*
X25585608Y60497382D01*
X25552484Y60502732D01*
X25545247Y60503207D01*
X25531779Y60503647D01*
X25512198Y60504051D01*
X25486623Y60504419D01*
X25455173Y60504750D01*
X25417966Y60505043D01*
X25375121Y60505298D01*
X25326756Y60505513D01*
X25272991Y60505688D01*
X25213943Y60505822D01*
X25149732Y60505915D01*
X25080475Y60505966D01*
X25030990Y60505976D01*
X24536400Y60505975D01*
G36*
X28495022Y61079716D02*
G01*
X28477740Y61068718D01*
X28461678Y61053940D01*
X28448464Y61037145D01*
X28439724Y61020097D01*
X28439537Y61019568D01*
X28438081Y61014929D01*
X28436888Y61009732D01*
X28435932Y61003328D01*
X28435187Y60995069D01*
X28434628Y60984307D01*
X28434228Y60970393D01*
X28433963Y60952679D01*
X28433805Y60930516D01*
X28433731Y60903257D01*
X28433713Y60872688D01*
X28433734Y60840093D01*
X28433813Y60813200D01*
X28433977Y60791360D01*
X28434251Y60773925D01*
X28434661Y60760246D01*
X28435232Y60749674D01*
X28435990Y60741562D01*
X28436961Y60735260D01*
X28438171Y60730121D01*
X28439537Y60725808D01*
X28447395Y60710103D01*
X28459517Y60693917D01*
X28474256Y60679089D01*
X28489963Y60667458D01*
X28493747Y60665318D01*
X28509913Y60656788D01*
X28646438Y60656203D01*
X28675552Y60656135D01*
X28702911Y60656182D01*
X28727816Y60656333D01*
X28749568Y60656581D01*
X28767466Y60656914D01*
X28780812Y60657326D01*
X28788905Y60657805D01*
X28790900Y60658105D01*
X28810823Y60667075D01*
X28829687Y60680544D01*
X28846010Y60697118D01*
X28858308Y60715401D01*
X28862864Y60725808D01*
X28864320Y60730447D01*
X28865513Y60735644D01*
X28866469Y60742048D01*
X28867214Y60750307D01*
X28867773Y60761069D01*
X28868173Y60774983D01*
X28868438Y60792697D01*
X28868596Y60814860D01*
X28868670Y60842119D01*
X28868688Y60872688D01*
X28868667Y60905283D01*
X28868588Y60932176D01*
X28868424Y60954016D01*
X28868150Y60971451D01*
X28867740Y60985130D01*
X28867169Y60995702D01*
X28866411Y61003814D01*
X28865440Y61010116D01*
X28864230Y61015255D01*
X28862864Y61019568D01*
X28854294Y61036595D01*
X28841197Y61053426D01*
X28825201Y61068296D01*
X28807933Y61079442D01*
X28807379Y61079716D01*
X28789313Y61088588D01*
X28513088Y61088588D01*
X28495022Y61079716D01*
G37*
X28495022Y61079716D02*
X28477740Y61068718D01*
X28461678Y61053940D01*
X28448464Y61037145D01*
X28439724Y61020097D01*
X28439537Y61019568D01*
X28438081Y61014929D01*
X28436888Y61009732D01*
X28435932Y61003328D01*
X28435187Y60995069D01*
X28434628Y60984307D01*
X28434228Y60970393D01*
X28433963Y60952679D01*
X28433805Y60930516D01*
X28433731Y60903257D01*
X28433713Y60872688D01*
X28433734Y60840093D01*
X28433813Y60813200D01*
X28433977Y60791360D01*
X28434251Y60773925D01*
X28434661Y60760246D01*
X28435232Y60749674D01*
X28435990Y60741562D01*
X28436961Y60735260D01*
X28438171Y60730121D01*
X28439537Y60725808D01*
X28447395Y60710103D01*
X28459517Y60693917D01*
X28474256Y60679089D01*
X28489963Y60667458D01*
X28493747Y60665318D01*
X28509913Y60656788D01*
X28646438Y60656203D01*
X28675552Y60656135D01*
X28702911Y60656182D01*
X28727816Y60656333D01*
X28749568Y60656581D01*
X28767466Y60656914D01*
X28780812Y60657326D01*
X28788905Y60657805D01*
X28790900Y60658105D01*
X28810823Y60667075D01*
X28829687Y60680544D01*
X28846010Y60697118D01*
X28858308Y60715401D01*
X28862864Y60725808D01*
X28864320Y60730447D01*
X28865513Y60735644D01*
X28866469Y60742048D01*
X28867214Y60750307D01*
X28867773Y60761069D01*
X28868173Y60774983D01*
X28868438Y60792697D01*
X28868596Y60814860D01*
X28868670Y60842119D01*
X28868688Y60872688D01*
X28868667Y60905283D01*
X28868588Y60932176D01*
X28868424Y60954016D01*
X28868150Y60971451D01*
X28867740Y60985130D01*
X28867169Y60995702D01*
X28866411Y61003814D01*
X28865440Y61010116D01*
X28864230Y61015255D01*
X28862864Y61019568D01*
X28854294Y61036595D01*
X28841197Y61053426D01*
X28825201Y61068296D01*
X28807933Y61079442D01*
X28807379Y61079716D01*
X28789313Y61088588D01*
X28513088Y61088588D01*
X28495022Y61079716D01*
G36*
X44314219Y60405682D02*
G01*
X44277190Y60398925D01*
X44242269Y60386828D01*
X44209922Y60369834D01*
X44180615Y60348384D01*
X44154814Y60322921D01*
X44132985Y60293885D01*
X44115594Y60261718D01*
X44103108Y60226862D01*
X44095992Y60189758D01*
X44094456Y60161774D01*
X44096843Y60123530D01*
X44104057Y60088642D01*
X44116388Y60056028D01*
X44128565Y60033392D01*
X44150629Y60002776D01*
X44177215Y59975740D01*
X44207465Y59952861D01*
X44240520Y59934714D01*
X44275521Y59921874D01*
X44303950Y59915866D01*
X44327345Y59913587D01*
X44349560Y59913388D01*
X44368780Y59915228D01*
X44379157Y59917604D01*
X44391239Y59921175D01*
X44407732Y59925781D01*
X44426880Y59930938D01*
X44439822Y59934332D01*
X44454846Y59940354D01*
X44472158Y59950760D01*
X44490645Y59964573D01*
X44509192Y59980818D01*
X44526683Y59998518D01*
X44542006Y60016695D01*
X44554045Y60034373D01*
X44554112Y60034488D01*
X44571488Y60070273D01*
X44582754Y60107550D01*
X44587872Y60145941D01*
X44586802Y60185069D01*
X44579502Y60224558D01*
X44575651Y60237822D01*
X44566675Y60261854D01*
X44555401Y60283541D01*
X44540836Y60304433D01*
X44521987Y60326077D01*
X44513496Y60334821D01*
X44499657Y60348394D01*
X44488339Y60358464D01*
X44477860Y60366290D01*
X44466538Y60373132D01*
X44453107Y60380046D01*
X44429288Y60390879D01*
X44408028Y60398387D01*
X44386926Y60403205D01*
X44363582Y60405973D01*
X44352890Y60406659D01*
X44314219Y60405682D01*
G37*
X44314219Y60405682D02*
X44277190Y60398925D01*
X44242269Y60386828D01*
X44209922Y60369834D01*
X44180615Y60348384D01*
X44154814Y60322921D01*
X44132985Y60293885D01*
X44115594Y60261718D01*
X44103108Y60226862D01*
X44095992Y60189758D01*
X44094456Y60161774D01*
X44096843Y60123530D01*
X44104057Y60088642D01*
X44116388Y60056028D01*
X44128565Y60033392D01*
X44150629Y60002776D01*
X44177215Y59975740D01*
X44207465Y59952861D01*
X44240520Y59934714D01*
X44275521Y59921874D01*
X44303950Y59915866D01*
X44327345Y59913587D01*
X44349560Y59913388D01*
X44368780Y59915228D01*
X44379157Y59917604D01*
X44391239Y59921175D01*
X44407732Y59925781D01*
X44426880Y59930938D01*
X44439822Y59934332D01*
X44454846Y59940354D01*
X44472158Y59950760D01*
X44490645Y59964573D01*
X44509192Y59980818D01*
X44526683Y59998518D01*
X44542006Y60016695D01*
X44554045Y60034373D01*
X44554112Y60034488D01*
X44571488Y60070273D01*
X44582754Y60107550D01*
X44587872Y60145941D01*
X44586802Y60185069D01*
X44579502Y60224558D01*
X44575651Y60237822D01*
X44566675Y60261854D01*
X44555401Y60283541D01*
X44540836Y60304433D01*
X44521987Y60326077D01*
X44513496Y60334821D01*
X44499657Y60348394D01*
X44488339Y60358464D01*
X44477860Y60366290D01*
X44466538Y60373132D01*
X44453107Y60380046D01*
X44429288Y60390879D01*
X44408028Y60398387D01*
X44386926Y60403205D01*
X44363582Y60405973D01*
X44352890Y60406659D01*
X44314219Y60405682D01*
G36*
X22206573Y60218577D02*
G01*
X22218954Y60159125D01*
X22235689Y60118703D01*
X22278070Y60071940D01*
X22332168Y60043676D01*
X22392238Y60033963D01*
X22452534Y60042857D01*
X22507309Y60070411D01*
X22550203Y60115733D01*
X22571986Y60148979D01*
X22587446Y60113165D01*
X22606907Y60081184D01*
X22635800Y60046743D01*
X22643387Y60039250D01*
X22670483Y60016960D01*
X22697346Y60005511D01*
X22734314Y60001469D01*
X22758055Y60001150D01*
X22804678Y60003204D01*
X22837620Y60011838D01*
X22868437Y60030760D01*
X22880989Y60040605D01*
X22929478Y60088556D01*
X22963055Y60144118D01*
X22983757Y60212349D01*
X22993627Y60298306D01*
X22994615Y60322291D01*
X22995566Y60377937D01*
X22995063Y60425637D01*
X22993242Y60458553D01*
X22991729Y60467875D01*
X22976995Y60484506D01*
X22943329Y60490075D01*
X22939912Y60490100D01*
X22894687Y60490100D01*
X22900985Y60402076D01*
X22903028Y60305613D01*
X22893538Y60230320D01*
X22872177Y60174570D01*
X22847526Y60144025D01*
X22799721Y60115294D01*
X22750026Y60109748D01*
X22703504Y60126139D01*
X22665212Y60163223D01*
X22649108Y60192902D01*
X22639251Y60229549D01*
X22632821Y60278494D01*
X22631400Y60311893D01*
X22631400Y60388500D01*
X22542500Y60388500D01*
X22542500Y60323745D01*
X22538495Y60276256D01*
X22528393Y60231909D01*
X22522837Y60217555D01*
X22490938Y60176360D01*
X22446800Y60152644D01*
X22397407Y60147948D01*
X22349743Y60163809D01*
X22333273Y60175775D01*
X22306748Y60214510D01*
X22293248Y60269980D01*
X22293472Y60336716D01*
X22304923Y60398025D01*
X22322879Y60464700D01*
X22274429Y60464700D01*
X22243802Y60462942D01*
X22227106Y60453114D01*
X22216367Y60428387D01*
X22211391Y60410725D01*
X22202068Y60353071D01*
X22200704Y60286123D01*
X22206573Y60218577D01*
G37*
X22206573Y60218577D02*
X22218954Y60159125D01*
X22235689Y60118703D01*
X22278070Y60071940D01*
X22332168Y60043676D01*
X22392238Y60033963D01*
X22452534Y60042857D01*
X22507309Y60070411D01*
X22550203Y60115733D01*
X22571986Y60148979D01*
X22587446Y60113165D01*
X22606907Y60081184D01*
X22635800Y60046743D01*
X22643387Y60039250D01*
X22670483Y60016960D01*
X22697346Y60005511D01*
X22734314Y60001469D01*
X22758055Y60001150D01*
X22804678Y60003204D01*
X22837620Y60011838D01*
X22868437Y60030760D01*
X22880989Y60040605D01*
X22929478Y60088556D01*
X22963055Y60144118D01*
X22983757Y60212349D01*
X22993627Y60298306D01*
X22994615Y60322291D01*
X22995566Y60377937D01*
X22995063Y60425637D01*
X22993242Y60458553D01*
X22991729Y60467875D01*
X22976995Y60484506D01*
X22943329Y60490075D01*
X22939912Y60490100D01*
X22894687Y60490100D01*
X22900985Y60402076D01*
X22903028Y60305613D01*
X22893538Y60230320D01*
X22872177Y60174570D01*
X22847526Y60144025D01*
X22799721Y60115294D01*
X22750026Y60109748D01*
X22703504Y60126139D01*
X22665212Y60163223D01*
X22649108Y60192902D01*
X22639251Y60229549D01*
X22632821Y60278494D01*
X22631400Y60311893D01*
X22631400Y60388500D01*
X22542500Y60388500D01*
X22542500Y60323745D01*
X22538495Y60276256D01*
X22528393Y60231909D01*
X22522837Y60217555D01*
X22490938Y60176360D01*
X22446800Y60152644D01*
X22397407Y60147948D01*
X22349743Y60163809D01*
X22333273Y60175775D01*
X22306748Y60214510D01*
X22293248Y60269980D01*
X22293472Y60336716D01*
X22304923Y60398025D01*
X22322879Y60464700D01*
X22274429Y60464700D01*
X22243802Y60462942D01*
X22227106Y60453114D01*
X22216367Y60428387D01*
X22211391Y60410725D01*
X22202068Y60353071D01*
X22200704Y60286123D01*
X22206573Y60218577D01*
G36*
X22202631Y59562175D02*
G01*
X22210898Y59509000D01*
X22214028Y59498221D01*
X22246089Y59436657D01*
X22292260Y59393032D01*
X22347871Y59368434D01*
X22408257Y59363952D01*
X22468748Y59380675D01*
X22524679Y59419691D01*
X22529588Y59424599D01*
X22577551Y59474022D01*
X22593422Y59435704D01*
X22623661Y59389232D01*
X22668374Y59350753D01*
X22717817Y59328602D01*
X22718933Y59328351D01*
X22770989Y59327244D01*
X22829107Y59341724D01*
X22882224Y59368622D01*
X22896086Y59379105D01*
X22940236Y59428637D01*
X22970712Y59492833D01*
X22988608Y59574725D01*
X22994508Y59651900D01*
X22995508Y59706973D01*
X22995011Y59754095D01*
X22993154Y59786323D01*
X22991729Y59794775D01*
X22976083Y59811859D01*
X22942077Y59817000D01*
X22899016Y59817000D01*
X22900607Y59686825D01*
X22898383Y59600643D01*
X22888329Y59536154D01*
X22868967Y59490459D01*
X22838819Y59460659D01*
X22796407Y59443854D01*
X22774773Y59440000D01*
X22722452Y59443685D01*
X22681378Y59469537D01*
X22652170Y59516655D01*
X22635448Y59584134D01*
X22631470Y59648725D01*
X22631400Y59715400D01*
X22545458Y59715400D01*
X22540095Y59631176D01*
X22535820Y59583741D01*
X22528252Y59553020D01*
X22514072Y59530326D01*
X22493966Y59510526D01*
X22444931Y59480585D01*
X22394213Y59474815D01*
X22345441Y59493356D01*
X22331126Y59504198D01*
X22311639Y59523797D01*
X22300982Y59545517D01*
X22296471Y59577730D01*
X22295492Y59615323D01*
X22296925Y59667297D01*
X22301296Y59716775D01*
X22305788Y59743975D01*
X22316726Y59791600D01*
X22271460Y59791600D01*
X22241172Y59789135D01*
X22224991Y59776884D01*
X22213973Y59747561D01*
X22212967Y59743975D01*
X22203619Y59690561D01*
X22200190Y59626328D01*
X22202631Y59562175D01*
G37*
X22202631Y59562175D02*
X22210898Y59509000D01*
X22214028Y59498221D01*
X22246089Y59436657D01*
X22292260Y59393032D01*
X22347871Y59368434D01*
X22408257Y59363952D01*
X22468748Y59380675D01*
X22524679Y59419691D01*
X22529588Y59424599D01*
X22577551Y59474022D01*
X22593422Y59435704D01*
X22623661Y59389232D01*
X22668374Y59350753D01*
X22717817Y59328602D01*
X22718933Y59328351D01*
X22770989Y59327244D01*
X22829107Y59341724D01*
X22882224Y59368622D01*
X22896086Y59379105D01*
X22940236Y59428637D01*
X22970712Y59492833D01*
X22988608Y59574725D01*
X22994508Y59651900D01*
X22995508Y59706973D01*
X22995011Y59754095D01*
X22993154Y59786323D01*
X22991729Y59794775D01*
X22976083Y59811859D01*
X22942077Y59817000D01*
X22899016Y59817000D01*
X22900607Y59686825D01*
X22898383Y59600643D01*
X22888329Y59536154D01*
X22868967Y59490459D01*
X22838819Y59460659D01*
X22796407Y59443854D01*
X22774773Y59440000D01*
X22722452Y59443685D01*
X22681378Y59469537D01*
X22652170Y59516655D01*
X22635448Y59584134D01*
X22631470Y59648725D01*
X22631400Y59715400D01*
X22545458Y59715400D01*
X22540095Y59631176D01*
X22535820Y59583741D01*
X22528252Y59553020D01*
X22514072Y59530326D01*
X22493966Y59510526D01*
X22444931Y59480585D01*
X22394213Y59474815D01*
X22345441Y59493356D01*
X22331126Y59504198D01*
X22311639Y59523797D01*
X22300982Y59545517D01*
X22296471Y59577730D01*
X22295492Y59615323D01*
X22296925Y59667297D01*
X22301296Y59716775D01*
X22305788Y59743975D01*
X22316726Y59791600D01*
X22271460Y59791600D01*
X22241172Y59789135D01*
X22224991Y59776884D01*
X22213973Y59747561D01*
X22212967Y59743975D01*
X22203619Y59690561D01*
X22200190Y59626328D01*
X22202631Y59562175D01*
G36*
X22206581Y57782390D02*
G01*
X22224540Y57724938D01*
X22261041Y57670883D01*
X22309702Y57636160D01*
X22365925Y57621010D01*
X22425113Y57625679D01*
X22482667Y57650408D01*
X22533989Y57695441D01*
X22543946Y57708041D01*
X22564718Y57733147D01*
X22579931Y57746322D01*
X22581952Y57746900D01*
X22593834Y57737106D01*
X22612163Y57712663D01*
X22618304Y57703091D01*
X22663273Y57651325D01*
X22718709Y57619119D01*
X22779606Y57606324D01*
X22840961Y57612793D01*
X22897767Y57638379D01*
X22945020Y57682935D01*
X22964002Y57713255D01*
X22980167Y57759268D01*
X22991384Y57819156D01*
X22996718Y57882951D01*
X22995235Y57940685D01*
X22988588Y57975583D01*
X22957641Y58046227D01*
X22917373Y58094398D01*
X22865458Y58122040D01*
X22802619Y58131063D01*
X22796244Y58129995D01*
X22796244Y58013600D01*
X22844606Y58002697D01*
X22880417Y57972335D01*
X22901947Y57926035D01*
X22907462Y57867320D01*
X22897535Y57807600D01*
X22874508Y57759707D01*
X22840290Y57731782D01*
X22798833Y57723402D01*
X22754090Y57734144D01*
X22710014Y57763586D01*
X22670558Y57811304D01*
X22658064Y57833228D01*
X22643938Y57863612D01*
X22642170Y57884552D01*
X22653026Y57908943D01*
X22659875Y57920712D01*
X22703113Y57975827D01*
X22753390Y58006562D01*
X22796244Y58013600D01*
X22796244Y58129995D01*
X22735801Y58119859D01*
X22674623Y58084049D01*
X22624356Y58030894D01*
X22585190Y57979545D01*
X22557097Y58022401D01*
X22509901Y58074832D01*
X22454333Y58105631D01*
X22398616Y58114485D01*
X22398616Y58005717D01*
X22441054Y57988766D01*
X22481036Y57950036D01*
X22505157Y57912014D01*
X22521226Y57881457D01*
X22527502Y57864265D01*
X22525217Y57850919D01*
X22515605Y57831902D01*
X22515548Y57831791D01*
X22480366Y57780867D01*
X22438538Y57747474D01*
X22394349Y57732980D01*
X22352083Y57738753D01*
X22316023Y57766163D01*
X22314821Y57767663D01*
X22293825Y57812027D01*
X22286974Y57866787D01*
X22294095Y57921713D01*
X22315017Y57966577D01*
X22318240Y57970559D01*
X22356689Y57999957D01*
X22398616Y58005717D01*
X22398616Y58114485D01*
X22394853Y58115084D01*
X22335925Y58103479D01*
X22282010Y58071101D01*
X22237570Y58018236D01*
X22228175Y58001282D01*
X22206460Y57935327D01*
X22199216Y57858873D01*
X22206581Y57782390D01*
G37*
X22206581Y57782390D02*
X22224540Y57724938D01*
X22261041Y57670883D01*
X22309702Y57636160D01*
X22365925Y57621010D01*
X22425113Y57625679D01*
X22482667Y57650408D01*
X22533989Y57695441D01*
X22543946Y57708041D01*
X22564718Y57733147D01*
X22579931Y57746322D01*
X22581952Y57746900D01*
X22593834Y57737106D01*
X22612163Y57712663D01*
X22618304Y57703091D01*
X22663273Y57651325D01*
X22718709Y57619119D01*
X22779606Y57606324D01*
X22840961Y57612793D01*
X22897767Y57638379D01*
X22945020Y57682935D01*
X22964002Y57713255D01*
X22980167Y57759268D01*
X22991384Y57819156D01*
X22996718Y57882951D01*
X22995235Y57940685D01*
X22988588Y57975583D01*
X22957641Y58046227D01*
X22917373Y58094398D01*
X22865458Y58122040D01*
X22802619Y58131063D01*
X22796244Y58129995D01*
X22796244Y58013600D01*
X22844606Y58002697D01*
X22880417Y57972335D01*
X22901947Y57926035D01*
X22907462Y57867320D01*
X22897535Y57807600D01*
X22874508Y57759707D01*
X22840290Y57731782D01*
X22798833Y57723402D01*
X22754090Y57734144D01*
X22710014Y57763586D01*
X22670558Y57811304D01*
X22658064Y57833228D01*
X22643938Y57863612D01*
X22642170Y57884552D01*
X22653026Y57908943D01*
X22659875Y57920712D01*
X22703113Y57975827D01*
X22753390Y58006562D01*
X22796244Y58013600D01*
X22796244Y58129995D01*
X22735801Y58119859D01*
X22674623Y58084049D01*
X22624356Y58030894D01*
X22585190Y57979545D01*
X22557097Y58022401D01*
X22509901Y58074832D01*
X22454333Y58105631D01*
X22398616Y58114485D01*
X22398616Y58005717D01*
X22441054Y57988766D01*
X22481036Y57950036D01*
X22505157Y57912014D01*
X22521226Y57881457D01*
X22527502Y57864265D01*
X22525217Y57850919D01*
X22515605Y57831902D01*
X22515548Y57831791D01*
X22480366Y57780867D01*
X22438538Y57747474D01*
X22394349Y57732980D01*
X22352083Y57738753D01*
X22316023Y57766163D01*
X22314821Y57767663D01*
X22293825Y57812027D01*
X22286974Y57866787D01*
X22294095Y57921713D01*
X22315017Y57966577D01*
X22318240Y57970559D01*
X22356689Y57999957D01*
X22398616Y58005717D01*
X22398616Y58114485D01*
X22394853Y58115084D01*
X22335925Y58103479D01*
X22282010Y58071101D01*
X22237570Y58018236D01*
X22228175Y58001282D01*
X22206460Y57935327D01*
X22199216Y57858873D01*
X22206581Y57782390D01*
G36*
X22297570Y56984900D02*
G01*
X22304423Y57084885D01*
X22310957Y57150339D01*
X22321923Y57198296D01*
X22340166Y57236608D01*
X22368530Y57273127D01*
X22375263Y57280474D01*
X22404531Y57302273D01*
X22447977Y57324662D01*
X22494923Y57343009D01*
X22534688Y57352679D01*
X22542853Y57353200D01*
X22543719Y57342425D01*
X22537167Y57314584D01*
X22528263Y57286525D01*
X22508808Y57200835D01*
X22510002Y57122357D01*
X22529463Y57053492D01*
X22564810Y56996641D01*
X22613663Y56954204D01*
X22673640Y56928583D01*
X22742360Y56922177D01*
X22817442Y56937388D01*
X22857690Y56954378D01*
X22920721Y56997620D01*
X22964201Y57055547D01*
X22989140Y57129807D01*
X22995380Y57179081D01*
X22995991Y57236834D01*
X22987415Y57282118D01*
X22976209Y57310225D01*
X22938369Y57367968D01*
X22885108Y57410751D01*
X22814546Y57439408D01*
X22724804Y57454772D01*
X22644257Y57458030D01*
X22644257Y57356679D01*
X22716008Y57348246D01*
X22796535Y57331890D01*
X22854977Y57303948D01*
X22892196Y57263720D01*
X22909055Y57210505D01*
X22910291Y57190645D01*
X22904469Y57148369D01*
X22890906Y57110269D01*
X22857786Y57072392D01*
X22806725Y57046711D01*
X22743320Y57035881D01*
X22733608Y57035700D01*
X22688693Y57042252D01*
X22649582Y57065499D01*
X22641125Y57072759D01*
X22617388Y57096401D01*
X22605040Y57119054D01*
X22600507Y57150391D01*
X22600078Y57183884D01*
X22604489Y57237284D01*
X22615351Y57287769D01*
X22622382Y57307315D01*
X22644257Y57356679D01*
X22644257Y57458030D01*
X22643175Y57458074D01*
X22525357Y57449241D01*
X22425746Y57423192D01*
X22344568Y57380033D01*
X22282047Y57319872D01*
X22251755Y57272159D01*
X22234036Y57231229D01*
X22222894Y57186622D01*
X22216443Y57129489D01*
X22214583Y57097651D01*
X22209193Y56984900D01*
X22297570Y56984900D01*
G37*
X22297570Y56984900D02*
X22304423Y57084885D01*
X22310957Y57150339D01*
X22321923Y57198296D01*
X22340166Y57236608D01*
X22368530Y57273127D01*
X22375263Y57280474D01*
X22404531Y57302273D01*
X22447977Y57324662D01*
X22494923Y57343009D01*
X22534688Y57352679D01*
X22542853Y57353200D01*
X22543719Y57342425D01*
X22537167Y57314584D01*
X22528263Y57286525D01*
X22508808Y57200835D01*
X22510002Y57122357D01*
X22529463Y57053492D01*
X22564810Y56996641D01*
X22613663Y56954204D01*
X22673640Y56928583D01*
X22742360Y56922177D01*
X22817442Y56937388D01*
X22857690Y56954378D01*
X22920721Y56997620D01*
X22964201Y57055547D01*
X22989140Y57129807D01*
X22995380Y57179081D01*
X22995991Y57236834D01*
X22987415Y57282118D01*
X22976209Y57310225D01*
X22938369Y57367968D01*
X22885108Y57410751D01*
X22814546Y57439408D01*
X22724804Y57454772D01*
X22644257Y57458030D01*
X22644257Y57356679D01*
X22716008Y57348246D01*
X22796535Y57331890D01*
X22854977Y57303948D01*
X22892196Y57263720D01*
X22909055Y57210505D01*
X22910291Y57190645D01*
X22904469Y57148369D01*
X22890906Y57110269D01*
X22857786Y57072392D01*
X22806725Y57046711D01*
X22743320Y57035881D01*
X22733608Y57035700D01*
X22688693Y57042252D01*
X22649582Y57065499D01*
X22641125Y57072759D01*
X22617388Y57096401D01*
X22605040Y57119054D01*
X22600507Y57150391D01*
X22600078Y57183884D01*
X22604489Y57237284D01*
X22615351Y57287769D01*
X22622382Y57307315D01*
X22644257Y57356679D01*
X22644257Y57458030D01*
X22643175Y57458074D01*
X22525357Y57449241D01*
X22425746Y57423192D01*
X22344568Y57380033D01*
X22282047Y57319872D01*
X22251755Y57272159D01*
X22234036Y57231229D01*
X22222894Y57186622D01*
X22216443Y57129489D01*
X22214583Y57097651D01*
X22209193Y56984900D01*
X22297570Y56984900D01*
G36*
X22203958Y56463156D02*
G01*
X22221766Y56388871D01*
X22256184Y56333571D01*
X22307131Y56297420D01*
X22335112Y56287528D01*
X22401357Y56282087D01*
X22465121Y56300237D01*
X22522569Y56340207D01*
X22566312Y56394350D01*
X22579869Y56410286D01*
X22588720Y56403661D01*
X22589155Y56402645D01*
X22610006Y56369968D01*
X22643976Y56332678D01*
X22682409Y56299236D01*
X22716518Y56278159D01*
X22781348Y56262494D01*
X22841366Y56269254D01*
X22894582Y56295617D01*
X22939004Y56338765D01*
X22972643Y56395879D01*
X22993509Y56464140D01*
X22999611Y56540728D01*
X22988959Y56622824D01*
X22980835Y56652556D01*
X22953138Y56714498D01*
X22912571Y56758190D01*
X22882885Y56776651D01*
X22825338Y56792961D01*
X22805767Y56791415D01*
X22805767Y56676810D01*
X22846657Y56662294D01*
X22879226Y56629392D01*
X22899773Y56579645D01*
X22904598Y56514598D01*
X22903082Y56497535D01*
X22895904Y56458593D01*
X22885837Y56427197D01*
X22884223Y56423902D01*
X22856760Y56396687D01*
X22815282Y56381496D01*
X22769741Y56381950D01*
X22769237Y56382060D01*
X22732543Y56400634D01*
X22693751Y56437737D01*
X22658468Y56487692D01*
X22650437Y56502324D01*
X22641038Y56524469D01*
X22641473Y56543721D01*
X22653602Y56568764D01*
X22670192Y56594611D01*
X22713833Y56644512D01*
X22760259Y56671397D01*
X22805767Y56676810D01*
X22805767Y56791415D01*
X22763231Y56788052D01*
X22702494Y56763836D01*
X22649059Y56722228D01*
X22625663Y56693686D01*
X22603293Y56662905D01*
X22589514Y56650548D01*
X22579153Y56653692D01*
X22571495Y56663089D01*
X22517678Y56725490D01*
X22462842Y56763176D01*
X22408620Y56776053D01*
X22408620Y56664934D01*
X22441696Y56651122D01*
X22461807Y56630322D01*
X22486042Y56598605D01*
X22508993Y56564004D01*
X22525248Y56534551D01*
X22529800Y56520308D01*
X22522828Y56502512D01*
X22505040Y56472825D01*
X22491816Y56453677D01*
X22449242Y56409413D01*
X22403526Y56390184D01*
X22354108Y56395755D01*
X22353661Y56395912D01*
X22318334Y56418993D01*
X22297783Y56459317D01*
X22291195Y56518858D01*
X22292091Y56545464D01*
X22297271Y56592784D01*
X22307336Y56622735D01*
X22325005Y56643257D01*
X22325778Y56643889D01*
X22365380Y56663081D01*
X22408620Y56664934D01*
X22408620Y56776053D01*
X22405369Y56776826D01*
X22343641Y56767119D01*
X22332678Y56763222D01*
X22275325Y56730605D01*
X22235195Y56682121D01*
X22211029Y56615759D01*
X22202839Y56556262D01*
X22203958Y56463156D01*
G37*
X22203958Y56463156D02*
X22221766Y56388871D01*
X22256184Y56333571D01*
X22307131Y56297420D01*
X22335112Y56287528D01*
X22401357Y56282087D01*
X22465121Y56300237D01*
X22522569Y56340207D01*
X22566312Y56394350D01*
X22579869Y56410286D01*
X22588720Y56403661D01*
X22589155Y56402645D01*
X22610006Y56369968D01*
X22643976Y56332678D01*
X22682409Y56299236D01*
X22716518Y56278159D01*
X22781348Y56262494D01*
X22841366Y56269254D01*
X22894582Y56295617D01*
X22939004Y56338765D01*
X22972643Y56395879D01*
X22993509Y56464140D01*
X22999611Y56540728D01*
X22988959Y56622824D01*
X22980835Y56652556D01*
X22953138Y56714498D01*
X22912571Y56758190D01*
X22882885Y56776651D01*
X22825338Y56792961D01*
X22805767Y56791415D01*
X22805767Y56676810D01*
X22846657Y56662294D01*
X22879226Y56629392D01*
X22899773Y56579645D01*
X22904598Y56514598D01*
X22903082Y56497535D01*
X22895904Y56458593D01*
X22885837Y56427197D01*
X22884223Y56423902D01*
X22856760Y56396687D01*
X22815282Y56381496D01*
X22769741Y56381950D01*
X22769237Y56382060D01*
X22732543Y56400634D01*
X22693751Y56437737D01*
X22658468Y56487692D01*
X22650437Y56502324D01*
X22641038Y56524469D01*
X22641473Y56543721D01*
X22653602Y56568764D01*
X22670192Y56594611D01*
X22713833Y56644512D01*
X22760259Y56671397D01*
X22805767Y56676810D01*
X22805767Y56791415D01*
X22763231Y56788052D01*
X22702494Y56763836D01*
X22649059Y56722228D01*
X22625663Y56693686D01*
X22603293Y56662905D01*
X22589514Y56650548D01*
X22579153Y56653692D01*
X22571495Y56663089D01*
X22517678Y56725490D01*
X22462842Y56763176D01*
X22408620Y56776053D01*
X22408620Y56664934D01*
X22441696Y56651122D01*
X22461807Y56630322D01*
X22486042Y56598605D01*
X22508993Y56564004D01*
X22525248Y56534551D01*
X22529800Y56520308D01*
X22522828Y56502512D01*
X22505040Y56472825D01*
X22491816Y56453677D01*
X22449242Y56409413D01*
X22403526Y56390184D01*
X22354108Y56395755D01*
X22353661Y56395912D01*
X22318334Y56418993D01*
X22297783Y56459317D01*
X22291195Y56518858D01*
X22292091Y56545464D01*
X22297271Y56592784D01*
X22307336Y56622735D01*
X22325005Y56643257D01*
X22325778Y56643889D01*
X22365380Y56663081D01*
X22408620Y56664934D01*
X22408620Y56776053D01*
X22405369Y56776826D01*
X22343641Y56767119D01*
X22332678Y56763222D01*
X22275325Y56730605D01*
X22235195Y56682121D01*
X22211029Y56615759D01*
X22202839Y56556262D01*
X22203958Y56463156D01*
G36*
X22720300Y60744100D02*
G01*
X22720300Y60602867D01*
X22767925Y60606809D01*
X22815550Y60610750D01*
X22819388Y60677425D01*
X22823227Y60744100D01*
X22987000Y60744100D01*
X22987000Y60858400D01*
X22821900Y60858400D01*
X22821900Y61226700D01*
X22771334Y61226700D01*
X22752145Y61224942D01*
X22729677Y61218605D01*
X22720300Y61214524D01*
X22720300Y61115322D01*
X22720300Y60858400D01*
X22529800Y60858400D01*
X22463504Y60858719D01*
X22407243Y60859595D01*
X22365406Y60860913D01*
X22342383Y60862557D01*
X22339300Y60863464D01*
X22347939Y60870879D01*
X22374338Y60889401D01*
X22419214Y60919506D01*
X22483286Y60961670D01*
X22567273Y61016369D01*
X22671892Y61084079D01*
X22691725Y61096882D01*
X22720300Y61115322D01*
X22720300Y61214524D01*
X22700934Y61206095D01*
X22662918Y61185818D01*
X22612634Y61156181D01*
X22547085Y61115590D01*
X22466920Y61064775D01*
X22213071Y60902850D01*
X22212685Y60823475D01*
X22212300Y60744100D01*
X22720300Y60744100D01*
G37*
X22720300Y60744100D02*
X22720300Y60602867D01*
X22767925Y60606809D01*
X22815550Y60610750D01*
X22819388Y60677425D01*
X22823227Y60744100D01*
X22987000Y60744100D01*
X22987000Y60858400D01*
X22821900Y60858400D01*
X22821900Y61226700D01*
X22771334Y61226700D01*
X22752145Y61224942D01*
X22729677Y61218605D01*
X22720300Y61214524D01*
X22720300Y61115322D01*
X22720300Y60858400D01*
X22529800Y60858400D01*
X22463504Y60858719D01*
X22407243Y60859595D01*
X22365406Y60860913D01*
X22342383Y60862557D01*
X22339300Y60863464D01*
X22347939Y60870879D01*
X22374338Y60889401D01*
X22419214Y60919506D01*
X22483286Y60961670D01*
X22567273Y61016369D01*
X22671892Y61084079D01*
X22691725Y61096882D01*
X22720300Y61115322D01*
X22720300Y61214524D01*
X22700934Y61206095D01*
X22662918Y61185818D01*
X22612634Y61156181D01*
X22547085Y61115590D01*
X22466920Y61064775D01*
X22213071Y60902850D01*
X22212685Y60823475D01*
X22212300Y60744100D01*
X22720300Y60744100D01*
G36*
X22275800Y53301900D02*
G01*
X22275800Y53619400D01*
X22488359Y53619400D01*
X22494354Y53525995D01*
X22508032Y53434717D01*
X22535722Y53361091D01*
X22576556Y53307050D01*
X22601201Y53288241D01*
X22655245Y53267979D01*
X22719484Y53263463D01*
X22784728Y53274029D01*
X22841785Y53299014D01*
X22852310Y53306368D01*
X22907878Y53363904D01*
X22945628Y53438477D01*
X22965865Y53530806D01*
X22969437Y53581300D01*
X22970237Y53633626D01*
X22969433Y53677984D01*
X22967208Y53706844D01*
X22966256Y53711475D01*
X22950747Y53728532D01*
X22916630Y53733700D01*
X22873524Y53733700D01*
X22875306Y53616225D01*
X22874755Y53550205D01*
X22870241Y53503282D01*
X22861007Y53469359D01*
X22855629Y53457690D01*
X22818773Y53413151D01*
X22766464Y53385599D01*
X22716293Y53378100D01*
X22665954Y53387933D01*
X22627624Y53417938D01*
X22600895Y53468874D01*
X22585360Y53541501D01*
X22580600Y53631374D01*
X22580600Y53721000D01*
X22186900Y53721000D01*
X22186900Y53301900D01*
X22275800Y53301900D01*
G37*
X22275800Y53301900D02*
X22275800Y53619400D01*
X22488359Y53619400D01*
X22494354Y53525995D01*
X22508032Y53434717D01*
X22535722Y53361091D01*
X22576556Y53307050D01*
X22601201Y53288241D01*
X22655245Y53267979D01*
X22719484Y53263463D01*
X22784728Y53274029D01*
X22841785Y53299014D01*
X22852310Y53306368D01*
X22907878Y53363904D01*
X22945628Y53438477D01*
X22965865Y53530806D01*
X22969437Y53581300D01*
X22970237Y53633626D01*
X22969433Y53677984D01*
X22967208Y53706844D01*
X22966256Y53711475D01*
X22950747Y53728532D01*
X22916630Y53733700D01*
X22873524Y53733700D01*
X22875306Y53616225D01*
X22874755Y53550205D01*
X22870241Y53503282D01*
X22861007Y53469359D01*
X22855629Y53457690D01*
X22818773Y53413151D01*
X22766464Y53385599D01*
X22716293Y53378100D01*
X22665954Y53387933D01*
X22627624Y53417938D01*
X22600895Y53468874D01*
X22585360Y53541501D01*
X22580600Y53631374D01*
X22580600Y53721000D01*
X22186900Y53721000D01*
X22186900Y53301900D01*
X22275800Y53301900D01*
G36*
X22177309Y54793401D02*
G01*
X22191358Y54745919D01*
X22221225Y54699283D01*
X22267460Y54654648D01*
X22321623Y54619450D01*
X22347735Y54608170D01*
X22394814Y54597786D01*
X22458830Y54591964D01*
X22531756Y54590598D01*
X22605562Y54593578D01*
X22672219Y54600797D01*
X22723699Y54612147D01*
X22727052Y54613275D01*
X22808881Y54653024D01*
X22872479Y54709163D01*
X22918403Y54782542D01*
X22947214Y54874012D01*
X22958619Y54965841D01*
X22965123Y55079900D01*
X22876427Y55079900D01*
X22868373Y54984625D01*
X22854133Y54890739D01*
X22829275Y54817294D01*
X22799190Y54771039D01*
X22765359Y54743447D01*
X22720541Y54718783D01*
X22675819Y54702467D01*
X22651603Y54698900D01*
X22631877Y54700059D01*
X22626213Y54708034D01*
X22632891Y54729576D01*
X22639627Y54745885D01*
X22655513Y54805477D01*
X22660308Y54874509D01*
X22654310Y54942963D01*
X22637817Y55000818D01*
X22631662Y55013219D01*
X22590366Y55066874D01*
X22536750Y55100573D01*
X22468246Y55115535D01*
X22415212Y55115827D01*
X22409390Y55115302D01*
X22409390Y55009217D01*
X22467977Y55004881D01*
X22510732Y54992889D01*
X22536884Y54977329D01*
X22555081Y54951888D01*
X22562994Y54935501D01*
X22574768Y54883870D01*
X22571566Y54820610D01*
X22553971Y54754169D01*
X22549776Y54743609D01*
X22535580Y54715316D01*
X22518214Y54702446D01*
X22487895Y54699041D01*
X22476473Y54698971D01*
X22396536Y54707238D01*
X22334020Y54731113D01*
X22290332Y54769550D01*
X22266878Y54821503D01*
X22263100Y54857650D01*
X22274420Y54915429D01*
X22305479Y54962036D01*
X22351921Y54994342D01*
X22409390Y55009217D01*
X22409390Y55115302D01*
X22363743Y55111179D01*
X22327762Y55102190D01*
X22297386Y55085696D01*
X22279690Y55072440D01*
X22227083Y55015732D01*
X22191334Y54946070D01*
X22174167Y54869833D01*
X22177309Y54793401D01*
G37*
X22177309Y54793401D02*
X22191358Y54745919D01*
X22221225Y54699283D01*
X22267460Y54654648D01*
X22321623Y54619450D01*
X22347735Y54608170D01*
X22394814Y54597786D01*
X22458830Y54591964D01*
X22531756Y54590598D01*
X22605562Y54593578D01*
X22672219Y54600797D01*
X22723699Y54612147D01*
X22727052Y54613275D01*
X22808881Y54653024D01*
X22872479Y54709163D01*
X22918403Y54782542D01*
X22947214Y54874012D01*
X22958619Y54965841D01*
X22965123Y55079900D01*
X22876427Y55079900D01*
X22868373Y54984625D01*
X22854133Y54890739D01*
X22829275Y54817294D01*
X22799190Y54771039D01*
X22765359Y54743447D01*
X22720541Y54718783D01*
X22675819Y54702467D01*
X22651603Y54698900D01*
X22631877Y54700059D01*
X22626213Y54708034D01*
X22632891Y54729576D01*
X22639627Y54745885D01*
X22655513Y54805477D01*
X22660308Y54874509D01*
X22654310Y54942963D01*
X22637817Y55000818D01*
X22631662Y55013219D01*
X22590366Y55066874D01*
X22536750Y55100573D01*
X22468246Y55115535D01*
X22415212Y55115827D01*
X22409390Y55115302D01*
X22409390Y55009217D01*
X22467977Y55004881D01*
X22510732Y54992889D01*
X22536884Y54977329D01*
X22555081Y54951888D01*
X22562994Y54935501D01*
X22574768Y54883870D01*
X22571566Y54820610D01*
X22553971Y54754169D01*
X22549776Y54743609D01*
X22535580Y54715316D01*
X22518214Y54702446D01*
X22487895Y54699041D01*
X22476473Y54698971D01*
X22396536Y54707238D01*
X22334020Y54731113D01*
X22290332Y54769550D01*
X22266878Y54821503D01*
X22263100Y54857650D01*
X22274420Y54915429D01*
X22305479Y54962036D01*
X22351921Y54994342D01*
X22409390Y55009217D01*
X22409390Y55115302D01*
X22363743Y55111179D01*
X22327762Y55102190D01*
X22297386Y55085696D01*
X22279690Y55072440D01*
X22227083Y55015732D01*
X22191334Y54946070D01*
X22174167Y54869833D01*
X22177309Y54793401D01*
G36*
X22860000Y54089300D02*
G01*
X22860000Y53911500D01*
X22961600Y53911500D01*
X22961600Y54406800D01*
X22860000Y54406800D01*
X22860000Y54203600D01*
X22298904Y54203600D01*
X22351043Y54298600D01*
X22403181Y54393600D01*
X22356591Y54413067D01*
X22326772Y54424564D01*
X22309325Y54429453D01*
X22307721Y54429192D01*
X22301192Y54417329D01*
X22285246Y54387742D01*
X22262407Y54345130D01*
X22239821Y54302850D01*
X22201652Y54225662D01*
X22179858Y54167871D01*
X22174200Y54134575D01*
X22174200Y54089300D01*
X22860000Y54089300D01*
G37*
X22860000Y54089300D02*
X22860000Y53911500D01*
X22961600Y53911500D01*
X22961600Y54406800D01*
X22860000Y54406800D01*
X22860000Y54203600D01*
X22298904Y54203600D01*
X22351043Y54298600D01*
X22403181Y54393600D01*
X22356591Y54413067D01*
X22326772Y54424564D01*
X22309325Y54429453D01*
X22307721Y54429192D01*
X22301192Y54417329D01*
X22285246Y54387742D01*
X22262407Y54345130D01*
X22239821Y54302850D01*
X22201652Y54225662D01*
X22179858Y54167871D01*
X22174200Y54134575D01*
X22174200Y54089300D01*
X22860000Y54089300D01*
G36*
X21971000Y58788300D02*
G01*
X21971000Y61595000D01*
X20180300Y61595000D01*
X20180300Y58788300D01*
X21971000Y58788300D01*
G37*
X21971000Y58788300D02*
X21971000Y61595000D01*
X20180300Y61595000D01*
X20180300Y58788300D01*
X21971000Y58788300D01*
G36*
X21971000Y55765700D02*
G01*
X21971000Y58572400D01*
X20180300Y58572400D01*
X20180300Y55765700D01*
X21971000Y55765700D01*
G37*
X21971000Y55765700D02*
X21971000Y58572400D01*
X20180300Y58572400D01*
X20180300Y55765700D01*
X21971000Y55765700D01*
G36*
X21971000Y52755800D02*
G01*
X21971000Y55562500D01*
X20180300Y55562500D01*
X20180300Y52755800D01*
X21971000Y52755800D01*
G37*
X21971000Y52755800D02*
X21971000Y55562500D01*
X20180300Y55562500D01*
X20180300Y52755800D01*
X21971000Y52755800D01*
D12*
%TO.C,J4*%
X61509400Y49016000D02*
X62009400Y48916000D01*
X60209400Y49316000D02*
X61509400Y49016000D01*
X58709400Y49516000D02*
X60209400Y49316000D01*
X57409400Y49616000D02*
X58709400Y49516000D01*
X55609400Y49616000D02*
X57409400Y49616000D01*
X54309400Y49516000D02*
X55609400Y49616000D01*
X53509400Y49416000D02*
X54309400Y49516000D01*
X51809400Y49116000D02*
X53509400Y49416000D01*
X51009400Y48916000D02*
X51809400Y49116000D01*
X51509400Y48316000D02*
X61509400Y48316000D01*
X51009400Y49816000D02*
X51009400Y48816000D01*
X62009400Y49816000D02*
X62009400Y48816000D01*
X49599400Y49816000D02*
X63419400Y49816000D01*
X63419400Y63736000D02*
X49599400Y63736000D01*
X63419400Y61036000D02*
X63419400Y63736000D01*
X63419400Y49816000D02*
X63419400Y50216000D01*
X63419400Y52736000D02*
X63419400Y58516000D01*
X49599400Y61036000D02*
X49599400Y63736000D01*
X49599400Y52736000D02*
X49599400Y58516000D01*
X49599400Y49816000D02*
X49599400Y50216000D01*
X51509400Y48316000D02*
G75*
G02*
X51009400Y48816000I0J500000D01*
G01*
X62009400Y48816000D02*
G75*
G02*
X61509400Y48316000I-500000J0D01*
G01*
D10*
X65707333Y51550819D02*
X65707333Y50836533D01*
X65754952Y50693676D01*
X65850190Y50598438D01*
X65993047Y50550819D01*
X66088285Y50550819D01*
X64802571Y51217485D02*
X64802571Y50550819D01*
X65040666Y51598438D02*
X65278761Y50884152D01*
X64659714Y50884152D01*
%TD*%
M02*
