%TF.GenerationSoftware,KiCad,Pcbnew,(5.1.9)-1*%
%TF.CreationDate,2021-02-04T12:19:42+01:00*%
%TF.ProjectId,DynaLoRa_Dongle,44796e61-4c6f-4526-915f-446f6e676c65,rev?*%
%TF.SameCoordinates,Original*%
%TF.FileFunction,Other,Fab,Bot*%
%FSLAX46Y46*%
G04 Gerber Fmt 4.6, Leading zero omitted, Abs format (unit mm)*
G04 Created by KiCad (PCBNEW (5.1.9)-1) date 2021-02-04 12:19:42*
%MOMM*%
%LPD*%
G01*
G04 APERTURE LIST*
%ADD10C,0.100000*%
%ADD11C,0.150000*%
G04 APERTURE END LIST*
D10*
%TO.C,J1*%
X28483600Y49758600D02*
X28483600Y51028600D01*
X29123600Y49758600D02*
X28483600Y49758600D01*
X29123600Y51028600D02*
X29123600Y49758600D01*
X33563600Y49758600D02*
X33563600Y51028600D01*
X34203600Y49758600D02*
X33563600Y49758600D01*
X34203600Y51028600D02*
X34203600Y49758600D01*
X38643600Y49758600D02*
X38643600Y51028600D01*
X39283600Y49758600D02*
X38643600Y49758600D01*
X39283600Y51028600D02*
X39283600Y49758600D01*
X43723600Y49758600D02*
X43723600Y51028600D01*
X44363600Y49758600D02*
X43723600Y49758600D01*
X44363600Y51028600D02*
X44363600Y49758600D01*
X44363600Y51028600D02*
X45313600Y51978600D01*
X27533600Y51028600D02*
X44363600Y51028600D01*
%TO.C,J4*%
X63309400Y63626000D02*
X63309400Y49926000D01*
X63309400Y49926000D02*
X49709400Y49926000D01*
X49709400Y49926000D02*
X49709400Y63626000D01*
X49709400Y63626000D02*
X63309400Y63626000D01*
%TD*%
%TO.C,J1*%
D11*
X26830742Y56036695D02*
X26878361Y56084314D01*
X26925980Y56227171D01*
X26925980Y56322409D01*
X26878361Y56465266D01*
X26783123Y56560504D01*
X26687885Y56608123D01*
X26497409Y56655742D01*
X26354552Y56655742D01*
X26164076Y56608123D01*
X26068838Y56560504D01*
X25973600Y56465266D01*
X25925980Y56322409D01*
X25925980Y56227171D01*
X25973600Y56084314D01*
X26021219Y56036695D01*
X26925980Y55465266D02*
X26878361Y55560504D01*
X26830742Y55608123D01*
X26735504Y55655742D01*
X26449790Y55655742D01*
X26354552Y55608123D01*
X26306933Y55560504D01*
X26259314Y55465266D01*
X26259314Y55322409D01*
X26306933Y55227171D01*
X26354552Y55179552D01*
X26449790Y55131933D01*
X26735504Y55131933D01*
X26830742Y55179552D01*
X26878361Y55227171D01*
X26925980Y55322409D01*
X26925980Y55465266D01*
X26259314Y54703361D02*
X26925980Y54703361D01*
X26354552Y54703361D02*
X26306933Y54655742D01*
X26259314Y54560504D01*
X26259314Y54417647D01*
X26306933Y54322409D01*
X26402171Y54274790D01*
X26925980Y54274790D01*
X26259314Y53798600D02*
X26925980Y53798600D01*
X26354552Y53798600D02*
X26306933Y53750980D01*
X26259314Y53655742D01*
X26259314Y53512885D01*
X26306933Y53417647D01*
X26402171Y53370028D01*
X26925980Y53370028D01*
X27021219Y53131933D02*
X27021219Y52370028D01*
X25925980Y51941457D02*
X25925980Y51846219D01*
X25973600Y51750980D01*
X26021219Y51703361D01*
X26116457Y51655742D01*
X26306933Y51608123D01*
X26545028Y51608123D01*
X26735504Y51655742D01*
X26830742Y51703361D01*
X26878361Y51750980D01*
X26925980Y51846219D01*
X26925980Y51941457D01*
X26878361Y52036695D01*
X26830742Y52084314D01*
X26735504Y52131933D01*
X26545028Y52179552D01*
X26306933Y52179552D01*
X26116457Y52131933D01*
X26021219Y52084314D01*
X25973600Y52036695D01*
X25925980Y51941457D01*
X26925980Y50655742D02*
X26925980Y51227171D01*
X26925980Y50941457D02*
X25925980Y50941457D01*
X26068838Y51036695D01*
X26164076Y51131933D01*
X26211695Y51227171D01*
X26925980Y50322409D02*
X26259314Y49798600D01*
X26259314Y50322409D02*
X26925980Y49798600D01*
X25925980Y49227171D02*
X25925980Y49131933D01*
X25973600Y49036695D01*
X26021219Y48989076D01*
X26116457Y48941457D01*
X26306933Y48893838D01*
X26545028Y48893838D01*
X26735504Y48941457D01*
X26830742Y48989076D01*
X26878361Y49036695D01*
X26925980Y49131933D01*
X26925980Y49227171D01*
X26878361Y49322409D01*
X26830742Y49370028D01*
X26735504Y49417647D01*
X26545028Y49465266D01*
X26306933Y49465266D01*
X26116457Y49417647D01*
X26021219Y49370028D01*
X25973600Y49322409D01*
X25925980Y49227171D01*
X25925980Y48560504D02*
X25925980Y47893838D01*
X26925980Y48322409D01*
X36756933Y52846219D02*
X36756933Y52131933D01*
X36804552Y51989076D01*
X36899790Y51893838D01*
X37042647Y51846219D01*
X37137885Y51846219D01*
X35756933Y51846219D02*
X36328361Y51846219D01*
X36042647Y51846219D02*
X36042647Y52846219D01*
X36137885Y52703361D01*
X36233123Y52608123D01*
X36328361Y52560504D01*
%TO.C,J4*%
X61723685Y64393619D02*
X61723685Y65393619D01*
X61390352Y64679333D01*
X61057019Y65393619D01*
X61057019Y64393619D01*
X60580828Y64393619D02*
X60580828Y65060285D01*
X60580828Y65393619D02*
X60628447Y65346000D01*
X60580828Y65298380D01*
X60533209Y65346000D01*
X60580828Y65393619D01*
X60580828Y65298380D01*
X59676066Y64441238D02*
X59771304Y64393619D01*
X59961780Y64393619D01*
X60057019Y64441238D01*
X60104638Y64488857D01*
X60152257Y64584095D01*
X60152257Y64869809D01*
X60104638Y64965047D01*
X60057019Y65012666D01*
X59961780Y65060285D01*
X59771304Y65060285D01*
X59676066Y65012666D01*
X59247495Y64393619D02*
X59247495Y65060285D01*
X59247495Y64869809D02*
X59199876Y64965047D01*
X59152257Y65012666D01*
X59057019Y65060285D01*
X58961780Y65060285D01*
X58485590Y64393619D02*
X58580828Y64441238D01*
X58628447Y64488857D01*
X58676066Y64584095D01*
X58676066Y64869809D01*
X58628447Y64965047D01*
X58580828Y65012666D01*
X58485590Y65060285D01*
X58342733Y65060285D01*
X58247495Y65012666D01*
X58199876Y64965047D01*
X58152257Y64869809D01*
X58152257Y64584095D01*
X58199876Y64488857D01*
X58247495Y64441238D01*
X58342733Y64393619D01*
X58485590Y64393619D01*
X57961780Y64298380D02*
X57199876Y64298380D01*
X57009400Y64441238D02*
X56866542Y64393619D01*
X56628447Y64393619D01*
X56533209Y64441238D01*
X56485590Y64488857D01*
X56437971Y64584095D01*
X56437971Y64679333D01*
X56485590Y64774571D01*
X56533209Y64822190D01*
X56628447Y64869809D01*
X56818923Y64917428D01*
X56914161Y64965047D01*
X56961780Y65012666D01*
X57009400Y65107904D01*
X57009400Y65203142D01*
X56961780Y65298380D01*
X56914161Y65346000D01*
X56818923Y65393619D01*
X56580828Y65393619D01*
X56437971Y65346000D01*
X56009400Y64393619D02*
X56009400Y65393619D01*
X55771304Y65393619D01*
X55628447Y65346000D01*
X55533209Y65250761D01*
X55485590Y65155523D01*
X55437971Y64965047D01*
X55437971Y64822190D01*
X55485590Y64631714D01*
X55533209Y64536476D01*
X55628447Y64441238D01*
X55771304Y64393619D01*
X56009400Y64393619D01*
X55247495Y64298380D02*
X54485590Y64298380D01*
X53676066Y64488857D02*
X53723685Y64441238D01*
X53866542Y64393619D01*
X53961780Y64393619D01*
X54104638Y64441238D01*
X54199876Y64536476D01*
X54247495Y64631714D01*
X54295114Y64822190D01*
X54295114Y64965047D01*
X54247495Y65155523D01*
X54199876Y65250761D01*
X54104638Y65346000D01*
X53961780Y65393619D01*
X53866542Y65393619D01*
X53723685Y65346000D01*
X53676066Y65298380D01*
X52818923Y64393619D02*
X52818923Y64917428D01*
X52866542Y65012666D01*
X52961780Y65060285D01*
X53152257Y65060285D01*
X53247495Y65012666D01*
X52818923Y64441238D02*
X52914161Y64393619D01*
X53152257Y64393619D01*
X53247495Y64441238D01*
X53295114Y64536476D01*
X53295114Y64631714D01*
X53247495Y64726952D01*
X53152257Y64774571D01*
X52914161Y64774571D01*
X52818923Y64822190D01*
X52342733Y64393619D02*
X52342733Y65060285D01*
X52342733Y64869809D02*
X52295114Y64965047D01*
X52247495Y65012666D01*
X52152257Y65060285D01*
X52057019Y65060285D01*
X51295114Y64393619D02*
X51295114Y65393619D01*
X51295114Y64441238D02*
X51390352Y64393619D01*
X51580828Y64393619D01*
X51676066Y64441238D01*
X51723685Y64488857D01*
X51771304Y64584095D01*
X51771304Y64869809D01*
X51723685Y64965047D01*
X51676066Y65012666D01*
X51580828Y65060285D01*
X51390352Y65060285D01*
X51295114Y65012666D01*
X56842733Y57323619D02*
X56842733Y56609333D01*
X56890352Y56466476D01*
X56985590Y56371238D01*
X57128447Y56323619D01*
X57223685Y56323619D01*
X55937971Y56990285D02*
X55937971Y56323619D01*
X56176066Y57371238D02*
X56414161Y56656952D01*
X55795114Y56656952D01*
%TD*%
M02*
