%TF.GenerationSoftware,KiCad,Pcbnew,(5.1.9)-1*%
%TF.CreationDate,2021-02-26T13:25:28+01:00*%
%TF.ProjectId,DynaLoRa_Dongle,44796e61-4c6f-4526-915f-446f6e676c65,rev?*%
%TF.SameCoordinates,Original*%
%TF.FileFunction,Paste,Top*%
%TF.FilePolarity,Positive*%
%FSLAX46Y46*%
G04 Gerber Fmt 4.6, Leading zero omitted, Abs format (unit mm)*
G04 Created by KiCad (PCBNEW (5.1.9)-1) date 2021-02-26 13:25:28*
%MOMM*%
%LPD*%
G01*
G04 APERTURE LIST*
%ADD10C,0.100000*%
%ADD11R,0.850000X1.600000*%
%ADD12R,2.800000X1.400000*%
%ADD13R,0.650000X1.060000*%
%ADD14R,2.500000X1.000000*%
%ADD15R,1.450000X1.000000*%
%ADD16R,0.900000X1.000000*%
G04 APERTURE END LIST*
%TO.C,C5*%
G36*
G01*
X28967862Y55671731D02*
X28605469Y55309338D01*
G75*
G02*
X28296109Y55309338I-154680J154680D01*
G01*
X27986750Y55618697D01*
G75*
G02*
X27986750Y55928057I154680J154680D01*
G01*
X28349143Y56290450D01*
G75*
G02*
X28658503Y56290450I154680J-154680D01*
G01*
X28967862Y55981091D01*
G75*
G02*
X28967862Y55671731I-154680J-154680D01*
G01*
G37*
G36*
G01*
X30081556Y54558037D02*
X29719163Y54195644D01*
G75*
G02*
X29409803Y54195644I-154680J154680D01*
G01*
X29100444Y54505003D01*
G75*
G02*
X29100444Y54814363I154680J154680D01*
G01*
X29462837Y55176756D01*
G75*
G02*
X29772197Y55176756I154680J-154680D01*
G01*
X30081556Y54867397D01*
G75*
G02*
X30081556Y54558037I-154680J-154680D01*
G01*
G37*
%TD*%
%TO.C,D2*%
G36*
G01*
X26291600Y50646650D02*
X26291600Y49734150D01*
G75*
G02*
X26047850Y49490400I-243750J0D01*
G01*
X25560350Y49490400D01*
G75*
G02*
X25316600Y49734150I0J243750D01*
G01*
X25316600Y50646650D01*
G75*
G02*
X25560350Y50890400I243750J0D01*
G01*
X26047850Y50890400D01*
G75*
G02*
X26291600Y50646650I0J-243750D01*
G01*
G37*
G36*
G01*
X24416600Y50646650D02*
X24416600Y49734150D01*
G75*
G02*
X24172850Y49490400I-243750J0D01*
G01*
X23685350Y49490400D01*
G75*
G02*
X23441600Y49734150I0J243750D01*
G01*
X23441600Y50646650D01*
G75*
G02*
X23685350Y50890400I243750J0D01*
G01*
X24172850Y50890400D01*
G75*
G02*
X24416600Y50646650I0J-243750D01*
G01*
G37*
%TD*%
D10*
%TO.C,U1*%
G36*
X38914661Y56457224D02*
G01*
X39091437Y56634000D01*
X39515701Y56209736D01*
X39338925Y56032960D01*
X38914661Y56457224D01*
G37*
G36*
X40894560Y54477325D02*
G01*
X41071336Y54654101D01*
X41495600Y54229837D01*
X41318824Y54053061D01*
X40894560Y54477325D01*
G37*
G36*
X38348975Y55891538D02*
G01*
X38525751Y56068314D01*
X38950015Y55644050D01*
X38773239Y55467274D01*
X38348975Y55891538D01*
G37*
G36*
X37783290Y55325853D02*
G01*
X37960066Y55502629D01*
X38384330Y55078365D01*
X38207554Y54901589D01*
X37783290Y55325853D01*
G37*
G36*
X37217604Y54760167D02*
G01*
X37394380Y54936943D01*
X37818644Y54512679D01*
X37641868Y54335903D01*
X37217604Y54760167D01*
G37*
G36*
X40328874Y53911639D02*
G01*
X40505650Y54088415D01*
X40929914Y53664151D01*
X40753138Y53487375D01*
X40328874Y53911639D01*
G37*
G36*
X39763189Y53345954D02*
G01*
X39939965Y53522730D01*
X40364229Y53098466D01*
X40187453Y52921690D01*
X39763189Y53345954D01*
G37*
G36*
X39197503Y52780268D02*
G01*
X39374279Y52957044D01*
X39798543Y52532780D01*
X39621767Y52356004D01*
X39197503Y52780268D01*
G37*
G36*
X38423221Y53703042D02*
G01*
X38988906Y54268727D01*
X39130327Y54127306D01*
X38564642Y53561621D01*
X38423221Y53703042D01*
G37*
G36*
X39536773Y54816594D02*
G01*
X40102458Y55382279D01*
X40243879Y55240858D01*
X39678194Y54675173D01*
X39536773Y54816594D01*
G37*
%TD*%
%TO.C,C1*%
G36*
G01*
X24315000Y54258400D02*
X24315000Y54758400D01*
G75*
G02*
X24540000Y54983400I225000J0D01*
G01*
X24990000Y54983400D01*
G75*
G02*
X25215000Y54758400I0J-225000D01*
G01*
X25215000Y54258400D01*
G75*
G02*
X24990000Y54033400I-225000J0D01*
G01*
X24540000Y54033400D01*
G75*
G02*
X24315000Y54258400I0J225000D01*
G01*
G37*
G36*
G01*
X25865000Y54258400D02*
X25865000Y54758400D01*
G75*
G02*
X26090000Y54983400I225000J0D01*
G01*
X26540000Y54983400D01*
G75*
G02*
X26765000Y54758400I0J-225000D01*
G01*
X26765000Y54258400D01*
G75*
G02*
X26540000Y54033400I-225000J0D01*
G01*
X26090000Y54033400D01*
G75*
G02*
X25865000Y54258400I0J225000D01*
G01*
G37*
%TD*%
%TO.C,C2*%
G36*
G01*
X38330833Y58013413D02*
X38684387Y58366967D01*
G75*
G02*
X39002585Y58366967I159099J-159099D01*
G01*
X39320783Y58048769D01*
G75*
G02*
X39320783Y57730571I-159099J-159099D01*
G01*
X38967229Y57377017D01*
G75*
G02*
X38649031Y57377017I-159099J159099D01*
G01*
X38330833Y57695215D01*
G75*
G02*
X38330833Y58013413I159099J159099D01*
G01*
G37*
G36*
G01*
X37234817Y59109429D02*
X37588371Y59462983D01*
G75*
G02*
X37906569Y59462983I159099J-159099D01*
G01*
X38224767Y59144785D01*
G75*
G02*
X38224767Y58826587I-159099J-159099D01*
G01*
X37871213Y58473033D01*
G75*
G02*
X37553015Y58473033I-159099J159099D01*
G01*
X37234817Y58791231D01*
G75*
G02*
X37234817Y59109429I159099J159099D01*
G01*
G37*
%TD*%
%TO.C,C3*%
G36*
G01*
X25865000Y59465400D02*
X25865000Y59965400D01*
G75*
G02*
X26090000Y60190400I225000J0D01*
G01*
X26540000Y60190400D01*
G75*
G02*
X26765000Y59965400I0J-225000D01*
G01*
X26765000Y59465400D01*
G75*
G02*
X26540000Y59240400I-225000J0D01*
G01*
X26090000Y59240400D01*
G75*
G02*
X25865000Y59465400I0J225000D01*
G01*
G37*
G36*
G01*
X24315000Y59465400D02*
X24315000Y59965400D01*
G75*
G02*
X24540000Y60190400I225000J0D01*
G01*
X24990000Y60190400D01*
G75*
G02*
X25215000Y59965400I0J-225000D01*
G01*
X25215000Y59465400D01*
G75*
G02*
X24990000Y59240400I-225000J0D01*
G01*
X24540000Y59240400D01*
G75*
G02*
X24315000Y59465400I0J225000D01*
G01*
G37*
%TD*%
%TO.C,C4*%
G36*
G01*
X30021217Y53902429D02*
X30374771Y54255983D01*
G75*
G02*
X30692969Y54255983I159099J-159099D01*
G01*
X31011167Y53937785D01*
G75*
G02*
X31011167Y53619587I-159099J-159099D01*
G01*
X30657613Y53266033D01*
G75*
G02*
X30339415Y53266033I-159099J159099D01*
G01*
X30021217Y53584231D01*
G75*
G02*
X30021217Y53902429I159099J159099D01*
G01*
G37*
G36*
G01*
X31117233Y52806413D02*
X31470787Y53159967D01*
G75*
G02*
X31788985Y53159967I159099J-159099D01*
G01*
X32107183Y52841769D01*
G75*
G02*
X32107183Y52523571I-159099J-159099D01*
G01*
X31753629Y52170017D01*
G75*
G02*
X31435431Y52170017I-159099J159099D01*
G01*
X31117233Y52488215D01*
G75*
G02*
X31117233Y52806413I159099J159099D01*
G01*
G37*
%TD*%
%TO.C,D1*%
G36*
G01*
X23441600Y63602550D02*
X23441600Y64515050D01*
G75*
G02*
X23685350Y64758800I243750J0D01*
G01*
X24172850Y64758800D01*
G75*
G02*
X24416600Y64515050I0J-243750D01*
G01*
X24416600Y63602550D01*
G75*
G02*
X24172850Y63358800I-243750J0D01*
G01*
X23685350Y63358800D01*
G75*
G02*
X23441600Y63602550I0J243750D01*
G01*
G37*
G36*
G01*
X25316600Y63602550D02*
X25316600Y64515050D01*
G75*
G02*
X25560350Y64758800I243750J0D01*
G01*
X26047850Y64758800D01*
G75*
G02*
X26291600Y64515050I0J-243750D01*
G01*
X26291600Y63602550D01*
G75*
G02*
X26047850Y63358800I-243750J0D01*
G01*
X25560350Y63358800D01*
G75*
G02*
X25316600Y63602550I0J243750D01*
G01*
G37*
%TD*%
D11*
%TO.C,D3*%
X68642200Y64132400D03*
X66892200Y64132400D03*
X68642200Y60632400D03*
X66892200Y60632400D03*
%TD*%
D12*
%TO.C,J3*%
X21666200Y56155200D03*
X21666200Y58155200D03*
X21666200Y53655200D03*
X21666200Y60655200D03*
%TD*%
%TO.C,R1*%
G36*
G01*
X45741000Y52572200D02*
X45191000Y52572200D01*
G75*
G02*
X44991000Y52772200I0J200000D01*
G01*
X44991000Y53172200D01*
G75*
G02*
X45191000Y53372200I200000J0D01*
G01*
X45741000Y53372200D01*
G75*
G02*
X45941000Y53172200I0J-200000D01*
G01*
X45941000Y52772200D01*
G75*
G02*
X45741000Y52572200I-200000J0D01*
G01*
G37*
G36*
G01*
X45741000Y54222200D02*
X45191000Y54222200D01*
G75*
G02*
X44991000Y54422200I0J200000D01*
G01*
X44991000Y54822200D01*
G75*
G02*
X45191000Y55022200I200000J0D01*
G01*
X45741000Y55022200D01*
G75*
G02*
X45941000Y54822200I0J-200000D01*
G01*
X45941000Y54422200D01*
G75*
G02*
X45741000Y54222200I-200000J0D01*
G01*
G37*
%TD*%
%TO.C,R2*%
G36*
G01*
X67291400Y58949000D02*
X67291400Y58399000D01*
G75*
G02*
X67091400Y58199000I-200000J0D01*
G01*
X66691400Y58199000D01*
G75*
G02*
X66491400Y58399000I0J200000D01*
G01*
X66491400Y58949000D01*
G75*
G02*
X66691400Y59149000I200000J0D01*
G01*
X67091400Y59149000D01*
G75*
G02*
X67291400Y58949000I0J-200000D01*
G01*
G37*
G36*
G01*
X68941400Y58949000D02*
X68941400Y58399000D01*
G75*
G02*
X68741400Y58199000I-200000J0D01*
G01*
X68341400Y58199000D01*
G75*
G02*
X68141400Y58399000I0J200000D01*
G01*
X68141400Y58949000D01*
G75*
G02*
X68341400Y59149000I200000J0D01*
G01*
X68741400Y59149000D01*
G75*
G02*
X68941400Y58949000I0J-200000D01*
G01*
G37*
%TD*%
%TO.C,R3*%
G36*
G01*
X27707000Y64255200D02*
X27157000Y64255200D01*
G75*
G02*
X26957000Y64455200I0J200000D01*
G01*
X26957000Y64855200D01*
G75*
G02*
X27157000Y65055200I200000J0D01*
G01*
X27707000Y65055200D01*
G75*
G02*
X27907000Y64855200I0J-200000D01*
G01*
X27907000Y64455200D01*
G75*
G02*
X27707000Y64255200I-200000J0D01*
G01*
G37*
G36*
G01*
X27707000Y62605200D02*
X27157000Y62605200D01*
G75*
G02*
X26957000Y62805200I0J200000D01*
G01*
X26957000Y63205200D01*
G75*
G02*
X27157000Y63405200I200000J0D01*
G01*
X27707000Y63405200D01*
G75*
G02*
X27907000Y63205200I0J-200000D01*
G01*
X27907000Y62805200D01*
G75*
G02*
X27707000Y62605200I-200000J0D01*
G01*
G37*
%TD*%
%TO.C,R4*%
G36*
G01*
X26117000Y52319600D02*
X26117000Y51769600D01*
G75*
G02*
X25917000Y51569600I-200000J0D01*
G01*
X25517000Y51569600D01*
G75*
G02*
X25317000Y51769600I0J200000D01*
G01*
X25317000Y52319600D01*
G75*
G02*
X25517000Y52519600I200000J0D01*
G01*
X25917000Y52519600D01*
G75*
G02*
X26117000Y52319600I0J-200000D01*
G01*
G37*
G36*
G01*
X24467000Y52319600D02*
X24467000Y51769600D01*
G75*
G02*
X24267000Y51569600I-200000J0D01*
G01*
X23867000Y51569600D01*
G75*
G02*
X23667000Y51769600I0J200000D01*
G01*
X23667000Y52319600D01*
G75*
G02*
X23867000Y52519600I200000J0D01*
G01*
X24267000Y52519600D01*
G75*
G02*
X24467000Y52319600I0J-200000D01*
G01*
G37*
%TD*%
%TO.C,R5*%
G36*
G01*
X29900200Y61626200D02*
X30450200Y61626200D01*
G75*
G02*
X30650200Y61426200I0J-200000D01*
G01*
X30650200Y61026200D01*
G75*
G02*
X30450200Y60826200I-200000J0D01*
G01*
X29900200Y60826200D01*
G75*
G02*
X29700200Y61026200I0J200000D01*
G01*
X29700200Y61426200D01*
G75*
G02*
X29900200Y61626200I200000J0D01*
G01*
G37*
G36*
G01*
X29900200Y59976200D02*
X30450200Y59976200D01*
G75*
G02*
X30650200Y59776200I0J-200000D01*
G01*
X30650200Y59376200D01*
G75*
G02*
X30450200Y59176200I-200000J0D01*
G01*
X29900200Y59176200D01*
G75*
G02*
X29700200Y59376200I0J200000D01*
G01*
X29700200Y59776200D01*
G75*
G02*
X29900200Y59976200I200000J0D01*
G01*
G37*
%TD*%
%TO.C,R6*%
G36*
G01*
X28477800Y59976200D02*
X29027800Y59976200D01*
G75*
G02*
X29227800Y59776200I0J-200000D01*
G01*
X29227800Y59376200D01*
G75*
G02*
X29027800Y59176200I-200000J0D01*
G01*
X28477800Y59176200D01*
G75*
G02*
X28277800Y59376200I0J200000D01*
G01*
X28277800Y59776200D01*
G75*
G02*
X28477800Y59976200I200000J0D01*
G01*
G37*
G36*
G01*
X28477800Y61626200D02*
X29027800Y61626200D01*
G75*
G02*
X29227800Y61426200I0J-200000D01*
G01*
X29227800Y61026200D01*
G75*
G02*
X29027800Y60826200I-200000J0D01*
G01*
X28477800Y60826200D01*
G75*
G02*
X28277800Y61026200I0J200000D01*
G01*
X28277800Y61426200D01*
G75*
G02*
X28477800Y61626200I200000J0D01*
G01*
G37*
%TD*%
D13*
%TO.C,U3*%
X24602400Y56024600D03*
X25552400Y56024600D03*
X26502400Y56024600D03*
X26502400Y58224600D03*
X24602400Y58224600D03*
%TD*%
D14*
%TO.C,U4*%
X47749000Y64223400D03*
X47749000Y62223400D03*
X47749000Y60223400D03*
X47749000Y58223400D03*
X47749000Y56223400D03*
X47749000Y54223400D03*
X47749000Y52223400D03*
X47749000Y50223400D03*
X63949000Y50223400D03*
X63949000Y52223400D03*
X63949000Y54223400D03*
X63949000Y56223400D03*
X63949000Y58223400D03*
X63949000Y60223400D03*
X63949000Y62223400D03*
X63949000Y64223400D03*
%TD*%
%TO.C,U2*%
G36*
G01*
X34375412Y53966904D02*
X34287023Y53878515D01*
G75*
G02*
X34198635Y53878515I-44194J44194D01*
G01*
X33721338Y54355812D01*
G75*
G02*
X33721338Y54444200I44194J44194D01*
G01*
X33809727Y54532589D01*
G75*
G02*
X33898115Y54532589I44194J-44194D01*
G01*
X34375412Y54055292D01*
G75*
G02*
X34375412Y53966904I-44194J-44194D01*
G01*
G37*
G36*
G01*
X34728965Y54320457D02*
X34640576Y54232068D01*
G75*
G02*
X34552188Y54232068I-44194J44194D01*
G01*
X34074891Y54709365D01*
G75*
G02*
X34074891Y54797753I44194J44194D01*
G01*
X34163280Y54886142D01*
G75*
G02*
X34251668Y54886142I44194J-44194D01*
G01*
X34728965Y54408845D01*
G75*
G02*
X34728965Y54320457I-44194J-44194D01*
G01*
G37*
G36*
G01*
X35082519Y54674010D02*
X34994130Y54585621D01*
G75*
G02*
X34905742Y54585621I-44194J44194D01*
G01*
X34428445Y55062918D01*
G75*
G02*
X34428445Y55151306I44194J44194D01*
G01*
X34516834Y55239695D01*
G75*
G02*
X34605222Y55239695I44194J-44194D01*
G01*
X35082519Y54762398D01*
G75*
G02*
X35082519Y54674010I-44194J-44194D01*
G01*
G37*
G36*
G01*
X35436072Y55027564D02*
X35347683Y54939175D01*
G75*
G02*
X35259295Y54939175I-44194J44194D01*
G01*
X34781998Y55416472D01*
G75*
G02*
X34781998Y55504860I44194J44194D01*
G01*
X34870387Y55593249D01*
G75*
G02*
X34958775Y55593249I44194J-44194D01*
G01*
X35436072Y55115952D01*
G75*
G02*
X35436072Y55027564I-44194J-44194D01*
G01*
G37*
G36*
G01*
X35789625Y55381117D02*
X35701236Y55292728D01*
G75*
G02*
X35612848Y55292728I-44194J44194D01*
G01*
X35135551Y55770025D01*
G75*
G02*
X35135551Y55858413I44194J44194D01*
G01*
X35223940Y55946802D01*
G75*
G02*
X35312328Y55946802I44194J-44194D01*
G01*
X35789625Y55469505D01*
G75*
G02*
X35789625Y55381117I-44194J-44194D01*
G01*
G37*
G36*
G01*
X36143179Y55734670D02*
X36054790Y55646281D01*
G75*
G02*
X35966402Y55646281I-44194J44194D01*
G01*
X35489105Y56123578D01*
G75*
G02*
X35489105Y56211966I44194J44194D01*
G01*
X35577494Y56300355D01*
G75*
G02*
X35665882Y56300355I44194J-44194D01*
G01*
X36143179Y55823058D01*
G75*
G02*
X36143179Y55734670I-44194J-44194D01*
G01*
G37*
G36*
G01*
X36496732Y56088224D02*
X36408343Y55999835D01*
G75*
G02*
X36319955Y55999835I-44194J44194D01*
G01*
X35842658Y56477132D01*
G75*
G02*
X35842658Y56565520I44194J44194D01*
G01*
X35931047Y56653909D01*
G75*
G02*
X36019435Y56653909I44194J-44194D01*
G01*
X36496732Y56176612D01*
G75*
G02*
X36496732Y56088224I-44194J-44194D01*
G01*
G37*
G36*
G01*
X36850285Y56441777D02*
X36761896Y56353388D01*
G75*
G02*
X36673508Y56353388I-44194J44194D01*
G01*
X36196211Y56830685D01*
G75*
G02*
X36196211Y56919073I44194J44194D01*
G01*
X36284600Y57007462D01*
G75*
G02*
X36372988Y57007462I44194J-44194D01*
G01*
X36850285Y56530165D01*
G75*
G02*
X36850285Y56441777I-44194J-44194D01*
G01*
G37*
G36*
G01*
X36850285Y57820635D02*
X36372988Y57343338D01*
G75*
G02*
X36284600Y57343338I-44194J44194D01*
G01*
X36196211Y57431727D01*
G75*
G02*
X36196211Y57520115I44194J44194D01*
G01*
X36673508Y57997412D01*
G75*
G02*
X36761896Y57997412I44194J-44194D01*
G01*
X36850285Y57909023D01*
G75*
G02*
X36850285Y57820635I-44194J-44194D01*
G01*
G37*
G36*
G01*
X36496732Y58174188D02*
X36019435Y57696891D01*
G75*
G02*
X35931047Y57696891I-44194J44194D01*
G01*
X35842658Y57785280D01*
G75*
G02*
X35842658Y57873668I44194J44194D01*
G01*
X36319955Y58350965D01*
G75*
G02*
X36408343Y58350965I44194J-44194D01*
G01*
X36496732Y58262576D01*
G75*
G02*
X36496732Y58174188I-44194J-44194D01*
G01*
G37*
G36*
G01*
X36143179Y58527742D02*
X35665882Y58050445D01*
G75*
G02*
X35577494Y58050445I-44194J44194D01*
G01*
X35489105Y58138834D01*
G75*
G02*
X35489105Y58227222I44194J44194D01*
G01*
X35966402Y58704519D01*
G75*
G02*
X36054790Y58704519I44194J-44194D01*
G01*
X36143179Y58616130D01*
G75*
G02*
X36143179Y58527742I-44194J-44194D01*
G01*
G37*
G36*
G01*
X35789625Y58881295D02*
X35312328Y58403998D01*
G75*
G02*
X35223940Y58403998I-44194J44194D01*
G01*
X35135551Y58492387D01*
G75*
G02*
X35135551Y58580775I44194J44194D01*
G01*
X35612848Y59058072D01*
G75*
G02*
X35701236Y59058072I44194J-44194D01*
G01*
X35789625Y58969683D01*
G75*
G02*
X35789625Y58881295I-44194J-44194D01*
G01*
G37*
G36*
G01*
X35436072Y59234848D02*
X34958775Y58757551D01*
G75*
G02*
X34870387Y58757551I-44194J44194D01*
G01*
X34781998Y58845940D01*
G75*
G02*
X34781998Y58934328I44194J44194D01*
G01*
X35259295Y59411625D01*
G75*
G02*
X35347683Y59411625I44194J-44194D01*
G01*
X35436072Y59323236D01*
G75*
G02*
X35436072Y59234848I-44194J-44194D01*
G01*
G37*
G36*
G01*
X35082519Y59588402D02*
X34605222Y59111105D01*
G75*
G02*
X34516834Y59111105I-44194J44194D01*
G01*
X34428445Y59199494D01*
G75*
G02*
X34428445Y59287882I44194J44194D01*
G01*
X34905742Y59765179D01*
G75*
G02*
X34994130Y59765179I44194J-44194D01*
G01*
X35082519Y59676790D01*
G75*
G02*
X35082519Y59588402I-44194J-44194D01*
G01*
G37*
G36*
G01*
X34728965Y59941955D02*
X34251668Y59464658D01*
G75*
G02*
X34163280Y59464658I-44194J44194D01*
G01*
X34074891Y59553047D01*
G75*
G02*
X34074891Y59641435I44194J44194D01*
G01*
X34552188Y60118732D01*
G75*
G02*
X34640576Y60118732I44194J-44194D01*
G01*
X34728965Y60030343D01*
G75*
G02*
X34728965Y59941955I-44194J-44194D01*
G01*
G37*
G36*
G01*
X34375412Y60295508D02*
X33898115Y59818211D01*
G75*
G02*
X33809727Y59818211I-44194J44194D01*
G01*
X33721338Y59906600D01*
G75*
G02*
X33721338Y59994988I44194J44194D01*
G01*
X34198635Y60472285D01*
G75*
G02*
X34287023Y60472285I44194J-44194D01*
G01*
X34375412Y60383896D01*
G75*
G02*
X34375412Y60295508I-44194J-44194D01*
G01*
G37*
G36*
G01*
X33385462Y59906600D02*
X33297073Y59818211D01*
G75*
G02*
X33208685Y59818211I-44194J44194D01*
G01*
X32731388Y60295508D01*
G75*
G02*
X32731388Y60383896I44194J44194D01*
G01*
X32819777Y60472285D01*
G75*
G02*
X32908165Y60472285I44194J-44194D01*
G01*
X33385462Y59994988D01*
G75*
G02*
X33385462Y59906600I-44194J-44194D01*
G01*
G37*
G36*
G01*
X33031909Y59553047D02*
X32943520Y59464658D01*
G75*
G02*
X32855132Y59464658I-44194J44194D01*
G01*
X32377835Y59941955D01*
G75*
G02*
X32377835Y60030343I44194J44194D01*
G01*
X32466224Y60118732D01*
G75*
G02*
X32554612Y60118732I44194J-44194D01*
G01*
X33031909Y59641435D01*
G75*
G02*
X33031909Y59553047I-44194J-44194D01*
G01*
G37*
G36*
G01*
X32678355Y59199494D02*
X32589966Y59111105D01*
G75*
G02*
X32501578Y59111105I-44194J44194D01*
G01*
X32024281Y59588402D01*
G75*
G02*
X32024281Y59676790I44194J44194D01*
G01*
X32112670Y59765179D01*
G75*
G02*
X32201058Y59765179I44194J-44194D01*
G01*
X32678355Y59287882D01*
G75*
G02*
X32678355Y59199494I-44194J-44194D01*
G01*
G37*
G36*
G01*
X32324802Y58845940D02*
X32236413Y58757551D01*
G75*
G02*
X32148025Y58757551I-44194J44194D01*
G01*
X31670728Y59234848D01*
G75*
G02*
X31670728Y59323236I44194J44194D01*
G01*
X31759117Y59411625D01*
G75*
G02*
X31847505Y59411625I44194J-44194D01*
G01*
X32324802Y58934328D01*
G75*
G02*
X32324802Y58845940I-44194J-44194D01*
G01*
G37*
G36*
G01*
X31971249Y58492387D02*
X31882860Y58403998D01*
G75*
G02*
X31794472Y58403998I-44194J44194D01*
G01*
X31317175Y58881295D01*
G75*
G02*
X31317175Y58969683I44194J44194D01*
G01*
X31405564Y59058072D01*
G75*
G02*
X31493952Y59058072I44194J-44194D01*
G01*
X31971249Y58580775D01*
G75*
G02*
X31971249Y58492387I-44194J-44194D01*
G01*
G37*
G36*
G01*
X31617695Y58138834D02*
X31529306Y58050445D01*
G75*
G02*
X31440918Y58050445I-44194J44194D01*
G01*
X30963621Y58527742D01*
G75*
G02*
X30963621Y58616130I44194J44194D01*
G01*
X31052010Y58704519D01*
G75*
G02*
X31140398Y58704519I44194J-44194D01*
G01*
X31617695Y58227222D01*
G75*
G02*
X31617695Y58138834I-44194J-44194D01*
G01*
G37*
G36*
G01*
X31264142Y57785280D02*
X31175753Y57696891D01*
G75*
G02*
X31087365Y57696891I-44194J44194D01*
G01*
X30610068Y58174188D01*
G75*
G02*
X30610068Y58262576I44194J44194D01*
G01*
X30698457Y58350965D01*
G75*
G02*
X30786845Y58350965I44194J-44194D01*
G01*
X31264142Y57873668D01*
G75*
G02*
X31264142Y57785280I-44194J-44194D01*
G01*
G37*
G36*
G01*
X30910589Y57431727D02*
X30822200Y57343338D01*
G75*
G02*
X30733812Y57343338I-44194J44194D01*
G01*
X30256515Y57820635D01*
G75*
G02*
X30256515Y57909023I44194J44194D01*
G01*
X30344904Y57997412D01*
G75*
G02*
X30433292Y57997412I44194J-44194D01*
G01*
X30910589Y57520115D01*
G75*
G02*
X30910589Y57431727I-44194J-44194D01*
G01*
G37*
G36*
G01*
X30910589Y56830685D02*
X30433292Y56353388D01*
G75*
G02*
X30344904Y56353388I-44194J44194D01*
G01*
X30256515Y56441777D01*
G75*
G02*
X30256515Y56530165I44194J44194D01*
G01*
X30733812Y57007462D01*
G75*
G02*
X30822200Y57007462I44194J-44194D01*
G01*
X30910589Y56919073D01*
G75*
G02*
X30910589Y56830685I-44194J-44194D01*
G01*
G37*
G36*
G01*
X31264142Y56477132D02*
X30786845Y55999835D01*
G75*
G02*
X30698457Y55999835I-44194J44194D01*
G01*
X30610068Y56088224D01*
G75*
G02*
X30610068Y56176612I44194J44194D01*
G01*
X31087365Y56653909D01*
G75*
G02*
X31175753Y56653909I44194J-44194D01*
G01*
X31264142Y56565520D01*
G75*
G02*
X31264142Y56477132I-44194J-44194D01*
G01*
G37*
G36*
G01*
X31617695Y56123578D02*
X31140398Y55646281D01*
G75*
G02*
X31052010Y55646281I-44194J44194D01*
G01*
X30963621Y55734670D01*
G75*
G02*
X30963621Y55823058I44194J44194D01*
G01*
X31440918Y56300355D01*
G75*
G02*
X31529306Y56300355I44194J-44194D01*
G01*
X31617695Y56211966D01*
G75*
G02*
X31617695Y56123578I-44194J-44194D01*
G01*
G37*
G36*
G01*
X31971249Y55770025D02*
X31493952Y55292728D01*
G75*
G02*
X31405564Y55292728I-44194J44194D01*
G01*
X31317175Y55381117D01*
G75*
G02*
X31317175Y55469505I44194J44194D01*
G01*
X31794472Y55946802D01*
G75*
G02*
X31882860Y55946802I44194J-44194D01*
G01*
X31971249Y55858413D01*
G75*
G02*
X31971249Y55770025I-44194J-44194D01*
G01*
G37*
G36*
G01*
X32324802Y55416472D02*
X31847505Y54939175D01*
G75*
G02*
X31759117Y54939175I-44194J44194D01*
G01*
X31670728Y55027564D01*
G75*
G02*
X31670728Y55115952I44194J44194D01*
G01*
X32148025Y55593249D01*
G75*
G02*
X32236413Y55593249I44194J-44194D01*
G01*
X32324802Y55504860D01*
G75*
G02*
X32324802Y55416472I-44194J-44194D01*
G01*
G37*
G36*
G01*
X32678355Y55062918D02*
X32201058Y54585621D01*
G75*
G02*
X32112670Y54585621I-44194J44194D01*
G01*
X32024281Y54674010D01*
G75*
G02*
X32024281Y54762398I44194J44194D01*
G01*
X32501578Y55239695D01*
G75*
G02*
X32589966Y55239695I44194J-44194D01*
G01*
X32678355Y55151306D01*
G75*
G02*
X32678355Y55062918I-44194J-44194D01*
G01*
G37*
G36*
G01*
X33031909Y54709365D02*
X32554612Y54232068D01*
G75*
G02*
X32466224Y54232068I-44194J44194D01*
G01*
X32377835Y54320457D01*
G75*
G02*
X32377835Y54408845I44194J44194D01*
G01*
X32855132Y54886142D01*
G75*
G02*
X32943520Y54886142I44194J-44194D01*
G01*
X33031909Y54797753D01*
G75*
G02*
X33031909Y54709365I-44194J-44194D01*
G01*
G37*
G36*
G01*
X33385462Y54355812D02*
X32908165Y53878515D01*
G75*
G02*
X32819777Y53878515I-44194J44194D01*
G01*
X32731388Y53966904D01*
G75*
G02*
X32731388Y54055292I44194J44194D01*
G01*
X33208685Y54532589D01*
G75*
G02*
X33297073Y54532589I44194J-44194D01*
G01*
X33385462Y54444200D01*
G75*
G02*
X33385462Y54355812I-44194J-44194D01*
G01*
G37*
G36*
G01*
X34067820Y55306871D02*
X33724873Y54963924D01*
G75*
G02*
X33381927Y54963924I-171473J171473D01*
G01*
X33038980Y55306871D01*
G75*
G02*
X33038980Y55649817I171473J171473D01*
G01*
X33381927Y55992764D01*
G75*
G02*
X33724873Y55992764I171473J-171473D01*
G01*
X34067820Y55649817D01*
G75*
G02*
X34067820Y55306871I-171473J-171473D01*
G01*
G37*
G36*
G01*
X34916348Y56155399D02*
X34573401Y55812452D01*
G75*
G02*
X34230455Y55812452I-171473J171473D01*
G01*
X33887508Y56155399D01*
G75*
G02*
X33887508Y56498345I171473J171473D01*
G01*
X34230455Y56841292D01*
G75*
G02*
X34573401Y56841292I171473J-171473D01*
G01*
X34916348Y56498345D01*
G75*
G02*
X34916348Y56155399I-171473J-171473D01*
G01*
G37*
G36*
G01*
X35764876Y57003927D02*
X35421929Y56660980D01*
G75*
G02*
X35078983Y56660980I-171473J171473D01*
G01*
X34736036Y57003927D01*
G75*
G02*
X34736036Y57346873I171473J171473D01*
G01*
X35078983Y57689820D01*
G75*
G02*
X35421929Y57689820I171473J-171473D01*
G01*
X35764876Y57346873D01*
G75*
G02*
X35764876Y57003927I-171473J-171473D01*
G01*
G37*
G36*
G01*
X33219292Y56155399D02*
X32876345Y55812452D01*
G75*
G02*
X32533399Y55812452I-171473J171473D01*
G01*
X32190452Y56155399D01*
G75*
G02*
X32190452Y56498345I171473J171473D01*
G01*
X32533399Y56841292D01*
G75*
G02*
X32876345Y56841292I171473J-171473D01*
G01*
X33219292Y56498345D01*
G75*
G02*
X33219292Y56155399I-171473J-171473D01*
G01*
G37*
G36*
G01*
X34067820Y57003927D02*
X33724873Y56660980D01*
G75*
G02*
X33381927Y56660980I-171473J171473D01*
G01*
X33038980Y57003927D01*
G75*
G02*
X33038980Y57346873I171473J171473D01*
G01*
X33381927Y57689820D01*
G75*
G02*
X33724873Y57689820I171473J-171473D01*
G01*
X34067820Y57346873D01*
G75*
G02*
X34067820Y57003927I-171473J-171473D01*
G01*
G37*
G36*
G01*
X34916348Y57852455D02*
X34573401Y57509508D01*
G75*
G02*
X34230455Y57509508I-171473J171473D01*
G01*
X33887508Y57852455D01*
G75*
G02*
X33887508Y58195401I171473J171473D01*
G01*
X34230455Y58538348D01*
G75*
G02*
X34573401Y58538348I171473J-171473D01*
G01*
X34916348Y58195401D01*
G75*
G02*
X34916348Y57852455I-171473J-171473D01*
G01*
G37*
G36*
G01*
X32370764Y57003927D02*
X32027817Y56660980D01*
G75*
G02*
X31684871Y56660980I-171473J171473D01*
G01*
X31341924Y57003927D01*
G75*
G02*
X31341924Y57346873I171473J171473D01*
G01*
X31684871Y57689820D01*
G75*
G02*
X32027817Y57689820I171473J-171473D01*
G01*
X32370764Y57346873D01*
G75*
G02*
X32370764Y57003927I-171473J-171473D01*
G01*
G37*
G36*
G01*
X33219292Y57852455D02*
X32876345Y57509508D01*
G75*
G02*
X32533399Y57509508I-171473J171473D01*
G01*
X32190452Y57852455D01*
G75*
G02*
X32190452Y58195401I171473J171473D01*
G01*
X32533399Y58538348D01*
G75*
G02*
X32876345Y58538348I171473J-171473D01*
G01*
X33219292Y58195401D01*
G75*
G02*
X33219292Y57852455I-171473J-171473D01*
G01*
G37*
G36*
G01*
X34067820Y58700983D02*
X33724873Y58358036D01*
G75*
G02*
X33381927Y58358036I-171473J171473D01*
G01*
X33038980Y58700983D01*
G75*
G02*
X33038980Y59043929I171473J171473D01*
G01*
X33381927Y59386876D01*
G75*
G02*
X33724873Y59386876I171473J-171473D01*
G01*
X34067820Y59043929D01*
G75*
G02*
X34067820Y58700983I-171473J-171473D01*
G01*
G37*
%TD*%
D15*
%TO.C,SW1*%
X45357200Y64812600D03*
X38557200Y64812600D03*
D16*
X39857200Y62712600D03*
X44057200Y62712600D03*
%TD*%
%TO.C,SW2*%
X34739000Y62712600D03*
X30539000Y62712600D03*
D15*
X29239000Y64812600D03*
X36039000Y64812600D03*
%TD*%
M02*
