M48
; DRILL file {KiCad (5.1.9)-1} date 02/26/21 13:25:30
; FORMAT={-:-/ absolute / inch / decimal}
; #@! TF.CreationDate,2021-02-26T13:25:30+01:00
; #@! TF.GenerationSoftware,Kicad,Pcbnew,(5.1.9)-1
; #@! TF.FileFunction,Plated,1,2,PTH
FMAT,2
INCH
T1C0.0118
T2C0.0394
T3C0.0433
T4C0.0591
%
G90
G05
T1
X0.878Y2.032
X0.91Y2.46
X0.924Y2.211
X0.926Y2.29
X0.9447Y2.239
X0.974Y2.397
X0.984Y1.976
X0.998Y2.464
X1.011Y2.325
X1.038Y2.107
X1.074Y2.351
X1.0759Y2.2661
X1.078Y2.239
X1.095Y2.06
X1.096Y2.373
X1.145Y2.229
X1.145Y2.11
X1.156Y2.315
X1.166Y2.451
X1.195Y2.18
X1.2213Y2.3353
X1.236Y2.437
X1.252Y2.108
X1.269Y2.39
X1.284Y2.482
X1.321Y2.251
X1.334Y2.4011
X1.37Y2.08
X1.377Y2.3843
X1.43Y2.485
X1.4341Y2.3489
X1.497Y2.126
X1.51Y2.346
X1.518Y2.154
X1.52Y2.464
X1.58Y2.31
X1.652Y2.549
X1.653Y2.169
X1.655Y2.31
X1.655Y2.245
X1.67Y2.08
X1.735Y2.245
X1.79Y1.98
X1.808Y2.044
X1.981Y2.4403
X1.988Y2.212
X1.989Y2.29
X2.0Y2.545
X2.033Y2.022
X2.084Y2.211
X2.095Y2.545
X2.113Y2.022
X2.118Y2.362
X2.147Y2.265
X2.188Y2.022
X2.2Y2.545
X2.229Y2.178
X2.233Y2.362
X2.268Y2.022
X2.3Y2.545
X2.313Y2.362
X2.348Y2.022
X2.388Y2.362
X2.395Y2.545
X2.423Y2.022
X2.442Y2.373
X2.455Y2.41
X2.597Y2.264
X2.606Y2.156
X2.631Y2.181
X2.633Y2.452
X2.656Y2.206
X2.661Y1.961
X2.676Y2.061
X2.676Y2.026
X2.676Y1.991
X2.681Y2.231
X2.685Y2.095
X2.705Y2.47
X2.706Y2.256
X2.706Y2.121
X2.731Y2.281
X2.731Y2.146
X2.771Y2.301
T2
X1.113Y1.983
X1.213Y1.983
X1.313Y1.983
X1.413Y1.983
X1.513Y1.983
X1.613Y1.983
X1.713Y1.983
T4
X2.829Y2.352
X2.829Y2.152
X2.929Y2.252
X3.029Y2.352
X3.029Y2.152
T3
G00X0.7329Y2.4746
M15
G01X0.7802Y2.4746
M16
G05
G00X0.7329Y2.0258
M15
G01X0.7802Y2.0258
M16
G05
T0
M30
