%TF.GenerationSoftware,KiCad,Pcbnew,(5.1.9)-1*%
%TF.CreationDate,2021-02-26T13:25:28+01:00*%
%TF.ProjectId,DynaLoRa_Dongle,44796e61-4c6f-4526-915f-446f6e676c65,rev?*%
%TF.SameCoordinates,Original*%
%TF.FileFunction,Copper,L1,Top*%
%TF.FilePolarity,Positive*%
%FSLAX46Y46*%
G04 Gerber Fmt 4.6, Leading zero omitted, Abs format (unit mm)*
G04 Created by KiCad (PCBNEW (5.1.9)-1) date 2021-02-26 13:25:28*
%MOMM*%
%LPD*%
G01*
G04 APERTURE LIST*
%TA.AperFunction,SMDPad,CuDef*%
%ADD10C,0.100000*%
%TD*%
%TA.AperFunction,SMDPad,CuDef*%
%ADD11R,0.850000X1.600000*%
%TD*%
%TA.AperFunction,ComponentPad*%
%ADD12C,2.250000*%
%TD*%
%TA.AperFunction,SMDPad,CuDef*%
%ADD13R,2.800000X1.400000*%
%TD*%
%TA.AperFunction,ComponentPad*%
%ADD14R,2.700000X1.500000*%
%TD*%
%TA.AperFunction,SMDPad,CuDef*%
%ADD15R,0.650000X1.060000*%
%TD*%
%TA.AperFunction,SMDPad,CuDef*%
%ADD16R,2.500000X1.000000*%
%TD*%
%TA.AperFunction,SMDPad,CuDef*%
%ADD17R,1.450000X1.000000*%
%TD*%
%TA.AperFunction,SMDPad,CuDef*%
%ADD18R,0.900000X1.000000*%
%TD*%
%TA.AperFunction,ComponentPad*%
%ADD19R,1.700000X1.700000*%
%TD*%
%TA.AperFunction,ComponentPad*%
%ADD20O,1.700000X1.700000*%
%TD*%
%TA.AperFunction,ViaPad*%
%ADD21C,0.450000*%
%TD*%
%TA.AperFunction,Conductor*%
%ADD22C,1.000000*%
%TD*%
%TA.AperFunction,Conductor*%
%ADD23C,0.500000*%
%TD*%
%TA.AperFunction,Conductor*%
%ADD24C,0.200000*%
%TD*%
%TA.AperFunction,Conductor*%
%ADD25C,0.300000*%
%TD*%
%TA.AperFunction,Conductor*%
%ADD26C,0.250000*%
%TD*%
%TA.AperFunction,Conductor*%
%ADD27C,0.254000*%
%TD*%
%TA.AperFunction,Conductor*%
%ADD28C,0.100000*%
%TD*%
G04 APERTURE END LIST*
%TO.P,C5,2*%
%TO.N,GND*%
%TA.AperFunction,SMDPad,CuDef*%
G36*
G01*
X28967862Y55671731D02*
X28605469Y55309338D01*
G75*
G02*
X28296109Y55309338I-154680J154680D01*
G01*
X27986750Y55618697D01*
G75*
G02*
X27986750Y55928057I154680J154680D01*
G01*
X28349143Y56290450D01*
G75*
G02*
X28658503Y56290450I154680J-154680D01*
G01*
X28967862Y55981091D01*
G75*
G02*
X28967862Y55671731I-154680J-154680D01*
G01*
G37*
%TD.AperFunction*%
%TO.P,C5,1*%
%TO.N,Net-(C5-Pad1)*%
%TA.AperFunction,SMDPad,CuDef*%
G36*
G01*
X30081556Y54558037D02*
X29719163Y54195644D01*
G75*
G02*
X29409803Y54195644I-154680J154680D01*
G01*
X29100444Y54505003D01*
G75*
G02*
X29100444Y54814363I154680J154680D01*
G01*
X29462837Y55176756D01*
G75*
G02*
X29772197Y55176756I154680J-154680D01*
G01*
X30081556Y54867397D01*
G75*
G02*
X30081556Y54558037I-154680J-154680D01*
G01*
G37*
%TD.AperFunction*%
%TD*%
%TO.P,D2,1*%
%TO.N,GND*%
%TA.AperFunction,SMDPad,CuDef*%
G36*
G01*
X26291600Y50646650D02*
X26291600Y49734150D01*
G75*
G02*
X26047850Y49490400I-243750J0D01*
G01*
X25560350Y49490400D01*
G75*
G02*
X25316600Y49734150I0J243750D01*
G01*
X25316600Y50646650D01*
G75*
G02*
X25560350Y50890400I243750J0D01*
G01*
X26047850Y50890400D01*
G75*
G02*
X26291600Y50646650I0J-243750D01*
G01*
G37*
%TD.AperFunction*%
%TO.P,D2,2*%
%TO.N,Net-(D2-Pad2)*%
%TA.AperFunction,SMDPad,CuDef*%
G36*
G01*
X24416600Y50646650D02*
X24416600Y49734150D01*
G75*
G02*
X24172850Y49490400I-243750J0D01*
G01*
X23685350Y49490400D01*
G75*
G02*
X23441600Y49734150I0J243750D01*
G01*
X23441600Y50646650D01*
G75*
G02*
X23685350Y50890400I243750J0D01*
G01*
X24172850Y50890400D01*
G75*
G02*
X24416600Y50646650I0J-243750D01*
G01*
G37*
%TD.AperFunction*%
%TD*%
%TA.AperFunction,SMDPad,CuDef*%
D10*
%TO.P,U1,1*%
%TO.N,/FLASH_CS*%
G36*
X38914661Y56457224D02*
G01*
X39091437Y56634000D01*
X39515701Y56209736D01*
X39338925Y56032960D01*
X38914661Y56457224D01*
G37*
%TD.AperFunction*%
%TA.AperFunction,SMDPad,CuDef*%
%TO.P,U1,8*%
%TO.N,+3V3*%
G36*
X40894560Y54477325D02*
G01*
X41071336Y54654101D01*
X41495600Y54229837D01*
X41318824Y54053061D01*
X40894560Y54477325D01*
G37*
%TD.AperFunction*%
%TA.AperFunction,SMDPad,CuDef*%
%TO.P,U1,2*%
%TO.N,/FLASH_SDI*%
G36*
X38348975Y55891538D02*
G01*
X38525751Y56068314D01*
X38950015Y55644050D01*
X38773239Y55467274D01*
X38348975Y55891538D01*
G37*
%TD.AperFunction*%
%TA.AperFunction,SMDPad,CuDef*%
%TO.P,U1,3*%
%TO.N,+3V3*%
G36*
X37783290Y55325853D02*
G01*
X37960066Y55502629D01*
X38384330Y55078365D01*
X38207554Y54901589D01*
X37783290Y55325853D01*
G37*
%TD.AperFunction*%
%TA.AperFunction,SMDPad,CuDef*%
%TO.P,U1,4*%
%TO.N,GND*%
G36*
X37217604Y54760167D02*
G01*
X37394380Y54936943D01*
X37818644Y54512679D01*
X37641868Y54335903D01*
X37217604Y54760167D01*
G37*
%TD.AperFunction*%
%TA.AperFunction,SMDPad,CuDef*%
%TO.P,U1,7*%
%TO.N,+3V3*%
G36*
X40328874Y53911639D02*
G01*
X40505650Y54088415D01*
X40929914Y53664151D01*
X40753138Y53487375D01*
X40328874Y53911639D01*
G37*
%TD.AperFunction*%
%TA.AperFunction,SMDPad,CuDef*%
%TO.P,U1,6*%
%TO.N,/FLASH_SCK*%
G36*
X39763189Y53345954D02*
G01*
X39939965Y53522730D01*
X40364229Y53098466D01*
X40187453Y52921690D01*
X39763189Y53345954D01*
G37*
%TD.AperFunction*%
%TA.AperFunction,SMDPad,CuDef*%
%TO.P,U1,5*%
%TO.N,/FLASH_SDO*%
G36*
X39197503Y52780268D02*
G01*
X39374279Y52957044D01*
X39798543Y52532780D01*
X39621767Y52356004D01*
X39197503Y52780268D01*
G37*
%TD.AperFunction*%
%TA.AperFunction,SMDPad,CuDef*%
%TO.P,U1,*%
%TO.N,*%
G36*
X38423221Y53703042D02*
G01*
X38988906Y54268727D01*
X39130327Y54127306D01*
X38564642Y53561621D01*
X38423221Y53703042D01*
G37*
%TD.AperFunction*%
%TA.AperFunction,SMDPad,CuDef*%
G36*
X39536773Y54816594D02*
G01*
X40102458Y55382279D01*
X40243879Y55240858D01*
X39678194Y54675173D01*
X39536773Y54816594D01*
G37*
%TD.AperFunction*%
%TD*%
%TO.P,C1,1*%
%TO.N,VBUS*%
%TA.AperFunction,SMDPad,CuDef*%
G36*
G01*
X24315000Y54258400D02*
X24315000Y54758400D01*
G75*
G02*
X24540000Y54983400I225000J0D01*
G01*
X24990000Y54983400D01*
G75*
G02*
X25215000Y54758400I0J-225000D01*
G01*
X25215000Y54258400D01*
G75*
G02*
X24990000Y54033400I-225000J0D01*
G01*
X24540000Y54033400D01*
G75*
G02*
X24315000Y54258400I0J225000D01*
G01*
G37*
%TD.AperFunction*%
%TO.P,C1,2*%
%TO.N,GND*%
%TA.AperFunction,SMDPad,CuDef*%
G36*
G01*
X25865000Y54258400D02*
X25865000Y54758400D01*
G75*
G02*
X26090000Y54983400I225000J0D01*
G01*
X26540000Y54983400D01*
G75*
G02*
X26765000Y54758400I0J-225000D01*
G01*
X26765000Y54258400D01*
G75*
G02*
X26540000Y54033400I-225000J0D01*
G01*
X26090000Y54033400D01*
G75*
G02*
X25865000Y54258400I0J225000D01*
G01*
G37*
%TD.AperFunction*%
%TD*%
%TO.P,C2,2*%
%TO.N,GND*%
%TA.AperFunction,SMDPad,CuDef*%
G36*
G01*
X38330833Y58013413D02*
X38684387Y58366967D01*
G75*
G02*
X39002585Y58366967I159099J-159099D01*
G01*
X39320783Y58048769D01*
G75*
G02*
X39320783Y57730571I-159099J-159099D01*
G01*
X38967229Y57377017D01*
G75*
G02*
X38649031Y57377017I-159099J159099D01*
G01*
X38330833Y57695215D01*
G75*
G02*
X38330833Y58013413I159099J159099D01*
G01*
G37*
%TD.AperFunction*%
%TO.P,C2,1*%
%TO.N,+3V3*%
%TA.AperFunction,SMDPad,CuDef*%
G36*
G01*
X37234817Y59109429D02*
X37588371Y59462983D01*
G75*
G02*
X37906569Y59462983I159099J-159099D01*
G01*
X38224767Y59144785D01*
G75*
G02*
X38224767Y58826587I-159099J-159099D01*
G01*
X37871213Y58473033D01*
G75*
G02*
X37553015Y58473033I-159099J159099D01*
G01*
X37234817Y58791231D01*
G75*
G02*
X37234817Y59109429I159099J159099D01*
G01*
G37*
%TD.AperFunction*%
%TD*%
%TO.P,C3,2*%
%TO.N,GND*%
%TA.AperFunction,SMDPad,CuDef*%
G36*
G01*
X25865000Y59465400D02*
X25865000Y59965400D01*
G75*
G02*
X26090000Y60190400I225000J0D01*
G01*
X26540000Y60190400D01*
G75*
G02*
X26765000Y59965400I0J-225000D01*
G01*
X26765000Y59465400D01*
G75*
G02*
X26540000Y59240400I-225000J0D01*
G01*
X26090000Y59240400D01*
G75*
G02*
X25865000Y59465400I0J225000D01*
G01*
G37*
%TD.AperFunction*%
%TO.P,C3,1*%
%TO.N,+3V3*%
%TA.AperFunction,SMDPad,CuDef*%
G36*
G01*
X24315000Y59465400D02*
X24315000Y59965400D01*
G75*
G02*
X24540000Y60190400I225000J0D01*
G01*
X24990000Y60190400D01*
G75*
G02*
X25215000Y59965400I0J-225000D01*
G01*
X25215000Y59465400D01*
G75*
G02*
X24990000Y59240400I-225000J0D01*
G01*
X24540000Y59240400D01*
G75*
G02*
X24315000Y59465400I0J225000D01*
G01*
G37*
%TD.AperFunction*%
%TD*%
%TO.P,C4,1*%
%TO.N,+3V3*%
%TA.AperFunction,SMDPad,CuDef*%
G36*
G01*
X30021217Y53902429D02*
X30374771Y54255983D01*
G75*
G02*
X30692969Y54255983I159099J-159099D01*
G01*
X31011167Y53937785D01*
G75*
G02*
X31011167Y53619587I-159099J-159099D01*
G01*
X30657613Y53266033D01*
G75*
G02*
X30339415Y53266033I-159099J159099D01*
G01*
X30021217Y53584231D01*
G75*
G02*
X30021217Y53902429I159099J159099D01*
G01*
G37*
%TD.AperFunction*%
%TO.P,C4,2*%
%TO.N,GND*%
%TA.AperFunction,SMDPad,CuDef*%
G36*
G01*
X31117233Y52806413D02*
X31470787Y53159967D01*
G75*
G02*
X31788985Y53159967I159099J-159099D01*
G01*
X32107183Y52841769D01*
G75*
G02*
X32107183Y52523571I-159099J-159099D01*
G01*
X31753629Y52170017D01*
G75*
G02*
X31435431Y52170017I-159099J159099D01*
G01*
X31117233Y52488215D01*
G75*
G02*
X31117233Y52806413I159099J159099D01*
G01*
G37*
%TD.AperFunction*%
%TD*%
%TO.P,D1,1*%
%TO.N,GND*%
%TA.AperFunction,SMDPad,CuDef*%
G36*
G01*
X23441600Y63602550D02*
X23441600Y64515050D01*
G75*
G02*
X23685350Y64758800I243750J0D01*
G01*
X24172850Y64758800D01*
G75*
G02*
X24416600Y64515050I0J-243750D01*
G01*
X24416600Y63602550D01*
G75*
G02*
X24172850Y63358800I-243750J0D01*
G01*
X23685350Y63358800D01*
G75*
G02*
X23441600Y63602550I0J243750D01*
G01*
G37*
%TD.AperFunction*%
%TO.P,D1,2*%
%TO.N,Net-(D1-Pad2)*%
%TA.AperFunction,SMDPad,CuDef*%
G36*
G01*
X25316600Y63602550D02*
X25316600Y64515050D01*
G75*
G02*
X25560350Y64758800I243750J0D01*
G01*
X26047850Y64758800D01*
G75*
G02*
X26291600Y64515050I0J-243750D01*
G01*
X26291600Y63602550D01*
G75*
G02*
X26047850Y63358800I-243750J0D01*
G01*
X25560350Y63358800D01*
G75*
G02*
X25316600Y63602550I0J243750D01*
G01*
G37*
%TD.AperFunction*%
%TD*%
D11*
%TO.P,D3,1*%
%TO.N,+3V3*%
X68642200Y64132400D03*
%TO.P,D3,2*%
%TO.N,Net-(D3-Pad2)*%
X66892200Y64132400D03*
%TO.P,D3,4*%
%TO.N,Net-(D3-Pad4)*%
X68642200Y60632400D03*
%TO.P,D3,3*%
%TO.N,GND*%
X66892200Y60632400D03*
%TD*%
D12*
%TO.P,J2,1*%
%TO.N,Net-(J2-Pad1)*%
X74396600Y57200800D03*
%TO.P,J2,2*%
%TO.N,GND*%
X71856600Y54660800D03*
X76936600Y54660800D03*
X76936600Y59740800D03*
X71856600Y59740800D03*
%TD*%
D13*
%TO.P,J3,2*%
%TO.N,USB_D-*%
X21666200Y56155200D03*
%TO.P,J3,3*%
%TO.N,USB_D+*%
X21666200Y58155200D03*
D14*
%TO.P,J3,5*%
%TO.N,GND*%
X19216200Y62855200D03*
X19216200Y51455200D03*
D13*
%TO.P,J3,1*%
%TO.N,VBUS*%
X21666200Y53655200D03*
%TO.P,J3,4*%
%TO.N,GND*%
X21666200Y60655200D03*
%TD*%
%TO.P,R1,1*%
%TO.N,+3V3*%
%TA.AperFunction,SMDPad,CuDef*%
G36*
G01*
X45741000Y52572200D02*
X45191000Y52572200D01*
G75*
G02*
X44991000Y52772200I0J200000D01*
G01*
X44991000Y53172200D01*
G75*
G02*
X45191000Y53372200I200000J0D01*
G01*
X45741000Y53372200D01*
G75*
G02*
X45941000Y53172200I0J-200000D01*
G01*
X45941000Y52772200D01*
G75*
G02*
X45741000Y52572200I-200000J0D01*
G01*
G37*
%TD.AperFunction*%
%TO.P,R1,2*%
%TO.N,/RF_RESET*%
%TA.AperFunction,SMDPad,CuDef*%
G36*
G01*
X45741000Y54222200D02*
X45191000Y54222200D01*
G75*
G02*
X44991000Y54422200I0J200000D01*
G01*
X44991000Y54822200D01*
G75*
G02*
X45191000Y55022200I200000J0D01*
G01*
X45741000Y55022200D01*
G75*
G02*
X45941000Y54822200I0J-200000D01*
G01*
X45941000Y54422200D01*
G75*
G02*
X45741000Y54222200I-200000J0D01*
G01*
G37*
%TD.AperFunction*%
%TD*%
%TO.P,R2,2*%
%TO.N,/RGB*%
%TA.AperFunction,SMDPad,CuDef*%
G36*
G01*
X67291400Y58949000D02*
X67291400Y58399000D01*
G75*
G02*
X67091400Y58199000I-200000J0D01*
G01*
X66691400Y58199000D01*
G75*
G02*
X66491400Y58399000I0J200000D01*
G01*
X66491400Y58949000D01*
G75*
G02*
X66691400Y59149000I200000J0D01*
G01*
X67091400Y59149000D01*
G75*
G02*
X67291400Y58949000I0J-200000D01*
G01*
G37*
%TD.AperFunction*%
%TO.P,R2,1*%
%TO.N,Net-(D3-Pad4)*%
%TA.AperFunction,SMDPad,CuDef*%
G36*
G01*
X68941400Y58949000D02*
X68941400Y58399000D01*
G75*
G02*
X68741400Y58199000I-200000J0D01*
G01*
X68341400Y58199000D01*
G75*
G02*
X68141400Y58399000I0J200000D01*
G01*
X68141400Y58949000D01*
G75*
G02*
X68341400Y59149000I200000J0D01*
G01*
X68741400Y59149000D01*
G75*
G02*
X68941400Y58949000I0J-200000D01*
G01*
G37*
%TD.AperFunction*%
%TD*%
%TO.P,R3,2*%
%TO.N,Net-(D1-Pad2)*%
%TA.AperFunction,SMDPad,CuDef*%
G36*
G01*
X27707000Y64255200D02*
X27157000Y64255200D01*
G75*
G02*
X26957000Y64455200I0J200000D01*
G01*
X26957000Y64855200D01*
G75*
G02*
X27157000Y65055200I200000J0D01*
G01*
X27707000Y65055200D01*
G75*
G02*
X27907000Y64855200I0J-200000D01*
G01*
X27907000Y64455200D01*
G75*
G02*
X27707000Y64255200I-200000J0D01*
G01*
G37*
%TD.AperFunction*%
%TO.P,R3,1*%
%TO.N,+3V3*%
%TA.AperFunction,SMDPad,CuDef*%
G36*
G01*
X27707000Y62605200D02*
X27157000Y62605200D01*
G75*
G02*
X26957000Y62805200I0J200000D01*
G01*
X26957000Y63205200D01*
G75*
G02*
X27157000Y63405200I200000J0D01*
G01*
X27707000Y63405200D01*
G75*
G02*
X27907000Y63205200I0J-200000D01*
G01*
X27907000Y62805200D01*
G75*
G02*
X27707000Y62605200I-200000J0D01*
G01*
G37*
%TD.AperFunction*%
%TD*%
%TO.P,R4,1*%
%TO.N,/LED*%
%TA.AperFunction,SMDPad,CuDef*%
G36*
G01*
X26117000Y52319600D02*
X26117000Y51769600D01*
G75*
G02*
X25917000Y51569600I-200000J0D01*
G01*
X25517000Y51569600D01*
G75*
G02*
X25317000Y51769600I0J200000D01*
G01*
X25317000Y52319600D01*
G75*
G02*
X25517000Y52519600I200000J0D01*
G01*
X25917000Y52519600D01*
G75*
G02*
X26117000Y52319600I0J-200000D01*
G01*
G37*
%TD.AperFunction*%
%TO.P,R4,2*%
%TO.N,Net-(D2-Pad2)*%
%TA.AperFunction,SMDPad,CuDef*%
G36*
G01*
X24467000Y52319600D02*
X24467000Y51769600D01*
G75*
G02*
X24267000Y51569600I-200000J0D01*
G01*
X23867000Y51569600D01*
G75*
G02*
X23667000Y51769600I0J200000D01*
G01*
X23667000Y52319600D01*
G75*
G02*
X23867000Y52519600I200000J0D01*
G01*
X24267000Y52519600D01*
G75*
G02*
X24467000Y52319600I0J-200000D01*
G01*
G37*
%TD.AperFunction*%
%TD*%
%TO.P,R5,1*%
%TO.N,+3V3*%
%TA.AperFunction,SMDPad,CuDef*%
G36*
G01*
X29900200Y61626200D02*
X30450200Y61626200D01*
G75*
G02*
X30650200Y61426200I0J-200000D01*
G01*
X30650200Y61026200D01*
G75*
G02*
X30450200Y60826200I-200000J0D01*
G01*
X29900200Y60826200D01*
G75*
G02*
X29700200Y61026200I0J200000D01*
G01*
X29700200Y61426200D01*
G75*
G02*
X29900200Y61626200I200000J0D01*
G01*
G37*
%TD.AperFunction*%
%TO.P,R5,2*%
%TO.N,/USER_BTN*%
%TA.AperFunction,SMDPad,CuDef*%
G36*
G01*
X29900200Y59976200D02*
X30450200Y59976200D01*
G75*
G02*
X30650200Y59776200I0J-200000D01*
G01*
X30650200Y59376200D01*
G75*
G02*
X30450200Y59176200I-200000J0D01*
G01*
X29900200Y59176200D01*
G75*
G02*
X29700200Y59376200I0J200000D01*
G01*
X29700200Y59776200D01*
G75*
G02*
X29900200Y59976200I200000J0D01*
G01*
G37*
%TD.AperFunction*%
%TD*%
%TO.P,R6,2*%
%TO.N,/nRESET*%
%TA.AperFunction,SMDPad,CuDef*%
G36*
G01*
X28477800Y59976200D02*
X29027800Y59976200D01*
G75*
G02*
X29227800Y59776200I0J-200000D01*
G01*
X29227800Y59376200D01*
G75*
G02*
X29027800Y59176200I-200000J0D01*
G01*
X28477800Y59176200D01*
G75*
G02*
X28277800Y59376200I0J200000D01*
G01*
X28277800Y59776200D01*
G75*
G02*
X28477800Y59976200I200000J0D01*
G01*
G37*
%TD.AperFunction*%
%TO.P,R6,1*%
%TO.N,+3V3*%
%TA.AperFunction,SMDPad,CuDef*%
G36*
G01*
X28477800Y61626200D02*
X29027800Y61626200D01*
G75*
G02*
X29227800Y61426200I0J-200000D01*
G01*
X29227800Y61026200D01*
G75*
G02*
X29027800Y60826200I-200000J0D01*
G01*
X28477800Y60826200D01*
G75*
G02*
X28277800Y61026200I0J200000D01*
G01*
X28277800Y61426200D01*
G75*
G02*
X28477800Y61626200I200000J0D01*
G01*
G37*
%TD.AperFunction*%
%TD*%
D15*
%TO.P,U3,1*%
%TO.N,VBUS*%
X24602400Y56024600D03*
%TO.P,U3,2*%
%TO.N,GND*%
X25552400Y56024600D03*
%TO.P,U3,3*%
%TO.N,VBUS*%
X26502400Y56024600D03*
%TO.P,U3,4*%
%TO.N,Net-(U3-Pad4)*%
X26502400Y58224600D03*
%TO.P,U3,5*%
%TO.N,+3V3*%
X24602400Y58224600D03*
%TD*%
D16*
%TO.P,U4,1*%
%TO.N,GND*%
X47749000Y64223400D03*
%TO.P,U4,2*%
%TO.N,/SDI*%
X47749000Y62223400D03*
%TO.P,U4,3*%
%TO.N,/SDO*%
X47749000Y60223400D03*
%TO.P,U4,4*%
%TO.N,/SCK*%
X47749000Y58223400D03*
%TO.P,U4,5*%
%TO.N,/RF_CS*%
X47749000Y56223400D03*
%TO.P,U4,6*%
%TO.N,/RF_RESET*%
X47749000Y54223400D03*
%TO.P,U4,7*%
%TO.N,Net-(U4-Pad7)*%
X47749000Y52223400D03*
%TO.P,U4,8*%
%TO.N,GND*%
X47749000Y50223400D03*
%TO.P,U4,9*%
%TO.N,Net-(J2-Pad1)*%
X63949000Y50223400D03*
%TO.P,U4,10*%
%TO.N,GND*%
X63949000Y52223400D03*
%TO.P,U4,11*%
%TO.N,Net-(U4-Pad11)*%
X63949000Y54223400D03*
%TO.P,U4,12*%
%TO.N,Net-(U4-Pad12)*%
X63949000Y56223400D03*
%TO.P,U4,13*%
%TO.N,+3V3*%
X63949000Y58223400D03*
%TO.P,U4,14*%
%TO.N,/RF_INT*%
X63949000Y60223400D03*
%TO.P,U4,15*%
%TO.N,Net-(U4-Pad15)*%
X63949000Y62223400D03*
%TO.P,U4,16*%
%TO.N,Net-(U4-Pad16)*%
X63949000Y64223400D03*
%TD*%
%TO.P,U2,1*%
%TO.N,/PA00*%
%TA.AperFunction,SMDPad,CuDef*%
G36*
G01*
X34375412Y53966904D02*
X34287023Y53878515D01*
G75*
G02*
X34198635Y53878515I-44194J44194D01*
G01*
X33721338Y54355812D01*
G75*
G02*
X33721338Y54444200I44194J44194D01*
G01*
X33809727Y54532589D01*
G75*
G02*
X33898115Y54532589I44194J-44194D01*
G01*
X34375412Y54055292D01*
G75*
G02*
X34375412Y53966904I-44194J-44194D01*
G01*
G37*
%TD.AperFunction*%
%TO.P,U2,2*%
%TO.N,/PA01*%
%TA.AperFunction,SMDPad,CuDef*%
G36*
G01*
X34728965Y54320457D02*
X34640576Y54232068D01*
G75*
G02*
X34552188Y54232068I-44194J44194D01*
G01*
X34074891Y54709365D01*
G75*
G02*
X34074891Y54797753I44194J44194D01*
G01*
X34163280Y54886142D01*
G75*
G02*
X34251668Y54886142I44194J-44194D01*
G01*
X34728965Y54408845D01*
G75*
G02*
X34728965Y54320457I-44194J-44194D01*
G01*
G37*
%TD.AperFunction*%
%TO.P,U2,3*%
%TO.N,/PA02*%
%TA.AperFunction,SMDPad,CuDef*%
G36*
G01*
X35082519Y54674010D02*
X34994130Y54585621D01*
G75*
G02*
X34905742Y54585621I-44194J44194D01*
G01*
X34428445Y55062918D01*
G75*
G02*
X34428445Y55151306I44194J44194D01*
G01*
X34516834Y55239695D01*
G75*
G02*
X34605222Y55239695I44194J-44194D01*
G01*
X35082519Y54762398D01*
G75*
G02*
X35082519Y54674010I-44194J-44194D01*
G01*
G37*
%TD.AperFunction*%
%TO.P,U2,4*%
%TO.N,/SD_CS*%
%TA.AperFunction,SMDPad,CuDef*%
G36*
G01*
X35436072Y55027564D02*
X35347683Y54939175D01*
G75*
G02*
X35259295Y54939175I-44194J44194D01*
G01*
X34781998Y55416472D01*
G75*
G02*
X34781998Y55504860I44194J44194D01*
G01*
X34870387Y55593249D01*
G75*
G02*
X34958775Y55593249I44194J-44194D01*
G01*
X35436072Y55115952D01*
G75*
G02*
X35436072Y55027564I-44194J-44194D01*
G01*
G37*
%TD.AperFunction*%
%TO.P,U2,5*%
%TO.N,/FLASH_SDO*%
%TA.AperFunction,SMDPad,CuDef*%
G36*
G01*
X35789625Y55381117D02*
X35701236Y55292728D01*
G75*
G02*
X35612848Y55292728I-44194J44194D01*
G01*
X35135551Y55770025D01*
G75*
G02*
X35135551Y55858413I44194J44194D01*
G01*
X35223940Y55946802D01*
G75*
G02*
X35312328Y55946802I44194J-44194D01*
G01*
X35789625Y55469505D01*
G75*
G02*
X35789625Y55381117I-44194J-44194D01*
G01*
G37*
%TD.AperFunction*%
%TO.P,U2,6*%
%TO.N,/FLASH_SDI*%
%TA.AperFunction,SMDPad,CuDef*%
G36*
G01*
X36143179Y55734670D02*
X36054790Y55646281D01*
G75*
G02*
X35966402Y55646281I-44194J44194D01*
G01*
X35489105Y56123578D01*
G75*
G02*
X35489105Y56211966I44194J44194D01*
G01*
X35577494Y56300355D01*
G75*
G02*
X35665882Y56300355I44194J-44194D01*
G01*
X36143179Y55823058D01*
G75*
G02*
X36143179Y55734670I-44194J-44194D01*
G01*
G37*
%TD.AperFunction*%
%TO.P,U2,7*%
%TO.N,/FLASH_CS*%
%TA.AperFunction,SMDPad,CuDef*%
G36*
G01*
X36496732Y56088224D02*
X36408343Y55999835D01*
G75*
G02*
X36319955Y55999835I-44194J44194D01*
G01*
X35842658Y56477132D01*
G75*
G02*
X35842658Y56565520I44194J44194D01*
G01*
X35931047Y56653909D01*
G75*
G02*
X36019435Y56653909I44194J-44194D01*
G01*
X36496732Y56176612D01*
G75*
G02*
X36496732Y56088224I-44194J-44194D01*
G01*
G37*
%TD.AperFunction*%
%TO.P,U2,8*%
%TO.N,/FLASH_SCK*%
%TA.AperFunction,SMDPad,CuDef*%
G36*
G01*
X36850285Y56441777D02*
X36761896Y56353388D01*
G75*
G02*
X36673508Y56353388I-44194J44194D01*
G01*
X36196211Y56830685D01*
G75*
G02*
X36196211Y56919073I44194J44194D01*
G01*
X36284600Y57007462D01*
G75*
G02*
X36372988Y57007462I44194J-44194D01*
G01*
X36850285Y56530165D01*
G75*
G02*
X36850285Y56441777I-44194J-44194D01*
G01*
G37*
%TD.AperFunction*%
%TO.P,U2,9*%
%TO.N,+3V3*%
%TA.AperFunction,SMDPad,CuDef*%
G36*
G01*
X36850285Y57820635D02*
X36372988Y57343338D01*
G75*
G02*
X36284600Y57343338I-44194J44194D01*
G01*
X36196211Y57431727D01*
G75*
G02*
X36196211Y57520115I44194J44194D01*
G01*
X36673508Y57997412D01*
G75*
G02*
X36761896Y57997412I44194J-44194D01*
G01*
X36850285Y57909023D01*
G75*
G02*
X36850285Y57820635I-44194J-44194D01*
G01*
G37*
%TD.AperFunction*%
%TO.P,U2,10*%
%TO.N,GND*%
%TA.AperFunction,SMDPad,CuDef*%
G36*
G01*
X36496732Y58174188D02*
X36019435Y57696891D01*
G75*
G02*
X35931047Y57696891I-44194J44194D01*
G01*
X35842658Y57785280D01*
G75*
G02*
X35842658Y57873668I44194J44194D01*
G01*
X36319955Y58350965D01*
G75*
G02*
X36408343Y58350965I44194J-44194D01*
G01*
X36496732Y58262576D01*
G75*
G02*
X36496732Y58174188I-44194J-44194D01*
G01*
G37*
%TD.AperFunction*%
%TO.P,U2,11*%
%TO.N,Net-(U2-Pad11)*%
%TA.AperFunction,SMDPad,CuDef*%
G36*
G01*
X36143179Y58527742D02*
X35665882Y58050445D01*
G75*
G02*
X35577494Y58050445I-44194J44194D01*
G01*
X35489105Y58138834D01*
G75*
G02*
X35489105Y58227222I44194J44194D01*
G01*
X35966402Y58704519D01*
G75*
G02*
X36054790Y58704519I44194J-44194D01*
G01*
X36143179Y58616130D01*
G75*
G02*
X36143179Y58527742I-44194J-44194D01*
G01*
G37*
%TD.AperFunction*%
%TO.P,U2,12*%
%TO.N,/RF_INT*%
%TA.AperFunction,SMDPad,CuDef*%
G36*
G01*
X35789625Y58881295D02*
X35312328Y58403998D01*
G75*
G02*
X35223940Y58403998I-44194J44194D01*
G01*
X35135551Y58492387D01*
G75*
G02*
X35135551Y58580775I44194J44194D01*
G01*
X35612848Y59058072D01*
G75*
G02*
X35701236Y59058072I44194J-44194D01*
G01*
X35789625Y58969683D01*
G75*
G02*
X35789625Y58881295I-44194J-44194D01*
G01*
G37*
%TD.AperFunction*%
%TO.P,U2,13*%
%TO.N,/RF_RESET*%
%TA.AperFunction,SMDPad,CuDef*%
G36*
G01*
X35436072Y59234848D02*
X34958775Y58757551D01*
G75*
G02*
X34870387Y58757551I-44194J44194D01*
G01*
X34781998Y58845940D01*
G75*
G02*
X34781998Y58934328I44194J44194D01*
G01*
X35259295Y59411625D01*
G75*
G02*
X35347683Y59411625I44194J-44194D01*
G01*
X35436072Y59323236D01*
G75*
G02*
X35436072Y59234848I-44194J-44194D01*
G01*
G37*
%TD.AperFunction*%
%TO.P,U2,14*%
%TO.N,/RF_CS*%
%TA.AperFunction,SMDPad,CuDef*%
G36*
G01*
X35082519Y59588402D02*
X34605222Y59111105D01*
G75*
G02*
X34516834Y59111105I-44194J44194D01*
G01*
X34428445Y59199494D01*
G75*
G02*
X34428445Y59287882I44194J44194D01*
G01*
X34905742Y59765179D01*
G75*
G02*
X34994130Y59765179I44194J-44194D01*
G01*
X35082519Y59676790D01*
G75*
G02*
X35082519Y59588402I-44194J-44194D01*
G01*
G37*
%TD.AperFunction*%
%TO.P,U2,15*%
%TO.N,Net-(U2-Pad15)*%
%TA.AperFunction,SMDPad,CuDef*%
G36*
G01*
X34728965Y59941955D02*
X34251668Y59464658D01*
G75*
G02*
X34163280Y59464658I-44194J44194D01*
G01*
X34074891Y59553047D01*
G75*
G02*
X34074891Y59641435I44194J44194D01*
G01*
X34552188Y60118732D01*
G75*
G02*
X34640576Y60118732I44194J-44194D01*
G01*
X34728965Y60030343D01*
G75*
G02*
X34728965Y59941955I-44194J-44194D01*
G01*
G37*
%TD.AperFunction*%
%TO.P,U2,16*%
%TO.N,/USER_BTN*%
%TA.AperFunction,SMDPad,CuDef*%
G36*
G01*
X34375412Y60295508D02*
X33898115Y59818211D01*
G75*
G02*
X33809727Y59818211I-44194J44194D01*
G01*
X33721338Y59906600D01*
G75*
G02*
X33721338Y59994988I44194J44194D01*
G01*
X34198635Y60472285D01*
G75*
G02*
X34287023Y60472285I44194J-44194D01*
G01*
X34375412Y60383896D01*
G75*
G02*
X34375412Y60295508I-44194J-44194D01*
G01*
G37*
%TD.AperFunction*%
%TO.P,U2,17*%
%TO.N,/SDO*%
%TA.AperFunction,SMDPad,CuDef*%
G36*
G01*
X33385462Y59906600D02*
X33297073Y59818211D01*
G75*
G02*
X33208685Y59818211I-44194J44194D01*
G01*
X32731388Y60295508D01*
G75*
G02*
X32731388Y60383896I44194J44194D01*
G01*
X32819777Y60472285D01*
G75*
G02*
X32908165Y60472285I44194J-44194D01*
G01*
X33385462Y59994988D01*
G75*
G02*
X33385462Y59906600I-44194J-44194D01*
G01*
G37*
%TD.AperFunction*%
%TO.P,U2,18*%
%TO.N,/SCK*%
%TA.AperFunction,SMDPad,CuDef*%
G36*
G01*
X33031909Y59553047D02*
X32943520Y59464658D01*
G75*
G02*
X32855132Y59464658I-44194J44194D01*
G01*
X32377835Y59941955D01*
G75*
G02*
X32377835Y60030343I44194J44194D01*
G01*
X32466224Y60118732D01*
G75*
G02*
X32554612Y60118732I44194J-44194D01*
G01*
X33031909Y59641435D01*
G75*
G02*
X33031909Y59553047I-44194J-44194D01*
G01*
G37*
%TD.AperFunction*%
%TO.P,U2,19*%
%TO.N,/SDI*%
%TA.AperFunction,SMDPad,CuDef*%
G36*
G01*
X32678355Y59199494D02*
X32589966Y59111105D01*
G75*
G02*
X32501578Y59111105I-44194J44194D01*
G01*
X32024281Y59588402D01*
G75*
G02*
X32024281Y59676790I44194J44194D01*
G01*
X32112670Y59765179D01*
G75*
G02*
X32201058Y59765179I44194J-44194D01*
G01*
X32678355Y59287882D01*
G75*
G02*
X32678355Y59199494I-44194J-44194D01*
G01*
G37*
%TD.AperFunction*%
%TO.P,U2,20*%
%TO.N,/RGB*%
%TA.AperFunction,SMDPad,CuDef*%
G36*
G01*
X32324802Y58845940D02*
X32236413Y58757551D01*
G75*
G02*
X32148025Y58757551I-44194J44194D01*
G01*
X31670728Y59234848D01*
G75*
G02*
X31670728Y59323236I44194J44194D01*
G01*
X31759117Y59411625D01*
G75*
G02*
X31847505Y59411625I44194J-44194D01*
G01*
X32324802Y58934328D01*
G75*
G02*
X32324802Y58845940I-44194J-44194D01*
G01*
G37*
%TD.AperFunction*%
%TO.P,U2,21*%
%TO.N,Net-(U2-Pad21)*%
%TA.AperFunction,SMDPad,CuDef*%
G36*
G01*
X31971249Y58492387D02*
X31882860Y58403998D01*
G75*
G02*
X31794472Y58403998I-44194J44194D01*
G01*
X31317175Y58881295D01*
G75*
G02*
X31317175Y58969683I44194J44194D01*
G01*
X31405564Y59058072D01*
G75*
G02*
X31493952Y59058072I44194J-44194D01*
G01*
X31971249Y58580775D01*
G75*
G02*
X31971249Y58492387I-44194J-44194D01*
G01*
G37*
%TD.AperFunction*%
%TO.P,U2,22*%
%TO.N,Net-(U2-Pad22)*%
%TA.AperFunction,SMDPad,CuDef*%
G36*
G01*
X31617695Y58138834D02*
X31529306Y58050445D01*
G75*
G02*
X31440918Y58050445I-44194J44194D01*
G01*
X30963621Y58527742D01*
G75*
G02*
X30963621Y58616130I44194J44194D01*
G01*
X31052010Y58704519D01*
G75*
G02*
X31140398Y58704519I44194J-44194D01*
G01*
X31617695Y58227222D01*
G75*
G02*
X31617695Y58138834I-44194J-44194D01*
G01*
G37*
%TD.AperFunction*%
%TO.P,U2,23*%
%TO.N,USB_D-*%
%TA.AperFunction,SMDPad,CuDef*%
G36*
G01*
X31264142Y57785280D02*
X31175753Y57696891D01*
G75*
G02*
X31087365Y57696891I-44194J44194D01*
G01*
X30610068Y58174188D01*
G75*
G02*
X30610068Y58262576I44194J44194D01*
G01*
X30698457Y58350965D01*
G75*
G02*
X30786845Y58350965I44194J-44194D01*
G01*
X31264142Y57873668D01*
G75*
G02*
X31264142Y57785280I-44194J-44194D01*
G01*
G37*
%TD.AperFunction*%
%TO.P,U2,24*%
%TO.N,USB_D+*%
%TA.AperFunction,SMDPad,CuDef*%
G36*
G01*
X30910589Y57431727D02*
X30822200Y57343338D01*
G75*
G02*
X30733812Y57343338I-44194J44194D01*
G01*
X30256515Y57820635D01*
G75*
G02*
X30256515Y57909023I44194J44194D01*
G01*
X30344904Y57997412D01*
G75*
G02*
X30433292Y57997412I44194J-44194D01*
G01*
X30910589Y57520115D01*
G75*
G02*
X30910589Y57431727I-44194J-44194D01*
G01*
G37*
%TD.AperFunction*%
%TO.P,U2,25*%
%TO.N,/LED*%
%TA.AperFunction,SMDPad,CuDef*%
G36*
G01*
X30910589Y56830685D02*
X30433292Y56353388D01*
G75*
G02*
X30344904Y56353388I-44194J44194D01*
G01*
X30256515Y56441777D01*
G75*
G02*
X30256515Y56530165I44194J44194D01*
G01*
X30733812Y57007462D01*
G75*
G02*
X30822200Y57007462I44194J-44194D01*
G01*
X30910589Y56919073D01*
G75*
G02*
X30910589Y56830685I-44194J-44194D01*
G01*
G37*
%TD.AperFunction*%
%TO.P,U2,26*%
%TO.N,/nRESET*%
%TA.AperFunction,SMDPad,CuDef*%
G36*
G01*
X31264142Y56477132D02*
X30786845Y55999835D01*
G75*
G02*
X30698457Y55999835I-44194J44194D01*
G01*
X30610068Y56088224D01*
G75*
G02*
X30610068Y56176612I44194J44194D01*
G01*
X31087365Y56653909D01*
G75*
G02*
X31175753Y56653909I44194J-44194D01*
G01*
X31264142Y56565520D01*
G75*
G02*
X31264142Y56477132I-44194J-44194D01*
G01*
G37*
%TD.AperFunction*%
%TO.P,U2,27*%
%TO.N,Net-(U2-Pad27)*%
%TA.AperFunction,SMDPad,CuDef*%
G36*
G01*
X31617695Y56123578D02*
X31140398Y55646281D01*
G75*
G02*
X31052010Y55646281I-44194J44194D01*
G01*
X30963621Y55734670D01*
G75*
G02*
X30963621Y55823058I44194J44194D01*
G01*
X31440918Y56300355D01*
G75*
G02*
X31529306Y56300355I44194J-44194D01*
G01*
X31617695Y56211966D01*
G75*
G02*
X31617695Y56123578I-44194J-44194D01*
G01*
G37*
%TD.AperFunction*%
%TO.P,U2,28*%
%TO.N,GND*%
%TA.AperFunction,SMDPad,CuDef*%
G36*
G01*
X31971249Y55770025D02*
X31493952Y55292728D01*
G75*
G02*
X31405564Y55292728I-44194J44194D01*
G01*
X31317175Y55381117D01*
G75*
G02*
X31317175Y55469505I44194J44194D01*
G01*
X31794472Y55946802D01*
G75*
G02*
X31882860Y55946802I44194J-44194D01*
G01*
X31971249Y55858413D01*
G75*
G02*
X31971249Y55770025I-44194J-44194D01*
G01*
G37*
%TD.AperFunction*%
%TO.P,U2,29*%
%TO.N,Net-(C5-Pad1)*%
%TA.AperFunction,SMDPad,CuDef*%
G36*
G01*
X32324802Y55416472D02*
X31847505Y54939175D01*
G75*
G02*
X31759117Y54939175I-44194J44194D01*
G01*
X31670728Y55027564D01*
G75*
G02*
X31670728Y55115952I44194J44194D01*
G01*
X32148025Y55593249D01*
G75*
G02*
X32236413Y55593249I44194J-44194D01*
G01*
X32324802Y55504860D01*
G75*
G02*
X32324802Y55416472I-44194J-44194D01*
G01*
G37*
%TD.AperFunction*%
%TO.P,U2,30*%
%TO.N,+3V3*%
%TA.AperFunction,SMDPad,CuDef*%
G36*
G01*
X32678355Y55062918D02*
X32201058Y54585621D01*
G75*
G02*
X32112670Y54585621I-44194J44194D01*
G01*
X32024281Y54674010D01*
G75*
G02*
X32024281Y54762398I44194J44194D01*
G01*
X32501578Y55239695D01*
G75*
G02*
X32589966Y55239695I44194J-44194D01*
G01*
X32678355Y55151306D01*
G75*
G02*
X32678355Y55062918I-44194J-44194D01*
G01*
G37*
%TD.AperFunction*%
%TO.P,U2,31*%
%TO.N,/SWCLK*%
%TA.AperFunction,SMDPad,CuDef*%
G36*
G01*
X33031909Y54709365D02*
X32554612Y54232068D01*
G75*
G02*
X32466224Y54232068I-44194J44194D01*
G01*
X32377835Y54320457D01*
G75*
G02*
X32377835Y54408845I44194J44194D01*
G01*
X32855132Y54886142D01*
G75*
G02*
X32943520Y54886142I44194J-44194D01*
G01*
X33031909Y54797753D01*
G75*
G02*
X33031909Y54709365I-44194J-44194D01*
G01*
G37*
%TD.AperFunction*%
%TO.P,U2,32*%
%TO.N,/SWDIO*%
%TA.AperFunction,SMDPad,CuDef*%
G36*
G01*
X33385462Y54355812D02*
X32908165Y53878515D01*
G75*
G02*
X32819777Y53878515I-44194J44194D01*
G01*
X32731388Y53966904D01*
G75*
G02*
X32731388Y54055292I44194J44194D01*
G01*
X33208685Y54532589D01*
G75*
G02*
X33297073Y54532589I44194J-44194D01*
G01*
X33385462Y54444200D01*
G75*
G02*
X33385462Y54355812I-44194J-44194D01*
G01*
G37*
%TD.AperFunction*%
%TA.AperFunction,SMDPad,CuDef*%
D10*
%TO.P,U2,33*%
%TO.N,GND*%
G36*
X36098984Y57175400D02*
G01*
X33553400Y54629816D01*
X31007816Y57175400D01*
X33553400Y59720984D01*
X36098984Y57175400D01*
G37*
%TD.AperFunction*%
%TD*%
D17*
%TO.P,SW1,3*%
%TO.N,GND*%
X45357200Y64812600D03*
%TO.P,SW1,4*%
X38557200Y64812600D03*
D18*
%TO.P,SW1,2*%
%TO.N,/USER_BTN*%
X39857200Y62712600D03*
%TO.P,SW1,1*%
%TO.N,GND*%
X44057200Y62712600D03*
%TD*%
%TO.P,SW2,1*%
%TO.N,GND*%
X34739000Y62712600D03*
%TO.P,SW2,2*%
%TO.N,/nRESET*%
X30539000Y62712600D03*
D17*
%TO.P,SW2,4*%
%TO.N,GND*%
X29239000Y64812600D03*
%TO.P,SW2,3*%
X36039000Y64812600D03*
%TD*%
D19*
%TO.P,J1,1*%
%TO.N,GND*%
X43510200Y50368200D03*
D20*
%TO.P,J1,2*%
%TO.N,/PA02*%
X40970200Y50368200D03*
%TO.P,J1,3*%
%TO.N,/PA01*%
X38430200Y50368200D03*
%TO.P,J1,4*%
%TO.N,/PA00*%
X35890200Y50368200D03*
%TO.P,J1,5*%
%TO.N,/SWDIO*%
X33350200Y50368200D03*
%TO.P,J1,6*%
%TO.N,/SWCLK*%
X30810200Y50368200D03*
%TO.P,J1,7*%
%TO.N,+3V3*%
X28270200Y50368200D03*
%TD*%
D21*
%TO.N,*%
X70383400Y58445400D03*
%TO.N,GND*%
X41960800Y64744600D03*
X32613600Y63042800D03*
X50800000Y64643000D03*
X53213000Y64643000D03*
X55880000Y64643000D03*
X58420000Y64643000D03*
X60833000Y64643000D03*
X36322000Y63119000D03*
X34798000Y52832000D03*
X45466000Y50292000D03*
X42418000Y52832000D03*
X40132000Y58674000D03*
X42037000Y58674000D03*
X42037000Y57023000D03*
X44069000Y57023000D03*
X66878200Y62280800D03*
X26365200Y53517800D03*
X27813000Y52324000D03*
X22301200Y51612800D03*
X51638200Y51358800D03*
X55575200Y51358800D03*
X53670200Y51358800D03*
X57607200Y51358800D03*
X61544200Y51358800D03*
X59639200Y51358800D03*
X56718200Y59994800D03*
X58750200Y59994800D03*
X60655200Y59994800D03*
X53797200Y59994800D03*
X50495200Y56184800D03*
X66192400Y54762400D03*
X66827400Y55397400D03*
X67462400Y56032400D03*
X68097400Y56667400D03*
X68732400Y57302400D03*
X69367400Y57937400D03*
X67970400Y52349400D03*
X67970400Y51460400D03*
X67970400Y50571400D03*
X67589400Y49809400D03*
X68732400Y53873400D03*
X69367400Y54508400D03*
X68199000Y53213000D03*
X25349200Y62585600D03*
X23114000Y62484000D03*
X33553400Y57175400D03*
X25679400Y59055000D03*
X27279600Y59715400D03*
X31800800Y53543200D03*
X38023800Y54000400D03*
X29083000Y56616600D03*
X24993600Y50190400D03*
%TO.N,/USER_BTN*%
X34975800Y60562000D03*
X38607993Y62585607D03*
X31022145Y59317745D03*
%TO.N,/nRESET*%
X30353000Y55372000D03*
X29616400Y62255400D03*
X29362400Y58801000D03*
X27838400Y60274200D03*
%TO.N,+3V3*%
X52933600Y56159400D03*
X56616600Y55321200D03*
X65963800Y57505600D03*
X68707000Y62738000D03*
X38557200Y54711600D03*
X38354000Y59588400D03*
X41986200Y55092600D03*
X24739600Y60883800D03*
X29083000Y53594000D03*
%TO.N,/RGB*%
X31394400Y61899800D03*
X62357000Y61214000D03*
%TO.N,/RF_INT*%
X62026800Y60274200D03*
X36426532Y59661668D03*
%TO.N,USB_D+*%
X23520400Y58166000D03*
X23994600Y56871854D03*
X27381200Y56870600D03*
%TO.N,USB_D-*%
X23469600Y56159400D03*
X27327461Y57559339D03*
%TO.N,/SD_CS*%
X45923200Y51917600D03*
%TO.N,/SDO*%
X54533800Y57531000D03*
%TO.N,/SCK*%
X50520600Y58166000D03*
X32232600Y60706000D03*
X33883745Y60987578D03*
%TO.N,/SDI*%
X50317400Y61984390D03*
%TD*%
D22*
%TO.N,VBUS*%
X21762700Y53746500D02*
X21666200Y53650000D01*
D23*
X24612600Y56014400D02*
X24602400Y56024600D01*
X24765000Y54508400D02*
X24612600Y54660800D01*
X24714200Y54508400D02*
X24765000Y54508400D01*
X23861000Y53655200D02*
X24714200Y54508400D01*
X21666200Y53655200D02*
X23861000Y53655200D01*
D24*
X24765000Y54983400D02*
X24874200Y55092600D01*
X24765000Y54508400D02*
X24765000Y54983400D01*
D23*
X24612600Y54660800D02*
X24612600Y56014400D01*
D24*
X24602400Y56754600D02*
X24845400Y56997600D01*
X24602400Y56024600D02*
X24602400Y56754600D01*
X26502400Y56754600D02*
X26502400Y56024600D01*
X26259400Y56997600D02*
X26502400Y56754600D01*
X24845400Y56997600D02*
X26259400Y56997600D01*
%TO.N,GND*%
X26108800Y49631600D02*
X26111200Y49629200D01*
X35321167Y57175400D02*
X33553400Y57175400D01*
X36169695Y58023928D02*
X35321167Y57175400D01*
X33199847Y57175400D02*
X33553400Y57175400D01*
X31644212Y55619765D02*
X33199847Y57175400D01*
D25*
X26315000Y59690600D02*
X25679400Y59055000D01*
X26315000Y59715400D02*
X26315000Y59690600D01*
D23*
X26315000Y59715400D02*
X27279600Y59715400D01*
D24*
X31612208Y53354608D02*
X31800800Y53543200D01*
X31612208Y52664992D02*
X31612208Y53354608D01*
D25*
X25552400Y55271000D02*
X26315000Y54508400D01*
X25552400Y56024600D02*
X25552400Y55271000D01*
D24*
X28477306Y56010906D02*
X29083000Y56616600D01*
X28477306Y55799894D02*
X28477306Y56010906D01*
X25804100Y50190400D02*
X24993600Y50190400D01*
X38023800Y54089300D02*
X38023800Y54000400D01*
X37518124Y54594976D02*
X38023800Y54089300D01*
X37518124Y54636423D02*
X37518124Y54594976D01*
D26*
%TO.N,/USER_BTN*%
X34465127Y60562000D02*
X34975800Y60562000D01*
X34048375Y60145248D02*
X34465127Y60562000D01*
D24*
X38785786Y62763400D02*
X38607993Y62585607D01*
X39860800Y62763400D02*
X38785786Y62763400D01*
X30763690Y59576200D02*
X31022145Y59317745D01*
X30175200Y59576200D02*
X30763690Y59576200D01*
%TO.N,/nRESET*%
X30937105Y56326872D02*
X30353000Y55742767D01*
X30353000Y55742767D02*
X30353000Y55372000D01*
X30073600Y62712600D02*
X29616400Y62255400D01*
X30539000Y62712600D02*
X30073600Y62712600D01*
X29426400Y58865000D02*
X29362400Y58801000D01*
X28752800Y59156600D02*
X28752800Y59576200D01*
X29108400Y58801000D02*
X28752800Y59156600D01*
X29362400Y58801000D02*
X29108400Y58801000D01*
X28536400Y59576200D02*
X27838400Y60274200D01*
X28752800Y59576200D02*
X28536400Y59576200D01*
D23*
%TO.N,+3V3*%
X61172600Y58226200D02*
X63949000Y58226200D01*
X59105800Y56159400D02*
X61172600Y58226200D01*
D25*
X55778400Y56159400D02*
X54152800Y56159400D01*
X56616600Y55321200D02*
X55778400Y56159400D01*
D23*
X52933600Y56159400D02*
X54152800Y56159400D01*
X54152800Y56159400D02*
X59105800Y56159400D01*
D26*
X63949000Y58226200D02*
X65243200Y58226200D01*
X65243200Y58226200D02*
X65963800Y57505600D01*
X68707000Y64062000D02*
X68636600Y64132400D01*
X68707000Y62738000D02*
X68707000Y64062000D01*
D24*
X38083810Y55184990D02*
X38557200Y54711600D01*
X38083810Y55202109D02*
X38083810Y55184990D01*
D26*
X36523248Y57670375D02*
X36523248Y57681448D01*
X37882192Y59040392D02*
X37882192Y59196608D01*
X36523248Y57681448D02*
X37882192Y59040392D01*
D24*
X31199668Y53761008D02*
X32351318Y54912658D01*
X30516192Y53761008D02*
X31199668Y53761008D01*
X37733608Y58968008D02*
X38354000Y59588400D01*
X37729792Y58968008D02*
X37733608Y58968008D01*
D23*
X24602400Y59552800D02*
X24765000Y59715400D01*
X24602400Y58224600D02*
X24602400Y59552800D01*
X28752800Y61226200D02*
X25869400Y61226200D01*
D25*
X27432000Y62763400D02*
X27432000Y63005200D01*
X25894800Y61226200D02*
X27432000Y62763400D01*
X25869400Y61226200D02*
X25894800Y61226200D01*
D23*
X41934099Y55092600D02*
X40629394Y53787895D01*
X41986200Y55092600D02*
X41934099Y55092600D01*
D25*
X28752800Y61226200D02*
X30175200Y61226200D01*
D23*
X24765000Y60858400D02*
X24739600Y60883800D01*
X24765000Y59715400D02*
X24765000Y60858400D01*
X24765000Y60883800D02*
X24765000Y59715400D01*
X25107400Y61226200D02*
X24765000Y60883800D01*
X25869400Y61226200D02*
X25107400Y61226200D01*
D25*
X44106600Y52972200D02*
X41986200Y55092600D01*
X45466000Y52972200D02*
X44106600Y52972200D01*
X30516192Y53761008D02*
X29250008Y53761008D01*
X29250008Y53761008D02*
X29083000Y53594000D01*
D23*
X29083000Y51181000D02*
X29083000Y53594000D01*
X28270200Y50368200D02*
X29083000Y51181000D01*
%TO.N,Net-(D1-Pad2)*%
X25829500Y64084200D02*
X25804100Y64058800D01*
X26568400Y64084200D02*
X25829500Y64084200D01*
X27139400Y64655200D02*
X26568400Y64084200D01*
X27432000Y64655200D02*
X27139400Y64655200D01*
D26*
%TO.N,Net-(D2-Pad2)*%
X23929100Y51906700D02*
X24067000Y52044600D01*
X23929100Y50190400D02*
X23929100Y51906700D01*
D24*
%TO.N,/SWDIO*%
X33350200Y53913777D02*
X33058425Y54205552D01*
X33350200Y50368200D02*
X33350200Y53913777D01*
%TO.N,/SWCLK*%
X32664400Y52708832D02*
X32664400Y52603400D01*
X32664400Y51638200D02*
X32664400Y52708832D01*
X31394400Y50368200D02*
X32664400Y51638200D01*
X30810200Y50368200D02*
X31394400Y50368200D01*
X32664400Y53263800D02*
X32664400Y52708832D01*
X32704872Y54548872D02*
X32410400Y54254400D01*
X32410400Y53517800D02*
X32664400Y53263800D01*
X32410400Y54254400D02*
X32410400Y53517800D01*
X32704872Y54559105D02*
X32704872Y54548872D01*
%TO.N,/RGB*%
X31997765Y59086635D02*
X31369000Y59715400D01*
X31997765Y59084588D02*
X31997765Y59086635D01*
X31070590Y60011763D02*
X31070590Y61017190D01*
X31997765Y59084588D02*
X31070590Y60011763D01*
X31070590Y61575990D02*
X31394400Y61899800D01*
X31070590Y61017190D02*
X31070590Y61575990D01*
X66891400Y58674000D02*
X65786000Y59779400D01*
X65786000Y60676402D02*
X65248402Y61214000D01*
X65786000Y59779400D02*
X65786000Y60676402D01*
X65248402Y61214000D02*
X62357000Y61214000D01*
D26*
%TO.N,/LED*%
X25717000Y52044600D02*
X26339800Y52044600D01*
X26339800Y52044600D02*
X27406600Y53111400D01*
D24*
X30583552Y56680425D02*
X30583552Y56669352D01*
X27406600Y53544798D02*
X27406600Y53111400D01*
X29402638Y55540836D02*
X27406600Y53544798D01*
X29455036Y55540836D02*
X29402638Y55540836D01*
X30583552Y56669352D02*
X29455036Y55540836D01*
%TO.N,/RF_RESET*%
X45579800Y54508400D02*
X45466000Y54622200D01*
X46126400Y54508400D02*
X45579800Y54508400D01*
X46411400Y54223400D02*
X46126400Y54508400D01*
X47749000Y54223400D02*
X46411400Y54223400D01*
X35109035Y59084588D02*
X35109035Y59086635D01*
X35109035Y59086635D02*
X36309380Y60286980D01*
X36309380Y60286980D02*
X43363522Y60286980D01*
X45472390Y54628590D02*
X45466000Y54622200D01*
X45472390Y58178112D02*
X45472390Y54628590D01*
X43363522Y60286980D02*
X45472390Y58178112D01*
%TO.N,/RF_CS*%
X46299000Y56223400D02*
X47749000Y56223400D01*
X45872400Y58420000D02*
X45872400Y56650000D01*
X43605410Y60686990D02*
X45872400Y58420000D01*
X36004330Y60686990D02*
X43605410Y60686990D01*
X45872400Y56650000D02*
X46299000Y56223400D01*
X34755482Y59438142D02*
X36004330Y60686990D01*
%TO.N,/RF_INT*%
X63949000Y60226200D02*
X62074800Y60226200D01*
X62074800Y60226200D02*
X62026800Y60274200D01*
X35462588Y58731035D02*
X35490035Y58731035D01*
X36420668Y59661668D02*
X36426532Y59661668D01*
X35490035Y58731035D02*
X36420668Y59661668D01*
%TO.N,Net-(C5-Pad1)*%
X31997765Y55266212D02*
X31417753Y54686200D01*
X31417753Y54686200D02*
X29591000Y54686200D01*
%TO.N,/FLASH_CS*%
X38957461Y56591200D02*
X39215181Y56333480D01*
X36626800Y55854600D02*
X37178702Y55854600D01*
X36169695Y56326872D02*
X36461495Y56035072D01*
X36461495Y56035072D02*
X36461495Y56019905D01*
X36461495Y56019905D02*
X36626800Y55854600D01*
X37178702Y55854600D02*
X37915302Y56591200D01*
X37915302Y56591200D02*
X38957461Y56591200D01*
%TO.N,/FLASH_SDI*%
X36366660Y55422800D02*
X35816142Y55973318D01*
X37312600Y55422800D02*
X36366660Y55422800D01*
X37693600Y55803800D02*
X37312600Y55422800D01*
X38613489Y55803800D02*
X37693600Y55803800D01*
X38649495Y55767794D02*
X38613489Y55803800D01*
%TO.N,/FLASH_SCK*%
X39851577Y54050177D02*
X39851577Y53434342D01*
X40543889Y55671311D02*
X40543889Y54742489D01*
X36523248Y56680425D02*
X36834034Y56991211D01*
X40543889Y54742489D02*
X39851577Y54050177D01*
X39851577Y53434342D02*
X40063709Y53222210D01*
X39223989Y56991211D02*
X40543889Y55671311D01*
X36834034Y56991211D02*
X39223989Y56991211D01*
%TO.N,/FLASH_SDO*%
X38425829Y52656524D02*
X39498023Y52656524D01*
X35462588Y55619765D02*
X38425829Y52656524D01*
D26*
%TO.N,USB_D+*%
X23509600Y58155200D02*
X23520400Y58166000D01*
X21666200Y58155200D02*
X23509600Y58155200D01*
D24*
X23520400Y57346054D02*
X23520400Y58166000D01*
X23994600Y56871854D02*
X23520400Y57346054D01*
X30583552Y57670375D02*
X28180975Y57670375D01*
X28180975Y57670375D02*
X27381200Y56870600D01*
D26*
%TO.N,USB_D-*%
X23465400Y56155200D02*
X23469600Y56159400D01*
X21666200Y56155200D02*
X23465400Y56155200D01*
D24*
X30937105Y58023928D02*
X30634234Y58326799D01*
X29716003Y58326799D02*
X29614402Y58225198D01*
X30634234Y58326799D02*
X29716003Y58326799D01*
X27993320Y58225198D02*
X27327461Y57559339D01*
X29614402Y58225198D02*
X27993320Y58225198D01*
%TO.N,/PA00*%
X34048375Y52210025D02*
X34048375Y54205552D01*
X35890200Y50368200D02*
X34048375Y52210025D01*
%TO.N,/PA01*%
X36017200Y52781200D02*
X38430200Y50368200D01*
X34693728Y54104672D02*
X36017200Y52781200D01*
X34693728Y54267305D02*
X34693728Y54104672D01*
X34401928Y54559105D02*
X34693728Y54267305D01*
%TO.N,/SD_CS*%
X35109035Y55266212D02*
X36322000Y54053247D01*
X36322000Y54053247D02*
X36322000Y53873400D01*
X36322000Y53873400D02*
X37947600Y52247800D01*
X39305691Y52247800D02*
X39762891Y51790600D01*
X37947600Y52247800D02*
X39305691Y52247800D01*
X45796200Y51790600D02*
X45923200Y51917600D01*
X39762891Y51790600D02*
X45796200Y51790600D01*
%TO.N,/SDO*%
X47749000Y60226200D02*
X51838600Y60226200D01*
X51838600Y60226200D02*
X54533800Y57531000D01*
X47749000Y60226200D02*
X46299000Y60226200D01*
X33058425Y60145248D02*
X33047352Y60145248D01*
X33058425Y60145248D02*
X33058425Y60962627D01*
X33058425Y60962627D02*
X33608386Y61512588D01*
X46299000Y60223400D02*
X47749000Y60223400D01*
X45009812Y61512588D02*
X46299000Y60223400D01*
X33608386Y61512588D02*
X45009812Y61512588D01*
%TO.N,/SCK*%
X47809200Y58166000D02*
X47749000Y58226200D01*
X50520600Y58166000D02*
X47809200Y58166000D01*
X32704872Y59791695D02*
X32704872Y59801928D01*
X32704872Y59791695D02*
X32689705Y59791695D01*
X32232600Y60248800D02*
X32232600Y60706000D01*
X32689705Y59791695D02*
X32232600Y60248800D01*
X46999000Y58223400D02*
X44135400Y61087000D01*
X44135400Y61087000D02*
X33983167Y61087000D01*
X33983167Y61087000D02*
X33883745Y60987578D01*
X47749000Y58223400D02*
X46999000Y58223400D01*
%TO.N,/SDI*%
X32351318Y59438142D02*
X32332058Y59438142D01*
X47749000Y62223400D02*
X46043600Y62223400D01*
X31470600Y60318860D02*
X32351318Y59438142D01*
X31470600Y60833000D02*
X31470600Y60318860D01*
X32550199Y61912599D02*
X31470600Y60833000D01*
X45732799Y61912599D02*
X32550199Y61912599D01*
X46043600Y62223400D02*
X45732799Y61912599D01*
X47990810Y61984390D02*
X50317400Y61984390D01*
X47749000Y62226200D02*
X47990810Y61984390D01*
%TO.N,/PA02*%
X35636200Y54031940D02*
X34755482Y54912658D01*
X35636200Y53822600D02*
X35636200Y54031940D01*
X37668200Y51790600D02*
X35636200Y53822600D01*
X38912800Y51790600D02*
X37668200Y51790600D01*
X40335200Y50368200D02*
X38912800Y51790600D01*
X40970200Y50368200D02*
X40335200Y50368200D01*
%TO.N,Net-(D3-Pad4)*%
X68636600Y59746600D02*
X68636600Y60632400D01*
D25*
X68642200Y58774800D02*
X68541400Y58674000D01*
X68642200Y60632400D02*
X68642200Y58774800D01*
D22*
%TO.N,Net-(J2-Pad1)*%
X66199000Y50226200D02*
X66596900Y50624100D01*
X66596900Y53439700D02*
X70408800Y57251600D01*
X63949000Y50226200D02*
X66199000Y50226200D01*
X66596900Y50624100D02*
X66596900Y53439700D01*
X70408800Y57251600D02*
X74289400Y57251600D01*
%TD*%
D27*
%TO.N,GND*%
X34937000Y64909850D02*
X35031250Y64815600D01*
X36036000Y64815600D01*
X36036000Y64835600D01*
X36042000Y64835600D01*
X36042000Y64815600D01*
X37046750Y64815600D01*
X37141000Y64909850D01*
X37141809Y65088400D01*
X37454391Y65088400D01*
X37455200Y64909850D01*
X37549450Y64815600D01*
X38554200Y64815600D01*
X38554200Y64835600D01*
X38560200Y64835600D01*
X38560200Y64815600D01*
X39564950Y64815600D01*
X39659200Y64909850D01*
X39660009Y65088400D01*
X44254391Y65088400D01*
X44255200Y64909850D01*
X44349450Y64815600D01*
X45354200Y64815600D01*
X45354200Y64835600D01*
X45360200Y64835600D01*
X45360200Y64815600D01*
X45380200Y64815600D01*
X45380200Y64809600D01*
X45360200Y64809600D01*
X45360200Y64029850D01*
X45454450Y63935600D01*
X46082200Y63933776D01*
X46121146Y63937612D01*
X46120176Y63723400D01*
X46127455Y63649495D01*
X46149012Y63578430D01*
X46184019Y63512937D01*
X46231131Y63455531D01*
X46288537Y63408419D01*
X46354030Y63373412D01*
X46425095Y63351855D01*
X46499000Y63344576D01*
X47651750Y63346400D01*
X47746000Y63440650D01*
X47746000Y64220400D01*
X47752000Y64220400D01*
X47752000Y63440650D01*
X47846250Y63346400D01*
X48999000Y63344576D01*
X49072905Y63351855D01*
X49143970Y63373412D01*
X49209463Y63408419D01*
X49266869Y63455531D01*
X49313981Y63512937D01*
X49348988Y63578430D01*
X49370545Y63649495D01*
X49377824Y63723400D01*
X49376000Y64126150D01*
X49281750Y64220400D01*
X47752000Y64220400D01*
X47746000Y64220400D01*
X47726000Y64220400D01*
X47726000Y64226400D01*
X47746000Y64226400D01*
X47746000Y64246400D01*
X47752000Y64246400D01*
X47752000Y64226400D01*
X49281750Y64226400D01*
X49376000Y64320650D01*
X49377824Y64723400D01*
X49370545Y64797305D01*
X49348988Y64868370D01*
X49313981Y64933863D01*
X49266869Y64991269D01*
X49209463Y65038381D01*
X49143970Y65073388D01*
X49094481Y65088400D01*
X62589740Y65088400D01*
X62552492Y65077101D01*
X62486304Y65041722D01*
X62428289Y64994111D01*
X62380678Y64936096D01*
X62345299Y64869908D01*
X62323513Y64798089D01*
X62316157Y64723400D01*
X62316157Y63723400D01*
X62323513Y63648711D01*
X62345299Y63576892D01*
X62380678Y63510704D01*
X62428289Y63452689D01*
X62486304Y63405078D01*
X62552492Y63369699D01*
X62624311Y63347913D01*
X62699000Y63340557D01*
X65199000Y63340557D01*
X65273689Y63347913D01*
X65345508Y63369699D01*
X65411696Y63405078D01*
X65469711Y63452689D01*
X65517322Y63510704D01*
X65552701Y63576892D01*
X65574487Y63648711D01*
X65581843Y63723400D01*
X65581843Y64723400D01*
X65574487Y64798089D01*
X65552701Y64869908D01*
X65517322Y64936096D01*
X65469711Y64994111D01*
X65411696Y65041722D01*
X65345508Y65077101D01*
X65308260Y65088400D01*
X66118573Y65088400D01*
X66113499Y65078908D01*
X66091713Y65007089D01*
X66084357Y64932400D01*
X66084357Y63332400D01*
X66091713Y63257711D01*
X66113499Y63185892D01*
X66148878Y63119704D01*
X66196489Y63061689D01*
X66254504Y63014078D01*
X66320692Y62978699D01*
X66392511Y62956913D01*
X66467200Y62949557D01*
X67317200Y62949557D01*
X67391889Y62956913D01*
X67463708Y62978699D01*
X67529896Y63014078D01*
X67587911Y63061689D01*
X67635522Y63119704D01*
X67670901Y63185892D01*
X67692687Y63257711D01*
X67700043Y63332400D01*
X67700043Y64932400D01*
X67692687Y65007089D01*
X67670901Y65078908D01*
X67665827Y65088400D01*
X67868573Y65088400D01*
X67863499Y65078908D01*
X67841713Y65007089D01*
X67834357Y64932400D01*
X67834357Y63332400D01*
X67841713Y63257711D01*
X67863499Y63185892D01*
X67898878Y63119704D01*
X67946489Y63061689D01*
X68004504Y63014078D01*
X68070692Y62978699D01*
X68141832Y62957119D01*
X68124288Y62914764D01*
X68101000Y62797686D01*
X68101000Y62678314D01*
X68124288Y62561236D01*
X68169970Y62450951D01*
X68236289Y62351698D01*
X68320698Y62267289D01*
X68419951Y62200970D01*
X68530236Y62155288D01*
X68647314Y62132000D01*
X68766686Y62132000D01*
X68883764Y62155288D01*
X68994049Y62200970D01*
X69093302Y62267289D01*
X69177711Y62351698D01*
X69244030Y62450951D01*
X69289712Y62561236D01*
X69313000Y62678314D01*
X69313000Y62797686D01*
X69289712Y62914764D01*
X69254252Y63000371D01*
X69279896Y63014078D01*
X69337911Y63061689D01*
X69385522Y63119704D01*
X69420901Y63185892D01*
X69442687Y63257711D01*
X69450043Y63332400D01*
X69450043Y64932400D01*
X69442687Y65007089D01*
X69420901Y65078908D01*
X69415827Y65088400D01*
X70039946Y65088400D01*
X70160732Y65076557D01*
X70257825Y65047243D01*
X70347370Y64999631D01*
X70425968Y64935528D01*
X70490612Y64857386D01*
X70538848Y64768176D01*
X70568839Y64671290D01*
X70581451Y64551295D01*
X70581466Y64546949D01*
X70583259Y64529296D01*
X70583135Y64511561D01*
X70583688Y64505919D01*
X70637578Y63993194D01*
X70644983Y63957121D01*
X70651873Y63921003D01*
X70653511Y63915576D01*
X70805963Y63423082D01*
X70820240Y63389119D01*
X70834008Y63355041D01*
X70836664Y63350045D01*
X70836668Y63350036D01*
X70836673Y63350029D01*
X71081877Y62896533D01*
X71102453Y62866027D01*
X71122603Y62835235D01*
X71126180Y62830849D01*
X71126185Y62830842D01*
X71126191Y62830836D01*
X71454810Y62433604D01*
X71480942Y62407653D01*
X71506666Y62381385D01*
X71511028Y62377776D01*
X71511034Y62377770D01*
X71511041Y62377766D01*
X71910557Y62051928D01*
X71941199Y62031570D01*
X71971569Y62010775D01*
X71976555Y62008078D01*
X72431758Y61766043D01*
X72465798Y61752012D01*
X72499602Y61737524D01*
X72505010Y61735849D01*
X72505016Y61735847D01*
X72505022Y61735846D01*
X72998565Y61586837D01*
X73034720Y61579678D01*
X73070654Y61572040D01*
X73076283Y61571448D01*
X73076293Y61571446D01*
X73076302Y61571446D01*
X73589382Y61521138D01*
X73609059Y61519200D01*
X78074400Y61519200D01*
X78074400Y60669418D01*
X77939288Y60739245D01*
X76940843Y59740800D01*
X77939288Y58742355D01*
X78074400Y58812183D01*
X78074401Y55589417D01*
X77939288Y55659245D01*
X76940843Y54660800D01*
X77939288Y53662355D01*
X78074401Y53732183D01*
X78074401Y52882400D01*
X73609059Y52882400D01*
X73590273Y52880550D01*
X73573761Y52880665D01*
X73568119Y52880112D01*
X73055394Y52826222D01*
X73019315Y52818816D01*
X72983203Y52811927D01*
X72977778Y52810290D01*
X72977772Y52810288D01*
X72485282Y52657837D01*
X72451319Y52643560D01*
X72417241Y52629792D01*
X72412245Y52627136D01*
X72412236Y52627132D01*
X72412229Y52627127D01*
X71958733Y52381923D01*
X71928227Y52361347D01*
X71897435Y52341197D01*
X71893049Y52337620D01*
X71893042Y52337615D01*
X71893036Y52337609D01*
X71495804Y52008990D01*
X71469869Y51982874D01*
X71443584Y51957133D01*
X71439970Y51952766D01*
X71114128Y51553243D01*
X71093744Y51522563D01*
X71072975Y51492231D01*
X71070281Y51487249D01*
X71070278Y51487245D01*
X71070278Y51487244D01*
X70828242Y51032042D01*
X70814208Y50997993D01*
X70799724Y50964198D01*
X70798047Y50958783D01*
X70649037Y50465235D01*
X70641879Y50429086D01*
X70634240Y50393146D01*
X70633648Y50387517D01*
X70633646Y50387507D01*
X70633646Y50387498D01*
X70583338Y49874419D01*
X70569557Y49733868D01*
X70540243Y49636776D01*
X70492631Y49547230D01*
X70428530Y49468635D01*
X70350385Y49403987D01*
X70261177Y49355753D01*
X70164290Y49325761D01*
X70044780Y49313200D01*
X44678101Y49313200D01*
X44710188Y49373230D01*
X44731745Y49444295D01*
X44739024Y49518200D01*
X44738527Y49723400D01*
X46120176Y49723400D01*
X46127455Y49649495D01*
X46149012Y49578430D01*
X46184019Y49512937D01*
X46231131Y49455531D01*
X46288537Y49408419D01*
X46354030Y49373412D01*
X46425095Y49351855D01*
X46499000Y49344576D01*
X47651750Y49346400D01*
X47746000Y49440650D01*
X47746000Y50220400D01*
X47752000Y50220400D01*
X47752000Y49440650D01*
X47846250Y49346400D01*
X48999000Y49344576D01*
X49072905Y49351855D01*
X49143970Y49373412D01*
X49209463Y49408419D01*
X49266869Y49455531D01*
X49313981Y49512937D01*
X49348988Y49578430D01*
X49370545Y49649495D01*
X49377824Y49723400D01*
X49376000Y50126150D01*
X49281750Y50220400D01*
X47752000Y50220400D01*
X47746000Y50220400D01*
X46216250Y50220400D01*
X46122000Y50126150D01*
X46120176Y49723400D01*
X44738527Y49723400D01*
X44737200Y50270950D01*
X44642950Y50365200D01*
X43513200Y50365200D01*
X43513200Y50345200D01*
X43507200Y50345200D01*
X43507200Y50365200D01*
X42377450Y50365200D01*
X42283200Y50270950D01*
X42281376Y49518200D01*
X42288655Y49444295D01*
X42310212Y49373230D01*
X42342299Y49313200D01*
X41607022Y49313200D01*
X41754917Y49412020D01*
X41926380Y49583483D01*
X42061098Y49785103D01*
X42153893Y50009131D01*
X42201200Y50246957D01*
X42201200Y50489443D01*
X42153893Y50727269D01*
X42061098Y50951297D01*
X41926380Y51152917D01*
X41769697Y51309600D01*
X42293962Y51309600D01*
X42288655Y51292105D01*
X42281376Y51218200D01*
X42283200Y50465450D01*
X42377450Y50371200D01*
X43507200Y50371200D01*
X43507200Y50391200D01*
X43513200Y50391200D01*
X43513200Y50371200D01*
X44642950Y50371200D01*
X44737200Y50465450D01*
X44737825Y50723400D01*
X46120176Y50723400D01*
X46122000Y50320650D01*
X46216250Y50226400D01*
X47746000Y50226400D01*
X47746000Y51006150D01*
X47752000Y51006150D01*
X47752000Y50226400D01*
X49281750Y50226400D01*
X49376000Y50320650D01*
X49377824Y50723400D01*
X62316157Y50723400D01*
X62316157Y49723400D01*
X62323513Y49648711D01*
X62345299Y49576892D01*
X62380678Y49510704D01*
X62428289Y49452689D01*
X62486304Y49405078D01*
X62552492Y49369699D01*
X62624311Y49347913D01*
X62699000Y49340557D01*
X65199000Y49340557D01*
X65246143Y49345200D01*
X66155730Y49345200D01*
X66199000Y49340938D01*
X66242270Y49345200D01*
X66242273Y49345200D01*
X66371706Y49357948D01*
X66537775Y49408325D01*
X66690825Y49490132D01*
X66824975Y49600225D01*
X66852565Y49633844D01*
X67189261Y49970539D01*
X67222875Y49998125D01*
X67332968Y50132275D01*
X67414775Y50285325D01*
X67465152Y50451394D01*
X67477900Y50580827D01*
X67477900Y50580830D01*
X67482162Y50624100D01*
X67477900Y50667370D01*
X67477900Y53074779D01*
X68061233Y53658112D01*
X70858155Y53658112D01*
X70971903Y53438016D01*
X71227456Y53288915D01*
X71507187Y53192536D01*
X71800345Y53152582D01*
X72095664Y53170587D01*
X72381797Y53245860D01*
X72647746Y53375509D01*
X72741297Y53438016D01*
X72855045Y53658112D01*
X75938155Y53658112D01*
X76051903Y53438016D01*
X76307456Y53288915D01*
X76587187Y53192536D01*
X76880345Y53152582D01*
X77175664Y53170587D01*
X77461797Y53245860D01*
X77727746Y53375509D01*
X77821297Y53438016D01*
X77935045Y53658112D01*
X76936600Y54656557D01*
X75938155Y53658112D01*
X72855045Y53658112D01*
X71856600Y54656557D01*
X70858155Y53658112D01*
X68061233Y53658112D01*
X69120176Y54717055D01*
X70348382Y54717055D01*
X70366387Y54421736D01*
X70441660Y54135603D01*
X70571309Y53869654D01*
X70633816Y53776103D01*
X70853912Y53662355D01*
X71852357Y54660800D01*
X71860843Y54660800D01*
X72859288Y53662355D01*
X73079384Y53776103D01*
X73228485Y54031656D01*
X73324864Y54311387D01*
X73364818Y54604545D01*
X73357959Y54717055D01*
X75428382Y54717055D01*
X75446387Y54421736D01*
X75521660Y54135603D01*
X75651309Y53869654D01*
X75713816Y53776103D01*
X75933912Y53662355D01*
X76932357Y54660800D01*
X75933912Y55659245D01*
X75713816Y55545497D01*
X75564715Y55289944D01*
X75468336Y55010213D01*
X75428382Y54717055D01*
X73357959Y54717055D01*
X73346813Y54899864D01*
X73271540Y55185997D01*
X73141891Y55451946D01*
X73079384Y55545497D01*
X72859288Y55659245D01*
X71860843Y54660800D01*
X71852357Y54660800D01*
X70853912Y55659245D01*
X70633816Y55545497D01*
X70484715Y55289944D01*
X70388336Y55010213D01*
X70348382Y54717055D01*
X69120176Y54717055D01*
X70066609Y55663488D01*
X70858155Y55663488D01*
X71856600Y54665043D01*
X72855045Y55663488D01*
X75938155Y55663488D01*
X76936600Y54665043D01*
X77935045Y55663488D01*
X77821297Y55883584D01*
X77565744Y56032685D01*
X77286013Y56129064D01*
X76992855Y56169018D01*
X76697536Y56151013D01*
X76411403Y56075740D01*
X76145454Y55946091D01*
X76051903Y55883584D01*
X75938155Y55663488D01*
X72855045Y55663488D01*
X72741297Y55883584D01*
X72485744Y56032685D01*
X72206013Y56129064D01*
X71912855Y56169018D01*
X71617536Y56151013D01*
X71331403Y56075740D01*
X71065454Y55946091D01*
X70971903Y55883584D01*
X70858155Y55663488D01*
X70066609Y55663488D01*
X70773722Y56370600D01*
X73140071Y56370600D01*
X73226813Y56240781D01*
X73436581Y56031013D01*
X73683241Y55866200D01*
X73957316Y55752675D01*
X74248272Y55694800D01*
X74544928Y55694800D01*
X74835884Y55752675D01*
X75109959Y55866200D01*
X75356619Y56031013D01*
X75566387Y56240781D01*
X75731200Y56487441D01*
X75844725Y56761516D01*
X75902600Y57052472D01*
X75902600Y57349128D01*
X75844725Y57640084D01*
X75731200Y57914159D01*
X75566387Y58160819D01*
X75356619Y58370587D01*
X75109959Y58535400D01*
X74835884Y58648925D01*
X74544928Y58706800D01*
X74248272Y58706800D01*
X73957316Y58648925D01*
X73683241Y58535400D01*
X73436581Y58370587D01*
X73226813Y58160819D01*
X73207958Y58132600D01*
X70903224Y58132600D01*
X70920430Y58158351D01*
X70966112Y58268636D01*
X70989400Y58385714D01*
X70989400Y58505086D01*
X70988788Y58508165D01*
X71227456Y58368915D01*
X71507187Y58272536D01*
X71800345Y58232582D01*
X72095664Y58250587D01*
X72381797Y58325860D01*
X72647746Y58455509D01*
X72741297Y58518016D01*
X72855045Y58738112D01*
X75938155Y58738112D01*
X76051903Y58518016D01*
X76307456Y58368915D01*
X76587187Y58272536D01*
X76880345Y58232582D01*
X77175664Y58250587D01*
X77461797Y58325860D01*
X77727746Y58455509D01*
X77821297Y58518016D01*
X77935045Y58738112D01*
X76936600Y59736557D01*
X75938155Y58738112D01*
X72855045Y58738112D01*
X71856600Y59736557D01*
X71842458Y59722415D01*
X71838215Y59726658D01*
X71852357Y59740800D01*
X71860843Y59740800D01*
X72859288Y58742355D01*
X73079384Y58856103D01*
X73228485Y59111656D01*
X73324864Y59391387D01*
X73364818Y59684545D01*
X73357959Y59797055D01*
X75428382Y59797055D01*
X75446387Y59501736D01*
X75521660Y59215603D01*
X75651309Y58949654D01*
X75713816Y58856103D01*
X75933912Y58742355D01*
X76932357Y59740800D01*
X75933912Y60739245D01*
X75713816Y60625497D01*
X75564715Y60369944D01*
X75468336Y60090213D01*
X75428382Y59797055D01*
X73357959Y59797055D01*
X73346813Y59979864D01*
X73271540Y60265997D01*
X73141891Y60531946D01*
X73079384Y60625497D01*
X72859288Y60739245D01*
X71860843Y59740800D01*
X71852357Y59740800D01*
X70853912Y60739245D01*
X70633816Y60625497D01*
X70484715Y60369944D01*
X70388336Y60090213D01*
X70348382Y59797055D01*
X70366387Y59501736D01*
X70441660Y59215603D01*
X70530151Y59034082D01*
X70443086Y59051400D01*
X70323714Y59051400D01*
X70206636Y59028112D01*
X70096351Y58982430D01*
X69997098Y58916111D01*
X69912689Y58831702D01*
X69846370Y58732449D01*
X69800688Y58622164D01*
X69777400Y58505086D01*
X69777400Y58385714D01*
X69800688Y58268636D01*
X69846370Y58158351D01*
X69912689Y58059098D01*
X69960731Y58011056D01*
X69916974Y57987668D01*
X69871701Y57950513D01*
X69782825Y57877575D01*
X69755239Y57843961D01*
X66004540Y54093261D01*
X65970926Y54065675D01*
X65941263Y54029530D01*
X65860832Y53931525D01*
X65779025Y53778474D01*
X65750189Y53683412D01*
X65732393Y53624746D01*
X65728649Y53612405D01*
X65711638Y53439700D01*
X65715901Y53396420D01*
X65715900Y51107200D01*
X63905727Y51107200D01*
X63896010Y51106243D01*
X62699000Y51106243D01*
X62624311Y51098887D01*
X62552492Y51077101D01*
X62486304Y51041722D01*
X62428289Y50994111D01*
X62380678Y50936096D01*
X62345299Y50869908D01*
X62323513Y50798089D01*
X62316157Y50723400D01*
X49377824Y50723400D01*
X49370545Y50797305D01*
X49348988Y50868370D01*
X49313981Y50933863D01*
X49266869Y50991269D01*
X49209463Y51038381D01*
X49143970Y51073388D01*
X49072905Y51094945D01*
X48999000Y51102224D01*
X47846250Y51100400D01*
X47752000Y51006150D01*
X47746000Y51006150D01*
X47651750Y51100400D01*
X46499000Y51102224D01*
X46425095Y51094945D01*
X46354030Y51073388D01*
X46288537Y51038381D01*
X46231131Y50991269D01*
X46184019Y50933863D01*
X46149012Y50868370D01*
X46127455Y50797305D01*
X46120176Y50723400D01*
X44737825Y50723400D01*
X44739024Y51218200D01*
X44731745Y51292105D01*
X44726438Y51309600D01*
X45772574Y51309600D01*
X45796200Y51307273D01*
X45819826Y51309600D01*
X45840133Y51311600D01*
X45855771Y51313140D01*
X45863514Y51311600D01*
X45982886Y51311600D01*
X46099964Y51334888D01*
X46210249Y51380570D01*
X46268632Y51419581D01*
X46286304Y51405078D01*
X46352492Y51369699D01*
X46424311Y51347913D01*
X46499000Y51340557D01*
X48999000Y51340557D01*
X49073689Y51347913D01*
X49145508Y51369699D01*
X49211696Y51405078D01*
X49269711Y51452689D01*
X49317322Y51510704D01*
X49352701Y51576892D01*
X49374487Y51648711D01*
X49381843Y51723400D01*
X62320176Y51723400D01*
X62327455Y51649495D01*
X62349012Y51578430D01*
X62384019Y51512937D01*
X62431131Y51455531D01*
X62488537Y51408419D01*
X62554030Y51373412D01*
X62625095Y51351855D01*
X62699000Y51344576D01*
X63851750Y51346400D01*
X63946000Y51440650D01*
X63946000Y52220400D01*
X63952000Y52220400D01*
X63952000Y51440650D01*
X64046250Y51346400D01*
X65199000Y51344576D01*
X65272905Y51351855D01*
X65343970Y51373412D01*
X65409463Y51408419D01*
X65466869Y51455531D01*
X65513981Y51512937D01*
X65548988Y51578430D01*
X65570545Y51649495D01*
X65577824Y51723400D01*
X65576000Y52126150D01*
X65481750Y52220400D01*
X63952000Y52220400D01*
X63946000Y52220400D01*
X62416250Y52220400D01*
X62322000Y52126150D01*
X62320176Y51723400D01*
X49381843Y51723400D01*
X49381843Y52723400D01*
X62320176Y52723400D01*
X62322000Y52320650D01*
X62416250Y52226400D01*
X63946000Y52226400D01*
X63946000Y53006150D01*
X63952000Y53006150D01*
X63952000Y52226400D01*
X65481750Y52226400D01*
X65576000Y52320650D01*
X65577824Y52723400D01*
X65570545Y52797305D01*
X65548988Y52868370D01*
X65513981Y52933863D01*
X65466869Y52991269D01*
X65409463Y53038381D01*
X65343970Y53073388D01*
X65272905Y53094945D01*
X65199000Y53102224D01*
X64046250Y53100400D01*
X63952000Y53006150D01*
X63946000Y53006150D01*
X63851750Y53100400D01*
X62699000Y53102224D01*
X62625095Y53094945D01*
X62554030Y53073388D01*
X62488537Y53038381D01*
X62431131Y52991269D01*
X62384019Y52933863D01*
X62349012Y52868370D01*
X62327455Y52797305D01*
X62320176Y52723400D01*
X49381843Y52723400D01*
X49374487Y52798089D01*
X49352701Y52869908D01*
X49317322Y52936096D01*
X49269711Y52994111D01*
X49211696Y53041722D01*
X49145508Y53077101D01*
X49073689Y53098887D01*
X48999000Y53106243D01*
X46499000Y53106243D01*
X46424311Y53098887D01*
X46352492Y53077101D01*
X46323843Y53061787D01*
X46323843Y53172200D01*
X46312644Y53285907D01*
X46279477Y53395244D01*
X46264778Y53422744D01*
X46286304Y53405078D01*
X46352492Y53369699D01*
X46424311Y53347913D01*
X46499000Y53340557D01*
X48999000Y53340557D01*
X49073689Y53347913D01*
X49145508Y53369699D01*
X49211696Y53405078D01*
X49269711Y53452689D01*
X49317322Y53510704D01*
X49352701Y53576892D01*
X49374487Y53648711D01*
X49381843Y53723400D01*
X49381843Y54723400D01*
X49374487Y54798089D01*
X49352701Y54869908D01*
X49317322Y54936096D01*
X49269711Y54994111D01*
X49211696Y55041722D01*
X49145508Y55077101D01*
X49073689Y55098887D01*
X48999000Y55106243D01*
X46499000Y55106243D01*
X46424311Y55098887D01*
X46352492Y55077101D01*
X46286304Y55041722D01*
X46281693Y55037938D01*
X46279477Y55045244D01*
X46225616Y55146010D01*
X46153132Y55234332D01*
X46064810Y55306816D01*
X45964044Y55360677D01*
X45953390Y55363909D01*
X45953390Y55886322D01*
X45957236Y55881636D01*
X46030478Y55821528D01*
X46069374Y55800738D01*
X46114038Y55776864D01*
X46116157Y55776221D01*
X46116157Y55723400D01*
X46123513Y55648711D01*
X46145299Y55576892D01*
X46180678Y55510704D01*
X46228289Y55452689D01*
X46286304Y55405078D01*
X46352492Y55369699D01*
X46424311Y55347913D01*
X46499000Y55340557D01*
X48999000Y55340557D01*
X49073689Y55347913D01*
X49145508Y55369699D01*
X49211696Y55405078D01*
X49269711Y55452689D01*
X49317322Y55510704D01*
X49352701Y55576892D01*
X49374487Y55648711D01*
X49381843Y55723400D01*
X49381843Y56159400D01*
X52299547Y56159400D01*
X52311730Y56035702D01*
X52347811Y55916758D01*
X52406404Y55807139D01*
X52485257Y55711057D01*
X52581339Y55632204D01*
X52690958Y55573611D01*
X52809902Y55537530D01*
X52902602Y55528400D01*
X55658453Y55528400D01*
X56031770Y55155082D01*
X56033888Y55144436D01*
X56079570Y55034151D01*
X56145889Y54934898D01*
X56230298Y54850489D01*
X56329551Y54784170D01*
X56439836Y54738488D01*
X56556914Y54715200D01*
X56676286Y54715200D01*
X56717510Y54723400D01*
X62316157Y54723400D01*
X62316157Y53723400D01*
X62323513Y53648711D01*
X62345299Y53576892D01*
X62380678Y53510704D01*
X62428289Y53452689D01*
X62486304Y53405078D01*
X62552492Y53369699D01*
X62624311Y53347913D01*
X62699000Y53340557D01*
X65199000Y53340557D01*
X65273689Y53347913D01*
X65345508Y53369699D01*
X65411696Y53405078D01*
X65469711Y53452689D01*
X65517322Y53510704D01*
X65552701Y53576892D01*
X65574487Y53648711D01*
X65581843Y53723400D01*
X65581843Y54723400D01*
X65574487Y54798089D01*
X65552701Y54869908D01*
X65517322Y54936096D01*
X65469711Y54994111D01*
X65411696Y55041722D01*
X65345508Y55077101D01*
X65273689Y55098887D01*
X65199000Y55106243D01*
X62699000Y55106243D01*
X62624311Y55098887D01*
X62552492Y55077101D01*
X62486304Y55041722D01*
X62428289Y54994111D01*
X62380678Y54936096D01*
X62345299Y54869908D01*
X62323513Y54798089D01*
X62316157Y54723400D01*
X56717510Y54723400D01*
X56793364Y54738488D01*
X56903649Y54784170D01*
X57002902Y54850489D01*
X57087311Y54934898D01*
X57153630Y55034151D01*
X57199312Y55144436D01*
X57222600Y55261514D01*
X57222600Y55380886D01*
X57199312Y55497964D01*
X57186705Y55528400D01*
X59074810Y55528400D01*
X59105800Y55525348D01*
X59136790Y55528400D01*
X59136798Y55528400D01*
X59229498Y55537530D01*
X59348442Y55573611D01*
X59458061Y55632204D01*
X59554143Y55711057D01*
X59573905Y55735137D01*
X60562168Y56723400D01*
X62316157Y56723400D01*
X62316157Y55723400D01*
X62323513Y55648711D01*
X62345299Y55576892D01*
X62380678Y55510704D01*
X62428289Y55452689D01*
X62486304Y55405078D01*
X62552492Y55369699D01*
X62624311Y55347913D01*
X62699000Y55340557D01*
X65199000Y55340557D01*
X65273689Y55347913D01*
X65345508Y55369699D01*
X65411696Y55405078D01*
X65469711Y55452689D01*
X65517322Y55510704D01*
X65552701Y55576892D01*
X65574487Y55648711D01*
X65581843Y55723400D01*
X65581843Y56723400D01*
X65574487Y56798089D01*
X65552701Y56869908D01*
X65517322Y56936096D01*
X65469711Y56994111D01*
X65411696Y57041722D01*
X65345508Y57077101D01*
X65273689Y57098887D01*
X65199000Y57106243D01*
X62699000Y57106243D01*
X62624311Y57098887D01*
X62552492Y57077101D01*
X62486304Y57041722D01*
X62428289Y56994111D01*
X62380678Y56936096D01*
X62345299Y56869908D01*
X62323513Y56798089D01*
X62316157Y56723400D01*
X60562168Y56723400D01*
X61433969Y57595200D01*
X62339745Y57595200D01*
X62345299Y57576892D01*
X62380678Y57510704D01*
X62428289Y57452689D01*
X62486304Y57405078D01*
X62552492Y57369699D01*
X62624311Y57347913D01*
X62699000Y57340557D01*
X65199000Y57340557D01*
X65273689Y57347913D01*
X65345508Y57369699D01*
X65370322Y57382962D01*
X65381088Y57328836D01*
X65426770Y57218551D01*
X65493089Y57119298D01*
X65577498Y57034889D01*
X65676751Y56968570D01*
X65787036Y56922888D01*
X65904114Y56899600D01*
X66023486Y56899600D01*
X66140564Y56922888D01*
X66250849Y56968570D01*
X66350102Y57034889D01*
X66434511Y57119298D01*
X66500830Y57218551D01*
X66546512Y57328836D01*
X66569800Y57445914D01*
X66569800Y57565286D01*
X66546512Y57682364D01*
X66500830Y57792649D01*
X66448323Y57871231D01*
X66468356Y57860523D01*
X66577693Y57827356D01*
X66691400Y57816157D01*
X67091400Y57816157D01*
X67205107Y57827356D01*
X67314444Y57860523D01*
X67415210Y57914384D01*
X67503532Y57986868D01*
X67576016Y58075190D01*
X67629877Y58175956D01*
X67663044Y58285293D01*
X67674243Y58399000D01*
X67674243Y58949000D01*
X67758557Y58949000D01*
X67758557Y58399000D01*
X67769756Y58285293D01*
X67802923Y58175956D01*
X67856784Y58075190D01*
X67929268Y57986868D01*
X68017590Y57914384D01*
X68118356Y57860523D01*
X68227693Y57827356D01*
X68341400Y57816157D01*
X68741400Y57816157D01*
X68855107Y57827356D01*
X68964444Y57860523D01*
X69065210Y57914384D01*
X69153532Y57986868D01*
X69226016Y58075190D01*
X69279877Y58175956D01*
X69313044Y58285293D01*
X69324243Y58399000D01*
X69324243Y58949000D01*
X69313044Y59062707D01*
X69279877Y59172044D01*
X69226016Y59272810D01*
X69173200Y59337166D01*
X69173200Y59466411D01*
X69213708Y59478699D01*
X69279896Y59514078D01*
X69337911Y59561689D01*
X69385522Y59619704D01*
X69420901Y59685892D01*
X69442687Y59757711D01*
X69450043Y59832400D01*
X69450043Y60743488D01*
X70858155Y60743488D01*
X71856600Y59745043D01*
X72855045Y60743488D01*
X75938155Y60743488D01*
X76936600Y59745043D01*
X77935045Y60743488D01*
X77821297Y60963584D01*
X77565744Y61112685D01*
X77286013Y61209064D01*
X76992855Y61249018D01*
X76697536Y61231013D01*
X76411403Y61155740D01*
X76145454Y61026091D01*
X76051903Y60963584D01*
X75938155Y60743488D01*
X72855045Y60743488D01*
X72741297Y60963584D01*
X72485744Y61112685D01*
X72206013Y61209064D01*
X71912855Y61249018D01*
X71617536Y61231013D01*
X71331403Y61155740D01*
X71065454Y61026091D01*
X70971903Y60963584D01*
X70858155Y60743488D01*
X69450043Y60743488D01*
X69450043Y61432400D01*
X69442687Y61507089D01*
X69420901Y61578908D01*
X69385522Y61645096D01*
X69337911Y61703111D01*
X69279896Y61750722D01*
X69213708Y61786101D01*
X69141889Y61807887D01*
X69067200Y61815243D01*
X68217200Y61815243D01*
X68142511Y61807887D01*
X68070692Y61786101D01*
X68004504Y61750722D01*
X67946489Y61703111D01*
X67898878Y61645096D01*
X67863499Y61578908D01*
X67841713Y61507089D01*
X67834357Y61432400D01*
X67834357Y59832400D01*
X67841713Y59757711D01*
X67863499Y59685892D01*
X67898878Y59619704D01*
X67946489Y59561689D01*
X68004504Y59514078D01*
X68070692Y59478699D01*
X68090623Y59472653D01*
X68017590Y59433616D01*
X67929268Y59361132D01*
X67856784Y59272810D01*
X67802923Y59172044D01*
X67769756Y59062707D01*
X67758557Y58949000D01*
X67674243Y58949000D01*
X67663044Y59062707D01*
X67629877Y59172044D01*
X67576016Y59272810D01*
X67503532Y59361132D01*
X67415210Y59433616D01*
X67368428Y59458622D01*
X67391105Y59460855D01*
X67462170Y59482412D01*
X67527663Y59517419D01*
X67585069Y59564531D01*
X67632181Y59621937D01*
X67667188Y59687430D01*
X67688745Y59758495D01*
X67696024Y59832400D01*
X67694200Y60535150D01*
X67599950Y60629400D01*
X66895200Y60629400D01*
X66895200Y60609400D01*
X66889200Y60609400D01*
X66889200Y60629400D01*
X66869200Y60629400D01*
X66869200Y60635400D01*
X66889200Y60635400D01*
X66889200Y61715150D01*
X66895200Y61715150D01*
X66895200Y60635400D01*
X67599950Y60635400D01*
X67694200Y60729650D01*
X67696024Y61432400D01*
X67688745Y61506305D01*
X67667188Y61577370D01*
X67632181Y61642863D01*
X67585069Y61700269D01*
X67527663Y61747381D01*
X67462170Y61782388D01*
X67391105Y61803945D01*
X67317200Y61811224D01*
X66989450Y61809400D01*
X66895200Y61715150D01*
X66889200Y61715150D01*
X66794950Y61809400D01*
X66467200Y61811224D01*
X66393295Y61803945D01*
X66322230Y61782388D01*
X66256737Y61747381D01*
X66199331Y61700269D01*
X66152219Y61642863D01*
X66117212Y61577370D01*
X66095655Y61506305D01*
X66088376Y61432400D01*
X66089360Y61053279D01*
X65605232Y61537406D01*
X65590166Y61555764D01*
X65555037Y61584593D01*
X65574487Y61648711D01*
X65581843Y61723400D01*
X65581843Y62723400D01*
X65574487Y62798089D01*
X65552701Y62869908D01*
X65517322Y62936096D01*
X65469711Y62994111D01*
X65411696Y63041722D01*
X65345508Y63077101D01*
X65273689Y63098887D01*
X65199000Y63106243D01*
X62699000Y63106243D01*
X62624311Y63098887D01*
X62552492Y63077101D01*
X62486304Y63041722D01*
X62428289Y62994111D01*
X62380678Y62936096D01*
X62345299Y62869908D01*
X62323513Y62798089D01*
X62316157Y62723400D01*
X62316157Y61820000D01*
X62297314Y61820000D01*
X62180236Y61796712D01*
X62069951Y61751030D01*
X61970698Y61684711D01*
X61886289Y61600302D01*
X61819970Y61501049D01*
X61774288Y61390764D01*
X61751000Y61273686D01*
X61751000Y61154314D01*
X61774288Y61037236D01*
X61819970Y60926951D01*
X61864806Y60859850D01*
X61850036Y60856912D01*
X61739751Y60811230D01*
X61640498Y60744911D01*
X61556089Y60660502D01*
X61489770Y60561249D01*
X61444088Y60450964D01*
X61420800Y60333886D01*
X61420800Y60214514D01*
X61444088Y60097436D01*
X61489770Y59987151D01*
X61556089Y59887898D01*
X61640498Y59803489D01*
X61739751Y59737170D01*
X61850036Y59691488D01*
X61967114Y59668200D01*
X62086486Y59668200D01*
X62203564Y59691488D01*
X62313849Y59737170D01*
X62316157Y59738712D01*
X62316157Y59723400D01*
X62323513Y59648711D01*
X62345299Y59576892D01*
X62380678Y59510704D01*
X62428289Y59452689D01*
X62486304Y59405078D01*
X62552492Y59369699D01*
X62624311Y59347913D01*
X62699000Y59340557D01*
X65199000Y59340557D01*
X65273689Y59347913D01*
X65345508Y59369699D01*
X65411696Y59405078D01*
X65447802Y59434709D01*
X65462594Y59422570D01*
X66108557Y58776606D01*
X66108557Y58399000D01*
X66119756Y58285293D01*
X66152923Y58175956D01*
X66206784Y58075190D01*
X66224573Y58053514D01*
X66140564Y58088312D01*
X66085783Y58099208D01*
X65618576Y58566415D01*
X65602727Y58585727D01*
X65581843Y58602866D01*
X65581843Y58723400D01*
X65574487Y58798089D01*
X65552701Y58869908D01*
X65517322Y58936096D01*
X65469711Y58994111D01*
X65411696Y59041722D01*
X65345508Y59077101D01*
X65273689Y59098887D01*
X65199000Y59106243D01*
X62699000Y59106243D01*
X62624311Y59098887D01*
X62552492Y59077101D01*
X62486304Y59041722D01*
X62428289Y58994111D01*
X62380678Y58936096D01*
X62345299Y58869908D01*
X62341444Y58857200D01*
X61203598Y58857200D01*
X61172600Y58860253D01*
X61048902Y58848070D01*
X60929958Y58811989D01*
X60820339Y58753396D01*
X60752157Y58697440D01*
X60724257Y58674543D01*
X60704499Y58650468D01*
X58844432Y56790400D01*
X52902602Y56790400D01*
X52809902Y56781270D01*
X52690958Y56745189D01*
X52581339Y56686596D01*
X52485257Y56607743D01*
X52406404Y56511661D01*
X52347811Y56402042D01*
X52311730Y56283098D01*
X52299547Y56159400D01*
X49381843Y56159400D01*
X49381843Y56723400D01*
X49374487Y56798089D01*
X49352701Y56869908D01*
X49317322Y56936096D01*
X49269711Y56994111D01*
X49211696Y57041722D01*
X49145508Y57077101D01*
X49073689Y57098887D01*
X48999000Y57106243D01*
X46499000Y57106243D01*
X46424311Y57098887D01*
X46353400Y57077376D01*
X46353400Y57369424D01*
X46424311Y57347913D01*
X46499000Y57340557D01*
X48999000Y57340557D01*
X49073689Y57347913D01*
X49145508Y57369699D01*
X49211696Y57405078D01*
X49269711Y57452689D01*
X49317322Y57510704D01*
X49352701Y57576892D01*
X49374487Y57648711D01*
X49378061Y57685000D01*
X50149697Y57685000D01*
X50233551Y57628970D01*
X50343836Y57583288D01*
X50460914Y57560000D01*
X50580286Y57560000D01*
X50697364Y57583288D01*
X50807649Y57628970D01*
X50906902Y57695289D01*
X50991311Y57779698D01*
X51057630Y57878951D01*
X51103312Y57989236D01*
X51126600Y58106314D01*
X51126600Y58225686D01*
X51103312Y58342764D01*
X51057630Y58453049D01*
X50991311Y58552302D01*
X50906902Y58636711D01*
X50807649Y58703030D01*
X50697364Y58748712D01*
X50580286Y58772000D01*
X50460914Y58772000D01*
X50343836Y58748712D01*
X50233551Y58703030D01*
X50149697Y58647000D01*
X49381843Y58647000D01*
X49381843Y58723400D01*
X49374487Y58798089D01*
X49352701Y58869908D01*
X49317322Y58936096D01*
X49269711Y58994111D01*
X49211696Y59041722D01*
X49145508Y59077101D01*
X49073689Y59098887D01*
X48999000Y59106243D01*
X46796394Y59106243D01*
X46562080Y59340557D01*
X48999000Y59340557D01*
X49073689Y59347913D01*
X49145508Y59369699D01*
X49211696Y59405078D01*
X49269711Y59452689D01*
X49317322Y59510704D01*
X49352701Y59576892D01*
X49374487Y59648711D01*
X49381843Y59723400D01*
X49381843Y59745200D01*
X51639364Y59745200D01*
X53931413Y57453150D01*
X53951088Y57354236D01*
X53996770Y57243951D01*
X54063089Y57144698D01*
X54147498Y57060289D01*
X54246751Y56993970D01*
X54357036Y56948288D01*
X54474114Y56925000D01*
X54593486Y56925000D01*
X54710564Y56948288D01*
X54820849Y56993970D01*
X54920102Y57060289D01*
X55004511Y57144698D01*
X55070830Y57243951D01*
X55116512Y57354236D01*
X55139800Y57471314D01*
X55139800Y57590686D01*
X55116512Y57707764D01*
X55070830Y57818049D01*
X55004511Y57917302D01*
X54920102Y58001711D01*
X54820849Y58068030D01*
X54710564Y58113712D01*
X54611650Y58133387D01*
X52195430Y60549606D01*
X52180364Y60567964D01*
X52107122Y60628072D01*
X52023561Y60672736D01*
X51932892Y60700240D01*
X51862226Y60707200D01*
X51838600Y60709527D01*
X51814974Y60707200D01*
X49381843Y60707200D01*
X49381843Y60723400D01*
X49374487Y60798089D01*
X49352701Y60869908D01*
X49317322Y60936096D01*
X49269711Y60994111D01*
X49211696Y61041722D01*
X49145508Y61077101D01*
X49073689Y61098887D01*
X48999000Y61106243D01*
X46499000Y61106243D01*
X46424311Y61098887D01*
X46352492Y61077101D01*
X46286304Y61041722D01*
X46228289Y60994111D01*
X46219381Y60983256D01*
X45769727Y61432909D01*
X45771168Y61433051D01*
X45827091Y61438559D01*
X45844447Y61443824D01*
X45917760Y61466063D01*
X46001321Y61510727D01*
X46074563Y61570835D01*
X46089629Y61589193D01*
X46129479Y61629043D01*
X46145299Y61576892D01*
X46180678Y61510704D01*
X46228289Y61452689D01*
X46286304Y61405078D01*
X46352492Y61369699D01*
X46424311Y61347913D01*
X46499000Y61340557D01*
X48999000Y61340557D01*
X49073689Y61347913D01*
X49145508Y61369699D01*
X49211696Y61405078D01*
X49269711Y61452689D01*
X49311320Y61503390D01*
X49946497Y61503390D01*
X50030351Y61447360D01*
X50140636Y61401678D01*
X50257714Y61378390D01*
X50377086Y61378390D01*
X50494164Y61401678D01*
X50604449Y61447360D01*
X50703702Y61513679D01*
X50788111Y61598088D01*
X50854430Y61697341D01*
X50900112Y61807626D01*
X50923400Y61924704D01*
X50923400Y62044076D01*
X50900112Y62161154D01*
X50854430Y62271439D01*
X50788111Y62370692D01*
X50703702Y62455101D01*
X50604449Y62521420D01*
X50494164Y62567102D01*
X50377086Y62590390D01*
X50257714Y62590390D01*
X50140636Y62567102D01*
X50030351Y62521420D01*
X49946497Y62465390D01*
X49381843Y62465390D01*
X49381843Y62723400D01*
X49374487Y62798089D01*
X49352701Y62869908D01*
X49317322Y62936096D01*
X49269711Y62994111D01*
X49211696Y63041722D01*
X49145508Y63077101D01*
X49073689Y63098887D01*
X48999000Y63106243D01*
X46499000Y63106243D01*
X46424311Y63098887D01*
X46352492Y63077101D01*
X46286304Y63041722D01*
X46228289Y62994111D01*
X46180678Y62936096D01*
X46145299Y62869908D01*
X46123513Y62798089D01*
X46116157Y62723400D01*
X46116157Y62704400D01*
X46067226Y62704400D01*
X46043600Y62706727D01*
X45949307Y62697440D01*
X45929703Y62691493D01*
X45858639Y62669936D01*
X45775078Y62625272D01*
X45701836Y62565164D01*
X45686770Y62546806D01*
X45533563Y62393599D01*
X44885204Y62393599D01*
X44884200Y62615350D01*
X44789950Y62709600D01*
X44060200Y62709600D01*
X44060200Y62689600D01*
X44054200Y62689600D01*
X44054200Y62709600D01*
X43324450Y62709600D01*
X43230200Y62615350D01*
X43229196Y62393599D01*
X40690043Y62393599D01*
X40690043Y63139603D01*
X40730278Y63131600D01*
X40884122Y63131600D01*
X41035009Y63161613D01*
X41177142Y63220487D01*
X41305059Y63305958D01*
X41413842Y63414741D01*
X41499313Y63542658D01*
X41558187Y63684791D01*
X41588200Y63835678D01*
X41588200Y63989522D01*
X42326200Y63989522D01*
X42326200Y63835678D01*
X42356213Y63684791D01*
X42415087Y63542658D01*
X42500558Y63414741D01*
X42609341Y63305958D01*
X42737258Y63220487D01*
X42879391Y63161613D01*
X43030278Y63131600D01*
X43184122Y63131600D01*
X43228703Y63140468D01*
X43230200Y62809850D01*
X43324450Y62715600D01*
X44054200Y62715600D01*
X44054200Y63495350D01*
X44060200Y63495350D01*
X44060200Y62715600D01*
X44789950Y62715600D01*
X44884200Y62809850D01*
X44886024Y63212600D01*
X44878745Y63286505D01*
X44857188Y63357570D01*
X44822181Y63423063D01*
X44775069Y63480469D01*
X44717663Y63527581D01*
X44652170Y63562588D01*
X44581105Y63584145D01*
X44507200Y63591424D01*
X44154450Y63589600D01*
X44060200Y63495350D01*
X44054200Y63495350D01*
X43959950Y63589600D01*
X43819059Y63590329D01*
X43858187Y63684791D01*
X43888200Y63835678D01*
X43888200Y63989522D01*
X43858187Y64140409D01*
X43799313Y64282542D01*
X43779229Y64312600D01*
X44253376Y64312600D01*
X44260655Y64238695D01*
X44282212Y64167630D01*
X44317219Y64102137D01*
X44364331Y64044731D01*
X44421737Y63997619D01*
X44487230Y63962612D01*
X44558295Y63941055D01*
X44632200Y63933776D01*
X45259950Y63935600D01*
X45354200Y64029850D01*
X45354200Y64809600D01*
X44349450Y64809600D01*
X44255200Y64715350D01*
X44253376Y64312600D01*
X43779229Y64312600D01*
X43713842Y64410459D01*
X43605059Y64519242D01*
X43477142Y64604713D01*
X43335009Y64663587D01*
X43184122Y64693600D01*
X43030278Y64693600D01*
X42879391Y64663587D01*
X42737258Y64604713D01*
X42609341Y64519242D01*
X42500558Y64410459D01*
X42415087Y64282542D01*
X42356213Y64140409D01*
X42326200Y63989522D01*
X41588200Y63989522D01*
X41558187Y64140409D01*
X41499313Y64282542D01*
X41413842Y64410459D01*
X41305059Y64519242D01*
X41177142Y64604713D01*
X41035009Y64663587D01*
X40884122Y64693600D01*
X40730278Y64693600D01*
X40579391Y64663587D01*
X40437258Y64604713D01*
X40309341Y64519242D01*
X40200558Y64410459D01*
X40115087Y64282542D01*
X40056213Y64140409D01*
X40026200Y63989522D01*
X40026200Y63835678D01*
X40056213Y63684791D01*
X40093223Y63595443D01*
X39407200Y63595443D01*
X39332511Y63588087D01*
X39260692Y63566301D01*
X39194504Y63530922D01*
X39136489Y63483311D01*
X39088878Y63425296D01*
X39053499Y63359108D01*
X39031713Y63287289D01*
X39027489Y63244400D01*
X38809409Y63244400D01*
X38785785Y63246727D01*
X38762161Y63244400D01*
X38762160Y63244400D01*
X38691494Y63237440D01*
X38600825Y63209936D01*
X38566534Y63191607D01*
X38548307Y63191607D01*
X38431229Y63168319D01*
X38320944Y63122637D01*
X38221691Y63056318D01*
X38137282Y62971909D01*
X38070963Y62872656D01*
X38025281Y62762371D01*
X38001993Y62645293D01*
X38001993Y62525921D01*
X38025281Y62408843D01*
X38031595Y62393599D01*
X35567004Y62393599D01*
X35566000Y62615350D01*
X35471750Y62709600D01*
X34742000Y62709600D01*
X34742000Y62689600D01*
X34736000Y62689600D01*
X34736000Y62709600D01*
X34006250Y62709600D01*
X33912000Y62615350D01*
X33910996Y62393599D01*
X32573826Y62393599D01*
X32550199Y62395926D01*
X32455906Y62386639D01*
X32365237Y62359135D01*
X32320573Y62335261D01*
X32281677Y62314471D01*
X32208435Y62254363D01*
X32193369Y62236005D01*
X31986538Y62029174D01*
X31977112Y62076564D01*
X31931430Y62186849D01*
X31865111Y62286102D01*
X31780702Y62370511D01*
X31681449Y62436830D01*
X31571164Y62482512D01*
X31454086Y62505800D01*
X31371843Y62505800D01*
X31371843Y63139603D01*
X31412078Y63131600D01*
X31565922Y63131600D01*
X31716809Y63161613D01*
X31858942Y63220487D01*
X31986859Y63305958D01*
X32095642Y63414741D01*
X32181113Y63542658D01*
X32239987Y63684791D01*
X32270000Y63835678D01*
X32270000Y63989522D01*
X33008000Y63989522D01*
X33008000Y63835678D01*
X33038013Y63684791D01*
X33096887Y63542658D01*
X33182358Y63414741D01*
X33291141Y63305958D01*
X33419058Y63220487D01*
X33561191Y63161613D01*
X33712078Y63131600D01*
X33865922Y63131600D01*
X33910503Y63140468D01*
X33912000Y62809850D01*
X34006250Y62715600D01*
X34736000Y62715600D01*
X34736000Y63495350D01*
X34742000Y63495350D01*
X34742000Y62715600D01*
X35471750Y62715600D01*
X35566000Y62809850D01*
X35567824Y63212600D01*
X35560545Y63286505D01*
X35538988Y63357570D01*
X35503981Y63423063D01*
X35456869Y63480469D01*
X35399463Y63527581D01*
X35333970Y63562588D01*
X35262905Y63584145D01*
X35189000Y63591424D01*
X34836250Y63589600D01*
X34742000Y63495350D01*
X34736000Y63495350D01*
X34641750Y63589600D01*
X34500859Y63590329D01*
X34539987Y63684791D01*
X34570000Y63835678D01*
X34570000Y63989522D01*
X34539987Y64140409D01*
X34481113Y64282542D01*
X34461029Y64312600D01*
X34935176Y64312600D01*
X34942455Y64238695D01*
X34964012Y64167630D01*
X34999019Y64102137D01*
X35046131Y64044731D01*
X35103537Y63997619D01*
X35169030Y63962612D01*
X35240095Y63941055D01*
X35314000Y63933776D01*
X35941750Y63935600D01*
X36036000Y64029850D01*
X36036000Y64809600D01*
X36042000Y64809600D01*
X36042000Y64029850D01*
X36136250Y63935600D01*
X36764000Y63933776D01*
X36837905Y63941055D01*
X36908970Y63962612D01*
X36974463Y63997619D01*
X37031869Y64044731D01*
X37078981Y64102137D01*
X37113988Y64167630D01*
X37135545Y64238695D01*
X37142824Y64312600D01*
X37453376Y64312600D01*
X37460655Y64238695D01*
X37482212Y64167630D01*
X37517219Y64102137D01*
X37564331Y64044731D01*
X37621737Y63997619D01*
X37687230Y63962612D01*
X37758295Y63941055D01*
X37832200Y63933776D01*
X38459950Y63935600D01*
X38554200Y64029850D01*
X38554200Y64809600D01*
X38560200Y64809600D01*
X38560200Y64029850D01*
X38654450Y63935600D01*
X39282200Y63933776D01*
X39356105Y63941055D01*
X39427170Y63962612D01*
X39492663Y63997619D01*
X39550069Y64044731D01*
X39597181Y64102137D01*
X39632188Y64167630D01*
X39653745Y64238695D01*
X39661024Y64312600D01*
X39659200Y64715350D01*
X39564950Y64809600D01*
X38560200Y64809600D01*
X38554200Y64809600D01*
X37549450Y64809600D01*
X37455200Y64715350D01*
X37453376Y64312600D01*
X37142824Y64312600D01*
X37141000Y64715350D01*
X37046750Y64809600D01*
X36042000Y64809600D01*
X36036000Y64809600D01*
X35031250Y64809600D01*
X34937000Y64715350D01*
X34935176Y64312600D01*
X34461029Y64312600D01*
X34395642Y64410459D01*
X34286859Y64519242D01*
X34158942Y64604713D01*
X34016809Y64663587D01*
X33865922Y64693600D01*
X33712078Y64693600D01*
X33561191Y64663587D01*
X33419058Y64604713D01*
X33291141Y64519242D01*
X33182358Y64410459D01*
X33096887Y64282542D01*
X33038013Y64140409D01*
X33008000Y63989522D01*
X32270000Y63989522D01*
X32239987Y64140409D01*
X32181113Y64282542D01*
X32095642Y64410459D01*
X31986859Y64519242D01*
X31858942Y64604713D01*
X31716809Y64663587D01*
X31565922Y64693600D01*
X31412078Y64693600D01*
X31261191Y64663587D01*
X31119058Y64604713D01*
X30991141Y64519242D01*
X30882358Y64410459D01*
X30796887Y64282542D01*
X30738013Y64140409D01*
X30708000Y63989522D01*
X30708000Y63835678D01*
X30738013Y63684791D01*
X30775023Y63595443D01*
X30089000Y63595443D01*
X30014311Y63588087D01*
X29942492Y63566301D01*
X29876304Y63530922D01*
X29818289Y63483311D01*
X29770678Y63425296D01*
X29735299Y63359108D01*
X29713513Y63287289D01*
X29706157Y63212600D01*
X29706157Y63025394D01*
X29538551Y62857787D01*
X29439636Y62838112D01*
X29329351Y62792430D01*
X29230098Y62726111D01*
X29145689Y62641702D01*
X29079370Y62542449D01*
X29033688Y62432164D01*
X29010400Y62315086D01*
X29010400Y62195714D01*
X29033688Y62078636D01*
X29063991Y62005479D01*
X29027800Y62009043D01*
X28477800Y62009043D01*
X28364093Y61997844D01*
X28254756Y61964677D01*
X28153990Y61910816D01*
X28088659Y61857200D01*
X27276747Y61857200D01*
X27641904Y62222357D01*
X27707000Y62222357D01*
X27820707Y62233556D01*
X27930044Y62266723D01*
X28030810Y62320584D01*
X28119132Y62393068D01*
X28191616Y62481390D01*
X28245477Y62582156D01*
X28278644Y62691493D01*
X28289843Y62805200D01*
X28289843Y63205200D01*
X28278644Y63318907D01*
X28245477Y63428244D01*
X28191616Y63529010D01*
X28119132Y63617332D01*
X28030810Y63689816D01*
X27930044Y63743677D01*
X27820707Y63776844D01*
X27707000Y63788043D01*
X27164611Y63788043D01*
X27248925Y63872357D01*
X27707000Y63872357D01*
X27820707Y63883556D01*
X27930044Y63916723D01*
X28030810Y63970584D01*
X28119132Y64043068D01*
X28186630Y64125315D01*
X28199019Y64102137D01*
X28246131Y64044731D01*
X28303537Y63997619D01*
X28369030Y63962612D01*
X28440095Y63941055D01*
X28514000Y63933776D01*
X29141750Y63935600D01*
X29236000Y64029850D01*
X29236000Y64809600D01*
X29242000Y64809600D01*
X29242000Y64029850D01*
X29336250Y63935600D01*
X29964000Y63933776D01*
X30037905Y63941055D01*
X30108970Y63962612D01*
X30174463Y63997619D01*
X30231869Y64044731D01*
X30278981Y64102137D01*
X30313988Y64167630D01*
X30335545Y64238695D01*
X30342824Y64312600D01*
X30341000Y64715350D01*
X30246750Y64809600D01*
X29242000Y64809600D01*
X29236000Y64809600D01*
X29216000Y64809600D01*
X29216000Y64815600D01*
X29236000Y64815600D01*
X29236000Y64835600D01*
X29242000Y64835600D01*
X29242000Y64815600D01*
X30246750Y64815600D01*
X30341000Y64909850D01*
X30341809Y65088400D01*
X34936191Y65088400D01*
X34937000Y64909850D01*
%TA.AperFunction,Conductor*%
D28*
G36*
X34937000Y64909850D02*
G01*
X35031250Y64815600D01*
X36036000Y64815600D01*
X36036000Y64835600D01*
X36042000Y64835600D01*
X36042000Y64815600D01*
X37046750Y64815600D01*
X37141000Y64909850D01*
X37141809Y65088400D01*
X37454391Y65088400D01*
X37455200Y64909850D01*
X37549450Y64815600D01*
X38554200Y64815600D01*
X38554200Y64835600D01*
X38560200Y64835600D01*
X38560200Y64815600D01*
X39564950Y64815600D01*
X39659200Y64909850D01*
X39660009Y65088400D01*
X44254391Y65088400D01*
X44255200Y64909850D01*
X44349450Y64815600D01*
X45354200Y64815600D01*
X45354200Y64835600D01*
X45360200Y64835600D01*
X45360200Y64815600D01*
X45380200Y64815600D01*
X45380200Y64809600D01*
X45360200Y64809600D01*
X45360200Y64029850D01*
X45454450Y63935600D01*
X46082200Y63933776D01*
X46121146Y63937612D01*
X46120176Y63723400D01*
X46127455Y63649495D01*
X46149012Y63578430D01*
X46184019Y63512937D01*
X46231131Y63455531D01*
X46288537Y63408419D01*
X46354030Y63373412D01*
X46425095Y63351855D01*
X46499000Y63344576D01*
X47651750Y63346400D01*
X47746000Y63440650D01*
X47746000Y64220400D01*
X47752000Y64220400D01*
X47752000Y63440650D01*
X47846250Y63346400D01*
X48999000Y63344576D01*
X49072905Y63351855D01*
X49143970Y63373412D01*
X49209463Y63408419D01*
X49266869Y63455531D01*
X49313981Y63512937D01*
X49348988Y63578430D01*
X49370545Y63649495D01*
X49377824Y63723400D01*
X49376000Y64126150D01*
X49281750Y64220400D01*
X47752000Y64220400D01*
X47746000Y64220400D01*
X47726000Y64220400D01*
X47726000Y64226400D01*
X47746000Y64226400D01*
X47746000Y64246400D01*
X47752000Y64246400D01*
X47752000Y64226400D01*
X49281750Y64226400D01*
X49376000Y64320650D01*
X49377824Y64723400D01*
X49370545Y64797305D01*
X49348988Y64868370D01*
X49313981Y64933863D01*
X49266869Y64991269D01*
X49209463Y65038381D01*
X49143970Y65073388D01*
X49094481Y65088400D01*
X62589740Y65088400D01*
X62552492Y65077101D01*
X62486304Y65041722D01*
X62428289Y64994111D01*
X62380678Y64936096D01*
X62345299Y64869908D01*
X62323513Y64798089D01*
X62316157Y64723400D01*
X62316157Y63723400D01*
X62323513Y63648711D01*
X62345299Y63576892D01*
X62380678Y63510704D01*
X62428289Y63452689D01*
X62486304Y63405078D01*
X62552492Y63369699D01*
X62624311Y63347913D01*
X62699000Y63340557D01*
X65199000Y63340557D01*
X65273689Y63347913D01*
X65345508Y63369699D01*
X65411696Y63405078D01*
X65469711Y63452689D01*
X65517322Y63510704D01*
X65552701Y63576892D01*
X65574487Y63648711D01*
X65581843Y63723400D01*
X65581843Y64723400D01*
X65574487Y64798089D01*
X65552701Y64869908D01*
X65517322Y64936096D01*
X65469711Y64994111D01*
X65411696Y65041722D01*
X65345508Y65077101D01*
X65308260Y65088400D01*
X66118573Y65088400D01*
X66113499Y65078908D01*
X66091713Y65007089D01*
X66084357Y64932400D01*
X66084357Y63332400D01*
X66091713Y63257711D01*
X66113499Y63185892D01*
X66148878Y63119704D01*
X66196489Y63061689D01*
X66254504Y63014078D01*
X66320692Y62978699D01*
X66392511Y62956913D01*
X66467200Y62949557D01*
X67317200Y62949557D01*
X67391889Y62956913D01*
X67463708Y62978699D01*
X67529896Y63014078D01*
X67587911Y63061689D01*
X67635522Y63119704D01*
X67670901Y63185892D01*
X67692687Y63257711D01*
X67700043Y63332400D01*
X67700043Y64932400D01*
X67692687Y65007089D01*
X67670901Y65078908D01*
X67665827Y65088400D01*
X67868573Y65088400D01*
X67863499Y65078908D01*
X67841713Y65007089D01*
X67834357Y64932400D01*
X67834357Y63332400D01*
X67841713Y63257711D01*
X67863499Y63185892D01*
X67898878Y63119704D01*
X67946489Y63061689D01*
X68004504Y63014078D01*
X68070692Y62978699D01*
X68141832Y62957119D01*
X68124288Y62914764D01*
X68101000Y62797686D01*
X68101000Y62678314D01*
X68124288Y62561236D01*
X68169970Y62450951D01*
X68236289Y62351698D01*
X68320698Y62267289D01*
X68419951Y62200970D01*
X68530236Y62155288D01*
X68647314Y62132000D01*
X68766686Y62132000D01*
X68883764Y62155288D01*
X68994049Y62200970D01*
X69093302Y62267289D01*
X69177711Y62351698D01*
X69244030Y62450951D01*
X69289712Y62561236D01*
X69313000Y62678314D01*
X69313000Y62797686D01*
X69289712Y62914764D01*
X69254252Y63000371D01*
X69279896Y63014078D01*
X69337911Y63061689D01*
X69385522Y63119704D01*
X69420901Y63185892D01*
X69442687Y63257711D01*
X69450043Y63332400D01*
X69450043Y64932400D01*
X69442687Y65007089D01*
X69420901Y65078908D01*
X69415827Y65088400D01*
X70039946Y65088400D01*
X70160732Y65076557D01*
X70257825Y65047243D01*
X70347370Y64999631D01*
X70425968Y64935528D01*
X70490612Y64857386D01*
X70538848Y64768176D01*
X70568839Y64671290D01*
X70581451Y64551295D01*
X70581466Y64546949D01*
X70583259Y64529296D01*
X70583135Y64511561D01*
X70583688Y64505919D01*
X70637578Y63993194D01*
X70644983Y63957121D01*
X70651873Y63921003D01*
X70653511Y63915576D01*
X70805963Y63423082D01*
X70820240Y63389119D01*
X70834008Y63355041D01*
X70836664Y63350045D01*
X70836668Y63350036D01*
X70836673Y63350029D01*
X71081877Y62896533D01*
X71102453Y62866027D01*
X71122603Y62835235D01*
X71126180Y62830849D01*
X71126185Y62830842D01*
X71126191Y62830836D01*
X71454810Y62433604D01*
X71480942Y62407653D01*
X71506666Y62381385D01*
X71511028Y62377776D01*
X71511034Y62377770D01*
X71511041Y62377766D01*
X71910557Y62051928D01*
X71941199Y62031570D01*
X71971569Y62010775D01*
X71976555Y62008078D01*
X72431758Y61766043D01*
X72465798Y61752012D01*
X72499602Y61737524D01*
X72505010Y61735849D01*
X72505016Y61735847D01*
X72505022Y61735846D01*
X72998565Y61586837D01*
X73034720Y61579678D01*
X73070654Y61572040D01*
X73076283Y61571448D01*
X73076293Y61571446D01*
X73076302Y61571446D01*
X73589382Y61521138D01*
X73609059Y61519200D01*
X78074400Y61519200D01*
X78074400Y60669418D01*
X77939288Y60739245D01*
X76940843Y59740800D01*
X77939288Y58742355D01*
X78074400Y58812183D01*
X78074401Y55589417D01*
X77939288Y55659245D01*
X76940843Y54660800D01*
X77939288Y53662355D01*
X78074401Y53732183D01*
X78074401Y52882400D01*
X73609059Y52882400D01*
X73590273Y52880550D01*
X73573761Y52880665D01*
X73568119Y52880112D01*
X73055394Y52826222D01*
X73019315Y52818816D01*
X72983203Y52811927D01*
X72977778Y52810290D01*
X72977772Y52810288D01*
X72485282Y52657837D01*
X72451319Y52643560D01*
X72417241Y52629792D01*
X72412245Y52627136D01*
X72412236Y52627132D01*
X72412229Y52627127D01*
X71958733Y52381923D01*
X71928227Y52361347D01*
X71897435Y52341197D01*
X71893049Y52337620D01*
X71893042Y52337615D01*
X71893036Y52337609D01*
X71495804Y52008990D01*
X71469869Y51982874D01*
X71443584Y51957133D01*
X71439970Y51952766D01*
X71114128Y51553243D01*
X71093744Y51522563D01*
X71072975Y51492231D01*
X71070281Y51487249D01*
X71070278Y51487245D01*
X71070278Y51487244D01*
X70828242Y51032042D01*
X70814208Y50997993D01*
X70799724Y50964198D01*
X70798047Y50958783D01*
X70649037Y50465235D01*
X70641879Y50429086D01*
X70634240Y50393146D01*
X70633648Y50387517D01*
X70633646Y50387507D01*
X70633646Y50387498D01*
X70583338Y49874419D01*
X70569557Y49733868D01*
X70540243Y49636776D01*
X70492631Y49547230D01*
X70428530Y49468635D01*
X70350385Y49403987D01*
X70261177Y49355753D01*
X70164290Y49325761D01*
X70044780Y49313200D01*
X44678101Y49313200D01*
X44710188Y49373230D01*
X44731745Y49444295D01*
X44739024Y49518200D01*
X44738527Y49723400D01*
X46120176Y49723400D01*
X46127455Y49649495D01*
X46149012Y49578430D01*
X46184019Y49512937D01*
X46231131Y49455531D01*
X46288537Y49408419D01*
X46354030Y49373412D01*
X46425095Y49351855D01*
X46499000Y49344576D01*
X47651750Y49346400D01*
X47746000Y49440650D01*
X47746000Y50220400D01*
X47752000Y50220400D01*
X47752000Y49440650D01*
X47846250Y49346400D01*
X48999000Y49344576D01*
X49072905Y49351855D01*
X49143970Y49373412D01*
X49209463Y49408419D01*
X49266869Y49455531D01*
X49313981Y49512937D01*
X49348988Y49578430D01*
X49370545Y49649495D01*
X49377824Y49723400D01*
X49376000Y50126150D01*
X49281750Y50220400D01*
X47752000Y50220400D01*
X47746000Y50220400D01*
X46216250Y50220400D01*
X46122000Y50126150D01*
X46120176Y49723400D01*
X44738527Y49723400D01*
X44737200Y50270950D01*
X44642950Y50365200D01*
X43513200Y50365200D01*
X43513200Y50345200D01*
X43507200Y50345200D01*
X43507200Y50365200D01*
X42377450Y50365200D01*
X42283200Y50270950D01*
X42281376Y49518200D01*
X42288655Y49444295D01*
X42310212Y49373230D01*
X42342299Y49313200D01*
X41607022Y49313200D01*
X41754917Y49412020D01*
X41926380Y49583483D01*
X42061098Y49785103D01*
X42153893Y50009131D01*
X42201200Y50246957D01*
X42201200Y50489443D01*
X42153893Y50727269D01*
X42061098Y50951297D01*
X41926380Y51152917D01*
X41769697Y51309600D01*
X42293962Y51309600D01*
X42288655Y51292105D01*
X42281376Y51218200D01*
X42283200Y50465450D01*
X42377450Y50371200D01*
X43507200Y50371200D01*
X43507200Y50391200D01*
X43513200Y50391200D01*
X43513200Y50371200D01*
X44642950Y50371200D01*
X44737200Y50465450D01*
X44737825Y50723400D01*
X46120176Y50723400D01*
X46122000Y50320650D01*
X46216250Y50226400D01*
X47746000Y50226400D01*
X47746000Y51006150D01*
X47752000Y51006150D01*
X47752000Y50226400D01*
X49281750Y50226400D01*
X49376000Y50320650D01*
X49377824Y50723400D01*
X62316157Y50723400D01*
X62316157Y49723400D01*
X62323513Y49648711D01*
X62345299Y49576892D01*
X62380678Y49510704D01*
X62428289Y49452689D01*
X62486304Y49405078D01*
X62552492Y49369699D01*
X62624311Y49347913D01*
X62699000Y49340557D01*
X65199000Y49340557D01*
X65246143Y49345200D01*
X66155730Y49345200D01*
X66199000Y49340938D01*
X66242270Y49345200D01*
X66242273Y49345200D01*
X66371706Y49357948D01*
X66537775Y49408325D01*
X66690825Y49490132D01*
X66824975Y49600225D01*
X66852565Y49633844D01*
X67189261Y49970539D01*
X67222875Y49998125D01*
X67332968Y50132275D01*
X67414775Y50285325D01*
X67465152Y50451394D01*
X67477900Y50580827D01*
X67477900Y50580830D01*
X67482162Y50624100D01*
X67477900Y50667370D01*
X67477900Y53074779D01*
X68061233Y53658112D01*
X70858155Y53658112D01*
X70971903Y53438016D01*
X71227456Y53288915D01*
X71507187Y53192536D01*
X71800345Y53152582D01*
X72095664Y53170587D01*
X72381797Y53245860D01*
X72647746Y53375509D01*
X72741297Y53438016D01*
X72855045Y53658112D01*
X75938155Y53658112D01*
X76051903Y53438016D01*
X76307456Y53288915D01*
X76587187Y53192536D01*
X76880345Y53152582D01*
X77175664Y53170587D01*
X77461797Y53245860D01*
X77727746Y53375509D01*
X77821297Y53438016D01*
X77935045Y53658112D01*
X76936600Y54656557D01*
X75938155Y53658112D01*
X72855045Y53658112D01*
X71856600Y54656557D01*
X70858155Y53658112D01*
X68061233Y53658112D01*
X69120176Y54717055D01*
X70348382Y54717055D01*
X70366387Y54421736D01*
X70441660Y54135603D01*
X70571309Y53869654D01*
X70633816Y53776103D01*
X70853912Y53662355D01*
X71852357Y54660800D01*
X71860843Y54660800D01*
X72859288Y53662355D01*
X73079384Y53776103D01*
X73228485Y54031656D01*
X73324864Y54311387D01*
X73364818Y54604545D01*
X73357959Y54717055D01*
X75428382Y54717055D01*
X75446387Y54421736D01*
X75521660Y54135603D01*
X75651309Y53869654D01*
X75713816Y53776103D01*
X75933912Y53662355D01*
X76932357Y54660800D01*
X75933912Y55659245D01*
X75713816Y55545497D01*
X75564715Y55289944D01*
X75468336Y55010213D01*
X75428382Y54717055D01*
X73357959Y54717055D01*
X73346813Y54899864D01*
X73271540Y55185997D01*
X73141891Y55451946D01*
X73079384Y55545497D01*
X72859288Y55659245D01*
X71860843Y54660800D01*
X71852357Y54660800D01*
X70853912Y55659245D01*
X70633816Y55545497D01*
X70484715Y55289944D01*
X70388336Y55010213D01*
X70348382Y54717055D01*
X69120176Y54717055D01*
X70066609Y55663488D01*
X70858155Y55663488D01*
X71856600Y54665043D01*
X72855045Y55663488D01*
X75938155Y55663488D01*
X76936600Y54665043D01*
X77935045Y55663488D01*
X77821297Y55883584D01*
X77565744Y56032685D01*
X77286013Y56129064D01*
X76992855Y56169018D01*
X76697536Y56151013D01*
X76411403Y56075740D01*
X76145454Y55946091D01*
X76051903Y55883584D01*
X75938155Y55663488D01*
X72855045Y55663488D01*
X72741297Y55883584D01*
X72485744Y56032685D01*
X72206013Y56129064D01*
X71912855Y56169018D01*
X71617536Y56151013D01*
X71331403Y56075740D01*
X71065454Y55946091D01*
X70971903Y55883584D01*
X70858155Y55663488D01*
X70066609Y55663488D01*
X70773722Y56370600D01*
X73140071Y56370600D01*
X73226813Y56240781D01*
X73436581Y56031013D01*
X73683241Y55866200D01*
X73957316Y55752675D01*
X74248272Y55694800D01*
X74544928Y55694800D01*
X74835884Y55752675D01*
X75109959Y55866200D01*
X75356619Y56031013D01*
X75566387Y56240781D01*
X75731200Y56487441D01*
X75844725Y56761516D01*
X75902600Y57052472D01*
X75902600Y57349128D01*
X75844725Y57640084D01*
X75731200Y57914159D01*
X75566387Y58160819D01*
X75356619Y58370587D01*
X75109959Y58535400D01*
X74835884Y58648925D01*
X74544928Y58706800D01*
X74248272Y58706800D01*
X73957316Y58648925D01*
X73683241Y58535400D01*
X73436581Y58370587D01*
X73226813Y58160819D01*
X73207958Y58132600D01*
X70903224Y58132600D01*
X70920430Y58158351D01*
X70966112Y58268636D01*
X70989400Y58385714D01*
X70989400Y58505086D01*
X70988788Y58508165D01*
X71227456Y58368915D01*
X71507187Y58272536D01*
X71800345Y58232582D01*
X72095664Y58250587D01*
X72381797Y58325860D01*
X72647746Y58455509D01*
X72741297Y58518016D01*
X72855045Y58738112D01*
X75938155Y58738112D01*
X76051903Y58518016D01*
X76307456Y58368915D01*
X76587187Y58272536D01*
X76880345Y58232582D01*
X77175664Y58250587D01*
X77461797Y58325860D01*
X77727746Y58455509D01*
X77821297Y58518016D01*
X77935045Y58738112D01*
X76936600Y59736557D01*
X75938155Y58738112D01*
X72855045Y58738112D01*
X71856600Y59736557D01*
X71842458Y59722415D01*
X71838215Y59726658D01*
X71852357Y59740800D01*
X71860843Y59740800D01*
X72859288Y58742355D01*
X73079384Y58856103D01*
X73228485Y59111656D01*
X73324864Y59391387D01*
X73364818Y59684545D01*
X73357959Y59797055D01*
X75428382Y59797055D01*
X75446387Y59501736D01*
X75521660Y59215603D01*
X75651309Y58949654D01*
X75713816Y58856103D01*
X75933912Y58742355D01*
X76932357Y59740800D01*
X75933912Y60739245D01*
X75713816Y60625497D01*
X75564715Y60369944D01*
X75468336Y60090213D01*
X75428382Y59797055D01*
X73357959Y59797055D01*
X73346813Y59979864D01*
X73271540Y60265997D01*
X73141891Y60531946D01*
X73079384Y60625497D01*
X72859288Y60739245D01*
X71860843Y59740800D01*
X71852357Y59740800D01*
X70853912Y60739245D01*
X70633816Y60625497D01*
X70484715Y60369944D01*
X70388336Y60090213D01*
X70348382Y59797055D01*
X70366387Y59501736D01*
X70441660Y59215603D01*
X70530151Y59034082D01*
X70443086Y59051400D01*
X70323714Y59051400D01*
X70206636Y59028112D01*
X70096351Y58982430D01*
X69997098Y58916111D01*
X69912689Y58831702D01*
X69846370Y58732449D01*
X69800688Y58622164D01*
X69777400Y58505086D01*
X69777400Y58385714D01*
X69800688Y58268636D01*
X69846370Y58158351D01*
X69912689Y58059098D01*
X69960731Y58011056D01*
X69916974Y57987668D01*
X69871701Y57950513D01*
X69782825Y57877575D01*
X69755239Y57843961D01*
X66004540Y54093261D01*
X65970926Y54065675D01*
X65941263Y54029530D01*
X65860832Y53931525D01*
X65779025Y53778474D01*
X65750189Y53683412D01*
X65732393Y53624746D01*
X65728649Y53612405D01*
X65711638Y53439700D01*
X65715901Y53396420D01*
X65715900Y51107200D01*
X63905727Y51107200D01*
X63896010Y51106243D01*
X62699000Y51106243D01*
X62624311Y51098887D01*
X62552492Y51077101D01*
X62486304Y51041722D01*
X62428289Y50994111D01*
X62380678Y50936096D01*
X62345299Y50869908D01*
X62323513Y50798089D01*
X62316157Y50723400D01*
X49377824Y50723400D01*
X49370545Y50797305D01*
X49348988Y50868370D01*
X49313981Y50933863D01*
X49266869Y50991269D01*
X49209463Y51038381D01*
X49143970Y51073388D01*
X49072905Y51094945D01*
X48999000Y51102224D01*
X47846250Y51100400D01*
X47752000Y51006150D01*
X47746000Y51006150D01*
X47651750Y51100400D01*
X46499000Y51102224D01*
X46425095Y51094945D01*
X46354030Y51073388D01*
X46288537Y51038381D01*
X46231131Y50991269D01*
X46184019Y50933863D01*
X46149012Y50868370D01*
X46127455Y50797305D01*
X46120176Y50723400D01*
X44737825Y50723400D01*
X44739024Y51218200D01*
X44731745Y51292105D01*
X44726438Y51309600D01*
X45772574Y51309600D01*
X45796200Y51307273D01*
X45819826Y51309600D01*
X45840133Y51311600D01*
X45855771Y51313140D01*
X45863514Y51311600D01*
X45982886Y51311600D01*
X46099964Y51334888D01*
X46210249Y51380570D01*
X46268632Y51419581D01*
X46286304Y51405078D01*
X46352492Y51369699D01*
X46424311Y51347913D01*
X46499000Y51340557D01*
X48999000Y51340557D01*
X49073689Y51347913D01*
X49145508Y51369699D01*
X49211696Y51405078D01*
X49269711Y51452689D01*
X49317322Y51510704D01*
X49352701Y51576892D01*
X49374487Y51648711D01*
X49381843Y51723400D01*
X62320176Y51723400D01*
X62327455Y51649495D01*
X62349012Y51578430D01*
X62384019Y51512937D01*
X62431131Y51455531D01*
X62488537Y51408419D01*
X62554030Y51373412D01*
X62625095Y51351855D01*
X62699000Y51344576D01*
X63851750Y51346400D01*
X63946000Y51440650D01*
X63946000Y52220400D01*
X63952000Y52220400D01*
X63952000Y51440650D01*
X64046250Y51346400D01*
X65199000Y51344576D01*
X65272905Y51351855D01*
X65343970Y51373412D01*
X65409463Y51408419D01*
X65466869Y51455531D01*
X65513981Y51512937D01*
X65548988Y51578430D01*
X65570545Y51649495D01*
X65577824Y51723400D01*
X65576000Y52126150D01*
X65481750Y52220400D01*
X63952000Y52220400D01*
X63946000Y52220400D01*
X62416250Y52220400D01*
X62322000Y52126150D01*
X62320176Y51723400D01*
X49381843Y51723400D01*
X49381843Y52723400D01*
X62320176Y52723400D01*
X62322000Y52320650D01*
X62416250Y52226400D01*
X63946000Y52226400D01*
X63946000Y53006150D01*
X63952000Y53006150D01*
X63952000Y52226400D01*
X65481750Y52226400D01*
X65576000Y52320650D01*
X65577824Y52723400D01*
X65570545Y52797305D01*
X65548988Y52868370D01*
X65513981Y52933863D01*
X65466869Y52991269D01*
X65409463Y53038381D01*
X65343970Y53073388D01*
X65272905Y53094945D01*
X65199000Y53102224D01*
X64046250Y53100400D01*
X63952000Y53006150D01*
X63946000Y53006150D01*
X63851750Y53100400D01*
X62699000Y53102224D01*
X62625095Y53094945D01*
X62554030Y53073388D01*
X62488537Y53038381D01*
X62431131Y52991269D01*
X62384019Y52933863D01*
X62349012Y52868370D01*
X62327455Y52797305D01*
X62320176Y52723400D01*
X49381843Y52723400D01*
X49374487Y52798089D01*
X49352701Y52869908D01*
X49317322Y52936096D01*
X49269711Y52994111D01*
X49211696Y53041722D01*
X49145508Y53077101D01*
X49073689Y53098887D01*
X48999000Y53106243D01*
X46499000Y53106243D01*
X46424311Y53098887D01*
X46352492Y53077101D01*
X46323843Y53061787D01*
X46323843Y53172200D01*
X46312644Y53285907D01*
X46279477Y53395244D01*
X46264778Y53422744D01*
X46286304Y53405078D01*
X46352492Y53369699D01*
X46424311Y53347913D01*
X46499000Y53340557D01*
X48999000Y53340557D01*
X49073689Y53347913D01*
X49145508Y53369699D01*
X49211696Y53405078D01*
X49269711Y53452689D01*
X49317322Y53510704D01*
X49352701Y53576892D01*
X49374487Y53648711D01*
X49381843Y53723400D01*
X49381843Y54723400D01*
X49374487Y54798089D01*
X49352701Y54869908D01*
X49317322Y54936096D01*
X49269711Y54994111D01*
X49211696Y55041722D01*
X49145508Y55077101D01*
X49073689Y55098887D01*
X48999000Y55106243D01*
X46499000Y55106243D01*
X46424311Y55098887D01*
X46352492Y55077101D01*
X46286304Y55041722D01*
X46281693Y55037938D01*
X46279477Y55045244D01*
X46225616Y55146010D01*
X46153132Y55234332D01*
X46064810Y55306816D01*
X45964044Y55360677D01*
X45953390Y55363909D01*
X45953390Y55886322D01*
X45957236Y55881636D01*
X46030478Y55821528D01*
X46069374Y55800738D01*
X46114038Y55776864D01*
X46116157Y55776221D01*
X46116157Y55723400D01*
X46123513Y55648711D01*
X46145299Y55576892D01*
X46180678Y55510704D01*
X46228289Y55452689D01*
X46286304Y55405078D01*
X46352492Y55369699D01*
X46424311Y55347913D01*
X46499000Y55340557D01*
X48999000Y55340557D01*
X49073689Y55347913D01*
X49145508Y55369699D01*
X49211696Y55405078D01*
X49269711Y55452689D01*
X49317322Y55510704D01*
X49352701Y55576892D01*
X49374487Y55648711D01*
X49381843Y55723400D01*
X49381843Y56159400D01*
X52299547Y56159400D01*
X52311730Y56035702D01*
X52347811Y55916758D01*
X52406404Y55807139D01*
X52485257Y55711057D01*
X52581339Y55632204D01*
X52690958Y55573611D01*
X52809902Y55537530D01*
X52902602Y55528400D01*
X55658453Y55528400D01*
X56031770Y55155082D01*
X56033888Y55144436D01*
X56079570Y55034151D01*
X56145889Y54934898D01*
X56230298Y54850489D01*
X56329551Y54784170D01*
X56439836Y54738488D01*
X56556914Y54715200D01*
X56676286Y54715200D01*
X56717510Y54723400D01*
X62316157Y54723400D01*
X62316157Y53723400D01*
X62323513Y53648711D01*
X62345299Y53576892D01*
X62380678Y53510704D01*
X62428289Y53452689D01*
X62486304Y53405078D01*
X62552492Y53369699D01*
X62624311Y53347913D01*
X62699000Y53340557D01*
X65199000Y53340557D01*
X65273689Y53347913D01*
X65345508Y53369699D01*
X65411696Y53405078D01*
X65469711Y53452689D01*
X65517322Y53510704D01*
X65552701Y53576892D01*
X65574487Y53648711D01*
X65581843Y53723400D01*
X65581843Y54723400D01*
X65574487Y54798089D01*
X65552701Y54869908D01*
X65517322Y54936096D01*
X65469711Y54994111D01*
X65411696Y55041722D01*
X65345508Y55077101D01*
X65273689Y55098887D01*
X65199000Y55106243D01*
X62699000Y55106243D01*
X62624311Y55098887D01*
X62552492Y55077101D01*
X62486304Y55041722D01*
X62428289Y54994111D01*
X62380678Y54936096D01*
X62345299Y54869908D01*
X62323513Y54798089D01*
X62316157Y54723400D01*
X56717510Y54723400D01*
X56793364Y54738488D01*
X56903649Y54784170D01*
X57002902Y54850489D01*
X57087311Y54934898D01*
X57153630Y55034151D01*
X57199312Y55144436D01*
X57222600Y55261514D01*
X57222600Y55380886D01*
X57199312Y55497964D01*
X57186705Y55528400D01*
X59074810Y55528400D01*
X59105800Y55525348D01*
X59136790Y55528400D01*
X59136798Y55528400D01*
X59229498Y55537530D01*
X59348442Y55573611D01*
X59458061Y55632204D01*
X59554143Y55711057D01*
X59573905Y55735137D01*
X60562168Y56723400D01*
X62316157Y56723400D01*
X62316157Y55723400D01*
X62323513Y55648711D01*
X62345299Y55576892D01*
X62380678Y55510704D01*
X62428289Y55452689D01*
X62486304Y55405078D01*
X62552492Y55369699D01*
X62624311Y55347913D01*
X62699000Y55340557D01*
X65199000Y55340557D01*
X65273689Y55347913D01*
X65345508Y55369699D01*
X65411696Y55405078D01*
X65469711Y55452689D01*
X65517322Y55510704D01*
X65552701Y55576892D01*
X65574487Y55648711D01*
X65581843Y55723400D01*
X65581843Y56723400D01*
X65574487Y56798089D01*
X65552701Y56869908D01*
X65517322Y56936096D01*
X65469711Y56994111D01*
X65411696Y57041722D01*
X65345508Y57077101D01*
X65273689Y57098887D01*
X65199000Y57106243D01*
X62699000Y57106243D01*
X62624311Y57098887D01*
X62552492Y57077101D01*
X62486304Y57041722D01*
X62428289Y56994111D01*
X62380678Y56936096D01*
X62345299Y56869908D01*
X62323513Y56798089D01*
X62316157Y56723400D01*
X60562168Y56723400D01*
X61433969Y57595200D01*
X62339745Y57595200D01*
X62345299Y57576892D01*
X62380678Y57510704D01*
X62428289Y57452689D01*
X62486304Y57405078D01*
X62552492Y57369699D01*
X62624311Y57347913D01*
X62699000Y57340557D01*
X65199000Y57340557D01*
X65273689Y57347913D01*
X65345508Y57369699D01*
X65370322Y57382962D01*
X65381088Y57328836D01*
X65426770Y57218551D01*
X65493089Y57119298D01*
X65577498Y57034889D01*
X65676751Y56968570D01*
X65787036Y56922888D01*
X65904114Y56899600D01*
X66023486Y56899600D01*
X66140564Y56922888D01*
X66250849Y56968570D01*
X66350102Y57034889D01*
X66434511Y57119298D01*
X66500830Y57218551D01*
X66546512Y57328836D01*
X66569800Y57445914D01*
X66569800Y57565286D01*
X66546512Y57682364D01*
X66500830Y57792649D01*
X66448323Y57871231D01*
X66468356Y57860523D01*
X66577693Y57827356D01*
X66691400Y57816157D01*
X67091400Y57816157D01*
X67205107Y57827356D01*
X67314444Y57860523D01*
X67415210Y57914384D01*
X67503532Y57986868D01*
X67576016Y58075190D01*
X67629877Y58175956D01*
X67663044Y58285293D01*
X67674243Y58399000D01*
X67674243Y58949000D01*
X67758557Y58949000D01*
X67758557Y58399000D01*
X67769756Y58285293D01*
X67802923Y58175956D01*
X67856784Y58075190D01*
X67929268Y57986868D01*
X68017590Y57914384D01*
X68118356Y57860523D01*
X68227693Y57827356D01*
X68341400Y57816157D01*
X68741400Y57816157D01*
X68855107Y57827356D01*
X68964444Y57860523D01*
X69065210Y57914384D01*
X69153532Y57986868D01*
X69226016Y58075190D01*
X69279877Y58175956D01*
X69313044Y58285293D01*
X69324243Y58399000D01*
X69324243Y58949000D01*
X69313044Y59062707D01*
X69279877Y59172044D01*
X69226016Y59272810D01*
X69173200Y59337166D01*
X69173200Y59466411D01*
X69213708Y59478699D01*
X69279896Y59514078D01*
X69337911Y59561689D01*
X69385522Y59619704D01*
X69420901Y59685892D01*
X69442687Y59757711D01*
X69450043Y59832400D01*
X69450043Y60743488D01*
X70858155Y60743488D01*
X71856600Y59745043D01*
X72855045Y60743488D01*
X75938155Y60743488D01*
X76936600Y59745043D01*
X77935045Y60743488D01*
X77821297Y60963584D01*
X77565744Y61112685D01*
X77286013Y61209064D01*
X76992855Y61249018D01*
X76697536Y61231013D01*
X76411403Y61155740D01*
X76145454Y61026091D01*
X76051903Y60963584D01*
X75938155Y60743488D01*
X72855045Y60743488D01*
X72741297Y60963584D01*
X72485744Y61112685D01*
X72206013Y61209064D01*
X71912855Y61249018D01*
X71617536Y61231013D01*
X71331403Y61155740D01*
X71065454Y61026091D01*
X70971903Y60963584D01*
X70858155Y60743488D01*
X69450043Y60743488D01*
X69450043Y61432400D01*
X69442687Y61507089D01*
X69420901Y61578908D01*
X69385522Y61645096D01*
X69337911Y61703111D01*
X69279896Y61750722D01*
X69213708Y61786101D01*
X69141889Y61807887D01*
X69067200Y61815243D01*
X68217200Y61815243D01*
X68142511Y61807887D01*
X68070692Y61786101D01*
X68004504Y61750722D01*
X67946489Y61703111D01*
X67898878Y61645096D01*
X67863499Y61578908D01*
X67841713Y61507089D01*
X67834357Y61432400D01*
X67834357Y59832400D01*
X67841713Y59757711D01*
X67863499Y59685892D01*
X67898878Y59619704D01*
X67946489Y59561689D01*
X68004504Y59514078D01*
X68070692Y59478699D01*
X68090623Y59472653D01*
X68017590Y59433616D01*
X67929268Y59361132D01*
X67856784Y59272810D01*
X67802923Y59172044D01*
X67769756Y59062707D01*
X67758557Y58949000D01*
X67674243Y58949000D01*
X67663044Y59062707D01*
X67629877Y59172044D01*
X67576016Y59272810D01*
X67503532Y59361132D01*
X67415210Y59433616D01*
X67368428Y59458622D01*
X67391105Y59460855D01*
X67462170Y59482412D01*
X67527663Y59517419D01*
X67585069Y59564531D01*
X67632181Y59621937D01*
X67667188Y59687430D01*
X67688745Y59758495D01*
X67696024Y59832400D01*
X67694200Y60535150D01*
X67599950Y60629400D01*
X66895200Y60629400D01*
X66895200Y60609400D01*
X66889200Y60609400D01*
X66889200Y60629400D01*
X66869200Y60629400D01*
X66869200Y60635400D01*
X66889200Y60635400D01*
X66889200Y61715150D01*
X66895200Y61715150D01*
X66895200Y60635400D01*
X67599950Y60635400D01*
X67694200Y60729650D01*
X67696024Y61432400D01*
X67688745Y61506305D01*
X67667188Y61577370D01*
X67632181Y61642863D01*
X67585069Y61700269D01*
X67527663Y61747381D01*
X67462170Y61782388D01*
X67391105Y61803945D01*
X67317200Y61811224D01*
X66989450Y61809400D01*
X66895200Y61715150D01*
X66889200Y61715150D01*
X66794950Y61809400D01*
X66467200Y61811224D01*
X66393295Y61803945D01*
X66322230Y61782388D01*
X66256737Y61747381D01*
X66199331Y61700269D01*
X66152219Y61642863D01*
X66117212Y61577370D01*
X66095655Y61506305D01*
X66088376Y61432400D01*
X66089360Y61053279D01*
X65605232Y61537406D01*
X65590166Y61555764D01*
X65555037Y61584593D01*
X65574487Y61648711D01*
X65581843Y61723400D01*
X65581843Y62723400D01*
X65574487Y62798089D01*
X65552701Y62869908D01*
X65517322Y62936096D01*
X65469711Y62994111D01*
X65411696Y63041722D01*
X65345508Y63077101D01*
X65273689Y63098887D01*
X65199000Y63106243D01*
X62699000Y63106243D01*
X62624311Y63098887D01*
X62552492Y63077101D01*
X62486304Y63041722D01*
X62428289Y62994111D01*
X62380678Y62936096D01*
X62345299Y62869908D01*
X62323513Y62798089D01*
X62316157Y62723400D01*
X62316157Y61820000D01*
X62297314Y61820000D01*
X62180236Y61796712D01*
X62069951Y61751030D01*
X61970698Y61684711D01*
X61886289Y61600302D01*
X61819970Y61501049D01*
X61774288Y61390764D01*
X61751000Y61273686D01*
X61751000Y61154314D01*
X61774288Y61037236D01*
X61819970Y60926951D01*
X61864806Y60859850D01*
X61850036Y60856912D01*
X61739751Y60811230D01*
X61640498Y60744911D01*
X61556089Y60660502D01*
X61489770Y60561249D01*
X61444088Y60450964D01*
X61420800Y60333886D01*
X61420800Y60214514D01*
X61444088Y60097436D01*
X61489770Y59987151D01*
X61556089Y59887898D01*
X61640498Y59803489D01*
X61739751Y59737170D01*
X61850036Y59691488D01*
X61967114Y59668200D01*
X62086486Y59668200D01*
X62203564Y59691488D01*
X62313849Y59737170D01*
X62316157Y59738712D01*
X62316157Y59723400D01*
X62323513Y59648711D01*
X62345299Y59576892D01*
X62380678Y59510704D01*
X62428289Y59452689D01*
X62486304Y59405078D01*
X62552492Y59369699D01*
X62624311Y59347913D01*
X62699000Y59340557D01*
X65199000Y59340557D01*
X65273689Y59347913D01*
X65345508Y59369699D01*
X65411696Y59405078D01*
X65447802Y59434709D01*
X65462594Y59422570D01*
X66108557Y58776606D01*
X66108557Y58399000D01*
X66119756Y58285293D01*
X66152923Y58175956D01*
X66206784Y58075190D01*
X66224573Y58053514D01*
X66140564Y58088312D01*
X66085783Y58099208D01*
X65618576Y58566415D01*
X65602727Y58585727D01*
X65581843Y58602866D01*
X65581843Y58723400D01*
X65574487Y58798089D01*
X65552701Y58869908D01*
X65517322Y58936096D01*
X65469711Y58994111D01*
X65411696Y59041722D01*
X65345508Y59077101D01*
X65273689Y59098887D01*
X65199000Y59106243D01*
X62699000Y59106243D01*
X62624311Y59098887D01*
X62552492Y59077101D01*
X62486304Y59041722D01*
X62428289Y58994111D01*
X62380678Y58936096D01*
X62345299Y58869908D01*
X62341444Y58857200D01*
X61203598Y58857200D01*
X61172600Y58860253D01*
X61048902Y58848070D01*
X60929958Y58811989D01*
X60820339Y58753396D01*
X60752157Y58697440D01*
X60724257Y58674543D01*
X60704499Y58650468D01*
X58844432Y56790400D01*
X52902602Y56790400D01*
X52809902Y56781270D01*
X52690958Y56745189D01*
X52581339Y56686596D01*
X52485257Y56607743D01*
X52406404Y56511661D01*
X52347811Y56402042D01*
X52311730Y56283098D01*
X52299547Y56159400D01*
X49381843Y56159400D01*
X49381843Y56723400D01*
X49374487Y56798089D01*
X49352701Y56869908D01*
X49317322Y56936096D01*
X49269711Y56994111D01*
X49211696Y57041722D01*
X49145508Y57077101D01*
X49073689Y57098887D01*
X48999000Y57106243D01*
X46499000Y57106243D01*
X46424311Y57098887D01*
X46353400Y57077376D01*
X46353400Y57369424D01*
X46424311Y57347913D01*
X46499000Y57340557D01*
X48999000Y57340557D01*
X49073689Y57347913D01*
X49145508Y57369699D01*
X49211696Y57405078D01*
X49269711Y57452689D01*
X49317322Y57510704D01*
X49352701Y57576892D01*
X49374487Y57648711D01*
X49378061Y57685000D01*
X50149697Y57685000D01*
X50233551Y57628970D01*
X50343836Y57583288D01*
X50460914Y57560000D01*
X50580286Y57560000D01*
X50697364Y57583288D01*
X50807649Y57628970D01*
X50906902Y57695289D01*
X50991311Y57779698D01*
X51057630Y57878951D01*
X51103312Y57989236D01*
X51126600Y58106314D01*
X51126600Y58225686D01*
X51103312Y58342764D01*
X51057630Y58453049D01*
X50991311Y58552302D01*
X50906902Y58636711D01*
X50807649Y58703030D01*
X50697364Y58748712D01*
X50580286Y58772000D01*
X50460914Y58772000D01*
X50343836Y58748712D01*
X50233551Y58703030D01*
X50149697Y58647000D01*
X49381843Y58647000D01*
X49381843Y58723400D01*
X49374487Y58798089D01*
X49352701Y58869908D01*
X49317322Y58936096D01*
X49269711Y58994111D01*
X49211696Y59041722D01*
X49145508Y59077101D01*
X49073689Y59098887D01*
X48999000Y59106243D01*
X46796394Y59106243D01*
X46562080Y59340557D01*
X48999000Y59340557D01*
X49073689Y59347913D01*
X49145508Y59369699D01*
X49211696Y59405078D01*
X49269711Y59452689D01*
X49317322Y59510704D01*
X49352701Y59576892D01*
X49374487Y59648711D01*
X49381843Y59723400D01*
X49381843Y59745200D01*
X51639364Y59745200D01*
X53931413Y57453150D01*
X53951088Y57354236D01*
X53996770Y57243951D01*
X54063089Y57144698D01*
X54147498Y57060289D01*
X54246751Y56993970D01*
X54357036Y56948288D01*
X54474114Y56925000D01*
X54593486Y56925000D01*
X54710564Y56948288D01*
X54820849Y56993970D01*
X54920102Y57060289D01*
X55004511Y57144698D01*
X55070830Y57243951D01*
X55116512Y57354236D01*
X55139800Y57471314D01*
X55139800Y57590686D01*
X55116512Y57707764D01*
X55070830Y57818049D01*
X55004511Y57917302D01*
X54920102Y58001711D01*
X54820849Y58068030D01*
X54710564Y58113712D01*
X54611650Y58133387D01*
X52195430Y60549606D01*
X52180364Y60567964D01*
X52107122Y60628072D01*
X52023561Y60672736D01*
X51932892Y60700240D01*
X51862226Y60707200D01*
X51838600Y60709527D01*
X51814974Y60707200D01*
X49381843Y60707200D01*
X49381843Y60723400D01*
X49374487Y60798089D01*
X49352701Y60869908D01*
X49317322Y60936096D01*
X49269711Y60994111D01*
X49211696Y61041722D01*
X49145508Y61077101D01*
X49073689Y61098887D01*
X48999000Y61106243D01*
X46499000Y61106243D01*
X46424311Y61098887D01*
X46352492Y61077101D01*
X46286304Y61041722D01*
X46228289Y60994111D01*
X46219381Y60983256D01*
X45769727Y61432909D01*
X45771168Y61433051D01*
X45827091Y61438559D01*
X45844447Y61443824D01*
X45917760Y61466063D01*
X46001321Y61510727D01*
X46074563Y61570835D01*
X46089629Y61589193D01*
X46129479Y61629043D01*
X46145299Y61576892D01*
X46180678Y61510704D01*
X46228289Y61452689D01*
X46286304Y61405078D01*
X46352492Y61369699D01*
X46424311Y61347913D01*
X46499000Y61340557D01*
X48999000Y61340557D01*
X49073689Y61347913D01*
X49145508Y61369699D01*
X49211696Y61405078D01*
X49269711Y61452689D01*
X49311320Y61503390D01*
X49946497Y61503390D01*
X50030351Y61447360D01*
X50140636Y61401678D01*
X50257714Y61378390D01*
X50377086Y61378390D01*
X50494164Y61401678D01*
X50604449Y61447360D01*
X50703702Y61513679D01*
X50788111Y61598088D01*
X50854430Y61697341D01*
X50900112Y61807626D01*
X50923400Y61924704D01*
X50923400Y62044076D01*
X50900112Y62161154D01*
X50854430Y62271439D01*
X50788111Y62370692D01*
X50703702Y62455101D01*
X50604449Y62521420D01*
X50494164Y62567102D01*
X50377086Y62590390D01*
X50257714Y62590390D01*
X50140636Y62567102D01*
X50030351Y62521420D01*
X49946497Y62465390D01*
X49381843Y62465390D01*
X49381843Y62723400D01*
X49374487Y62798089D01*
X49352701Y62869908D01*
X49317322Y62936096D01*
X49269711Y62994111D01*
X49211696Y63041722D01*
X49145508Y63077101D01*
X49073689Y63098887D01*
X48999000Y63106243D01*
X46499000Y63106243D01*
X46424311Y63098887D01*
X46352492Y63077101D01*
X46286304Y63041722D01*
X46228289Y62994111D01*
X46180678Y62936096D01*
X46145299Y62869908D01*
X46123513Y62798089D01*
X46116157Y62723400D01*
X46116157Y62704400D01*
X46067226Y62704400D01*
X46043600Y62706727D01*
X45949307Y62697440D01*
X45929703Y62691493D01*
X45858639Y62669936D01*
X45775078Y62625272D01*
X45701836Y62565164D01*
X45686770Y62546806D01*
X45533563Y62393599D01*
X44885204Y62393599D01*
X44884200Y62615350D01*
X44789950Y62709600D01*
X44060200Y62709600D01*
X44060200Y62689600D01*
X44054200Y62689600D01*
X44054200Y62709600D01*
X43324450Y62709600D01*
X43230200Y62615350D01*
X43229196Y62393599D01*
X40690043Y62393599D01*
X40690043Y63139603D01*
X40730278Y63131600D01*
X40884122Y63131600D01*
X41035009Y63161613D01*
X41177142Y63220487D01*
X41305059Y63305958D01*
X41413842Y63414741D01*
X41499313Y63542658D01*
X41558187Y63684791D01*
X41588200Y63835678D01*
X41588200Y63989522D01*
X42326200Y63989522D01*
X42326200Y63835678D01*
X42356213Y63684791D01*
X42415087Y63542658D01*
X42500558Y63414741D01*
X42609341Y63305958D01*
X42737258Y63220487D01*
X42879391Y63161613D01*
X43030278Y63131600D01*
X43184122Y63131600D01*
X43228703Y63140468D01*
X43230200Y62809850D01*
X43324450Y62715600D01*
X44054200Y62715600D01*
X44054200Y63495350D01*
X44060200Y63495350D01*
X44060200Y62715600D01*
X44789950Y62715600D01*
X44884200Y62809850D01*
X44886024Y63212600D01*
X44878745Y63286505D01*
X44857188Y63357570D01*
X44822181Y63423063D01*
X44775069Y63480469D01*
X44717663Y63527581D01*
X44652170Y63562588D01*
X44581105Y63584145D01*
X44507200Y63591424D01*
X44154450Y63589600D01*
X44060200Y63495350D01*
X44054200Y63495350D01*
X43959950Y63589600D01*
X43819059Y63590329D01*
X43858187Y63684791D01*
X43888200Y63835678D01*
X43888200Y63989522D01*
X43858187Y64140409D01*
X43799313Y64282542D01*
X43779229Y64312600D01*
X44253376Y64312600D01*
X44260655Y64238695D01*
X44282212Y64167630D01*
X44317219Y64102137D01*
X44364331Y64044731D01*
X44421737Y63997619D01*
X44487230Y63962612D01*
X44558295Y63941055D01*
X44632200Y63933776D01*
X45259950Y63935600D01*
X45354200Y64029850D01*
X45354200Y64809600D01*
X44349450Y64809600D01*
X44255200Y64715350D01*
X44253376Y64312600D01*
X43779229Y64312600D01*
X43713842Y64410459D01*
X43605059Y64519242D01*
X43477142Y64604713D01*
X43335009Y64663587D01*
X43184122Y64693600D01*
X43030278Y64693600D01*
X42879391Y64663587D01*
X42737258Y64604713D01*
X42609341Y64519242D01*
X42500558Y64410459D01*
X42415087Y64282542D01*
X42356213Y64140409D01*
X42326200Y63989522D01*
X41588200Y63989522D01*
X41558187Y64140409D01*
X41499313Y64282542D01*
X41413842Y64410459D01*
X41305059Y64519242D01*
X41177142Y64604713D01*
X41035009Y64663587D01*
X40884122Y64693600D01*
X40730278Y64693600D01*
X40579391Y64663587D01*
X40437258Y64604713D01*
X40309341Y64519242D01*
X40200558Y64410459D01*
X40115087Y64282542D01*
X40056213Y64140409D01*
X40026200Y63989522D01*
X40026200Y63835678D01*
X40056213Y63684791D01*
X40093223Y63595443D01*
X39407200Y63595443D01*
X39332511Y63588087D01*
X39260692Y63566301D01*
X39194504Y63530922D01*
X39136489Y63483311D01*
X39088878Y63425296D01*
X39053499Y63359108D01*
X39031713Y63287289D01*
X39027489Y63244400D01*
X38809409Y63244400D01*
X38785785Y63246727D01*
X38762161Y63244400D01*
X38762160Y63244400D01*
X38691494Y63237440D01*
X38600825Y63209936D01*
X38566534Y63191607D01*
X38548307Y63191607D01*
X38431229Y63168319D01*
X38320944Y63122637D01*
X38221691Y63056318D01*
X38137282Y62971909D01*
X38070963Y62872656D01*
X38025281Y62762371D01*
X38001993Y62645293D01*
X38001993Y62525921D01*
X38025281Y62408843D01*
X38031595Y62393599D01*
X35567004Y62393599D01*
X35566000Y62615350D01*
X35471750Y62709600D01*
X34742000Y62709600D01*
X34742000Y62689600D01*
X34736000Y62689600D01*
X34736000Y62709600D01*
X34006250Y62709600D01*
X33912000Y62615350D01*
X33910996Y62393599D01*
X32573826Y62393599D01*
X32550199Y62395926D01*
X32455906Y62386639D01*
X32365237Y62359135D01*
X32320573Y62335261D01*
X32281677Y62314471D01*
X32208435Y62254363D01*
X32193369Y62236005D01*
X31986538Y62029174D01*
X31977112Y62076564D01*
X31931430Y62186849D01*
X31865111Y62286102D01*
X31780702Y62370511D01*
X31681449Y62436830D01*
X31571164Y62482512D01*
X31454086Y62505800D01*
X31371843Y62505800D01*
X31371843Y63139603D01*
X31412078Y63131600D01*
X31565922Y63131600D01*
X31716809Y63161613D01*
X31858942Y63220487D01*
X31986859Y63305958D01*
X32095642Y63414741D01*
X32181113Y63542658D01*
X32239987Y63684791D01*
X32270000Y63835678D01*
X32270000Y63989522D01*
X33008000Y63989522D01*
X33008000Y63835678D01*
X33038013Y63684791D01*
X33096887Y63542658D01*
X33182358Y63414741D01*
X33291141Y63305958D01*
X33419058Y63220487D01*
X33561191Y63161613D01*
X33712078Y63131600D01*
X33865922Y63131600D01*
X33910503Y63140468D01*
X33912000Y62809850D01*
X34006250Y62715600D01*
X34736000Y62715600D01*
X34736000Y63495350D01*
X34742000Y63495350D01*
X34742000Y62715600D01*
X35471750Y62715600D01*
X35566000Y62809850D01*
X35567824Y63212600D01*
X35560545Y63286505D01*
X35538988Y63357570D01*
X35503981Y63423063D01*
X35456869Y63480469D01*
X35399463Y63527581D01*
X35333970Y63562588D01*
X35262905Y63584145D01*
X35189000Y63591424D01*
X34836250Y63589600D01*
X34742000Y63495350D01*
X34736000Y63495350D01*
X34641750Y63589600D01*
X34500859Y63590329D01*
X34539987Y63684791D01*
X34570000Y63835678D01*
X34570000Y63989522D01*
X34539987Y64140409D01*
X34481113Y64282542D01*
X34461029Y64312600D01*
X34935176Y64312600D01*
X34942455Y64238695D01*
X34964012Y64167630D01*
X34999019Y64102137D01*
X35046131Y64044731D01*
X35103537Y63997619D01*
X35169030Y63962612D01*
X35240095Y63941055D01*
X35314000Y63933776D01*
X35941750Y63935600D01*
X36036000Y64029850D01*
X36036000Y64809600D01*
X36042000Y64809600D01*
X36042000Y64029850D01*
X36136250Y63935600D01*
X36764000Y63933776D01*
X36837905Y63941055D01*
X36908970Y63962612D01*
X36974463Y63997619D01*
X37031869Y64044731D01*
X37078981Y64102137D01*
X37113988Y64167630D01*
X37135545Y64238695D01*
X37142824Y64312600D01*
X37453376Y64312600D01*
X37460655Y64238695D01*
X37482212Y64167630D01*
X37517219Y64102137D01*
X37564331Y64044731D01*
X37621737Y63997619D01*
X37687230Y63962612D01*
X37758295Y63941055D01*
X37832200Y63933776D01*
X38459950Y63935600D01*
X38554200Y64029850D01*
X38554200Y64809600D01*
X38560200Y64809600D01*
X38560200Y64029850D01*
X38654450Y63935600D01*
X39282200Y63933776D01*
X39356105Y63941055D01*
X39427170Y63962612D01*
X39492663Y63997619D01*
X39550069Y64044731D01*
X39597181Y64102137D01*
X39632188Y64167630D01*
X39653745Y64238695D01*
X39661024Y64312600D01*
X39659200Y64715350D01*
X39564950Y64809600D01*
X38560200Y64809600D01*
X38554200Y64809600D01*
X37549450Y64809600D01*
X37455200Y64715350D01*
X37453376Y64312600D01*
X37142824Y64312600D01*
X37141000Y64715350D01*
X37046750Y64809600D01*
X36042000Y64809600D01*
X36036000Y64809600D01*
X35031250Y64809600D01*
X34937000Y64715350D01*
X34935176Y64312600D01*
X34461029Y64312600D01*
X34395642Y64410459D01*
X34286859Y64519242D01*
X34158942Y64604713D01*
X34016809Y64663587D01*
X33865922Y64693600D01*
X33712078Y64693600D01*
X33561191Y64663587D01*
X33419058Y64604713D01*
X33291141Y64519242D01*
X33182358Y64410459D01*
X33096887Y64282542D01*
X33038013Y64140409D01*
X33008000Y63989522D01*
X32270000Y63989522D01*
X32239987Y64140409D01*
X32181113Y64282542D01*
X32095642Y64410459D01*
X31986859Y64519242D01*
X31858942Y64604713D01*
X31716809Y64663587D01*
X31565922Y64693600D01*
X31412078Y64693600D01*
X31261191Y64663587D01*
X31119058Y64604713D01*
X30991141Y64519242D01*
X30882358Y64410459D01*
X30796887Y64282542D01*
X30738013Y64140409D01*
X30708000Y63989522D01*
X30708000Y63835678D01*
X30738013Y63684791D01*
X30775023Y63595443D01*
X30089000Y63595443D01*
X30014311Y63588087D01*
X29942492Y63566301D01*
X29876304Y63530922D01*
X29818289Y63483311D01*
X29770678Y63425296D01*
X29735299Y63359108D01*
X29713513Y63287289D01*
X29706157Y63212600D01*
X29706157Y63025394D01*
X29538551Y62857787D01*
X29439636Y62838112D01*
X29329351Y62792430D01*
X29230098Y62726111D01*
X29145689Y62641702D01*
X29079370Y62542449D01*
X29033688Y62432164D01*
X29010400Y62315086D01*
X29010400Y62195714D01*
X29033688Y62078636D01*
X29063991Y62005479D01*
X29027800Y62009043D01*
X28477800Y62009043D01*
X28364093Y61997844D01*
X28254756Y61964677D01*
X28153990Y61910816D01*
X28088659Y61857200D01*
X27276747Y61857200D01*
X27641904Y62222357D01*
X27707000Y62222357D01*
X27820707Y62233556D01*
X27930044Y62266723D01*
X28030810Y62320584D01*
X28119132Y62393068D01*
X28191616Y62481390D01*
X28245477Y62582156D01*
X28278644Y62691493D01*
X28289843Y62805200D01*
X28289843Y63205200D01*
X28278644Y63318907D01*
X28245477Y63428244D01*
X28191616Y63529010D01*
X28119132Y63617332D01*
X28030810Y63689816D01*
X27930044Y63743677D01*
X27820707Y63776844D01*
X27707000Y63788043D01*
X27164611Y63788043D01*
X27248925Y63872357D01*
X27707000Y63872357D01*
X27820707Y63883556D01*
X27930044Y63916723D01*
X28030810Y63970584D01*
X28119132Y64043068D01*
X28186630Y64125315D01*
X28199019Y64102137D01*
X28246131Y64044731D01*
X28303537Y63997619D01*
X28369030Y63962612D01*
X28440095Y63941055D01*
X28514000Y63933776D01*
X29141750Y63935600D01*
X29236000Y64029850D01*
X29236000Y64809600D01*
X29242000Y64809600D01*
X29242000Y64029850D01*
X29336250Y63935600D01*
X29964000Y63933776D01*
X30037905Y63941055D01*
X30108970Y63962612D01*
X30174463Y63997619D01*
X30231869Y64044731D01*
X30278981Y64102137D01*
X30313988Y64167630D01*
X30335545Y64238695D01*
X30342824Y64312600D01*
X30341000Y64715350D01*
X30246750Y64809600D01*
X29242000Y64809600D01*
X29236000Y64809600D01*
X29216000Y64809600D01*
X29216000Y64815600D01*
X29236000Y64815600D01*
X29236000Y64835600D01*
X29242000Y64835600D01*
X29242000Y64815600D01*
X30246750Y64815600D01*
X30341000Y64909850D01*
X30341809Y65088400D01*
X34936191Y65088400D01*
X34937000Y64909850D01*
G37*
%TD.AperFunction*%
D27*
X35693787Y52424376D02*
X35693793Y52424371D01*
X37288797Y50829366D01*
X37246507Y50727269D01*
X37199200Y50489443D01*
X37199200Y50246957D01*
X37246507Y50009131D01*
X37339302Y49785103D01*
X37474020Y49583483D01*
X37645483Y49412020D01*
X37793378Y49313200D01*
X36527022Y49313200D01*
X36674917Y49412020D01*
X36846380Y49583483D01*
X36981098Y49785103D01*
X37073893Y50009131D01*
X37121200Y50246957D01*
X37121200Y50489443D01*
X37073893Y50727269D01*
X36981098Y50951297D01*
X36846380Y51152917D01*
X36674917Y51324380D01*
X36473297Y51459098D01*
X36249269Y51551893D01*
X36011443Y51599200D01*
X35768957Y51599200D01*
X35531131Y51551893D01*
X35429034Y51509603D01*
X34529375Y52409261D01*
X34529375Y53584531D01*
X34531714Y53586450D01*
X35693787Y52424376D01*
%TA.AperFunction,Conductor*%
D28*
G36*
X35693787Y52424376D02*
G01*
X35693793Y52424371D01*
X37288797Y50829366D01*
X37246507Y50727269D01*
X37199200Y50489443D01*
X37199200Y50246957D01*
X37246507Y50009131D01*
X37339302Y49785103D01*
X37474020Y49583483D01*
X37645483Y49412020D01*
X37793378Y49313200D01*
X36527022Y49313200D01*
X36674917Y49412020D01*
X36846380Y49583483D01*
X36981098Y49785103D01*
X37073893Y50009131D01*
X37121200Y50246957D01*
X37121200Y50489443D01*
X37073893Y50727269D01*
X36981098Y50951297D01*
X36846380Y51152917D01*
X36674917Y51324380D01*
X36473297Y51459098D01*
X36249269Y51551893D01*
X36011443Y51599200D01*
X35768957Y51599200D01*
X35531131Y51551893D01*
X35429034Y51509603D01*
X34529375Y52409261D01*
X34529375Y53584531D01*
X34531714Y53586450D01*
X35693787Y52424376D01*
G37*
%TD.AperFunction*%
D27*
X30068704Y52995322D02*
X30160815Y52919729D01*
X30265903Y52863558D01*
X30379930Y52828969D01*
X30498514Y52817289D01*
X30617098Y52828969D01*
X30629817Y52832827D01*
X30608146Y52792284D01*
X30586589Y52721220D01*
X30579310Y52647314D01*
X30586589Y52573409D01*
X30608146Y52502345D01*
X30643154Y52436851D01*
X30690265Y52379445D01*
X30940987Y52131303D01*
X31074277Y52131303D01*
X31607965Y52664992D01*
X31593823Y52679134D01*
X31598066Y52683377D01*
X31612208Y52669235D01*
X31626350Y52683377D01*
X31630593Y52679134D01*
X31616451Y52664992D01*
X31630593Y52650850D01*
X31626350Y52646607D01*
X31612208Y52660749D01*
X31078519Y52127061D01*
X31078519Y51993771D01*
X31326661Y51743049D01*
X31384067Y51695938D01*
X31449561Y51660930D01*
X31520625Y51639373D01*
X31594530Y51632094D01*
X31668436Y51639373D01*
X31739500Y51660930D01*
X31804994Y51695938D01*
X31862399Y51743049D01*
X32128219Y52011449D01*
X32128219Y52144736D01*
X32183400Y52089555D01*
X32183400Y51837437D01*
X31632630Y51286667D01*
X31594917Y51324380D01*
X31393297Y51459098D01*
X31169269Y51551893D01*
X30931443Y51599200D01*
X30688957Y51599200D01*
X30451131Y51551893D01*
X30227103Y51459098D01*
X30025483Y51324380D01*
X29854020Y51152917D01*
X29719302Y50951297D01*
X29626507Y50727269D01*
X29579200Y50489443D01*
X29579200Y50246957D01*
X29626507Y50009131D01*
X29719302Y49785103D01*
X29854020Y49583483D01*
X30025483Y49412020D01*
X30173378Y49313200D01*
X28907022Y49313200D01*
X29054917Y49412020D01*
X29226380Y49583483D01*
X29361098Y49785103D01*
X29453893Y50009131D01*
X29501200Y50246957D01*
X29501200Y50489443D01*
X29465133Y50670764D01*
X29507269Y50712900D01*
X29531343Y50732657D01*
X29561081Y50768892D01*
X29610196Y50828739D01*
X29668789Y50938358D01*
X29704870Y51057302D01*
X29706820Y51077101D01*
X29714000Y51150002D01*
X29714000Y51150009D01*
X29717052Y51181000D01*
X29714000Y51211990D01*
X29714000Y53230008D01*
X29834018Y53230008D01*
X30068704Y52995322D01*
%TA.AperFunction,Conductor*%
D28*
G36*
X30068704Y52995322D02*
G01*
X30160815Y52919729D01*
X30265903Y52863558D01*
X30379930Y52828969D01*
X30498514Y52817289D01*
X30617098Y52828969D01*
X30629817Y52832827D01*
X30608146Y52792284D01*
X30586589Y52721220D01*
X30579310Y52647314D01*
X30586589Y52573409D01*
X30608146Y52502345D01*
X30643154Y52436851D01*
X30690265Y52379445D01*
X30940987Y52131303D01*
X31074277Y52131303D01*
X31607965Y52664992D01*
X31593823Y52679134D01*
X31598066Y52683377D01*
X31612208Y52669235D01*
X31626350Y52683377D01*
X31630593Y52679134D01*
X31616451Y52664992D01*
X31630593Y52650850D01*
X31626350Y52646607D01*
X31612208Y52660749D01*
X31078519Y52127061D01*
X31078519Y51993771D01*
X31326661Y51743049D01*
X31384067Y51695938D01*
X31449561Y51660930D01*
X31520625Y51639373D01*
X31594530Y51632094D01*
X31668436Y51639373D01*
X31739500Y51660930D01*
X31804994Y51695938D01*
X31862399Y51743049D01*
X32128219Y52011449D01*
X32128219Y52144736D01*
X32183400Y52089555D01*
X32183400Y51837437D01*
X31632630Y51286667D01*
X31594917Y51324380D01*
X31393297Y51459098D01*
X31169269Y51551893D01*
X30931443Y51599200D01*
X30688957Y51599200D01*
X30451131Y51551893D01*
X30227103Y51459098D01*
X30025483Y51324380D01*
X29854020Y51152917D01*
X29719302Y50951297D01*
X29626507Y50727269D01*
X29579200Y50489443D01*
X29579200Y50246957D01*
X29626507Y50009131D01*
X29719302Y49785103D01*
X29854020Y49583483D01*
X30025483Y49412020D01*
X30173378Y49313200D01*
X28907022Y49313200D01*
X29054917Y49412020D01*
X29226380Y49583483D01*
X29361098Y49785103D01*
X29453893Y50009131D01*
X29501200Y50246957D01*
X29501200Y50489443D01*
X29465133Y50670764D01*
X29507269Y50712900D01*
X29531343Y50732657D01*
X29561081Y50768892D01*
X29610196Y50828739D01*
X29668789Y50938358D01*
X29704870Y51057302D01*
X29706820Y51077101D01*
X29714000Y51150002D01*
X29714000Y51150009D01*
X29717052Y51181000D01*
X29714000Y51211990D01*
X29714000Y53230008D01*
X29834018Y53230008D01*
X30068704Y52995322D01*
G37*
%TD.AperFunction*%
D27*
X25212234Y65036043D02*
X25117282Y64958118D01*
X25039357Y64863166D01*
X24981454Y64754837D01*
X24945797Y64637292D01*
X24933757Y64515050D01*
X24933757Y63602550D01*
X24945797Y63480308D01*
X24981454Y63362763D01*
X25039357Y63254434D01*
X25117282Y63159482D01*
X25212234Y63081557D01*
X25320563Y63023654D01*
X25438108Y62987997D01*
X25560350Y62975957D01*
X26047850Y62975957D01*
X26170092Y62987997D01*
X26287637Y63023654D01*
X26395966Y63081557D01*
X26490918Y63159482D01*
X26568843Y63254434D01*
X26581302Y63277743D01*
X26574157Y63205200D01*
X26574157Y62805200D01*
X26585356Y62691493D01*
X26590893Y62673240D01*
X25774854Y61857200D01*
X25138390Y61857200D01*
X25107400Y61860252D01*
X25076409Y61857200D01*
X25076402Y61857200D01*
X24983702Y61848070D01*
X24864758Y61811989D01*
X24755139Y61753396D01*
X24659057Y61674543D01*
X24639295Y61650463D01*
X24414168Y61425336D01*
X24387340Y61410996D01*
X24291257Y61332143D01*
X24212404Y61236060D01*
X24153811Y61126441D01*
X24117730Y61007497D01*
X24105548Y60883800D01*
X24117730Y60760103D01*
X24134000Y60706467D01*
X24134000Y60414751D01*
X24110190Y60395210D01*
X24034597Y60303099D01*
X23978426Y60198011D01*
X23943837Y60083984D01*
X23932157Y59965400D01*
X23932157Y59465400D01*
X23943837Y59346816D01*
X23971401Y59255949D01*
X23971401Y58982311D01*
X23959078Y58967296D01*
X23923699Y58901108D01*
X23901913Y58829289D01*
X23894557Y58754600D01*
X23894557Y58644826D01*
X23807449Y58703030D01*
X23697164Y58748712D01*
X23580086Y58772000D01*
X23460714Y58772000D01*
X23449043Y58769679D01*
X23449043Y58855200D01*
X23441687Y58929889D01*
X23419901Y59001708D01*
X23384522Y59067896D01*
X23336911Y59125911D01*
X23278896Y59173522D01*
X23212708Y59208901D01*
X23140889Y59230687D01*
X23066200Y59238043D01*
X20266200Y59238043D01*
X20191511Y59230687D01*
X20119692Y59208901D01*
X20053504Y59173522D01*
X20052911Y59173036D01*
X20063344Y59198222D01*
X20097200Y59368429D01*
X20097200Y59541971D01*
X20080265Y59627108D01*
X20121230Y59605212D01*
X20192295Y59583655D01*
X20266200Y59576376D01*
X21568950Y59578200D01*
X21663200Y59672450D01*
X21663200Y60652200D01*
X21669200Y60652200D01*
X21669200Y59672450D01*
X21763450Y59578200D01*
X23066200Y59576376D01*
X23140105Y59583655D01*
X23211170Y59605212D01*
X23276663Y59640219D01*
X23334069Y59687331D01*
X23381181Y59744737D01*
X23416188Y59810230D01*
X23437745Y59881295D01*
X23445024Y59955200D01*
X23443200Y60557950D01*
X23348950Y60652200D01*
X21669200Y60652200D01*
X21663200Y60652200D01*
X19983450Y60652200D01*
X19889200Y60557950D01*
X19887602Y60029721D01*
X19777805Y60139518D01*
X19633510Y60235932D01*
X19473178Y60302344D01*
X19302971Y60336200D01*
X19129429Y60336200D01*
X18959222Y60302344D01*
X18798890Y60235932D01*
X18654595Y60139518D01*
X18531882Y60016805D01*
X18435468Y59872510D01*
X18369056Y59712178D01*
X18335200Y59541971D01*
X18335200Y59368429D01*
X18369056Y59198222D01*
X18435468Y59037890D01*
X18531882Y58893595D01*
X18654595Y58770882D01*
X18798890Y58674468D01*
X18959222Y58608056D01*
X19129429Y58574200D01*
X19302971Y58574200D01*
X19473178Y58608056D01*
X19633510Y58674468D01*
X19777805Y58770882D01*
X19885677Y58878754D01*
X19883357Y58855200D01*
X19883357Y57455200D01*
X19890713Y57380511D01*
X19912499Y57308692D01*
X19947878Y57242504D01*
X19995489Y57184489D01*
X20031178Y57155200D01*
X19995489Y57125911D01*
X19947878Y57067896D01*
X19912499Y57001708D01*
X19890713Y56929889D01*
X19883357Y56855200D01*
X19883357Y55455200D01*
X19885677Y55431646D01*
X19777805Y55539518D01*
X19633510Y55635932D01*
X19473178Y55702344D01*
X19302971Y55736200D01*
X19129429Y55736200D01*
X18959222Y55702344D01*
X18798890Y55635932D01*
X18654595Y55539518D01*
X18531882Y55416805D01*
X18435468Y55272510D01*
X18369056Y55112178D01*
X18335200Y54941971D01*
X18335200Y54768429D01*
X18369056Y54598222D01*
X18435468Y54437890D01*
X18531882Y54293595D01*
X18654595Y54170882D01*
X18798890Y54074468D01*
X18959222Y54008056D01*
X19129429Y53974200D01*
X19302971Y53974200D01*
X19473178Y54008056D01*
X19633510Y54074468D01*
X19777805Y54170882D01*
X19883357Y54276434D01*
X19883357Y52955200D01*
X19890713Y52880511D01*
X19912499Y52808692D01*
X19947878Y52742504D01*
X19995489Y52684489D01*
X20053504Y52636878D01*
X20119692Y52601499D01*
X20179157Y52583460D01*
X19313450Y52582200D01*
X19219200Y52487950D01*
X19219200Y51458200D01*
X20848950Y51458200D01*
X20943200Y51552450D01*
X20945024Y52205200D01*
X20937745Y52279105D01*
X20916188Y52350170D01*
X20881181Y52415663D01*
X20834069Y52473069D01*
X20776663Y52520181D01*
X20711170Y52555188D01*
X20654571Y52572357D01*
X23066200Y52572357D01*
X23140889Y52579713D01*
X23212708Y52601499D01*
X23278896Y52636878D01*
X23336911Y52684489D01*
X23384522Y52742504D01*
X23419901Y52808692D01*
X23441687Y52880511D01*
X23449043Y52955200D01*
X23449043Y53024200D01*
X23830010Y53024200D01*
X23861000Y53021148D01*
X23891990Y53024200D01*
X23891998Y53024200D01*
X23984698Y53033330D01*
X24103642Y53069411D01*
X24213261Y53128004D01*
X24309343Y53206857D01*
X24329105Y53230937D01*
X24748726Y53650557D01*
X24990000Y53650557D01*
X25108584Y53662237D01*
X25222611Y53696826D01*
X25327699Y53752997D01*
X25419810Y53828590D01*
X25495403Y53920701D01*
X25501668Y53932421D01*
X25515012Y53888430D01*
X25550019Y53822937D01*
X25597131Y53765531D01*
X25654537Y53718419D01*
X25720030Y53683412D01*
X25791095Y53661855D01*
X25865000Y53654576D01*
X26217750Y53656400D01*
X26312000Y53750650D01*
X26312000Y54505400D01*
X26292000Y54505400D01*
X26292000Y54511400D01*
X26312000Y54511400D01*
X26312000Y54531400D01*
X26318000Y54531400D01*
X26318000Y54511400D01*
X27047750Y54511400D01*
X27142000Y54605650D01*
X27143824Y54983400D01*
X27136545Y55057305D01*
X27114988Y55128370D01*
X27079981Y55193863D01*
X27072553Y55202914D01*
X27098111Y55223889D01*
X27145722Y55281904D01*
X27181101Y55348092D01*
X27202887Y55419911D01*
X27210243Y55494600D01*
X27210243Y55773377D01*
X27453247Y55773377D01*
X27460526Y55699472D01*
X27482083Y55628408D01*
X27517090Y55562914D01*
X27564202Y55505508D01*
X27806085Y55266205D01*
X27939375Y55266205D01*
X28473063Y55799894D01*
X27965891Y56307066D01*
X27832601Y56307066D01*
X27564202Y56041247D01*
X27517090Y55983841D01*
X27482083Y55918347D01*
X27460526Y55847283D01*
X27453247Y55773377D01*
X27210243Y55773377D01*
X27210243Y56286733D01*
X27321514Y56264600D01*
X27440886Y56264600D01*
X27557964Y56287888D01*
X27668249Y56333570D01*
X27767502Y56399889D01*
X27812212Y56444599D01*
X27970134Y56444599D01*
X27970134Y56311309D01*
X28477306Y55804137D01*
X29010995Y56337825D01*
X29010995Y56471115D01*
X28771692Y56712998D01*
X28714286Y56760110D01*
X28648792Y56795117D01*
X28577728Y56816674D01*
X28503823Y56823953D01*
X28429917Y56816674D01*
X28358853Y56795117D01*
X28293359Y56760110D01*
X28235953Y56712998D01*
X27970134Y56444599D01*
X27812212Y56444599D01*
X27851911Y56484298D01*
X27918230Y56583551D01*
X27963912Y56693836D01*
X27983587Y56792751D01*
X28380212Y57189375D01*
X30346353Y57189375D01*
X30360328Y57175400D01*
X29985804Y56800876D01*
X29930420Y56733390D01*
X29889266Y56656396D01*
X29888790Y56654826D01*
X29359160Y56125196D01*
X29148527Y56333583D01*
X29015237Y56333583D01*
X28481549Y55799894D01*
X28495691Y55785752D01*
X28491448Y55781509D01*
X28477306Y55795651D01*
X27943617Y55261963D01*
X27943617Y55128673D01*
X28125945Y54944379D01*
X27134579Y53953013D01*
X27136545Y53959495D01*
X27143824Y54033400D01*
X27142000Y54411150D01*
X27047750Y54505400D01*
X26318000Y54505400D01*
X26318000Y53750650D01*
X26412250Y53656400D01*
X26765000Y53654576D01*
X26838905Y53661855D01*
X26909970Y53683412D01*
X26952979Y53706401D01*
X26947530Y53688439D01*
X26932560Y53639090D01*
X26923273Y53544798D01*
X26925600Y53521172D01*
X26925600Y53345992D01*
X26319360Y52739752D01*
X26240810Y52804216D01*
X26140044Y52858077D01*
X26030707Y52891244D01*
X25917000Y52902443D01*
X25517000Y52902443D01*
X25403293Y52891244D01*
X25293956Y52858077D01*
X25193190Y52804216D01*
X25104868Y52731732D01*
X25032384Y52643410D01*
X24978523Y52542644D01*
X24945356Y52433307D01*
X24934157Y52319600D01*
X24934157Y51769600D01*
X24945356Y51655893D01*
X24978523Y51546556D01*
X25032384Y51445790D01*
X25104868Y51357468D01*
X25193190Y51284984D01*
X25238611Y51260706D01*
X25171630Y51240388D01*
X25106137Y51205381D01*
X25048731Y51158269D01*
X25001619Y51100863D01*
X24966612Y51035370D01*
X24945055Y50964305D01*
X24937776Y50890400D01*
X24939600Y50287650D01*
X25033850Y50193400D01*
X25801100Y50193400D01*
X25801100Y50213400D01*
X25807100Y50213400D01*
X25807100Y50193400D01*
X26574350Y50193400D01*
X26668600Y50287650D01*
X26670424Y50890400D01*
X26663145Y50964305D01*
X26641588Y51035370D01*
X26606581Y51100863D01*
X26559469Y51158269D01*
X26502063Y51205381D01*
X26436570Y51240388D01*
X26365505Y51261945D01*
X26291600Y51269224D01*
X26210617Y51268845D01*
X26240810Y51284984D01*
X26329132Y51357468D01*
X26401616Y51445790D01*
X26455477Y51546556D01*
X26456936Y51551365D01*
X26534375Y51574855D01*
X26622279Y51621841D01*
X26699327Y51685073D01*
X26715176Y51704385D01*
X27781970Y52771178D01*
X27829358Y52828921D01*
X27876345Y52916825D01*
X27905278Y53012207D01*
X27915047Y53111399D01*
X27905278Y53210592D01*
X27887600Y53268870D01*
X27887600Y53345562D01*
X28805663Y54263624D01*
X28829734Y54234293D01*
X28874025Y54190002D01*
X28840359Y54179789D01*
X28730740Y54121196D01*
X28634658Y54042343D01*
X28555805Y53946261D01*
X28497212Y53836642D01*
X28461131Y53717698D01*
X28452001Y53624998D01*
X28452000Y51587154D01*
X28391443Y51599200D01*
X28148957Y51599200D01*
X27911131Y51551893D01*
X27687103Y51459098D01*
X27485483Y51324380D01*
X27314020Y51152917D01*
X27179302Y50951297D01*
X27086507Y50727269D01*
X27039200Y50489443D01*
X27039200Y50246957D01*
X27086507Y50009131D01*
X27179302Y49785103D01*
X27314020Y49583483D01*
X27485483Y49412020D01*
X27633378Y49313200D01*
X26624361Y49313200D01*
X26641588Y49345430D01*
X26663145Y49416495D01*
X26670424Y49490400D01*
X26668600Y50093150D01*
X26574350Y50187400D01*
X25807100Y50187400D01*
X25807100Y50167400D01*
X25801100Y50167400D01*
X25801100Y50187400D01*
X25033850Y50187400D01*
X24939600Y50093150D01*
X24937776Y49490400D01*
X24945055Y49416495D01*
X24966612Y49345430D01*
X24983839Y49313200D01*
X24634070Y49313200D01*
X24693843Y49386034D01*
X24751746Y49494363D01*
X24787403Y49611908D01*
X24799443Y49734150D01*
X24799443Y50646650D01*
X24787403Y50768892D01*
X24751746Y50886437D01*
X24693843Y50994766D01*
X24615918Y51089718D01*
X24520966Y51167643D01*
X24435100Y51213539D01*
X24435100Y51214456D01*
X24490044Y51231123D01*
X24590810Y51284984D01*
X24679132Y51357468D01*
X24751616Y51445790D01*
X24805477Y51546556D01*
X24838644Y51655893D01*
X24849843Y51769600D01*
X24849843Y52319600D01*
X24838644Y52433307D01*
X24805477Y52542644D01*
X24751616Y52643410D01*
X24679132Y52731732D01*
X24590810Y52804216D01*
X24490044Y52858077D01*
X24380707Y52891244D01*
X24267000Y52902443D01*
X23867000Y52902443D01*
X23753293Y52891244D01*
X23643956Y52858077D01*
X23543190Y52804216D01*
X23454868Y52731732D01*
X23382384Y52643410D01*
X23328523Y52542644D01*
X23295356Y52433307D01*
X23284157Y52319600D01*
X23284157Y51769600D01*
X23295356Y51655893D01*
X23328523Y51546556D01*
X23382384Y51445790D01*
X23423101Y51396177D01*
X23423101Y51213540D01*
X23337234Y51167643D01*
X23242282Y51089718D01*
X23164357Y50994766D01*
X23106454Y50886437D01*
X23070797Y50768892D01*
X23058757Y50646650D01*
X23058757Y49734150D01*
X23070797Y49611908D01*
X23076690Y49592480D01*
X23054553Y49633423D01*
X23024561Y49730310D01*
X23012000Y49849820D01*
X23012000Y50435659D01*
X23013964Y50455600D01*
X23006125Y50535190D01*
X22982910Y50611721D01*
X22945210Y50682253D01*
X22894474Y50744074D01*
X22832653Y50794810D01*
X22762121Y50832510D01*
X22685590Y50855725D01*
X22625941Y50861600D01*
X22625940Y50861600D01*
X22606000Y50863564D01*
X22586059Y50861600D01*
X20944587Y50861600D01*
X20943200Y51357950D01*
X20848950Y51452200D01*
X19219200Y51452200D01*
X19219200Y51432200D01*
X19213200Y51432200D01*
X19213200Y51452200D01*
X17583450Y51452200D01*
X17489200Y51357950D01*
X17487813Y50861600D01*
X16662000Y50861600D01*
X16662000Y52205200D01*
X17487376Y52205200D01*
X17489200Y51552450D01*
X17583450Y51458200D01*
X19213200Y51458200D01*
X19213200Y52487950D01*
X19118950Y52582200D01*
X17866200Y52584024D01*
X17792295Y52576745D01*
X17721230Y52555188D01*
X17655737Y52520181D01*
X17598331Y52473069D01*
X17551219Y52415663D01*
X17516212Y52350170D01*
X17494655Y52279105D01*
X17487376Y52205200D01*
X16662000Y52205200D01*
X16662000Y62105200D01*
X17487376Y62105200D01*
X17494655Y62031295D01*
X17516212Y61960230D01*
X17551219Y61894737D01*
X17598331Y61837331D01*
X17655737Y61790219D01*
X17721230Y61755212D01*
X17792295Y61733655D01*
X17866200Y61726376D01*
X19118950Y61728200D01*
X19213200Y61822450D01*
X19213200Y62852200D01*
X19219200Y62852200D01*
X19219200Y61822450D01*
X19313450Y61728200D01*
X20194050Y61726918D01*
X20192295Y61726745D01*
X20121230Y61705188D01*
X20055737Y61670181D01*
X19998331Y61623069D01*
X19951219Y61565663D01*
X19916212Y61500170D01*
X19894655Y61429105D01*
X19887376Y61355200D01*
X19889200Y60752450D01*
X19983450Y60658200D01*
X21663200Y60658200D01*
X21663200Y61637950D01*
X21669200Y61637950D01*
X21669200Y60658200D01*
X23348950Y60658200D01*
X23443200Y60752450D01*
X23445024Y61355200D01*
X23437745Y61429105D01*
X23416188Y61500170D01*
X23381181Y61565663D01*
X23334069Y61623069D01*
X23276663Y61670181D01*
X23211170Y61705188D01*
X23140105Y61726745D01*
X23066200Y61734024D01*
X21763450Y61732200D01*
X21669200Y61637950D01*
X21663200Y61637950D01*
X21568950Y61732200D01*
X20638558Y61733503D01*
X20640105Y61733655D01*
X20711170Y61755212D01*
X20776663Y61790219D01*
X20834069Y61837331D01*
X20881181Y61894737D01*
X20916188Y61960230D01*
X20937745Y62031295D01*
X20945024Y62105200D01*
X20943200Y62757950D01*
X20848950Y62852200D01*
X19219200Y62852200D01*
X19213200Y62852200D01*
X17583450Y62852200D01*
X17489200Y62757950D01*
X17487376Y62105200D01*
X16662000Y62105200D01*
X16662000Y63540000D01*
X17487558Y63540000D01*
X17489200Y62952450D01*
X17583450Y62858200D01*
X19213200Y62858200D01*
X19213200Y62878200D01*
X19219200Y62878200D01*
X19219200Y62858200D01*
X20848950Y62858200D01*
X20943200Y62952450D01*
X20944335Y63358800D01*
X23062776Y63358800D01*
X23070055Y63284895D01*
X23091612Y63213830D01*
X23126619Y63148337D01*
X23173731Y63090931D01*
X23231137Y63043819D01*
X23296630Y63008812D01*
X23367695Y62987255D01*
X23441600Y62979976D01*
X23831850Y62981800D01*
X23926100Y63076050D01*
X23926100Y64055800D01*
X23932100Y64055800D01*
X23932100Y63076050D01*
X24026350Y62981800D01*
X24416600Y62979976D01*
X24490505Y62987255D01*
X24561570Y63008812D01*
X24627063Y63043819D01*
X24684469Y63090931D01*
X24731581Y63148337D01*
X24766588Y63213830D01*
X24788145Y63284895D01*
X24795424Y63358800D01*
X24793600Y63961550D01*
X24699350Y64055800D01*
X23932100Y64055800D01*
X23926100Y64055800D01*
X23158850Y64055800D01*
X23064600Y63961550D01*
X23062776Y63358800D01*
X20944335Y63358800D01*
X20944842Y63540000D01*
X22586059Y63540000D01*
X22606000Y63538036D01*
X22625940Y63540000D01*
X22625941Y63540000D01*
X22685590Y63545875D01*
X22762121Y63569090D01*
X22832653Y63606790D01*
X22894474Y63657526D01*
X22945210Y63719347D01*
X22982910Y63789879D01*
X23006125Y63866410D01*
X23013964Y63946000D01*
X23012000Y63965941D01*
X23012000Y64546949D01*
X23023843Y64667732D01*
X23053157Y64764825D01*
X23065691Y64788398D01*
X23062776Y64758800D01*
X23064600Y64156050D01*
X23158850Y64061800D01*
X23926100Y64061800D01*
X23926100Y64081800D01*
X23932100Y64081800D01*
X23932100Y64061800D01*
X24699350Y64061800D01*
X24793600Y64156050D01*
X24795424Y64758800D01*
X24788145Y64832705D01*
X24766588Y64903770D01*
X24731581Y64969263D01*
X24684469Y65026669D01*
X24627063Y65073781D01*
X24599713Y65088400D01*
X25310187Y65088400D01*
X25212234Y65036043D01*
%TA.AperFunction,Conductor*%
D28*
G36*
X25212234Y65036043D02*
G01*
X25117282Y64958118D01*
X25039357Y64863166D01*
X24981454Y64754837D01*
X24945797Y64637292D01*
X24933757Y64515050D01*
X24933757Y63602550D01*
X24945797Y63480308D01*
X24981454Y63362763D01*
X25039357Y63254434D01*
X25117282Y63159482D01*
X25212234Y63081557D01*
X25320563Y63023654D01*
X25438108Y62987997D01*
X25560350Y62975957D01*
X26047850Y62975957D01*
X26170092Y62987997D01*
X26287637Y63023654D01*
X26395966Y63081557D01*
X26490918Y63159482D01*
X26568843Y63254434D01*
X26581302Y63277743D01*
X26574157Y63205200D01*
X26574157Y62805200D01*
X26585356Y62691493D01*
X26590893Y62673240D01*
X25774854Y61857200D01*
X25138390Y61857200D01*
X25107400Y61860252D01*
X25076409Y61857200D01*
X25076402Y61857200D01*
X24983702Y61848070D01*
X24864758Y61811989D01*
X24755139Y61753396D01*
X24659057Y61674543D01*
X24639295Y61650463D01*
X24414168Y61425336D01*
X24387340Y61410996D01*
X24291257Y61332143D01*
X24212404Y61236060D01*
X24153811Y61126441D01*
X24117730Y61007497D01*
X24105548Y60883800D01*
X24117730Y60760103D01*
X24134000Y60706467D01*
X24134000Y60414751D01*
X24110190Y60395210D01*
X24034597Y60303099D01*
X23978426Y60198011D01*
X23943837Y60083984D01*
X23932157Y59965400D01*
X23932157Y59465400D01*
X23943837Y59346816D01*
X23971401Y59255949D01*
X23971401Y58982311D01*
X23959078Y58967296D01*
X23923699Y58901108D01*
X23901913Y58829289D01*
X23894557Y58754600D01*
X23894557Y58644826D01*
X23807449Y58703030D01*
X23697164Y58748712D01*
X23580086Y58772000D01*
X23460714Y58772000D01*
X23449043Y58769679D01*
X23449043Y58855200D01*
X23441687Y58929889D01*
X23419901Y59001708D01*
X23384522Y59067896D01*
X23336911Y59125911D01*
X23278896Y59173522D01*
X23212708Y59208901D01*
X23140889Y59230687D01*
X23066200Y59238043D01*
X20266200Y59238043D01*
X20191511Y59230687D01*
X20119692Y59208901D01*
X20053504Y59173522D01*
X20052911Y59173036D01*
X20063344Y59198222D01*
X20097200Y59368429D01*
X20097200Y59541971D01*
X20080265Y59627108D01*
X20121230Y59605212D01*
X20192295Y59583655D01*
X20266200Y59576376D01*
X21568950Y59578200D01*
X21663200Y59672450D01*
X21663200Y60652200D01*
X21669200Y60652200D01*
X21669200Y59672450D01*
X21763450Y59578200D01*
X23066200Y59576376D01*
X23140105Y59583655D01*
X23211170Y59605212D01*
X23276663Y59640219D01*
X23334069Y59687331D01*
X23381181Y59744737D01*
X23416188Y59810230D01*
X23437745Y59881295D01*
X23445024Y59955200D01*
X23443200Y60557950D01*
X23348950Y60652200D01*
X21669200Y60652200D01*
X21663200Y60652200D01*
X19983450Y60652200D01*
X19889200Y60557950D01*
X19887602Y60029721D01*
X19777805Y60139518D01*
X19633510Y60235932D01*
X19473178Y60302344D01*
X19302971Y60336200D01*
X19129429Y60336200D01*
X18959222Y60302344D01*
X18798890Y60235932D01*
X18654595Y60139518D01*
X18531882Y60016805D01*
X18435468Y59872510D01*
X18369056Y59712178D01*
X18335200Y59541971D01*
X18335200Y59368429D01*
X18369056Y59198222D01*
X18435468Y59037890D01*
X18531882Y58893595D01*
X18654595Y58770882D01*
X18798890Y58674468D01*
X18959222Y58608056D01*
X19129429Y58574200D01*
X19302971Y58574200D01*
X19473178Y58608056D01*
X19633510Y58674468D01*
X19777805Y58770882D01*
X19885677Y58878754D01*
X19883357Y58855200D01*
X19883357Y57455200D01*
X19890713Y57380511D01*
X19912499Y57308692D01*
X19947878Y57242504D01*
X19995489Y57184489D01*
X20031178Y57155200D01*
X19995489Y57125911D01*
X19947878Y57067896D01*
X19912499Y57001708D01*
X19890713Y56929889D01*
X19883357Y56855200D01*
X19883357Y55455200D01*
X19885677Y55431646D01*
X19777805Y55539518D01*
X19633510Y55635932D01*
X19473178Y55702344D01*
X19302971Y55736200D01*
X19129429Y55736200D01*
X18959222Y55702344D01*
X18798890Y55635932D01*
X18654595Y55539518D01*
X18531882Y55416805D01*
X18435468Y55272510D01*
X18369056Y55112178D01*
X18335200Y54941971D01*
X18335200Y54768429D01*
X18369056Y54598222D01*
X18435468Y54437890D01*
X18531882Y54293595D01*
X18654595Y54170882D01*
X18798890Y54074468D01*
X18959222Y54008056D01*
X19129429Y53974200D01*
X19302971Y53974200D01*
X19473178Y54008056D01*
X19633510Y54074468D01*
X19777805Y54170882D01*
X19883357Y54276434D01*
X19883357Y52955200D01*
X19890713Y52880511D01*
X19912499Y52808692D01*
X19947878Y52742504D01*
X19995489Y52684489D01*
X20053504Y52636878D01*
X20119692Y52601499D01*
X20179157Y52583460D01*
X19313450Y52582200D01*
X19219200Y52487950D01*
X19219200Y51458200D01*
X20848950Y51458200D01*
X20943200Y51552450D01*
X20945024Y52205200D01*
X20937745Y52279105D01*
X20916188Y52350170D01*
X20881181Y52415663D01*
X20834069Y52473069D01*
X20776663Y52520181D01*
X20711170Y52555188D01*
X20654571Y52572357D01*
X23066200Y52572357D01*
X23140889Y52579713D01*
X23212708Y52601499D01*
X23278896Y52636878D01*
X23336911Y52684489D01*
X23384522Y52742504D01*
X23419901Y52808692D01*
X23441687Y52880511D01*
X23449043Y52955200D01*
X23449043Y53024200D01*
X23830010Y53024200D01*
X23861000Y53021148D01*
X23891990Y53024200D01*
X23891998Y53024200D01*
X23984698Y53033330D01*
X24103642Y53069411D01*
X24213261Y53128004D01*
X24309343Y53206857D01*
X24329105Y53230937D01*
X24748726Y53650557D01*
X24990000Y53650557D01*
X25108584Y53662237D01*
X25222611Y53696826D01*
X25327699Y53752997D01*
X25419810Y53828590D01*
X25495403Y53920701D01*
X25501668Y53932421D01*
X25515012Y53888430D01*
X25550019Y53822937D01*
X25597131Y53765531D01*
X25654537Y53718419D01*
X25720030Y53683412D01*
X25791095Y53661855D01*
X25865000Y53654576D01*
X26217750Y53656400D01*
X26312000Y53750650D01*
X26312000Y54505400D01*
X26292000Y54505400D01*
X26292000Y54511400D01*
X26312000Y54511400D01*
X26312000Y54531400D01*
X26318000Y54531400D01*
X26318000Y54511400D01*
X27047750Y54511400D01*
X27142000Y54605650D01*
X27143824Y54983400D01*
X27136545Y55057305D01*
X27114988Y55128370D01*
X27079981Y55193863D01*
X27072553Y55202914D01*
X27098111Y55223889D01*
X27145722Y55281904D01*
X27181101Y55348092D01*
X27202887Y55419911D01*
X27210243Y55494600D01*
X27210243Y55773377D01*
X27453247Y55773377D01*
X27460526Y55699472D01*
X27482083Y55628408D01*
X27517090Y55562914D01*
X27564202Y55505508D01*
X27806085Y55266205D01*
X27939375Y55266205D01*
X28473063Y55799894D01*
X27965891Y56307066D01*
X27832601Y56307066D01*
X27564202Y56041247D01*
X27517090Y55983841D01*
X27482083Y55918347D01*
X27460526Y55847283D01*
X27453247Y55773377D01*
X27210243Y55773377D01*
X27210243Y56286733D01*
X27321514Y56264600D01*
X27440886Y56264600D01*
X27557964Y56287888D01*
X27668249Y56333570D01*
X27767502Y56399889D01*
X27812212Y56444599D01*
X27970134Y56444599D01*
X27970134Y56311309D01*
X28477306Y55804137D01*
X29010995Y56337825D01*
X29010995Y56471115D01*
X28771692Y56712998D01*
X28714286Y56760110D01*
X28648792Y56795117D01*
X28577728Y56816674D01*
X28503823Y56823953D01*
X28429917Y56816674D01*
X28358853Y56795117D01*
X28293359Y56760110D01*
X28235953Y56712998D01*
X27970134Y56444599D01*
X27812212Y56444599D01*
X27851911Y56484298D01*
X27918230Y56583551D01*
X27963912Y56693836D01*
X27983587Y56792751D01*
X28380212Y57189375D01*
X30346353Y57189375D01*
X30360328Y57175400D01*
X29985804Y56800876D01*
X29930420Y56733390D01*
X29889266Y56656396D01*
X29888790Y56654826D01*
X29359160Y56125196D01*
X29148527Y56333583D01*
X29015237Y56333583D01*
X28481549Y55799894D01*
X28495691Y55785752D01*
X28491448Y55781509D01*
X28477306Y55795651D01*
X27943617Y55261963D01*
X27943617Y55128673D01*
X28125945Y54944379D01*
X27134579Y53953013D01*
X27136545Y53959495D01*
X27143824Y54033400D01*
X27142000Y54411150D01*
X27047750Y54505400D01*
X26318000Y54505400D01*
X26318000Y53750650D01*
X26412250Y53656400D01*
X26765000Y53654576D01*
X26838905Y53661855D01*
X26909970Y53683412D01*
X26952979Y53706401D01*
X26947530Y53688439D01*
X26932560Y53639090D01*
X26923273Y53544798D01*
X26925600Y53521172D01*
X26925600Y53345992D01*
X26319360Y52739752D01*
X26240810Y52804216D01*
X26140044Y52858077D01*
X26030707Y52891244D01*
X25917000Y52902443D01*
X25517000Y52902443D01*
X25403293Y52891244D01*
X25293956Y52858077D01*
X25193190Y52804216D01*
X25104868Y52731732D01*
X25032384Y52643410D01*
X24978523Y52542644D01*
X24945356Y52433307D01*
X24934157Y52319600D01*
X24934157Y51769600D01*
X24945356Y51655893D01*
X24978523Y51546556D01*
X25032384Y51445790D01*
X25104868Y51357468D01*
X25193190Y51284984D01*
X25238611Y51260706D01*
X25171630Y51240388D01*
X25106137Y51205381D01*
X25048731Y51158269D01*
X25001619Y51100863D01*
X24966612Y51035370D01*
X24945055Y50964305D01*
X24937776Y50890400D01*
X24939600Y50287650D01*
X25033850Y50193400D01*
X25801100Y50193400D01*
X25801100Y50213400D01*
X25807100Y50213400D01*
X25807100Y50193400D01*
X26574350Y50193400D01*
X26668600Y50287650D01*
X26670424Y50890400D01*
X26663145Y50964305D01*
X26641588Y51035370D01*
X26606581Y51100863D01*
X26559469Y51158269D01*
X26502063Y51205381D01*
X26436570Y51240388D01*
X26365505Y51261945D01*
X26291600Y51269224D01*
X26210617Y51268845D01*
X26240810Y51284984D01*
X26329132Y51357468D01*
X26401616Y51445790D01*
X26455477Y51546556D01*
X26456936Y51551365D01*
X26534375Y51574855D01*
X26622279Y51621841D01*
X26699327Y51685073D01*
X26715176Y51704385D01*
X27781970Y52771178D01*
X27829358Y52828921D01*
X27876345Y52916825D01*
X27905278Y53012207D01*
X27915047Y53111399D01*
X27905278Y53210592D01*
X27887600Y53268870D01*
X27887600Y53345562D01*
X28805663Y54263624D01*
X28829734Y54234293D01*
X28874025Y54190002D01*
X28840359Y54179789D01*
X28730740Y54121196D01*
X28634658Y54042343D01*
X28555805Y53946261D01*
X28497212Y53836642D01*
X28461131Y53717698D01*
X28452001Y53624998D01*
X28452000Y51587154D01*
X28391443Y51599200D01*
X28148957Y51599200D01*
X27911131Y51551893D01*
X27687103Y51459098D01*
X27485483Y51324380D01*
X27314020Y51152917D01*
X27179302Y50951297D01*
X27086507Y50727269D01*
X27039200Y50489443D01*
X27039200Y50246957D01*
X27086507Y50009131D01*
X27179302Y49785103D01*
X27314020Y49583483D01*
X27485483Y49412020D01*
X27633378Y49313200D01*
X26624361Y49313200D01*
X26641588Y49345430D01*
X26663145Y49416495D01*
X26670424Y49490400D01*
X26668600Y50093150D01*
X26574350Y50187400D01*
X25807100Y50187400D01*
X25807100Y50167400D01*
X25801100Y50167400D01*
X25801100Y50187400D01*
X25033850Y50187400D01*
X24939600Y50093150D01*
X24937776Y49490400D01*
X24945055Y49416495D01*
X24966612Y49345430D01*
X24983839Y49313200D01*
X24634070Y49313200D01*
X24693843Y49386034D01*
X24751746Y49494363D01*
X24787403Y49611908D01*
X24799443Y49734150D01*
X24799443Y50646650D01*
X24787403Y50768892D01*
X24751746Y50886437D01*
X24693843Y50994766D01*
X24615918Y51089718D01*
X24520966Y51167643D01*
X24435100Y51213539D01*
X24435100Y51214456D01*
X24490044Y51231123D01*
X24590810Y51284984D01*
X24679132Y51357468D01*
X24751616Y51445790D01*
X24805477Y51546556D01*
X24838644Y51655893D01*
X24849843Y51769600D01*
X24849843Y52319600D01*
X24838644Y52433307D01*
X24805477Y52542644D01*
X24751616Y52643410D01*
X24679132Y52731732D01*
X24590810Y52804216D01*
X24490044Y52858077D01*
X24380707Y52891244D01*
X24267000Y52902443D01*
X23867000Y52902443D01*
X23753293Y52891244D01*
X23643956Y52858077D01*
X23543190Y52804216D01*
X23454868Y52731732D01*
X23382384Y52643410D01*
X23328523Y52542644D01*
X23295356Y52433307D01*
X23284157Y52319600D01*
X23284157Y51769600D01*
X23295356Y51655893D01*
X23328523Y51546556D01*
X23382384Y51445790D01*
X23423101Y51396177D01*
X23423101Y51213540D01*
X23337234Y51167643D01*
X23242282Y51089718D01*
X23164357Y50994766D01*
X23106454Y50886437D01*
X23070797Y50768892D01*
X23058757Y50646650D01*
X23058757Y49734150D01*
X23070797Y49611908D01*
X23076690Y49592480D01*
X23054553Y49633423D01*
X23024561Y49730310D01*
X23012000Y49849820D01*
X23012000Y50435659D01*
X23013964Y50455600D01*
X23006125Y50535190D01*
X22982910Y50611721D01*
X22945210Y50682253D01*
X22894474Y50744074D01*
X22832653Y50794810D01*
X22762121Y50832510D01*
X22685590Y50855725D01*
X22625941Y50861600D01*
X22625940Y50861600D01*
X22606000Y50863564D01*
X22586059Y50861600D01*
X20944587Y50861600D01*
X20943200Y51357950D01*
X20848950Y51452200D01*
X19219200Y51452200D01*
X19219200Y51432200D01*
X19213200Y51432200D01*
X19213200Y51452200D01*
X17583450Y51452200D01*
X17489200Y51357950D01*
X17487813Y50861600D01*
X16662000Y50861600D01*
X16662000Y52205200D01*
X17487376Y52205200D01*
X17489200Y51552450D01*
X17583450Y51458200D01*
X19213200Y51458200D01*
X19213200Y52487950D01*
X19118950Y52582200D01*
X17866200Y52584024D01*
X17792295Y52576745D01*
X17721230Y52555188D01*
X17655737Y52520181D01*
X17598331Y52473069D01*
X17551219Y52415663D01*
X17516212Y52350170D01*
X17494655Y52279105D01*
X17487376Y52205200D01*
X16662000Y52205200D01*
X16662000Y62105200D01*
X17487376Y62105200D01*
X17494655Y62031295D01*
X17516212Y61960230D01*
X17551219Y61894737D01*
X17598331Y61837331D01*
X17655737Y61790219D01*
X17721230Y61755212D01*
X17792295Y61733655D01*
X17866200Y61726376D01*
X19118950Y61728200D01*
X19213200Y61822450D01*
X19213200Y62852200D01*
X19219200Y62852200D01*
X19219200Y61822450D01*
X19313450Y61728200D01*
X20194050Y61726918D01*
X20192295Y61726745D01*
X20121230Y61705188D01*
X20055737Y61670181D01*
X19998331Y61623069D01*
X19951219Y61565663D01*
X19916212Y61500170D01*
X19894655Y61429105D01*
X19887376Y61355200D01*
X19889200Y60752450D01*
X19983450Y60658200D01*
X21663200Y60658200D01*
X21663200Y61637950D01*
X21669200Y61637950D01*
X21669200Y60658200D01*
X23348950Y60658200D01*
X23443200Y60752450D01*
X23445024Y61355200D01*
X23437745Y61429105D01*
X23416188Y61500170D01*
X23381181Y61565663D01*
X23334069Y61623069D01*
X23276663Y61670181D01*
X23211170Y61705188D01*
X23140105Y61726745D01*
X23066200Y61734024D01*
X21763450Y61732200D01*
X21669200Y61637950D01*
X21663200Y61637950D01*
X21568950Y61732200D01*
X20638558Y61733503D01*
X20640105Y61733655D01*
X20711170Y61755212D01*
X20776663Y61790219D01*
X20834069Y61837331D01*
X20881181Y61894737D01*
X20916188Y61960230D01*
X20937745Y62031295D01*
X20945024Y62105200D01*
X20943200Y62757950D01*
X20848950Y62852200D01*
X19219200Y62852200D01*
X19213200Y62852200D01*
X17583450Y62852200D01*
X17489200Y62757950D01*
X17487376Y62105200D01*
X16662000Y62105200D01*
X16662000Y63540000D01*
X17487558Y63540000D01*
X17489200Y62952450D01*
X17583450Y62858200D01*
X19213200Y62858200D01*
X19213200Y62878200D01*
X19219200Y62878200D01*
X19219200Y62858200D01*
X20848950Y62858200D01*
X20943200Y62952450D01*
X20944335Y63358800D01*
X23062776Y63358800D01*
X23070055Y63284895D01*
X23091612Y63213830D01*
X23126619Y63148337D01*
X23173731Y63090931D01*
X23231137Y63043819D01*
X23296630Y63008812D01*
X23367695Y62987255D01*
X23441600Y62979976D01*
X23831850Y62981800D01*
X23926100Y63076050D01*
X23926100Y64055800D01*
X23932100Y64055800D01*
X23932100Y63076050D01*
X24026350Y62981800D01*
X24416600Y62979976D01*
X24490505Y62987255D01*
X24561570Y63008812D01*
X24627063Y63043819D01*
X24684469Y63090931D01*
X24731581Y63148337D01*
X24766588Y63213830D01*
X24788145Y63284895D01*
X24795424Y63358800D01*
X24793600Y63961550D01*
X24699350Y64055800D01*
X23932100Y64055800D01*
X23926100Y64055800D01*
X23158850Y64055800D01*
X23064600Y63961550D01*
X23062776Y63358800D01*
X20944335Y63358800D01*
X20944842Y63540000D01*
X22586059Y63540000D01*
X22606000Y63538036D01*
X22625940Y63540000D01*
X22625941Y63540000D01*
X22685590Y63545875D01*
X22762121Y63569090D01*
X22832653Y63606790D01*
X22894474Y63657526D01*
X22945210Y63719347D01*
X22982910Y63789879D01*
X23006125Y63866410D01*
X23013964Y63946000D01*
X23012000Y63965941D01*
X23012000Y64546949D01*
X23023843Y64667732D01*
X23053157Y64764825D01*
X23065691Y64788398D01*
X23062776Y64758800D01*
X23064600Y64156050D01*
X23158850Y64061800D01*
X23926100Y64061800D01*
X23926100Y64081800D01*
X23932100Y64081800D01*
X23932100Y64061800D01*
X24699350Y64061800D01*
X24793600Y64156050D01*
X24795424Y64758800D01*
X24788145Y64832705D01*
X24766588Y64903770D01*
X24731581Y64969263D01*
X24684469Y65026669D01*
X24627063Y65073781D01*
X24599713Y65088400D01*
X25310187Y65088400D01*
X25212234Y65036043D01*
G37*
%TD.AperFunction*%
D27*
X43712683Y52615170D02*
X43729310Y52594910D01*
X43749570Y52578283D01*
X43810164Y52528554D01*
X43833049Y52516322D01*
X43902412Y52479247D01*
X44002506Y52448883D01*
X44080516Y52441200D01*
X44080527Y52441200D01*
X44106599Y52438632D01*
X44132671Y52441200D01*
X44712285Y52441200D01*
X44778868Y52360068D01*
X44867190Y52287584D01*
X44897094Y52271600D01*
X40077076Y52271600D01*
X40116865Y52320084D01*
X40152244Y52386272D01*
X40174030Y52458091D01*
X40181386Y52532780D01*
X40180723Y52539510D01*
X40187453Y52538847D01*
X40262142Y52546203D01*
X40333961Y52567989D01*
X40400149Y52603368D01*
X40458164Y52650979D01*
X40634940Y52827755D01*
X40682551Y52885770D01*
X40717930Y52951958D01*
X40739716Y53023777D01*
X40747072Y53098466D01*
X40746409Y53105195D01*
X40753138Y53104532D01*
X40827827Y53111888D01*
X40899646Y53133674D01*
X40965834Y53169053D01*
X41023849Y53216664D01*
X41200625Y53393440D01*
X41248236Y53451455D01*
X41283615Y53517643D01*
X41297594Y53563727D01*
X41419248Y53685381D01*
X41465332Y53699360D01*
X41531520Y53734739D01*
X41589535Y53782350D01*
X41766311Y53959126D01*
X41813922Y54017141D01*
X41849301Y54083329D01*
X41863280Y54129413D01*
X42030861Y54296993D01*
X43712683Y52615170D01*
%TA.AperFunction,Conductor*%
D28*
G36*
X43712683Y52615170D02*
G01*
X43729310Y52594910D01*
X43749570Y52578283D01*
X43810164Y52528554D01*
X43833049Y52516322D01*
X43902412Y52479247D01*
X44002506Y52448883D01*
X44080516Y52441200D01*
X44080527Y52441200D01*
X44106599Y52438632D01*
X44132671Y52441200D01*
X44712285Y52441200D01*
X44778868Y52360068D01*
X44867190Y52287584D01*
X44897094Y52271600D01*
X40077076Y52271600D01*
X40116865Y52320084D01*
X40152244Y52386272D01*
X40174030Y52458091D01*
X40181386Y52532780D01*
X40180723Y52539510D01*
X40187453Y52538847D01*
X40262142Y52546203D01*
X40333961Y52567989D01*
X40400149Y52603368D01*
X40458164Y52650979D01*
X40634940Y52827755D01*
X40682551Y52885770D01*
X40717930Y52951958D01*
X40739716Y53023777D01*
X40747072Y53098466D01*
X40746409Y53105195D01*
X40753138Y53104532D01*
X40827827Y53111888D01*
X40899646Y53133674D01*
X40965834Y53169053D01*
X41023849Y53216664D01*
X41200625Y53393440D01*
X41248236Y53451455D01*
X41283615Y53517643D01*
X41297594Y53563727D01*
X41419248Y53685381D01*
X41465332Y53699360D01*
X41531520Y53734739D01*
X41589535Y53782350D01*
X41766311Y53959126D01*
X41813922Y54017141D01*
X41849301Y54083329D01*
X41863280Y54129413D01*
X42030861Y54296993D01*
X43712683Y52615170D01*
G37*
%TD.AperFunction*%
D27*
X44991390Y57978875D02*
X44991391Y55367786D01*
X44967956Y55360677D01*
X44867190Y55306816D01*
X44778868Y55234332D01*
X44706384Y55146010D01*
X44652523Y55045244D01*
X44619356Y54935907D01*
X44608157Y54822200D01*
X44608157Y54422200D01*
X44619356Y54308493D01*
X44652523Y54199156D01*
X44706384Y54098390D01*
X44778868Y54010068D01*
X44867190Y53937584D01*
X44967956Y53883723D01*
X45077293Y53850556D01*
X45191000Y53839357D01*
X45741000Y53839357D01*
X45854707Y53850556D01*
X45964044Y53883723D01*
X46033641Y53920923D01*
X46054570Y53899994D01*
X46069636Y53881636D01*
X46116157Y53843457D01*
X46116157Y53723400D01*
X46123513Y53648711D01*
X46139698Y53595357D01*
X46064810Y53656816D01*
X45964044Y53710677D01*
X45854707Y53743844D01*
X45741000Y53755043D01*
X45191000Y53755043D01*
X45077293Y53743844D01*
X44967956Y53710677D01*
X44867190Y53656816D01*
X44778868Y53584332D01*
X44712285Y53503200D01*
X44326547Y53503200D01*
X42605728Y55224018D01*
X42571989Y55335242D01*
X42513396Y55444861D01*
X42434543Y55540943D01*
X42338461Y55619796D01*
X42228842Y55678389D01*
X42109898Y55714470D01*
X42017198Y55723600D01*
X41965097Y55723600D01*
X41934099Y55726653D01*
X41810401Y55714470D01*
X41691457Y55678389D01*
X41581838Y55619796D01*
X41512528Y55562914D01*
X41485756Y55540943D01*
X41465998Y55516868D01*
X41024889Y55075759D01*
X41024889Y55647696D01*
X41027215Y55671312D01*
X41024889Y55694928D01*
X41024889Y55694937D01*
X41017929Y55765603D01*
X40990425Y55856272D01*
X40945761Y55939833D01*
X40885653Y56013075D01*
X40867301Y56028136D01*
X39580819Y57314617D01*
X39565753Y57332975D01*
X39505801Y57382176D01*
X39747751Y57621801D01*
X39794862Y57679206D01*
X39829870Y57744700D01*
X39851427Y57815764D01*
X39858706Y57889670D01*
X39851427Y57963575D01*
X39829870Y58034639D01*
X39794862Y58100133D01*
X39747751Y58157539D01*
X39497029Y58405681D01*
X39363739Y58405681D01*
X38830051Y57871992D01*
X38844193Y57857850D01*
X38839950Y57853607D01*
X38825808Y57867749D01*
X38811666Y57853607D01*
X38807423Y57857850D01*
X38821565Y57871992D01*
X38807423Y57886134D01*
X38811666Y57890377D01*
X38825808Y57876235D01*
X39359497Y58409923D01*
X39359497Y58543213D01*
X39111355Y58793935D01*
X39053949Y58841046D01*
X38988455Y58876054D01*
X38917391Y58897611D01*
X38843486Y58904890D01*
X38769580Y58897611D01*
X38698516Y58876054D01*
X38657973Y58854383D01*
X38661831Y58867102D01*
X38673511Y58985686D01*
X38665436Y59067665D01*
X38740302Y59117689D01*
X38824711Y59202098D01*
X38891030Y59301351D01*
X38936712Y59411636D01*
X38960000Y59528714D01*
X38960000Y59648086D01*
X38936712Y59765164D01*
X38919805Y59805980D01*
X43164286Y59805980D01*
X44991390Y57978875D01*
%TA.AperFunction,Conductor*%
D28*
G36*
X44991390Y57978875D02*
G01*
X44991391Y55367786D01*
X44967956Y55360677D01*
X44867190Y55306816D01*
X44778868Y55234332D01*
X44706384Y55146010D01*
X44652523Y55045244D01*
X44619356Y54935907D01*
X44608157Y54822200D01*
X44608157Y54422200D01*
X44619356Y54308493D01*
X44652523Y54199156D01*
X44706384Y54098390D01*
X44778868Y54010068D01*
X44867190Y53937584D01*
X44967956Y53883723D01*
X45077293Y53850556D01*
X45191000Y53839357D01*
X45741000Y53839357D01*
X45854707Y53850556D01*
X45964044Y53883723D01*
X46033641Y53920923D01*
X46054570Y53899994D01*
X46069636Y53881636D01*
X46116157Y53843457D01*
X46116157Y53723400D01*
X46123513Y53648711D01*
X46139698Y53595357D01*
X46064810Y53656816D01*
X45964044Y53710677D01*
X45854707Y53743844D01*
X45741000Y53755043D01*
X45191000Y53755043D01*
X45077293Y53743844D01*
X44967956Y53710677D01*
X44867190Y53656816D01*
X44778868Y53584332D01*
X44712285Y53503200D01*
X44326547Y53503200D01*
X42605728Y55224018D01*
X42571989Y55335242D01*
X42513396Y55444861D01*
X42434543Y55540943D01*
X42338461Y55619796D01*
X42228842Y55678389D01*
X42109898Y55714470D01*
X42017198Y55723600D01*
X41965097Y55723600D01*
X41934099Y55726653D01*
X41810401Y55714470D01*
X41691457Y55678389D01*
X41581838Y55619796D01*
X41512528Y55562914D01*
X41485756Y55540943D01*
X41465998Y55516868D01*
X41024889Y55075759D01*
X41024889Y55647696D01*
X41027215Y55671312D01*
X41024889Y55694928D01*
X41024889Y55694937D01*
X41017929Y55765603D01*
X40990425Y55856272D01*
X40945761Y55939833D01*
X40885653Y56013075D01*
X40867301Y56028136D01*
X39580819Y57314617D01*
X39565753Y57332975D01*
X39505801Y57382176D01*
X39747751Y57621801D01*
X39794862Y57679206D01*
X39829870Y57744700D01*
X39851427Y57815764D01*
X39858706Y57889670D01*
X39851427Y57963575D01*
X39829870Y58034639D01*
X39794862Y58100133D01*
X39747751Y58157539D01*
X39497029Y58405681D01*
X39363739Y58405681D01*
X38830051Y57871992D01*
X38844193Y57857850D01*
X38839950Y57853607D01*
X38825808Y57867749D01*
X38811666Y57853607D01*
X38807423Y57857850D01*
X38821565Y57871992D01*
X38807423Y57886134D01*
X38811666Y57890377D01*
X38825808Y57876235D01*
X39359497Y58409923D01*
X39359497Y58543213D01*
X39111355Y58793935D01*
X39053949Y58841046D01*
X38988455Y58876054D01*
X38917391Y58897611D01*
X38843486Y58904890D01*
X38769580Y58897611D01*
X38698516Y58876054D01*
X38657973Y58854383D01*
X38661831Y58867102D01*
X38673511Y58985686D01*
X38665436Y59067665D01*
X38740302Y59117689D01*
X38824711Y59202098D01*
X38891030Y59301351D01*
X38936712Y59411636D01*
X38960000Y59528714D01*
X38960000Y59648086D01*
X38936712Y59765164D01*
X38919805Y59805980D01*
X43164286Y59805980D01*
X44991390Y57978875D01*
G37*
%TD.AperFunction*%
D27*
X31929401Y53554960D02*
X31897755Y53586935D01*
X31840349Y53634046D01*
X31783389Y53664493D01*
X31929401Y53810504D01*
X31929401Y53554960D01*
%TA.AperFunction,Conductor*%
D28*
G36*
X31929401Y53554960D02*
G01*
X31897755Y53586935D01*
X31840349Y53634046D01*
X31783389Y53664493D01*
X31929401Y53810504D01*
X31929401Y53554960D01*
G37*
%TD.AperFunction*%
D27*
X38170898Y54240889D02*
X38270151Y54174570D01*
X38328965Y54150208D01*
X38152510Y53973753D01*
X38104899Y53915738D01*
X38069520Y53849550D01*
X38047734Y53777731D01*
X38042097Y53720492D01*
X37779040Y53983549D01*
X37786837Y53985914D01*
X37852331Y54020922D01*
X37909737Y54068034D01*
X37930190Y54091067D01*
X37930190Y54224357D01*
X38063480Y54224357D01*
X38086513Y54244810D01*
X38122783Y54289004D01*
X38170898Y54240889D01*
%TA.AperFunction,Conductor*%
D28*
G36*
X38170898Y54240889D02*
G01*
X38270151Y54174570D01*
X38328965Y54150208D01*
X38152510Y53973753D01*
X38104899Y53915738D01*
X38069520Y53849550D01*
X38047734Y53777731D01*
X38042097Y53720492D01*
X37779040Y53983549D01*
X37786837Y53985914D01*
X37852331Y54020922D01*
X37909737Y54068034D01*
X37930190Y54091067D01*
X37930190Y54224357D01*
X38063480Y54224357D01*
X38086513Y54244810D01*
X38122783Y54289004D01*
X38170898Y54240889D01*
G37*
%TD.AperFunction*%
D27*
X37536509Y54650566D02*
X37503982Y54618039D01*
X37499740Y54622281D01*
X37532267Y54654808D01*
X37536509Y54650566D01*
%TA.AperFunction,Conductor*%
D28*
G36*
X37536509Y54650566D02*
G01*
X37503982Y54618039D01*
X37499740Y54622281D01*
X37532267Y54654808D01*
X37536509Y54650566D01*
G37*
%TD.AperFunction*%
D27*
X25549398Y55192701D02*
X25515012Y55128370D01*
X25501668Y55084379D01*
X25495403Y55096099D01*
X25467567Y55130017D01*
X25549398Y55211848D01*
X25549398Y55192701D01*
%TA.AperFunction,Conductor*%
D28*
G36*
X25549398Y55192701D02*
G01*
X25515012Y55128370D01*
X25501668Y55084379D01*
X25495403Y55096099D01*
X25467567Y55130017D01*
X25549398Y55211848D01*
X25549398Y55192701D01*
G37*
%TD.AperFunction*%
D27*
X25560552Y55206698D02*
X25555402Y55200422D01*
X25555402Y55211848D01*
X25560552Y55206698D01*
%TA.AperFunction,Conductor*%
D28*
G36*
X25560552Y55206698D02*
G01*
X25555402Y55200422D01*
X25555402Y55211848D01*
X25560552Y55206698D01*
G37*
%TD.AperFunction*%
D27*
X25555400Y56027600D02*
X25575400Y56027600D01*
X25575400Y56021600D01*
X25555400Y56021600D01*
X25555400Y56001600D01*
X25549400Y56001600D01*
X25549400Y56021600D01*
X25529400Y56021600D01*
X25529400Y56027600D01*
X25549400Y56027600D01*
X25549400Y56047600D01*
X25555400Y56047600D01*
X25555400Y56027600D01*
%TA.AperFunction,Conductor*%
D28*
G36*
X25555400Y56027600D02*
G01*
X25575400Y56027600D01*
X25575400Y56021600D01*
X25555400Y56021600D01*
X25555400Y56001600D01*
X25549400Y56001600D01*
X25549400Y56021600D01*
X25529400Y56021600D01*
X25529400Y56027600D01*
X25549400Y56027600D01*
X25549400Y56047600D01*
X25555400Y56047600D01*
X25555400Y56027600D01*
G37*
%TD.AperFunction*%
D27*
X33571785Y57189542D02*
X33557643Y57175400D01*
X33571785Y57161258D01*
X33567542Y57157015D01*
X33553400Y57171157D01*
X33539258Y57157015D01*
X33535015Y57161258D01*
X33549157Y57175400D01*
X33535015Y57189542D01*
X33539258Y57193785D01*
X33553400Y57179643D01*
X33567542Y57193785D01*
X33571785Y57189542D01*
%TA.AperFunction,Conductor*%
D28*
G36*
X33571785Y57189542D02*
G01*
X33557643Y57175400D01*
X33571785Y57161258D01*
X33567542Y57157015D01*
X33553400Y57171157D01*
X33539258Y57157015D01*
X33535015Y57161258D01*
X33549157Y57175400D01*
X33535015Y57189542D01*
X33539258Y57193785D01*
X33553400Y57179643D01*
X33567542Y57193785D01*
X33571785Y57189542D01*
G37*
%TD.AperFunction*%
D27*
X25515012Y59095430D02*
X25550019Y59029937D01*
X25597131Y58972531D01*
X25654537Y58925419D01*
X25720030Y58890412D01*
X25791095Y58868855D01*
X25813253Y58866673D01*
X25801913Y58829289D01*
X25794557Y58754600D01*
X25794557Y57694600D01*
X25801913Y57619911D01*
X25823699Y57548092D01*
X25859078Y57481904D01*
X25861789Y57478600D01*
X25243011Y57478600D01*
X25245722Y57481904D01*
X25281101Y57548092D01*
X25302887Y57619911D01*
X25310243Y57694600D01*
X25310243Y58754600D01*
X25302887Y58829289D01*
X25281101Y58901108D01*
X25266973Y58927538D01*
X25327699Y58959997D01*
X25419810Y59035590D01*
X25495403Y59127701D01*
X25501668Y59139421D01*
X25515012Y59095430D01*
%TA.AperFunction,Conductor*%
D28*
G36*
X25515012Y59095430D02*
G01*
X25550019Y59029937D01*
X25597131Y58972531D01*
X25654537Y58925419D01*
X25720030Y58890412D01*
X25791095Y58868855D01*
X25813253Y58866673D01*
X25801913Y58829289D01*
X25794557Y58754600D01*
X25794557Y57694600D01*
X25801913Y57619911D01*
X25823699Y57548092D01*
X25859078Y57481904D01*
X25861789Y57478600D01*
X25243011Y57478600D01*
X25245722Y57481904D01*
X25281101Y57548092D01*
X25302887Y57619911D01*
X25310243Y57694600D01*
X25310243Y58754600D01*
X25302887Y58829289D01*
X25281101Y58901108D01*
X25266973Y58927538D01*
X25327699Y58959997D01*
X25419810Y59035590D01*
X25495403Y59127701D01*
X25501668Y59139421D01*
X25515012Y59095430D01*
G37*
%TD.AperFunction*%
D27*
X27301370Y60561249D02*
X27255688Y60450964D01*
X27232400Y60333886D01*
X27232400Y60214514D01*
X27255688Y60097436D01*
X27301370Y59987151D01*
X27367689Y59887898D01*
X27452098Y59803489D01*
X27551351Y59737170D01*
X27661636Y59691488D01*
X27760551Y59671813D01*
X27894957Y59537406D01*
X27894957Y59376200D01*
X27906156Y59262493D01*
X27939323Y59153156D01*
X27993184Y59052390D01*
X28065668Y58964068D01*
X28153990Y58891584D01*
X28254756Y58837723D01*
X28364093Y58804556D01*
X28431219Y58797945D01*
X28522966Y58706198D01*
X28016946Y58706198D01*
X27993320Y58708525D01*
X27899027Y58699238D01*
X27888172Y58695945D01*
X27808359Y58671734D01*
X27724798Y58627070D01*
X27651556Y58566962D01*
X27636495Y58548610D01*
X27249612Y58161726D01*
X27210243Y58153895D01*
X27210243Y58754600D01*
X27202887Y58829289D01*
X27181101Y58901108D01*
X27145722Y58967296D01*
X27098111Y59025311D01*
X27083790Y59037064D01*
X27114988Y59095430D01*
X27136545Y59166495D01*
X27143824Y59240400D01*
X27142000Y59618150D01*
X27047750Y59712400D01*
X26318000Y59712400D01*
X26318000Y59692400D01*
X26312000Y59692400D01*
X26312000Y59712400D01*
X26292000Y59712400D01*
X26292000Y59718400D01*
X26312000Y59718400D01*
X26312000Y60473150D01*
X26318000Y60473150D01*
X26318000Y59718400D01*
X27047750Y59718400D01*
X27142000Y59812650D01*
X27143824Y60190400D01*
X27136545Y60264305D01*
X27114988Y60335370D01*
X27079981Y60400863D01*
X27032869Y60458269D01*
X26975463Y60505381D01*
X26909970Y60540388D01*
X26838905Y60561945D01*
X26765000Y60569224D01*
X26412250Y60567400D01*
X26318000Y60473150D01*
X26312000Y60473150D01*
X26217750Y60567400D01*
X25865000Y60569224D01*
X25791095Y60561945D01*
X25720030Y60540388D01*
X25654537Y60505381D01*
X25597131Y60458269D01*
X25550019Y60400863D01*
X25515012Y60335370D01*
X25501668Y60291379D01*
X25495403Y60303099D01*
X25419810Y60395210D01*
X25396000Y60414750D01*
X25396000Y60595200D01*
X27324055Y60595200D01*
X27301370Y60561249D01*
%TA.AperFunction,Conductor*%
D28*
G36*
X27301370Y60561249D02*
G01*
X27255688Y60450964D01*
X27232400Y60333886D01*
X27232400Y60214514D01*
X27255688Y60097436D01*
X27301370Y59987151D01*
X27367689Y59887898D01*
X27452098Y59803489D01*
X27551351Y59737170D01*
X27661636Y59691488D01*
X27760551Y59671813D01*
X27894957Y59537406D01*
X27894957Y59376200D01*
X27906156Y59262493D01*
X27939323Y59153156D01*
X27993184Y59052390D01*
X28065668Y58964068D01*
X28153990Y58891584D01*
X28254756Y58837723D01*
X28364093Y58804556D01*
X28431219Y58797945D01*
X28522966Y58706198D01*
X28016946Y58706198D01*
X27993320Y58708525D01*
X27899027Y58699238D01*
X27888172Y58695945D01*
X27808359Y58671734D01*
X27724798Y58627070D01*
X27651556Y58566962D01*
X27636495Y58548610D01*
X27249612Y58161726D01*
X27210243Y58153895D01*
X27210243Y58754600D01*
X27202887Y58829289D01*
X27181101Y58901108D01*
X27145722Y58967296D01*
X27098111Y59025311D01*
X27083790Y59037064D01*
X27114988Y59095430D01*
X27136545Y59166495D01*
X27143824Y59240400D01*
X27142000Y59618150D01*
X27047750Y59712400D01*
X26318000Y59712400D01*
X26318000Y59692400D01*
X26312000Y59692400D01*
X26312000Y59712400D01*
X26292000Y59712400D01*
X26292000Y59718400D01*
X26312000Y59718400D01*
X26312000Y60473150D01*
X26318000Y60473150D01*
X26318000Y59718400D01*
X27047750Y59718400D01*
X27142000Y59812650D01*
X27143824Y60190400D01*
X27136545Y60264305D01*
X27114988Y60335370D01*
X27079981Y60400863D01*
X27032869Y60458269D01*
X26975463Y60505381D01*
X26909970Y60540388D01*
X26838905Y60561945D01*
X26765000Y60569224D01*
X26412250Y60567400D01*
X26318000Y60473150D01*
X26312000Y60473150D01*
X26217750Y60567400D01*
X25865000Y60569224D01*
X25791095Y60561945D01*
X25720030Y60540388D01*
X25654537Y60505381D01*
X25597131Y60458269D01*
X25550019Y60400863D01*
X25515012Y60335370D01*
X25501668Y60291379D01*
X25495403Y60303099D01*
X25419810Y60395210D01*
X25396000Y60414750D01*
X25396000Y60595200D01*
X27324055Y60595200D01*
X27301370Y60561249D01*
G37*
%TD.AperFunction*%
%TD*%
M02*
