%TF.GenerationSoftware,KiCad,Pcbnew,(5.1.9)-1*%
%TF.CreationDate,2021-02-10T11:15:13+01:00*%
%TF.ProjectId,DynaLoRa_Dongle,44796e61-4c6f-4526-915f-446f6e676c65,rev?*%
%TF.SameCoordinates,Original*%
%TF.FileFunction,Legend,Top*%
%TF.FilePolarity,Positive*%
%FSLAX46Y46*%
G04 Gerber Fmt 4.6, Leading zero omitted, Abs format (unit mm)*
G04 Created by KiCad (PCBNEW (5.1.9)-1) date 2021-02-10 11:15:13*
%MOMM*%
%LPD*%
G01*
G04 APERTURE LIST*
%ADD10C,0.150000*%
%ADD11C,0.200000*%
%ADD12C,0.127000*%
%ADD13C,0.120000*%
%ADD14C,0.100000*%
%ADD15C,0.010000*%
G04 APERTURE END LIST*
D10*
X69970666Y58165885D02*
X69970666Y57784933D01*
X69742095Y58242076D02*
X70542095Y57975409D01*
X69742095Y57708742D01*
X69742095Y57442076D02*
X70542095Y57442076D01*
X69742095Y56984933D01*
X70542095Y56984933D01*
X70542095Y56718266D02*
X70542095Y56261123D01*
X69742095Y56489695D02*
X70542095Y56489695D01*
X32581904Y61741095D02*
X32315238Y62122047D01*
X32124761Y61741095D02*
X32124761Y62541095D01*
X32429523Y62541095D01*
X32505714Y62503000D01*
X32543809Y62464904D01*
X32581904Y62388714D01*
X32581904Y62274428D01*
X32543809Y62198238D01*
X32505714Y62160142D01*
X32429523Y62122047D01*
X32124761Y62122047D01*
X32886666Y61779190D02*
X33000952Y61741095D01*
X33191428Y61741095D01*
X33267619Y61779190D01*
X33305714Y61817285D01*
X33343809Y61893476D01*
X33343809Y61969666D01*
X33305714Y62045857D01*
X33267619Y62083952D01*
X33191428Y62122047D01*
X33039047Y62160142D01*
X32962857Y62198238D01*
X32924761Y62236333D01*
X32886666Y62312523D01*
X32886666Y62388714D01*
X32924761Y62464904D01*
X32962857Y62503000D01*
X33039047Y62541095D01*
X33229523Y62541095D01*
X33343809Y62503000D01*
X33572380Y62541095D02*
X34029523Y62541095D01*
X33800952Y61741095D02*
X33800952Y62541095D01*
X39757476Y62541095D02*
X39757476Y61893476D01*
X39795571Y61817285D01*
X39833666Y61779190D01*
X39909857Y61741095D01*
X40062238Y61741095D01*
X40138428Y61779190D01*
X40176523Y61817285D01*
X40214619Y61893476D01*
X40214619Y62541095D01*
X40557476Y61779190D02*
X40671761Y61741095D01*
X40862238Y61741095D01*
X40938428Y61779190D01*
X40976523Y61817285D01*
X41014619Y61893476D01*
X41014619Y61969666D01*
X40976523Y62045857D01*
X40938428Y62083952D01*
X40862238Y62122047D01*
X40709857Y62160142D01*
X40633666Y62198238D01*
X40595571Y62236333D01*
X40557476Y62312523D01*
X40557476Y62388714D01*
X40595571Y62464904D01*
X40633666Y62503000D01*
X40709857Y62541095D01*
X40900333Y62541095D01*
X41014619Y62503000D01*
X41814619Y61741095D02*
X41547952Y62122047D01*
X41357476Y61741095D02*
X41357476Y62541095D01*
X41662238Y62541095D01*
X41738428Y62503000D01*
X41776523Y62464904D01*
X41814619Y62388714D01*
X41814619Y62274428D01*
X41776523Y62198238D01*
X41738428Y62160142D01*
X41662238Y62122047D01*
X41357476Y62122047D01*
X23799933Y62122095D02*
X23799933Y62922095D01*
X24104695Y62922095D01*
X24180885Y62884000D01*
X24218980Y62845904D01*
X24257076Y62769714D01*
X24257076Y62655428D01*
X24218980Y62579238D01*
X24180885Y62541142D01*
X24104695Y62503047D01*
X23799933Y62503047D01*
X24523742Y62922095D02*
X24714219Y62122095D01*
X24866600Y62693523D01*
X25018980Y62122095D01*
X25209457Y62922095D01*
X25971361Y62122095D02*
X25704695Y62503047D01*
X25514219Y62122095D02*
X25514219Y62922095D01*
X25818980Y62922095D01*
X25895171Y62884000D01*
X25933266Y62845904D01*
X25971361Y62769714D01*
X25971361Y62655428D01*
X25933266Y62579238D01*
X25895171Y62541142D01*
X25818980Y62503047D01*
X25514219Y62503047D01*
D11*
%TO.C,U2*%
X39331000Y50154202D02*
G75*
G03*
X39331000Y50154202I-100000J0D01*
G01*
D12*
X36982400Y61312347D02*
X37056646Y61238101D01*
X32032653Y56362600D02*
X32106899Y56288354D01*
X41932147Y56362600D02*
X41857901Y56436846D01*
X36982400Y51412853D02*
X36908154Y51487099D01*
X36982400Y61312347D02*
X36908154Y61238101D01*
X32032653Y56362600D02*
X32106899Y56436846D01*
X41932147Y56362600D02*
X41857901Y56288354D01*
X36982400Y51412853D02*
X37056646Y51487099D01*
D13*
%TO.C,J3*%
X75889400Y60851600D02*
X72689400Y60851600D01*
X75889400Y53651600D02*
X72689400Y53651600D01*
X71089400Y58551600D02*
X71089400Y55951600D01*
X77969400Y59051600D02*
X77969400Y55451600D01*
D14*
%TO.C,U3*%
X46799000Y65426200D02*
X56799000Y65426200D01*
X46799000Y49026200D02*
X47299000Y49026200D01*
X46799000Y49426200D02*
X46799000Y49026200D01*
X64399000Y49026200D02*
X64899000Y49026200D01*
X64899000Y49426200D02*
X64899000Y49026200D01*
X64399000Y65426200D02*
X64899000Y65426200D01*
X64899000Y65426200D02*
X64899000Y65026200D01*
X46799000Y65426200D02*
X46799000Y65026200D01*
D15*
%TO.C,G\u002A\u002A\u002A*%
G36*
X68294953Y53846847D02*
G01*
X68342849Y53846845D01*
X68390654Y53846842D01*
X68438338Y53846839D01*
X68485871Y53846834D01*
X68533223Y53846829D01*
X68580364Y53846824D01*
X68627263Y53846817D01*
X68673890Y53846810D01*
X68720216Y53846802D01*
X68766209Y53846793D01*
X68811839Y53846783D01*
X68857077Y53846773D01*
X68901891Y53846762D01*
X68946252Y53846750D01*
X68990130Y53846737D01*
X69033495Y53846724D01*
X69076315Y53846710D01*
X69118561Y53846695D01*
X69160202Y53846679D01*
X69201209Y53846662D01*
X69241551Y53846645D01*
X69281198Y53846627D01*
X69320120Y53846608D01*
X69358286Y53846589D01*
X69395666Y53846568D01*
X69432231Y53846547D01*
X69467949Y53846525D01*
X69502790Y53846503D01*
X69536725Y53846479D01*
X69569722Y53846455D01*
X69601753Y53846430D01*
X69632786Y53846404D01*
X69662791Y53846378D01*
X69691739Y53846351D01*
X69719598Y53846323D01*
X69746339Y53846294D01*
X69771931Y53846264D01*
X69796345Y53846234D01*
X69819549Y53846203D01*
X69841514Y53846171D01*
X69862210Y53846138D01*
X69881606Y53846105D01*
X69899671Y53846071D01*
X69916377Y53846036D01*
X69931692Y53846000D01*
X69945586Y53845964D01*
X69958030Y53845926D01*
X69968992Y53845888D01*
X69978442Y53845850D01*
X69986352Y53845810D01*
X69992689Y53845770D01*
X69997424Y53845729D01*
X70000527Y53845687D01*
X70001967Y53845644D01*
X70001977Y53845643D01*
X70034921Y53842695D01*
X70066617Y53838899D01*
X70097310Y53834208D01*
X70127245Y53828574D01*
X70156665Y53821948D01*
X70185817Y53814283D01*
X70214945Y53805530D01*
X70227878Y53801301D01*
X70263884Y53788354D01*
X70299247Y53773858D01*
X70333916Y53757854D01*
X70367843Y53740377D01*
X70400977Y53721469D01*
X70433268Y53701165D01*
X70464666Y53679506D01*
X70495122Y53656528D01*
X70524585Y53632271D01*
X70553005Y53606772D01*
X70580333Y53580071D01*
X70606519Y53552205D01*
X70631512Y53523212D01*
X70655263Y53493131D01*
X70677721Y53462001D01*
X70685798Y53450067D01*
X70706785Y53417004D01*
X70726208Y53383307D01*
X70744059Y53348989D01*
X70760334Y53314066D01*
X70775026Y53278552D01*
X70788130Y53242461D01*
X70799639Y53205809D01*
X70809549Y53168610D01*
X70817853Y53130878D01*
X70823254Y53100834D01*
X70824747Y53091394D01*
X70826084Y53082389D01*
X70827301Y53073512D01*
X70828436Y53064453D01*
X70829525Y53054904D01*
X70830606Y53044558D01*
X70831716Y53033106D01*
X70832765Y53021653D01*
X70832824Y53020910D01*
X70832882Y53020013D01*
X70832939Y53018938D01*
X70832993Y53017660D01*
X70833046Y53016156D01*
X70833098Y53014401D01*
X70833148Y53012371D01*
X70833197Y53010041D01*
X70833244Y53007388D01*
X70833290Y53004386D01*
X70833334Y53001013D01*
X70833377Y52997243D01*
X70833419Y52993053D01*
X70833459Y52988417D01*
X70833498Y52983313D01*
X70833536Y52977715D01*
X70833572Y52971599D01*
X70833608Y52964941D01*
X70833642Y52957718D01*
X70833675Y52949903D01*
X70833707Y52941474D01*
X70833738Y52932406D01*
X70833768Y52922675D01*
X70833797Y52912257D01*
X70833824Y52901126D01*
X70833851Y52889260D01*
X70833877Y52876634D01*
X70833902Y52863223D01*
X70833927Y52849003D01*
X70833950Y52833950D01*
X70833973Y52818040D01*
X70833995Y52801249D01*
X70834016Y52783551D01*
X70834036Y52764924D01*
X70834056Y52745343D01*
X70834075Y52724783D01*
X70834093Y52703220D01*
X70834111Y52680630D01*
X70834128Y52656989D01*
X70834145Y52632272D01*
X70834161Y52606456D01*
X70834177Y52579516D01*
X70834192Y52551427D01*
X70834207Y52522166D01*
X70834221Y52491707D01*
X70834236Y52460028D01*
X70834249Y52427104D01*
X70834263Y52392910D01*
X70834276Y52357422D01*
X70834289Y52320616D01*
X70834302Y52282468D01*
X70834314Y52242953D01*
X70834327Y52202047D01*
X70834339Y52159726D01*
X70834351Y52115966D01*
X70834363Y52070743D01*
X70834375Y52024031D01*
X70834387Y51975807D01*
X70834399Y51926047D01*
X70834412Y51874727D01*
X70834424Y51821821D01*
X70834436Y51767306D01*
X70834449Y51711158D01*
X70834461Y51653352D01*
X70834467Y51625500D01*
X70834481Y51561843D01*
X70834493Y51499865D01*
X70834504Y51439553D01*
X70834514Y51380893D01*
X70834523Y51323871D01*
X70834531Y51268474D01*
X70834538Y51214686D01*
X70834543Y51162496D01*
X70834548Y51111888D01*
X70834551Y51062849D01*
X70834553Y51015365D01*
X70834554Y50969423D01*
X70834554Y50925008D01*
X70834552Y50882107D01*
X70834550Y50840706D01*
X70834546Y50800791D01*
X70834541Y50762348D01*
X70834535Y50725364D01*
X70834527Y50689824D01*
X70834519Y50655716D01*
X70834509Y50623024D01*
X70834498Y50591735D01*
X70834485Y50561836D01*
X70834472Y50533313D01*
X70834457Y50506151D01*
X70834441Y50480337D01*
X70834424Y50455858D01*
X70834405Y50432698D01*
X70834385Y50410845D01*
X70834364Y50390285D01*
X70834342Y50371004D01*
X70834318Y50352988D01*
X70834293Y50336223D01*
X70834267Y50320695D01*
X70834239Y50306391D01*
X70834210Y50293297D01*
X70834180Y50281399D01*
X70834148Y50270683D01*
X70834116Y50261135D01*
X70834081Y50252742D01*
X70834046Y50245490D01*
X70834009Y50239364D01*
X70833971Y50234352D01*
X70833931Y50230439D01*
X70833890Y50227611D01*
X70833847Y50225855D01*
X70833835Y50225537D01*
X70831133Y50186477D01*
X70826788Y50147801D01*
X70820806Y50109535D01*
X70813194Y50071703D01*
X70803961Y50034331D01*
X70793114Y49997444D01*
X70780661Y49961068D01*
X70766610Y49925227D01*
X70750967Y49889948D01*
X70733741Y49855255D01*
X70714940Y49821174D01*
X70708753Y49810670D01*
X70688333Y49778172D01*
X70666514Y49746597D01*
X70643347Y49715995D01*
X70618882Y49686414D01*
X70593170Y49657903D01*
X70566262Y49630510D01*
X70538207Y49604284D01*
X70509057Y49579274D01*
X70478862Y49555528D01*
X70447673Y49533095D01*
X70415540Y49512023D01*
X70382515Y49492362D01*
X70370700Y49485793D01*
X70336160Y49467889D01*
X70301061Y49451582D01*
X70265418Y49436877D01*
X70229242Y49423777D01*
X70192544Y49412286D01*
X70155338Y49402406D01*
X70117636Y49394142D01*
X70079449Y49387497D01*
X70040790Y49382474D01*
X70001672Y49379076D01*
X69991394Y49378458D01*
X69990040Y49378430D01*
X69987024Y49378403D01*
X69982375Y49378376D01*
X69976124Y49378350D01*
X69968301Y49378325D01*
X69958936Y49378300D01*
X69948060Y49378275D01*
X69935702Y49378251D01*
X69921894Y49378228D01*
X69906665Y49378205D01*
X69890045Y49378182D01*
X69872066Y49378160D01*
X69852756Y49378139D01*
X69832148Y49378118D01*
X69810270Y49378098D01*
X69787153Y49378078D01*
X69762827Y49378059D01*
X69737323Y49378040D01*
X69710671Y49378022D01*
X69682901Y49378005D01*
X69654044Y49377987D01*
X69624129Y49377971D01*
X69593187Y49377955D01*
X69561249Y49377939D01*
X69528344Y49377924D01*
X69494503Y49377910D01*
X69459756Y49377896D01*
X69424134Y49377882D01*
X69387666Y49377869D01*
X69350383Y49377857D01*
X69312315Y49377845D01*
X69273493Y49377834D01*
X69233947Y49377823D01*
X69193707Y49377812D01*
X69152803Y49377803D01*
X69111266Y49377793D01*
X69069126Y49377784D01*
X69026413Y49377776D01*
X68983158Y49377768D01*
X68939390Y49377761D01*
X68895141Y49377754D01*
X68850439Y49377748D01*
X68805317Y49377742D01*
X68759803Y49377737D01*
X68713928Y49377732D01*
X68667723Y49377728D01*
X68621218Y49377724D01*
X68574443Y49377721D01*
X68527427Y49377718D01*
X68480203Y49377716D01*
X68432799Y49377715D01*
X68385247Y49377713D01*
X68337576Y49377713D01*
X68289816Y49377712D01*
X68241999Y49377713D01*
X68194153Y49377714D01*
X68146311Y49377715D01*
X68098501Y49377717D01*
X68050754Y49377719D01*
X68003101Y49377722D01*
X67955571Y49377725D01*
X67908195Y49377729D01*
X67861004Y49377733D01*
X67814027Y49377738D01*
X67767294Y49377743D01*
X67720837Y49377749D01*
X67674685Y49377756D01*
X67628869Y49377762D01*
X67583418Y49377770D01*
X67538364Y49377777D01*
X67493736Y49377786D01*
X67449565Y49377794D01*
X67405881Y49377804D01*
X67362714Y49377813D01*
X67320095Y49377824D01*
X67278053Y49377834D01*
X67236620Y49377846D01*
X67195825Y49377857D01*
X67155699Y49377869D01*
X67116272Y49377882D01*
X67077574Y49377895D01*
X67039636Y49377909D01*
X67002487Y49377923D01*
X66966159Y49377938D01*
X66930681Y49377953D01*
X66896083Y49377968D01*
X66862397Y49377984D01*
X66829651Y49378001D01*
X66797878Y49378018D01*
X66767105Y49378035D01*
X66737365Y49378053D01*
X66708688Y49378072D01*
X66681103Y49378091D01*
X66654641Y49378110D01*
X66629332Y49378130D01*
X66605206Y49378150D01*
X66582294Y49378171D01*
X66560626Y49378192D01*
X66540233Y49378214D01*
X66521144Y49378236D01*
X66503390Y49378259D01*
X66487001Y49378282D01*
X66472007Y49378306D01*
X66458439Y49378330D01*
X66446327Y49378355D01*
X66435702Y49378380D01*
X66426593Y49378405D01*
X66419030Y49378431D01*
X66413045Y49378458D01*
X66408667Y49378485D01*
X66405927Y49378512D01*
X66404914Y49378535D01*
X66366177Y49381541D01*
X66327755Y49386202D01*
X66289694Y49392499D01*
X66252037Y49400418D01*
X66214830Y49409939D01*
X66178117Y49421047D01*
X66141943Y49433725D01*
X66106353Y49447954D01*
X66071391Y49463718D01*
X66037102Y49481001D01*
X66003532Y49499785D01*
X65970724Y49520052D01*
X65938723Y49541787D01*
X65907575Y49564971D01*
X65899793Y49571098D01*
X65870099Y49595819D01*
X65841550Y49621770D01*
X65814183Y49648902D01*
X65788032Y49677166D01*
X65763136Y49706513D01*
X65739531Y49736892D01*
X65717252Y49768256D01*
X65696337Y49800554D01*
X65676821Y49833737D01*
X65658742Y49867757D01*
X65642136Y49902564D01*
X65627038Y49938108D01*
X65625533Y49941903D01*
X65612166Y49978100D01*
X65600446Y50014649D01*
X65590364Y50051578D01*
X65581916Y50088915D01*
X65575096Y50126688D01*
X65569897Y50164925D01*
X65566314Y50203655D01*
X65565012Y50225537D01*
X65564970Y50226976D01*
X65564928Y50229482D01*
X65564888Y50233070D01*
X65564849Y50237753D01*
X65564812Y50243545D01*
X65564776Y50250460D01*
X65564742Y50258512D01*
X65564708Y50267713D01*
X65564676Y50278079D01*
X65564646Y50289623D01*
X65564616Y50302359D01*
X65564588Y50316301D01*
X65564562Y50331462D01*
X65564536Y50347857D01*
X65564512Y50365498D01*
X65564489Y50384401D01*
X65564468Y50404578D01*
X65564448Y50426044D01*
X65564429Y50448812D01*
X65564411Y50472896D01*
X65564395Y50498311D01*
X65564380Y50525069D01*
X65564366Y50553185D01*
X65564353Y50582672D01*
X65564341Y50613545D01*
X65564331Y50645817D01*
X65564322Y50679501D01*
X65564315Y50714612D01*
X65564308Y50751164D01*
X65564303Y50789171D01*
X65564298Y50828645D01*
X65564295Y50869601D01*
X65564294Y50912054D01*
X65564293Y50956015D01*
X65564294Y51001501D01*
X65564295Y51048523D01*
X65564298Y51097097D01*
X65564302Y51147235D01*
X65564308Y51198952D01*
X65564314Y51252262D01*
X65564321Y51307178D01*
X65564330Y51363714D01*
X65564340Y51421884D01*
X65564351Y51481701D01*
X65564363Y51543181D01*
X65564376Y51606335D01*
X65564380Y51625500D01*
X65564392Y51684096D01*
X65564405Y51741023D01*
X65564417Y51796306D01*
X65564430Y51849967D01*
X65564442Y51902033D01*
X65564454Y51952526D01*
X65564466Y52001471D01*
X65564478Y52048893D01*
X65564490Y52094816D01*
X65564502Y52139263D01*
X65564515Y52182260D01*
X65564527Y52223830D01*
X65564539Y52263998D01*
X65564552Y52302788D01*
X65564565Y52340224D01*
X65564578Y52376331D01*
X65564591Y52411132D01*
X65564605Y52444653D01*
X65564619Y52476916D01*
X65564633Y52507948D01*
X65564648Y52537770D01*
X65564663Y52566409D01*
X65564678Y52593888D01*
X65564694Y52620232D01*
X65564711Y52645464D01*
X65564728Y52669610D01*
X65564745Y52692693D01*
X65564763Y52714737D01*
X65564782Y52735767D01*
X65564802Y52755807D01*
X65564822Y52774881D01*
X65564842Y52793014D01*
X65564864Y52810230D01*
X65564886Y52826553D01*
X65564909Y52842007D01*
X65564933Y52856617D01*
X65564958Y52870406D01*
X65564983Y52883400D01*
X65565010Y52895622D01*
X65565037Y52907096D01*
X65565066Y52917847D01*
X65565095Y52927900D01*
X65565125Y52937278D01*
X65565157Y52946005D01*
X65565189Y52954106D01*
X65565223Y52961606D01*
X65565258Y52968527D01*
X65565294Y52974896D01*
X65565331Y52980735D01*
X65565370Y52986069D01*
X65565409Y52990923D01*
X65565450Y52995320D01*
X65565493Y52999285D01*
X65565536Y53002843D01*
X65565581Y53006017D01*
X65565628Y53008831D01*
X65565676Y53011310D01*
X65565725Y53013479D01*
X65565776Y53015361D01*
X65565828Y53016980D01*
X65565882Y53018362D01*
X65565938Y53019530D01*
X65565995Y53020508D01*
X65566054Y53021321D01*
X65566082Y53021653D01*
X65567249Y53034358D01*
X65568354Y53045681D01*
X65569434Y53055930D01*
X65570527Y53065413D01*
X65571668Y53074438D01*
X65572896Y53083315D01*
X65574248Y53092351D01*
X65575593Y53100834D01*
X65580516Y53127487D01*
X66167835Y53127487D01*
X66168076Y52020682D01*
X66168087Y51968357D01*
X66168098Y51917698D01*
X66168109Y51868678D01*
X66168121Y51821269D01*
X66168132Y51775445D01*
X66168143Y51731177D01*
X66168154Y51688439D01*
X66168165Y51647203D01*
X66168176Y51607443D01*
X66168187Y51569130D01*
X66168199Y51532237D01*
X66168211Y51496738D01*
X66168223Y51462605D01*
X66168235Y51429810D01*
X66168248Y51398326D01*
X66168262Y51368127D01*
X66168275Y51339184D01*
X66168289Y51311471D01*
X66168304Y51284960D01*
X66168319Y51259624D01*
X66168335Y51235435D01*
X66168352Y51212367D01*
X66168369Y51190391D01*
X66168387Y51169482D01*
X66168406Y51149611D01*
X66168425Y51130751D01*
X66168446Y51112874D01*
X66168467Y51095955D01*
X66168489Y51079965D01*
X66168513Y51064876D01*
X66168537Y51050663D01*
X66168562Y51037296D01*
X66168589Y51024750D01*
X66168616Y51012997D01*
X66168645Y51002010D01*
X66168675Y50991760D01*
X66168707Y50982222D01*
X66168739Y50973367D01*
X66168773Y50965169D01*
X66168809Y50957600D01*
X66168845Y50950633D01*
X66168884Y50944240D01*
X66168923Y50938395D01*
X66168965Y50933069D01*
X66169008Y50928236D01*
X66169052Y50923869D01*
X66169099Y50919940D01*
X66169147Y50916421D01*
X66169196Y50913286D01*
X66169248Y50910508D01*
X66169302Y50908058D01*
X66169357Y50905910D01*
X66169414Y50904037D01*
X66169473Y50902410D01*
X66169535Y50901003D01*
X66169598Y50899789D01*
X66169663Y50898740D01*
X66169731Y50897829D01*
X66169770Y50897367D01*
X66172559Y50869264D01*
X66175879Y50842493D01*
X66179787Y50816762D01*
X66184339Y50791779D01*
X66189589Y50767249D01*
X66195595Y50742881D01*
X66202411Y50718382D01*
X66206524Y50704750D01*
X66215772Y50676799D01*
X66226289Y50648455D01*
X66237893Y50620147D01*
X66250403Y50592300D01*
X66263636Y50565344D01*
X66274142Y50545577D01*
X66293182Y50512751D01*
X66313640Y50480821D01*
X66335469Y50449834D01*
X66358622Y50419837D01*
X66383051Y50390877D01*
X66408709Y50363001D01*
X66435550Y50336256D01*
X66463526Y50310690D01*
X66492589Y50286349D01*
X66522692Y50263280D01*
X66553789Y50241532D01*
X66585832Y50221150D01*
X66617618Y50202815D01*
X66650729Y50185597D01*
X66684633Y50169826D01*
X66719237Y50155529D01*
X66754447Y50142734D01*
X66790169Y50131467D01*
X66826311Y50121756D01*
X66862779Y50113628D01*
X66899479Y50107110D01*
X66936317Y50102230D01*
X66973201Y50099015D01*
X66973874Y50098972D01*
X66978976Y50098648D01*
X66983865Y50098336D01*
X66988124Y50098064D01*
X66991337Y50097857D01*
X66992500Y50097782D01*
X66993924Y50097746D01*
X66996979Y50097713D01*
X67001604Y50097684D01*
X67007737Y50097658D01*
X67015316Y50097636D01*
X67024280Y50097618D01*
X67034566Y50097602D01*
X67046113Y50097590D01*
X67058859Y50097581D01*
X67072742Y50097574D01*
X67087701Y50097571D01*
X67103674Y50097571D01*
X67120598Y50097573D01*
X67138413Y50097578D01*
X67157056Y50097586D01*
X67176465Y50097596D01*
X67196579Y50097608D01*
X67217337Y50097623D01*
X67238675Y50097640D01*
X67260533Y50097659D01*
X67282849Y50097681D01*
X67305561Y50097704D01*
X67328606Y50097729D01*
X67351924Y50097756D01*
X67375453Y50097785D01*
X67399130Y50097815D01*
X67422894Y50097847D01*
X67446683Y50097880D01*
X67470436Y50097915D01*
X67494090Y50097951D01*
X67517584Y50097988D01*
X67540856Y50098027D01*
X67563845Y50098066D01*
X67586488Y50098106D01*
X67608723Y50098148D01*
X67630490Y50098190D01*
X67651725Y50098232D01*
X67672368Y50098276D01*
X67692356Y50098319D01*
X67711629Y50098364D01*
X67730123Y50098408D01*
X67747777Y50098453D01*
X67764530Y50098498D01*
X67780319Y50098543D01*
X67795084Y50098589D01*
X67808761Y50098634D01*
X67821290Y50098679D01*
X67832608Y50098723D01*
X67842654Y50098768D01*
X67851365Y50098812D01*
X67858681Y50098855D01*
X67864540Y50098898D01*
X67868878Y50098940D01*
X67871636Y50098982D01*
X67872378Y50099001D01*
X67898036Y50100395D01*
X67922688Y50102723D01*
X67942460Y50105387D01*
X67973264Y50110997D01*
X68003571Y50118207D01*
X68033328Y50126984D01*
X68062481Y50137293D01*
X68090979Y50149101D01*
X68118767Y50162374D01*
X68145792Y50177079D01*
X68172002Y50193180D01*
X68197343Y50210645D01*
X68221762Y50229440D01*
X68245207Y50249531D01*
X68267623Y50270883D01*
X68288959Y50293464D01*
X68309160Y50317239D01*
X68328173Y50342174D01*
X68339359Y50358227D01*
X68356127Y50384665D01*
X68371451Y50411957D01*
X68385293Y50440021D01*
X68397616Y50468774D01*
X68408385Y50498134D01*
X68417562Y50528021D01*
X68420428Y50538735D01*
X68424879Y50557127D01*
X68428654Y50575170D01*
X68431820Y50593287D01*
X68434447Y50611902D01*
X68436603Y50631437D01*
X68437936Y50646753D01*
X68438039Y50648927D01*
X68438137Y50652720D01*
X68438230Y50658059D01*
X68438319Y50664869D01*
X68438403Y50673076D01*
X68438483Y50682607D01*
X68438558Y50693387D01*
X68438629Y50705343D01*
X68438695Y50718401D01*
X68438756Y50732486D01*
X68438813Y50747525D01*
X68438865Y50763444D01*
X68438912Y50780168D01*
X68438955Y50797624D01*
X68438994Y50815738D01*
X68439027Y50834436D01*
X68439057Y50853644D01*
X68439081Y50873287D01*
X68439101Y50893293D01*
X68439117Y50913587D01*
X68439128Y50934094D01*
X68439134Y50954742D01*
X68439135Y50975456D01*
X68439132Y50996162D01*
X68439125Y51016786D01*
X68439113Y51037254D01*
X68439096Y51057493D01*
X68439075Y51077428D01*
X68439049Y51096985D01*
X68439018Y51116090D01*
X68438983Y51134670D01*
X68438943Y51152650D01*
X68438899Y51169957D01*
X68438850Y51186516D01*
X68438796Y51202254D01*
X68438738Y51217096D01*
X68438676Y51230969D01*
X68438608Y51243799D01*
X68438536Y51255511D01*
X68438460Y51266032D01*
X68438379Y51275287D01*
X68438293Y51283204D01*
X68438202Y51289707D01*
X68438107Y51294723D01*
X68438008Y51298178D01*
X68437942Y51299533D01*
X68435524Y51330172D01*
X68432394Y51359423D01*
X68428531Y51387446D01*
X68423914Y51414400D01*
X68420095Y51433307D01*
X68411162Y51470831D01*
X68400670Y51507701D01*
X68388624Y51543901D01*
X68375033Y51579416D01*
X68359905Y51614232D01*
X68343247Y51648332D01*
X68325067Y51681702D01*
X68305372Y51714327D01*
X68284169Y51746191D01*
X68261468Y51777280D01*
X68237274Y51807578D01*
X68223948Y51823197D01*
X68219173Y51828531D01*
X68213355Y51834802D01*
X68206701Y51841803D01*
X68199418Y51849328D01*
X68191712Y51857170D01*
X68183790Y51865123D01*
X68175858Y51872980D01*
X68168124Y51880535D01*
X68160792Y51887580D01*
X68154071Y51893910D01*
X68148166Y51899317D01*
X68145237Y51901915D01*
X68115365Y51926901D01*
X68084709Y51950389D01*
X68053290Y51972370D01*
X68021132Y51992836D01*
X67988257Y52011776D01*
X67954688Y52029182D01*
X67920448Y52045045D01*
X67885560Y52059354D01*
X67850046Y52072102D01*
X67813930Y52083279D01*
X67777233Y52092875D01*
X67739979Y52100882D01*
X67702191Y52107290D01*
X67663891Y52112090D01*
X67625101Y52115273D01*
X67616494Y52115756D01*
X67614318Y52115822D01*
X67610522Y52115884D01*
X67605181Y52115941D01*
X67598366Y52115993D01*
X67590151Y52116041D01*
X67580611Y52116085D01*
X67569817Y52116124D01*
X67557845Y52116158D01*
X67544767Y52116188D01*
X67530656Y52116214D01*
X67515586Y52116236D01*
X67499632Y52116254D01*
X67482865Y52116267D01*
X67465359Y52116277D01*
X67447188Y52116282D01*
X67428426Y52116284D01*
X67409145Y52116282D01*
X67389420Y52116276D01*
X67369323Y52116267D01*
X67348929Y52116254D01*
X67328310Y52116237D01*
X67307539Y52116217D01*
X67286692Y52116194D01*
X67265840Y52116167D01*
X67245057Y52116137D01*
X67224417Y52116104D01*
X67203994Y52116067D01*
X67183860Y52116028D01*
X67164089Y52115985D01*
X67144754Y52115940D01*
X67125930Y52115891D01*
X67107689Y52115840D01*
X67090105Y52115786D01*
X67073251Y52115730D01*
X67057201Y52115670D01*
X67042028Y52115609D01*
X67027805Y52115544D01*
X67014607Y52115478D01*
X67002506Y52115409D01*
X66991576Y52115337D01*
X66981891Y52115263D01*
X66973523Y52115188D01*
X66973239Y52115185D01*
X66922227Y52114671D01*
X66922227Y51613461D01*
X67038009Y51613983D01*
X67050202Y51614035D01*
X67063948Y51614087D01*
X67079104Y51614140D01*
X67095532Y51614192D01*
X67113088Y51614244D01*
X67131632Y51614295D01*
X67151024Y51614345D01*
X67171121Y51614394D01*
X67191784Y51614441D01*
X67212871Y51614486D01*
X67234240Y51614528D01*
X67255751Y51614568D01*
X67277264Y51614605D01*
X67298636Y51614638D01*
X67319727Y51614668D01*
X67340395Y51614694D01*
X67356567Y51614711D01*
X67378671Y51614734D01*
X67399152Y51614755D01*
X67418080Y51614773D01*
X67435524Y51614787D01*
X67451555Y51614796D01*
X67466243Y51614799D01*
X67479657Y51614794D01*
X67491868Y51614781D01*
X67502946Y51614758D01*
X67512960Y51614725D01*
X67521981Y51614680D01*
X67530078Y51614622D01*
X67537323Y51614550D01*
X67543784Y51614463D01*
X67549531Y51614359D01*
X67554635Y51614239D01*
X67559166Y51614100D01*
X67563194Y51613941D01*
X67566788Y51613762D01*
X67570019Y51613561D01*
X67572956Y51613337D01*
X67575670Y51613089D01*
X67578231Y51612816D01*
X67580709Y51612517D01*
X67583173Y51612191D01*
X67585693Y51611836D01*
X67588341Y51611452D01*
X67591185Y51611037D01*
X67591517Y51610989D01*
X67616848Y51606473D01*
X67641705Y51600362D01*
X67666023Y51592704D01*
X67689735Y51583547D01*
X67712776Y51572940D01*
X67735081Y51560931D01*
X67756584Y51547568D01*
X67777219Y51532900D01*
X67796921Y51516974D01*
X67815625Y51499839D01*
X67833264Y51481542D01*
X67849774Y51462133D01*
X67865089Y51441660D01*
X67879142Y51420170D01*
X67891870Y51397712D01*
X67898037Y51385470D01*
X67908376Y51362358D01*
X67917137Y51339081D01*
X67924365Y51315466D01*
X67930109Y51291342D01*
X67934415Y51266534D01*
X67937330Y51240869D01*
X67937345Y51240690D01*
X67937441Y51238683D01*
X67937532Y51234997D01*
X67937617Y51229646D01*
X67937697Y51222644D01*
X67937771Y51214006D01*
X67937839Y51203746D01*
X67937902Y51191877D01*
X67937958Y51178414D01*
X67938009Y51163372D01*
X67938055Y51146765D01*
X67938094Y51128606D01*
X67938127Y51108910D01*
X67938154Y51087691D01*
X67938176Y51064963D01*
X67938191Y51040741D01*
X67938200Y51015039D01*
X67938203Y50987871D01*
X67938203Y50985843D01*
X67938202Y50961374D01*
X67938202Y50938537D01*
X67938201Y50917274D01*
X67938199Y50897525D01*
X67938194Y50879229D01*
X67938185Y50862327D01*
X67938172Y50846758D01*
X67938153Y50832463D01*
X67938128Y50819382D01*
X67938096Y50807455D01*
X67938056Y50796622D01*
X67938006Y50786822D01*
X67937946Y50777997D01*
X67937875Y50770086D01*
X67937793Y50763029D01*
X67937697Y50756766D01*
X67937588Y50751238D01*
X67937464Y50746384D01*
X67937324Y50742144D01*
X67937167Y50738459D01*
X67936993Y50735268D01*
X67936801Y50732512D01*
X67936589Y50730130D01*
X67936357Y50728064D01*
X67936103Y50726252D01*
X67935827Y50724634D01*
X67935528Y50723152D01*
X67935205Y50721744D01*
X67934857Y50720352D01*
X67934483Y50718914D01*
X67934082Y50717372D01*
X67934015Y50717110D01*
X67929228Y50701685D01*
X67922982Y50687022D01*
X67915362Y50673205D01*
X67906452Y50660314D01*
X67896339Y50648431D01*
X67885105Y50637639D01*
X67872837Y50628019D01*
X67859620Y50619652D01*
X67845538Y50612621D01*
X67830676Y50607007D01*
X67815460Y50602964D01*
X67812821Y50602426D01*
X67810312Y50601980D01*
X67807719Y50601615D01*
X67804833Y50601315D01*
X67801441Y50601067D01*
X67797334Y50600856D01*
X67792298Y50600670D01*
X67786124Y50600495D01*
X67778600Y50600316D01*
X67773127Y50600196D01*
X67768963Y50600124D01*
X67763280Y50600053D01*
X67756146Y50599983D01*
X67747630Y50599915D01*
X67737800Y50599847D01*
X67726726Y50599781D01*
X67714475Y50599716D01*
X67701117Y50599653D01*
X67686720Y50599591D01*
X67671353Y50599531D01*
X67655084Y50599473D01*
X67637983Y50599416D01*
X67620117Y50599361D01*
X67601556Y50599309D01*
X67582368Y50599258D01*
X67562622Y50599210D01*
X67542386Y50599164D01*
X67521730Y50599120D01*
X67500721Y50599078D01*
X67479429Y50599039D01*
X67457923Y50599003D01*
X67436270Y50598970D01*
X67414539Y50598939D01*
X67392800Y50598911D01*
X67371121Y50598885D01*
X67349570Y50598863D01*
X67328217Y50598844D01*
X67307129Y50598829D01*
X67286376Y50598816D01*
X67266026Y50598807D01*
X67246148Y50598801D01*
X67226811Y50598799D01*
X67208083Y50598800D01*
X67190033Y50598805D01*
X67172729Y50598814D01*
X67156241Y50598827D01*
X67140636Y50598844D01*
X67125984Y50598864D01*
X67112353Y50598889D01*
X67099813Y50598918D01*
X67088430Y50598951D01*
X67078275Y50598989D01*
X67069416Y50599031D01*
X67061922Y50599078D01*
X67055861Y50599129D01*
X67051302Y50599185D01*
X67048313Y50599246D01*
X67047110Y50599297D01*
X67020497Y50602173D01*
X66994459Y50606642D01*
X66969009Y50612696D01*
X66944163Y50620331D01*
X66919935Y50629541D01*
X66896338Y50640319D01*
X66873388Y50652660D01*
X66851100Y50666559D01*
X66829486Y50682009D01*
X66815124Y50693446D01*
X66810559Y50697389D01*
X66805153Y50702306D01*
X66799195Y50707911D01*
X66792976Y50713921D01*
X66786788Y50720050D01*
X66780920Y50726014D01*
X66775665Y50731528D01*
X66771312Y50736307D01*
X66771143Y50736500D01*
X66754598Y50756589D01*
X66739365Y50777656D01*
X66725507Y50799593D01*
X66713086Y50822288D01*
X66702167Y50845634D01*
X66692811Y50869521D01*
X66690343Y50876703D01*
X66683241Y50900440D01*
X66677651Y50924480D01*
X66673523Y50949069D01*
X66671181Y50969959D01*
X66671120Y50970790D01*
X66671061Y50971907D01*
X66671004Y50973334D01*
X66670950Y50975100D01*
X66670897Y50977231D01*
X66670845Y50979754D01*
X66670796Y50982696D01*
X66670748Y50986083D01*
X66670702Y50989944D01*
X66670658Y50994303D01*
X66670616Y50999190D01*
X66670575Y51004629D01*
X66670535Y51010649D01*
X66670498Y51017277D01*
X66670461Y51024538D01*
X66670427Y51032460D01*
X66670394Y51041071D01*
X66670362Y51050396D01*
X66670332Y51060462D01*
X66670303Y51071298D01*
X66670275Y51082928D01*
X66670249Y51095382D01*
X66670224Y51108684D01*
X66670200Y51122863D01*
X66670178Y51137945D01*
X66670157Y51153957D01*
X66670137Y51170925D01*
X66670118Y51188878D01*
X66670100Y51207841D01*
X66670083Y51227842D01*
X66670067Y51248908D01*
X66670053Y51271064D01*
X66670039Y51294339D01*
X66670026Y51318760D01*
X66670015Y51344352D01*
X66670004Y51371144D01*
X66669994Y51399161D01*
X66669984Y51428431D01*
X66669976Y51458981D01*
X66669968Y51490837D01*
X66669961Y51524028D01*
X66669955Y51558578D01*
X66669950Y51594516D01*
X66669945Y51631868D01*
X66669940Y51670661D01*
X66669937Y51710922D01*
X66669934Y51752678D01*
X66669931Y51795956D01*
X66669929Y51840782D01*
X66669927Y51887185D01*
X66669926Y51935189D01*
X66669925Y51984823D01*
X66669925Y52036114D01*
X66669924Y52055818D01*
X66669920Y53127487D01*
X67942460Y53127487D01*
X67942460Y52198868D01*
X67956642Y52193195D01*
X67980725Y52183115D01*
X68005486Y52171894D01*
X68030547Y52159721D01*
X68055535Y52146782D01*
X68080074Y52133265D01*
X68100364Y52121423D01*
X68134379Y52100047D01*
X68167638Y52077203D01*
X68200065Y52052964D01*
X68231586Y52027401D01*
X68262129Y52000585D01*
X68291619Y51972589D01*
X68319982Y51943483D01*
X68347145Y51913340D01*
X68373033Y51882230D01*
X68397574Y51850227D01*
X68420692Y51817400D01*
X68432833Y51798929D01*
X68435692Y51794500D01*
X68438238Y51790619D01*
X68440334Y51787489D01*
X68441841Y51785315D01*
X68442624Y51784300D01*
X68442700Y51784254D01*
X68442713Y51785108D01*
X68442725Y51787615D01*
X68442735Y51791735D01*
X68442743Y51797428D01*
X68442750Y51804652D01*
X68442755Y51813369D01*
X68442759Y51823537D01*
X68442760Y51835117D01*
X68442761Y51848068D01*
X68442760Y51856577D01*
X68567656Y51856577D01*
X68568821Y51827772D01*
X68571628Y51799081D01*
X68576063Y51770585D01*
X68582111Y51742366D01*
X68589756Y51714505D01*
X68598984Y51687085D01*
X68609779Y51660186D01*
X68622127Y51633890D01*
X68622302Y51633543D01*
X68636212Y51607927D01*
X68651542Y51583208D01*
X68668240Y51559443D01*
X68686257Y51536688D01*
X68705542Y51514998D01*
X68726045Y51494432D01*
X68747716Y51475044D01*
X68770504Y51456890D01*
X68794359Y51440028D01*
X68797170Y51438173D01*
X68822047Y51422879D01*
X68847644Y51409115D01*
X68873943Y51396888D01*
X68900926Y51386204D01*
X68928574Y51377068D01*
X68956871Y51369488D01*
X68985797Y51363470D01*
X69015336Y51359019D01*
X69030004Y51357415D01*
X69036384Y51356922D01*
X69044084Y51356522D01*
X69052773Y51356218D01*
X69062121Y51356011D01*
X69071799Y51355903D01*
X69081476Y51355895D01*
X69090823Y51355990D01*
X69099509Y51356188D01*
X69107206Y51356493D01*
X69113582Y51356905D01*
X69114247Y51356962D01*
X69140443Y51359868D01*
X69165672Y51363877D01*
X69190315Y51369067D01*
X69214754Y51375517D01*
X69234474Y51381657D01*
X69262007Y51391655D01*
X69288654Y51403089D01*
X69314437Y51415970D01*
X69339374Y51430310D01*
X69363485Y51446123D01*
X69386791Y51463419D01*
X69409311Y51482211D01*
X69429097Y51500582D01*
X69436713Y51508178D01*
X69444143Y51515952D01*
X69451587Y51524129D01*
X69459243Y51532937D01*
X69467310Y51542601D01*
X69475988Y51553348D01*
X69480776Y51559400D01*
X69483059Y51562303D01*
X69489788Y51558639D01*
X69513174Y51544979D01*
X69535379Y51530123D01*
X69556387Y51514086D01*
X69576179Y51496886D01*
X69594738Y51478539D01*
X69612047Y51459063D01*
X69628088Y51438474D01*
X69642844Y51416789D01*
X69652318Y51401108D01*
X69664205Y51378962D01*
X69674531Y51356578D01*
X69683329Y51333834D01*
X69690638Y51310604D01*
X69696493Y51286765D01*
X69700931Y51262194D01*
X69703987Y51236766D01*
X69705213Y51220370D01*
X69705273Y51218477D01*
X69705331Y51214906D01*
X69705387Y51209670D01*
X69705441Y51202785D01*
X69705493Y51194265D01*
X69705542Y51184125D01*
X69705590Y51172380D01*
X69705635Y51159043D01*
X69705678Y51144130D01*
X69705719Y51127655D01*
X69705758Y51109633D01*
X69705795Y51090079D01*
X69705829Y51069007D01*
X69705861Y51046432D01*
X69705890Y51022368D01*
X69705918Y50996830D01*
X69705943Y50969832D01*
X69705965Y50941390D01*
X69705986Y50911518D01*
X69706003Y50880230D01*
X69706019Y50847542D01*
X69706032Y50813467D01*
X69706042Y50778021D01*
X69706050Y50741217D01*
X69706055Y50703071D01*
X69706058Y50663598D01*
X69706059Y50648235D01*
X69706067Y50090493D01*
X70206447Y50090493D01*
X70206446Y50682525D01*
X70206444Y50725628D01*
X70206440Y50767210D01*
X70206434Y50807264D01*
X70206425Y50845785D01*
X70206414Y50882764D01*
X70206400Y50918196D01*
X70206384Y50952073D01*
X70206365Y50984390D01*
X70206344Y51015138D01*
X70206320Y51044311D01*
X70206294Y51071903D01*
X70206266Y51097907D01*
X70206235Y51122315D01*
X70206202Y51145122D01*
X70206166Y51166320D01*
X70206128Y51185903D01*
X70206088Y51203864D01*
X70206045Y51220196D01*
X70206000Y51234892D01*
X70205952Y51247946D01*
X70205903Y51259351D01*
X70205850Y51269100D01*
X70205796Y51277186D01*
X70205739Y51283603D01*
X70205680Y51288343D01*
X70205619Y51291401D01*
X70205586Y51292337D01*
X70202896Y51330751D01*
X70198566Y51368790D01*
X70192616Y51406413D01*
X70185066Y51443578D01*
X70175936Y51480244D01*
X70165246Y51516370D01*
X70153015Y51551915D01*
X70139264Y51586837D01*
X70124013Y51621095D01*
X70107282Y51654649D01*
X70089090Y51687456D01*
X70069457Y51719475D01*
X70048404Y51750666D01*
X70025950Y51780987D01*
X70002116Y51810397D01*
X69976920Y51838854D01*
X69950384Y51866318D01*
X69922527Y51892747D01*
X69909690Y51904183D01*
X69882742Y51926717D01*
X69854549Y51948351D01*
X69825314Y51968954D01*
X69795241Y51988394D01*
X69764533Y52006541D01*
X69733392Y52023263D01*
X69702023Y52038431D01*
X69700362Y52039187D01*
X69674052Y52050580D01*
X69646989Y52061251D01*
X69619511Y52071087D01*
X69591961Y52079974D01*
X69564677Y52087796D01*
X69538001Y52094442D01*
X69529960Y52096234D01*
X69527098Y52096868D01*
X69524754Y52097413D01*
X69523829Y52097646D01*
X69522857Y52098543D01*
X69521349Y52100698D01*
X69519482Y52103831D01*
X69517596Y52107351D01*
X69510434Y52120434D01*
X69502023Y52134192D01*
X69492540Y52148386D01*
X69482164Y52162778D01*
X69471070Y52177129D01*
X69459436Y52191201D01*
X69447439Y52204755D01*
X69437252Y52215524D01*
X69415978Y52236113D01*
X69393755Y52255316D01*
X69370614Y52273111D01*
X69346588Y52289479D01*
X69321711Y52304398D01*
X69296015Y52317847D01*
X69269533Y52329807D01*
X69242297Y52340257D01*
X69234464Y52342935D01*
X69206654Y52351314D01*
X69178579Y52358048D01*
X69150308Y52363149D01*
X69121911Y52366627D01*
X69093458Y52368495D01*
X69065017Y52368764D01*
X69036659Y52367443D01*
X69008452Y52364546D01*
X68980466Y52360083D01*
X68952770Y52354065D01*
X68925433Y52346503D01*
X68898526Y52337410D01*
X68872117Y52326795D01*
X68846276Y52314670D01*
X68821071Y52301047D01*
X68796574Y52285937D01*
X68772852Y52269351D01*
X68770924Y52267910D01*
X68762275Y52261306D01*
X68754333Y52254980D01*
X68746784Y52248658D01*
X68739317Y52242065D01*
X68731619Y52234928D01*
X68723377Y52226972D01*
X68716689Y52220341D01*
X68705425Y52208849D01*
X68695286Y52197999D01*
X68686006Y52187468D01*
X68677320Y52176933D01*
X68668961Y52166070D01*
X68660664Y52154557D01*
X68652163Y52142070D01*
X68651533Y52141120D01*
X68636070Y52116254D01*
X68622140Y52090677D01*
X68609755Y52064425D01*
X68598929Y52037537D01*
X68589675Y52010049D01*
X68582007Y51981999D01*
X68575938Y51953425D01*
X68571481Y51924363D01*
X68570317Y51914201D01*
X68568150Y51885413D01*
X68567656Y51856577D01*
X68442760Y51856577D01*
X68442759Y51862350D01*
X68442757Y51877922D01*
X68442752Y51894745D01*
X68442747Y51912778D01*
X68442739Y51931980D01*
X68442731Y51952312D01*
X68442721Y51973734D01*
X68442709Y51996204D01*
X68442696Y52019683D01*
X68442682Y52044130D01*
X68442666Y52069506D01*
X68442650Y52095769D01*
X68442631Y52122880D01*
X68442612Y52150798D01*
X68442591Y52179484D01*
X68442569Y52208896D01*
X68442546Y52238995D01*
X68442521Y52269740D01*
X68442496Y52301091D01*
X68442469Y52333007D01*
X68442441Y52365449D01*
X68442412Y52398376D01*
X68442382Y52431748D01*
X68442360Y52456010D01*
X68441741Y53124103D01*
X69706067Y53124103D01*
X69706087Y52660340D01*
X69706108Y52196577D01*
X69721962Y52190357D01*
X69754771Y52176697D01*
X69787610Y52161471D01*
X69820292Y52144795D01*
X69852627Y52126781D01*
X69884427Y52107543D01*
X69915502Y52087196D01*
X69945665Y52065853D01*
X69974726Y52043629D01*
X70000707Y52022176D01*
X70024047Y52001505D01*
X70047239Y51979694D01*
X70069893Y51957129D01*
X70091619Y51934197D01*
X70109492Y51914213D01*
X70122304Y51899116D01*
X70135338Y51883080D01*
X70148357Y51866422D01*
X70161125Y51849458D01*
X70173406Y51832505D01*
X70184964Y51815878D01*
X70195563Y51799894D01*
X70199674Y51793447D01*
X70202263Y51789354D01*
X70204527Y51785820D01*
X70206319Y51783070D01*
X70207493Y51781327D01*
X70207901Y51780807D01*
X70207910Y51781654D01*
X70207920Y51784154D01*
X70207929Y51788267D01*
X70207939Y51793953D01*
X70207948Y51801170D01*
X70207958Y51809880D01*
X70207968Y51820042D01*
X70207977Y51831615D01*
X70207987Y51844559D01*
X70207996Y51858834D01*
X70208006Y51874400D01*
X70208015Y51891217D01*
X70208025Y51909243D01*
X70208034Y51928439D01*
X70208043Y51948765D01*
X70208052Y51970181D01*
X70208061Y51992645D01*
X70208070Y52016118D01*
X70208079Y52040560D01*
X70208087Y52065930D01*
X70208095Y52092188D01*
X70208103Y52119294D01*
X70208111Y52147207D01*
X70208118Y52175888D01*
X70208125Y52205295D01*
X70208132Y52235390D01*
X70208139Y52266130D01*
X70208145Y52297477D01*
X70208151Y52329390D01*
X70208156Y52361828D01*
X70208161Y52394752D01*
X70208166Y52428121D01*
X70208169Y52452313D01*
X70208254Y53123677D01*
X69957160Y53123890D01*
X69706067Y53124103D01*
X68441741Y53124103D01*
X68441737Y53127487D01*
X67942460Y53127487D01*
X66669920Y53127487D01*
X66167835Y53127487D01*
X65580516Y53127487D01*
X65582594Y53138737D01*
X65591208Y53176166D01*
X65601409Y53213077D01*
X65613173Y53249428D01*
X65626475Y53285174D01*
X65641289Y53320274D01*
X65657590Y53354683D01*
X65675355Y53388358D01*
X65694556Y53421256D01*
X65715171Y53453334D01*
X65737173Y53484549D01*
X65760539Y53514857D01*
X65785241Y53544215D01*
X65811257Y53572580D01*
X65838560Y53599909D01*
X65867126Y53626158D01*
X65890835Y53646321D01*
X65902365Y53655564D01*
X65915013Y53665293D01*
X65928386Y53675225D01*
X65942095Y53685079D01*
X65955747Y53694570D01*
X65968951Y53703417D01*
X65977770Y53709108D01*
X66011131Y53729261D01*
X66045167Y53747870D01*
X66079850Y53764923D01*
X66115149Y53780409D01*
X66151035Y53794317D01*
X66187478Y53806635D01*
X66224449Y53817353D01*
X66261919Y53826459D01*
X66299858Y53833942D01*
X66310493Y53835734D01*
X66324332Y53837880D01*
X66337877Y53839769D01*
X66351526Y53841446D01*
X66365678Y53842956D01*
X66380730Y53844345D01*
X66396870Y53845643D01*
X66398282Y53845686D01*
X66401356Y53845728D01*
X66406064Y53845769D01*
X66412374Y53845809D01*
X66420256Y53845849D01*
X66429681Y53845888D01*
X66440617Y53845926D01*
X66453035Y53845963D01*
X66466905Y53845999D01*
X66482196Y53846035D01*
X66498878Y53846070D01*
X66516921Y53846104D01*
X66536294Y53846138D01*
X66556967Y53846170D01*
X66578911Y53846202D01*
X66602094Y53846233D01*
X66626487Y53846264D01*
X66652060Y53846293D01*
X66678781Y53846322D01*
X66706622Y53846350D01*
X66735551Y53846378D01*
X66765538Y53846404D01*
X66796554Y53846430D01*
X66828568Y53846455D01*
X66861549Y53846479D01*
X66895468Y53846502D01*
X66930294Y53846525D01*
X66965997Y53846547D01*
X67002547Y53846568D01*
X67039914Y53846588D01*
X67078067Y53846608D01*
X67116976Y53846627D01*
X67156610Y53846645D01*
X67196941Y53846662D01*
X67237937Y53846679D01*
X67279568Y53846694D01*
X67321804Y53846709D01*
X67364614Y53846724D01*
X67407969Y53846737D01*
X67451839Y53846750D01*
X67496192Y53846762D01*
X67540999Y53846773D01*
X67586230Y53846783D01*
X67631854Y53846793D01*
X67677841Y53846802D01*
X67724160Y53846810D01*
X67770783Y53846817D01*
X67817678Y53846824D01*
X67864814Y53846829D01*
X67912163Y53846834D01*
X67959694Y53846839D01*
X68007375Y53846842D01*
X68055179Y53846845D01*
X68103073Y53846847D01*
X68151027Y53846848D01*
X68246998Y53846848D01*
X68294953Y53846847D01*
G37*
X68294953Y53846847D02*
X68342849Y53846845D01*
X68390654Y53846842D01*
X68438338Y53846839D01*
X68485871Y53846834D01*
X68533223Y53846829D01*
X68580364Y53846824D01*
X68627263Y53846817D01*
X68673890Y53846810D01*
X68720216Y53846802D01*
X68766209Y53846793D01*
X68811839Y53846783D01*
X68857077Y53846773D01*
X68901891Y53846762D01*
X68946252Y53846750D01*
X68990130Y53846737D01*
X69033495Y53846724D01*
X69076315Y53846710D01*
X69118561Y53846695D01*
X69160202Y53846679D01*
X69201209Y53846662D01*
X69241551Y53846645D01*
X69281198Y53846627D01*
X69320120Y53846608D01*
X69358286Y53846589D01*
X69395666Y53846568D01*
X69432231Y53846547D01*
X69467949Y53846525D01*
X69502790Y53846503D01*
X69536725Y53846479D01*
X69569722Y53846455D01*
X69601753Y53846430D01*
X69632786Y53846404D01*
X69662791Y53846378D01*
X69691739Y53846351D01*
X69719598Y53846323D01*
X69746339Y53846294D01*
X69771931Y53846264D01*
X69796345Y53846234D01*
X69819549Y53846203D01*
X69841514Y53846171D01*
X69862210Y53846138D01*
X69881606Y53846105D01*
X69899671Y53846071D01*
X69916377Y53846036D01*
X69931692Y53846000D01*
X69945586Y53845964D01*
X69958030Y53845926D01*
X69968992Y53845888D01*
X69978442Y53845850D01*
X69986352Y53845810D01*
X69992689Y53845770D01*
X69997424Y53845729D01*
X70000527Y53845687D01*
X70001967Y53845644D01*
X70001977Y53845643D01*
X70034921Y53842695D01*
X70066617Y53838899D01*
X70097310Y53834208D01*
X70127245Y53828574D01*
X70156665Y53821948D01*
X70185817Y53814283D01*
X70214945Y53805530D01*
X70227878Y53801301D01*
X70263884Y53788354D01*
X70299247Y53773858D01*
X70333916Y53757854D01*
X70367843Y53740377D01*
X70400977Y53721469D01*
X70433268Y53701165D01*
X70464666Y53679506D01*
X70495122Y53656528D01*
X70524585Y53632271D01*
X70553005Y53606772D01*
X70580333Y53580071D01*
X70606519Y53552205D01*
X70631512Y53523212D01*
X70655263Y53493131D01*
X70677721Y53462001D01*
X70685798Y53450067D01*
X70706785Y53417004D01*
X70726208Y53383307D01*
X70744059Y53348989D01*
X70760334Y53314066D01*
X70775026Y53278552D01*
X70788130Y53242461D01*
X70799639Y53205809D01*
X70809549Y53168610D01*
X70817853Y53130878D01*
X70823254Y53100834D01*
X70824747Y53091394D01*
X70826084Y53082389D01*
X70827301Y53073512D01*
X70828436Y53064453D01*
X70829525Y53054904D01*
X70830606Y53044558D01*
X70831716Y53033106D01*
X70832765Y53021653D01*
X70832824Y53020910D01*
X70832882Y53020013D01*
X70832939Y53018938D01*
X70832993Y53017660D01*
X70833046Y53016156D01*
X70833098Y53014401D01*
X70833148Y53012371D01*
X70833197Y53010041D01*
X70833244Y53007388D01*
X70833290Y53004386D01*
X70833334Y53001013D01*
X70833377Y52997243D01*
X70833419Y52993053D01*
X70833459Y52988417D01*
X70833498Y52983313D01*
X70833536Y52977715D01*
X70833572Y52971599D01*
X70833608Y52964941D01*
X70833642Y52957718D01*
X70833675Y52949903D01*
X70833707Y52941474D01*
X70833738Y52932406D01*
X70833768Y52922675D01*
X70833797Y52912257D01*
X70833824Y52901126D01*
X70833851Y52889260D01*
X70833877Y52876634D01*
X70833902Y52863223D01*
X70833927Y52849003D01*
X70833950Y52833950D01*
X70833973Y52818040D01*
X70833995Y52801249D01*
X70834016Y52783551D01*
X70834036Y52764924D01*
X70834056Y52745343D01*
X70834075Y52724783D01*
X70834093Y52703220D01*
X70834111Y52680630D01*
X70834128Y52656989D01*
X70834145Y52632272D01*
X70834161Y52606456D01*
X70834177Y52579516D01*
X70834192Y52551427D01*
X70834207Y52522166D01*
X70834221Y52491707D01*
X70834236Y52460028D01*
X70834249Y52427104D01*
X70834263Y52392910D01*
X70834276Y52357422D01*
X70834289Y52320616D01*
X70834302Y52282468D01*
X70834314Y52242953D01*
X70834327Y52202047D01*
X70834339Y52159726D01*
X70834351Y52115966D01*
X70834363Y52070743D01*
X70834375Y52024031D01*
X70834387Y51975807D01*
X70834399Y51926047D01*
X70834412Y51874727D01*
X70834424Y51821821D01*
X70834436Y51767306D01*
X70834449Y51711158D01*
X70834461Y51653352D01*
X70834467Y51625500D01*
X70834481Y51561843D01*
X70834493Y51499865D01*
X70834504Y51439553D01*
X70834514Y51380893D01*
X70834523Y51323871D01*
X70834531Y51268474D01*
X70834538Y51214686D01*
X70834543Y51162496D01*
X70834548Y51111888D01*
X70834551Y51062849D01*
X70834553Y51015365D01*
X70834554Y50969423D01*
X70834554Y50925008D01*
X70834552Y50882107D01*
X70834550Y50840706D01*
X70834546Y50800791D01*
X70834541Y50762348D01*
X70834535Y50725364D01*
X70834527Y50689824D01*
X70834519Y50655716D01*
X70834509Y50623024D01*
X70834498Y50591735D01*
X70834485Y50561836D01*
X70834472Y50533313D01*
X70834457Y50506151D01*
X70834441Y50480337D01*
X70834424Y50455858D01*
X70834405Y50432698D01*
X70834385Y50410845D01*
X70834364Y50390285D01*
X70834342Y50371004D01*
X70834318Y50352988D01*
X70834293Y50336223D01*
X70834267Y50320695D01*
X70834239Y50306391D01*
X70834210Y50293297D01*
X70834180Y50281399D01*
X70834148Y50270683D01*
X70834116Y50261135D01*
X70834081Y50252742D01*
X70834046Y50245490D01*
X70834009Y50239364D01*
X70833971Y50234352D01*
X70833931Y50230439D01*
X70833890Y50227611D01*
X70833847Y50225855D01*
X70833835Y50225537D01*
X70831133Y50186477D01*
X70826788Y50147801D01*
X70820806Y50109535D01*
X70813194Y50071703D01*
X70803961Y50034331D01*
X70793114Y49997444D01*
X70780661Y49961068D01*
X70766610Y49925227D01*
X70750967Y49889948D01*
X70733741Y49855255D01*
X70714940Y49821174D01*
X70708753Y49810670D01*
X70688333Y49778172D01*
X70666514Y49746597D01*
X70643347Y49715995D01*
X70618882Y49686414D01*
X70593170Y49657903D01*
X70566262Y49630510D01*
X70538207Y49604284D01*
X70509057Y49579274D01*
X70478862Y49555528D01*
X70447673Y49533095D01*
X70415540Y49512023D01*
X70382515Y49492362D01*
X70370700Y49485793D01*
X70336160Y49467889D01*
X70301061Y49451582D01*
X70265418Y49436877D01*
X70229242Y49423777D01*
X70192544Y49412286D01*
X70155338Y49402406D01*
X70117636Y49394142D01*
X70079449Y49387497D01*
X70040790Y49382474D01*
X70001672Y49379076D01*
X69991394Y49378458D01*
X69990040Y49378430D01*
X69987024Y49378403D01*
X69982375Y49378376D01*
X69976124Y49378350D01*
X69968301Y49378325D01*
X69958936Y49378300D01*
X69948060Y49378275D01*
X69935702Y49378251D01*
X69921894Y49378228D01*
X69906665Y49378205D01*
X69890045Y49378182D01*
X69872066Y49378160D01*
X69852756Y49378139D01*
X69832148Y49378118D01*
X69810270Y49378098D01*
X69787153Y49378078D01*
X69762827Y49378059D01*
X69737323Y49378040D01*
X69710671Y49378022D01*
X69682901Y49378005D01*
X69654044Y49377987D01*
X69624129Y49377971D01*
X69593187Y49377955D01*
X69561249Y49377939D01*
X69528344Y49377924D01*
X69494503Y49377910D01*
X69459756Y49377896D01*
X69424134Y49377882D01*
X69387666Y49377869D01*
X69350383Y49377857D01*
X69312315Y49377845D01*
X69273493Y49377834D01*
X69233947Y49377823D01*
X69193707Y49377812D01*
X69152803Y49377803D01*
X69111266Y49377793D01*
X69069126Y49377784D01*
X69026413Y49377776D01*
X68983158Y49377768D01*
X68939390Y49377761D01*
X68895141Y49377754D01*
X68850439Y49377748D01*
X68805317Y49377742D01*
X68759803Y49377737D01*
X68713928Y49377732D01*
X68667723Y49377728D01*
X68621218Y49377724D01*
X68574443Y49377721D01*
X68527427Y49377718D01*
X68480203Y49377716D01*
X68432799Y49377715D01*
X68385247Y49377713D01*
X68337576Y49377713D01*
X68289816Y49377712D01*
X68241999Y49377713D01*
X68194153Y49377714D01*
X68146311Y49377715D01*
X68098501Y49377717D01*
X68050754Y49377719D01*
X68003101Y49377722D01*
X67955571Y49377725D01*
X67908195Y49377729D01*
X67861004Y49377733D01*
X67814027Y49377738D01*
X67767294Y49377743D01*
X67720837Y49377749D01*
X67674685Y49377756D01*
X67628869Y49377762D01*
X67583418Y49377770D01*
X67538364Y49377777D01*
X67493736Y49377786D01*
X67449565Y49377794D01*
X67405881Y49377804D01*
X67362714Y49377813D01*
X67320095Y49377824D01*
X67278053Y49377834D01*
X67236620Y49377846D01*
X67195825Y49377857D01*
X67155699Y49377869D01*
X67116272Y49377882D01*
X67077574Y49377895D01*
X67039636Y49377909D01*
X67002487Y49377923D01*
X66966159Y49377938D01*
X66930681Y49377953D01*
X66896083Y49377968D01*
X66862397Y49377984D01*
X66829651Y49378001D01*
X66797878Y49378018D01*
X66767105Y49378035D01*
X66737365Y49378053D01*
X66708688Y49378072D01*
X66681103Y49378091D01*
X66654641Y49378110D01*
X66629332Y49378130D01*
X66605206Y49378150D01*
X66582294Y49378171D01*
X66560626Y49378192D01*
X66540233Y49378214D01*
X66521144Y49378236D01*
X66503390Y49378259D01*
X66487001Y49378282D01*
X66472007Y49378306D01*
X66458439Y49378330D01*
X66446327Y49378355D01*
X66435702Y49378380D01*
X66426593Y49378405D01*
X66419030Y49378431D01*
X66413045Y49378458D01*
X66408667Y49378485D01*
X66405927Y49378512D01*
X66404914Y49378535D01*
X66366177Y49381541D01*
X66327755Y49386202D01*
X66289694Y49392499D01*
X66252037Y49400418D01*
X66214830Y49409939D01*
X66178117Y49421047D01*
X66141943Y49433725D01*
X66106353Y49447954D01*
X66071391Y49463718D01*
X66037102Y49481001D01*
X66003532Y49499785D01*
X65970724Y49520052D01*
X65938723Y49541787D01*
X65907575Y49564971D01*
X65899793Y49571098D01*
X65870099Y49595819D01*
X65841550Y49621770D01*
X65814183Y49648902D01*
X65788032Y49677166D01*
X65763136Y49706513D01*
X65739531Y49736892D01*
X65717252Y49768256D01*
X65696337Y49800554D01*
X65676821Y49833737D01*
X65658742Y49867757D01*
X65642136Y49902564D01*
X65627038Y49938108D01*
X65625533Y49941903D01*
X65612166Y49978100D01*
X65600446Y50014649D01*
X65590364Y50051578D01*
X65581916Y50088915D01*
X65575096Y50126688D01*
X65569897Y50164925D01*
X65566314Y50203655D01*
X65565012Y50225537D01*
X65564970Y50226976D01*
X65564928Y50229482D01*
X65564888Y50233070D01*
X65564849Y50237753D01*
X65564812Y50243545D01*
X65564776Y50250460D01*
X65564742Y50258512D01*
X65564708Y50267713D01*
X65564676Y50278079D01*
X65564646Y50289623D01*
X65564616Y50302359D01*
X65564588Y50316301D01*
X65564562Y50331462D01*
X65564536Y50347857D01*
X65564512Y50365498D01*
X65564489Y50384401D01*
X65564468Y50404578D01*
X65564448Y50426044D01*
X65564429Y50448812D01*
X65564411Y50472896D01*
X65564395Y50498311D01*
X65564380Y50525069D01*
X65564366Y50553185D01*
X65564353Y50582672D01*
X65564341Y50613545D01*
X65564331Y50645817D01*
X65564322Y50679501D01*
X65564315Y50714612D01*
X65564308Y50751164D01*
X65564303Y50789171D01*
X65564298Y50828645D01*
X65564295Y50869601D01*
X65564294Y50912054D01*
X65564293Y50956015D01*
X65564294Y51001501D01*
X65564295Y51048523D01*
X65564298Y51097097D01*
X65564302Y51147235D01*
X65564308Y51198952D01*
X65564314Y51252262D01*
X65564321Y51307178D01*
X65564330Y51363714D01*
X65564340Y51421884D01*
X65564351Y51481701D01*
X65564363Y51543181D01*
X65564376Y51606335D01*
X65564380Y51625500D01*
X65564392Y51684096D01*
X65564405Y51741023D01*
X65564417Y51796306D01*
X65564430Y51849967D01*
X65564442Y51902033D01*
X65564454Y51952526D01*
X65564466Y52001471D01*
X65564478Y52048893D01*
X65564490Y52094816D01*
X65564502Y52139263D01*
X65564515Y52182260D01*
X65564527Y52223830D01*
X65564539Y52263998D01*
X65564552Y52302788D01*
X65564565Y52340224D01*
X65564578Y52376331D01*
X65564591Y52411132D01*
X65564605Y52444653D01*
X65564619Y52476916D01*
X65564633Y52507948D01*
X65564648Y52537770D01*
X65564663Y52566409D01*
X65564678Y52593888D01*
X65564694Y52620232D01*
X65564711Y52645464D01*
X65564728Y52669610D01*
X65564745Y52692693D01*
X65564763Y52714737D01*
X65564782Y52735767D01*
X65564802Y52755807D01*
X65564822Y52774881D01*
X65564842Y52793014D01*
X65564864Y52810230D01*
X65564886Y52826553D01*
X65564909Y52842007D01*
X65564933Y52856617D01*
X65564958Y52870406D01*
X65564983Y52883400D01*
X65565010Y52895622D01*
X65565037Y52907096D01*
X65565066Y52917847D01*
X65565095Y52927900D01*
X65565125Y52937278D01*
X65565157Y52946005D01*
X65565189Y52954106D01*
X65565223Y52961606D01*
X65565258Y52968527D01*
X65565294Y52974896D01*
X65565331Y52980735D01*
X65565370Y52986069D01*
X65565409Y52990923D01*
X65565450Y52995320D01*
X65565493Y52999285D01*
X65565536Y53002843D01*
X65565581Y53006017D01*
X65565628Y53008831D01*
X65565676Y53011310D01*
X65565725Y53013479D01*
X65565776Y53015361D01*
X65565828Y53016980D01*
X65565882Y53018362D01*
X65565938Y53019530D01*
X65565995Y53020508D01*
X65566054Y53021321D01*
X65566082Y53021653D01*
X65567249Y53034358D01*
X65568354Y53045681D01*
X65569434Y53055930D01*
X65570527Y53065413D01*
X65571668Y53074438D01*
X65572896Y53083315D01*
X65574248Y53092351D01*
X65575593Y53100834D01*
X65580516Y53127487D01*
X66167835Y53127487D01*
X66168076Y52020682D01*
X66168087Y51968357D01*
X66168098Y51917698D01*
X66168109Y51868678D01*
X66168121Y51821269D01*
X66168132Y51775445D01*
X66168143Y51731177D01*
X66168154Y51688439D01*
X66168165Y51647203D01*
X66168176Y51607443D01*
X66168187Y51569130D01*
X66168199Y51532237D01*
X66168211Y51496738D01*
X66168223Y51462605D01*
X66168235Y51429810D01*
X66168248Y51398326D01*
X66168262Y51368127D01*
X66168275Y51339184D01*
X66168289Y51311471D01*
X66168304Y51284960D01*
X66168319Y51259624D01*
X66168335Y51235435D01*
X66168352Y51212367D01*
X66168369Y51190391D01*
X66168387Y51169482D01*
X66168406Y51149611D01*
X66168425Y51130751D01*
X66168446Y51112874D01*
X66168467Y51095955D01*
X66168489Y51079965D01*
X66168513Y51064876D01*
X66168537Y51050663D01*
X66168562Y51037296D01*
X66168589Y51024750D01*
X66168616Y51012997D01*
X66168645Y51002010D01*
X66168675Y50991760D01*
X66168707Y50982222D01*
X66168739Y50973367D01*
X66168773Y50965169D01*
X66168809Y50957600D01*
X66168845Y50950633D01*
X66168884Y50944240D01*
X66168923Y50938395D01*
X66168965Y50933069D01*
X66169008Y50928236D01*
X66169052Y50923869D01*
X66169099Y50919940D01*
X66169147Y50916421D01*
X66169196Y50913286D01*
X66169248Y50910508D01*
X66169302Y50908058D01*
X66169357Y50905910D01*
X66169414Y50904037D01*
X66169473Y50902410D01*
X66169535Y50901003D01*
X66169598Y50899789D01*
X66169663Y50898740D01*
X66169731Y50897829D01*
X66169770Y50897367D01*
X66172559Y50869264D01*
X66175879Y50842493D01*
X66179787Y50816762D01*
X66184339Y50791779D01*
X66189589Y50767249D01*
X66195595Y50742881D01*
X66202411Y50718382D01*
X66206524Y50704750D01*
X66215772Y50676799D01*
X66226289Y50648455D01*
X66237893Y50620147D01*
X66250403Y50592300D01*
X66263636Y50565344D01*
X66274142Y50545577D01*
X66293182Y50512751D01*
X66313640Y50480821D01*
X66335469Y50449834D01*
X66358622Y50419837D01*
X66383051Y50390877D01*
X66408709Y50363001D01*
X66435550Y50336256D01*
X66463526Y50310690D01*
X66492589Y50286349D01*
X66522692Y50263280D01*
X66553789Y50241532D01*
X66585832Y50221150D01*
X66617618Y50202815D01*
X66650729Y50185597D01*
X66684633Y50169826D01*
X66719237Y50155529D01*
X66754447Y50142734D01*
X66790169Y50131467D01*
X66826311Y50121756D01*
X66862779Y50113628D01*
X66899479Y50107110D01*
X66936317Y50102230D01*
X66973201Y50099015D01*
X66973874Y50098972D01*
X66978976Y50098648D01*
X66983865Y50098336D01*
X66988124Y50098064D01*
X66991337Y50097857D01*
X66992500Y50097782D01*
X66993924Y50097746D01*
X66996979Y50097713D01*
X67001604Y50097684D01*
X67007737Y50097658D01*
X67015316Y50097636D01*
X67024280Y50097618D01*
X67034566Y50097602D01*
X67046113Y50097590D01*
X67058859Y50097581D01*
X67072742Y50097574D01*
X67087701Y50097571D01*
X67103674Y50097571D01*
X67120598Y50097573D01*
X67138413Y50097578D01*
X67157056Y50097586D01*
X67176465Y50097596D01*
X67196579Y50097608D01*
X67217337Y50097623D01*
X67238675Y50097640D01*
X67260533Y50097659D01*
X67282849Y50097681D01*
X67305561Y50097704D01*
X67328606Y50097729D01*
X67351924Y50097756D01*
X67375453Y50097785D01*
X67399130Y50097815D01*
X67422894Y50097847D01*
X67446683Y50097880D01*
X67470436Y50097915D01*
X67494090Y50097951D01*
X67517584Y50097988D01*
X67540856Y50098027D01*
X67563845Y50098066D01*
X67586488Y50098106D01*
X67608723Y50098148D01*
X67630490Y50098190D01*
X67651725Y50098232D01*
X67672368Y50098276D01*
X67692356Y50098319D01*
X67711629Y50098364D01*
X67730123Y50098408D01*
X67747777Y50098453D01*
X67764530Y50098498D01*
X67780319Y50098543D01*
X67795084Y50098589D01*
X67808761Y50098634D01*
X67821290Y50098679D01*
X67832608Y50098723D01*
X67842654Y50098768D01*
X67851365Y50098812D01*
X67858681Y50098855D01*
X67864540Y50098898D01*
X67868878Y50098940D01*
X67871636Y50098982D01*
X67872378Y50099001D01*
X67898036Y50100395D01*
X67922688Y50102723D01*
X67942460Y50105387D01*
X67973264Y50110997D01*
X68003571Y50118207D01*
X68033328Y50126984D01*
X68062481Y50137293D01*
X68090979Y50149101D01*
X68118767Y50162374D01*
X68145792Y50177079D01*
X68172002Y50193180D01*
X68197343Y50210645D01*
X68221762Y50229440D01*
X68245207Y50249531D01*
X68267623Y50270883D01*
X68288959Y50293464D01*
X68309160Y50317239D01*
X68328173Y50342174D01*
X68339359Y50358227D01*
X68356127Y50384665D01*
X68371451Y50411957D01*
X68385293Y50440021D01*
X68397616Y50468774D01*
X68408385Y50498134D01*
X68417562Y50528021D01*
X68420428Y50538735D01*
X68424879Y50557127D01*
X68428654Y50575170D01*
X68431820Y50593287D01*
X68434447Y50611902D01*
X68436603Y50631437D01*
X68437936Y50646753D01*
X68438039Y50648927D01*
X68438137Y50652720D01*
X68438230Y50658059D01*
X68438319Y50664869D01*
X68438403Y50673076D01*
X68438483Y50682607D01*
X68438558Y50693387D01*
X68438629Y50705343D01*
X68438695Y50718401D01*
X68438756Y50732486D01*
X68438813Y50747525D01*
X68438865Y50763444D01*
X68438912Y50780168D01*
X68438955Y50797624D01*
X68438994Y50815738D01*
X68439027Y50834436D01*
X68439057Y50853644D01*
X68439081Y50873287D01*
X68439101Y50893293D01*
X68439117Y50913587D01*
X68439128Y50934094D01*
X68439134Y50954742D01*
X68439135Y50975456D01*
X68439132Y50996162D01*
X68439125Y51016786D01*
X68439113Y51037254D01*
X68439096Y51057493D01*
X68439075Y51077428D01*
X68439049Y51096985D01*
X68439018Y51116090D01*
X68438983Y51134670D01*
X68438943Y51152650D01*
X68438899Y51169957D01*
X68438850Y51186516D01*
X68438796Y51202254D01*
X68438738Y51217096D01*
X68438676Y51230969D01*
X68438608Y51243799D01*
X68438536Y51255511D01*
X68438460Y51266032D01*
X68438379Y51275287D01*
X68438293Y51283204D01*
X68438202Y51289707D01*
X68438107Y51294723D01*
X68438008Y51298178D01*
X68437942Y51299533D01*
X68435524Y51330172D01*
X68432394Y51359423D01*
X68428531Y51387446D01*
X68423914Y51414400D01*
X68420095Y51433307D01*
X68411162Y51470831D01*
X68400670Y51507701D01*
X68388624Y51543901D01*
X68375033Y51579416D01*
X68359905Y51614232D01*
X68343247Y51648332D01*
X68325067Y51681702D01*
X68305372Y51714327D01*
X68284169Y51746191D01*
X68261468Y51777280D01*
X68237274Y51807578D01*
X68223948Y51823197D01*
X68219173Y51828531D01*
X68213355Y51834802D01*
X68206701Y51841803D01*
X68199418Y51849328D01*
X68191712Y51857170D01*
X68183790Y51865123D01*
X68175858Y51872980D01*
X68168124Y51880535D01*
X68160792Y51887580D01*
X68154071Y51893910D01*
X68148166Y51899317D01*
X68145237Y51901915D01*
X68115365Y51926901D01*
X68084709Y51950389D01*
X68053290Y51972370D01*
X68021132Y51992836D01*
X67988257Y52011776D01*
X67954688Y52029182D01*
X67920448Y52045045D01*
X67885560Y52059354D01*
X67850046Y52072102D01*
X67813930Y52083279D01*
X67777233Y52092875D01*
X67739979Y52100882D01*
X67702191Y52107290D01*
X67663891Y52112090D01*
X67625101Y52115273D01*
X67616494Y52115756D01*
X67614318Y52115822D01*
X67610522Y52115884D01*
X67605181Y52115941D01*
X67598366Y52115993D01*
X67590151Y52116041D01*
X67580611Y52116085D01*
X67569817Y52116124D01*
X67557845Y52116158D01*
X67544767Y52116188D01*
X67530656Y52116214D01*
X67515586Y52116236D01*
X67499632Y52116254D01*
X67482865Y52116267D01*
X67465359Y52116277D01*
X67447188Y52116282D01*
X67428426Y52116284D01*
X67409145Y52116282D01*
X67389420Y52116276D01*
X67369323Y52116267D01*
X67348929Y52116254D01*
X67328310Y52116237D01*
X67307539Y52116217D01*
X67286692Y52116194D01*
X67265840Y52116167D01*
X67245057Y52116137D01*
X67224417Y52116104D01*
X67203994Y52116067D01*
X67183860Y52116028D01*
X67164089Y52115985D01*
X67144754Y52115940D01*
X67125930Y52115891D01*
X67107689Y52115840D01*
X67090105Y52115786D01*
X67073251Y52115730D01*
X67057201Y52115670D01*
X67042028Y52115609D01*
X67027805Y52115544D01*
X67014607Y52115478D01*
X67002506Y52115409D01*
X66991576Y52115337D01*
X66981891Y52115263D01*
X66973523Y52115188D01*
X66973239Y52115185D01*
X66922227Y52114671D01*
X66922227Y51613461D01*
X67038009Y51613983D01*
X67050202Y51614035D01*
X67063948Y51614087D01*
X67079104Y51614140D01*
X67095532Y51614192D01*
X67113088Y51614244D01*
X67131632Y51614295D01*
X67151024Y51614345D01*
X67171121Y51614394D01*
X67191784Y51614441D01*
X67212871Y51614486D01*
X67234240Y51614528D01*
X67255751Y51614568D01*
X67277264Y51614605D01*
X67298636Y51614638D01*
X67319727Y51614668D01*
X67340395Y51614694D01*
X67356567Y51614711D01*
X67378671Y51614734D01*
X67399152Y51614755D01*
X67418080Y51614773D01*
X67435524Y51614787D01*
X67451555Y51614796D01*
X67466243Y51614799D01*
X67479657Y51614794D01*
X67491868Y51614781D01*
X67502946Y51614758D01*
X67512960Y51614725D01*
X67521981Y51614680D01*
X67530078Y51614622D01*
X67537323Y51614550D01*
X67543784Y51614463D01*
X67549531Y51614359D01*
X67554635Y51614239D01*
X67559166Y51614100D01*
X67563194Y51613941D01*
X67566788Y51613762D01*
X67570019Y51613561D01*
X67572956Y51613337D01*
X67575670Y51613089D01*
X67578231Y51612816D01*
X67580709Y51612517D01*
X67583173Y51612191D01*
X67585693Y51611836D01*
X67588341Y51611452D01*
X67591185Y51611037D01*
X67591517Y51610989D01*
X67616848Y51606473D01*
X67641705Y51600362D01*
X67666023Y51592704D01*
X67689735Y51583547D01*
X67712776Y51572940D01*
X67735081Y51560931D01*
X67756584Y51547568D01*
X67777219Y51532900D01*
X67796921Y51516974D01*
X67815625Y51499839D01*
X67833264Y51481542D01*
X67849774Y51462133D01*
X67865089Y51441660D01*
X67879142Y51420170D01*
X67891870Y51397712D01*
X67898037Y51385470D01*
X67908376Y51362358D01*
X67917137Y51339081D01*
X67924365Y51315466D01*
X67930109Y51291342D01*
X67934415Y51266534D01*
X67937330Y51240869D01*
X67937345Y51240690D01*
X67937441Y51238683D01*
X67937532Y51234997D01*
X67937617Y51229646D01*
X67937697Y51222644D01*
X67937771Y51214006D01*
X67937839Y51203746D01*
X67937902Y51191877D01*
X67937958Y51178414D01*
X67938009Y51163372D01*
X67938055Y51146765D01*
X67938094Y51128606D01*
X67938127Y51108910D01*
X67938154Y51087691D01*
X67938176Y51064963D01*
X67938191Y51040741D01*
X67938200Y51015039D01*
X67938203Y50987871D01*
X67938203Y50985843D01*
X67938202Y50961374D01*
X67938202Y50938537D01*
X67938201Y50917274D01*
X67938199Y50897525D01*
X67938194Y50879229D01*
X67938185Y50862327D01*
X67938172Y50846758D01*
X67938153Y50832463D01*
X67938128Y50819382D01*
X67938096Y50807455D01*
X67938056Y50796622D01*
X67938006Y50786822D01*
X67937946Y50777997D01*
X67937875Y50770086D01*
X67937793Y50763029D01*
X67937697Y50756766D01*
X67937588Y50751238D01*
X67937464Y50746384D01*
X67937324Y50742144D01*
X67937167Y50738459D01*
X67936993Y50735268D01*
X67936801Y50732512D01*
X67936589Y50730130D01*
X67936357Y50728064D01*
X67936103Y50726252D01*
X67935827Y50724634D01*
X67935528Y50723152D01*
X67935205Y50721744D01*
X67934857Y50720352D01*
X67934483Y50718914D01*
X67934082Y50717372D01*
X67934015Y50717110D01*
X67929228Y50701685D01*
X67922982Y50687022D01*
X67915362Y50673205D01*
X67906452Y50660314D01*
X67896339Y50648431D01*
X67885105Y50637639D01*
X67872837Y50628019D01*
X67859620Y50619652D01*
X67845538Y50612621D01*
X67830676Y50607007D01*
X67815460Y50602964D01*
X67812821Y50602426D01*
X67810312Y50601980D01*
X67807719Y50601615D01*
X67804833Y50601315D01*
X67801441Y50601067D01*
X67797334Y50600856D01*
X67792298Y50600670D01*
X67786124Y50600495D01*
X67778600Y50600316D01*
X67773127Y50600196D01*
X67768963Y50600124D01*
X67763280Y50600053D01*
X67756146Y50599983D01*
X67747630Y50599915D01*
X67737800Y50599847D01*
X67726726Y50599781D01*
X67714475Y50599716D01*
X67701117Y50599653D01*
X67686720Y50599591D01*
X67671353Y50599531D01*
X67655084Y50599473D01*
X67637983Y50599416D01*
X67620117Y50599361D01*
X67601556Y50599309D01*
X67582368Y50599258D01*
X67562622Y50599210D01*
X67542386Y50599164D01*
X67521730Y50599120D01*
X67500721Y50599078D01*
X67479429Y50599039D01*
X67457923Y50599003D01*
X67436270Y50598970D01*
X67414539Y50598939D01*
X67392800Y50598911D01*
X67371121Y50598885D01*
X67349570Y50598863D01*
X67328217Y50598844D01*
X67307129Y50598829D01*
X67286376Y50598816D01*
X67266026Y50598807D01*
X67246148Y50598801D01*
X67226811Y50598799D01*
X67208083Y50598800D01*
X67190033Y50598805D01*
X67172729Y50598814D01*
X67156241Y50598827D01*
X67140636Y50598844D01*
X67125984Y50598864D01*
X67112353Y50598889D01*
X67099813Y50598918D01*
X67088430Y50598951D01*
X67078275Y50598989D01*
X67069416Y50599031D01*
X67061922Y50599078D01*
X67055861Y50599129D01*
X67051302Y50599185D01*
X67048313Y50599246D01*
X67047110Y50599297D01*
X67020497Y50602173D01*
X66994459Y50606642D01*
X66969009Y50612696D01*
X66944163Y50620331D01*
X66919935Y50629541D01*
X66896338Y50640319D01*
X66873388Y50652660D01*
X66851100Y50666559D01*
X66829486Y50682009D01*
X66815124Y50693446D01*
X66810559Y50697389D01*
X66805153Y50702306D01*
X66799195Y50707911D01*
X66792976Y50713921D01*
X66786788Y50720050D01*
X66780920Y50726014D01*
X66775665Y50731528D01*
X66771312Y50736307D01*
X66771143Y50736500D01*
X66754598Y50756589D01*
X66739365Y50777656D01*
X66725507Y50799593D01*
X66713086Y50822288D01*
X66702167Y50845634D01*
X66692811Y50869521D01*
X66690343Y50876703D01*
X66683241Y50900440D01*
X66677651Y50924480D01*
X66673523Y50949069D01*
X66671181Y50969959D01*
X66671120Y50970790D01*
X66671061Y50971907D01*
X66671004Y50973334D01*
X66670950Y50975100D01*
X66670897Y50977231D01*
X66670845Y50979754D01*
X66670796Y50982696D01*
X66670748Y50986083D01*
X66670702Y50989944D01*
X66670658Y50994303D01*
X66670616Y50999190D01*
X66670575Y51004629D01*
X66670535Y51010649D01*
X66670498Y51017277D01*
X66670461Y51024538D01*
X66670427Y51032460D01*
X66670394Y51041071D01*
X66670362Y51050396D01*
X66670332Y51060462D01*
X66670303Y51071298D01*
X66670275Y51082928D01*
X66670249Y51095382D01*
X66670224Y51108684D01*
X66670200Y51122863D01*
X66670178Y51137945D01*
X66670157Y51153957D01*
X66670137Y51170925D01*
X66670118Y51188878D01*
X66670100Y51207841D01*
X66670083Y51227842D01*
X66670067Y51248908D01*
X66670053Y51271064D01*
X66670039Y51294339D01*
X66670026Y51318760D01*
X66670015Y51344352D01*
X66670004Y51371144D01*
X66669994Y51399161D01*
X66669984Y51428431D01*
X66669976Y51458981D01*
X66669968Y51490837D01*
X66669961Y51524028D01*
X66669955Y51558578D01*
X66669950Y51594516D01*
X66669945Y51631868D01*
X66669940Y51670661D01*
X66669937Y51710922D01*
X66669934Y51752678D01*
X66669931Y51795956D01*
X66669929Y51840782D01*
X66669927Y51887185D01*
X66669926Y51935189D01*
X66669925Y51984823D01*
X66669925Y52036114D01*
X66669924Y52055818D01*
X66669920Y53127487D01*
X67942460Y53127487D01*
X67942460Y52198868D01*
X67956642Y52193195D01*
X67980725Y52183115D01*
X68005486Y52171894D01*
X68030547Y52159721D01*
X68055535Y52146782D01*
X68080074Y52133265D01*
X68100364Y52121423D01*
X68134379Y52100047D01*
X68167638Y52077203D01*
X68200065Y52052964D01*
X68231586Y52027401D01*
X68262129Y52000585D01*
X68291619Y51972589D01*
X68319982Y51943483D01*
X68347145Y51913340D01*
X68373033Y51882230D01*
X68397574Y51850227D01*
X68420692Y51817400D01*
X68432833Y51798929D01*
X68435692Y51794500D01*
X68438238Y51790619D01*
X68440334Y51787489D01*
X68441841Y51785315D01*
X68442624Y51784300D01*
X68442700Y51784254D01*
X68442713Y51785108D01*
X68442725Y51787615D01*
X68442735Y51791735D01*
X68442743Y51797428D01*
X68442750Y51804652D01*
X68442755Y51813369D01*
X68442759Y51823537D01*
X68442760Y51835117D01*
X68442761Y51848068D01*
X68442760Y51856577D01*
X68567656Y51856577D01*
X68568821Y51827772D01*
X68571628Y51799081D01*
X68576063Y51770585D01*
X68582111Y51742366D01*
X68589756Y51714505D01*
X68598984Y51687085D01*
X68609779Y51660186D01*
X68622127Y51633890D01*
X68622302Y51633543D01*
X68636212Y51607927D01*
X68651542Y51583208D01*
X68668240Y51559443D01*
X68686257Y51536688D01*
X68705542Y51514998D01*
X68726045Y51494432D01*
X68747716Y51475044D01*
X68770504Y51456890D01*
X68794359Y51440028D01*
X68797170Y51438173D01*
X68822047Y51422879D01*
X68847644Y51409115D01*
X68873943Y51396888D01*
X68900926Y51386204D01*
X68928574Y51377068D01*
X68956871Y51369488D01*
X68985797Y51363470D01*
X69015336Y51359019D01*
X69030004Y51357415D01*
X69036384Y51356922D01*
X69044084Y51356522D01*
X69052773Y51356218D01*
X69062121Y51356011D01*
X69071799Y51355903D01*
X69081476Y51355895D01*
X69090823Y51355990D01*
X69099509Y51356188D01*
X69107206Y51356493D01*
X69113582Y51356905D01*
X69114247Y51356962D01*
X69140443Y51359868D01*
X69165672Y51363877D01*
X69190315Y51369067D01*
X69214754Y51375517D01*
X69234474Y51381657D01*
X69262007Y51391655D01*
X69288654Y51403089D01*
X69314437Y51415970D01*
X69339374Y51430310D01*
X69363485Y51446123D01*
X69386791Y51463419D01*
X69409311Y51482211D01*
X69429097Y51500582D01*
X69436713Y51508178D01*
X69444143Y51515952D01*
X69451587Y51524129D01*
X69459243Y51532937D01*
X69467310Y51542601D01*
X69475988Y51553348D01*
X69480776Y51559400D01*
X69483059Y51562303D01*
X69489788Y51558639D01*
X69513174Y51544979D01*
X69535379Y51530123D01*
X69556387Y51514086D01*
X69576179Y51496886D01*
X69594738Y51478539D01*
X69612047Y51459063D01*
X69628088Y51438474D01*
X69642844Y51416789D01*
X69652318Y51401108D01*
X69664205Y51378962D01*
X69674531Y51356578D01*
X69683329Y51333834D01*
X69690638Y51310604D01*
X69696493Y51286765D01*
X69700931Y51262194D01*
X69703987Y51236766D01*
X69705213Y51220370D01*
X69705273Y51218477D01*
X69705331Y51214906D01*
X69705387Y51209670D01*
X69705441Y51202785D01*
X69705493Y51194265D01*
X69705542Y51184125D01*
X69705590Y51172380D01*
X69705635Y51159043D01*
X69705678Y51144130D01*
X69705719Y51127655D01*
X69705758Y51109633D01*
X69705795Y51090079D01*
X69705829Y51069007D01*
X69705861Y51046432D01*
X69705890Y51022368D01*
X69705918Y50996830D01*
X69705943Y50969832D01*
X69705965Y50941390D01*
X69705986Y50911518D01*
X69706003Y50880230D01*
X69706019Y50847542D01*
X69706032Y50813467D01*
X69706042Y50778021D01*
X69706050Y50741217D01*
X69706055Y50703071D01*
X69706058Y50663598D01*
X69706059Y50648235D01*
X69706067Y50090493D01*
X70206447Y50090493D01*
X70206446Y50682525D01*
X70206444Y50725628D01*
X70206440Y50767210D01*
X70206434Y50807264D01*
X70206425Y50845785D01*
X70206414Y50882764D01*
X70206400Y50918196D01*
X70206384Y50952073D01*
X70206365Y50984390D01*
X70206344Y51015138D01*
X70206320Y51044311D01*
X70206294Y51071903D01*
X70206266Y51097907D01*
X70206235Y51122315D01*
X70206202Y51145122D01*
X70206166Y51166320D01*
X70206128Y51185903D01*
X70206088Y51203864D01*
X70206045Y51220196D01*
X70206000Y51234892D01*
X70205952Y51247946D01*
X70205903Y51259351D01*
X70205850Y51269100D01*
X70205796Y51277186D01*
X70205739Y51283603D01*
X70205680Y51288343D01*
X70205619Y51291401D01*
X70205586Y51292337D01*
X70202896Y51330751D01*
X70198566Y51368790D01*
X70192616Y51406413D01*
X70185066Y51443578D01*
X70175936Y51480244D01*
X70165246Y51516370D01*
X70153015Y51551915D01*
X70139264Y51586837D01*
X70124013Y51621095D01*
X70107282Y51654649D01*
X70089090Y51687456D01*
X70069457Y51719475D01*
X70048404Y51750666D01*
X70025950Y51780987D01*
X70002116Y51810397D01*
X69976920Y51838854D01*
X69950384Y51866318D01*
X69922527Y51892747D01*
X69909690Y51904183D01*
X69882742Y51926717D01*
X69854549Y51948351D01*
X69825314Y51968954D01*
X69795241Y51988394D01*
X69764533Y52006541D01*
X69733392Y52023263D01*
X69702023Y52038431D01*
X69700362Y52039187D01*
X69674052Y52050580D01*
X69646989Y52061251D01*
X69619511Y52071087D01*
X69591961Y52079974D01*
X69564677Y52087796D01*
X69538001Y52094442D01*
X69529960Y52096234D01*
X69527098Y52096868D01*
X69524754Y52097413D01*
X69523829Y52097646D01*
X69522857Y52098543D01*
X69521349Y52100698D01*
X69519482Y52103831D01*
X69517596Y52107351D01*
X69510434Y52120434D01*
X69502023Y52134192D01*
X69492540Y52148386D01*
X69482164Y52162778D01*
X69471070Y52177129D01*
X69459436Y52191201D01*
X69447439Y52204755D01*
X69437252Y52215524D01*
X69415978Y52236113D01*
X69393755Y52255316D01*
X69370614Y52273111D01*
X69346588Y52289479D01*
X69321711Y52304398D01*
X69296015Y52317847D01*
X69269533Y52329807D01*
X69242297Y52340257D01*
X69234464Y52342935D01*
X69206654Y52351314D01*
X69178579Y52358048D01*
X69150308Y52363149D01*
X69121911Y52366627D01*
X69093458Y52368495D01*
X69065017Y52368764D01*
X69036659Y52367443D01*
X69008452Y52364546D01*
X68980466Y52360083D01*
X68952770Y52354065D01*
X68925433Y52346503D01*
X68898526Y52337410D01*
X68872117Y52326795D01*
X68846276Y52314670D01*
X68821071Y52301047D01*
X68796574Y52285937D01*
X68772852Y52269351D01*
X68770924Y52267910D01*
X68762275Y52261306D01*
X68754333Y52254980D01*
X68746784Y52248658D01*
X68739317Y52242065D01*
X68731619Y52234928D01*
X68723377Y52226972D01*
X68716689Y52220341D01*
X68705425Y52208849D01*
X68695286Y52197999D01*
X68686006Y52187468D01*
X68677320Y52176933D01*
X68668961Y52166070D01*
X68660664Y52154557D01*
X68652163Y52142070D01*
X68651533Y52141120D01*
X68636070Y52116254D01*
X68622140Y52090677D01*
X68609755Y52064425D01*
X68598929Y52037537D01*
X68589675Y52010049D01*
X68582007Y51981999D01*
X68575938Y51953425D01*
X68571481Y51924363D01*
X68570317Y51914201D01*
X68568150Y51885413D01*
X68567656Y51856577D01*
X68442760Y51856577D01*
X68442759Y51862350D01*
X68442757Y51877922D01*
X68442752Y51894745D01*
X68442747Y51912778D01*
X68442739Y51931980D01*
X68442731Y51952312D01*
X68442721Y51973734D01*
X68442709Y51996204D01*
X68442696Y52019683D01*
X68442682Y52044130D01*
X68442666Y52069506D01*
X68442650Y52095769D01*
X68442631Y52122880D01*
X68442612Y52150798D01*
X68442591Y52179484D01*
X68442569Y52208896D01*
X68442546Y52238995D01*
X68442521Y52269740D01*
X68442496Y52301091D01*
X68442469Y52333007D01*
X68442441Y52365449D01*
X68442412Y52398376D01*
X68442382Y52431748D01*
X68442360Y52456010D01*
X68441741Y53124103D01*
X69706067Y53124103D01*
X69706087Y52660340D01*
X69706108Y52196577D01*
X69721962Y52190357D01*
X69754771Y52176697D01*
X69787610Y52161471D01*
X69820292Y52144795D01*
X69852627Y52126781D01*
X69884427Y52107543D01*
X69915502Y52087196D01*
X69945665Y52065853D01*
X69974726Y52043629D01*
X70000707Y52022176D01*
X70024047Y52001505D01*
X70047239Y51979694D01*
X70069893Y51957129D01*
X70091619Y51934197D01*
X70109492Y51914213D01*
X70122304Y51899116D01*
X70135338Y51883080D01*
X70148357Y51866422D01*
X70161125Y51849458D01*
X70173406Y51832505D01*
X70184964Y51815878D01*
X70195563Y51799894D01*
X70199674Y51793447D01*
X70202263Y51789354D01*
X70204527Y51785820D01*
X70206319Y51783070D01*
X70207493Y51781327D01*
X70207901Y51780807D01*
X70207910Y51781654D01*
X70207920Y51784154D01*
X70207929Y51788267D01*
X70207939Y51793953D01*
X70207948Y51801170D01*
X70207958Y51809880D01*
X70207968Y51820042D01*
X70207977Y51831615D01*
X70207987Y51844559D01*
X70207996Y51858834D01*
X70208006Y51874400D01*
X70208015Y51891217D01*
X70208025Y51909243D01*
X70208034Y51928439D01*
X70208043Y51948765D01*
X70208052Y51970181D01*
X70208061Y51992645D01*
X70208070Y52016118D01*
X70208079Y52040560D01*
X70208087Y52065930D01*
X70208095Y52092188D01*
X70208103Y52119294D01*
X70208111Y52147207D01*
X70208118Y52175888D01*
X70208125Y52205295D01*
X70208132Y52235390D01*
X70208139Y52266130D01*
X70208145Y52297477D01*
X70208151Y52329390D01*
X70208156Y52361828D01*
X70208161Y52394752D01*
X70208166Y52428121D01*
X70208169Y52452313D01*
X70208254Y53123677D01*
X69957160Y53123890D01*
X69706067Y53124103D01*
X68441741Y53124103D01*
X68441737Y53127487D01*
X67942460Y53127487D01*
X66669920Y53127487D01*
X66167835Y53127487D01*
X65580516Y53127487D01*
X65582594Y53138737D01*
X65591208Y53176166D01*
X65601409Y53213077D01*
X65613173Y53249428D01*
X65626475Y53285174D01*
X65641289Y53320274D01*
X65657590Y53354683D01*
X65675355Y53388358D01*
X65694556Y53421256D01*
X65715171Y53453334D01*
X65737173Y53484549D01*
X65760539Y53514857D01*
X65785241Y53544215D01*
X65811257Y53572580D01*
X65838560Y53599909D01*
X65867126Y53626158D01*
X65890835Y53646321D01*
X65902365Y53655564D01*
X65915013Y53665293D01*
X65928386Y53675225D01*
X65942095Y53685079D01*
X65955747Y53694570D01*
X65968951Y53703417D01*
X65977770Y53709108D01*
X66011131Y53729261D01*
X66045167Y53747870D01*
X66079850Y53764923D01*
X66115149Y53780409D01*
X66151035Y53794317D01*
X66187478Y53806635D01*
X66224449Y53817353D01*
X66261919Y53826459D01*
X66299858Y53833942D01*
X66310493Y53835734D01*
X66324332Y53837880D01*
X66337877Y53839769D01*
X66351526Y53841446D01*
X66365678Y53842956D01*
X66380730Y53844345D01*
X66396870Y53845643D01*
X66398282Y53845686D01*
X66401356Y53845728D01*
X66406064Y53845769D01*
X66412374Y53845809D01*
X66420256Y53845849D01*
X66429681Y53845888D01*
X66440617Y53845926D01*
X66453035Y53845963D01*
X66466905Y53845999D01*
X66482196Y53846035D01*
X66498878Y53846070D01*
X66516921Y53846104D01*
X66536294Y53846138D01*
X66556967Y53846170D01*
X66578911Y53846202D01*
X66602094Y53846233D01*
X66626487Y53846264D01*
X66652060Y53846293D01*
X66678781Y53846322D01*
X66706622Y53846350D01*
X66735551Y53846378D01*
X66765538Y53846404D01*
X66796554Y53846430D01*
X66828568Y53846455D01*
X66861549Y53846479D01*
X66895468Y53846502D01*
X66930294Y53846525D01*
X66965997Y53846547D01*
X67002547Y53846568D01*
X67039914Y53846588D01*
X67078067Y53846608D01*
X67116976Y53846627D01*
X67156610Y53846645D01*
X67196941Y53846662D01*
X67237937Y53846679D01*
X67279568Y53846694D01*
X67321804Y53846709D01*
X67364614Y53846724D01*
X67407969Y53846737D01*
X67451839Y53846750D01*
X67496192Y53846762D01*
X67540999Y53846773D01*
X67586230Y53846783D01*
X67631854Y53846793D01*
X67677841Y53846802D01*
X67724160Y53846810D01*
X67770783Y53846817D01*
X67817678Y53846824D01*
X67864814Y53846829D01*
X67912163Y53846834D01*
X67959694Y53846839D01*
X68007375Y53846842D01*
X68055179Y53846845D01*
X68103073Y53846847D01*
X68151027Y53846848D01*
X68246998Y53846848D01*
X68294953Y53846847D01*
G36*
X69083529Y52113519D02*
G01*
X69091368Y52113290D01*
X69098427Y52112856D01*
X69105157Y52112176D01*
X69112014Y52111207D01*
X69119451Y52109908D01*
X69124445Y52108939D01*
X69144066Y52104175D01*
X69163104Y52097864D01*
X69181482Y52090073D01*
X69199123Y52080871D01*
X69215949Y52070327D01*
X69231882Y52058510D01*
X69246846Y52045486D01*
X69260764Y52031326D01*
X69273556Y52016098D01*
X69285147Y51999869D01*
X69295459Y51982709D01*
X69304413Y51964686D01*
X69311934Y51945869D01*
X69313297Y51941904D01*
X69318838Y51922684D01*
X69322810Y51902951D01*
X69325201Y51882853D01*
X69326000Y51862537D01*
X69325196Y51842153D01*
X69322777Y51821849D01*
X69322443Y51819810D01*
X69318304Y51800218D01*
X69312549Y51780910D01*
X69305251Y51762051D01*
X69296483Y51743802D01*
X69286319Y51726330D01*
X69274832Y51709795D01*
X69271173Y51705087D01*
X69267217Y51700380D01*
X69262301Y51694928D01*
X69256763Y51689075D01*
X69250939Y51683162D01*
X69245168Y51677534D01*
X69239787Y51672533D01*
X69235320Y51668656D01*
X69218761Y51656040D01*
X69201437Y51644901D01*
X69183416Y51635269D01*
X69164765Y51627176D01*
X69145553Y51620651D01*
X69125846Y51615725D01*
X69112130Y51613294D01*
X69091852Y51611074D01*
X69071998Y51610490D01*
X69052575Y51611542D01*
X69047784Y51612061D01*
X69040481Y51612944D01*
X69034570Y51613693D01*
X69029756Y51614356D01*
X69025747Y51614978D01*
X69022250Y51615607D01*
X69018972Y51616291D01*
X69015619Y51617076D01*
X69013874Y51617508D01*
X68994422Y51623251D01*
X68975529Y51630543D01*
X68957294Y51639310D01*
X68939819Y51649481D01*
X68923203Y51660981D01*
X68907549Y51673739D01*
X68892956Y51687682D01*
X68879526Y51702737D01*
X68867359Y51718830D01*
X68861548Y51727610D01*
X68851196Y51745576D01*
X68842424Y51764150D01*
X68835236Y51783320D01*
X68829637Y51803076D01*
X68825629Y51823405D01*
X68824223Y51833780D01*
X68823630Y51840596D01*
X68823254Y51848585D01*
X68823088Y51857354D01*
X68823126Y51866509D01*
X68823360Y51875658D01*
X68823784Y51884406D01*
X68824389Y51892360D01*
X68825171Y51899128D01*
X68825408Y51900680D01*
X68828314Y51915981D01*
X68831986Y51930553D01*
X68834899Y51940094D01*
X68841992Y51959221D01*
X68850533Y51977550D01*
X68860449Y51995017D01*
X68871665Y52011556D01*
X68884107Y52027100D01*
X68897701Y52041584D01*
X68912374Y52054943D01*
X68928051Y52067110D01*
X68944660Y52078019D01*
X68962125Y52087606D01*
X68980374Y52095803D01*
X68999331Y52102546D01*
X69018925Y52107768D01*
X69024462Y52108939D01*
X69032473Y52110460D01*
X69039628Y52111625D01*
X69046381Y52112475D01*
X69053186Y52113053D01*
X69060497Y52113402D01*
X69068768Y52113562D01*
X69074454Y52113586D01*
X69083529Y52113519D01*
G37*
X69083529Y52113519D02*
X69091368Y52113290D01*
X69098427Y52112856D01*
X69105157Y52112176D01*
X69112014Y52111207D01*
X69119451Y52109908D01*
X69124445Y52108939D01*
X69144066Y52104175D01*
X69163104Y52097864D01*
X69181482Y52090073D01*
X69199123Y52080871D01*
X69215949Y52070327D01*
X69231882Y52058510D01*
X69246846Y52045486D01*
X69260764Y52031326D01*
X69273556Y52016098D01*
X69285147Y51999869D01*
X69295459Y51982709D01*
X69304413Y51964686D01*
X69311934Y51945869D01*
X69313297Y51941904D01*
X69318838Y51922684D01*
X69322810Y51902951D01*
X69325201Y51882853D01*
X69326000Y51862537D01*
X69325196Y51842153D01*
X69322777Y51821849D01*
X69322443Y51819810D01*
X69318304Y51800218D01*
X69312549Y51780910D01*
X69305251Y51762051D01*
X69296483Y51743802D01*
X69286319Y51726330D01*
X69274832Y51709795D01*
X69271173Y51705087D01*
X69267217Y51700380D01*
X69262301Y51694928D01*
X69256763Y51689075D01*
X69250939Y51683162D01*
X69245168Y51677534D01*
X69239787Y51672533D01*
X69235320Y51668656D01*
X69218761Y51656040D01*
X69201437Y51644901D01*
X69183416Y51635269D01*
X69164765Y51627176D01*
X69145553Y51620651D01*
X69125846Y51615725D01*
X69112130Y51613294D01*
X69091852Y51611074D01*
X69071998Y51610490D01*
X69052575Y51611542D01*
X69047784Y51612061D01*
X69040481Y51612944D01*
X69034570Y51613693D01*
X69029756Y51614356D01*
X69025747Y51614978D01*
X69022250Y51615607D01*
X69018972Y51616291D01*
X69015619Y51617076D01*
X69013874Y51617508D01*
X68994422Y51623251D01*
X68975529Y51630543D01*
X68957294Y51639310D01*
X68939819Y51649481D01*
X68923203Y51660981D01*
X68907549Y51673739D01*
X68892956Y51687682D01*
X68879526Y51702737D01*
X68867359Y51718830D01*
X68861548Y51727610D01*
X68851196Y51745576D01*
X68842424Y51764150D01*
X68835236Y51783320D01*
X68829637Y51803076D01*
X68825629Y51823405D01*
X68824223Y51833780D01*
X68823630Y51840596D01*
X68823254Y51848585D01*
X68823088Y51857354D01*
X68823126Y51866509D01*
X68823360Y51875658D01*
X68823784Y51884406D01*
X68824389Y51892360D01*
X68825171Y51899128D01*
X68825408Y51900680D01*
X68828314Y51915981D01*
X68831986Y51930553D01*
X68834899Y51940094D01*
X68841992Y51959221D01*
X68850533Y51977550D01*
X68860449Y51995017D01*
X68871665Y52011556D01*
X68884107Y52027100D01*
X68897701Y52041584D01*
X68912374Y52054943D01*
X68928051Y52067110D01*
X68944660Y52078019D01*
X68962125Y52087606D01*
X68980374Y52095803D01*
X68999331Y52102546D01*
X69018925Y52107768D01*
X69024462Y52108939D01*
X69032473Y52110460D01*
X69039628Y52111625D01*
X69046381Y52112475D01*
X69053186Y52113053D01*
X69060497Y52113402D01*
X69068768Y52113562D01*
X69074454Y52113586D01*
X69083529Y52113519D01*
D13*
%TO.C,C5*%
X32251127Y52772722D02*
X32020922Y53002927D01*
X31529878Y52051473D02*
X31299673Y52281678D01*
%TO.C,C6*%
X25325800Y53121779D02*
X25325800Y52796221D01*
X24305800Y53121779D02*
X24305800Y52796221D01*
%TO.C,C9*%
X28598400Y60187621D02*
X28598400Y60513179D01*
X29618400Y60187621D02*
X29618400Y60513179D01*
%TO.C,C10*%
X31117000Y60187621D02*
X31117000Y60513179D01*
X30097000Y60187621D02*
X30097000Y60513179D01*
%TO.C,D1*%
X69711600Y65332400D02*
X69711600Y59432400D01*
X65811600Y65332400D02*
X65811600Y59432400D01*
X65811600Y59432400D02*
X66886600Y59432400D01*
%TO.C,D2*%
X26146000Y65069600D02*
X23461000Y65069600D01*
X23461000Y65069600D02*
X23461000Y63149600D01*
X23461000Y63149600D02*
X26146000Y63149600D01*
%TO.C,D3*%
X30133000Y51074200D02*
X27448000Y51074200D01*
X30133000Y49154200D02*
X30133000Y51074200D01*
X27448000Y49154200D02*
X30133000Y49154200D01*
%TO.C,L2*%
X25229736Y61710400D02*
X26433864Y61710400D01*
X25229736Y58990400D02*
X26433864Y58990400D01*
D14*
%TO.C,U1*%
X43580062Y53882162D02*
X43166970Y53469071D01*
X43580062Y53882162D02*
X45701382Y51760842D01*
D13*
%TO.C,U4*%
X24145600Y57364200D02*
X24145600Y55564200D01*
X27365600Y55564200D02*
X27365600Y58014200D01*
%TO.C,SW1*%
X42442400Y65712800D02*
X42442400Y65412800D01*
X39142400Y65712800D02*
X42442400Y65712800D01*
X39142400Y65412800D02*
X39142400Y65712800D01*
X42442400Y62912800D02*
X42442400Y63212800D01*
X39142400Y63212800D02*
X39142400Y62912800D01*
X39142400Y62912800D02*
X42442400Y62912800D01*
X41792400Y66032800D02*
X41792400Y65712800D01*
X41292400Y66412800D02*
X41792400Y66032800D01*
X40292400Y66412800D02*
X41292400Y66412800D01*
X39792400Y66032800D02*
X39792400Y65712800D01*
X40292400Y66412800D02*
X39792400Y66032800D01*
%TO.C,SW2*%
X32570800Y66412800D02*
X32070800Y66032800D01*
X32070800Y66032800D02*
X32070800Y65712800D01*
X32570800Y66412800D02*
X33570800Y66412800D01*
X33570800Y66412800D02*
X34070800Y66032800D01*
X34070800Y66032800D02*
X34070800Y65712800D01*
X31420800Y62912800D02*
X34720800Y62912800D01*
X31420800Y63212800D02*
X31420800Y62912800D01*
X34720800Y62912800D02*
X34720800Y63212800D01*
X31420800Y65412800D02*
X31420800Y65712800D01*
X31420800Y65712800D02*
X34720800Y65712800D01*
X34720800Y65712800D02*
X34720800Y65412800D01*
D10*
%TO.C,J2*%
X16266200Y51150000D02*
X16266200Y63150000D01*
X16266200Y63150000D02*
X17766200Y63150000D01*
X17766200Y52250000D02*
X17766200Y52350000D01*
X17766200Y61950000D02*
X20016200Y61950000D01*
X16266200Y51150000D02*
X17766200Y51150000D01*
X17766200Y52350000D02*
X20016200Y52350000D01*
X17766200Y63150000D02*
X17766200Y61950000D01*
X20016200Y52350000D02*
X20016200Y61950000D01*
X17766200Y51150000D02*
X17766200Y52250000D01*
%TO.C,C4*%
X32723688Y50057250D02*
X32669813Y50057250D01*
X32562064Y50111125D01*
X32508189Y50165000D01*
X32454314Y50272749D01*
X32454314Y50380499D01*
X32481251Y50461311D01*
X32562064Y50595998D01*
X32642876Y50676810D01*
X32777563Y50757622D01*
X32858375Y50784560D01*
X32966125Y50784560D01*
X33073874Y50730685D01*
X33127749Y50676810D01*
X33181624Y50569061D01*
X33181624Y50515186D01*
X33531810Y49895625D02*
X33154687Y49518502D01*
X33612622Y50245812D02*
X33073874Y49976438D01*
X33424061Y49626251D01*
%TO.C,U2*%
X36962781Y51159778D02*
X36504845Y50701842D01*
X36477908Y50621030D01*
X36477908Y50567155D01*
X36504845Y50486343D01*
X36612595Y50378593D01*
X36693407Y50351656D01*
X36747282Y50351656D01*
X36828094Y50378593D01*
X37286030Y50836529D01*
X37474592Y50540218D02*
X37528467Y50540218D01*
X37609279Y50513280D01*
X37743966Y50378593D01*
X37770903Y50297781D01*
X37770903Y50243906D01*
X37743966Y50163094D01*
X37690091Y50109219D01*
X37582341Y50055345D01*
X36935844Y50055345D01*
X37286030Y49705158D01*
%TO.C,U3*%
X45154904Y63779476D02*
X45802523Y63779476D01*
X45878714Y63817571D01*
X45916809Y63855666D01*
X45954904Y63931857D01*
X45954904Y64084238D01*
X45916809Y64160428D01*
X45878714Y64198523D01*
X45802523Y64236619D01*
X45154904Y64236619D01*
X45154904Y64541380D02*
X45154904Y65036619D01*
X45459666Y64769952D01*
X45459666Y64884238D01*
X45497761Y64960428D01*
X45535857Y64998523D01*
X45612047Y65036619D01*
X45802523Y65036619D01*
X45878714Y64998523D01*
X45916809Y64960428D01*
X45954904Y64884238D01*
X45954904Y64655666D01*
X45916809Y64579476D01*
X45878714Y64541380D01*
%TO.C,C5*%
X30056688Y51987650D02*
X30002813Y51987650D01*
X29895064Y52041525D01*
X29841189Y52095400D01*
X29787314Y52203149D01*
X29787314Y52310899D01*
X29814251Y52391711D01*
X29895064Y52526398D01*
X29975876Y52607210D01*
X30110563Y52688022D01*
X30191375Y52714960D01*
X30299125Y52714960D01*
X30406874Y52661085D01*
X30460749Y52607210D01*
X30514624Y52499461D01*
X30514624Y52445586D01*
X31080309Y51987650D02*
X30810935Y52257024D01*
X30514624Y52014587D01*
X30568499Y52014587D01*
X30649311Y51987650D01*
X30783998Y51852963D01*
X30810935Y51772151D01*
X30810935Y51718276D01*
X30783998Y51637464D01*
X30649311Y51502777D01*
X30568499Y51475839D01*
X30514624Y51475839D01*
X30433812Y51502777D01*
X30299125Y51637464D01*
X30272187Y51718276D01*
X30272187Y51772151D01*
%TO.C,C6*%
X26396914Y52851066D02*
X26435009Y52812971D01*
X26473104Y52698685D01*
X26473104Y52622495D01*
X26435009Y52508209D01*
X26358819Y52432019D01*
X26282628Y52393923D01*
X26130247Y52355828D01*
X26015961Y52355828D01*
X25863580Y52393923D01*
X25787390Y52432019D01*
X25711200Y52508209D01*
X25673104Y52622495D01*
X25673104Y52698685D01*
X25711200Y52812971D01*
X25749295Y52851066D01*
X25673104Y53536780D02*
X25673104Y53384400D01*
X25711200Y53308209D01*
X25749295Y53270114D01*
X25863580Y53193923D01*
X26015961Y53155828D01*
X26320723Y53155828D01*
X26396914Y53193923D01*
X26435009Y53232019D01*
X26473104Y53308209D01*
X26473104Y53460590D01*
X26435009Y53536780D01*
X26396914Y53574876D01*
X26320723Y53612971D01*
X26130247Y53612971D01*
X26054057Y53574876D01*
X26015961Y53536780D01*
X25977866Y53460590D01*
X25977866Y53308209D01*
X26015961Y53232019D01*
X26054057Y53193923D01*
X26130247Y53155828D01*
%TO.C,C9*%
X29495714Y58032666D02*
X29533809Y57994571D01*
X29571904Y57880285D01*
X29571904Y57804095D01*
X29533809Y57689809D01*
X29457619Y57613619D01*
X29381428Y57575523D01*
X29229047Y57537428D01*
X29114761Y57537428D01*
X28962380Y57575523D01*
X28886190Y57613619D01*
X28810000Y57689809D01*
X28771904Y57804095D01*
X28771904Y57880285D01*
X28810000Y57994571D01*
X28848095Y58032666D01*
X29571904Y58413619D02*
X29571904Y58566000D01*
X29533809Y58642190D01*
X29495714Y58680285D01*
X29381428Y58756476D01*
X29229047Y58794571D01*
X28924285Y58794571D01*
X28848095Y58756476D01*
X28810000Y58718380D01*
X28771904Y58642190D01*
X28771904Y58489809D01*
X28810000Y58413619D01*
X28848095Y58375523D01*
X28924285Y58337428D01*
X29114761Y58337428D01*
X29190952Y58375523D01*
X29229047Y58413619D01*
X29267142Y58489809D01*
X29267142Y58642190D01*
X29229047Y58718380D01*
X29190952Y58756476D01*
X29114761Y58794571D01*
%TO.C,C10*%
X30918114Y57296114D02*
X30956209Y57258019D01*
X30994304Y57143733D01*
X30994304Y57067542D01*
X30956209Y56953257D01*
X30880019Y56877066D01*
X30803828Y56838971D01*
X30651447Y56800876D01*
X30537161Y56800876D01*
X30384780Y56838971D01*
X30308590Y56877066D01*
X30232400Y56953257D01*
X30194304Y57067542D01*
X30194304Y57143733D01*
X30232400Y57258019D01*
X30270495Y57296114D01*
X30994304Y58058019D02*
X30994304Y57600876D01*
X30994304Y57829447D02*
X30194304Y57829447D01*
X30308590Y57753257D01*
X30384780Y57677066D01*
X30422876Y57600876D01*
X30194304Y58553257D02*
X30194304Y58629447D01*
X30232400Y58705638D01*
X30270495Y58743733D01*
X30346685Y58781828D01*
X30499066Y58819923D01*
X30689542Y58819923D01*
X30841923Y58781828D01*
X30918114Y58743733D01*
X30956209Y58705638D01*
X30994304Y58629447D01*
X30994304Y58553257D01*
X30956209Y58477066D01*
X30918114Y58438971D01*
X30841923Y58400876D01*
X30689542Y58362780D01*
X30499066Y58362780D01*
X30346685Y58400876D01*
X30270495Y58438971D01*
X30232400Y58477066D01*
X30194304Y58553257D01*
%TO.C,D1*%
X70770704Y61893523D02*
X69970704Y61893523D01*
X69970704Y62084000D01*
X70008800Y62198285D01*
X70084990Y62274476D01*
X70161180Y62312571D01*
X70313561Y62350666D01*
X70427847Y62350666D01*
X70580228Y62312571D01*
X70656419Y62274476D01*
X70732609Y62198285D01*
X70770704Y62084000D01*
X70770704Y61893523D01*
X70770704Y63112571D02*
X70770704Y62655428D01*
X70770704Y62884000D02*
X69970704Y62884000D01*
X70084990Y62807809D01*
X70161180Y62731619D01*
X70199276Y62655428D01*
%TO.C,D3*%
X31222904Y49498323D02*
X30422904Y49498323D01*
X30422904Y49688800D01*
X30461000Y49803085D01*
X30537190Y49879276D01*
X30613380Y49917371D01*
X30765761Y49955466D01*
X30880047Y49955466D01*
X31032428Y49917371D01*
X31108619Y49879276D01*
X31184809Y49803085D01*
X31222904Y49688800D01*
X31222904Y49498323D01*
X30422904Y50222133D02*
X30422904Y50717371D01*
X30727666Y50450704D01*
X30727666Y50564990D01*
X30765761Y50641180D01*
X30803857Y50679276D01*
X30880047Y50717371D01*
X31070523Y50717371D01*
X31146714Y50679276D01*
X31184809Y50641180D01*
X31222904Y50564990D01*
X31222904Y50336419D01*
X31184809Y50260228D01*
X31146714Y50222133D01*
%TO.C,L2*%
X26219104Y60242466D02*
X26219104Y59861514D01*
X25419104Y59861514D01*
X25495295Y60471038D02*
X25457200Y60509133D01*
X25419104Y60585323D01*
X25419104Y60775800D01*
X25457200Y60851990D01*
X25495295Y60890085D01*
X25571485Y60928180D01*
X25647676Y60928180D01*
X25761961Y60890085D01*
X26219104Y60432942D01*
X26219104Y60928180D01*
%TO.C,U1*%
X44572821Y49840581D02*
X45030757Y49382645D01*
X45111569Y49355708D01*
X45165444Y49355708D01*
X45246256Y49382645D01*
X45354006Y49490395D01*
X45380943Y49571207D01*
X45380943Y49625082D01*
X45354006Y49705894D01*
X44896070Y50163830D01*
X46027441Y50163830D02*
X45704192Y49840581D01*
X45865816Y50002206D02*
X45300131Y50567891D01*
X45327068Y50433204D01*
X45327068Y50325454D01*
X45300131Y50244642D01*
%TO.C,U4*%
X26263676Y54514695D02*
X26263676Y53867076D01*
X26301771Y53790885D01*
X26339866Y53752790D01*
X26416057Y53714695D01*
X26568438Y53714695D01*
X26644628Y53752790D01*
X26682723Y53790885D01*
X26720819Y53867076D01*
X26720819Y54514695D01*
X27444628Y54248028D02*
X27444628Y53714695D01*
X27254152Y54552790D02*
X27063676Y53981361D01*
X27558914Y53981361D01*
%TO.C,C1*%
X38258714Y62655466D02*
X38296809Y62617371D01*
X38334904Y62503085D01*
X38334904Y62426895D01*
X38296809Y62312609D01*
X38220619Y62236419D01*
X38144428Y62198323D01*
X37992047Y62160228D01*
X37877761Y62160228D01*
X37725380Y62198323D01*
X37649190Y62236419D01*
X37573000Y62312609D01*
X37534904Y62426895D01*
X37534904Y62503085D01*
X37573000Y62617371D01*
X37611095Y62655466D01*
X38334904Y63417371D02*
X38334904Y62960228D01*
X38334904Y63188800D02*
X37534904Y63188800D01*
X37649190Y63112609D01*
X37725380Y63036419D01*
X37763476Y62960228D01*
%TO.C,C2*%
X30562514Y62604666D02*
X30600609Y62566571D01*
X30638704Y62452285D01*
X30638704Y62376095D01*
X30600609Y62261809D01*
X30524419Y62185619D01*
X30448228Y62147523D01*
X30295847Y62109428D01*
X30181561Y62109428D01*
X30029180Y62147523D01*
X29952990Y62185619D01*
X29876800Y62261809D01*
X29838704Y62376095D01*
X29838704Y62452285D01*
X29876800Y62566571D01*
X29914895Y62604666D01*
X29914895Y62909428D02*
X29876800Y62947523D01*
X29838704Y63023714D01*
X29838704Y63214190D01*
X29876800Y63290380D01*
X29914895Y63328476D01*
X29991085Y63366571D01*
X30067276Y63366571D01*
X30181561Y63328476D01*
X30638704Y62871333D01*
X30638704Y63366571D01*
%TO.C,C3*%
X44092003Y58758565D02*
X44038128Y58758565D01*
X43930379Y58812440D01*
X43876504Y58866315D01*
X43822629Y58974064D01*
X43822629Y59081814D01*
X43849566Y59162626D01*
X43930379Y59297313D01*
X44011191Y59378125D01*
X44145878Y59458937D01*
X44226690Y59485875D01*
X44334440Y59485875D01*
X44442189Y59432000D01*
X44496064Y59378125D01*
X44549939Y59270376D01*
X44549939Y59216501D01*
X44792376Y59081814D02*
X45142562Y58731627D01*
X44738501Y58704690D01*
X44819313Y58623878D01*
X44846250Y58543066D01*
X44846250Y58489191D01*
X44819313Y58408379D01*
X44684626Y58273692D01*
X44603814Y58246754D01*
X44549939Y58246754D01*
X44469127Y58273692D01*
X44307502Y58435316D01*
X44280565Y58516128D01*
X44280565Y58570003D01*
%TO.C,R1*%
X37014104Y62680866D02*
X36633152Y62414200D01*
X37014104Y62223723D02*
X36214104Y62223723D01*
X36214104Y62528485D01*
X36252200Y62604676D01*
X36290295Y62642771D01*
X36366485Y62680866D01*
X36480771Y62680866D01*
X36556961Y62642771D01*
X36595057Y62604676D01*
X36633152Y62528485D01*
X36633152Y62223723D01*
X37014104Y63442771D02*
X37014104Y62985628D01*
X37014104Y63214200D02*
X36214104Y63214200D01*
X36328390Y63138009D01*
X36404580Y63061819D01*
X36442676Y62985628D01*
%TO.C,R2*%
X29394104Y62630066D02*
X29013152Y62363400D01*
X29394104Y62172923D02*
X28594104Y62172923D01*
X28594104Y62477685D01*
X28632200Y62553876D01*
X28670295Y62591971D01*
X28746485Y62630066D01*
X28860771Y62630066D01*
X28936961Y62591971D01*
X28975057Y62553876D01*
X29013152Y62477685D01*
X29013152Y62172923D01*
X28670295Y62934828D02*
X28632200Y62972923D01*
X28594104Y63049114D01*
X28594104Y63239590D01*
X28632200Y63315780D01*
X28670295Y63353876D01*
X28746485Y63391971D01*
X28822676Y63391971D01*
X28936961Y63353876D01*
X29394104Y62896733D01*
X29394104Y63391971D01*
%TO.C,R3*%
X66561466Y57269095D02*
X66294800Y57650047D01*
X66104323Y57269095D02*
X66104323Y58069095D01*
X66409085Y58069095D01*
X66485276Y58031000D01*
X66523371Y57992904D01*
X66561466Y57916714D01*
X66561466Y57802428D01*
X66523371Y57726238D01*
X66485276Y57688142D01*
X66409085Y57650047D01*
X66104323Y57650047D01*
X66828133Y58069095D02*
X67323371Y58069095D01*
X67056704Y57764333D01*
X67170990Y57764333D01*
X67247180Y57726238D01*
X67285276Y57688142D01*
X67323371Y57611952D01*
X67323371Y57421476D01*
X67285276Y57345285D01*
X67247180Y57307190D01*
X67170990Y57269095D01*
X66942419Y57269095D01*
X66866228Y57307190D01*
X66828133Y57345285D01*
%TO.C,R4*%
X27349466Y62223695D02*
X27082800Y62604647D01*
X26892323Y62223695D02*
X26892323Y63023695D01*
X27197085Y63023695D01*
X27273276Y62985600D01*
X27311371Y62947504D01*
X27349466Y62871314D01*
X27349466Y62757028D01*
X27311371Y62680838D01*
X27273276Y62642742D01*
X27197085Y62604647D01*
X26892323Y62604647D01*
X28035180Y62757028D02*
X28035180Y62223695D01*
X27844704Y63061790D02*
X27654228Y62490361D01*
X28149466Y62490361D01*
%TO.C,R5*%
X25303104Y49980866D02*
X24922152Y49714200D01*
X25303104Y49523723D02*
X24503104Y49523723D01*
X24503104Y49828485D01*
X24541200Y49904676D01*
X24579295Y49942771D01*
X24655485Y49980866D01*
X24769771Y49980866D01*
X24845961Y49942771D01*
X24884057Y49904676D01*
X24922152Y49828485D01*
X24922152Y49523723D01*
X24503104Y50704676D02*
X24503104Y50323723D01*
X24884057Y50285628D01*
X24845961Y50323723D01*
X24807866Y50399914D01*
X24807866Y50590390D01*
X24845961Y50666580D01*
X24884057Y50704676D01*
X24960247Y50742771D01*
X25150723Y50742771D01*
X25226914Y50704676D01*
X25265009Y50666580D01*
X25303104Y50590390D01*
X25303104Y50399914D01*
X25265009Y50323723D01*
X25226914Y50285628D01*
%TO.C,R6*%
X45802504Y55975266D02*
X45421552Y55708600D01*
X45802504Y55518123D02*
X45002504Y55518123D01*
X45002504Y55822885D01*
X45040600Y55899076D01*
X45078695Y55937171D01*
X45154885Y55975266D01*
X45269171Y55975266D01*
X45345361Y55937171D01*
X45383457Y55899076D01*
X45421552Y55822885D01*
X45421552Y55518123D01*
X45002504Y56660980D02*
X45002504Y56508600D01*
X45040600Y56432409D01*
X45078695Y56394314D01*
X45192980Y56318123D01*
X45345361Y56280028D01*
X45650123Y56280028D01*
X45726314Y56318123D01*
X45764409Y56356219D01*
X45802504Y56432409D01*
X45802504Y56584790D01*
X45764409Y56660980D01*
X45726314Y56699076D01*
X45650123Y56737171D01*
X45459647Y56737171D01*
X45383457Y56699076D01*
X45345361Y56660980D01*
X45307266Y56584790D01*
X45307266Y56432409D01*
X45345361Y56356219D01*
X45383457Y56318123D01*
X45459647Y56280028D01*
%TO.C,R7*%
X29724304Y56407066D02*
X29343352Y56140400D01*
X29724304Y55949923D02*
X28924304Y55949923D01*
X28924304Y56254685D01*
X28962400Y56330876D01*
X29000495Y56368971D01*
X29076685Y56407066D01*
X29190971Y56407066D01*
X29267161Y56368971D01*
X29305257Y56330876D01*
X29343352Y56254685D01*
X29343352Y55949923D01*
X28924304Y56673733D02*
X28924304Y57207066D01*
X29724304Y56864209D01*
%TO.C,R8*%
X28543266Y53663895D02*
X28276600Y54044847D01*
X28086123Y53663895D02*
X28086123Y54463895D01*
X28390885Y54463895D01*
X28467076Y54425800D01*
X28505171Y54387704D01*
X28543266Y54311514D01*
X28543266Y54197228D01*
X28505171Y54121038D01*
X28467076Y54082942D01*
X28390885Y54044847D01*
X28086123Y54044847D01*
X29000409Y54121038D02*
X28924219Y54159133D01*
X28886123Y54197228D01*
X28848028Y54273419D01*
X28848028Y54311514D01*
X28886123Y54387704D01*
X28924219Y54425800D01*
X29000409Y54463895D01*
X29152790Y54463895D01*
X29228980Y54425800D01*
X29267076Y54387704D01*
X29305171Y54311514D01*
X29305171Y54273419D01*
X29267076Y54197228D01*
X29228980Y54159133D01*
X29152790Y54121038D01*
X29000409Y54121038D01*
X28924219Y54082942D01*
X28886123Y54044847D01*
X28848028Y53968657D01*
X28848028Y53816276D01*
X28886123Y53740085D01*
X28924219Y53701990D01*
X29000409Y53663895D01*
X29152790Y53663895D01*
X29228980Y53701990D01*
X29267076Y53740085D01*
X29305171Y53816276D01*
X29305171Y53968657D01*
X29267076Y54044847D01*
X29228980Y54082942D01*
X29152790Y54121038D01*
%TD*%
M02*
