%TF.GenerationSoftware,KiCad,Pcbnew,(5.1.6)-1*%
%TF.CreationDate,2020-12-01T11:19:40+01:00*%
%TF.ProjectId,LoRa_Dongle,4c6f5261-5f44-46f6-9e67-6c652e6b6963,rev?*%
%TF.SameCoordinates,Original*%
%TF.FileFunction,Legend,Top*%
%TF.FilePolarity,Positive*%
%FSLAX46Y46*%
G04 Gerber Fmt 4.6, Leading zero omitted, Abs format (unit mm)*
G04 Created by KiCad (PCBNEW (5.1.6)-1) date 2020-12-01 11:19:40*
%MOMM*%
%LPD*%
G01*
G04 APERTURE LIST*
%ADD10C,0.150000*%
%ADD11C,0.200000*%
%ADD12C,0.127000*%
%ADD13C,0.010000*%
%ADD14C,0.120000*%
%ADD15C,0.100000*%
G04 APERTURE END LIST*
D10*
X52756809Y67837095D02*
X52756809Y68637095D01*
X52947285Y68637095D01*
X53061571Y68599000D01*
X53137761Y68522809D01*
X53175857Y68446619D01*
X53213952Y68294238D01*
X53213952Y68179952D01*
X53175857Y68027571D01*
X53137761Y67951380D01*
X53061571Y67875190D01*
X52947285Y67837095D01*
X52756809Y67837095D01*
X53480619Y68370428D02*
X53671095Y67837095D01*
X53861571Y68370428D02*
X53671095Y67837095D01*
X53594904Y67646619D01*
X53556809Y67608523D01*
X53480619Y67570428D01*
X54166333Y68370428D02*
X54166333Y67837095D01*
X54166333Y68294238D02*
X54204428Y68332333D01*
X54280619Y68370428D01*
X54394904Y68370428D01*
X54471095Y68332333D01*
X54509190Y68256142D01*
X54509190Y67837095D01*
X55233000Y67837095D02*
X55233000Y68256142D01*
X55194904Y68332333D01*
X55118714Y68370428D01*
X54966333Y68370428D01*
X54890142Y68332333D01*
X55233000Y67875190D02*
X55156809Y67837095D01*
X54966333Y67837095D01*
X54890142Y67875190D01*
X54852047Y67951380D01*
X54852047Y68027571D01*
X54890142Y68103761D01*
X54966333Y68141857D01*
X55156809Y68141857D01*
X55233000Y68179952D01*
X55994904Y67837095D02*
X55613952Y67837095D01*
X55613952Y68637095D01*
X56375857Y67837095D02*
X56299666Y67875190D01*
X56261571Y67913285D01*
X56223476Y67989476D01*
X56223476Y68218047D01*
X56261571Y68294238D01*
X56299666Y68332333D01*
X56375857Y68370428D01*
X56490142Y68370428D01*
X56566333Y68332333D01*
X56604428Y68294238D01*
X56642523Y68218047D01*
X56642523Y67989476D01*
X56604428Y67913285D01*
X56566333Y67875190D01*
X56490142Y67837095D01*
X56375857Y67837095D01*
X57442523Y67837095D02*
X57175857Y68218047D01*
X56985380Y67837095D02*
X56985380Y68637095D01*
X57290142Y68637095D01*
X57366333Y68599000D01*
X57404428Y68560904D01*
X57442523Y68484714D01*
X57442523Y68370428D01*
X57404428Y68294238D01*
X57366333Y68256142D01*
X57290142Y68218047D01*
X56985380Y68218047D01*
X57747285Y68065666D02*
X58128238Y68065666D01*
X57671095Y67837095D02*
X57937761Y68637095D01*
X58204428Y67837095D01*
X59080619Y68637095D02*
X59080619Y67989476D01*
X59118714Y67913285D01*
X59156809Y67875190D01*
X59233000Y67837095D01*
X59385380Y67837095D01*
X59461571Y67875190D01*
X59499666Y67913285D01*
X59537761Y67989476D01*
X59537761Y68637095D01*
X59880619Y67875190D02*
X59994904Y67837095D01*
X60185380Y67837095D01*
X60261571Y67875190D01*
X60299666Y67913285D01*
X60337761Y67989476D01*
X60337761Y68065666D01*
X60299666Y68141857D01*
X60261571Y68179952D01*
X60185380Y68218047D01*
X60033000Y68256142D01*
X59956809Y68294238D01*
X59918714Y68332333D01*
X59880619Y68408523D01*
X59880619Y68484714D01*
X59918714Y68560904D01*
X59956809Y68599000D01*
X60033000Y68637095D01*
X60223476Y68637095D01*
X60337761Y68599000D01*
X60947285Y68256142D02*
X61061571Y68218047D01*
X61099666Y68179952D01*
X61137761Y68103761D01*
X61137761Y67989476D01*
X61099666Y67913285D01*
X61061571Y67875190D01*
X60985380Y67837095D01*
X60680619Y67837095D01*
X60680619Y68637095D01*
X60947285Y68637095D01*
X61023476Y68599000D01*
X61061571Y68560904D01*
X61099666Y68484714D01*
X61099666Y68408523D01*
X61061571Y68332333D01*
X61023476Y68294238D01*
X60947285Y68256142D01*
X60680619Y68256142D01*
X62090142Y67837095D02*
X62090142Y68637095D01*
X62280619Y68637095D01*
X62394904Y68599000D01*
X62471095Y68522809D01*
X62509190Y68446619D01*
X62547285Y68294238D01*
X62547285Y68179952D01*
X62509190Y68027571D01*
X62471095Y67951380D01*
X62394904Y67875190D01*
X62280619Y67837095D01*
X62090142Y67837095D01*
X63004428Y67837095D02*
X62928238Y67875190D01*
X62890142Y67913285D01*
X62852047Y67989476D01*
X62852047Y68218047D01*
X62890142Y68294238D01*
X62928238Y68332333D01*
X63004428Y68370428D01*
X63118714Y68370428D01*
X63194904Y68332333D01*
X63233000Y68294238D01*
X63271095Y68218047D01*
X63271095Y67989476D01*
X63233000Y67913285D01*
X63194904Y67875190D01*
X63118714Y67837095D01*
X63004428Y67837095D01*
X63613952Y68370428D02*
X63613952Y67837095D01*
X63613952Y68294238D02*
X63652047Y68332333D01*
X63728238Y68370428D01*
X63842523Y68370428D01*
X63918714Y68332333D01*
X63956809Y68256142D01*
X63956809Y67837095D01*
X64680619Y68370428D02*
X64680619Y67722809D01*
X64642523Y67646619D01*
X64604428Y67608523D01*
X64528238Y67570428D01*
X64413952Y67570428D01*
X64337761Y67608523D01*
X64680619Y67875190D02*
X64604428Y67837095D01*
X64452047Y67837095D01*
X64375857Y67875190D01*
X64337761Y67913285D01*
X64299666Y67989476D01*
X64299666Y68218047D01*
X64337761Y68294238D01*
X64375857Y68332333D01*
X64452047Y68370428D01*
X64604428Y68370428D01*
X64680619Y68332333D01*
X65175857Y67837095D02*
X65099666Y67875190D01*
X65061571Y67951380D01*
X65061571Y68637095D01*
X65785380Y67875190D02*
X65709190Y67837095D01*
X65556809Y67837095D01*
X65480619Y67875190D01*
X65442523Y67951380D01*
X65442523Y68256142D01*
X65480619Y68332333D01*
X65556809Y68370428D01*
X65709190Y68370428D01*
X65785380Y68332333D01*
X65823476Y68256142D01*
X65823476Y68179952D01*
X65442523Y68103761D01*
X66699666Y68370428D02*
X66890142Y67837095D01*
X67080619Y68370428D01*
X67804428Y67837095D02*
X67347285Y67837095D01*
X67575857Y67837095D02*
X67575857Y68637095D01*
X67499666Y68522809D01*
X67423476Y68446619D01*
X67347285Y68408523D01*
X68147285Y67913285D02*
X68185380Y67875190D01*
X68147285Y67837095D01*
X68109190Y67875190D01*
X68147285Y67913285D01*
X68147285Y67837095D01*
X68947285Y67837095D02*
X68490142Y67837095D01*
X68718714Y67837095D02*
X68718714Y68637095D01*
X68642523Y68522809D01*
X68566333Y68446619D01*
X68490142Y68408523D01*
X75101466Y59683342D02*
X75101466Y59302390D01*
X74872895Y59759533D02*
X75672895Y59492866D01*
X74872895Y59226200D01*
X74872895Y58959533D02*
X75672895Y58959533D01*
X74872895Y58502390D01*
X75672895Y58502390D01*
X75672895Y58235723D02*
X75672895Y57778580D01*
X74872895Y58007152D02*
X75672895Y58007152D01*
X75291942Y57511914D02*
X75291942Y57245247D01*
X74872895Y57130961D02*
X74872895Y57511914D01*
X75672895Y57511914D01*
X75672895Y57130961D01*
X74872895Y56788104D02*
X75672895Y56788104D01*
X74872895Y56330961D01*
X75672895Y56330961D01*
X74872895Y55950009D02*
X75672895Y55950009D01*
X74872895Y55492866D01*
X75672895Y55492866D01*
X75101466Y55150009D02*
X75101466Y54769057D01*
X74872895Y55226200D02*
X75672895Y54959533D01*
X74872895Y54692866D01*
X44265904Y65297095D02*
X43999238Y65678047D01*
X43808761Y65297095D02*
X43808761Y66097095D01*
X44113523Y66097095D01*
X44189714Y66059000D01*
X44227809Y66020904D01*
X44265904Y65944714D01*
X44265904Y65830428D01*
X44227809Y65754238D01*
X44189714Y65716142D01*
X44113523Y65678047D01*
X43808761Y65678047D01*
X44570666Y65335190D02*
X44684952Y65297095D01*
X44875428Y65297095D01*
X44951619Y65335190D01*
X44989714Y65373285D01*
X45027809Y65449476D01*
X45027809Y65525666D01*
X44989714Y65601857D01*
X44951619Y65639952D01*
X44875428Y65678047D01*
X44723047Y65716142D01*
X44646857Y65754238D01*
X44608761Y65792333D01*
X44570666Y65868523D01*
X44570666Y65944714D01*
X44608761Y66020904D01*
X44646857Y66059000D01*
X44723047Y66097095D01*
X44913523Y66097095D01*
X45027809Y66059000D01*
X45256380Y66097095D02*
X45713523Y66097095D01*
X45484952Y65297095D02*
X45484952Y66097095D01*
X33483676Y66224095D02*
X33483676Y65576476D01*
X33521771Y65500285D01*
X33559866Y65462190D01*
X33636057Y65424095D01*
X33788438Y65424095D01*
X33864628Y65462190D01*
X33902723Y65500285D01*
X33940819Y65576476D01*
X33940819Y66224095D01*
X34283676Y65462190D02*
X34397961Y65424095D01*
X34588438Y65424095D01*
X34664628Y65462190D01*
X34702723Y65500285D01*
X34740819Y65576476D01*
X34740819Y65652666D01*
X34702723Y65728857D01*
X34664628Y65766952D01*
X34588438Y65805047D01*
X34436057Y65843142D01*
X34359866Y65881238D01*
X34321771Y65919333D01*
X34283676Y65995523D01*
X34283676Y66071714D01*
X34321771Y66147904D01*
X34359866Y66186000D01*
X34436057Y66224095D01*
X34626533Y66224095D01*
X34740819Y66186000D01*
X35540819Y65424095D02*
X35274152Y65805047D01*
X35083676Y65424095D02*
X35083676Y66224095D01*
X35388438Y66224095D01*
X35464628Y66186000D01*
X35502723Y66147904D01*
X35540819Y66071714D01*
X35540819Y65957428D01*
X35502723Y65881238D01*
X35464628Y65843142D01*
X35388438Y65805047D01*
X35083676Y65805047D01*
X27793904Y62941333D02*
X26993904Y62941333D01*
X26993904Y63246095D01*
X27032000Y63322285D01*
X27070095Y63360380D01*
X27146285Y63398476D01*
X27260571Y63398476D01*
X27336761Y63360380D01*
X27374857Y63322285D01*
X27412952Y63246095D01*
X27412952Y62941333D01*
X26993904Y63665142D02*
X27793904Y63855619D01*
X27222476Y64008000D01*
X27793904Y64160380D01*
X26993904Y64350857D01*
X27793904Y65112761D02*
X27412952Y64846095D01*
X27793904Y64655619D02*
X26993904Y64655619D01*
X26993904Y64960380D01*
X27032000Y65036571D01*
X27070095Y65074666D01*
X27146285Y65112761D01*
X27260571Y65112761D01*
X27336761Y65074666D01*
X27374857Y65036571D01*
X27412952Y64960380D01*
X27412952Y64655619D01*
D11*
%TO.C,U2*%
X42201200Y50078002D02*
G75*
G03*
X42201200Y50078002I-100000J0D01*
G01*
D12*
X39852600Y61236147D02*
X39926846Y61161901D01*
X34902853Y56286400D02*
X34977099Y56212154D01*
X44802347Y56286400D02*
X44728101Y56360646D01*
X39852600Y51336653D02*
X39778354Y51410899D01*
X39852600Y61236147D02*
X39778354Y61161901D01*
X34902853Y56286400D02*
X34977099Y56360646D01*
X44802347Y56286400D02*
X44728101Y56212154D01*
X39852600Y51336653D02*
X39926846Y51410899D01*
D13*
%TO.C,G\u002A\u002A\u002A*%
G36*
X49117953Y54558047D02*
G01*
X49165849Y54558045D01*
X49213654Y54558042D01*
X49261338Y54558039D01*
X49308871Y54558034D01*
X49356223Y54558029D01*
X49403364Y54558024D01*
X49450263Y54558017D01*
X49496890Y54558010D01*
X49543216Y54558002D01*
X49589209Y54557993D01*
X49634839Y54557983D01*
X49680077Y54557973D01*
X49724891Y54557962D01*
X49769252Y54557950D01*
X49813130Y54557937D01*
X49856495Y54557924D01*
X49899315Y54557910D01*
X49941561Y54557895D01*
X49983202Y54557879D01*
X50024209Y54557862D01*
X50064551Y54557845D01*
X50104198Y54557827D01*
X50143120Y54557808D01*
X50181286Y54557789D01*
X50218666Y54557768D01*
X50255231Y54557747D01*
X50290949Y54557725D01*
X50325790Y54557703D01*
X50359725Y54557679D01*
X50392722Y54557655D01*
X50424753Y54557630D01*
X50455786Y54557604D01*
X50485791Y54557578D01*
X50514739Y54557551D01*
X50542598Y54557523D01*
X50569339Y54557494D01*
X50594931Y54557464D01*
X50619345Y54557434D01*
X50642549Y54557403D01*
X50664514Y54557371D01*
X50685210Y54557338D01*
X50704606Y54557305D01*
X50722671Y54557271D01*
X50739377Y54557236D01*
X50754692Y54557200D01*
X50768586Y54557164D01*
X50781030Y54557126D01*
X50791992Y54557088D01*
X50801442Y54557050D01*
X50809352Y54557010D01*
X50815689Y54556970D01*
X50820424Y54556929D01*
X50823527Y54556887D01*
X50824967Y54556844D01*
X50824977Y54556843D01*
X50857921Y54553895D01*
X50889617Y54550099D01*
X50920310Y54545408D01*
X50950245Y54539774D01*
X50979665Y54533148D01*
X51008817Y54525483D01*
X51037945Y54516730D01*
X51050878Y54512501D01*
X51086884Y54499554D01*
X51122247Y54485058D01*
X51156916Y54469054D01*
X51190843Y54451577D01*
X51223977Y54432669D01*
X51256268Y54412365D01*
X51287666Y54390706D01*
X51318122Y54367728D01*
X51347585Y54343471D01*
X51376005Y54317972D01*
X51403333Y54291271D01*
X51429519Y54263405D01*
X51454512Y54234412D01*
X51478263Y54204331D01*
X51500721Y54173201D01*
X51508798Y54161267D01*
X51529785Y54128204D01*
X51549208Y54094507D01*
X51567059Y54060189D01*
X51583334Y54025266D01*
X51598026Y53989752D01*
X51611130Y53953661D01*
X51622639Y53917009D01*
X51632549Y53879810D01*
X51640853Y53842078D01*
X51646254Y53812034D01*
X51647747Y53802594D01*
X51649084Y53793589D01*
X51650301Y53784712D01*
X51651436Y53775653D01*
X51652525Y53766104D01*
X51653606Y53755758D01*
X51654716Y53744306D01*
X51655765Y53732853D01*
X51655824Y53732110D01*
X51655882Y53731213D01*
X51655939Y53730138D01*
X51655993Y53728860D01*
X51656046Y53727356D01*
X51656098Y53725601D01*
X51656148Y53723571D01*
X51656197Y53721241D01*
X51656244Y53718588D01*
X51656290Y53715586D01*
X51656334Y53712213D01*
X51656377Y53708443D01*
X51656419Y53704253D01*
X51656459Y53699617D01*
X51656498Y53694513D01*
X51656536Y53688915D01*
X51656572Y53682799D01*
X51656608Y53676141D01*
X51656642Y53668918D01*
X51656675Y53661103D01*
X51656707Y53652674D01*
X51656738Y53643606D01*
X51656768Y53633875D01*
X51656797Y53623457D01*
X51656824Y53612326D01*
X51656851Y53600460D01*
X51656877Y53587834D01*
X51656902Y53574423D01*
X51656927Y53560203D01*
X51656950Y53545150D01*
X51656973Y53529240D01*
X51656995Y53512449D01*
X51657016Y53494751D01*
X51657036Y53476124D01*
X51657056Y53456543D01*
X51657075Y53435983D01*
X51657093Y53414420D01*
X51657111Y53391830D01*
X51657128Y53368189D01*
X51657145Y53343472D01*
X51657161Y53317656D01*
X51657177Y53290716D01*
X51657192Y53262627D01*
X51657207Y53233366D01*
X51657221Y53202907D01*
X51657236Y53171228D01*
X51657249Y53138304D01*
X51657263Y53104110D01*
X51657276Y53068622D01*
X51657289Y53031816D01*
X51657302Y52993668D01*
X51657314Y52954153D01*
X51657327Y52913247D01*
X51657339Y52870926D01*
X51657351Y52827166D01*
X51657363Y52781943D01*
X51657375Y52735231D01*
X51657387Y52687007D01*
X51657399Y52637247D01*
X51657412Y52585927D01*
X51657424Y52533021D01*
X51657436Y52478506D01*
X51657449Y52422358D01*
X51657461Y52364552D01*
X51657467Y52336700D01*
X51657481Y52273043D01*
X51657493Y52211065D01*
X51657504Y52150753D01*
X51657514Y52092093D01*
X51657523Y52035071D01*
X51657531Y51979674D01*
X51657538Y51925886D01*
X51657543Y51873696D01*
X51657548Y51823088D01*
X51657551Y51774049D01*
X51657553Y51726565D01*
X51657554Y51680623D01*
X51657554Y51636208D01*
X51657552Y51593307D01*
X51657550Y51551906D01*
X51657546Y51511991D01*
X51657541Y51473548D01*
X51657535Y51436564D01*
X51657527Y51401024D01*
X51657519Y51366916D01*
X51657509Y51334224D01*
X51657498Y51302935D01*
X51657485Y51273036D01*
X51657472Y51244513D01*
X51657457Y51217351D01*
X51657441Y51191537D01*
X51657424Y51167058D01*
X51657405Y51143898D01*
X51657385Y51122045D01*
X51657364Y51101485D01*
X51657342Y51082204D01*
X51657318Y51064188D01*
X51657293Y51047423D01*
X51657267Y51031895D01*
X51657239Y51017591D01*
X51657210Y51004497D01*
X51657180Y50992599D01*
X51657148Y50981883D01*
X51657116Y50972335D01*
X51657081Y50963942D01*
X51657046Y50956690D01*
X51657009Y50950564D01*
X51656971Y50945552D01*
X51656931Y50941639D01*
X51656890Y50938811D01*
X51656847Y50937055D01*
X51656835Y50936737D01*
X51654133Y50897677D01*
X51649788Y50859001D01*
X51643806Y50820735D01*
X51636194Y50782903D01*
X51626961Y50745531D01*
X51616114Y50708644D01*
X51603661Y50672268D01*
X51589610Y50636427D01*
X51573967Y50601148D01*
X51556741Y50566455D01*
X51537940Y50532374D01*
X51531753Y50521870D01*
X51511333Y50489372D01*
X51489514Y50457797D01*
X51466347Y50427195D01*
X51441882Y50397614D01*
X51416170Y50369103D01*
X51389262Y50341710D01*
X51361207Y50315484D01*
X51332057Y50290474D01*
X51301862Y50266728D01*
X51270673Y50244295D01*
X51238540Y50223223D01*
X51205515Y50203562D01*
X51193700Y50196993D01*
X51159160Y50179089D01*
X51124061Y50162782D01*
X51088418Y50148077D01*
X51052242Y50134977D01*
X51015544Y50123486D01*
X50978338Y50113606D01*
X50940636Y50105342D01*
X50902449Y50098697D01*
X50863790Y50093674D01*
X50824672Y50090276D01*
X50814394Y50089658D01*
X50813040Y50089630D01*
X50810024Y50089603D01*
X50805375Y50089576D01*
X50799124Y50089550D01*
X50791301Y50089525D01*
X50781936Y50089500D01*
X50771060Y50089475D01*
X50758702Y50089451D01*
X50744894Y50089428D01*
X50729665Y50089405D01*
X50713045Y50089382D01*
X50695066Y50089360D01*
X50675756Y50089339D01*
X50655148Y50089318D01*
X50633270Y50089298D01*
X50610153Y50089278D01*
X50585827Y50089259D01*
X50560323Y50089240D01*
X50533671Y50089222D01*
X50505901Y50089205D01*
X50477044Y50089187D01*
X50447129Y50089171D01*
X50416187Y50089155D01*
X50384249Y50089139D01*
X50351344Y50089124D01*
X50317503Y50089110D01*
X50282756Y50089096D01*
X50247134Y50089082D01*
X50210666Y50089069D01*
X50173383Y50089057D01*
X50135315Y50089045D01*
X50096493Y50089034D01*
X50056947Y50089023D01*
X50016707Y50089012D01*
X49975803Y50089003D01*
X49934266Y50088993D01*
X49892126Y50088984D01*
X49849413Y50088976D01*
X49806158Y50088968D01*
X49762390Y50088961D01*
X49718141Y50088954D01*
X49673439Y50088948D01*
X49628317Y50088942D01*
X49582803Y50088937D01*
X49536928Y50088932D01*
X49490723Y50088928D01*
X49444218Y50088924D01*
X49397443Y50088921D01*
X49350427Y50088918D01*
X49303203Y50088916D01*
X49255799Y50088915D01*
X49208247Y50088913D01*
X49160576Y50088913D01*
X49112816Y50088912D01*
X49064999Y50088913D01*
X49017153Y50088914D01*
X48969311Y50088915D01*
X48921501Y50088917D01*
X48873754Y50088919D01*
X48826101Y50088922D01*
X48778571Y50088925D01*
X48731195Y50088929D01*
X48684004Y50088933D01*
X48637027Y50088938D01*
X48590294Y50088943D01*
X48543837Y50088949D01*
X48497685Y50088956D01*
X48451869Y50088962D01*
X48406418Y50088970D01*
X48361364Y50088977D01*
X48316736Y50088986D01*
X48272565Y50088994D01*
X48228881Y50089004D01*
X48185714Y50089013D01*
X48143095Y50089024D01*
X48101053Y50089034D01*
X48059620Y50089046D01*
X48018825Y50089057D01*
X47978699Y50089069D01*
X47939272Y50089082D01*
X47900574Y50089095D01*
X47862636Y50089109D01*
X47825487Y50089123D01*
X47789159Y50089138D01*
X47753681Y50089153D01*
X47719083Y50089168D01*
X47685397Y50089184D01*
X47652651Y50089201D01*
X47620878Y50089218D01*
X47590105Y50089235D01*
X47560365Y50089253D01*
X47531688Y50089272D01*
X47504103Y50089291D01*
X47477641Y50089310D01*
X47452332Y50089330D01*
X47428206Y50089350D01*
X47405294Y50089371D01*
X47383626Y50089392D01*
X47363233Y50089414D01*
X47344144Y50089436D01*
X47326390Y50089459D01*
X47310001Y50089482D01*
X47295007Y50089506D01*
X47281439Y50089530D01*
X47269327Y50089555D01*
X47258702Y50089580D01*
X47249593Y50089605D01*
X47242030Y50089631D01*
X47236045Y50089658D01*
X47231667Y50089685D01*
X47228927Y50089712D01*
X47227914Y50089735D01*
X47189177Y50092741D01*
X47150755Y50097402D01*
X47112694Y50103699D01*
X47075037Y50111618D01*
X47037830Y50121139D01*
X47001117Y50132247D01*
X46964943Y50144925D01*
X46929353Y50159154D01*
X46894391Y50174918D01*
X46860102Y50192201D01*
X46826532Y50210985D01*
X46793724Y50231252D01*
X46761723Y50252987D01*
X46730575Y50276171D01*
X46722793Y50282298D01*
X46693099Y50307019D01*
X46664550Y50332970D01*
X46637183Y50360102D01*
X46611032Y50388366D01*
X46586136Y50417713D01*
X46562531Y50448092D01*
X46540252Y50479456D01*
X46519337Y50511754D01*
X46499821Y50544937D01*
X46481742Y50578957D01*
X46465136Y50613764D01*
X46450038Y50649308D01*
X46448533Y50653103D01*
X46435166Y50689300D01*
X46423446Y50725849D01*
X46413364Y50762778D01*
X46404916Y50800115D01*
X46398096Y50837888D01*
X46392897Y50876125D01*
X46389314Y50914855D01*
X46388012Y50936737D01*
X46387970Y50938176D01*
X46387928Y50940682D01*
X46387888Y50944270D01*
X46387849Y50948953D01*
X46387812Y50954745D01*
X46387776Y50961660D01*
X46387742Y50969712D01*
X46387708Y50978913D01*
X46387676Y50989279D01*
X46387646Y51000823D01*
X46387616Y51013559D01*
X46387588Y51027501D01*
X46387562Y51042662D01*
X46387536Y51059057D01*
X46387512Y51076698D01*
X46387489Y51095601D01*
X46387468Y51115778D01*
X46387448Y51137244D01*
X46387429Y51160012D01*
X46387411Y51184096D01*
X46387395Y51209511D01*
X46387380Y51236269D01*
X46387366Y51264385D01*
X46387353Y51293872D01*
X46387341Y51324745D01*
X46387331Y51357017D01*
X46387322Y51390701D01*
X46387315Y51425812D01*
X46387308Y51462364D01*
X46387303Y51500371D01*
X46387298Y51539845D01*
X46387295Y51580801D01*
X46387294Y51623254D01*
X46387293Y51667215D01*
X46387294Y51712701D01*
X46387295Y51759723D01*
X46387298Y51808297D01*
X46387302Y51858435D01*
X46387308Y51910152D01*
X46387314Y51963462D01*
X46387321Y52018378D01*
X46387330Y52074914D01*
X46387340Y52133084D01*
X46387351Y52192901D01*
X46387363Y52254381D01*
X46387376Y52317535D01*
X46387380Y52336700D01*
X46387392Y52395296D01*
X46387405Y52452223D01*
X46387417Y52507506D01*
X46387430Y52561167D01*
X46387442Y52613233D01*
X46387454Y52663726D01*
X46387466Y52712671D01*
X46387478Y52760093D01*
X46387490Y52806016D01*
X46387502Y52850463D01*
X46387515Y52893460D01*
X46387527Y52935030D01*
X46387539Y52975198D01*
X46387552Y53013988D01*
X46387565Y53051424D01*
X46387578Y53087531D01*
X46387591Y53122332D01*
X46387605Y53155853D01*
X46387619Y53188116D01*
X46387633Y53219148D01*
X46387648Y53248970D01*
X46387663Y53277609D01*
X46387678Y53305088D01*
X46387694Y53331432D01*
X46387711Y53356664D01*
X46387728Y53380810D01*
X46387745Y53403893D01*
X46387763Y53425937D01*
X46387782Y53446967D01*
X46387802Y53467007D01*
X46387822Y53486081D01*
X46387842Y53504214D01*
X46387864Y53521430D01*
X46387886Y53537753D01*
X46387909Y53553207D01*
X46387933Y53567817D01*
X46387958Y53581606D01*
X46387983Y53594600D01*
X46388010Y53606822D01*
X46388037Y53618296D01*
X46388066Y53629047D01*
X46388095Y53639100D01*
X46388125Y53648478D01*
X46388157Y53657205D01*
X46388189Y53665306D01*
X46388223Y53672806D01*
X46388258Y53679727D01*
X46388294Y53686096D01*
X46388331Y53691935D01*
X46388370Y53697269D01*
X46388409Y53702123D01*
X46388450Y53706520D01*
X46388493Y53710485D01*
X46388536Y53714043D01*
X46388581Y53717217D01*
X46388628Y53720031D01*
X46388676Y53722510D01*
X46388725Y53724679D01*
X46388776Y53726561D01*
X46388828Y53728180D01*
X46388882Y53729562D01*
X46388938Y53730730D01*
X46388995Y53731708D01*
X46389054Y53732521D01*
X46389082Y53732853D01*
X46390249Y53745558D01*
X46391354Y53756881D01*
X46392434Y53767130D01*
X46393527Y53776613D01*
X46394668Y53785638D01*
X46395896Y53794515D01*
X46397248Y53803551D01*
X46398593Y53812034D01*
X46403516Y53838687D01*
X46990835Y53838687D01*
X46991076Y52731882D01*
X46991087Y52679557D01*
X46991098Y52628898D01*
X46991109Y52579878D01*
X46991121Y52532469D01*
X46991132Y52486645D01*
X46991143Y52442377D01*
X46991154Y52399639D01*
X46991165Y52358403D01*
X46991176Y52318643D01*
X46991187Y52280330D01*
X46991199Y52243437D01*
X46991211Y52207938D01*
X46991223Y52173805D01*
X46991235Y52141010D01*
X46991248Y52109526D01*
X46991262Y52079327D01*
X46991275Y52050384D01*
X46991289Y52022671D01*
X46991304Y51996160D01*
X46991319Y51970824D01*
X46991335Y51946635D01*
X46991352Y51923567D01*
X46991369Y51901591D01*
X46991387Y51880682D01*
X46991406Y51860811D01*
X46991425Y51841951D01*
X46991446Y51824074D01*
X46991467Y51807155D01*
X46991489Y51791165D01*
X46991513Y51776076D01*
X46991537Y51761863D01*
X46991562Y51748496D01*
X46991589Y51735950D01*
X46991616Y51724197D01*
X46991645Y51713210D01*
X46991675Y51702960D01*
X46991707Y51693422D01*
X46991739Y51684567D01*
X46991773Y51676369D01*
X46991809Y51668800D01*
X46991845Y51661833D01*
X46991884Y51655440D01*
X46991923Y51649595D01*
X46991965Y51644269D01*
X46992008Y51639436D01*
X46992052Y51635069D01*
X46992099Y51631140D01*
X46992147Y51627621D01*
X46992196Y51624486D01*
X46992248Y51621708D01*
X46992302Y51619258D01*
X46992357Y51617110D01*
X46992414Y51615237D01*
X46992473Y51613610D01*
X46992535Y51612203D01*
X46992598Y51610989D01*
X46992663Y51609940D01*
X46992731Y51609029D01*
X46992770Y51608567D01*
X46995559Y51580464D01*
X46998879Y51553693D01*
X47002787Y51527962D01*
X47007339Y51502979D01*
X47012589Y51478449D01*
X47018595Y51454081D01*
X47025411Y51429582D01*
X47029524Y51415950D01*
X47038772Y51387999D01*
X47049289Y51359655D01*
X47060893Y51331347D01*
X47073403Y51303500D01*
X47086636Y51276544D01*
X47097142Y51256777D01*
X47116182Y51223951D01*
X47136640Y51192021D01*
X47158469Y51161034D01*
X47181622Y51131037D01*
X47206051Y51102077D01*
X47231709Y51074201D01*
X47258550Y51047456D01*
X47286526Y51021890D01*
X47315589Y50997549D01*
X47345692Y50974480D01*
X47376789Y50952732D01*
X47408832Y50932350D01*
X47440618Y50914015D01*
X47473729Y50896797D01*
X47507633Y50881026D01*
X47542237Y50866729D01*
X47577447Y50853934D01*
X47613169Y50842667D01*
X47649311Y50832956D01*
X47685779Y50824828D01*
X47722479Y50818310D01*
X47759317Y50813430D01*
X47796201Y50810215D01*
X47796874Y50810172D01*
X47801976Y50809848D01*
X47806865Y50809536D01*
X47811124Y50809264D01*
X47814337Y50809057D01*
X47815500Y50808982D01*
X47816924Y50808946D01*
X47819979Y50808913D01*
X47824604Y50808884D01*
X47830737Y50808858D01*
X47838316Y50808836D01*
X47847280Y50808818D01*
X47857566Y50808802D01*
X47869113Y50808790D01*
X47881859Y50808781D01*
X47895742Y50808774D01*
X47910701Y50808771D01*
X47926674Y50808771D01*
X47943598Y50808773D01*
X47961413Y50808778D01*
X47980056Y50808786D01*
X47999465Y50808796D01*
X48019579Y50808808D01*
X48040337Y50808823D01*
X48061675Y50808840D01*
X48083533Y50808859D01*
X48105849Y50808881D01*
X48128561Y50808904D01*
X48151606Y50808929D01*
X48174924Y50808956D01*
X48198453Y50808985D01*
X48222130Y50809015D01*
X48245894Y50809047D01*
X48269683Y50809080D01*
X48293436Y50809115D01*
X48317090Y50809151D01*
X48340584Y50809188D01*
X48363856Y50809227D01*
X48386845Y50809266D01*
X48409488Y50809306D01*
X48431723Y50809348D01*
X48453490Y50809390D01*
X48474725Y50809432D01*
X48495368Y50809476D01*
X48515356Y50809519D01*
X48534629Y50809564D01*
X48553123Y50809608D01*
X48570777Y50809653D01*
X48587530Y50809698D01*
X48603319Y50809743D01*
X48618084Y50809789D01*
X48631761Y50809834D01*
X48644290Y50809879D01*
X48655608Y50809923D01*
X48665654Y50809968D01*
X48674365Y50810012D01*
X48681681Y50810055D01*
X48687540Y50810098D01*
X48691878Y50810140D01*
X48694636Y50810182D01*
X48695378Y50810201D01*
X48721036Y50811595D01*
X48745688Y50813923D01*
X48765460Y50816587D01*
X48796264Y50822197D01*
X48826571Y50829407D01*
X48856328Y50838184D01*
X48885481Y50848493D01*
X48913979Y50860301D01*
X48941767Y50873574D01*
X48968792Y50888279D01*
X48995002Y50904380D01*
X49020343Y50921845D01*
X49044762Y50940640D01*
X49068207Y50960731D01*
X49090623Y50982083D01*
X49111959Y51004664D01*
X49132160Y51028439D01*
X49151173Y51053374D01*
X49162359Y51069427D01*
X49179127Y51095865D01*
X49194451Y51123157D01*
X49208293Y51151221D01*
X49220616Y51179974D01*
X49231385Y51209334D01*
X49240562Y51239221D01*
X49243428Y51249935D01*
X49247879Y51268327D01*
X49251654Y51286370D01*
X49254820Y51304487D01*
X49257447Y51323102D01*
X49259603Y51342637D01*
X49260936Y51357953D01*
X49261039Y51360127D01*
X49261137Y51363920D01*
X49261230Y51369259D01*
X49261319Y51376069D01*
X49261403Y51384276D01*
X49261483Y51393807D01*
X49261558Y51404587D01*
X49261629Y51416543D01*
X49261695Y51429601D01*
X49261756Y51443686D01*
X49261813Y51458725D01*
X49261865Y51474644D01*
X49261912Y51491368D01*
X49261955Y51508824D01*
X49261994Y51526938D01*
X49262027Y51545636D01*
X49262057Y51564844D01*
X49262081Y51584487D01*
X49262101Y51604493D01*
X49262117Y51624787D01*
X49262128Y51645294D01*
X49262134Y51665942D01*
X49262135Y51686656D01*
X49262132Y51707362D01*
X49262125Y51727986D01*
X49262113Y51748454D01*
X49262096Y51768693D01*
X49262075Y51788628D01*
X49262049Y51808185D01*
X49262018Y51827290D01*
X49261983Y51845870D01*
X49261943Y51863850D01*
X49261899Y51881157D01*
X49261850Y51897716D01*
X49261796Y51913454D01*
X49261738Y51928296D01*
X49261676Y51942169D01*
X49261608Y51954999D01*
X49261536Y51966711D01*
X49261460Y51977232D01*
X49261379Y51986487D01*
X49261293Y51994404D01*
X49261202Y52000907D01*
X49261107Y52005923D01*
X49261008Y52009378D01*
X49260942Y52010733D01*
X49258524Y52041372D01*
X49255394Y52070623D01*
X49251531Y52098646D01*
X49246914Y52125600D01*
X49243095Y52144507D01*
X49234162Y52182031D01*
X49223670Y52218901D01*
X49211624Y52255101D01*
X49198033Y52290616D01*
X49182905Y52325432D01*
X49166247Y52359532D01*
X49148067Y52392902D01*
X49128372Y52425527D01*
X49107169Y52457391D01*
X49084468Y52488480D01*
X49060274Y52518778D01*
X49046948Y52534397D01*
X49042173Y52539731D01*
X49036355Y52546002D01*
X49029701Y52553003D01*
X49022418Y52560528D01*
X49014712Y52568370D01*
X49006790Y52576323D01*
X48998858Y52584180D01*
X48991124Y52591735D01*
X48983792Y52598780D01*
X48977071Y52605110D01*
X48971166Y52610517D01*
X48968237Y52613115D01*
X48938365Y52638101D01*
X48907709Y52661589D01*
X48876290Y52683570D01*
X48844132Y52704036D01*
X48811257Y52722976D01*
X48777688Y52740382D01*
X48743448Y52756245D01*
X48708560Y52770554D01*
X48673046Y52783302D01*
X48636930Y52794479D01*
X48600233Y52804075D01*
X48562979Y52812082D01*
X48525191Y52818490D01*
X48486891Y52823290D01*
X48448101Y52826473D01*
X48439494Y52826956D01*
X48437318Y52827022D01*
X48433522Y52827084D01*
X48428181Y52827141D01*
X48421366Y52827193D01*
X48413151Y52827241D01*
X48403611Y52827285D01*
X48392817Y52827324D01*
X48380845Y52827358D01*
X48367767Y52827388D01*
X48353656Y52827414D01*
X48338586Y52827436D01*
X48322632Y52827454D01*
X48305865Y52827467D01*
X48288359Y52827477D01*
X48270188Y52827482D01*
X48251426Y52827484D01*
X48232145Y52827482D01*
X48212420Y52827476D01*
X48192323Y52827467D01*
X48171929Y52827454D01*
X48151310Y52827437D01*
X48130539Y52827417D01*
X48109692Y52827394D01*
X48088840Y52827367D01*
X48068057Y52827337D01*
X48047417Y52827304D01*
X48026994Y52827267D01*
X48006860Y52827228D01*
X47987089Y52827185D01*
X47967754Y52827140D01*
X47948930Y52827091D01*
X47930689Y52827040D01*
X47913105Y52826986D01*
X47896251Y52826930D01*
X47880201Y52826870D01*
X47865028Y52826809D01*
X47850805Y52826744D01*
X47837607Y52826678D01*
X47825506Y52826609D01*
X47814576Y52826537D01*
X47804891Y52826463D01*
X47796523Y52826388D01*
X47796239Y52826385D01*
X47745227Y52825871D01*
X47745227Y52324661D01*
X47861009Y52325183D01*
X47873202Y52325235D01*
X47886948Y52325287D01*
X47902104Y52325340D01*
X47918532Y52325392D01*
X47936088Y52325444D01*
X47954632Y52325495D01*
X47974024Y52325545D01*
X47994121Y52325594D01*
X48014784Y52325641D01*
X48035871Y52325686D01*
X48057240Y52325728D01*
X48078751Y52325768D01*
X48100264Y52325805D01*
X48121636Y52325838D01*
X48142727Y52325868D01*
X48163395Y52325894D01*
X48179567Y52325911D01*
X48201671Y52325934D01*
X48222152Y52325955D01*
X48241080Y52325973D01*
X48258524Y52325987D01*
X48274555Y52325996D01*
X48289243Y52325999D01*
X48302657Y52325994D01*
X48314868Y52325981D01*
X48325946Y52325958D01*
X48335960Y52325925D01*
X48344981Y52325880D01*
X48353078Y52325822D01*
X48360323Y52325750D01*
X48366784Y52325663D01*
X48372531Y52325559D01*
X48377635Y52325439D01*
X48382166Y52325300D01*
X48386194Y52325141D01*
X48389788Y52324962D01*
X48393019Y52324761D01*
X48395956Y52324537D01*
X48398670Y52324289D01*
X48401231Y52324016D01*
X48403709Y52323717D01*
X48406173Y52323391D01*
X48408693Y52323036D01*
X48411341Y52322652D01*
X48414185Y52322237D01*
X48414517Y52322189D01*
X48439848Y52317673D01*
X48464705Y52311562D01*
X48489023Y52303904D01*
X48512735Y52294747D01*
X48535776Y52284140D01*
X48558081Y52272131D01*
X48579584Y52258768D01*
X48600219Y52244100D01*
X48619921Y52228174D01*
X48638625Y52211039D01*
X48656264Y52192742D01*
X48672774Y52173333D01*
X48688089Y52152860D01*
X48702142Y52131370D01*
X48714870Y52108912D01*
X48721037Y52096670D01*
X48731376Y52073558D01*
X48740137Y52050281D01*
X48747365Y52026666D01*
X48753109Y52002542D01*
X48757415Y51977734D01*
X48760330Y51952069D01*
X48760345Y51951890D01*
X48760441Y51949883D01*
X48760532Y51946197D01*
X48760617Y51940846D01*
X48760697Y51933844D01*
X48760771Y51925206D01*
X48760839Y51914946D01*
X48760902Y51903077D01*
X48760958Y51889614D01*
X48761009Y51874572D01*
X48761055Y51857965D01*
X48761094Y51839806D01*
X48761127Y51820110D01*
X48761154Y51798891D01*
X48761176Y51776163D01*
X48761191Y51751941D01*
X48761200Y51726239D01*
X48761203Y51699071D01*
X48761203Y51697043D01*
X48761202Y51672574D01*
X48761202Y51649737D01*
X48761201Y51628474D01*
X48761199Y51608725D01*
X48761194Y51590429D01*
X48761185Y51573527D01*
X48761172Y51557958D01*
X48761153Y51543663D01*
X48761128Y51530582D01*
X48761096Y51518655D01*
X48761056Y51507822D01*
X48761006Y51498022D01*
X48760946Y51489197D01*
X48760875Y51481286D01*
X48760793Y51474229D01*
X48760697Y51467966D01*
X48760588Y51462438D01*
X48760464Y51457584D01*
X48760324Y51453344D01*
X48760167Y51449659D01*
X48759993Y51446468D01*
X48759801Y51443712D01*
X48759589Y51441330D01*
X48759357Y51439264D01*
X48759103Y51437452D01*
X48758827Y51435834D01*
X48758528Y51434352D01*
X48758205Y51432944D01*
X48757857Y51431552D01*
X48757483Y51430114D01*
X48757082Y51428572D01*
X48757015Y51428310D01*
X48752228Y51412885D01*
X48745982Y51398222D01*
X48738362Y51384405D01*
X48729452Y51371514D01*
X48719339Y51359631D01*
X48708105Y51348839D01*
X48695837Y51339219D01*
X48682620Y51330852D01*
X48668538Y51323821D01*
X48653676Y51318207D01*
X48638460Y51314164D01*
X48635821Y51313626D01*
X48633312Y51313180D01*
X48630719Y51312815D01*
X48627833Y51312515D01*
X48624441Y51312267D01*
X48620334Y51312056D01*
X48615298Y51311870D01*
X48609124Y51311695D01*
X48601600Y51311516D01*
X48596127Y51311396D01*
X48591963Y51311324D01*
X48586280Y51311253D01*
X48579146Y51311183D01*
X48570630Y51311115D01*
X48560800Y51311047D01*
X48549726Y51310981D01*
X48537475Y51310916D01*
X48524117Y51310853D01*
X48509720Y51310791D01*
X48494353Y51310731D01*
X48478084Y51310673D01*
X48460983Y51310616D01*
X48443117Y51310561D01*
X48424556Y51310509D01*
X48405368Y51310458D01*
X48385622Y51310410D01*
X48365386Y51310364D01*
X48344730Y51310320D01*
X48323721Y51310278D01*
X48302429Y51310239D01*
X48280923Y51310203D01*
X48259270Y51310170D01*
X48237539Y51310139D01*
X48215800Y51310111D01*
X48194121Y51310085D01*
X48172570Y51310063D01*
X48151217Y51310044D01*
X48130129Y51310029D01*
X48109376Y51310016D01*
X48089026Y51310007D01*
X48069148Y51310001D01*
X48049811Y51309999D01*
X48031083Y51310000D01*
X48013033Y51310005D01*
X47995729Y51310014D01*
X47979241Y51310027D01*
X47963636Y51310044D01*
X47948984Y51310064D01*
X47935353Y51310089D01*
X47922813Y51310118D01*
X47911430Y51310151D01*
X47901275Y51310189D01*
X47892416Y51310231D01*
X47884922Y51310278D01*
X47878861Y51310329D01*
X47874302Y51310385D01*
X47871313Y51310446D01*
X47870110Y51310497D01*
X47843497Y51313373D01*
X47817459Y51317842D01*
X47792009Y51323896D01*
X47767163Y51331531D01*
X47742935Y51340741D01*
X47719338Y51351519D01*
X47696388Y51363860D01*
X47674100Y51377759D01*
X47652486Y51393209D01*
X47638124Y51404646D01*
X47633559Y51408589D01*
X47628153Y51413506D01*
X47622195Y51419111D01*
X47615976Y51425121D01*
X47609788Y51431250D01*
X47603920Y51437214D01*
X47598665Y51442728D01*
X47594312Y51447507D01*
X47594143Y51447700D01*
X47577598Y51467789D01*
X47562365Y51488856D01*
X47548507Y51510793D01*
X47536086Y51533488D01*
X47525167Y51556834D01*
X47515811Y51580721D01*
X47513343Y51587903D01*
X47506241Y51611640D01*
X47500651Y51635680D01*
X47496523Y51660269D01*
X47494181Y51681159D01*
X47494120Y51681990D01*
X47494061Y51683107D01*
X47494004Y51684534D01*
X47493950Y51686300D01*
X47493897Y51688431D01*
X47493845Y51690954D01*
X47493796Y51693896D01*
X47493748Y51697283D01*
X47493702Y51701144D01*
X47493658Y51705503D01*
X47493616Y51710390D01*
X47493575Y51715829D01*
X47493535Y51721849D01*
X47493498Y51728477D01*
X47493461Y51735738D01*
X47493427Y51743660D01*
X47493394Y51752271D01*
X47493362Y51761596D01*
X47493332Y51771662D01*
X47493303Y51782498D01*
X47493275Y51794128D01*
X47493249Y51806582D01*
X47493224Y51819884D01*
X47493200Y51834063D01*
X47493178Y51849145D01*
X47493157Y51865157D01*
X47493137Y51882125D01*
X47493118Y51900078D01*
X47493100Y51919041D01*
X47493083Y51939042D01*
X47493067Y51960108D01*
X47493053Y51982264D01*
X47493039Y52005539D01*
X47493026Y52029960D01*
X47493015Y52055552D01*
X47493004Y52082344D01*
X47492994Y52110361D01*
X47492984Y52139631D01*
X47492976Y52170181D01*
X47492968Y52202037D01*
X47492961Y52235228D01*
X47492955Y52269778D01*
X47492950Y52305716D01*
X47492945Y52343068D01*
X47492940Y52381861D01*
X47492937Y52422122D01*
X47492934Y52463878D01*
X47492931Y52507156D01*
X47492929Y52551982D01*
X47492927Y52598385D01*
X47492926Y52646389D01*
X47492925Y52696023D01*
X47492925Y52747314D01*
X47492924Y52767018D01*
X47492920Y53838687D01*
X48765460Y53838687D01*
X48765460Y52910068D01*
X48779642Y52904395D01*
X48803725Y52894315D01*
X48828486Y52883094D01*
X48853547Y52870921D01*
X48878535Y52857982D01*
X48903074Y52844465D01*
X48923364Y52832623D01*
X48957379Y52811247D01*
X48990638Y52788403D01*
X49023065Y52764164D01*
X49054586Y52738601D01*
X49085129Y52711785D01*
X49114619Y52683789D01*
X49142982Y52654683D01*
X49170145Y52624540D01*
X49196033Y52593430D01*
X49220574Y52561427D01*
X49243692Y52528600D01*
X49255833Y52510129D01*
X49258692Y52505700D01*
X49261238Y52501819D01*
X49263334Y52498689D01*
X49264841Y52496515D01*
X49265624Y52495500D01*
X49265700Y52495454D01*
X49265713Y52496308D01*
X49265725Y52498815D01*
X49265735Y52502935D01*
X49265743Y52508628D01*
X49265750Y52515852D01*
X49265755Y52524569D01*
X49265759Y52534737D01*
X49265760Y52546317D01*
X49265761Y52559268D01*
X49265760Y52567777D01*
X49390656Y52567777D01*
X49391821Y52538972D01*
X49394628Y52510281D01*
X49399063Y52481785D01*
X49405111Y52453566D01*
X49412756Y52425705D01*
X49421984Y52398285D01*
X49432779Y52371386D01*
X49445127Y52345090D01*
X49445302Y52344743D01*
X49459212Y52319127D01*
X49474542Y52294408D01*
X49491240Y52270643D01*
X49509257Y52247888D01*
X49528542Y52226198D01*
X49549045Y52205632D01*
X49570716Y52186244D01*
X49593504Y52168090D01*
X49617359Y52151228D01*
X49620170Y52149373D01*
X49645047Y52134079D01*
X49670644Y52120315D01*
X49696943Y52108088D01*
X49723926Y52097404D01*
X49751574Y52088268D01*
X49779871Y52080688D01*
X49808797Y52074670D01*
X49838336Y52070219D01*
X49853004Y52068615D01*
X49859384Y52068122D01*
X49867084Y52067722D01*
X49875773Y52067418D01*
X49885121Y52067211D01*
X49894799Y52067103D01*
X49904476Y52067095D01*
X49913823Y52067190D01*
X49922509Y52067388D01*
X49930206Y52067693D01*
X49936582Y52068105D01*
X49937247Y52068162D01*
X49963443Y52071068D01*
X49988672Y52075077D01*
X50013315Y52080267D01*
X50037754Y52086717D01*
X50057474Y52092857D01*
X50085007Y52102855D01*
X50111654Y52114289D01*
X50137437Y52127170D01*
X50162374Y52141510D01*
X50186485Y52157323D01*
X50209791Y52174619D01*
X50232311Y52193411D01*
X50252097Y52211782D01*
X50259713Y52219378D01*
X50267143Y52227152D01*
X50274587Y52235329D01*
X50282243Y52244137D01*
X50290310Y52253801D01*
X50298988Y52264548D01*
X50303776Y52270600D01*
X50306059Y52273503D01*
X50312788Y52269839D01*
X50336174Y52256179D01*
X50358379Y52241323D01*
X50379387Y52225286D01*
X50399179Y52208086D01*
X50417738Y52189739D01*
X50435047Y52170263D01*
X50451088Y52149674D01*
X50465844Y52127989D01*
X50475318Y52112308D01*
X50487205Y52090162D01*
X50497531Y52067778D01*
X50506329Y52045034D01*
X50513638Y52021804D01*
X50519493Y51997965D01*
X50523931Y51973394D01*
X50526987Y51947966D01*
X50528213Y51931570D01*
X50528273Y51929677D01*
X50528331Y51926106D01*
X50528387Y51920870D01*
X50528441Y51913985D01*
X50528493Y51905465D01*
X50528542Y51895325D01*
X50528590Y51883580D01*
X50528635Y51870243D01*
X50528678Y51855330D01*
X50528719Y51838855D01*
X50528758Y51820833D01*
X50528795Y51801279D01*
X50528829Y51780207D01*
X50528861Y51757632D01*
X50528890Y51733568D01*
X50528918Y51708030D01*
X50528943Y51681032D01*
X50528965Y51652590D01*
X50528986Y51622718D01*
X50529003Y51591430D01*
X50529019Y51558742D01*
X50529032Y51524667D01*
X50529042Y51489221D01*
X50529050Y51452417D01*
X50529055Y51414271D01*
X50529058Y51374798D01*
X50529059Y51359435D01*
X50529067Y50801693D01*
X51029447Y50801693D01*
X51029446Y51393725D01*
X51029444Y51436828D01*
X51029440Y51478410D01*
X51029434Y51518464D01*
X51029425Y51556985D01*
X51029414Y51593964D01*
X51029400Y51629396D01*
X51029384Y51663273D01*
X51029365Y51695590D01*
X51029344Y51726338D01*
X51029320Y51755511D01*
X51029294Y51783103D01*
X51029266Y51809107D01*
X51029235Y51833515D01*
X51029202Y51856322D01*
X51029166Y51877520D01*
X51029128Y51897103D01*
X51029088Y51915064D01*
X51029045Y51931396D01*
X51029000Y51946092D01*
X51028952Y51959146D01*
X51028903Y51970551D01*
X51028850Y51980300D01*
X51028796Y51988386D01*
X51028739Y51994803D01*
X51028680Y51999543D01*
X51028619Y52002601D01*
X51028586Y52003537D01*
X51025896Y52041951D01*
X51021566Y52079990D01*
X51015616Y52117613D01*
X51008066Y52154778D01*
X50998936Y52191444D01*
X50988246Y52227570D01*
X50976015Y52263115D01*
X50962264Y52298037D01*
X50947013Y52332295D01*
X50930282Y52365849D01*
X50912090Y52398656D01*
X50892457Y52430675D01*
X50871404Y52461866D01*
X50848950Y52492187D01*
X50825116Y52521597D01*
X50799920Y52550054D01*
X50773384Y52577518D01*
X50745527Y52603947D01*
X50732690Y52615383D01*
X50705742Y52637917D01*
X50677549Y52659551D01*
X50648314Y52680154D01*
X50618241Y52699594D01*
X50587533Y52717741D01*
X50556392Y52734463D01*
X50525023Y52749631D01*
X50523362Y52750387D01*
X50497052Y52761780D01*
X50469989Y52772451D01*
X50442511Y52782287D01*
X50414961Y52791174D01*
X50387677Y52798996D01*
X50361001Y52805642D01*
X50352960Y52807434D01*
X50350098Y52808068D01*
X50347754Y52808613D01*
X50346829Y52808846D01*
X50345857Y52809743D01*
X50344349Y52811898D01*
X50342482Y52815031D01*
X50340596Y52818551D01*
X50333434Y52831634D01*
X50325023Y52845392D01*
X50315540Y52859586D01*
X50305164Y52873978D01*
X50294070Y52888329D01*
X50282436Y52902401D01*
X50270439Y52915955D01*
X50260252Y52926724D01*
X50238978Y52947313D01*
X50216755Y52966516D01*
X50193614Y52984311D01*
X50169588Y53000679D01*
X50144711Y53015598D01*
X50119015Y53029047D01*
X50092533Y53041007D01*
X50065297Y53051457D01*
X50057464Y53054135D01*
X50029654Y53062514D01*
X50001579Y53069248D01*
X49973308Y53074349D01*
X49944911Y53077827D01*
X49916458Y53079695D01*
X49888017Y53079964D01*
X49859659Y53078643D01*
X49831452Y53075746D01*
X49803466Y53071283D01*
X49775770Y53065265D01*
X49748433Y53057703D01*
X49721526Y53048610D01*
X49695117Y53037995D01*
X49669276Y53025870D01*
X49644071Y53012247D01*
X49619574Y52997137D01*
X49595852Y52980551D01*
X49593924Y52979110D01*
X49585275Y52972506D01*
X49577333Y52966180D01*
X49569784Y52959858D01*
X49562317Y52953265D01*
X49554619Y52946128D01*
X49546377Y52938172D01*
X49539689Y52931541D01*
X49528425Y52920049D01*
X49518286Y52909199D01*
X49509006Y52898668D01*
X49500320Y52888133D01*
X49491961Y52877270D01*
X49483664Y52865757D01*
X49475163Y52853270D01*
X49474533Y52852320D01*
X49459070Y52827454D01*
X49445140Y52801877D01*
X49432755Y52775625D01*
X49421929Y52748737D01*
X49412675Y52721249D01*
X49405007Y52693199D01*
X49398938Y52664625D01*
X49394481Y52635563D01*
X49393317Y52625401D01*
X49391150Y52596613D01*
X49390656Y52567777D01*
X49265760Y52567777D01*
X49265759Y52573550D01*
X49265757Y52589122D01*
X49265752Y52605945D01*
X49265747Y52623978D01*
X49265739Y52643180D01*
X49265731Y52663512D01*
X49265721Y52684934D01*
X49265709Y52707404D01*
X49265696Y52730883D01*
X49265682Y52755330D01*
X49265666Y52780706D01*
X49265650Y52806969D01*
X49265631Y52834080D01*
X49265612Y52861998D01*
X49265591Y52890684D01*
X49265569Y52920096D01*
X49265546Y52950195D01*
X49265521Y52980940D01*
X49265496Y53012291D01*
X49265469Y53044207D01*
X49265441Y53076649D01*
X49265412Y53109576D01*
X49265382Y53142948D01*
X49265360Y53167210D01*
X49264741Y53835303D01*
X50529067Y53835303D01*
X50529087Y53371540D01*
X50529108Y52907777D01*
X50544962Y52901557D01*
X50577771Y52887897D01*
X50610610Y52872671D01*
X50643292Y52855995D01*
X50675627Y52837981D01*
X50707427Y52818743D01*
X50738502Y52798396D01*
X50768665Y52777053D01*
X50797726Y52754829D01*
X50823707Y52733376D01*
X50847047Y52712705D01*
X50870239Y52690894D01*
X50892893Y52668329D01*
X50914619Y52645397D01*
X50932492Y52625413D01*
X50945304Y52610316D01*
X50958338Y52594280D01*
X50971357Y52577622D01*
X50984125Y52560658D01*
X50996406Y52543705D01*
X51007964Y52527078D01*
X51018563Y52511094D01*
X51022674Y52504647D01*
X51025263Y52500554D01*
X51027527Y52497020D01*
X51029319Y52494270D01*
X51030493Y52492527D01*
X51030901Y52492007D01*
X51030910Y52492854D01*
X51030920Y52495354D01*
X51030929Y52499467D01*
X51030939Y52505153D01*
X51030948Y52512370D01*
X51030958Y52521080D01*
X51030968Y52531242D01*
X51030977Y52542815D01*
X51030987Y52555759D01*
X51030996Y52570034D01*
X51031006Y52585600D01*
X51031015Y52602417D01*
X51031025Y52620443D01*
X51031034Y52639639D01*
X51031043Y52659965D01*
X51031052Y52681381D01*
X51031061Y52703845D01*
X51031070Y52727318D01*
X51031079Y52751760D01*
X51031087Y52777130D01*
X51031095Y52803388D01*
X51031103Y52830494D01*
X51031111Y52858407D01*
X51031118Y52887088D01*
X51031125Y52916495D01*
X51031132Y52946590D01*
X51031139Y52977330D01*
X51031145Y53008677D01*
X51031151Y53040590D01*
X51031156Y53073028D01*
X51031161Y53105952D01*
X51031166Y53139321D01*
X51031169Y53163513D01*
X51031254Y53834877D01*
X50780160Y53835090D01*
X50529067Y53835303D01*
X49264741Y53835303D01*
X49264737Y53838687D01*
X48765460Y53838687D01*
X47492920Y53838687D01*
X46990835Y53838687D01*
X46403516Y53838687D01*
X46405594Y53849937D01*
X46414208Y53887366D01*
X46424409Y53924277D01*
X46436173Y53960628D01*
X46449475Y53996374D01*
X46464289Y54031474D01*
X46480590Y54065883D01*
X46498355Y54099558D01*
X46517556Y54132456D01*
X46538171Y54164534D01*
X46560173Y54195749D01*
X46583539Y54226057D01*
X46608241Y54255415D01*
X46634257Y54283780D01*
X46661560Y54311109D01*
X46690126Y54337358D01*
X46713835Y54357521D01*
X46725365Y54366764D01*
X46738013Y54376493D01*
X46751386Y54386425D01*
X46765095Y54396279D01*
X46778747Y54405770D01*
X46791951Y54414617D01*
X46800770Y54420308D01*
X46834131Y54440461D01*
X46868167Y54459070D01*
X46902850Y54476123D01*
X46938149Y54491609D01*
X46974035Y54505517D01*
X47010478Y54517835D01*
X47047449Y54528553D01*
X47084919Y54537659D01*
X47122858Y54545142D01*
X47133493Y54546934D01*
X47147332Y54549080D01*
X47160877Y54550969D01*
X47174526Y54552646D01*
X47188678Y54554156D01*
X47203730Y54555545D01*
X47219870Y54556843D01*
X47221282Y54556886D01*
X47224356Y54556928D01*
X47229064Y54556969D01*
X47235374Y54557009D01*
X47243256Y54557049D01*
X47252681Y54557088D01*
X47263617Y54557126D01*
X47276035Y54557163D01*
X47289905Y54557199D01*
X47305196Y54557235D01*
X47321878Y54557270D01*
X47339921Y54557304D01*
X47359294Y54557338D01*
X47379967Y54557370D01*
X47401911Y54557402D01*
X47425094Y54557433D01*
X47449487Y54557464D01*
X47475060Y54557493D01*
X47501781Y54557522D01*
X47529622Y54557550D01*
X47558551Y54557578D01*
X47588538Y54557604D01*
X47619554Y54557630D01*
X47651568Y54557655D01*
X47684549Y54557679D01*
X47718468Y54557702D01*
X47753294Y54557725D01*
X47788997Y54557747D01*
X47825547Y54557768D01*
X47862914Y54557788D01*
X47901067Y54557808D01*
X47939976Y54557827D01*
X47979610Y54557845D01*
X48019941Y54557862D01*
X48060937Y54557879D01*
X48102568Y54557894D01*
X48144804Y54557909D01*
X48187614Y54557924D01*
X48230969Y54557937D01*
X48274839Y54557950D01*
X48319192Y54557962D01*
X48363999Y54557973D01*
X48409230Y54557983D01*
X48454854Y54557993D01*
X48500841Y54558002D01*
X48547160Y54558010D01*
X48593783Y54558017D01*
X48640678Y54558024D01*
X48687814Y54558029D01*
X48735163Y54558034D01*
X48782694Y54558039D01*
X48830375Y54558042D01*
X48878179Y54558045D01*
X48926073Y54558047D01*
X48974027Y54558048D01*
X49069998Y54558048D01*
X49117953Y54558047D01*
G37*
X49117953Y54558047D02*
X49165849Y54558045D01*
X49213654Y54558042D01*
X49261338Y54558039D01*
X49308871Y54558034D01*
X49356223Y54558029D01*
X49403364Y54558024D01*
X49450263Y54558017D01*
X49496890Y54558010D01*
X49543216Y54558002D01*
X49589209Y54557993D01*
X49634839Y54557983D01*
X49680077Y54557973D01*
X49724891Y54557962D01*
X49769252Y54557950D01*
X49813130Y54557937D01*
X49856495Y54557924D01*
X49899315Y54557910D01*
X49941561Y54557895D01*
X49983202Y54557879D01*
X50024209Y54557862D01*
X50064551Y54557845D01*
X50104198Y54557827D01*
X50143120Y54557808D01*
X50181286Y54557789D01*
X50218666Y54557768D01*
X50255231Y54557747D01*
X50290949Y54557725D01*
X50325790Y54557703D01*
X50359725Y54557679D01*
X50392722Y54557655D01*
X50424753Y54557630D01*
X50455786Y54557604D01*
X50485791Y54557578D01*
X50514739Y54557551D01*
X50542598Y54557523D01*
X50569339Y54557494D01*
X50594931Y54557464D01*
X50619345Y54557434D01*
X50642549Y54557403D01*
X50664514Y54557371D01*
X50685210Y54557338D01*
X50704606Y54557305D01*
X50722671Y54557271D01*
X50739377Y54557236D01*
X50754692Y54557200D01*
X50768586Y54557164D01*
X50781030Y54557126D01*
X50791992Y54557088D01*
X50801442Y54557050D01*
X50809352Y54557010D01*
X50815689Y54556970D01*
X50820424Y54556929D01*
X50823527Y54556887D01*
X50824967Y54556844D01*
X50824977Y54556843D01*
X50857921Y54553895D01*
X50889617Y54550099D01*
X50920310Y54545408D01*
X50950245Y54539774D01*
X50979665Y54533148D01*
X51008817Y54525483D01*
X51037945Y54516730D01*
X51050878Y54512501D01*
X51086884Y54499554D01*
X51122247Y54485058D01*
X51156916Y54469054D01*
X51190843Y54451577D01*
X51223977Y54432669D01*
X51256268Y54412365D01*
X51287666Y54390706D01*
X51318122Y54367728D01*
X51347585Y54343471D01*
X51376005Y54317972D01*
X51403333Y54291271D01*
X51429519Y54263405D01*
X51454512Y54234412D01*
X51478263Y54204331D01*
X51500721Y54173201D01*
X51508798Y54161267D01*
X51529785Y54128204D01*
X51549208Y54094507D01*
X51567059Y54060189D01*
X51583334Y54025266D01*
X51598026Y53989752D01*
X51611130Y53953661D01*
X51622639Y53917009D01*
X51632549Y53879810D01*
X51640853Y53842078D01*
X51646254Y53812034D01*
X51647747Y53802594D01*
X51649084Y53793589D01*
X51650301Y53784712D01*
X51651436Y53775653D01*
X51652525Y53766104D01*
X51653606Y53755758D01*
X51654716Y53744306D01*
X51655765Y53732853D01*
X51655824Y53732110D01*
X51655882Y53731213D01*
X51655939Y53730138D01*
X51655993Y53728860D01*
X51656046Y53727356D01*
X51656098Y53725601D01*
X51656148Y53723571D01*
X51656197Y53721241D01*
X51656244Y53718588D01*
X51656290Y53715586D01*
X51656334Y53712213D01*
X51656377Y53708443D01*
X51656419Y53704253D01*
X51656459Y53699617D01*
X51656498Y53694513D01*
X51656536Y53688915D01*
X51656572Y53682799D01*
X51656608Y53676141D01*
X51656642Y53668918D01*
X51656675Y53661103D01*
X51656707Y53652674D01*
X51656738Y53643606D01*
X51656768Y53633875D01*
X51656797Y53623457D01*
X51656824Y53612326D01*
X51656851Y53600460D01*
X51656877Y53587834D01*
X51656902Y53574423D01*
X51656927Y53560203D01*
X51656950Y53545150D01*
X51656973Y53529240D01*
X51656995Y53512449D01*
X51657016Y53494751D01*
X51657036Y53476124D01*
X51657056Y53456543D01*
X51657075Y53435983D01*
X51657093Y53414420D01*
X51657111Y53391830D01*
X51657128Y53368189D01*
X51657145Y53343472D01*
X51657161Y53317656D01*
X51657177Y53290716D01*
X51657192Y53262627D01*
X51657207Y53233366D01*
X51657221Y53202907D01*
X51657236Y53171228D01*
X51657249Y53138304D01*
X51657263Y53104110D01*
X51657276Y53068622D01*
X51657289Y53031816D01*
X51657302Y52993668D01*
X51657314Y52954153D01*
X51657327Y52913247D01*
X51657339Y52870926D01*
X51657351Y52827166D01*
X51657363Y52781943D01*
X51657375Y52735231D01*
X51657387Y52687007D01*
X51657399Y52637247D01*
X51657412Y52585927D01*
X51657424Y52533021D01*
X51657436Y52478506D01*
X51657449Y52422358D01*
X51657461Y52364552D01*
X51657467Y52336700D01*
X51657481Y52273043D01*
X51657493Y52211065D01*
X51657504Y52150753D01*
X51657514Y52092093D01*
X51657523Y52035071D01*
X51657531Y51979674D01*
X51657538Y51925886D01*
X51657543Y51873696D01*
X51657548Y51823088D01*
X51657551Y51774049D01*
X51657553Y51726565D01*
X51657554Y51680623D01*
X51657554Y51636208D01*
X51657552Y51593307D01*
X51657550Y51551906D01*
X51657546Y51511991D01*
X51657541Y51473548D01*
X51657535Y51436564D01*
X51657527Y51401024D01*
X51657519Y51366916D01*
X51657509Y51334224D01*
X51657498Y51302935D01*
X51657485Y51273036D01*
X51657472Y51244513D01*
X51657457Y51217351D01*
X51657441Y51191537D01*
X51657424Y51167058D01*
X51657405Y51143898D01*
X51657385Y51122045D01*
X51657364Y51101485D01*
X51657342Y51082204D01*
X51657318Y51064188D01*
X51657293Y51047423D01*
X51657267Y51031895D01*
X51657239Y51017591D01*
X51657210Y51004497D01*
X51657180Y50992599D01*
X51657148Y50981883D01*
X51657116Y50972335D01*
X51657081Y50963942D01*
X51657046Y50956690D01*
X51657009Y50950564D01*
X51656971Y50945552D01*
X51656931Y50941639D01*
X51656890Y50938811D01*
X51656847Y50937055D01*
X51656835Y50936737D01*
X51654133Y50897677D01*
X51649788Y50859001D01*
X51643806Y50820735D01*
X51636194Y50782903D01*
X51626961Y50745531D01*
X51616114Y50708644D01*
X51603661Y50672268D01*
X51589610Y50636427D01*
X51573967Y50601148D01*
X51556741Y50566455D01*
X51537940Y50532374D01*
X51531753Y50521870D01*
X51511333Y50489372D01*
X51489514Y50457797D01*
X51466347Y50427195D01*
X51441882Y50397614D01*
X51416170Y50369103D01*
X51389262Y50341710D01*
X51361207Y50315484D01*
X51332057Y50290474D01*
X51301862Y50266728D01*
X51270673Y50244295D01*
X51238540Y50223223D01*
X51205515Y50203562D01*
X51193700Y50196993D01*
X51159160Y50179089D01*
X51124061Y50162782D01*
X51088418Y50148077D01*
X51052242Y50134977D01*
X51015544Y50123486D01*
X50978338Y50113606D01*
X50940636Y50105342D01*
X50902449Y50098697D01*
X50863790Y50093674D01*
X50824672Y50090276D01*
X50814394Y50089658D01*
X50813040Y50089630D01*
X50810024Y50089603D01*
X50805375Y50089576D01*
X50799124Y50089550D01*
X50791301Y50089525D01*
X50781936Y50089500D01*
X50771060Y50089475D01*
X50758702Y50089451D01*
X50744894Y50089428D01*
X50729665Y50089405D01*
X50713045Y50089382D01*
X50695066Y50089360D01*
X50675756Y50089339D01*
X50655148Y50089318D01*
X50633270Y50089298D01*
X50610153Y50089278D01*
X50585827Y50089259D01*
X50560323Y50089240D01*
X50533671Y50089222D01*
X50505901Y50089205D01*
X50477044Y50089187D01*
X50447129Y50089171D01*
X50416187Y50089155D01*
X50384249Y50089139D01*
X50351344Y50089124D01*
X50317503Y50089110D01*
X50282756Y50089096D01*
X50247134Y50089082D01*
X50210666Y50089069D01*
X50173383Y50089057D01*
X50135315Y50089045D01*
X50096493Y50089034D01*
X50056947Y50089023D01*
X50016707Y50089012D01*
X49975803Y50089003D01*
X49934266Y50088993D01*
X49892126Y50088984D01*
X49849413Y50088976D01*
X49806158Y50088968D01*
X49762390Y50088961D01*
X49718141Y50088954D01*
X49673439Y50088948D01*
X49628317Y50088942D01*
X49582803Y50088937D01*
X49536928Y50088932D01*
X49490723Y50088928D01*
X49444218Y50088924D01*
X49397443Y50088921D01*
X49350427Y50088918D01*
X49303203Y50088916D01*
X49255799Y50088915D01*
X49208247Y50088913D01*
X49160576Y50088913D01*
X49112816Y50088912D01*
X49064999Y50088913D01*
X49017153Y50088914D01*
X48969311Y50088915D01*
X48921501Y50088917D01*
X48873754Y50088919D01*
X48826101Y50088922D01*
X48778571Y50088925D01*
X48731195Y50088929D01*
X48684004Y50088933D01*
X48637027Y50088938D01*
X48590294Y50088943D01*
X48543837Y50088949D01*
X48497685Y50088956D01*
X48451869Y50088962D01*
X48406418Y50088970D01*
X48361364Y50088977D01*
X48316736Y50088986D01*
X48272565Y50088994D01*
X48228881Y50089004D01*
X48185714Y50089013D01*
X48143095Y50089024D01*
X48101053Y50089034D01*
X48059620Y50089046D01*
X48018825Y50089057D01*
X47978699Y50089069D01*
X47939272Y50089082D01*
X47900574Y50089095D01*
X47862636Y50089109D01*
X47825487Y50089123D01*
X47789159Y50089138D01*
X47753681Y50089153D01*
X47719083Y50089168D01*
X47685397Y50089184D01*
X47652651Y50089201D01*
X47620878Y50089218D01*
X47590105Y50089235D01*
X47560365Y50089253D01*
X47531688Y50089272D01*
X47504103Y50089291D01*
X47477641Y50089310D01*
X47452332Y50089330D01*
X47428206Y50089350D01*
X47405294Y50089371D01*
X47383626Y50089392D01*
X47363233Y50089414D01*
X47344144Y50089436D01*
X47326390Y50089459D01*
X47310001Y50089482D01*
X47295007Y50089506D01*
X47281439Y50089530D01*
X47269327Y50089555D01*
X47258702Y50089580D01*
X47249593Y50089605D01*
X47242030Y50089631D01*
X47236045Y50089658D01*
X47231667Y50089685D01*
X47228927Y50089712D01*
X47227914Y50089735D01*
X47189177Y50092741D01*
X47150755Y50097402D01*
X47112694Y50103699D01*
X47075037Y50111618D01*
X47037830Y50121139D01*
X47001117Y50132247D01*
X46964943Y50144925D01*
X46929353Y50159154D01*
X46894391Y50174918D01*
X46860102Y50192201D01*
X46826532Y50210985D01*
X46793724Y50231252D01*
X46761723Y50252987D01*
X46730575Y50276171D01*
X46722793Y50282298D01*
X46693099Y50307019D01*
X46664550Y50332970D01*
X46637183Y50360102D01*
X46611032Y50388366D01*
X46586136Y50417713D01*
X46562531Y50448092D01*
X46540252Y50479456D01*
X46519337Y50511754D01*
X46499821Y50544937D01*
X46481742Y50578957D01*
X46465136Y50613764D01*
X46450038Y50649308D01*
X46448533Y50653103D01*
X46435166Y50689300D01*
X46423446Y50725849D01*
X46413364Y50762778D01*
X46404916Y50800115D01*
X46398096Y50837888D01*
X46392897Y50876125D01*
X46389314Y50914855D01*
X46388012Y50936737D01*
X46387970Y50938176D01*
X46387928Y50940682D01*
X46387888Y50944270D01*
X46387849Y50948953D01*
X46387812Y50954745D01*
X46387776Y50961660D01*
X46387742Y50969712D01*
X46387708Y50978913D01*
X46387676Y50989279D01*
X46387646Y51000823D01*
X46387616Y51013559D01*
X46387588Y51027501D01*
X46387562Y51042662D01*
X46387536Y51059057D01*
X46387512Y51076698D01*
X46387489Y51095601D01*
X46387468Y51115778D01*
X46387448Y51137244D01*
X46387429Y51160012D01*
X46387411Y51184096D01*
X46387395Y51209511D01*
X46387380Y51236269D01*
X46387366Y51264385D01*
X46387353Y51293872D01*
X46387341Y51324745D01*
X46387331Y51357017D01*
X46387322Y51390701D01*
X46387315Y51425812D01*
X46387308Y51462364D01*
X46387303Y51500371D01*
X46387298Y51539845D01*
X46387295Y51580801D01*
X46387294Y51623254D01*
X46387293Y51667215D01*
X46387294Y51712701D01*
X46387295Y51759723D01*
X46387298Y51808297D01*
X46387302Y51858435D01*
X46387308Y51910152D01*
X46387314Y51963462D01*
X46387321Y52018378D01*
X46387330Y52074914D01*
X46387340Y52133084D01*
X46387351Y52192901D01*
X46387363Y52254381D01*
X46387376Y52317535D01*
X46387380Y52336700D01*
X46387392Y52395296D01*
X46387405Y52452223D01*
X46387417Y52507506D01*
X46387430Y52561167D01*
X46387442Y52613233D01*
X46387454Y52663726D01*
X46387466Y52712671D01*
X46387478Y52760093D01*
X46387490Y52806016D01*
X46387502Y52850463D01*
X46387515Y52893460D01*
X46387527Y52935030D01*
X46387539Y52975198D01*
X46387552Y53013988D01*
X46387565Y53051424D01*
X46387578Y53087531D01*
X46387591Y53122332D01*
X46387605Y53155853D01*
X46387619Y53188116D01*
X46387633Y53219148D01*
X46387648Y53248970D01*
X46387663Y53277609D01*
X46387678Y53305088D01*
X46387694Y53331432D01*
X46387711Y53356664D01*
X46387728Y53380810D01*
X46387745Y53403893D01*
X46387763Y53425937D01*
X46387782Y53446967D01*
X46387802Y53467007D01*
X46387822Y53486081D01*
X46387842Y53504214D01*
X46387864Y53521430D01*
X46387886Y53537753D01*
X46387909Y53553207D01*
X46387933Y53567817D01*
X46387958Y53581606D01*
X46387983Y53594600D01*
X46388010Y53606822D01*
X46388037Y53618296D01*
X46388066Y53629047D01*
X46388095Y53639100D01*
X46388125Y53648478D01*
X46388157Y53657205D01*
X46388189Y53665306D01*
X46388223Y53672806D01*
X46388258Y53679727D01*
X46388294Y53686096D01*
X46388331Y53691935D01*
X46388370Y53697269D01*
X46388409Y53702123D01*
X46388450Y53706520D01*
X46388493Y53710485D01*
X46388536Y53714043D01*
X46388581Y53717217D01*
X46388628Y53720031D01*
X46388676Y53722510D01*
X46388725Y53724679D01*
X46388776Y53726561D01*
X46388828Y53728180D01*
X46388882Y53729562D01*
X46388938Y53730730D01*
X46388995Y53731708D01*
X46389054Y53732521D01*
X46389082Y53732853D01*
X46390249Y53745558D01*
X46391354Y53756881D01*
X46392434Y53767130D01*
X46393527Y53776613D01*
X46394668Y53785638D01*
X46395896Y53794515D01*
X46397248Y53803551D01*
X46398593Y53812034D01*
X46403516Y53838687D01*
X46990835Y53838687D01*
X46991076Y52731882D01*
X46991087Y52679557D01*
X46991098Y52628898D01*
X46991109Y52579878D01*
X46991121Y52532469D01*
X46991132Y52486645D01*
X46991143Y52442377D01*
X46991154Y52399639D01*
X46991165Y52358403D01*
X46991176Y52318643D01*
X46991187Y52280330D01*
X46991199Y52243437D01*
X46991211Y52207938D01*
X46991223Y52173805D01*
X46991235Y52141010D01*
X46991248Y52109526D01*
X46991262Y52079327D01*
X46991275Y52050384D01*
X46991289Y52022671D01*
X46991304Y51996160D01*
X46991319Y51970824D01*
X46991335Y51946635D01*
X46991352Y51923567D01*
X46991369Y51901591D01*
X46991387Y51880682D01*
X46991406Y51860811D01*
X46991425Y51841951D01*
X46991446Y51824074D01*
X46991467Y51807155D01*
X46991489Y51791165D01*
X46991513Y51776076D01*
X46991537Y51761863D01*
X46991562Y51748496D01*
X46991589Y51735950D01*
X46991616Y51724197D01*
X46991645Y51713210D01*
X46991675Y51702960D01*
X46991707Y51693422D01*
X46991739Y51684567D01*
X46991773Y51676369D01*
X46991809Y51668800D01*
X46991845Y51661833D01*
X46991884Y51655440D01*
X46991923Y51649595D01*
X46991965Y51644269D01*
X46992008Y51639436D01*
X46992052Y51635069D01*
X46992099Y51631140D01*
X46992147Y51627621D01*
X46992196Y51624486D01*
X46992248Y51621708D01*
X46992302Y51619258D01*
X46992357Y51617110D01*
X46992414Y51615237D01*
X46992473Y51613610D01*
X46992535Y51612203D01*
X46992598Y51610989D01*
X46992663Y51609940D01*
X46992731Y51609029D01*
X46992770Y51608567D01*
X46995559Y51580464D01*
X46998879Y51553693D01*
X47002787Y51527962D01*
X47007339Y51502979D01*
X47012589Y51478449D01*
X47018595Y51454081D01*
X47025411Y51429582D01*
X47029524Y51415950D01*
X47038772Y51387999D01*
X47049289Y51359655D01*
X47060893Y51331347D01*
X47073403Y51303500D01*
X47086636Y51276544D01*
X47097142Y51256777D01*
X47116182Y51223951D01*
X47136640Y51192021D01*
X47158469Y51161034D01*
X47181622Y51131037D01*
X47206051Y51102077D01*
X47231709Y51074201D01*
X47258550Y51047456D01*
X47286526Y51021890D01*
X47315589Y50997549D01*
X47345692Y50974480D01*
X47376789Y50952732D01*
X47408832Y50932350D01*
X47440618Y50914015D01*
X47473729Y50896797D01*
X47507633Y50881026D01*
X47542237Y50866729D01*
X47577447Y50853934D01*
X47613169Y50842667D01*
X47649311Y50832956D01*
X47685779Y50824828D01*
X47722479Y50818310D01*
X47759317Y50813430D01*
X47796201Y50810215D01*
X47796874Y50810172D01*
X47801976Y50809848D01*
X47806865Y50809536D01*
X47811124Y50809264D01*
X47814337Y50809057D01*
X47815500Y50808982D01*
X47816924Y50808946D01*
X47819979Y50808913D01*
X47824604Y50808884D01*
X47830737Y50808858D01*
X47838316Y50808836D01*
X47847280Y50808818D01*
X47857566Y50808802D01*
X47869113Y50808790D01*
X47881859Y50808781D01*
X47895742Y50808774D01*
X47910701Y50808771D01*
X47926674Y50808771D01*
X47943598Y50808773D01*
X47961413Y50808778D01*
X47980056Y50808786D01*
X47999465Y50808796D01*
X48019579Y50808808D01*
X48040337Y50808823D01*
X48061675Y50808840D01*
X48083533Y50808859D01*
X48105849Y50808881D01*
X48128561Y50808904D01*
X48151606Y50808929D01*
X48174924Y50808956D01*
X48198453Y50808985D01*
X48222130Y50809015D01*
X48245894Y50809047D01*
X48269683Y50809080D01*
X48293436Y50809115D01*
X48317090Y50809151D01*
X48340584Y50809188D01*
X48363856Y50809227D01*
X48386845Y50809266D01*
X48409488Y50809306D01*
X48431723Y50809348D01*
X48453490Y50809390D01*
X48474725Y50809432D01*
X48495368Y50809476D01*
X48515356Y50809519D01*
X48534629Y50809564D01*
X48553123Y50809608D01*
X48570777Y50809653D01*
X48587530Y50809698D01*
X48603319Y50809743D01*
X48618084Y50809789D01*
X48631761Y50809834D01*
X48644290Y50809879D01*
X48655608Y50809923D01*
X48665654Y50809968D01*
X48674365Y50810012D01*
X48681681Y50810055D01*
X48687540Y50810098D01*
X48691878Y50810140D01*
X48694636Y50810182D01*
X48695378Y50810201D01*
X48721036Y50811595D01*
X48745688Y50813923D01*
X48765460Y50816587D01*
X48796264Y50822197D01*
X48826571Y50829407D01*
X48856328Y50838184D01*
X48885481Y50848493D01*
X48913979Y50860301D01*
X48941767Y50873574D01*
X48968792Y50888279D01*
X48995002Y50904380D01*
X49020343Y50921845D01*
X49044762Y50940640D01*
X49068207Y50960731D01*
X49090623Y50982083D01*
X49111959Y51004664D01*
X49132160Y51028439D01*
X49151173Y51053374D01*
X49162359Y51069427D01*
X49179127Y51095865D01*
X49194451Y51123157D01*
X49208293Y51151221D01*
X49220616Y51179974D01*
X49231385Y51209334D01*
X49240562Y51239221D01*
X49243428Y51249935D01*
X49247879Y51268327D01*
X49251654Y51286370D01*
X49254820Y51304487D01*
X49257447Y51323102D01*
X49259603Y51342637D01*
X49260936Y51357953D01*
X49261039Y51360127D01*
X49261137Y51363920D01*
X49261230Y51369259D01*
X49261319Y51376069D01*
X49261403Y51384276D01*
X49261483Y51393807D01*
X49261558Y51404587D01*
X49261629Y51416543D01*
X49261695Y51429601D01*
X49261756Y51443686D01*
X49261813Y51458725D01*
X49261865Y51474644D01*
X49261912Y51491368D01*
X49261955Y51508824D01*
X49261994Y51526938D01*
X49262027Y51545636D01*
X49262057Y51564844D01*
X49262081Y51584487D01*
X49262101Y51604493D01*
X49262117Y51624787D01*
X49262128Y51645294D01*
X49262134Y51665942D01*
X49262135Y51686656D01*
X49262132Y51707362D01*
X49262125Y51727986D01*
X49262113Y51748454D01*
X49262096Y51768693D01*
X49262075Y51788628D01*
X49262049Y51808185D01*
X49262018Y51827290D01*
X49261983Y51845870D01*
X49261943Y51863850D01*
X49261899Y51881157D01*
X49261850Y51897716D01*
X49261796Y51913454D01*
X49261738Y51928296D01*
X49261676Y51942169D01*
X49261608Y51954999D01*
X49261536Y51966711D01*
X49261460Y51977232D01*
X49261379Y51986487D01*
X49261293Y51994404D01*
X49261202Y52000907D01*
X49261107Y52005923D01*
X49261008Y52009378D01*
X49260942Y52010733D01*
X49258524Y52041372D01*
X49255394Y52070623D01*
X49251531Y52098646D01*
X49246914Y52125600D01*
X49243095Y52144507D01*
X49234162Y52182031D01*
X49223670Y52218901D01*
X49211624Y52255101D01*
X49198033Y52290616D01*
X49182905Y52325432D01*
X49166247Y52359532D01*
X49148067Y52392902D01*
X49128372Y52425527D01*
X49107169Y52457391D01*
X49084468Y52488480D01*
X49060274Y52518778D01*
X49046948Y52534397D01*
X49042173Y52539731D01*
X49036355Y52546002D01*
X49029701Y52553003D01*
X49022418Y52560528D01*
X49014712Y52568370D01*
X49006790Y52576323D01*
X48998858Y52584180D01*
X48991124Y52591735D01*
X48983792Y52598780D01*
X48977071Y52605110D01*
X48971166Y52610517D01*
X48968237Y52613115D01*
X48938365Y52638101D01*
X48907709Y52661589D01*
X48876290Y52683570D01*
X48844132Y52704036D01*
X48811257Y52722976D01*
X48777688Y52740382D01*
X48743448Y52756245D01*
X48708560Y52770554D01*
X48673046Y52783302D01*
X48636930Y52794479D01*
X48600233Y52804075D01*
X48562979Y52812082D01*
X48525191Y52818490D01*
X48486891Y52823290D01*
X48448101Y52826473D01*
X48439494Y52826956D01*
X48437318Y52827022D01*
X48433522Y52827084D01*
X48428181Y52827141D01*
X48421366Y52827193D01*
X48413151Y52827241D01*
X48403611Y52827285D01*
X48392817Y52827324D01*
X48380845Y52827358D01*
X48367767Y52827388D01*
X48353656Y52827414D01*
X48338586Y52827436D01*
X48322632Y52827454D01*
X48305865Y52827467D01*
X48288359Y52827477D01*
X48270188Y52827482D01*
X48251426Y52827484D01*
X48232145Y52827482D01*
X48212420Y52827476D01*
X48192323Y52827467D01*
X48171929Y52827454D01*
X48151310Y52827437D01*
X48130539Y52827417D01*
X48109692Y52827394D01*
X48088840Y52827367D01*
X48068057Y52827337D01*
X48047417Y52827304D01*
X48026994Y52827267D01*
X48006860Y52827228D01*
X47987089Y52827185D01*
X47967754Y52827140D01*
X47948930Y52827091D01*
X47930689Y52827040D01*
X47913105Y52826986D01*
X47896251Y52826930D01*
X47880201Y52826870D01*
X47865028Y52826809D01*
X47850805Y52826744D01*
X47837607Y52826678D01*
X47825506Y52826609D01*
X47814576Y52826537D01*
X47804891Y52826463D01*
X47796523Y52826388D01*
X47796239Y52826385D01*
X47745227Y52825871D01*
X47745227Y52324661D01*
X47861009Y52325183D01*
X47873202Y52325235D01*
X47886948Y52325287D01*
X47902104Y52325340D01*
X47918532Y52325392D01*
X47936088Y52325444D01*
X47954632Y52325495D01*
X47974024Y52325545D01*
X47994121Y52325594D01*
X48014784Y52325641D01*
X48035871Y52325686D01*
X48057240Y52325728D01*
X48078751Y52325768D01*
X48100264Y52325805D01*
X48121636Y52325838D01*
X48142727Y52325868D01*
X48163395Y52325894D01*
X48179567Y52325911D01*
X48201671Y52325934D01*
X48222152Y52325955D01*
X48241080Y52325973D01*
X48258524Y52325987D01*
X48274555Y52325996D01*
X48289243Y52325999D01*
X48302657Y52325994D01*
X48314868Y52325981D01*
X48325946Y52325958D01*
X48335960Y52325925D01*
X48344981Y52325880D01*
X48353078Y52325822D01*
X48360323Y52325750D01*
X48366784Y52325663D01*
X48372531Y52325559D01*
X48377635Y52325439D01*
X48382166Y52325300D01*
X48386194Y52325141D01*
X48389788Y52324962D01*
X48393019Y52324761D01*
X48395956Y52324537D01*
X48398670Y52324289D01*
X48401231Y52324016D01*
X48403709Y52323717D01*
X48406173Y52323391D01*
X48408693Y52323036D01*
X48411341Y52322652D01*
X48414185Y52322237D01*
X48414517Y52322189D01*
X48439848Y52317673D01*
X48464705Y52311562D01*
X48489023Y52303904D01*
X48512735Y52294747D01*
X48535776Y52284140D01*
X48558081Y52272131D01*
X48579584Y52258768D01*
X48600219Y52244100D01*
X48619921Y52228174D01*
X48638625Y52211039D01*
X48656264Y52192742D01*
X48672774Y52173333D01*
X48688089Y52152860D01*
X48702142Y52131370D01*
X48714870Y52108912D01*
X48721037Y52096670D01*
X48731376Y52073558D01*
X48740137Y52050281D01*
X48747365Y52026666D01*
X48753109Y52002542D01*
X48757415Y51977734D01*
X48760330Y51952069D01*
X48760345Y51951890D01*
X48760441Y51949883D01*
X48760532Y51946197D01*
X48760617Y51940846D01*
X48760697Y51933844D01*
X48760771Y51925206D01*
X48760839Y51914946D01*
X48760902Y51903077D01*
X48760958Y51889614D01*
X48761009Y51874572D01*
X48761055Y51857965D01*
X48761094Y51839806D01*
X48761127Y51820110D01*
X48761154Y51798891D01*
X48761176Y51776163D01*
X48761191Y51751941D01*
X48761200Y51726239D01*
X48761203Y51699071D01*
X48761203Y51697043D01*
X48761202Y51672574D01*
X48761202Y51649737D01*
X48761201Y51628474D01*
X48761199Y51608725D01*
X48761194Y51590429D01*
X48761185Y51573527D01*
X48761172Y51557958D01*
X48761153Y51543663D01*
X48761128Y51530582D01*
X48761096Y51518655D01*
X48761056Y51507822D01*
X48761006Y51498022D01*
X48760946Y51489197D01*
X48760875Y51481286D01*
X48760793Y51474229D01*
X48760697Y51467966D01*
X48760588Y51462438D01*
X48760464Y51457584D01*
X48760324Y51453344D01*
X48760167Y51449659D01*
X48759993Y51446468D01*
X48759801Y51443712D01*
X48759589Y51441330D01*
X48759357Y51439264D01*
X48759103Y51437452D01*
X48758827Y51435834D01*
X48758528Y51434352D01*
X48758205Y51432944D01*
X48757857Y51431552D01*
X48757483Y51430114D01*
X48757082Y51428572D01*
X48757015Y51428310D01*
X48752228Y51412885D01*
X48745982Y51398222D01*
X48738362Y51384405D01*
X48729452Y51371514D01*
X48719339Y51359631D01*
X48708105Y51348839D01*
X48695837Y51339219D01*
X48682620Y51330852D01*
X48668538Y51323821D01*
X48653676Y51318207D01*
X48638460Y51314164D01*
X48635821Y51313626D01*
X48633312Y51313180D01*
X48630719Y51312815D01*
X48627833Y51312515D01*
X48624441Y51312267D01*
X48620334Y51312056D01*
X48615298Y51311870D01*
X48609124Y51311695D01*
X48601600Y51311516D01*
X48596127Y51311396D01*
X48591963Y51311324D01*
X48586280Y51311253D01*
X48579146Y51311183D01*
X48570630Y51311115D01*
X48560800Y51311047D01*
X48549726Y51310981D01*
X48537475Y51310916D01*
X48524117Y51310853D01*
X48509720Y51310791D01*
X48494353Y51310731D01*
X48478084Y51310673D01*
X48460983Y51310616D01*
X48443117Y51310561D01*
X48424556Y51310509D01*
X48405368Y51310458D01*
X48385622Y51310410D01*
X48365386Y51310364D01*
X48344730Y51310320D01*
X48323721Y51310278D01*
X48302429Y51310239D01*
X48280923Y51310203D01*
X48259270Y51310170D01*
X48237539Y51310139D01*
X48215800Y51310111D01*
X48194121Y51310085D01*
X48172570Y51310063D01*
X48151217Y51310044D01*
X48130129Y51310029D01*
X48109376Y51310016D01*
X48089026Y51310007D01*
X48069148Y51310001D01*
X48049811Y51309999D01*
X48031083Y51310000D01*
X48013033Y51310005D01*
X47995729Y51310014D01*
X47979241Y51310027D01*
X47963636Y51310044D01*
X47948984Y51310064D01*
X47935353Y51310089D01*
X47922813Y51310118D01*
X47911430Y51310151D01*
X47901275Y51310189D01*
X47892416Y51310231D01*
X47884922Y51310278D01*
X47878861Y51310329D01*
X47874302Y51310385D01*
X47871313Y51310446D01*
X47870110Y51310497D01*
X47843497Y51313373D01*
X47817459Y51317842D01*
X47792009Y51323896D01*
X47767163Y51331531D01*
X47742935Y51340741D01*
X47719338Y51351519D01*
X47696388Y51363860D01*
X47674100Y51377759D01*
X47652486Y51393209D01*
X47638124Y51404646D01*
X47633559Y51408589D01*
X47628153Y51413506D01*
X47622195Y51419111D01*
X47615976Y51425121D01*
X47609788Y51431250D01*
X47603920Y51437214D01*
X47598665Y51442728D01*
X47594312Y51447507D01*
X47594143Y51447700D01*
X47577598Y51467789D01*
X47562365Y51488856D01*
X47548507Y51510793D01*
X47536086Y51533488D01*
X47525167Y51556834D01*
X47515811Y51580721D01*
X47513343Y51587903D01*
X47506241Y51611640D01*
X47500651Y51635680D01*
X47496523Y51660269D01*
X47494181Y51681159D01*
X47494120Y51681990D01*
X47494061Y51683107D01*
X47494004Y51684534D01*
X47493950Y51686300D01*
X47493897Y51688431D01*
X47493845Y51690954D01*
X47493796Y51693896D01*
X47493748Y51697283D01*
X47493702Y51701144D01*
X47493658Y51705503D01*
X47493616Y51710390D01*
X47493575Y51715829D01*
X47493535Y51721849D01*
X47493498Y51728477D01*
X47493461Y51735738D01*
X47493427Y51743660D01*
X47493394Y51752271D01*
X47493362Y51761596D01*
X47493332Y51771662D01*
X47493303Y51782498D01*
X47493275Y51794128D01*
X47493249Y51806582D01*
X47493224Y51819884D01*
X47493200Y51834063D01*
X47493178Y51849145D01*
X47493157Y51865157D01*
X47493137Y51882125D01*
X47493118Y51900078D01*
X47493100Y51919041D01*
X47493083Y51939042D01*
X47493067Y51960108D01*
X47493053Y51982264D01*
X47493039Y52005539D01*
X47493026Y52029960D01*
X47493015Y52055552D01*
X47493004Y52082344D01*
X47492994Y52110361D01*
X47492984Y52139631D01*
X47492976Y52170181D01*
X47492968Y52202037D01*
X47492961Y52235228D01*
X47492955Y52269778D01*
X47492950Y52305716D01*
X47492945Y52343068D01*
X47492940Y52381861D01*
X47492937Y52422122D01*
X47492934Y52463878D01*
X47492931Y52507156D01*
X47492929Y52551982D01*
X47492927Y52598385D01*
X47492926Y52646389D01*
X47492925Y52696023D01*
X47492925Y52747314D01*
X47492924Y52767018D01*
X47492920Y53838687D01*
X48765460Y53838687D01*
X48765460Y52910068D01*
X48779642Y52904395D01*
X48803725Y52894315D01*
X48828486Y52883094D01*
X48853547Y52870921D01*
X48878535Y52857982D01*
X48903074Y52844465D01*
X48923364Y52832623D01*
X48957379Y52811247D01*
X48990638Y52788403D01*
X49023065Y52764164D01*
X49054586Y52738601D01*
X49085129Y52711785D01*
X49114619Y52683789D01*
X49142982Y52654683D01*
X49170145Y52624540D01*
X49196033Y52593430D01*
X49220574Y52561427D01*
X49243692Y52528600D01*
X49255833Y52510129D01*
X49258692Y52505700D01*
X49261238Y52501819D01*
X49263334Y52498689D01*
X49264841Y52496515D01*
X49265624Y52495500D01*
X49265700Y52495454D01*
X49265713Y52496308D01*
X49265725Y52498815D01*
X49265735Y52502935D01*
X49265743Y52508628D01*
X49265750Y52515852D01*
X49265755Y52524569D01*
X49265759Y52534737D01*
X49265760Y52546317D01*
X49265761Y52559268D01*
X49265760Y52567777D01*
X49390656Y52567777D01*
X49391821Y52538972D01*
X49394628Y52510281D01*
X49399063Y52481785D01*
X49405111Y52453566D01*
X49412756Y52425705D01*
X49421984Y52398285D01*
X49432779Y52371386D01*
X49445127Y52345090D01*
X49445302Y52344743D01*
X49459212Y52319127D01*
X49474542Y52294408D01*
X49491240Y52270643D01*
X49509257Y52247888D01*
X49528542Y52226198D01*
X49549045Y52205632D01*
X49570716Y52186244D01*
X49593504Y52168090D01*
X49617359Y52151228D01*
X49620170Y52149373D01*
X49645047Y52134079D01*
X49670644Y52120315D01*
X49696943Y52108088D01*
X49723926Y52097404D01*
X49751574Y52088268D01*
X49779871Y52080688D01*
X49808797Y52074670D01*
X49838336Y52070219D01*
X49853004Y52068615D01*
X49859384Y52068122D01*
X49867084Y52067722D01*
X49875773Y52067418D01*
X49885121Y52067211D01*
X49894799Y52067103D01*
X49904476Y52067095D01*
X49913823Y52067190D01*
X49922509Y52067388D01*
X49930206Y52067693D01*
X49936582Y52068105D01*
X49937247Y52068162D01*
X49963443Y52071068D01*
X49988672Y52075077D01*
X50013315Y52080267D01*
X50037754Y52086717D01*
X50057474Y52092857D01*
X50085007Y52102855D01*
X50111654Y52114289D01*
X50137437Y52127170D01*
X50162374Y52141510D01*
X50186485Y52157323D01*
X50209791Y52174619D01*
X50232311Y52193411D01*
X50252097Y52211782D01*
X50259713Y52219378D01*
X50267143Y52227152D01*
X50274587Y52235329D01*
X50282243Y52244137D01*
X50290310Y52253801D01*
X50298988Y52264548D01*
X50303776Y52270600D01*
X50306059Y52273503D01*
X50312788Y52269839D01*
X50336174Y52256179D01*
X50358379Y52241323D01*
X50379387Y52225286D01*
X50399179Y52208086D01*
X50417738Y52189739D01*
X50435047Y52170263D01*
X50451088Y52149674D01*
X50465844Y52127989D01*
X50475318Y52112308D01*
X50487205Y52090162D01*
X50497531Y52067778D01*
X50506329Y52045034D01*
X50513638Y52021804D01*
X50519493Y51997965D01*
X50523931Y51973394D01*
X50526987Y51947966D01*
X50528213Y51931570D01*
X50528273Y51929677D01*
X50528331Y51926106D01*
X50528387Y51920870D01*
X50528441Y51913985D01*
X50528493Y51905465D01*
X50528542Y51895325D01*
X50528590Y51883580D01*
X50528635Y51870243D01*
X50528678Y51855330D01*
X50528719Y51838855D01*
X50528758Y51820833D01*
X50528795Y51801279D01*
X50528829Y51780207D01*
X50528861Y51757632D01*
X50528890Y51733568D01*
X50528918Y51708030D01*
X50528943Y51681032D01*
X50528965Y51652590D01*
X50528986Y51622718D01*
X50529003Y51591430D01*
X50529019Y51558742D01*
X50529032Y51524667D01*
X50529042Y51489221D01*
X50529050Y51452417D01*
X50529055Y51414271D01*
X50529058Y51374798D01*
X50529059Y51359435D01*
X50529067Y50801693D01*
X51029447Y50801693D01*
X51029446Y51393725D01*
X51029444Y51436828D01*
X51029440Y51478410D01*
X51029434Y51518464D01*
X51029425Y51556985D01*
X51029414Y51593964D01*
X51029400Y51629396D01*
X51029384Y51663273D01*
X51029365Y51695590D01*
X51029344Y51726338D01*
X51029320Y51755511D01*
X51029294Y51783103D01*
X51029266Y51809107D01*
X51029235Y51833515D01*
X51029202Y51856322D01*
X51029166Y51877520D01*
X51029128Y51897103D01*
X51029088Y51915064D01*
X51029045Y51931396D01*
X51029000Y51946092D01*
X51028952Y51959146D01*
X51028903Y51970551D01*
X51028850Y51980300D01*
X51028796Y51988386D01*
X51028739Y51994803D01*
X51028680Y51999543D01*
X51028619Y52002601D01*
X51028586Y52003537D01*
X51025896Y52041951D01*
X51021566Y52079990D01*
X51015616Y52117613D01*
X51008066Y52154778D01*
X50998936Y52191444D01*
X50988246Y52227570D01*
X50976015Y52263115D01*
X50962264Y52298037D01*
X50947013Y52332295D01*
X50930282Y52365849D01*
X50912090Y52398656D01*
X50892457Y52430675D01*
X50871404Y52461866D01*
X50848950Y52492187D01*
X50825116Y52521597D01*
X50799920Y52550054D01*
X50773384Y52577518D01*
X50745527Y52603947D01*
X50732690Y52615383D01*
X50705742Y52637917D01*
X50677549Y52659551D01*
X50648314Y52680154D01*
X50618241Y52699594D01*
X50587533Y52717741D01*
X50556392Y52734463D01*
X50525023Y52749631D01*
X50523362Y52750387D01*
X50497052Y52761780D01*
X50469989Y52772451D01*
X50442511Y52782287D01*
X50414961Y52791174D01*
X50387677Y52798996D01*
X50361001Y52805642D01*
X50352960Y52807434D01*
X50350098Y52808068D01*
X50347754Y52808613D01*
X50346829Y52808846D01*
X50345857Y52809743D01*
X50344349Y52811898D01*
X50342482Y52815031D01*
X50340596Y52818551D01*
X50333434Y52831634D01*
X50325023Y52845392D01*
X50315540Y52859586D01*
X50305164Y52873978D01*
X50294070Y52888329D01*
X50282436Y52902401D01*
X50270439Y52915955D01*
X50260252Y52926724D01*
X50238978Y52947313D01*
X50216755Y52966516D01*
X50193614Y52984311D01*
X50169588Y53000679D01*
X50144711Y53015598D01*
X50119015Y53029047D01*
X50092533Y53041007D01*
X50065297Y53051457D01*
X50057464Y53054135D01*
X50029654Y53062514D01*
X50001579Y53069248D01*
X49973308Y53074349D01*
X49944911Y53077827D01*
X49916458Y53079695D01*
X49888017Y53079964D01*
X49859659Y53078643D01*
X49831452Y53075746D01*
X49803466Y53071283D01*
X49775770Y53065265D01*
X49748433Y53057703D01*
X49721526Y53048610D01*
X49695117Y53037995D01*
X49669276Y53025870D01*
X49644071Y53012247D01*
X49619574Y52997137D01*
X49595852Y52980551D01*
X49593924Y52979110D01*
X49585275Y52972506D01*
X49577333Y52966180D01*
X49569784Y52959858D01*
X49562317Y52953265D01*
X49554619Y52946128D01*
X49546377Y52938172D01*
X49539689Y52931541D01*
X49528425Y52920049D01*
X49518286Y52909199D01*
X49509006Y52898668D01*
X49500320Y52888133D01*
X49491961Y52877270D01*
X49483664Y52865757D01*
X49475163Y52853270D01*
X49474533Y52852320D01*
X49459070Y52827454D01*
X49445140Y52801877D01*
X49432755Y52775625D01*
X49421929Y52748737D01*
X49412675Y52721249D01*
X49405007Y52693199D01*
X49398938Y52664625D01*
X49394481Y52635563D01*
X49393317Y52625401D01*
X49391150Y52596613D01*
X49390656Y52567777D01*
X49265760Y52567777D01*
X49265759Y52573550D01*
X49265757Y52589122D01*
X49265752Y52605945D01*
X49265747Y52623978D01*
X49265739Y52643180D01*
X49265731Y52663512D01*
X49265721Y52684934D01*
X49265709Y52707404D01*
X49265696Y52730883D01*
X49265682Y52755330D01*
X49265666Y52780706D01*
X49265650Y52806969D01*
X49265631Y52834080D01*
X49265612Y52861998D01*
X49265591Y52890684D01*
X49265569Y52920096D01*
X49265546Y52950195D01*
X49265521Y52980940D01*
X49265496Y53012291D01*
X49265469Y53044207D01*
X49265441Y53076649D01*
X49265412Y53109576D01*
X49265382Y53142948D01*
X49265360Y53167210D01*
X49264741Y53835303D01*
X50529067Y53835303D01*
X50529087Y53371540D01*
X50529108Y52907777D01*
X50544962Y52901557D01*
X50577771Y52887897D01*
X50610610Y52872671D01*
X50643292Y52855995D01*
X50675627Y52837981D01*
X50707427Y52818743D01*
X50738502Y52798396D01*
X50768665Y52777053D01*
X50797726Y52754829D01*
X50823707Y52733376D01*
X50847047Y52712705D01*
X50870239Y52690894D01*
X50892893Y52668329D01*
X50914619Y52645397D01*
X50932492Y52625413D01*
X50945304Y52610316D01*
X50958338Y52594280D01*
X50971357Y52577622D01*
X50984125Y52560658D01*
X50996406Y52543705D01*
X51007964Y52527078D01*
X51018563Y52511094D01*
X51022674Y52504647D01*
X51025263Y52500554D01*
X51027527Y52497020D01*
X51029319Y52494270D01*
X51030493Y52492527D01*
X51030901Y52492007D01*
X51030910Y52492854D01*
X51030920Y52495354D01*
X51030929Y52499467D01*
X51030939Y52505153D01*
X51030948Y52512370D01*
X51030958Y52521080D01*
X51030968Y52531242D01*
X51030977Y52542815D01*
X51030987Y52555759D01*
X51030996Y52570034D01*
X51031006Y52585600D01*
X51031015Y52602417D01*
X51031025Y52620443D01*
X51031034Y52639639D01*
X51031043Y52659965D01*
X51031052Y52681381D01*
X51031061Y52703845D01*
X51031070Y52727318D01*
X51031079Y52751760D01*
X51031087Y52777130D01*
X51031095Y52803388D01*
X51031103Y52830494D01*
X51031111Y52858407D01*
X51031118Y52887088D01*
X51031125Y52916495D01*
X51031132Y52946590D01*
X51031139Y52977330D01*
X51031145Y53008677D01*
X51031151Y53040590D01*
X51031156Y53073028D01*
X51031161Y53105952D01*
X51031166Y53139321D01*
X51031169Y53163513D01*
X51031254Y53834877D01*
X50780160Y53835090D01*
X50529067Y53835303D01*
X49264741Y53835303D01*
X49264737Y53838687D01*
X48765460Y53838687D01*
X47492920Y53838687D01*
X46990835Y53838687D01*
X46403516Y53838687D01*
X46405594Y53849937D01*
X46414208Y53887366D01*
X46424409Y53924277D01*
X46436173Y53960628D01*
X46449475Y53996374D01*
X46464289Y54031474D01*
X46480590Y54065883D01*
X46498355Y54099558D01*
X46517556Y54132456D01*
X46538171Y54164534D01*
X46560173Y54195749D01*
X46583539Y54226057D01*
X46608241Y54255415D01*
X46634257Y54283780D01*
X46661560Y54311109D01*
X46690126Y54337358D01*
X46713835Y54357521D01*
X46725365Y54366764D01*
X46738013Y54376493D01*
X46751386Y54386425D01*
X46765095Y54396279D01*
X46778747Y54405770D01*
X46791951Y54414617D01*
X46800770Y54420308D01*
X46834131Y54440461D01*
X46868167Y54459070D01*
X46902850Y54476123D01*
X46938149Y54491609D01*
X46974035Y54505517D01*
X47010478Y54517835D01*
X47047449Y54528553D01*
X47084919Y54537659D01*
X47122858Y54545142D01*
X47133493Y54546934D01*
X47147332Y54549080D01*
X47160877Y54550969D01*
X47174526Y54552646D01*
X47188678Y54554156D01*
X47203730Y54555545D01*
X47219870Y54556843D01*
X47221282Y54556886D01*
X47224356Y54556928D01*
X47229064Y54556969D01*
X47235374Y54557009D01*
X47243256Y54557049D01*
X47252681Y54557088D01*
X47263617Y54557126D01*
X47276035Y54557163D01*
X47289905Y54557199D01*
X47305196Y54557235D01*
X47321878Y54557270D01*
X47339921Y54557304D01*
X47359294Y54557338D01*
X47379967Y54557370D01*
X47401911Y54557402D01*
X47425094Y54557433D01*
X47449487Y54557464D01*
X47475060Y54557493D01*
X47501781Y54557522D01*
X47529622Y54557550D01*
X47558551Y54557578D01*
X47588538Y54557604D01*
X47619554Y54557630D01*
X47651568Y54557655D01*
X47684549Y54557679D01*
X47718468Y54557702D01*
X47753294Y54557725D01*
X47788997Y54557747D01*
X47825547Y54557768D01*
X47862914Y54557788D01*
X47901067Y54557808D01*
X47939976Y54557827D01*
X47979610Y54557845D01*
X48019941Y54557862D01*
X48060937Y54557879D01*
X48102568Y54557894D01*
X48144804Y54557909D01*
X48187614Y54557924D01*
X48230969Y54557937D01*
X48274839Y54557950D01*
X48319192Y54557962D01*
X48363999Y54557973D01*
X48409230Y54557983D01*
X48454854Y54557993D01*
X48500841Y54558002D01*
X48547160Y54558010D01*
X48593783Y54558017D01*
X48640678Y54558024D01*
X48687814Y54558029D01*
X48735163Y54558034D01*
X48782694Y54558039D01*
X48830375Y54558042D01*
X48878179Y54558045D01*
X48926073Y54558047D01*
X48974027Y54558048D01*
X49069998Y54558048D01*
X49117953Y54558047D01*
G36*
X49906529Y52824719D02*
G01*
X49914368Y52824490D01*
X49921427Y52824056D01*
X49928157Y52823376D01*
X49935014Y52822407D01*
X49942451Y52821108D01*
X49947445Y52820139D01*
X49967066Y52815375D01*
X49986104Y52809064D01*
X50004482Y52801273D01*
X50022123Y52792071D01*
X50038949Y52781527D01*
X50054882Y52769710D01*
X50069846Y52756686D01*
X50083764Y52742526D01*
X50096556Y52727298D01*
X50108147Y52711069D01*
X50118459Y52693909D01*
X50127413Y52675886D01*
X50134934Y52657069D01*
X50136297Y52653104D01*
X50141838Y52633884D01*
X50145810Y52614151D01*
X50148201Y52594053D01*
X50149000Y52573737D01*
X50148196Y52553353D01*
X50145777Y52533049D01*
X50145443Y52531010D01*
X50141304Y52511418D01*
X50135549Y52492110D01*
X50128251Y52473251D01*
X50119483Y52455002D01*
X50109319Y52437530D01*
X50097832Y52420995D01*
X50094173Y52416287D01*
X50090217Y52411580D01*
X50085301Y52406128D01*
X50079763Y52400275D01*
X50073939Y52394362D01*
X50068168Y52388734D01*
X50062787Y52383733D01*
X50058320Y52379856D01*
X50041761Y52367240D01*
X50024437Y52356101D01*
X50006416Y52346469D01*
X49987765Y52338376D01*
X49968553Y52331851D01*
X49948846Y52326925D01*
X49935130Y52324494D01*
X49914852Y52322274D01*
X49894998Y52321690D01*
X49875575Y52322742D01*
X49870784Y52323261D01*
X49863481Y52324144D01*
X49857570Y52324893D01*
X49852756Y52325556D01*
X49848747Y52326178D01*
X49845250Y52326807D01*
X49841972Y52327491D01*
X49838619Y52328276D01*
X49836874Y52328708D01*
X49817422Y52334451D01*
X49798529Y52341743D01*
X49780294Y52350510D01*
X49762819Y52360681D01*
X49746203Y52372181D01*
X49730549Y52384939D01*
X49715956Y52398882D01*
X49702526Y52413937D01*
X49690359Y52430030D01*
X49684548Y52438810D01*
X49674196Y52456776D01*
X49665424Y52475350D01*
X49658236Y52494520D01*
X49652637Y52514276D01*
X49648629Y52534605D01*
X49647223Y52544980D01*
X49646630Y52551796D01*
X49646254Y52559785D01*
X49646088Y52568554D01*
X49646126Y52577709D01*
X49646360Y52586858D01*
X49646784Y52595606D01*
X49647389Y52603560D01*
X49648171Y52610328D01*
X49648408Y52611880D01*
X49651314Y52627181D01*
X49654986Y52641753D01*
X49657899Y52651294D01*
X49664992Y52670421D01*
X49673533Y52688750D01*
X49683449Y52706217D01*
X49694665Y52722756D01*
X49707107Y52738300D01*
X49720701Y52752784D01*
X49735374Y52766143D01*
X49751051Y52778310D01*
X49767660Y52789219D01*
X49785125Y52798806D01*
X49803374Y52807003D01*
X49822331Y52813746D01*
X49841925Y52818968D01*
X49847462Y52820139D01*
X49855473Y52821660D01*
X49862628Y52822825D01*
X49869381Y52823675D01*
X49876186Y52824253D01*
X49883497Y52824602D01*
X49891768Y52824762D01*
X49897454Y52824786D01*
X49906529Y52824719D01*
G37*
X49906529Y52824719D02*
X49914368Y52824490D01*
X49921427Y52824056D01*
X49928157Y52823376D01*
X49935014Y52822407D01*
X49942451Y52821108D01*
X49947445Y52820139D01*
X49967066Y52815375D01*
X49986104Y52809064D01*
X50004482Y52801273D01*
X50022123Y52792071D01*
X50038949Y52781527D01*
X50054882Y52769710D01*
X50069846Y52756686D01*
X50083764Y52742526D01*
X50096556Y52727298D01*
X50108147Y52711069D01*
X50118459Y52693909D01*
X50127413Y52675886D01*
X50134934Y52657069D01*
X50136297Y52653104D01*
X50141838Y52633884D01*
X50145810Y52614151D01*
X50148201Y52594053D01*
X50149000Y52573737D01*
X50148196Y52553353D01*
X50145777Y52533049D01*
X50145443Y52531010D01*
X50141304Y52511418D01*
X50135549Y52492110D01*
X50128251Y52473251D01*
X50119483Y52455002D01*
X50109319Y52437530D01*
X50097832Y52420995D01*
X50094173Y52416287D01*
X50090217Y52411580D01*
X50085301Y52406128D01*
X50079763Y52400275D01*
X50073939Y52394362D01*
X50068168Y52388734D01*
X50062787Y52383733D01*
X50058320Y52379856D01*
X50041761Y52367240D01*
X50024437Y52356101D01*
X50006416Y52346469D01*
X49987765Y52338376D01*
X49968553Y52331851D01*
X49948846Y52326925D01*
X49935130Y52324494D01*
X49914852Y52322274D01*
X49894998Y52321690D01*
X49875575Y52322742D01*
X49870784Y52323261D01*
X49863481Y52324144D01*
X49857570Y52324893D01*
X49852756Y52325556D01*
X49848747Y52326178D01*
X49845250Y52326807D01*
X49841972Y52327491D01*
X49838619Y52328276D01*
X49836874Y52328708D01*
X49817422Y52334451D01*
X49798529Y52341743D01*
X49780294Y52350510D01*
X49762819Y52360681D01*
X49746203Y52372181D01*
X49730549Y52384939D01*
X49715956Y52398882D01*
X49702526Y52413937D01*
X49690359Y52430030D01*
X49684548Y52438810D01*
X49674196Y52456776D01*
X49665424Y52475350D01*
X49658236Y52494520D01*
X49652637Y52514276D01*
X49648629Y52534605D01*
X49647223Y52544980D01*
X49646630Y52551796D01*
X49646254Y52559785D01*
X49646088Y52568554D01*
X49646126Y52577709D01*
X49646360Y52586858D01*
X49646784Y52595606D01*
X49647389Y52603560D01*
X49648171Y52610328D01*
X49648408Y52611880D01*
X49651314Y52627181D01*
X49654986Y52641753D01*
X49657899Y52651294D01*
X49664992Y52670421D01*
X49673533Y52688750D01*
X49683449Y52706217D01*
X49694665Y52722756D01*
X49707107Y52738300D01*
X49720701Y52752784D01*
X49735374Y52766143D01*
X49751051Y52778310D01*
X49767660Y52789219D01*
X49785125Y52798806D01*
X49803374Y52807003D01*
X49822331Y52813746D01*
X49841925Y52818968D01*
X49847462Y52820139D01*
X49855473Y52821660D01*
X49862628Y52822825D01*
X49869381Y52823675D01*
X49876186Y52824253D01*
X49883497Y52824602D01*
X49891768Y52824762D01*
X49897454Y52824786D01*
X49906529Y52824719D01*
D14*
%TO.C,C1*%
X38877021Y66372200D02*
X39202579Y66372200D01*
X38877021Y65352200D02*
X39202579Y65352200D01*
%TO.C,C2*%
X47487621Y62990000D02*
X47813179Y62990000D01*
X47487621Y64010000D02*
X47813179Y64010000D01*
%TO.C,C3*%
X47006922Y58489327D02*
X47237127Y58259122D01*
X46285673Y57768078D02*
X46515878Y57537873D01*
%TO.C,C4*%
X36405073Y49716278D02*
X36635278Y49486073D01*
X37126322Y50437527D02*
X37356527Y50207322D01*
%TO.C,C5*%
X35222927Y52340922D02*
X34992722Y52571127D01*
X34501678Y51619673D02*
X34271473Y51849878D01*
%TO.C,C6*%
X26278621Y52808600D02*
X26604179Y52808600D01*
X26278621Y51788600D02*
X26604179Y51788600D01*
%TO.C,C9*%
X29411200Y58816021D02*
X29411200Y59141579D01*
X30431200Y58816021D02*
X30431200Y59141579D01*
%TO.C,C10*%
X31929800Y58816021D02*
X31929800Y59141579D01*
X30909800Y58816021D02*
X30909800Y59141579D01*
%TO.C,D1*%
X27733200Y50083000D02*
X33633200Y50083000D01*
X27733200Y46183000D02*
X33633200Y46183000D01*
X33633200Y46183000D02*
X33633200Y47258000D01*
%TO.C,D2*%
X29890600Y66564000D02*
X29890600Y69249000D01*
X29890600Y69249000D02*
X27970600Y69249000D01*
X27970600Y69249000D02*
X27970600Y66564000D01*
%TO.C,D3*%
X76677400Y64964600D02*
X76677400Y67649600D01*
X74757400Y64964600D02*
X76677400Y64964600D01*
X74757400Y67649600D02*
X74757400Y64964600D01*
%TO.C,J3*%
X81889400Y60851600D02*
X78689400Y60851600D01*
X81889400Y53651600D02*
X78689400Y53651600D01*
X77089400Y58551600D02*
X77089400Y55951600D01*
X83969400Y59051600D02*
X83969400Y55451600D01*
%TO.C,L2*%
X26042536Y60338800D02*
X27246664Y60338800D01*
X26042536Y57618800D02*
X27246664Y57618800D01*
%TO.C,R1*%
X39202579Y64899000D02*
X38877021Y64899000D01*
X39202579Y63879000D02*
X38877021Y63879000D01*
%TO.C,R2*%
X47813179Y65584800D02*
X47487621Y65584800D01*
X47813179Y64564800D02*
X47487621Y64564800D01*
%TO.C,R3*%
X31811179Y50467800D02*
X31485621Y50467800D01*
X31811179Y51487800D02*
X31485621Y51487800D01*
%TO.C,R4*%
X29440600Y64124621D02*
X29440600Y64450179D01*
X28420600Y64124621D02*
X28420600Y64450179D01*
%TO.C,R5*%
X72963821Y68099400D02*
X73289379Y68099400D01*
X72963821Y67079400D02*
X73289379Y67079400D01*
%TO.C,R6*%
X63870621Y47449200D02*
X64196179Y47449200D01*
X63870621Y46429200D02*
X64196179Y46429200D01*
%TO.C,R7*%
X28750800Y55941179D02*
X28750800Y55615621D01*
X29770800Y55941179D02*
X29770800Y55615621D01*
%TO.C,R8*%
X29770800Y52943979D02*
X29770800Y52618421D01*
X28750800Y52943979D02*
X28750800Y52618421D01*
D15*
%TO.C,SW1*%
X36017200Y69926200D02*
X36017200Y69799200D01*
X32969200Y69926200D02*
X36017200Y69926200D01*
X32969200Y69037200D02*
X32969200Y69926200D01*
X36017200Y69037200D02*
X36017200Y69799200D01*
X37033200Y69037200D02*
X31953200Y69037200D01*
X36017200Y66624200D02*
X32969200Y66624200D01*
X30556200Y66624200D02*
X31826200Y66624200D01*
X30556200Y68275200D02*
X30556200Y66624200D01*
X38430200Y66624200D02*
X37160200Y66624200D01*
X38430200Y68275200D02*
X38430200Y66624200D01*
%TO.C,SW2*%
X48768000Y68224400D02*
X48768000Y66573400D01*
X48768000Y66573400D02*
X47498000Y66573400D01*
X40894000Y68224400D02*
X40894000Y66573400D01*
X40894000Y66573400D02*
X42164000Y66573400D01*
X46355000Y66573400D02*
X43307000Y66573400D01*
X47371000Y68986400D02*
X42291000Y68986400D01*
X46355000Y68986400D02*
X46355000Y69748400D01*
X43307000Y68986400D02*
X43307000Y69875400D01*
X43307000Y69875400D02*
X46355000Y69875400D01*
X46355000Y69875400D02*
X46355000Y69748400D01*
%TO.C,U1*%
X35159938Y59833638D02*
X35573030Y60246729D01*
X35159938Y59833638D02*
X33038618Y61954958D01*
%TO.C,U3*%
X53649000Y48354000D02*
X53649000Y58354000D01*
X70049000Y48354000D02*
X70049000Y48854000D01*
X69649000Y48354000D02*
X70049000Y48354000D01*
X70049000Y65954000D02*
X70049000Y66454000D01*
X69649000Y66454000D02*
X70049000Y66454000D01*
X53649000Y65954000D02*
X53649000Y66454000D01*
X53649000Y66454000D02*
X54049000Y66454000D01*
X53649000Y48354000D02*
X54049000Y48354000D01*
D14*
%TO.C,U4*%
X24958400Y55992600D02*
X24958400Y54192600D01*
X28178400Y54192600D02*
X28178400Y56642600D01*
%TO.C,J1*%
X52968200Y45634600D02*
X52968200Y48294600D01*
X37668200Y45634600D02*
X52968200Y45634600D01*
X37668200Y48294600D02*
X52968200Y48294600D01*
X37668200Y45634600D02*
X37668200Y48294600D01*
X36398200Y45634600D02*
X35068200Y45634600D01*
X35068200Y45634600D02*
X35068200Y46964600D01*
%TO.C,U2*%
D10*
X42169781Y62843778D02*
X41711845Y62385842D01*
X41684908Y62305030D01*
X41684908Y62251155D01*
X41711845Y62170343D01*
X41819595Y62062593D01*
X41900407Y62035656D01*
X41954282Y62035656D01*
X42035094Y62062593D01*
X42493030Y62520529D01*
X42681592Y62224218D02*
X42735467Y62224218D01*
X42816279Y62197280D01*
X42950966Y62062593D01*
X42977903Y61981781D01*
X42977903Y61927906D01*
X42950966Y61847094D01*
X42897091Y61793219D01*
X42789341Y61739345D01*
X42142844Y61739345D01*
X42493030Y61389158D01*
%TO.C,C1*%
X41268666Y65627285D02*
X41230571Y65589190D01*
X41116285Y65551095D01*
X41040095Y65551095D01*
X40925809Y65589190D01*
X40849619Y65665380D01*
X40811523Y65741571D01*
X40773428Y65893952D01*
X40773428Y66008238D01*
X40811523Y66160619D01*
X40849619Y66236809D01*
X40925809Y66313000D01*
X41040095Y66351095D01*
X41116285Y66351095D01*
X41230571Y66313000D01*
X41268666Y66274904D01*
X42030571Y65551095D02*
X41573428Y65551095D01*
X41802000Y65551095D02*
X41802000Y66351095D01*
X41725809Y66236809D01*
X41649619Y66160619D01*
X41573428Y66122523D01*
%TO.C,C2*%
X49904666Y63214285D02*
X49866571Y63176190D01*
X49752285Y63138095D01*
X49676095Y63138095D01*
X49561809Y63176190D01*
X49485619Y63252380D01*
X49447523Y63328571D01*
X49409428Y63480952D01*
X49409428Y63595238D01*
X49447523Y63747619D01*
X49485619Y63823809D01*
X49561809Y63900000D01*
X49676095Y63938095D01*
X49752285Y63938095D01*
X49866571Y63900000D01*
X49904666Y63861904D01*
X50209428Y63861904D02*
X50247523Y63900000D01*
X50323714Y63938095D01*
X50514190Y63938095D01*
X50590380Y63900000D01*
X50628476Y63861904D01*
X50666571Y63785714D01*
X50666571Y63709523D01*
X50628476Y63595238D01*
X50171333Y63138095D01*
X50666571Y63138095D01*
%TO.C,C3*%
X47476251Y58917013D02*
X47422376Y58917013D01*
X47314627Y58970888D01*
X47260752Y59024763D01*
X47206877Y59132512D01*
X47206877Y59240262D01*
X47233814Y59321074D01*
X47314627Y59455761D01*
X47395439Y59536573D01*
X47530126Y59617385D01*
X47610938Y59644323D01*
X47718688Y59644323D01*
X47826437Y59590448D01*
X47880312Y59536573D01*
X47934187Y59428824D01*
X47934187Y59374949D01*
X48176624Y59240262D02*
X48526810Y58890075D01*
X48122749Y58863138D01*
X48203561Y58782326D01*
X48230498Y58701514D01*
X48230498Y58647639D01*
X48203561Y58566827D01*
X48068874Y58432140D01*
X47988062Y58405202D01*
X47934187Y58405202D01*
X47853375Y58432140D01*
X47691750Y58593764D01*
X47664813Y58674576D01*
X47664813Y58728451D01*
%TO.C,C4*%
X35492288Y48939651D02*
X35438413Y48939651D01*
X35330664Y48993526D01*
X35276789Y49047401D01*
X35222914Y49155150D01*
X35222914Y49262900D01*
X35249851Y49343712D01*
X35330664Y49478399D01*
X35411476Y49559211D01*
X35546163Y49640023D01*
X35626975Y49666961D01*
X35734725Y49666961D01*
X35842474Y49613086D01*
X35896349Y49559211D01*
X35950224Y49451462D01*
X35950224Y49397587D01*
X36300410Y48778026D02*
X35923287Y48400903D01*
X36381222Y49128213D02*
X35842474Y48858839D01*
X36192661Y48508652D01*
%TO.C,C5*%
X33866688Y50565250D02*
X33812813Y50565250D01*
X33705064Y50619125D01*
X33651189Y50673000D01*
X33597314Y50780749D01*
X33597314Y50888499D01*
X33624251Y50969311D01*
X33705064Y51103998D01*
X33785876Y51184810D01*
X33920563Y51265622D01*
X34001375Y51292560D01*
X34109125Y51292560D01*
X34216874Y51238685D01*
X34270749Y51184810D01*
X34324624Y51077061D01*
X34324624Y51023186D01*
X34890309Y50565250D02*
X34620935Y50834624D01*
X34324624Y50592187D01*
X34378499Y50592187D01*
X34459311Y50565250D01*
X34593998Y50430563D01*
X34620935Y50349751D01*
X34620935Y50295876D01*
X34593998Y50215064D01*
X34459311Y50080377D01*
X34378499Y50053439D01*
X34324624Y50053439D01*
X34243812Y50080377D01*
X34109125Y50215064D01*
X34082187Y50295876D01*
X34082187Y50349751D01*
%TO.C,C6*%
X26282666Y50514285D02*
X26244571Y50476190D01*
X26130285Y50438095D01*
X26054095Y50438095D01*
X25939809Y50476190D01*
X25863619Y50552380D01*
X25825523Y50628571D01*
X25787428Y50780952D01*
X25787428Y50895238D01*
X25825523Y51047619D01*
X25863619Y51123809D01*
X25939809Y51200000D01*
X26054095Y51238095D01*
X26130285Y51238095D01*
X26244571Y51200000D01*
X26282666Y51161904D01*
X26968380Y51238095D02*
X26816000Y51238095D01*
X26739809Y51200000D01*
X26701714Y51161904D01*
X26625523Y51047619D01*
X26587428Y50895238D01*
X26587428Y50590476D01*
X26625523Y50514285D01*
X26663619Y50476190D01*
X26739809Y50438095D01*
X26892190Y50438095D01*
X26968380Y50476190D01*
X27006476Y50514285D01*
X27044571Y50590476D01*
X27044571Y50780952D01*
X27006476Y50857142D01*
X26968380Y50895238D01*
X26892190Y50933333D01*
X26739809Y50933333D01*
X26663619Y50895238D01*
X26625523Y50857142D01*
X26587428Y50780952D01*
%TO.C,C9*%
X30257714Y61207666D02*
X30295809Y61169571D01*
X30333904Y61055285D01*
X30333904Y60979095D01*
X30295809Y60864809D01*
X30219619Y60788619D01*
X30143428Y60750523D01*
X29991047Y60712428D01*
X29876761Y60712428D01*
X29724380Y60750523D01*
X29648190Y60788619D01*
X29572000Y60864809D01*
X29533904Y60979095D01*
X29533904Y61055285D01*
X29572000Y61169571D01*
X29610095Y61207666D01*
X30333904Y61588619D02*
X30333904Y61741000D01*
X30295809Y61817190D01*
X30257714Y61855285D01*
X30143428Y61931476D01*
X29991047Y61969571D01*
X29686285Y61969571D01*
X29610095Y61931476D01*
X29572000Y61893380D01*
X29533904Y61817190D01*
X29533904Y61664809D01*
X29572000Y61588619D01*
X29610095Y61550523D01*
X29686285Y61512428D01*
X29876761Y61512428D01*
X29952952Y61550523D01*
X29991047Y61588619D01*
X30029142Y61664809D01*
X30029142Y61817190D01*
X29991047Y61893380D01*
X29952952Y61931476D01*
X29876761Y61969571D01*
%TO.C,C10*%
X31781714Y61207714D02*
X31819809Y61169619D01*
X31857904Y61055333D01*
X31857904Y60979142D01*
X31819809Y60864857D01*
X31743619Y60788666D01*
X31667428Y60750571D01*
X31515047Y60712476D01*
X31400761Y60712476D01*
X31248380Y60750571D01*
X31172190Y60788666D01*
X31096000Y60864857D01*
X31057904Y60979142D01*
X31057904Y61055333D01*
X31096000Y61169619D01*
X31134095Y61207714D01*
X31857904Y61969619D02*
X31857904Y61512476D01*
X31857904Y61741047D02*
X31057904Y61741047D01*
X31172190Y61664857D01*
X31248380Y61588666D01*
X31286476Y61512476D01*
X31057904Y62464857D02*
X31057904Y62541047D01*
X31096000Y62617238D01*
X31134095Y62655333D01*
X31210285Y62693428D01*
X31362666Y62731523D01*
X31553142Y62731523D01*
X31705523Y62693428D01*
X31781714Y62655333D01*
X31819809Y62617238D01*
X31857904Y62541047D01*
X31857904Y62464857D01*
X31819809Y62388666D01*
X31781714Y62350571D01*
X31705523Y62312476D01*
X31553142Y62274380D01*
X31362666Y62274380D01*
X31210285Y62312476D01*
X31134095Y62350571D01*
X31096000Y62388666D01*
X31057904Y62464857D01*
%TO.C,D1*%
X26079523Y46247095D02*
X26079523Y47047095D01*
X26270000Y47047095D01*
X26384285Y47009000D01*
X26460476Y46932809D01*
X26498571Y46856619D01*
X26536666Y46704238D01*
X26536666Y46589952D01*
X26498571Y46437571D01*
X26460476Y46361380D01*
X26384285Y46285190D01*
X26270000Y46247095D01*
X26079523Y46247095D01*
X27298571Y46247095D02*
X26841428Y46247095D01*
X27070000Y46247095D02*
X27070000Y47047095D01*
X26993809Y46932809D01*
X26917619Y46856619D01*
X26841428Y46818523D01*
X27468914Y48555619D02*
X26897485Y48555619D01*
X27183200Y48555619D02*
X27183200Y49555619D01*
X27087961Y49412761D01*
X26992723Y49317523D01*
X26897485Y49269904D01*
%TO.C,D3*%
X75101523Y63874695D02*
X75101523Y64674695D01*
X75292000Y64674695D01*
X75406285Y64636600D01*
X75482476Y64560409D01*
X75520571Y64484219D01*
X75558666Y64331838D01*
X75558666Y64217552D01*
X75520571Y64065171D01*
X75482476Y63988980D01*
X75406285Y63912790D01*
X75292000Y63874695D01*
X75101523Y63874695D01*
X75825333Y64674695D02*
X76320571Y64674695D01*
X76053904Y64369933D01*
X76168190Y64369933D01*
X76244380Y64331838D01*
X76282476Y64293742D01*
X76320571Y64217552D01*
X76320571Y64027076D01*
X76282476Y63950885D01*
X76244380Y63912790D01*
X76168190Y63874695D01*
X75939619Y63874695D01*
X75863428Y63912790D01*
X75825333Y63950885D01*
%TO.C,J3*%
X76542933Y62769695D02*
X76542933Y62198266D01*
X76504838Y62083980D01*
X76428647Y62007790D01*
X76314361Y61969695D01*
X76238171Y61969695D01*
X76847695Y62769695D02*
X77342933Y62769695D01*
X77076266Y62464933D01*
X77190552Y62464933D01*
X77266742Y62426838D01*
X77304838Y62388742D01*
X77342933Y62312552D01*
X77342933Y62122076D01*
X77304838Y62045885D01*
X77266742Y62007790D01*
X77190552Y61969695D01*
X76961980Y61969695D01*
X76885790Y62007790D01*
X76847695Y62045885D01*
%TO.C,L2*%
X26511266Y60896895D02*
X26130314Y60896895D01*
X26130314Y61696895D01*
X26739838Y61620704D02*
X26777933Y61658800D01*
X26854123Y61696895D01*
X27044600Y61696895D01*
X27120790Y61658800D01*
X27158885Y61620704D01*
X27196980Y61544514D01*
X27196980Y61468323D01*
X27158885Y61354038D01*
X26701742Y60896895D01*
X27196980Y60896895D01*
%TO.C,R1*%
X41268666Y64027095D02*
X41002000Y64408047D01*
X40811523Y64027095D02*
X40811523Y64827095D01*
X41116285Y64827095D01*
X41192476Y64789000D01*
X41230571Y64750904D01*
X41268666Y64674714D01*
X41268666Y64560428D01*
X41230571Y64484238D01*
X41192476Y64446142D01*
X41116285Y64408047D01*
X40811523Y64408047D01*
X42030571Y64027095D02*
X41573428Y64027095D01*
X41802000Y64027095D02*
X41802000Y64827095D01*
X41725809Y64712809D01*
X41649619Y64636619D01*
X41573428Y64598523D01*
%TO.C,R2*%
X49904666Y64662095D02*
X49638000Y65043047D01*
X49447523Y64662095D02*
X49447523Y65462095D01*
X49752285Y65462095D01*
X49828476Y65424000D01*
X49866571Y65385904D01*
X49904666Y65309714D01*
X49904666Y65195428D01*
X49866571Y65119238D01*
X49828476Y65081142D01*
X49752285Y65043047D01*
X49447523Y65043047D01*
X50209428Y65385904D02*
X50247523Y65424000D01*
X50323714Y65462095D01*
X50514190Y65462095D01*
X50590380Y65424000D01*
X50628476Y65385904D01*
X50666571Y65309714D01*
X50666571Y65233523D01*
X50628476Y65119238D01*
X50171333Y64662095D01*
X50666571Y64662095D01*
%TO.C,R3*%
X32124666Y51962095D02*
X31858000Y52343047D01*
X31667523Y51962095D02*
X31667523Y52762095D01*
X31972285Y52762095D01*
X32048476Y52724000D01*
X32086571Y52685904D01*
X32124666Y52609714D01*
X32124666Y52495428D01*
X32086571Y52419238D01*
X32048476Y52381142D01*
X31972285Y52343047D01*
X31667523Y52343047D01*
X32391333Y52762095D02*
X32886571Y52762095D01*
X32619904Y52457333D01*
X32734190Y52457333D01*
X32810380Y52419238D01*
X32848476Y52381142D01*
X32886571Y52304952D01*
X32886571Y52114476D01*
X32848476Y52038285D01*
X32810380Y52000190D01*
X32734190Y51962095D01*
X32505619Y51962095D01*
X32429428Y52000190D01*
X32391333Y52038285D01*
%TO.C,R4*%
X30346666Y63900095D02*
X30080000Y64281047D01*
X29889523Y63900095D02*
X29889523Y64700095D01*
X30194285Y64700095D01*
X30270476Y64662000D01*
X30308571Y64623904D01*
X30346666Y64547714D01*
X30346666Y64433428D01*
X30308571Y64357238D01*
X30270476Y64319142D01*
X30194285Y64281047D01*
X29889523Y64281047D01*
X31032380Y64433428D02*
X31032380Y63900095D01*
X30841904Y64738190D02*
X30651428Y64166761D01*
X31146666Y64166761D01*
%TO.C,R5*%
X73018666Y65855895D02*
X72752000Y66236847D01*
X72561523Y65855895D02*
X72561523Y66655895D01*
X72866285Y66655895D01*
X72942476Y66617800D01*
X72980571Y66579704D01*
X73018666Y66503514D01*
X73018666Y66389228D01*
X72980571Y66313038D01*
X72942476Y66274942D01*
X72866285Y66236847D01*
X72561523Y66236847D01*
X73742476Y66655895D02*
X73361523Y66655895D01*
X73323428Y66274942D01*
X73361523Y66313038D01*
X73437714Y66351133D01*
X73628190Y66351133D01*
X73704380Y66313038D01*
X73742476Y66274942D01*
X73780571Y66198752D01*
X73780571Y66008276D01*
X73742476Y65932085D01*
X73704380Y65893990D01*
X73628190Y65855895D01*
X73437714Y65855895D01*
X73361523Y65893990D01*
X73323428Y65932085D01*
%TO.C,R6*%
X66287666Y46501095D02*
X66021000Y46882047D01*
X65830523Y46501095D02*
X65830523Y47301095D01*
X66135285Y47301095D01*
X66211476Y47263000D01*
X66249571Y47224904D01*
X66287666Y47148714D01*
X66287666Y47034428D01*
X66249571Y46958238D01*
X66211476Y46920142D01*
X66135285Y46882047D01*
X65830523Y46882047D01*
X66973380Y47301095D02*
X66821000Y47301095D01*
X66744809Y47263000D01*
X66706714Y47224904D01*
X66630523Y47110619D01*
X66592428Y46958238D01*
X66592428Y46653476D01*
X66630523Y46577285D01*
X66668619Y46539190D01*
X66744809Y46501095D01*
X66897190Y46501095D01*
X66973380Y46539190D01*
X67011476Y46577285D01*
X67049571Y46653476D01*
X67049571Y46843952D01*
X67011476Y46920142D01*
X66973380Y46958238D01*
X66897190Y46996333D01*
X66744809Y46996333D01*
X66668619Y46958238D01*
X66630523Y46920142D01*
X66592428Y46843952D01*
%TO.C,R7*%
X31052704Y55645066D02*
X30671752Y55378400D01*
X31052704Y55187923D02*
X30252704Y55187923D01*
X30252704Y55492685D01*
X30290800Y55568876D01*
X30328895Y55606971D01*
X30405085Y55645066D01*
X30519371Y55645066D01*
X30595561Y55606971D01*
X30633657Y55568876D01*
X30671752Y55492685D01*
X30671752Y55187923D01*
X30252704Y55911733D02*
X30252704Y56445066D01*
X31052704Y56102209D01*
%TO.C,R8*%
X31052704Y52647866D02*
X30671752Y52381200D01*
X31052704Y52190723D02*
X30252704Y52190723D01*
X30252704Y52495485D01*
X30290800Y52571676D01*
X30328895Y52609771D01*
X30405085Y52647866D01*
X30519371Y52647866D01*
X30595561Y52609771D01*
X30633657Y52571676D01*
X30671752Y52495485D01*
X30671752Y52190723D01*
X30595561Y53105009D02*
X30557466Y53028819D01*
X30519371Y52990723D01*
X30443180Y52952628D01*
X30405085Y52952628D01*
X30328895Y52990723D01*
X30290800Y53028819D01*
X30252704Y53105009D01*
X30252704Y53257390D01*
X30290800Y53333580D01*
X30328895Y53371676D01*
X30405085Y53409771D01*
X30443180Y53409771D01*
X30519371Y53371676D01*
X30557466Y53333580D01*
X30595561Y53257390D01*
X30595561Y53105009D01*
X30633657Y53028819D01*
X30671752Y52990723D01*
X30747942Y52952628D01*
X30900323Y52952628D01*
X30976514Y52990723D01*
X31014609Y53028819D01*
X31052704Y53105009D01*
X31052704Y53257390D01*
X31014609Y53333580D01*
X30976514Y53371676D01*
X30900323Y53409771D01*
X30747942Y53409771D01*
X30671752Y53371676D01*
X30633657Y53333580D01*
X30595561Y53257390D01*
%TO.C,U1*%
X33787780Y60684778D02*
X33329844Y60226842D01*
X33302907Y60146030D01*
X33302907Y60092155D01*
X33329844Y60011343D01*
X33437594Y59903593D01*
X33518406Y59876656D01*
X33572281Y59876656D01*
X33653093Y59903593D01*
X34111029Y60361529D01*
X34111029Y59230158D02*
X33787780Y59553407D01*
X33949405Y59391783D02*
X34515090Y59957468D01*
X34380403Y59930531D01*
X34272653Y59930531D01*
X34191841Y59957468D01*
%TO.C,U3*%
X70637476Y48952095D02*
X70637476Y48304476D01*
X70675571Y48228285D01*
X70713666Y48190190D01*
X70789857Y48152095D01*
X70942238Y48152095D01*
X71018428Y48190190D01*
X71056523Y48228285D01*
X71094619Y48304476D01*
X71094619Y48952095D01*
X71399380Y48952095D02*
X71894619Y48952095D01*
X71627952Y48647333D01*
X71742238Y48647333D01*
X71818428Y48609238D01*
X71856523Y48571142D01*
X71894619Y48494952D01*
X71894619Y48304476D01*
X71856523Y48228285D01*
X71818428Y48190190D01*
X71742238Y48152095D01*
X71513666Y48152095D01*
X71437476Y48190190D01*
X71399380Y48228285D01*
%TO.C,U4*%
X23564904Y54483076D02*
X24212523Y54483076D01*
X24288714Y54521171D01*
X24326809Y54559266D01*
X24364904Y54635457D01*
X24364904Y54787838D01*
X24326809Y54864028D01*
X24288714Y54902123D01*
X24212523Y54940219D01*
X23564904Y54940219D01*
X23831571Y55664028D02*
X24364904Y55664028D01*
X23526809Y55473552D02*
X24098238Y55283076D01*
X24098238Y55778314D01*
%TO.C,J1*%
X53870266Y46699419D02*
X53870266Y45985133D01*
X53822647Y45842276D01*
X53727409Y45747038D01*
X53584552Y45699419D01*
X53489314Y45699419D01*
X54870266Y45699419D02*
X54298838Y45699419D01*
X54584552Y45699419D02*
X54584552Y46699419D01*
X54489314Y46556561D01*
X54394076Y46461323D01*
X54298838Y46413704D01*
%TD*%
M02*
