%TF.GenerationSoftware,KiCad,Pcbnew,(5.1.6)-1*%
%TF.CreationDate,2020-12-01T11:19:40+01:00*%
%TF.ProjectId,LoRa_Dongle,4c6f5261-5f44-46f6-9e67-6c652e6b6963,rev?*%
%TF.SameCoordinates,Original*%
%TF.FileFunction,Soldermask,Top*%
%TF.FilePolarity,Negative*%
%FSLAX46Y46*%
G04 Gerber Fmt 4.6, Leading zero omitted, Abs format (unit mm)*
G04 Created by KiCad (PCBNEW (5.1.6)-1) date 2020-12-01 11:19:40*
%MOMM*%
%LPD*%
G01*
G04 APERTURE LIST*
%ADD10C,0.100000*%
%ADD11C,4.500000*%
%ADD12C,0.800000*%
%ADD13R,1.700000X0.950000*%
%ADD14R,8.100000X2.000000*%
%ADD15R,7.600000X2.100000*%
%ADD16C,2.350000*%
%ADD17C,0.900000*%
%ADD18R,1.550000X1.100000*%
%ADD19R,1.000000X1.100000*%
%ADD20R,1.100000X2.600000*%
%ADD21R,0.750000X1.160000*%
%ADD22R,1.800000X1.800000*%
%ADD23O,1.800000X1.800000*%
G04 APERTURE END LIST*
D10*
%TO.C,U2*%
G36*
X45619055Y57633438D02*
G01*
X44416974Y56431357D01*
X43957355Y56890976D01*
X45159436Y58093057D01*
X45619055Y57633438D01*
G37*
G36*
X45053370Y58199124D02*
G01*
X43851289Y56997043D01*
X43391670Y57456662D01*
X44593751Y58658743D01*
X45053370Y58199124D01*
G37*
G36*
X44487684Y58764809D02*
G01*
X43285603Y57562728D01*
X42825984Y58022347D01*
X44028065Y59224428D01*
X44487684Y58764809D01*
G37*
G36*
X43921999Y59330495D02*
G01*
X42719918Y58128414D01*
X42260299Y58588033D01*
X43462380Y59790114D01*
X43921999Y59330495D01*
G37*
G36*
X43356314Y59896180D02*
G01*
X42154233Y58694099D01*
X41694614Y59153718D01*
X42896695Y60355799D01*
X43356314Y59896180D01*
G37*
G36*
X42790628Y60461865D02*
G01*
X41588547Y59259784D01*
X41128928Y59719403D01*
X42331009Y60921484D01*
X42790628Y60461865D01*
G37*
G36*
X42224943Y61027551D02*
G01*
X41022862Y59825470D01*
X40563243Y60285089D01*
X41765324Y61487170D01*
X42224943Y61027551D01*
G37*
G36*
X41659257Y61593236D02*
G01*
X40457176Y60391155D01*
X39997557Y60850774D01*
X41199638Y62052855D01*
X41659257Y61593236D01*
G37*
G36*
X35747845Y55681824D02*
G01*
X34545764Y54479743D01*
X34086145Y54939362D01*
X35288226Y56141443D01*
X35747845Y55681824D01*
G37*
G36*
X36313530Y55116138D02*
G01*
X35111449Y53914057D01*
X34651830Y54373676D01*
X35853911Y55575757D01*
X36313530Y55116138D01*
G37*
G36*
X36879216Y54550453D02*
G01*
X35677135Y53348372D01*
X35217516Y53807991D01*
X36419597Y55010072D01*
X36879216Y54550453D01*
G37*
G36*
X37444901Y53984767D02*
G01*
X36242820Y52782686D01*
X35783201Y53242305D01*
X36985282Y54444386D01*
X37444901Y53984767D01*
G37*
G36*
X38010586Y53419082D02*
G01*
X36808505Y52217001D01*
X36348886Y52676620D01*
X37550967Y53878701D01*
X38010586Y53419082D01*
G37*
G36*
X38576272Y52853397D02*
G01*
X37374191Y51651316D01*
X36914572Y52110935D01*
X38116653Y53313016D01*
X38576272Y52853397D01*
G37*
G36*
X39141957Y52287711D02*
G01*
X37939876Y51085630D01*
X37480257Y51545249D01*
X38682338Y52747330D01*
X39141957Y52287711D01*
G37*
G36*
X39707643Y51722026D02*
G01*
X38505562Y50519945D01*
X38045943Y50979564D01*
X39248024Y52181645D01*
X39707643Y51722026D01*
G37*
G36*
X41659257Y50979564D02*
G01*
X41199638Y50519945D01*
X39997557Y51722026D01*
X40457176Y52181645D01*
X41659257Y50979564D01*
G37*
G36*
X42224943Y51545249D02*
G01*
X41765324Y51085630D01*
X40563243Y52287711D01*
X41022862Y52747330D01*
X42224943Y51545249D01*
G37*
G36*
X42790628Y52110935D02*
G01*
X42331009Y51651316D01*
X41128928Y52853397D01*
X41588547Y53313016D01*
X42790628Y52110935D01*
G37*
G36*
X43356314Y52676620D02*
G01*
X42896695Y52217001D01*
X41694614Y53419082D01*
X42154233Y53878701D01*
X43356314Y52676620D01*
G37*
G36*
X43921999Y53242305D02*
G01*
X43462380Y52782686D01*
X42260299Y53984767D01*
X42719918Y54444386D01*
X43921999Y53242305D01*
G37*
G36*
X44487684Y53807991D02*
G01*
X44028065Y53348372D01*
X42825984Y54550453D01*
X43285603Y55010072D01*
X44487684Y53807991D01*
G37*
G36*
X45053370Y54373676D02*
G01*
X44593751Y53914057D01*
X43391670Y55116138D01*
X43851289Y55575757D01*
X45053370Y54373676D01*
G37*
G36*
X45619055Y54939362D02*
G01*
X45159436Y54479743D01*
X43957355Y55681824D01*
X44416974Y56141443D01*
X45619055Y54939362D01*
G37*
G36*
X39707643Y60850774D02*
G01*
X39248024Y60391155D01*
X38045943Y61593236D01*
X38505562Y62052855D01*
X39707643Y60850774D01*
G37*
G36*
X39141957Y60285089D02*
G01*
X38682338Y59825470D01*
X37480257Y61027551D01*
X37939876Y61487170D01*
X39141957Y60285089D01*
G37*
G36*
X38576272Y59719403D02*
G01*
X38116653Y59259784D01*
X36914572Y60461865D01*
X37374191Y60921484D01*
X38576272Y59719403D01*
G37*
G36*
X38010586Y59153718D02*
G01*
X37550967Y58694099D01*
X36348886Y59896180D01*
X36808505Y60355799D01*
X38010586Y59153718D01*
G37*
G36*
X37444901Y58588033D02*
G01*
X36985282Y58128414D01*
X35783201Y59330495D01*
X36242820Y59790114D01*
X37444901Y58588033D01*
G37*
G36*
X36879216Y58022347D02*
G01*
X36419597Y57562728D01*
X35217516Y58764809D01*
X35677135Y59224428D01*
X36879216Y58022347D01*
G37*
G36*
X36313530Y57456662D02*
G01*
X35853911Y56997043D01*
X34651830Y58199124D01*
X35111449Y58658743D01*
X36313530Y57456662D01*
G37*
G36*
X35747845Y56890976D02*
G01*
X35288226Y56431357D01*
X34086145Y57633438D01*
X34545764Y58093057D01*
X35747845Y56890976D01*
G37*
%TD*%
D11*
%TO.C,REF\u002A\u002A*%
X74396600Y47421800D03*
D12*
X76046600Y47421800D03*
X75563326Y46255074D03*
X74396600Y45771800D03*
X73229874Y46255074D03*
X72746600Y47421800D03*
X73229874Y48588526D03*
X74396600Y49071800D03*
X75563326Y48588526D03*
%TD*%
%TO.C,REF\u002A\u002A*%
X26338126Y68121126D03*
X25171400Y68604400D03*
X24004674Y68121126D03*
X23521400Y66954400D03*
X24004674Y65787674D03*
X25171400Y65304400D03*
X26338126Y65787674D03*
X26821400Y66954400D03*
D11*
X25171400Y66954400D03*
%TD*%
%TO.C,C1*%
G36*
G01*
X37764800Y65580950D02*
X37764800Y66143450D01*
G75*
G02*
X38008550Y66387200I243750J0D01*
G01*
X38496050Y66387200D01*
G75*
G02*
X38739800Y66143450I0J-243750D01*
G01*
X38739800Y65580950D01*
G75*
G02*
X38496050Y65337200I-243750J0D01*
G01*
X38008550Y65337200D01*
G75*
G02*
X37764800Y65580950I0J243750D01*
G01*
G37*
G36*
G01*
X39339800Y65580950D02*
X39339800Y66143450D01*
G75*
G02*
X39583550Y66387200I243750J0D01*
G01*
X40071050Y66387200D01*
G75*
G02*
X40314800Y66143450I0J-243750D01*
G01*
X40314800Y65580950D01*
G75*
G02*
X40071050Y65337200I-243750J0D01*
G01*
X39583550Y65337200D01*
G75*
G02*
X39339800Y65580950I0J243750D01*
G01*
G37*
%TD*%
%TO.C,C2*%
G36*
G01*
X47950400Y63218750D02*
X47950400Y63781250D01*
G75*
G02*
X48194150Y64025000I243750J0D01*
G01*
X48681650Y64025000D01*
G75*
G02*
X48925400Y63781250I0J-243750D01*
G01*
X48925400Y63218750D01*
G75*
G02*
X48681650Y62975000I-243750J0D01*
G01*
X48194150Y62975000D01*
G75*
G02*
X47950400Y63218750I0J243750D01*
G01*
G37*
G36*
G01*
X46375400Y63218750D02*
X46375400Y63781250D01*
G75*
G02*
X46619150Y64025000I243750J0D01*
G01*
X47106650Y64025000D01*
G75*
G02*
X47350400Y63781250I0J-243750D01*
G01*
X47350400Y63218750D01*
G75*
G02*
X47106650Y62975000I-243750J0D01*
G01*
X46619150Y62975000D01*
G75*
G02*
X46375400Y63218750I0J243750D01*
G01*
G37*
%TD*%
%TO.C,C3*%
G36*
G01*
X45660965Y58716288D02*
X46058713Y59114035D01*
G75*
G02*
X46403427Y59114035I172357J-172357D01*
G01*
X46748141Y58769321D01*
G75*
G02*
X46748141Y58424607I-172357J-172357D01*
G01*
X46350393Y58026859D01*
G75*
G02*
X46005679Y58026859I-172357J172357D01*
G01*
X45660965Y58371573D01*
G75*
G02*
X45660965Y58716287I172357J172357D01*
G01*
G37*
G36*
G01*
X46774659Y57602594D02*
X47172407Y58000341D01*
G75*
G02*
X47517121Y58000341I172357J-172357D01*
G01*
X47861835Y57655627D01*
G75*
G02*
X47861835Y57310913I-172357J-172357D01*
G01*
X47464087Y56913165D01*
G75*
G02*
X47119373Y56913165I-172357J172357D01*
G01*
X46774659Y57257879D01*
G75*
G02*
X46774659Y57602593I172357J172357D01*
G01*
G37*
%TD*%
%TO.C,C4*%
G36*
G01*
X36894059Y49550794D02*
X37291807Y49948541D01*
G75*
G02*
X37636521Y49948541I172357J-172357D01*
G01*
X37981235Y49603827D01*
G75*
G02*
X37981235Y49259113I-172357J-172357D01*
G01*
X37583487Y48861365D01*
G75*
G02*
X37238773Y48861365I-172357J172357D01*
G01*
X36894059Y49206079D01*
G75*
G02*
X36894059Y49550793I172357J172357D01*
G01*
G37*
G36*
G01*
X35780365Y50664488D02*
X36178113Y51062235D01*
G75*
G02*
X36522827Y51062235I172357J-172357D01*
G01*
X36867541Y50717521D01*
G75*
G02*
X36867541Y50372807I-172357J-172357D01*
G01*
X36469793Y49975059D01*
G75*
G02*
X36125079Y49975059I-172357J172357D01*
G01*
X35780365Y50319773D01*
G75*
G02*
X35780365Y50664487I172357J172357D01*
G01*
G37*
%TD*%
%TO.C,C5*%
G36*
G01*
X34733941Y52506406D02*
X34336193Y52108659D01*
G75*
G02*
X33991479Y52108659I-172357J172357D01*
G01*
X33646765Y52453373D01*
G75*
G02*
X33646765Y52798087I172357J172357D01*
G01*
X34044513Y53195835D01*
G75*
G02*
X34389227Y53195835I172357J-172357D01*
G01*
X34733941Y52851121D01*
G75*
G02*
X34733941Y52506407I-172357J-172357D01*
G01*
G37*
G36*
G01*
X35847635Y51392712D02*
X35449887Y50994965D01*
G75*
G02*
X35105173Y50994965I-172357J172357D01*
G01*
X34760459Y51339679D01*
G75*
G02*
X34760459Y51684393I172357J172357D01*
G01*
X35158207Y52082141D01*
G75*
G02*
X35502921Y52082141I172357J-172357D01*
G01*
X35847635Y51737427D01*
G75*
G02*
X35847635Y51392713I-172357J-172357D01*
G01*
G37*
%TD*%
%TO.C,C6*%
G36*
G01*
X25166400Y52017350D02*
X25166400Y52579850D01*
G75*
G02*
X25410150Y52823600I243750J0D01*
G01*
X25897650Y52823600D01*
G75*
G02*
X26141400Y52579850I0J-243750D01*
G01*
X26141400Y52017350D01*
G75*
G02*
X25897650Y51773600I-243750J0D01*
G01*
X25410150Y51773600D01*
G75*
G02*
X25166400Y52017350I0J243750D01*
G01*
G37*
G36*
G01*
X26741400Y52017350D02*
X26741400Y52579850D01*
G75*
G02*
X26985150Y52823600I243750J0D01*
G01*
X27472650Y52823600D01*
G75*
G02*
X27716400Y52579850I0J-243750D01*
G01*
X27716400Y52017350D01*
G75*
G02*
X27472650Y51773600I-243750J0D01*
G01*
X26985150Y51773600D01*
G75*
G02*
X26741400Y52017350I0J243750D01*
G01*
G37*
%TD*%
%TO.C,C9*%
G36*
G01*
X30202450Y57703800D02*
X29639950Y57703800D01*
G75*
G02*
X29396200Y57947550I0J243750D01*
G01*
X29396200Y58435050D01*
G75*
G02*
X29639950Y58678800I243750J0D01*
G01*
X30202450Y58678800D01*
G75*
G02*
X30446200Y58435050I0J-243750D01*
G01*
X30446200Y57947550D01*
G75*
G02*
X30202450Y57703800I-243750J0D01*
G01*
G37*
G36*
G01*
X30202450Y59278800D02*
X29639950Y59278800D01*
G75*
G02*
X29396200Y59522550I0J243750D01*
G01*
X29396200Y60010050D01*
G75*
G02*
X29639950Y60253800I243750J0D01*
G01*
X30202450Y60253800D01*
G75*
G02*
X30446200Y60010050I0J-243750D01*
G01*
X30446200Y59522550D01*
G75*
G02*
X30202450Y59278800I-243750J0D01*
G01*
G37*
%TD*%
%TO.C,C10*%
G36*
G01*
X31701050Y59278800D02*
X31138550Y59278800D01*
G75*
G02*
X30894800Y59522550I0J243750D01*
G01*
X30894800Y60010050D01*
G75*
G02*
X31138550Y60253800I243750J0D01*
G01*
X31701050Y60253800D01*
G75*
G02*
X31944800Y60010050I0J-243750D01*
G01*
X31944800Y59522550D01*
G75*
G02*
X31701050Y59278800I-243750J0D01*
G01*
G37*
G36*
G01*
X31701050Y57703800D02*
X31138550Y57703800D01*
G75*
G02*
X30894800Y57947550I0J243750D01*
G01*
X30894800Y58435050D01*
G75*
G02*
X31138550Y58678800I243750J0D01*
G01*
X31701050Y58678800D01*
G75*
G02*
X31944800Y58435050I0J-243750D01*
G01*
X31944800Y57947550D01*
G75*
G02*
X31701050Y57703800I-243750J0D01*
G01*
G37*
%TD*%
D13*
%TO.C,D1*%
X28933200Y49008000D03*
X28933200Y47258000D03*
X32433200Y49008000D03*
X32433200Y47258000D03*
%TD*%
%TO.C,D2*%
G36*
G01*
X28449350Y69039000D02*
X29411850Y69039000D01*
G75*
G02*
X29680600Y68770250I0J-268750D01*
G01*
X29680600Y68232750D01*
G75*
G02*
X29411850Y67964000I-268750J0D01*
G01*
X28449350Y67964000D01*
G75*
G02*
X28180600Y68232750I0J268750D01*
G01*
X28180600Y68770250D01*
G75*
G02*
X28449350Y69039000I268750J0D01*
G01*
G37*
G36*
G01*
X28449350Y67164000D02*
X29411850Y67164000D01*
G75*
G02*
X29680600Y66895250I0J-268750D01*
G01*
X29680600Y66357750D01*
G75*
G02*
X29411850Y66089000I-268750J0D01*
G01*
X28449350Y66089000D01*
G75*
G02*
X28180600Y66357750I0J268750D01*
G01*
X28180600Y66895250D01*
G75*
G02*
X28449350Y67164000I268750J0D01*
G01*
G37*
%TD*%
%TO.C,D3*%
G36*
G01*
X76198650Y67049600D02*
X75236150Y67049600D01*
G75*
G02*
X74967400Y67318350I0J268750D01*
G01*
X74967400Y67855850D01*
G75*
G02*
X75236150Y68124600I268750J0D01*
G01*
X76198650Y68124600D01*
G75*
G02*
X76467400Y67855850I0J-268750D01*
G01*
X76467400Y67318350D01*
G75*
G02*
X76198650Y67049600I-268750J0D01*
G01*
G37*
G36*
G01*
X76198650Y65174600D02*
X75236150Y65174600D01*
G75*
G02*
X74967400Y65443350I0J268750D01*
G01*
X74967400Y65980850D01*
G75*
G02*
X75236150Y66249600I268750J0D01*
G01*
X76198650Y66249600D01*
G75*
G02*
X76467400Y65980850I0J-268750D01*
G01*
X76467400Y65443350D01*
G75*
G02*
X76198650Y65174600I-268750J0D01*
G01*
G37*
%TD*%
D14*
%TO.C,J2*%
X15491800Y53390800D03*
X15491800Y61010800D03*
D15*
X15741800Y58500800D03*
X15741800Y55900800D03*
%TD*%
D16*
%TO.C,J3*%
X80289400Y57251600D03*
X77749400Y54711600D03*
X82829400Y54711600D03*
X82829400Y59791600D03*
X77749400Y59791600D03*
%TD*%
%TO.C,L2*%
G36*
G01*
X24569600Y57873800D02*
X24569600Y60083800D01*
G75*
G02*
X24839600Y60353800I270000J0D01*
G01*
X25649600Y60353800D01*
G75*
G02*
X25919600Y60083800I0J-270000D01*
G01*
X25919600Y57873800D01*
G75*
G02*
X25649600Y57603800I-270000J0D01*
G01*
X24839600Y57603800D01*
G75*
G02*
X24569600Y57873800I0J270000D01*
G01*
G37*
G36*
G01*
X27369600Y57873800D02*
X27369600Y60083800D01*
G75*
G02*
X27639600Y60353800I270000J0D01*
G01*
X28449600Y60353800D01*
G75*
G02*
X28719600Y60083800I0J-270000D01*
G01*
X28719600Y57873800D01*
G75*
G02*
X28449600Y57603800I-270000J0D01*
G01*
X27639600Y57603800D01*
G75*
G02*
X27369600Y57873800I0J270000D01*
G01*
G37*
%TD*%
%TO.C,R1*%
G36*
G01*
X38739800Y64670250D02*
X38739800Y64107750D01*
G75*
G02*
X38496050Y63864000I-243750J0D01*
G01*
X38008550Y63864000D01*
G75*
G02*
X37764800Y64107750I0J243750D01*
G01*
X37764800Y64670250D01*
G75*
G02*
X38008550Y64914000I243750J0D01*
G01*
X38496050Y64914000D01*
G75*
G02*
X38739800Y64670250I0J-243750D01*
G01*
G37*
G36*
G01*
X40314800Y64670250D02*
X40314800Y64107750D01*
G75*
G02*
X40071050Y63864000I-243750J0D01*
G01*
X39583550Y63864000D01*
G75*
G02*
X39339800Y64107750I0J243750D01*
G01*
X39339800Y64670250D01*
G75*
G02*
X39583550Y64914000I243750J0D01*
G01*
X40071050Y64914000D01*
G75*
G02*
X40314800Y64670250I0J-243750D01*
G01*
G37*
%TD*%
%TO.C,R2*%
G36*
G01*
X47350400Y65356050D02*
X47350400Y64793550D01*
G75*
G02*
X47106650Y64549800I-243750J0D01*
G01*
X46619150Y64549800D01*
G75*
G02*
X46375400Y64793550I0J243750D01*
G01*
X46375400Y65356050D01*
G75*
G02*
X46619150Y65599800I243750J0D01*
G01*
X47106650Y65599800D01*
G75*
G02*
X47350400Y65356050I0J-243750D01*
G01*
G37*
G36*
G01*
X48925400Y65356050D02*
X48925400Y64793550D01*
G75*
G02*
X48681650Y64549800I-243750J0D01*
G01*
X48194150Y64549800D01*
G75*
G02*
X47950400Y64793550I0J243750D01*
G01*
X47950400Y65356050D01*
G75*
G02*
X48194150Y65599800I243750J0D01*
G01*
X48681650Y65599800D01*
G75*
G02*
X48925400Y65356050I0J-243750D01*
G01*
G37*
%TD*%
%TO.C,R3*%
G36*
G01*
X32923400Y51259050D02*
X32923400Y50696550D01*
G75*
G02*
X32679650Y50452800I-243750J0D01*
G01*
X32192150Y50452800D01*
G75*
G02*
X31948400Y50696550I0J243750D01*
G01*
X31948400Y51259050D01*
G75*
G02*
X32192150Y51502800I243750J0D01*
G01*
X32679650Y51502800D01*
G75*
G02*
X32923400Y51259050I0J-243750D01*
G01*
G37*
G36*
G01*
X31348400Y51259050D02*
X31348400Y50696550D01*
G75*
G02*
X31104650Y50452800I-243750J0D01*
G01*
X30617150Y50452800D01*
G75*
G02*
X30373400Y50696550I0J243750D01*
G01*
X30373400Y51259050D01*
G75*
G02*
X30617150Y51502800I243750J0D01*
G01*
X31104650Y51502800D01*
G75*
G02*
X31348400Y51259050I0J-243750D01*
G01*
G37*
%TD*%
%TO.C,R4*%
G36*
G01*
X29211850Y64587400D02*
X28649350Y64587400D01*
G75*
G02*
X28405600Y64831150I0J243750D01*
G01*
X28405600Y65318650D01*
G75*
G02*
X28649350Y65562400I243750J0D01*
G01*
X29211850Y65562400D01*
G75*
G02*
X29455600Y65318650I0J-243750D01*
G01*
X29455600Y64831150D01*
G75*
G02*
X29211850Y64587400I-243750J0D01*
G01*
G37*
G36*
G01*
X29211850Y63012400D02*
X28649350Y63012400D01*
G75*
G02*
X28405600Y63256150I0J243750D01*
G01*
X28405600Y63743650D01*
G75*
G02*
X28649350Y63987400I243750J0D01*
G01*
X29211850Y63987400D01*
G75*
G02*
X29455600Y63743650I0J-243750D01*
G01*
X29455600Y63256150D01*
G75*
G02*
X29211850Y63012400I-243750J0D01*
G01*
G37*
%TD*%
%TO.C,R5*%
G36*
G01*
X71851600Y67308150D02*
X71851600Y67870650D01*
G75*
G02*
X72095350Y68114400I243750J0D01*
G01*
X72582850Y68114400D01*
G75*
G02*
X72826600Y67870650I0J-243750D01*
G01*
X72826600Y67308150D01*
G75*
G02*
X72582850Y67064400I-243750J0D01*
G01*
X72095350Y67064400D01*
G75*
G02*
X71851600Y67308150I0J243750D01*
G01*
G37*
G36*
G01*
X73426600Y67308150D02*
X73426600Y67870650D01*
G75*
G02*
X73670350Y68114400I243750J0D01*
G01*
X74157850Y68114400D01*
G75*
G02*
X74401600Y67870650I0J-243750D01*
G01*
X74401600Y67308150D01*
G75*
G02*
X74157850Y67064400I-243750J0D01*
G01*
X73670350Y67064400D01*
G75*
G02*
X73426600Y67308150I0J243750D01*
G01*
G37*
%TD*%
%TO.C,R6*%
G36*
G01*
X62758400Y46657950D02*
X62758400Y47220450D01*
G75*
G02*
X63002150Y47464200I243750J0D01*
G01*
X63489650Y47464200D01*
G75*
G02*
X63733400Y47220450I0J-243750D01*
G01*
X63733400Y46657950D01*
G75*
G02*
X63489650Y46414200I-243750J0D01*
G01*
X63002150Y46414200D01*
G75*
G02*
X62758400Y46657950I0J243750D01*
G01*
G37*
G36*
G01*
X64333400Y46657950D02*
X64333400Y47220450D01*
G75*
G02*
X64577150Y47464200I243750J0D01*
G01*
X65064650Y47464200D01*
G75*
G02*
X65308400Y47220450I0J-243750D01*
G01*
X65308400Y46657950D01*
G75*
G02*
X65064650Y46414200I-243750J0D01*
G01*
X64577150Y46414200D01*
G75*
G02*
X64333400Y46657950I0J243750D01*
G01*
G37*
%TD*%
%TO.C,R7*%
G36*
G01*
X28979550Y55478400D02*
X29542050Y55478400D01*
G75*
G02*
X29785800Y55234650I0J-243750D01*
G01*
X29785800Y54747150D01*
G75*
G02*
X29542050Y54503400I-243750J0D01*
G01*
X28979550Y54503400D01*
G75*
G02*
X28735800Y54747150I0J243750D01*
G01*
X28735800Y55234650D01*
G75*
G02*
X28979550Y55478400I243750J0D01*
G01*
G37*
G36*
G01*
X28979550Y57053400D02*
X29542050Y57053400D01*
G75*
G02*
X29785800Y56809650I0J-243750D01*
G01*
X29785800Y56322150D01*
G75*
G02*
X29542050Y56078400I-243750J0D01*
G01*
X28979550Y56078400D01*
G75*
G02*
X28735800Y56322150I0J243750D01*
G01*
X28735800Y56809650D01*
G75*
G02*
X28979550Y57053400I243750J0D01*
G01*
G37*
%TD*%
%TO.C,R8*%
G36*
G01*
X28979550Y54056200D02*
X29542050Y54056200D01*
G75*
G02*
X29785800Y53812450I0J-243750D01*
G01*
X29785800Y53324950D01*
G75*
G02*
X29542050Y53081200I-243750J0D01*
G01*
X28979550Y53081200D01*
G75*
G02*
X28735800Y53324950I0J243750D01*
G01*
X28735800Y53812450D01*
G75*
G02*
X28979550Y54056200I243750J0D01*
G01*
G37*
G36*
G01*
X28979550Y52481200D02*
X29542050Y52481200D01*
G75*
G02*
X29785800Y52237450I0J-243750D01*
G01*
X29785800Y51749950D01*
G75*
G02*
X29542050Y51506200I-243750J0D01*
G01*
X28979550Y51506200D01*
G75*
G02*
X28735800Y51749950I0J243750D01*
G01*
X28735800Y52237450D01*
G75*
G02*
X28979550Y52481200I243750J0D01*
G01*
G37*
%TD*%
D17*
%TO.C,SW1*%
X33343200Y67951200D03*
X35643200Y67951200D03*
D18*
X37893200Y68851200D03*
X31093200Y68851200D03*
D19*
X32393200Y66751200D03*
X36593200Y66751200D03*
%TD*%
%TO.C,SW2*%
X46931000Y66700400D03*
X42731000Y66700400D03*
D18*
X41431000Y68800400D03*
X48231000Y68800400D03*
D17*
X45981000Y67900400D03*
X43681000Y67900400D03*
%TD*%
D10*
%TO.C,U1*%
G36*
X36060650Y60382776D02*
G01*
X35813163Y60135289D01*
X35318188Y60630264D01*
X35565675Y60877751D01*
X36060650Y60382776D01*
G37*
G36*
X34080751Y62362675D02*
G01*
X33833264Y62115188D01*
X33338289Y62610163D01*
X33585776Y62857650D01*
X34080751Y62362675D01*
G37*
G36*
X36626336Y60948462D02*
G01*
X36378849Y60700975D01*
X35883874Y61195950D01*
X36131361Y61443437D01*
X36626336Y60948462D01*
G37*
G36*
X37192021Y61514147D02*
G01*
X36944534Y61266660D01*
X36449559Y61761635D01*
X36697046Y62009122D01*
X37192021Y61514147D01*
G37*
G36*
X37757707Y62079833D02*
G01*
X37510220Y61832346D01*
X37015245Y62327321D01*
X37262732Y62574808D01*
X37757707Y62079833D01*
G37*
G36*
X34646437Y62928361D02*
G01*
X34398950Y62680874D01*
X33903975Y63175849D01*
X34151462Y63423336D01*
X34646437Y62928361D01*
G37*
G36*
X35212122Y63494046D02*
G01*
X34964635Y63246559D01*
X34469660Y63741534D01*
X34717147Y63989021D01*
X35212122Y63494046D01*
G37*
G36*
X35777808Y64059732D02*
G01*
X35530321Y63812245D01*
X35035346Y64307220D01*
X35282833Y64554707D01*
X35777808Y64059732D01*
G37*
G36*
X36552090Y63136958D02*
G01*
X35915694Y62500562D01*
X35703562Y62712694D01*
X36339958Y63349090D01*
X36552090Y63136958D01*
G37*
G36*
X35438538Y62023406D02*
G01*
X34802142Y61387010D01*
X34590010Y61599142D01*
X35226406Y62235538D01*
X35438538Y62023406D01*
G37*
%TD*%
D20*
%TO.C,U3*%
X54849000Y49304000D03*
X56849000Y49304000D03*
X58849000Y49304000D03*
X60849000Y49304000D03*
X62849000Y49304000D03*
X64849000Y49304000D03*
X66849000Y49304000D03*
X68849000Y49304000D03*
X68849000Y65504000D03*
X66849000Y65504000D03*
X64849000Y65504000D03*
X62849000Y65504000D03*
X60849000Y65504000D03*
X58849000Y65504000D03*
X56849000Y65504000D03*
X54849000Y65504000D03*
%TD*%
D21*
%TO.C,U4*%
X27518400Y56192600D03*
X26568400Y56192600D03*
X25618400Y56192600D03*
X25618400Y53992600D03*
X27518400Y53992600D03*
%TD*%
D22*
%TO.C,J1*%
X36398200Y46964600D03*
D23*
X38938200Y46964600D03*
X41478200Y46964600D03*
X44018200Y46964600D03*
X46558200Y46964600D03*
X49098200Y46964600D03*
X51638200Y46964600D03*
%TD*%
M02*
