M48
; DRILL file {KiCad (5.1.6)-1} date 12/02/20 12:11:43
; FORMAT={3:3/ absolute / metric / suppress leading zeros}
; #@! TF.CreationDate,2020-12-02T12:11:43+01:00
; #@! TF.GenerationSoftware,Kicad,Pcbnew,(5.1.6)-1
; #@! TF.FileFunction,Plated,1,2,PTH
FMAT,2
METRIC,TZ
T1C0.300
T2C1.500
%
G90
G05
T1
X21107Y57048
X22117Y57030
X23114Y62484
X23368Y64008
X25222Y49632
X25349Y62586
X26391Y51664
X30048Y51664
X30277Y57887
X30328Y58598
X30683Y62586
X31775Y59563
X32614Y50749
X32817Y59969
X32918Y49835
X33223Y64567
X33376Y60528
X34519Y57810
X34722Y54635
X35499Y49860
X35738Y53467
X35966Y63983
X36043Y59131
X36548Y59795
X36881Y62001
X37287Y53264
X37541Y50597
X38659Y54026
X40056Y50444
X40259Y51435
X40281Y62332
X40462Y57023
X40820Y61807
X40843Y52324
X41021Y59842
X41280Y61333
X42342Y56896
X42443Y59182
X42590Y53946
X42774Y50063
X43798Y52764
X45415Y55499
X45415Y53086
X45415Y49759
X50317Y62205
X50521Y58166
X52934Y56159
X54534Y57531
X56617Y55321
X62027Y60274
X65837Y59842
X65964Y57506
X66192Y54762
X66827Y55397
X67462Y56032
X67589Y49809
X67970Y52349
X67970Y51460
X67970Y50571
X68097Y56667
X68199Y53213
X68707Y62738
X68732Y57302
X68732Y53873
X69367Y57937
X69367Y54508
X70383Y58445
T2
X71749Y59792
X71749Y54712
X74289Y57252
X76829Y59792
X76829Y54712
T0
M30
