%TF.GenerationSoftware,KiCad,Pcbnew,(5.1.6)-1*%
%TF.CreationDate,2020-12-01T11:19:40+01:00*%
%TF.ProjectId,LoRa_Dongle,4c6f5261-5f44-46f6-9e67-6c652e6b6963,rev?*%
%TF.SameCoordinates,Original*%
%TF.FileFunction,Other,Fab,Top*%
%FSLAX46Y46*%
G04 Gerber Fmt 4.6, Leading zero omitted, Abs format (unit mm)*
G04 Created by KiCad (PCBNEW (5.1.6)-1) date 2020-12-01 11:19:40*
%MOMM*%
%LPD*%
G01*
G04 APERTURE LIST*
%ADD10C,0.200000*%
%ADD11C,0.127000*%
%ADD12C,0.100000*%
%ADD13C,0.120000*%
%ADD14C,0.015000*%
%ADD15C,0.150000*%
%ADD16C,0.060000*%
%ADD17C,0.080000*%
%ADD18C,0.075000*%
G04 APERTURE END LIST*
D10*
%TO.C,U2*%
X42201200Y50078002D02*
G75*
G03*
X42201200Y50078002I-100000J0D01*
G01*
D11*
X39852600Y61236147D02*
X44802347Y56286400D01*
X34902853Y56286400D02*
X39852600Y51336653D01*
X39852600Y61236147D02*
X34902853Y56286400D01*
X44802347Y56286400D02*
X39852600Y51336653D01*
D12*
%TO.C,C1*%
X38239800Y65462200D02*
X38239800Y66262200D01*
X38239800Y66262200D02*
X39839800Y66262200D01*
X39839800Y66262200D02*
X39839800Y65462200D01*
X39839800Y65462200D02*
X38239800Y65462200D01*
%TO.C,C2*%
X48450400Y63100000D02*
X46850400Y63100000D01*
X48450400Y63900000D02*
X48450400Y63100000D01*
X46850400Y63900000D02*
X48450400Y63900000D01*
X46850400Y63100000D02*
X46850400Y63900000D01*
%TO.C,C3*%
X45912872Y58296443D02*
X46478557Y58862128D01*
X46478557Y58862128D02*
X47609928Y57730757D01*
X47609928Y57730757D02*
X47044243Y57165072D01*
X47044243Y57165072D02*
X45912872Y58296443D01*
%TO.C,C4*%
X37163643Y49113272D02*
X36032272Y50244643D01*
X37729328Y49678957D02*
X37163643Y49113272D01*
X36597957Y50810328D02*
X37729328Y49678957D01*
X36032272Y50244643D02*
X36597957Y50810328D01*
%TO.C,C5*%
X34464357Y52943928D02*
X35595728Y51812557D01*
X33898672Y52378243D02*
X34464357Y52943928D01*
X35030043Y51246872D02*
X33898672Y52378243D01*
X35595728Y51812557D02*
X35030043Y51246872D01*
%TO.C,C6*%
X25641400Y51898600D02*
X25641400Y52698600D01*
X25641400Y52698600D02*
X27241400Y52698600D01*
X27241400Y52698600D02*
X27241400Y51898600D01*
X27241400Y51898600D02*
X25641400Y51898600D01*
%TO.C,C9*%
X30321200Y58178800D02*
X29521200Y58178800D01*
X29521200Y58178800D02*
X29521200Y59778800D01*
X29521200Y59778800D02*
X30321200Y59778800D01*
X30321200Y59778800D02*
X30321200Y58178800D01*
%TO.C,C10*%
X31819800Y59778800D02*
X31819800Y58178800D01*
X31019800Y59778800D02*
X31819800Y59778800D01*
X31019800Y58178800D02*
X31019800Y59778800D01*
X31819800Y58178800D02*
X31019800Y58178800D01*
%TO.C,D1*%
X32433200Y47383000D02*
X31433200Y46383000D01*
X28933200Y49883000D02*
X28933200Y46383000D01*
X28933200Y46383000D02*
X32433200Y46383000D01*
X32433200Y46383000D02*
X32433200Y49883000D01*
X32433200Y49883000D02*
X28933200Y49883000D01*
X32183200Y48133000D02*
G75*
G03*
X32183200Y48133000I-1500000J0D01*
G01*
%TO.C,D2*%
X29530600Y66564000D02*
X29530600Y68264000D01*
X29530600Y68264000D02*
X29230600Y68564000D01*
X29230600Y68564000D02*
X28330600Y68564000D01*
X28330600Y68564000D02*
X28330600Y66564000D01*
X28330600Y66564000D02*
X29530600Y66564000D01*
%TO.C,D3*%
X76317400Y67649600D02*
X75117400Y67649600D01*
X76317400Y65649600D02*
X76317400Y67649600D01*
X75417400Y65649600D02*
X76317400Y65649600D01*
X75117400Y65949600D02*
X75417400Y65649600D01*
X75117400Y67649600D02*
X75117400Y65949600D01*
%TO.C,J3*%
X84239400Y60751600D02*
X84239400Y53751600D01*
X84239400Y60751600D02*
X77239400Y60751600D01*
X77239400Y60751600D02*
X77239400Y53751600D01*
X84239400Y53751600D02*
X77239400Y53751600D01*
X96789400Y60251600D02*
X96789400Y54251600D01*
X96789400Y60251600D02*
X85359400Y60251600D01*
X96789400Y54251600D02*
X85359400Y54251600D01*
X84239400Y53351600D02*
X85359400Y53351600D01*
X85359400Y53351600D02*
X85359400Y61151600D01*
X85359400Y61151600D02*
X84239400Y61151600D01*
X84239400Y61151600D02*
X84239400Y53351600D01*
X86289400Y60251600D02*
X86989400Y54251600D01*
X87289400Y60251600D02*
X87989400Y54251600D01*
X88289400Y60251600D02*
X88989400Y54251600D01*
X89289400Y60251600D02*
X89989400Y54251600D01*
X90289400Y60251600D02*
X90989400Y54251600D01*
X91289400Y60251600D02*
X91989400Y54251600D01*
X92289400Y60251600D02*
X92989400Y54251600D01*
X93289400Y60251600D02*
X93989400Y54251600D01*
X94289400Y60251600D02*
X94989400Y54251600D01*
%TO.C,L2*%
X25044600Y57728800D02*
X25044600Y60228800D01*
X25044600Y60228800D02*
X28244600Y60228800D01*
X28244600Y60228800D02*
X28244600Y57728800D01*
X28244600Y57728800D02*
X25044600Y57728800D01*
%TO.C,R1*%
X38239800Y64789000D02*
X39839800Y64789000D01*
X38239800Y63989000D02*
X38239800Y64789000D01*
X39839800Y63989000D02*
X38239800Y63989000D01*
X39839800Y64789000D02*
X39839800Y63989000D01*
%TO.C,R2*%
X46850400Y65474800D02*
X48450400Y65474800D01*
X46850400Y64674800D02*
X46850400Y65474800D01*
X48450400Y64674800D02*
X46850400Y64674800D01*
X48450400Y65474800D02*
X48450400Y64674800D01*
%TO.C,R3*%
X32448400Y51377800D02*
X32448400Y50577800D01*
X32448400Y50577800D02*
X30848400Y50577800D01*
X30848400Y50577800D02*
X30848400Y51377800D01*
X30848400Y51377800D02*
X32448400Y51377800D01*
%TO.C,R4*%
X29330600Y65087400D02*
X29330600Y63487400D01*
X28530600Y65087400D02*
X29330600Y65087400D01*
X28530600Y63487400D02*
X28530600Y65087400D01*
X29330600Y63487400D02*
X28530600Y63487400D01*
%TO.C,R5*%
X72326600Y67189400D02*
X72326600Y67989400D01*
X72326600Y67989400D02*
X73926600Y67989400D01*
X73926600Y67989400D02*
X73926600Y67189400D01*
X73926600Y67189400D02*
X72326600Y67189400D01*
%TO.C,R6*%
X63233400Y46539200D02*
X63233400Y47339200D01*
X63233400Y47339200D02*
X64833400Y47339200D01*
X64833400Y47339200D02*
X64833400Y46539200D01*
X64833400Y46539200D02*
X63233400Y46539200D01*
%TO.C,R7*%
X28860800Y54978400D02*
X28860800Y56578400D01*
X29660800Y54978400D02*
X28860800Y54978400D01*
X29660800Y56578400D02*
X29660800Y54978400D01*
X28860800Y56578400D02*
X29660800Y56578400D01*
%TO.C,R8*%
X28860800Y53581200D02*
X29660800Y53581200D01*
X29660800Y53581200D02*
X29660800Y51981200D01*
X29660800Y51981200D02*
X28860800Y51981200D01*
X28860800Y51981200D02*
X28860800Y53581200D01*
D13*
%TO.C,SW1*%
X37287200Y67640200D02*
X37287200Y66878200D01*
X38049200Y67640200D02*
X37287200Y67640200D01*
X30937200Y66878200D02*
X38049200Y66878200D01*
X30937200Y68783200D02*
X30937200Y66878200D01*
X31064200Y68783200D02*
X30937200Y68783200D01*
X38049200Y68783200D02*
X31064200Y68783200D01*
X38049200Y66878200D02*
X38049200Y68783200D01*
%TO.C,SW2*%
X48387000Y66827400D02*
X48387000Y68732400D01*
X48387000Y68732400D02*
X41402000Y68732400D01*
X41402000Y68732400D02*
X41275000Y68732400D01*
X41275000Y68732400D02*
X41275000Y66827400D01*
X41275000Y66827400D02*
X48387000Y66827400D01*
X48387000Y67589400D02*
X47625000Y67589400D01*
X47625000Y67589400D02*
X47625000Y66827400D01*
D12*
%TO.C,U1*%
X34876247Y60259033D02*
X35583353Y60259033D01*
X37978748Y62654428D02*
X35583353Y60259033D01*
X35857428Y64775748D02*
X37978748Y62654428D01*
X33108480Y62026800D02*
X35857428Y64775748D01*
X34876247Y60259033D02*
X33108480Y62026800D01*
%TO.C,U3*%
X55349000Y51404000D02*
G75*
G03*
X55349000Y51404000I-500000J0D01*
G01*
X53849000Y48554000D02*
X53849000Y66254000D01*
X53849000Y66254000D02*
X69849000Y66254000D01*
X69849000Y66254000D02*
X69849000Y48554000D01*
X69849000Y48554000D02*
X53849000Y48554000D01*
%TO.C,U4*%
X27468400Y55992600D02*
X28118400Y55342600D01*
X28118400Y54192600D02*
X28118400Y55342600D01*
X27468400Y55992600D02*
X25018400Y55992600D01*
X25018400Y54192600D02*
X25018400Y55992600D01*
X28118400Y54192600D02*
X25018400Y54192600D01*
%TO.C,J1*%
X35128200Y46329600D02*
X35128200Y48234600D01*
X35128200Y48234600D02*
X52908200Y48234600D01*
X52908200Y48234600D02*
X52908200Y45694600D01*
X52908200Y45694600D02*
X35763200Y45694600D01*
X35763200Y45694600D02*
X35128200Y46329600D01*
%TD*%
%TO.C,U2*%
D14*
X33032555Y71306526D02*
X33369272Y70969809D01*
X32763181Y71171839D02*
X33705990Y71643244D01*
X33234585Y70700435D01*
X34076379Y71272854D02*
X34480440Y70868793D01*
X33571303Y70363717D02*
X34278409Y71070824D01*
X34009035Y69993328D02*
X34076379Y69858641D01*
X34244738Y69690282D01*
X34345753Y69656610D01*
X34413096Y69656610D01*
X34514112Y69690282D01*
X34581455Y69757626D01*
X34615127Y69858641D01*
X34615127Y69925984D01*
X34581455Y70027000D01*
X34480440Y70195358D01*
X34446768Y70296374D01*
X34446768Y70363717D01*
X34480440Y70464732D01*
X34547783Y70532076D01*
X34648799Y70565748D01*
X34716142Y70565748D01*
X34817157Y70532076D01*
X34985516Y70363717D01*
X35052860Y70229030D01*
X34850829Y69488252D02*
X35187547Y69151534D01*
X34581455Y69353565D02*
X35524264Y69824969D01*
X35052860Y68882160D01*
X35288562Y68646458D02*
X35995669Y69353565D01*
X35726295Y68612786D01*
X36467073Y68882160D01*
X35759967Y68175053D01*
X36096684Y67838336D02*
X36803791Y68545442D01*
X36972150Y68377084D01*
X37039493Y68242397D01*
X37039493Y68107710D01*
X37005821Y68006694D01*
X36904806Y67838336D01*
X36803791Y67737320D01*
X36635432Y67636305D01*
X36534417Y67602633D01*
X36399730Y67602633D01*
X36265043Y67669977D01*
X36096684Y67838336D01*
X37409882Y67804664D02*
X37477226Y67804664D01*
X37578241Y67770992D01*
X37746600Y67602633D01*
X37780272Y67501618D01*
X37780272Y67434275D01*
X37746600Y67333259D01*
X37679256Y67265916D01*
X37544569Y67198572D01*
X36736447Y67198572D01*
X37174180Y66760840D01*
X37847615Y66087405D02*
X37443554Y66491466D01*
X37645585Y66289435D02*
X38352691Y66996542D01*
X38184333Y66962870D01*
X38049646Y66962870D01*
X37948630Y66996542D01*
X38521050Y66154748D02*
X38756752Y65919046D01*
X38487378Y65447641D02*
X38150661Y65784359D01*
X38857768Y66491466D01*
X39194485Y66154748D01*
X39160813Y64774206D02*
X38756752Y65178267D01*
X38958783Y64976237D02*
X39665890Y65683344D01*
X39497531Y65649672D01*
X39362844Y65649672D01*
X39261829Y65683344D01*
X39968935Y64774206D02*
X39935264Y64875222D01*
X39935264Y64942565D01*
X39968935Y65043580D01*
X40002607Y65077252D01*
X40103622Y65110924D01*
X40170966Y65110924D01*
X40271981Y65077252D01*
X40406668Y64942565D01*
X40440340Y64841550D01*
X40440340Y64774206D01*
X40406668Y64673191D01*
X40372996Y64639519D01*
X40271981Y64605848D01*
X40204638Y64605848D01*
X40103622Y64639519D01*
X39968935Y64774206D01*
X39867920Y64807878D01*
X39800577Y64807878D01*
X39699561Y64774206D01*
X39564874Y64639519D01*
X39531203Y64538504D01*
X39531203Y64471161D01*
X39564874Y64370145D01*
X39699561Y64235458D01*
X39800577Y64201787D01*
X39867920Y64201787D01*
X39968935Y64235458D01*
X40103622Y64370145D01*
X40137294Y64471161D01*
X40137294Y64538504D01*
X40103622Y64639519D01*
X40305653Y64033428D02*
X40642370Y63696710D01*
X40036279Y63898741D02*
X40979088Y64370145D01*
X40507683Y63427336D01*
X41012760Y63461008D02*
X41551508Y62922260D01*
X41787210Y62551871D02*
X42123928Y62215153D01*
X41517836Y62417184D02*
X42460645Y62888588D01*
X41989241Y61945779D01*
X42932050Y62417184D02*
X42359630Y61844764D01*
X42325958Y61743749D01*
X42325958Y61676405D01*
X42359630Y61575390D01*
X42494317Y61440703D01*
X42595332Y61407031D01*
X42662676Y61407031D01*
X42763691Y61440703D01*
X43336111Y62013123D01*
X43571813Y61777420D02*
X43975874Y61373359D01*
X43066737Y60868283D02*
X43773843Y61575390D01*
%TO.C,REF\u002A\u002A*%
D15*
X61991838Y43769419D02*
X61991838Y44769419D01*
X62325171Y44055133D01*
X62658504Y44769419D01*
X62658504Y43769419D01*
X63277552Y43769419D02*
X63182314Y43817038D01*
X63134695Y43864657D01*
X63087076Y43959895D01*
X63087076Y44245609D01*
X63134695Y44340847D01*
X63182314Y44388466D01*
X63277552Y44436085D01*
X63420409Y44436085D01*
X63515647Y44388466D01*
X63563266Y44340847D01*
X63610885Y44245609D01*
X63610885Y43959895D01*
X63563266Y43864657D01*
X63515647Y43817038D01*
X63420409Y43769419D01*
X63277552Y43769419D01*
X64468028Y44436085D02*
X64468028Y43769419D01*
X64039457Y44436085D02*
X64039457Y43912276D01*
X64087076Y43817038D01*
X64182314Y43769419D01*
X64325171Y43769419D01*
X64420409Y43817038D01*
X64468028Y43864657D01*
X64944219Y44436085D02*
X64944219Y43769419D01*
X64944219Y44340847D02*
X64991838Y44388466D01*
X65087076Y44436085D01*
X65229933Y44436085D01*
X65325171Y44388466D01*
X65372790Y44293228D01*
X65372790Y43769419D01*
X65706123Y44436085D02*
X66087076Y44436085D01*
X65848980Y44769419D02*
X65848980Y43912276D01*
X65896600Y43817038D01*
X65991838Y43769419D01*
X66087076Y43769419D01*
X66420409Y43769419D02*
X66420409Y44436085D01*
X66420409Y44769419D02*
X66372790Y44721800D01*
X66420409Y44674180D01*
X66468028Y44721800D01*
X66420409Y44769419D01*
X66420409Y44674180D01*
X66896600Y44436085D02*
X66896600Y43769419D01*
X66896600Y44340847D02*
X66944219Y44388466D01*
X67039457Y44436085D01*
X67182314Y44436085D01*
X67277552Y44388466D01*
X67325171Y44293228D01*
X67325171Y43769419D01*
X68229933Y44436085D02*
X68229933Y43626561D01*
X68182314Y43531323D01*
X68134695Y43483704D01*
X68039457Y43436085D01*
X67896600Y43436085D01*
X67801361Y43483704D01*
X68229933Y43817038D02*
X68134695Y43769419D01*
X67944219Y43769419D01*
X67848980Y43817038D01*
X67801361Y43864657D01*
X67753742Y43959895D01*
X67753742Y44245609D01*
X67801361Y44340847D01*
X67848980Y44388466D01*
X67944219Y44436085D01*
X68134695Y44436085D01*
X68229933Y44388466D01*
X68706123Y43769419D02*
X68706123Y44769419D01*
X68706123Y44293228D02*
X69277552Y44293228D01*
X69277552Y43769419D02*
X69277552Y44769419D01*
X69896600Y43769419D02*
X69801361Y43817038D01*
X69753742Y43864657D01*
X69706123Y43959895D01*
X69706123Y44245609D01*
X69753742Y44340847D01*
X69801361Y44388466D01*
X69896600Y44436085D01*
X70039457Y44436085D01*
X70134695Y44388466D01*
X70182314Y44340847D01*
X70229933Y44245609D01*
X70229933Y43959895D01*
X70182314Y43864657D01*
X70134695Y43817038D01*
X70039457Y43769419D01*
X69896600Y43769419D01*
X70801361Y43769419D02*
X70706123Y43817038D01*
X70658504Y43912276D01*
X70658504Y44769419D01*
X71563266Y43817038D02*
X71468028Y43769419D01*
X71277552Y43769419D01*
X71182314Y43817038D01*
X71134695Y43912276D01*
X71134695Y44293228D01*
X71182314Y44388466D01*
X71277552Y44436085D01*
X71468028Y44436085D01*
X71563266Y44388466D01*
X71610885Y44293228D01*
X71610885Y44197990D01*
X71134695Y44102752D01*
X71801361Y43674180D02*
X72563266Y43674180D01*
X72753742Y44674180D02*
X72801361Y44721800D01*
X72896600Y44769419D01*
X73134695Y44769419D01*
X73229933Y44721800D01*
X73277552Y44674180D01*
X73325171Y44578942D01*
X73325171Y44483704D01*
X73277552Y44340847D01*
X72706123Y43769419D01*
X73325171Y43769419D01*
X73753742Y43864657D02*
X73801361Y43817038D01*
X73753742Y43769419D01*
X73706123Y43817038D01*
X73753742Y43864657D01*
X73753742Y43769419D01*
X74182314Y44674180D02*
X74229933Y44721800D01*
X74325171Y44769419D01*
X74563266Y44769419D01*
X74658504Y44721800D01*
X74706123Y44674180D01*
X74753742Y44578942D01*
X74753742Y44483704D01*
X74706123Y44340847D01*
X74134695Y43769419D01*
X74753742Y43769419D01*
X75182314Y43769419D02*
X75182314Y44436085D01*
X75182314Y44340847D02*
X75229933Y44388466D01*
X75325171Y44436085D01*
X75468028Y44436085D01*
X75563266Y44388466D01*
X75610885Y44293228D01*
X75610885Y43769419D01*
X75610885Y44293228D02*
X75658504Y44388466D01*
X75753742Y44436085D01*
X75896600Y44436085D01*
X75991838Y44388466D01*
X76039457Y44293228D01*
X76039457Y43769419D01*
X76515647Y43769419D02*
X76515647Y44436085D01*
X76515647Y44340847D02*
X76563266Y44388466D01*
X76658504Y44436085D01*
X76801361Y44436085D01*
X76896600Y44388466D01*
X76944219Y44293228D01*
X76944219Y43769419D01*
X76944219Y44293228D02*
X76991838Y44388466D01*
X77087076Y44436085D01*
X77229933Y44436085D01*
X77325171Y44388466D01*
X77372790Y44293228D01*
X77372790Y43769419D01*
X77610885Y43674180D02*
X78372790Y43674180D01*
X78610885Y43769419D02*
X78610885Y44769419D01*
X78944219Y44055133D01*
X79277552Y44769419D01*
X79277552Y43769419D01*
X79706123Y44674180D02*
X79753742Y44721800D01*
X79848980Y44769419D01*
X80087076Y44769419D01*
X80182314Y44721800D01*
X80229933Y44674180D01*
X80277552Y44578942D01*
X80277552Y44483704D01*
X80229933Y44340847D01*
X79658504Y43769419D01*
X80277552Y43769419D01*
X80468028Y43674180D02*
X81229933Y43674180D01*
X81468028Y43769419D02*
X81468028Y44769419D01*
X81848980Y44769419D01*
X81944219Y44721800D01*
X81991838Y44674180D01*
X82039457Y44578942D01*
X82039457Y44436085D01*
X81991838Y44340847D01*
X81944219Y44293228D01*
X81848980Y44245609D01*
X81468028Y44245609D01*
X82896600Y43769419D02*
X82896600Y44293228D01*
X82848980Y44388466D01*
X82753742Y44436085D01*
X82563266Y44436085D01*
X82468028Y44388466D01*
X82896600Y43817038D02*
X82801361Y43769419D01*
X82563266Y43769419D01*
X82468028Y43817038D01*
X82420409Y43912276D01*
X82420409Y44007514D01*
X82468028Y44102752D01*
X82563266Y44150371D01*
X82801361Y44150371D01*
X82896600Y44197990D01*
X83801361Y43769419D02*
X83801361Y44769419D01*
X83801361Y43817038D02*
X83706123Y43769419D01*
X83515647Y43769419D01*
X83420409Y43817038D01*
X83372790Y43864657D01*
X83325171Y43959895D01*
X83325171Y44245609D01*
X83372790Y44340847D01*
X83420409Y44388466D01*
X83515647Y44436085D01*
X83706123Y44436085D01*
X83801361Y44388466D01*
X84039457Y43674180D02*
X84801361Y43674180D01*
X84896600Y44769419D02*
X85229933Y43769419D01*
X85563266Y44769419D01*
X85896600Y43769419D02*
X85896600Y44436085D01*
X85896600Y44769419D02*
X85848980Y44721800D01*
X85896600Y44674180D01*
X85944219Y44721800D01*
X85896600Y44769419D01*
X85896600Y44674180D01*
X86801361Y43769419D02*
X86801361Y44293228D01*
X86753742Y44388466D01*
X86658504Y44436085D01*
X86468028Y44436085D01*
X86372790Y44388466D01*
X86801361Y43817038D02*
X86706123Y43769419D01*
X86468028Y43769419D01*
X86372790Y43817038D01*
X86325171Y43912276D01*
X86325171Y44007514D01*
X86372790Y44102752D01*
X86468028Y44150371D01*
X86706123Y44150371D01*
X86801361Y44197990D01*
X73363266Y46969419D02*
X73029933Y47445609D01*
X72791838Y46969419D02*
X72791838Y47969419D01*
X73172790Y47969419D01*
X73268028Y47921800D01*
X73315647Y47874180D01*
X73363266Y47778942D01*
X73363266Y47636085D01*
X73315647Y47540847D01*
X73268028Y47493228D01*
X73172790Y47445609D01*
X72791838Y47445609D01*
X73791838Y47493228D02*
X74125171Y47493228D01*
X74268028Y46969419D02*
X73791838Y46969419D01*
X73791838Y47969419D01*
X74268028Y47969419D01*
X75029933Y47493228D02*
X74696600Y47493228D01*
X74696600Y46969419D02*
X74696600Y47969419D01*
X75172790Y47969419D01*
X75696600Y47969419D02*
X75696600Y47731323D01*
X75458504Y47826561D02*
X75696600Y47731323D01*
X75934695Y47826561D01*
X75553742Y47540847D02*
X75696600Y47731323D01*
X75839457Y47540847D01*
X76458504Y47969419D02*
X76458504Y47731323D01*
X76220409Y47826561D02*
X76458504Y47731323D01*
X76696600Y47826561D01*
X76315647Y47540847D02*
X76458504Y47731323D01*
X76601361Y47540847D01*
X12766638Y63302019D02*
X12766638Y64302019D01*
X13099971Y63587733D01*
X13433304Y64302019D01*
X13433304Y63302019D01*
X14052352Y63302019D02*
X13957114Y63349638D01*
X13909495Y63397257D01*
X13861876Y63492495D01*
X13861876Y63778209D01*
X13909495Y63873447D01*
X13957114Y63921066D01*
X14052352Y63968685D01*
X14195209Y63968685D01*
X14290447Y63921066D01*
X14338066Y63873447D01*
X14385685Y63778209D01*
X14385685Y63492495D01*
X14338066Y63397257D01*
X14290447Y63349638D01*
X14195209Y63302019D01*
X14052352Y63302019D01*
X15242828Y63968685D02*
X15242828Y63302019D01*
X14814257Y63968685D02*
X14814257Y63444876D01*
X14861876Y63349638D01*
X14957114Y63302019D01*
X15099971Y63302019D01*
X15195209Y63349638D01*
X15242828Y63397257D01*
X15719019Y63968685D02*
X15719019Y63302019D01*
X15719019Y63873447D02*
X15766638Y63921066D01*
X15861876Y63968685D01*
X16004733Y63968685D01*
X16099971Y63921066D01*
X16147590Y63825828D01*
X16147590Y63302019D01*
X16480923Y63968685D02*
X16861876Y63968685D01*
X16623780Y64302019D02*
X16623780Y63444876D01*
X16671399Y63349638D01*
X16766638Y63302019D01*
X16861876Y63302019D01*
X17195209Y63302019D02*
X17195209Y63968685D01*
X17195209Y64302019D02*
X17147590Y64254400D01*
X17195209Y64206780D01*
X17242828Y64254400D01*
X17195209Y64302019D01*
X17195209Y64206780D01*
X17671399Y63968685D02*
X17671399Y63302019D01*
X17671399Y63873447D02*
X17719019Y63921066D01*
X17814257Y63968685D01*
X17957114Y63968685D01*
X18052352Y63921066D01*
X18099971Y63825828D01*
X18099971Y63302019D01*
X19004733Y63968685D02*
X19004733Y63159161D01*
X18957114Y63063923D01*
X18909495Y63016304D01*
X18814257Y62968685D01*
X18671399Y62968685D01*
X18576161Y63016304D01*
X19004733Y63349638D02*
X18909495Y63302019D01*
X18719019Y63302019D01*
X18623780Y63349638D01*
X18576161Y63397257D01*
X18528542Y63492495D01*
X18528542Y63778209D01*
X18576161Y63873447D01*
X18623780Y63921066D01*
X18719019Y63968685D01*
X18909495Y63968685D01*
X19004733Y63921066D01*
X19480923Y63302019D02*
X19480923Y64302019D01*
X19480923Y63825828D02*
X20052352Y63825828D01*
X20052352Y63302019D02*
X20052352Y64302019D01*
X20671399Y63302019D02*
X20576161Y63349638D01*
X20528542Y63397257D01*
X20480923Y63492495D01*
X20480923Y63778209D01*
X20528542Y63873447D01*
X20576161Y63921066D01*
X20671399Y63968685D01*
X20814257Y63968685D01*
X20909495Y63921066D01*
X20957114Y63873447D01*
X21004733Y63778209D01*
X21004733Y63492495D01*
X20957114Y63397257D01*
X20909495Y63349638D01*
X20814257Y63302019D01*
X20671399Y63302019D01*
X21576161Y63302019D02*
X21480923Y63349638D01*
X21433304Y63444876D01*
X21433304Y64302019D01*
X22338066Y63349638D02*
X22242828Y63302019D01*
X22052352Y63302019D01*
X21957114Y63349638D01*
X21909495Y63444876D01*
X21909495Y63825828D01*
X21957114Y63921066D01*
X22052352Y63968685D01*
X22242828Y63968685D01*
X22338066Y63921066D01*
X22385685Y63825828D01*
X22385685Y63730590D01*
X21909495Y63635352D01*
X22576161Y63206780D02*
X23338066Y63206780D01*
X23528542Y64206780D02*
X23576161Y64254400D01*
X23671399Y64302019D01*
X23909495Y64302019D01*
X24004733Y64254400D01*
X24052352Y64206780D01*
X24099971Y64111542D01*
X24099971Y64016304D01*
X24052352Y63873447D01*
X23480923Y63302019D01*
X24099971Y63302019D01*
X24528542Y63397257D02*
X24576161Y63349638D01*
X24528542Y63302019D01*
X24480923Y63349638D01*
X24528542Y63397257D01*
X24528542Y63302019D01*
X24957114Y64206780D02*
X25004733Y64254400D01*
X25099971Y64302019D01*
X25338066Y64302019D01*
X25433304Y64254400D01*
X25480923Y64206780D01*
X25528542Y64111542D01*
X25528542Y64016304D01*
X25480923Y63873447D01*
X24909495Y63302019D01*
X25528542Y63302019D01*
X25957114Y63302019D02*
X25957114Y63968685D01*
X25957114Y63873447D02*
X26004733Y63921066D01*
X26099971Y63968685D01*
X26242828Y63968685D01*
X26338066Y63921066D01*
X26385685Y63825828D01*
X26385685Y63302019D01*
X26385685Y63825828D02*
X26433304Y63921066D01*
X26528542Y63968685D01*
X26671399Y63968685D01*
X26766638Y63921066D01*
X26814257Y63825828D01*
X26814257Y63302019D01*
X27290447Y63302019D02*
X27290447Y63968685D01*
X27290447Y63873447D02*
X27338066Y63921066D01*
X27433304Y63968685D01*
X27576161Y63968685D01*
X27671399Y63921066D01*
X27719019Y63825828D01*
X27719019Y63302019D01*
X27719019Y63825828D02*
X27766638Y63921066D01*
X27861876Y63968685D01*
X28004733Y63968685D01*
X28099971Y63921066D01*
X28147590Y63825828D01*
X28147590Y63302019D01*
X28385685Y63206780D02*
X29147590Y63206780D01*
X29385685Y63302019D02*
X29385685Y64302019D01*
X29719019Y63587733D01*
X30052352Y64302019D01*
X30052352Y63302019D01*
X30480923Y64206780D02*
X30528542Y64254400D01*
X30623780Y64302019D01*
X30861876Y64302019D01*
X30957114Y64254400D01*
X31004733Y64206780D01*
X31052352Y64111542D01*
X31052352Y64016304D01*
X31004733Y63873447D01*
X30433304Y63302019D01*
X31052352Y63302019D01*
X31242828Y63206780D02*
X32004733Y63206780D01*
X32242828Y63302019D02*
X32242828Y64302019D01*
X32623780Y64302019D01*
X32719019Y64254400D01*
X32766638Y64206780D01*
X32814257Y64111542D01*
X32814257Y63968685D01*
X32766638Y63873447D01*
X32719019Y63825828D01*
X32623780Y63778209D01*
X32242828Y63778209D01*
X33671399Y63302019D02*
X33671399Y63825828D01*
X33623780Y63921066D01*
X33528542Y63968685D01*
X33338066Y63968685D01*
X33242828Y63921066D01*
X33671399Y63349638D02*
X33576161Y63302019D01*
X33338066Y63302019D01*
X33242828Y63349638D01*
X33195209Y63444876D01*
X33195209Y63540114D01*
X33242828Y63635352D01*
X33338066Y63682971D01*
X33576161Y63682971D01*
X33671399Y63730590D01*
X34576161Y63302019D02*
X34576161Y64302019D01*
X34576161Y63349638D02*
X34480923Y63302019D01*
X34290447Y63302019D01*
X34195209Y63349638D01*
X34147590Y63397257D01*
X34099971Y63492495D01*
X34099971Y63778209D01*
X34147590Y63873447D01*
X34195209Y63921066D01*
X34290447Y63968685D01*
X34480923Y63968685D01*
X34576161Y63921066D01*
X34814257Y63206780D02*
X35576161Y63206780D01*
X35671399Y64302019D02*
X36004733Y63302019D01*
X36338066Y64302019D01*
X36671399Y63302019D02*
X36671399Y63968685D01*
X36671399Y64302019D02*
X36623780Y64254400D01*
X36671399Y64206780D01*
X36719019Y64254400D01*
X36671399Y64302019D01*
X36671399Y64206780D01*
X37576161Y63302019D02*
X37576161Y63825828D01*
X37528542Y63921066D01*
X37433304Y63968685D01*
X37242828Y63968685D01*
X37147590Y63921066D01*
X37576161Y63349638D02*
X37480923Y63302019D01*
X37242828Y63302019D01*
X37147590Y63349638D01*
X37099971Y63444876D01*
X37099971Y63540114D01*
X37147590Y63635352D01*
X37242828Y63682971D01*
X37480923Y63682971D01*
X37576161Y63730590D01*
X24138066Y66502019D02*
X23804733Y66978209D01*
X23566638Y66502019D02*
X23566638Y67502019D01*
X23947590Y67502019D01*
X24042828Y67454400D01*
X24090447Y67406780D01*
X24138066Y67311542D01*
X24138066Y67168685D01*
X24090447Y67073447D01*
X24042828Y67025828D01*
X23947590Y66978209D01*
X23566638Y66978209D01*
X24566638Y67025828D02*
X24899971Y67025828D01*
X25042828Y66502019D02*
X24566638Y66502019D01*
X24566638Y67502019D01*
X25042828Y67502019D01*
X25804733Y67025828D02*
X25471400Y67025828D01*
X25471400Y66502019D02*
X25471400Y67502019D01*
X25947590Y67502019D01*
X26471400Y67502019D02*
X26471400Y67263923D01*
X26233304Y67359161D02*
X26471400Y67263923D01*
X26709495Y67359161D01*
X26328542Y67073447D02*
X26471400Y67263923D01*
X26614257Y67073447D01*
X27233304Y67502019D02*
X27233304Y67263923D01*
X26995209Y67359161D02*
X27233304Y67263923D01*
X27471400Y67359161D01*
X27090447Y67073447D02*
X27233304Y67263923D01*
X27376161Y67073447D01*
%TO.C,C1*%
X37968371Y63979819D02*
X37396942Y63979819D01*
X37682657Y63979819D02*
X37682657Y64979819D01*
X37587419Y64836961D01*
X37492180Y64741723D01*
X37396942Y64694104D01*
X38587419Y64979819D02*
X38682657Y64979819D01*
X38777895Y64932200D01*
X38825514Y64884580D01*
X38873133Y64789342D01*
X38920752Y64598866D01*
X38920752Y64360771D01*
X38873133Y64170295D01*
X38825514Y64075057D01*
X38777895Y64027438D01*
X38682657Y63979819D01*
X38587419Y63979819D01*
X38492180Y64027438D01*
X38444561Y64075057D01*
X38396942Y64170295D01*
X38349323Y64360771D01*
X38349323Y64598866D01*
X38396942Y64789342D01*
X38444561Y64884580D01*
X38492180Y64932200D01*
X38587419Y64979819D01*
X39349323Y64646485D02*
X39349323Y63979819D01*
X39349323Y64551247D02*
X39396942Y64598866D01*
X39492180Y64646485D01*
X39635038Y64646485D01*
X39730276Y64598866D01*
X39777895Y64503628D01*
X39777895Y63979819D01*
X40587419Y64503628D02*
X40254085Y64503628D01*
X40254085Y63979819D02*
X40254085Y64979819D01*
X40730276Y64979819D01*
D16*
X38973133Y65719342D02*
X38954085Y65700295D01*
X38896942Y65681247D01*
X38858847Y65681247D01*
X38801704Y65700295D01*
X38763609Y65738390D01*
X38744561Y65776485D01*
X38725514Y65852676D01*
X38725514Y65909819D01*
X38744561Y65986009D01*
X38763609Y66024104D01*
X38801704Y66062200D01*
X38858847Y66081247D01*
X38896942Y66081247D01*
X38954085Y66062200D01*
X38973133Y66043152D01*
X39354085Y65681247D02*
X39125514Y65681247D01*
X39239800Y65681247D02*
X39239800Y66081247D01*
X39201704Y66024104D01*
X39163609Y65986009D01*
X39125514Y65966961D01*
%TO.C,C2*%
D15*
X46578971Y61617619D02*
X46007542Y61617619D01*
X46293257Y61617619D02*
X46293257Y62617619D01*
X46198019Y62474761D01*
X46102780Y62379523D01*
X46007542Y62331904D01*
X47198019Y62617619D02*
X47293257Y62617619D01*
X47388495Y62570000D01*
X47436114Y62522380D01*
X47483733Y62427142D01*
X47531352Y62236666D01*
X47531352Y61998571D01*
X47483733Y61808095D01*
X47436114Y61712857D01*
X47388495Y61665238D01*
X47293257Y61617619D01*
X47198019Y61617619D01*
X47102780Y61665238D01*
X47055161Y61712857D01*
X47007542Y61808095D01*
X46959923Y61998571D01*
X46959923Y62236666D01*
X47007542Y62427142D01*
X47055161Y62522380D01*
X47102780Y62570000D01*
X47198019Y62617619D01*
X47959923Y62284285D02*
X47959923Y61617619D01*
X47959923Y62189047D02*
X48007542Y62236666D01*
X48102780Y62284285D01*
X48245638Y62284285D01*
X48340876Y62236666D01*
X48388495Y62141428D01*
X48388495Y61617619D01*
X49198019Y62141428D02*
X48864685Y62141428D01*
X48864685Y61617619D02*
X48864685Y62617619D01*
X49340876Y62617619D01*
D16*
X47583733Y63357142D02*
X47564685Y63338095D01*
X47507542Y63319047D01*
X47469447Y63319047D01*
X47412304Y63338095D01*
X47374209Y63376190D01*
X47355161Y63414285D01*
X47336114Y63490476D01*
X47336114Y63547619D01*
X47355161Y63623809D01*
X47374209Y63661904D01*
X47412304Y63700000D01*
X47469447Y63719047D01*
X47507542Y63719047D01*
X47564685Y63700000D01*
X47583733Y63680952D01*
X47736114Y63680952D02*
X47755161Y63700000D01*
X47793257Y63719047D01*
X47888495Y63719047D01*
X47926590Y63700000D01*
X47945638Y63680952D01*
X47964685Y63642857D01*
X47964685Y63604761D01*
X47945638Y63547619D01*
X47717066Y63319047D01*
X47964685Y63319047D01*
%TO.C,C3*%
D15*
X44336023Y57776887D02*
X43931962Y58180948D01*
X44133992Y57978917D02*
X44841099Y58686024D01*
X44672740Y58652352D01*
X44538053Y58652352D01*
X44437038Y58686024D01*
X45480862Y58046261D02*
X45548206Y57978917D01*
X45581878Y57877902D01*
X45581878Y57810559D01*
X45548206Y57709543D01*
X45447191Y57541185D01*
X45278832Y57372826D01*
X45110473Y57271811D01*
X45009458Y57238139D01*
X44942114Y57238139D01*
X44841099Y57271811D01*
X44773756Y57339154D01*
X44740084Y57440169D01*
X44740084Y57507513D01*
X44773756Y57608528D01*
X44874771Y57776887D01*
X45043130Y57945246D01*
X45211488Y58046261D01*
X45312504Y58079933D01*
X45379847Y58079933D01*
X45480862Y58046261D01*
X46154298Y57372826D02*
X46221641Y57305482D01*
X46255313Y57204467D01*
X46255313Y57137124D01*
X46221641Y57036108D01*
X46120626Y56867749D01*
X45952267Y56699391D01*
X45783908Y56598375D01*
X45682893Y56564704D01*
X45615549Y56564704D01*
X45514534Y56598375D01*
X45447191Y56665719D01*
X45413519Y56766734D01*
X45413519Y56834078D01*
X45447191Y56935093D01*
X45548206Y57103452D01*
X45716565Y57271811D01*
X45884924Y57372826D01*
X45985939Y57406498D01*
X46053282Y57406498D01*
X46154298Y57372826D01*
X46457343Y56598375D02*
X45985939Y56126971D01*
X46390000Y56531032D02*
X46457343Y56531032D01*
X46558359Y56497360D01*
X46659374Y56396345D01*
X46693046Y56295330D01*
X46659374Y56194314D01*
X46288985Y55823925D01*
X47231794Y55621895D02*
X46996091Y55857597D01*
X46625702Y55487208D02*
X47332809Y56194314D01*
X47669526Y55857597D01*
D16*
X46613244Y57959725D02*
X46586306Y57959725D01*
X46532432Y57986662D01*
X46505494Y58013600D01*
X46478557Y58067474D01*
X46478557Y58121349D01*
X46492025Y58161755D01*
X46532432Y58229099D01*
X46572838Y58269505D01*
X46640181Y58309911D01*
X46680587Y58323380D01*
X46734462Y58323380D01*
X46788337Y58296442D01*
X46815274Y58269505D01*
X46842212Y58215630D01*
X46842212Y58188693D01*
X46963430Y58121349D02*
X47138523Y57946256D01*
X46936493Y57932787D01*
X46976899Y57892381D01*
X46990367Y57851975D01*
X46990367Y57825038D01*
X46976899Y57784632D01*
X46909555Y57717288D01*
X46869149Y57703819D01*
X46842212Y57703819D01*
X46801806Y57717288D01*
X46720993Y57798100D01*
X46707525Y57838506D01*
X46707525Y57865444D01*
%TO.C,C4*%
D15*
X34455423Y49725087D02*
X34051362Y50129148D01*
X34253392Y49927117D02*
X34960499Y50634224D01*
X34792140Y50600552D01*
X34657453Y50600552D01*
X34556438Y50634224D01*
X35600262Y49994461D02*
X35667606Y49927117D01*
X35701278Y49826102D01*
X35701278Y49758759D01*
X35667606Y49657743D01*
X35566591Y49489385D01*
X35398232Y49321026D01*
X35229873Y49220011D01*
X35128858Y49186339D01*
X35061514Y49186339D01*
X34960499Y49220011D01*
X34893156Y49287354D01*
X34859484Y49388369D01*
X34859484Y49455713D01*
X34893156Y49556728D01*
X34994171Y49725087D01*
X35162530Y49893446D01*
X35330888Y49994461D01*
X35431904Y50028133D01*
X35499247Y50028133D01*
X35600262Y49994461D01*
X36273698Y49321026D02*
X36341041Y49253682D01*
X36374713Y49152667D01*
X36374713Y49085324D01*
X36341041Y48984308D01*
X36240026Y48815949D01*
X36071667Y48647591D01*
X35903308Y48546575D01*
X35802293Y48512904D01*
X35734949Y48512904D01*
X35633934Y48546575D01*
X35566591Y48613919D01*
X35532919Y48714934D01*
X35532919Y48782278D01*
X35566591Y48883293D01*
X35667606Y49051652D01*
X35835965Y49220011D01*
X36004324Y49321026D01*
X36105339Y49354698D01*
X36172682Y49354698D01*
X36273698Y49321026D01*
X36576743Y48546575D02*
X36105339Y48075171D01*
X36509400Y48479232D02*
X36576743Y48479232D01*
X36677759Y48445560D01*
X36778774Y48344545D01*
X36812446Y48243530D01*
X36778774Y48142514D01*
X36408385Y47772125D01*
X37351194Y47570095D02*
X37115491Y47805797D01*
X36745102Y47435408D02*
X37452209Y48142514D01*
X37788926Y47805797D01*
D16*
X36732644Y49907925D02*
X36705706Y49907925D01*
X36651832Y49934862D01*
X36624894Y49961800D01*
X36597957Y50015674D01*
X36597957Y50069549D01*
X36611425Y50109955D01*
X36651832Y50177299D01*
X36692238Y50217705D01*
X36759581Y50258111D01*
X36799987Y50271580D01*
X36853862Y50271580D01*
X36907737Y50244642D01*
X36934674Y50217705D01*
X36961612Y50163830D01*
X36961612Y50136893D01*
X37136705Y49827112D02*
X36948143Y49638551D01*
X37177111Y50002206D02*
X36907737Y49867519D01*
X37082830Y49692425D01*
%TO.C,C5*%
D15*
X35017584Y53207578D02*
X34613523Y53611639D01*
X34815553Y53409608D02*
X35522660Y54116715D01*
X35354301Y54083043D01*
X35219614Y54083043D01*
X35118599Y54116715D01*
X36095080Y53072891D02*
X35623675Y52601486D01*
X35792034Y53375937D02*
X35421645Y53005547D01*
X35387973Y52904532D01*
X35421645Y52803517D01*
X35522660Y52702501D01*
X35623675Y52668830D01*
X35691019Y52668830D01*
X36566485Y52399456D02*
X36330782Y52635158D01*
X35960393Y52264769D02*
X36667500Y52971875D01*
X37004217Y52635158D01*
D16*
X34599044Y52041525D02*
X34572106Y52041525D01*
X34518232Y52068462D01*
X34491294Y52095400D01*
X34464357Y52149274D01*
X34464357Y52203149D01*
X34477825Y52243555D01*
X34518232Y52310899D01*
X34558638Y52351305D01*
X34625981Y52391711D01*
X34666387Y52405180D01*
X34720262Y52405180D01*
X34774137Y52378242D01*
X34801074Y52351305D01*
X34828012Y52297430D01*
X34828012Y52270493D01*
X35110854Y52041525D02*
X34976167Y52176212D01*
X34828012Y52054993D01*
X34854949Y52054993D01*
X34895355Y52041525D01*
X34962699Y51974181D01*
X34976167Y51933775D01*
X34976167Y51906838D01*
X34962699Y51866432D01*
X34895355Y51799088D01*
X34854949Y51785619D01*
X34828012Y51785619D01*
X34787606Y51799088D01*
X34720262Y51866432D01*
X34706793Y51906838D01*
X34706793Y51933775D01*
%TO.C,C6*%
D15*
X24798542Y51320980D02*
X24846161Y51368600D01*
X24941400Y51416219D01*
X25179495Y51416219D01*
X25274733Y51368600D01*
X25322352Y51320980D01*
X25369971Y51225742D01*
X25369971Y51130504D01*
X25322352Y50987647D01*
X24750923Y50416219D01*
X25369971Y50416219D01*
X25750923Y51320980D02*
X25798542Y51368600D01*
X25893780Y51416219D01*
X26131876Y51416219D01*
X26227114Y51368600D01*
X26274733Y51320980D01*
X26322352Y51225742D01*
X26322352Y51130504D01*
X26274733Y50987647D01*
X25703304Y50416219D01*
X26322352Y50416219D01*
X27179495Y51082885D02*
X27179495Y50416219D01*
X26750923Y51082885D02*
X26750923Y50559076D01*
X26798542Y50463838D01*
X26893780Y50416219D01*
X27036638Y50416219D01*
X27131876Y50463838D01*
X27179495Y50511457D01*
X27989019Y50940028D02*
X27655685Y50940028D01*
X27655685Y50416219D02*
X27655685Y51416219D01*
X28131876Y51416219D01*
D16*
X26374733Y52155742D02*
X26355685Y52136695D01*
X26298542Y52117647D01*
X26260447Y52117647D01*
X26203304Y52136695D01*
X26165209Y52174790D01*
X26146161Y52212885D01*
X26127114Y52289076D01*
X26127114Y52346219D01*
X26146161Y52422409D01*
X26165209Y52460504D01*
X26203304Y52498600D01*
X26260447Y52517647D01*
X26298542Y52517647D01*
X26355685Y52498600D01*
X26374733Y52479552D01*
X26717590Y52517647D02*
X26641400Y52517647D01*
X26603304Y52498600D01*
X26584257Y52479552D01*
X26546161Y52422409D01*
X26527114Y52346219D01*
X26527114Y52193838D01*
X26546161Y52155742D01*
X26565209Y52136695D01*
X26603304Y52117647D01*
X26679495Y52117647D01*
X26717590Y52136695D01*
X26736638Y52155742D01*
X26755685Y52193838D01*
X26755685Y52289076D01*
X26736638Y52327171D01*
X26717590Y52346219D01*
X26679495Y52365266D01*
X26603304Y52365266D01*
X26565209Y52346219D01*
X26546161Y52327171D01*
X26527114Y52289076D01*
%TO.C,C9*%
D15*
X30898819Y57335942D02*
X30851200Y57383561D01*
X30803580Y57478800D01*
X30803580Y57716895D01*
X30851200Y57812133D01*
X30898819Y57859752D01*
X30994057Y57907371D01*
X31089295Y57907371D01*
X31232152Y57859752D01*
X31803580Y57288323D01*
X31803580Y57907371D01*
X30898819Y58288323D02*
X30851200Y58335942D01*
X30803580Y58431180D01*
X30803580Y58669276D01*
X30851200Y58764514D01*
X30898819Y58812133D01*
X30994057Y58859752D01*
X31089295Y58859752D01*
X31232152Y58812133D01*
X31803580Y58240704D01*
X31803580Y58859752D01*
X31136914Y59716895D02*
X31803580Y59716895D01*
X31136914Y59288323D02*
X31660723Y59288323D01*
X31755961Y59335942D01*
X31803580Y59431180D01*
X31803580Y59574038D01*
X31755961Y59669276D01*
X31708342Y59716895D01*
X31279771Y60526419D02*
X31279771Y60193085D01*
X31803580Y60193085D02*
X30803580Y60193085D01*
X30803580Y60669276D01*
D16*
X30064057Y58912133D02*
X30083104Y58893085D01*
X30102152Y58835942D01*
X30102152Y58797847D01*
X30083104Y58740704D01*
X30045009Y58702609D01*
X30006914Y58683561D01*
X29930723Y58664514D01*
X29873580Y58664514D01*
X29797390Y58683561D01*
X29759295Y58702609D01*
X29721200Y58740704D01*
X29702152Y58797847D01*
X29702152Y58835942D01*
X29721200Y58893085D01*
X29740247Y58912133D01*
X30102152Y59102609D02*
X30102152Y59178800D01*
X30083104Y59216895D01*
X30064057Y59235942D01*
X30006914Y59274038D01*
X29930723Y59293085D01*
X29778342Y59293085D01*
X29740247Y59274038D01*
X29721200Y59254990D01*
X29702152Y59216895D01*
X29702152Y59140704D01*
X29721200Y59102609D01*
X29740247Y59083561D01*
X29778342Y59064514D01*
X29873580Y59064514D01*
X29911676Y59083561D01*
X29930723Y59102609D01*
X29949771Y59140704D01*
X29949771Y59216895D01*
X29930723Y59254990D01*
X29911676Y59274038D01*
X29873580Y59293085D01*
%TO.C,C10*%
D15*
X32397419Y57335942D02*
X32349800Y57383561D01*
X32302180Y57478800D01*
X32302180Y57716895D01*
X32349800Y57812133D01*
X32397419Y57859752D01*
X32492657Y57907371D01*
X32587895Y57907371D01*
X32730752Y57859752D01*
X33302180Y57288323D01*
X33302180Y57907371D01*
X32397419Y58288323D02*
X32349800Y58335942D01*
X32302180Y58431180D01*
X32302180Y58669276D01*
X32349800Y58764514D01*
X32397419Y58812133D01*
X32492657Y58859752D01*
X32587895Y58859752D01*
X32730752Y58812133D01*
X33302180Y58240704D01*
X33302180Y58859752D01*
X32635514Y59716895D02*
X33302180Y59716895D01*
X32635514Y59288323D02*
X33159323Y59288323D01*
X33254561Y59335942D01*
X33302180Y59431180D01*
X33302180Y59574038D01*
X33254561Y59669276D01*
X33206942Y59716895D01*
X32778371Y60526419D02*
X32778371Y60193085D01*
X33302180Y60193085D02*
X32302180Y60193085D01*
X32302180Y60669276D01*
D16*
X31562657Y58721657D02*
X31581704Y58702609D01*
X31600752Y58645466D01*
X31600752Y58607371D01*
X31581704Y58550228D01*
X31543609Y58512133D01*
X31505514Y58493085D01*
X31429323Y58474038D01*
X31372180Y58474038D01*
X31295990Y58493085D01*
X31257895Y58512133D01*
X31219800Y58550228D01*
X31200752Y58607371D01*
X31200752Y58645466D01*
X31219800Y58702609D01*
X31238847Y58721657D01*
X31600752Y59102609D02*
X31600752Y58874038D01*
X31600752Y58988323D02*
X31200752Y58988323D01*
X31257895Y58950228D01*
X31295990Y58912133D01*
X31315038Y58874038D01*
X31200752Y59350228D02*
X31200752Y59388323D01*
X31219800Y59426419D01*
X31238847Y59445466D01*
X31276942Y59464514D01*
X31353133Y59483561D01*
X31448371Y59483561D01*
X31524561Y59464514D01*
X31562657Y59445466D01*
X31581704Y59426419D01*
X31600752Y59388323D01*
X31600752Y59350228D01*
X31581704Y59312133D01*
X31562657Y59293085D01*
X31524561Y59274038D01*
X31448371Y59254990D01*
X31353133Y59254990D01*
X31276942Y59274038D01*
X31238847Y59293085D01*
X31219800Y59312133D01*
X31200752Y59350228D01*
%TO.C,D1*%
D15*
X27373676Y45430619D02*
X27611771Y44430619D01*
X27802247Y45144904D01*
X27992723Y44430619D01*
X28230819Y45430619D01*
X28564152Y44478238D02*
X28707009Y44430619D01*
X28945104Y44430619D01*
X29040342Y44478238D01*
X29087961Y44525857D01*
X29135580Y44621095D01*
X29135580Y44716333D01*
X29087961Y44811571D01*
X29040342Y44859190D01*
X28945104Y44906809D01*
X28754628Y44954428D01*
X28659390Y45002047D01*
X28611771Y45049666D01*
X28564152Y45144904D01*
X28564152Y45240142D01*
X28611771Y45335380D01*
X28659390Y45383000D01*
X28754628Y45430619D01*
X28992723Y45430619D01*
X29135580Y45383000D01*
X29516533Y45335380D02*
X29564152Y45383000D01*
X29659390Y45430619D01*
X29897485Y45430619D01*
X29992723Y45383000D01*
X30040342Y45335380D01*
X30087961Y45240142D01*
X30087961Y45144904D01*
X30040342Y45002047D01*
X29468914Y44430619D01*
X30087961Y44430619D01*
X30659390Y45002047D02*
X30564152Y45049666D01*
X30516533Y45097285D01*
X30468914Y45192523D01*
X30468914Y45240142D01*
X30516533Y45335380D01*
X30564152Y45383000D01*
X30659390Y45430619D01*
X30849866Y45430619D01*
X30945104Y45383000D01*
X30992723Y45335380D01*
X31040342Y45240142D01*
X31040342Y45192523D01*
X30992723Y45097285D01*
X30945104Y45049666D01*
X30849866Y45002047D01*
X30659390Y45002047D01*
X30564152Y44954428D01*
X30516533Y44906809D01*
X30468914Y44811571D01*
X30468914Y44621095D01*
X30516533Y44525857D01*
X30564152Y44478238D01*
X30659390Y44430619D01*
X30849866Y44430619D01*
X30945104Y44478238D01*
X30992723Y44525857D01*
X31040342Y44621095D01*
X31040342Y44811571D01*
X30992723Y44906809D01*
X30945104Y44954428D01*
X30849866Y45002047D01*
X31992723Y44430619D02*
X31421295Y44430619D01*
X31707009Y44430619D02*
X31707009Y45430619D01*
X31611771Y45287761D01*
X31516533Y45192523D01*
X31421295Y45144904D01*
X32373676Y45335380D02*
X32421295Y45383000D01*
X32516533Y45430619D01*
X32754628Y45430619D01*
X32849866Y45383000D01*
X32897485Y45335380D01*
X32945104Y45240142D01*
X32945104Y45144904D01*
X32897485Y45002047D01*
X32326057Y44430619D01*
X32945104Y44430619D01*
X33707009Y44954428D02*
X33849866Y44906809D01*
X33897485Y44859190D01*
X33945104Y44763952D01*
X33945104Y44621095D01*
X33897485Y44525857D01*
X33849866Y44478238D01*
X33754628Y44430619D01*
X33373676Y44430619D01*
X33373676Y45430619D01*
X33707009Y45430619D01*
X33802247Y45383000D01*
X33849866Y45335380D01*
X33897485Y45240142D01*
X33897485Y45144904D01*
X33849866Y45049666D01*
X33802247Y45002047D01*
X33707009Y44954428D01*
X33373676Y44954428D01*
D12*
X30314152Y47906809D02*
X30314152Y48406809D01*
X30433200Y48406809D01*
X30504628Y48383000D01*
X30552247Y48335380D01*
X30576057Y48287761D01*
X30599866Y48192523D01*
X30599866Y48121095D01*
X30576057Y48025857D01*
X30552247Y47978238D01*
X30504628Y47930619D01*
X30433200Y47906809D01*
X30314152Y47906809D01*
X31076057Y47906809D02*
X30790342Y47906809D01*
X30933200Y47906809D02*
X30933200Y48406809D01*
X30885580Y48335380D01*
X30837961Y48287761D01*
X30790342Y48263952D01*
%TO.C,D2*%
D15*
X27732980Y64421142D02*
X27732980Y63944952D01*
X26732980Y63944952D01*
X27209171Y64754476D02*
X27209171Y65087809D01*
X27732980Y65230666D02*
X27732980Y64754476D01*
X26732980Y64754476D01*
X26732980Y65230666D01*
X27732980Y65659238D02*
X26732980Y65659238D01*
X26732980Y65897333D01*
X26780600Y66040190D01*
X26875838Y66135428D01*
X26971076Y66183047D01*
X27161552Y66230666D01*
X27304409Y66230666D01*
X27494885Y66183047D01*
X27590123Y66135428D01*
X27685361Y66040190D01*
X27732980Y65897333D01*
X27732980Y65659238D01*
X27828219Y66421142D02*
X27828219Y67183047D01*
X27685361Y67373523D02*
X27732980Y67516380D01*
X27732980Y67754476D01*
X27685361Y67849714D01*
X27637742Y67897333D01*
X27542504Y67944952D01*
X27447266Y67944952D01*
X27352028Y67897333D01*
X27304409Y67849714D01*
X27256790Y67754476D01*
X27209171Y67564000D01*
X27161552Y67468761D01*
X27113933Y67421142D01*
X27018695Y67373523D01*
X26923457Y67373523D01*
X26828219Y67421142D01*
X26780600Y67468761D01*
X26732980Y67564000D01*
X26732980Y67802095D01*
X26780600Y67944952D01*
X27732980Y68373523D02*
X27066314Y68373523D01*
X27161552Y68373523D02*
X27113933Y68421142D01*
X27066314Y68516380D01*
X27066314Y68659238D01*
X27113933Y68754476D01*
X27209171Y68802095D01*
X27732980Y68802095D01*
X27209171Y68802095D02*
X27113933Y68849714D01*
X27066314Y68944952D01*
X27066314Y69087809D01*
X27113933Y69183047D01*
X27209171Y69230666D01*
X27732980Y69230666D01*
X27732980Y70135428D02*
X27209171Y70135428D01*
X27113933Y70087809D01*
X27066314Y69992571D01*
X27066314Y69802095D01*
X27113933Y69706857D01*
X27685361Y70135428D02*
X27732980Y70040190D01*
X27732980Y69802095D01*
X27685361Y69706857D01*
X27590123Y69659238D01*
X27494885Y69659238D01*
X27399647Y69706857D01*
X27352028Y69802095D01*
X27352028Y70040190D01*
X27304409Y70135428D01*
X27732980Y70754476D02*
X27685361Y70659238D01*
X27590123Y70611619D01*
X26732980Y70611619D01*
X27732980Y71278285D02*
X27685361Y71183047D01*
X27590123Y71135428D01*
X26732980Y71135428D01*
D17*
X29156790Y67194952D02*
X28656790Y67194952D01*
X28656790Y67314000D01*
X28680600Y67385428D01*
X28728219Y67433047D01*
X28775838Y67456857D01*
X28871076Y67480666D01*
X28942504Y67480666D01*
X29037742Y67456857D01*
X29085361Y67433047D01*
X29132980Y67385428D01*
X29156790Y67314000D01*
X29156790Y67194952D01*
X28704409Y67671142D02*
X28680600Y67694952D01*
X28656790Y67742571D01*
X28656790Y67861619D01*
X28680600Y67909238D01*
X28704409Y67933047D01*
X28752028Y67956857D01*
X28799647Y67956857D01*
X28871076Y67933047D01*
X29156790Y67647333D01*
X29156790Y67956857D01*
%TO.C,D3*%
D15*
X77819780Y63506742D02*
X77819780Y63030552D01*
X76819780Y63030552D01*
X77295971Y63840076D02*
X77295971Y64173409D01*
X77819780Y64316266D02*
X77819780Y63840076D01*
X76819780Y63840076D01*
X76819780Y64316266D01*
X77819780Y64744838D02*
X76819780Y64744838D01*
X76819780Y64982933D01*
X76867400Y65125790D01*
X76962638Y65221028D01*
X77057876Y65268647D01*
X77248352Y65316266D01*
X77391209Y65316266D01*
X77581685Y65268647D01*
X77676923Y65221028D01*
X77772161Y65125790D01*
X77819780Y64982933D01*
X77819780Y64744838D01*
X77915019Y65506742D02*
X77915019Y66268647D01*
X77772161Y66459123D02*
X77819780Y66601980D01*
X77819780Y66840076D01*
X77772161Y66935314D01*
X77724542Y66982933D01*
X77629304Y67030552D01*
X77534066Y67030552D01*
X77438828Y66982933D01*
X77391209Y66935314D01*
X77343590Y66840076D01*
X77295971Y66649600D01*
X77248352Y66554361D01*
X77200733Y66506742D01*
X77105495Y66459123D01*
X77010257Y66459123D01*
X76915019Y66506742D01*
X76867400Y66554361D01*
X76819780Y66649600D01*
X76819780Y66887695D01*
X76867400Y67030552D01*
X77819780Y67459123D02*
X77153114Y67459123D01*
X77248352Y67459123D02*
X77200733Y67506742D01*
X77153114Y67601980D01*
X77153114Y67744838D01*
X77200733Y67840076D01*
X77295971Y67887695D01*
X77819780Y67887695D01*
X77295971Y67887695D02*
X77200733Y67935314D01*
X77153114Y68030552D01*
X77153114Y68173409D01*
X77200733Y68268647D01*
X77295971Y68316266D01*
X77819780Y68316266D01*
X77819780Y69221028D02*
X77295971Y69221028D01*
X77200733Y69173409D01*
X77153114Y69078171D01*
X77153114Y68887695D01*
X77200733Y68792457D01*
X77772161Y69221028D02*
X77819780Y69125790D01*
X77819780Y68887695D01*
X77772161Y68792457D01*
X77676923Y68744838D01*
X77581685Y68744838D01*
X77486447Y68792457D01*
X77438828Y68887695D01*
X77438828Y69125790D01*
X77391209Y69221028D01*
X77819780Y69840076D02*
X77772161Y69744838D01*
X77676923Y69697219D01*
X76819780Y69697219D01*
X77819780Y70363885D02*
X77772161Y70268647D01*
X77676923Y70221028D01*
X76819780Y70221028D01*
D17*
X75943590Y66280552D02*
X75443590Y66280552D01*
X75443590Y66399600D01*
X75467400Y66471028D01*
X75515019Y66518647D01*
X75562638Y66542457D01*
X75657876Y66566266D01*
X75729304Y66566266D01*
X75824542Y66542457D01*
X75872161Y66518647D01*
X75919780Y66471028D01*
X75943590Y66399600D01*
X75943590Y66280552D01*
X75443590Y66732933D02*
X75443590Y67042457D01*
X75634066Y66875790D01*
X75634066Y66947219D01*
X75657876Y66994838D01*
X75681685Y67018647D01*
X75729304Y67042457D01*
X75848352Y67042457D01*
X75895971Y67018647D01*
X75919780Y66994838D01*
X75943590Y66947219D01*
X75943590Y66804361D01*
X75919780Y66756742D01*
X75895971Y66732933D01*
%TO.C,J3*%
D15*
X75646542Y53061123D02*
X75694161Y53013504D01*
X75741780Y52870647D01*
X75741780Y52775409D01*
X75694161Y52632552D01*
X75598923Y52537314D01*
X75503685Y52489695D01*
X75313209Y52442076D01*
X75170352Y52442076D01*
X74979876Y52489695D01*
X74884638Y52537314D01*
X74789400Y52632552D01*
X74741780Y52775409D01*
X74741780Y52870647D01*
X74789400Y53013504D01*
X74837019Y53061123D01*
X75741780Y53632552D02*
X75694161Y53537314D01*
X75646542Y53489695D01*
X75551304Y53442076D01*
X75265590Y53442076D01*
X75170352Y53489695D01*
X75122733Y53537314D01*
X75075114Y53632552D01*
X75075114Y53775409D01*
X75122733Y53870647D01*
X75170352Y53918266D01*
X75265590Y53965885D01*
X75551304Y53965885D01*
X75646542Y53918266D01*
X75694161Y53870647D01*
X75741780Y53775409D01*
X75741780Y53632552D01*
X75075114Y54394457D02*
X75741780Y54394457D01*
X75170352Y54394457D02*
X75122733Y54442076D01*
X75075114Y54537314D01*
X75075114Y54680171D01*
X75122733Y54775409D01*
X75217971Y54823028D01*
X75741780Y54823028D01*
X75075114Y55299219D02*
X75741780Y55299219D01*
X75170352Y55299219D02*
X75122733Y55346838D01*
X75075114Y55442076D01*
X75075114Y55584933D01*
X75122733Y55680171D01*
X75217971Y55727790D01*
X75741780Y55727790D01*
X75837019Y55965885D02*
X75837019Y56727790D01*
X75646542Y57537314D02*
X75694161Y57489695D01*
X75741780Y57346838D01*
X75741780Y57251600D01*
X75694161Y57108742D01*
X75598923Y57013504D01*
X75503685Y56965885D01*
X75313209Y56918266D01*
X75170352Y56918266D01*
X74979876Y56965885D01*
X74884638Y57013504D01*
X74789400Y57108742D01*
X74741780Y57251600D01*
X74741780Y57346838D01*
X74789400Y57489695D01*
X74837019Y57537314D01*
X75741780Y58108742D02*
X75694161Y58013504D01*
X75646542Y57965885D01*
X75551304Y57918266D01*
X75265590Y57918266D01*
X75170352Y57965885D01*
X75122733Y58013504D01*
X75075114Y58108742D01*
X75075114Y58251600D01*
X75122733Y58346838D01*
X75170352Y58394457D01*
X75265590Y58442076D01*
X75551304Y58442076D01*
X75646542Y58394457D01*
X75694161Y58346838D01*
X75741780Y58251600D01*
X75741780Y58108742D01*
X75741780Y59299219D02*
X75217971Y59299219D01*
X75122733Y59251600D01*
X75075114Y59156361D01*
X75075114Y58965885D01*
X75122733Y58870647D01*
X75694161Y59299219D02*
X75741780Y59203980D01*
X75741780Y58965885D01*
X75694161Y58870647D01*
X75598923Y58823028D01*
X75503685Y58823028D01*
X75408447Y58870647D01*
X75360828Y58965885D01*
X75360828Y59203980D01*
X75313209Y59299219D01*
X75741780Y59680171D02*
X75075114Y60203980D01*
X75075114Y59680171D02*
X75741780Y60203980D01*
X75741780Y60584933D02*
X75075114Y60584933D01*
X74741780Y60584933D02*
X74789400Y60537314D01*
X74837019Y60584933D01*
X74789400Y60632552D01*
X74741780Y60584933D01*
X74837019Y60584933D01*
X75741780Y61489695D02*
X75217971Y61489695D01*
X75122733Y61442076D01*
X75075114Y61346838D01*
X75075114Y61156361D01*
X75122733Y61061123D01*
X75694161Y61489695D02*
X75741780Y61394457D01*
X75741780Y61156361D01*
X75694161Y61061123D01*
X75598923Y61013504D01*
X75503685Y61013504D01*
X75408447Y61061123D01*
X75360828Y61156361D01*
X75360828Y61394457D01*
X75313209Y61489695D01*
X75741780Y62108742D02*
X75694161Y62013504D01*
X75598923Y61965885D01*
X74741780Y61965885D01*
X79741780Y56918266D02*
X80456066Y56918266D01*
X80598923Y56870647D01*
X80694161Y56775409D01*
X80741780Y56632552D01*
X80741780Y56537314D01*
X79741780Y57299219D02*
X79741780Y57918266D01*
X80122733Y57584933D01*
X80122733Y57727790D01*
X80170352Y57823028D01*
X80217971Y57870647D01*
X80313209Y57918266D01*
X80551304Y57918266D01*
X80646542Y57870647D01*
X80694161Y57823028D01*
X80741780Y57727790D01*
X80741780Y57442076D01*
X80694161Y57346838D01*
X80646542Y57299219D01*
%TO.C,L2*%
X24668409Y57151180D02*
X24716028Y57198800D01*
X24811266Y57246419D01*
X25049361Y57246419D01*
X25144600Y57198800D01*
X25192219Y57151180D01*
X25239838Y57055942D01*
X25239838Y56960704D01*
X25192219Y56817847D01*
X24620790Y56246419D01*
X25239838Y56246419D01*
X25668409Y56341657D02*
X25716028Y56294038D01*
X25668409Y56246419D01*
X25620790Y56294038D01*
X25668409Y56341657D01*
X25668409Y56246419D01*
X26096980Y57151180D02*
X26144600Y57198800D01*
X26239838Y57246419D01*
X26477933Y57246419D01*
X26573171Y57198800D01*
X26620790Y57151180D01*
X26668409Y57055942D01*
X26668409Y56960704D01*
X26620790Y56817847D01*
X26049361Y56246419D01*
X26668409Y56246419D01*
X27525552Y56913085D02*
X27525552Y56246419D01*
X27096980Y56913085D02*
X27096980Y56389276D01*
X27144600Y56294038D01*
X27239838Y56246419D01*
X27382695Y56246419D01*
X27477933Y56294038D01*
X27525552Y56341657D01*
X28001742Y56246419D02*
X28001742Y57246419D01*
X28001742Y56770228D02*
X28573171Y56770228D01*
X28573171Y56246419D02*
X28573171Y57246419D01*
D13*
X26511266Y58616895D02*
X26130314Y58616895D01*
X26130314Y59416895D01*
X26739838Y59340704D02*
X26777933Y59378800D01*
X26854123Y59416895D01*
X27044600Y59416895D01*
X27120790Y59378800D01*
X27158885Y59340704D01*
X27196980Y59264514D01*
X27196980Y59188323D01*
X27158885Y59074038D01*
X26701742Y58616895D01*
X27196980Y58616895D01*
%TO.C,R1*%
D15*
X37968371Y65366619D02*
X37396942Y65366619D01*
X37682657Y65366619D02*
X37682657Y66366619D01*
X37587419Y66223761D01*
X37492180Y66128523D01*
X37396942Y66080904D01*
X38587419Y66366619D02*
X38682657Y66366619D01*
X38777895Y66319000D01*
X38825514Y66271380D01*
X38873133Y66176142D01*
X38920752Y65985666D01*
X38920752Y65747571D01*
X38873133Y65557095D01*
X38825514Y65461857D01*
X38777895Y65414238D01*
X38682657Y65366619D01*
X38587419Y65366619D01*
X38492180Y65414238D01*
X38444561Y65461857D01*
X38396942Y65557095D01*
X38349323Y65747571D01*
X38349323Y65985666D01*
X38396942Y66176142D01*
X38444561Y66271380D01*
X38492180Y66319000D01*
X38587419Y66366619D01*
X39539800Y66366619D02*
X39635038Y66366619D01*
X39730276Y66319000D01*
X39777895Y66271380D01*
X39825514Y66176142D01*
X39873133Y65985666D01*
X39873133Y65747571D01*
X39825514Y65557095D01*
X39777895Y65461857D01*
X39730276Y65414238D01*
X39635038Y65366619D01*
X39539800Y65366619D01*
X39444561Y65414238D01*
X39396942Y65461857D01*
X39349323Y65557095D01*
X39301704Y65747571D01*
X39301704Y65985666D01*
X39349323Y66176142D01*
X39396942Y66271380D01*
X39444561Y66319000D01*
X39539800Y66366619D01*
X40301704Y65366619D02*
X40301704Y66366619D01*
X40396942Y65747571D02*
X40682657Y65366619D01*
X40682657Y66033285D02*
X40301704Y65652333D01*
D16*
X38973133Y64208047D02*
X38839800Y64398523D01*
X38744561Y64208047D02*
X38744561Y64608047D01*
X38896942Y64608047D01*
X38935038Y64589000D01*
X38954085Y64569952D01*
X38973133Y64531857D01*
X38973133Y64474714D01*
X38954085Y64436619D01*
X38935038Y64417571D01*
X38896942Y64398523D01*
X38744561Y64398523D01*
X39354085Y64208047D02*
X39125514Y64208047D01*
X39239800Y64208047D02*
X39239800Y64608047D01*
X39201704Y64550904D01*
X39163609Y64512809D01*
X39125514Y64493761D01*
%TO.C,R2*%
D15*
X46578971Y66052419D02*
X46007542Y66052419D01*
X46293257Y66052419D02*
X46293257Y67052419D01*
X46198019Y66909561D01*
X46102780Y66814323D01*
X46007542Y66766704D01*
X47198019Y67052419D02*
X47293257Y67052419D01*
X47388495Y67004800D01*
X47436114Y66957180D01*
X47483733Y66861942D01*
X47531352Y66671466D01*
X47531352Y66433371D01*
X47483733Y66242895D01*
X47436114Y66147657D01*
X47388495Y66100038D01*
X47293257Y66052419D01*
X47198019Y66052419D01*
X47102780Y66100038D01*
X47055161Y66147657D01*
X47007542Y66242895D01*
X46959923Y66433371D01*
X46959923Y66671466D01*
X47007542Y66861942D01*
X47055161Y66957180D01*
X47102780Y67004800D01*
X47198019Y67052419D01*
X48150400Y67052419D02*
X48245638Y67052419D01*
X48340876Y67004800D01*
X48388495Y66957180D01*
X48436114Y66861942D01*
X48483733Y66671466D01*
X48483733Y66433371D01*
X48436114Y66242895D01*
X48388495Y66147657D01*
X48340876Y66100038D01*
X48245638Y66052419D01*
X48150400Y66052419D01*
X48055161Y66100038D01*
X48007542Y66147657D01*
X47959923Y66242895D01*
X47912304Y66433371D01*
X47912304Y66671466D01*
X47959923Y66861942D01*
X48007542Y66957180D01*
X48055161Y67004800D01*
X48150400Y67052419D01*
X48912304Y66052419D02*
X48912304Y67052419D01*
X49007542Y66433371D02*
X49293257Y66052419D01*
X49293257Y66719085D02*
X48912304Y66338133D01*
D16*
X47583733Y64893847D02*
X47450400Y65084323D01*
X47355161Y64893847D02*
X47355161Y65293847D01*
X47507542Y65293847D01*
X47545638Y65274800D01*
X47564685Y65255752D01*
X47583733Y65217657D01*
X47583733Y65160514D01*
X47564685Y65122419D01*
X47545638Y65103371D01*
X47507542Y65084323D01*
X47355161Y65084323D01*
X47736114Y65255752D02*
X47755161Y65274800D01*
X47793257Y65293847D01*
X47888495Y65293847D01*
X47926590Y65274800D01*
X47945638Y65255752D01*
X47964685Y65217657D01*
X47964685Y65179561D01*
X47945638Y65122419D01*
X47717066Y64893847D01*
X47964685Y64893847D01*
%TO.C,R3*%
D15*
X30434114Y52955419D02*
X29957923Y52955419D01*
X29910304Y52479228D01*
X29957923Y52526847D01*
X30053161Y52574466D01*
X30291257Y52574466D01*
X30386495Y52526847D01*
X30434114Y52479228D01*
X30481733Y52383990D01*
X30481733Y52145895D01*
X30434114Y52050657D01*
X30386495Y52003038D01*
X30291257Y51955419D01*
X30053161Y51955419D01*
X29957923Y52003038D01*
X29910304Y52050657D01*
X31434114Y51955419D02*
X30862685Y51955419D01*
X31148400Y51955419D02*
X31148400Y52955419D01*
X31053161Y52812561D01*
X30957923Y52717323D01*
X30862685Y52669704D01*
X32053161Y52955419D02*
X32148400Y52955419D01*
X32243638Y52907800D01*
X32291257Y52860180D01*
X32338876Y52764942D01*
X32386495Y52574466D01*
X32386495Y52336371D01*
X32338876Y52145895D01*
X32291257Y52050657D01*
X32243638Y52003038D01*
X32148400Y51955419D01*
X32053161Y51955419D01*
X31957923Y52003038D01*
X31910304Y52050657D01*
X31862685Y52145895D01*
X31815066Y52336371D01*
X31815066Y52574466D01*
X31862685Y52764942D01*
X31910304Y52860180D01*
X31957923Y52907800D01*
X32053161Y52955419D01*
X33386495Y51955419D02*
X33053161Y52431609D01*
X32815066Y51955419D02*
X32815066Y52955419D01*
X33196019Y52955419D01*
X33291257Y52907800D01*
X33338876Y52860180D01*
X33386495Y52764942D01*
X33386495Y52622085D01*
X33338876Y52526847D01*
X33291257Y52479228D01*
X33196019Y52431609D01*
X32815066Y52431609D01*
D16*
X31581733Y50796847D02*
X31448400Y50987323D01*
X31353161Y50796847D02*
X31353161Y51196847D01*
X31505542Y51196847D01*
X31543638Y51177800D01*
X31562685Y51158752D01*
X31581733Y51120657D01*
X31581733Y51063514D01*
X31562685Y51025419D01*
X31543638Y51006371D01*
X31505542Y50987323D01*
X31353161Y50987323D01*
X31715066Y51196847D02*
X31962685Y51196847D01*
X31829352Y51044466D01*
X31886495Y51044466D01*
X31924590Y51025419D01*
X31943638Y51006371D01*
X31962685Y50968276D01*
X31962685Y50873038D01*
X31943638Y50834942D01*
X31924590Y50815895D01*
X31886495Y50796847D01*
X31772209Y50796847D01*
X31734114Y50815895D01*
X31715066Y50834942D01*
%TO.C,R4*%
D15*
X29812980Y63073114D02*
X29812980Y62596923D01*
X30289171Y62549304D01*
X30241552Y62596923D01*
X30193933Y62692161D01*
X30193933Y62930257D01*
X30241552Y63025495D01*
X30289171Y63073114D01*
X30384409Y63120733D01*
X30622504Y63120733D01*
X30717742Y63073114D01*
X30765361Y63025495D01*
X30812980Y62930257D01*
X30812980Y62692161D01*
X30765361Y62596923D01*
X30717742Y62549304D01*
X30812980Y64073114D02*
X30812980Y63501685D01*
X30812980Y63787400D02*
X29812980Y63787400D01*
X29955838Y63692161D01*
X30051076Y63596923D01*
X30098695Y63501685D01*
X29812980Y64692161D02*
X29812980Y64787400D01*
X29860600Y64882638D01*
X29908219Y64930257D01*
X30003457Y64977876D01*
X30193933Y65025495D01*
X30432028Y65025495D01*
X30622504Y64977876D01*
X30717742Y64930257D01*
X30765361Y64882638D01*
X30812980Y64787400D01*
X30812980Y64692161D01*
X30765361Y64596923D01*
X30717742Y64549304D01*
X30622504Y64501685D01*
X30432028Y64454066D01*
X30193933Y64454066D01*
X30003457Y64501685D01*
X29908219Y64549304D01*
X29860600Y64596923D01*
X29812980Y64692161D01*
X30812980Y66025495D02*
X30336790Y65692161D01*
X30812980Y65454066D02*
X29812980Y65454066D01*
X29812980Y65835019D01*
X29860600Y65930257D01*
X29908219Y65977876D01*
X30003457Y66025495D01*
X30146314Y66025495D01*
X30241552Y65977876D01*
X30289171Y65930257D01*
X30336790Y65835019D01*
X30336790Y65454066D01*
D16*
X29111552Y64220733D02*
X28921076Y64087400D01*
X29111552Y63992161D02*
X28711552Y63992161D01*
X28711552Y64144542D01*
X28730600Y64182638D01*
X28749647Y64201685D01*
X28787742Y64220733D01*
X28844885Y64220733D01*
X28882980Y64201685D01*
X28902028Y64182638D01*
X28921076Y64144542D01*
X28921076Y63992161D01*
X28844885Y64563590D02*
X29111552Y64563590D01*
X28692504Y64468352D02*
X28978219Y64373114D01*
X28978219Y64620733D01*
%TO.C,R5*%
D15*
X71912314Y66707019D02*
X71436123Y66707019D01*
X71388504Y66230828D01*
X71436123Y66278447D01*
X71531361Y66326066D01*
X71769457Y66326066D01*
X71864695Y66278447D01*
X71912314Y66230828D01*
X71959933Y66135590D01*
X71959933Y65897495D01*
X71912314Y65802257D01*
X71864695Y65754638D01*
X71769457Y65707019D01*
X71531361Y65707019D01*
X71436123Y65754638D01*
X71388504Y65802257D01*
X72912314Y65707019D02*
X72340885Y65707019D01*
X72626600Y65707019D02*
X72626600Y66707019D01*
X72531361Y66564161D01*
X72436123Y66468923D01*
X72340885Y66421304D01*
X73531361Y66707019D02*
X73626600Y66707019D01*
X73721838Y66659400D01*
X73769457Y66611780D01*
X73817076Y66516542D01*
X73864695Y66326066D01*
X73864695Y66087971D01*
X73817076Y65897495D01*
X73769457Y65802257D01*
X73721838Y65754638D01*
X73626600Y65707019D01*
X73531361Y65707019D01*
X73436123Y65754638D01*
X73388504Y65802257D01*
X73340885Y65897495D01*
X73293266Y66087971D01*
X73293266Y66326066D01*
X73340885Y66516542D01*
X73388504Y66611780D01*
X73436123Y66659400D01*
X73531361Y66707019D01*
X74864695Y65707019D02*
X74531361Y66183209D01*
X74293266Y65707019D02*
X74293266Y66707019D01*
X74674219Y66707019D01*
X74769457Y66659400D01*
X74817076Y66611780D01*
X74864695Y66516542D01*
X74864695Y66373685D01*
X74817076Y66278447D01*
X74769457Y66230828D01*
X74674219Y66183209D01*
X74293266Y66183209D01*
D16*
X73059933Y67408447D02*
X72926600Y67598923D01*
X72831361Y67408447D02*
X72831361Y67808447D01*
X72983742Y67808447D01*
X73021838Y67789400D01*
X73040885Y67770352D01*
X73059933Y67732257D01*
X73059933Y67675114D01*
X73040885Y67637019D01*
X73021838Y67617971D01*
X72983742Y67598923D01*
X72831361Y67598923D01*
X73421838Y67808447D02*
X73231361Y67808447D01*
X73212314Y67617971D01*
X73231361Y67637019D01*
X73269457Y67656066D01*
X73364695Y67656066D01*
X73402790Y67637019D01*
X73421838Y67617971D01*
X73440885Y67579876D01*
X73440885Y67484638D01*
X73421838Y67446542D01*
X73402790Y67427495D01*
X73364695Y67408447D01*
X73269457Y67408447D01*
X73231361Y67427495D01*
X73212314Y67446542D01*
%TO.C,R6*%
D15*
X62961971Y45056819D02*
X62390542Y45056819D01*
X62676257Y45056819D02*
X62676257Y46056819D01*
X62581019Y45913961D01*
X62485780Y45818723D01*
X62390542Y45771104D01*
X63581019Y46056819D02*
X63676257Y46056819D01*
X63771495Y46009200D01*
X63819114Y45961580D01*
X63866733Y45866342D01*
X63914352Y45675866D01*
X63914352Y45437771D01*
X63866733Y45247295D01*
X63819114Y45152057D01*
X63771495Y45104438D01*
X63676257Y45056819D01*
X63581019Y45056819D01*
X63485780Y45104438D01*
X63438161Y45152057D01*
X63390542Y45247295D01*
X63342923Y45437771D01*
X63342923Y45675866D01*
X63390542Y45866342D01*
X63438161Y45961580D01*
X63485780Y46009200D01*
X63581019Y46056819D01*
X64533400Y46056819D02*
X64628638Y46056819D01*
X64723876Y46009200D01*
X64771495Y45961580D01*
X64819114Y45866342D01*
X64866733Y45675866D01*
X64866733Y45437771D01*
X64819114Y45247295D01*
X64771495Y45152057D01*
X64723876Y45104438D01*
X64628638Y45056819D01*
X64533400Y45056819D01*
X64438161Y45104438D01*
X64390542Y45152057D01*
X64342923Y45247295D01*
X64295304Y45437771D01*
X64295304Y45675866D01*
X64342923Y45866342D01*
X64390542Y45961580D01*
X64438161Y46009200D01*
X64533400Y46056819D01*
X65295304Y45056819D02*
X65295304Y46056819D01*
X65390542Y45437771D02*
X65676257Y45056819D01*
X65676257Y45723485D02*
X65295304Y45342533D01*
D16*
X63966733Y46758247D02*
X63833400Y46948723D01*
X63738161Y46758247D02*
X63738161Y47158247D01*
X63890542Y47158247D01*
X63928638Y47139200D01*
X63947685Y47120152D01*
X63966733Y47082057D01*
X63966733Y47024914D01*
X63947685Y46986819D01*
X63928638Y46967771D01*
X63890542Y46948723D01*
X63738161Y46948723D01*
X64309590Y47158247D02*
X64233400Y47158247D01*
X64195304Y47139200D01*
X64176257Y47120152D01*
X64138161Y47063009D01*
X64119114Y46986819D01*
X64119114Y46834438D01*
X64138161Y46796342D01*
X64157209Y46777295D01*
X64195304Y46758247D01*
X64271495Y46758247D01*
X64309590Y46777295D01*
X64328638Y46796342D01*
X64347685Y46834438D01*
X64347685Y46929676D01*
X64328638Y46967771D01*
X64309590Y46986819D01*
X64271495Y47005866D01*
X64195304Y47005866D01*
X64157209Y46986819D01*
X64138161Y46967771D01*
X64119114Y46929676D01*
%TO.C,R7*%
D15*
X28283180Y54706971D02*
X28283180Y54135542D01*
X28283180Y54421257D02*
X27283180Y54421257D01*
X27426038Y54326019D01*
X27521276Y54230780D01*
X27568895Y54135542D01*
X27283180Y55326019D02*
X27283180Y55421257D01*
X27330800Y55516495D01*
X27378419Y55564114D01*
X27473657Y55611733D01*
X27664133Y55659352D01*
X27902228Y55659352D01*
X28092704Y55611733D01*
X28187942Y55564114D01*
X28235561Y55516495D01*
X28283180Y55421257D01*
X28283180Y55326019D01*
X28235561Y55230780D01*
X28187942Y55183161D01*
X28092704Y55135542D01*
X27902228Y55087923D01*
X27664133Y55087923D01*
X27473657Y55135542D01*
X27378419Y55183161D01*
X27330800Y55230780D01*
X27283180Y55326019D01*
X27283180Y56278400D02*
X27283180Y56373638D01*
X27330800Y56468876D01*
X27378419Y56516495D01*
X27473657Y56564114D01*
X27664133Y56611733D01*
X27902228Y56611733D01*
X28092704Y56564114D01*
X28187942Y56516495D01*
X28235561Y56468876D01*
X28283180Y56373638D01*
X28283180Y56278400D01*
X28235561Y56183161D01*
X28187942Y56135542D01*
X28092704Y56087923D01*
X27902228Y56040304D01*
X27664133Y56040304D01*
X27473657Y56087923D01*
X27378419Y56135542D01*
X27330800Y56183161D01*
X27283180Y56278400D01*
X28283180Y57040304D02*
X27283180Y57040304D01*
X27902228Y57135542D02*
X28283180Y57421257D01*
X27616514Y57421257D02*
X27997466Y57040304D01*
D16*
X29441752Y55711733D02*
X29251276Y55578400D01*
X29441752Y55483161D02*
X29041752Y55483161D01*
X29041752Y55635542D01*
X29060800Y55673638D01*
X29079847Y55692685D01*
X29117942Y55711733D01*
X29175085Y55711733D01*
X29213180Y55692685D01*
X29232228Y55673638D01*
X29251276Y55635542D01*
X29251276Y55483161D01*
X29041752Y55845066D02*
X29041752Y56111733D01*
X29441752Y55940304D01*
%TO.C,R8*%
D15*
X27378419Y51614533D02*
X27330800Y51662152D01*
X27283180Y51757390D01*
X27283180Y51995485D01*
X27330800Y52090723D01*
X27378419Y52138342D01*
X27473657Y52185961D01*
X27568895Y52185961D01*
X27711752Y52138342D01*
X28283180Y51566914D01*
X28283180Y52185961D01*
X27378419Y52566914D02*
X27330800Y52614533D01*
X27283180Y52709771D01*
X27283180Y52947866D01*
X27330800Y53043104D01*
X27378419Y53090723D01*
X27473657Y53138342D01*
X27568895Y53138342D01*
X27711752Y53090723D01*
X28283180Y52519295D01*
X28283180Y53138342D01*
X28283180Y53566914D02*
X27283180Y53566914D01*
X27902228Y53662152D02*
X28283180Y53947866D01*
X27616514Y53947866D02*
X27997466Y53566914D01*
D16*
X29441752Y52714533D02*
X29251276Y52581200D01*
X29441752Y52485961D02*
X29041752Y52485961D01*
X29041752Y52638342D01*
X29060800Y52676438D01*
X29079847Y52695485D01*
X29117942Y52714533D01*
X29175085Y52714533D01*
X29213180Y52695485D01*
X29232228Y52676438D01*
X29251276Y52638342D01*
X29251276Y52485961D01*
X29213180Y52943104D02*
X29194133Y52905009D01*
X29175085Y52885961D01*
X29136990Y52866914D01*
X29117942Y52866914D01*
X29079847Y52885961D01*
X29060800Y52905009D01*
X29041752Y52943104D01*
X29041752Y53019295D01*
X29060800Y53057390D01*
X29079847Y53076438D01*
X29117942Y53095485D01*
X29136990Y53095485D01*
X29175085Y53076438D01*
X29194133Y53057390D01*
X29213180Y53019295D01*
X29213180Y52943104D01*
X29232228Y52905009D01*
X29251276Y52885961D01*
X29289371Y52866914D01*
X29365561Y52866914D01*
X29403657Y52885961D01*
X29422704Y52905009D01*
X29441752Y52943104D01*
X29441752Y53019295D01*
X29422704Y53057390D01*
X29403657Y53076438D01*
X29365561Y53095485D01*
X29289371Y53095485D01*
X29251276Y53076438D01*
X29232228Y53057390D01*
X29213180Y53019295D01*
%TO.C,SW1*%
D12*
X33439200Y67651342D02*
X33524914Y67622771D01*
X33667771Y67622771D01*
X33724914Y67651342D01*
X33753485Y67679914D01*
X33782057Y67737057D01*
X33782057Y67794200D01*
X33753485Y67851342D01*
X33724914Y67879914D01*
X33667771Y67908485D01*
X33553485Y67937057D01*
X33496342Y67965628D01*
X33467771Y67994200D01*
X33439200Y68051342D01*
X33439200Y68108485D01*
X33467771Y68165628D01*
X33496342Y68194200D01*
X33553485Y68222771D01*
X33696342Y68222771D01*
X33782057Y68194200D01*
X33982057Y68222771D02*
X34124914Y67622771D01*
X34239200Y68051342D01*
X34353485Y67622771D01*
X34496342Y68222771D01*
X35039200Y67622771D02*
X34696342Y67622771D01*
X34867771Y67622771D02*
X34867771Y68222771D01*
X34810628Y68137057D01*
X34753485Y68079914D01*
X34696342Y68051342D01*
%TO.C,SW2*%
X43777000Y67600542D02*
X43862714Y67571971D01*
X44005571Y67571971D01*
X44062714Y67600542D01*
X44091285Y67629114D01*
X44119857Y67686257D01*
X44119857Y67743400D01*
X44091285Y67800542D01*
X44062714Y67829114D01*
X44005571Y67857685D01*
X43891285Y67886257D01*
X43834142Y67914828D01*
X43805571Y67943400D01*
X43777000Y68000542D01*
X43777000Y68057685D01*
X43805571Y68114828D01*
X43834142Y68143400D01*
X43891285Y68171971D01*
X44034142Y68171971D01*
X44119857Y68143400D01*
X44319857Y68171971D02*
X44462714Y67571971D01*
X44577000Y68000542D01*
X44691285Y67571971D01*
X44834142Y68171971D01*
X45034142Y68114828D02*
X45062714Y68143400D01*
X45119857Y68171971D01*
X45262714Y68171971D01*
X45319857Y68143400D01*
X45348428Y68114828D01*
X45377000Y68057685D01*
X45377000Y68000542D01*
X45348428Y67914828D01*
X45005571Y67571971D01*
X45377000Y67571971D01*
%TO.C,U1*%
D15*
X35493786Y66076164D02*
X35460114Y66177179D01*
X35359099Y66278194D01*
X35224412Y66345538D01*
X35089725Y66345538D01*
X34988710Y66311866D01*
X34820351Y66210851D01*
X34719336Y66109836D01*
X34618320Y65941477D01*
X34584649Y65840462D01*
X34584649Y65705775D01*
X34651992Y65571088D01*
X34719336Y65503744D01*
X34854023Y65436401D01*
X34921366Y65436401D01*
X35157068Y65672103D01*
X35022381Y65806790D01*
X35157068Y65066011D02*
X35864175Y65773118D01*
X36032534Y65604759D01*
X36099877Y65470072D01*
X36099877Y65335385D01*
X36066206Y65234370D01*
X35965190Y65066011D01*
X35864175Y64964996D01*
X35695816Y64863981D01*
X35594801Y64830309D01*
X35460114Y64830309D01*
X35325427Y64897653D01*
X35157068Y65066011D01*
X36470267Y65032340D02*
X36537610Y65032340D01*
X36638625Y64998668D01*
X36806984Y64830309D01*
X36840656Y64729294D01*
X36840656Y64661950D01*
X36806984Y64560935D01*
X36739641Y64493592D01*
X36604954Y64426248D01*
X35796832Y64426248D01*
X36234564Y63988515D01*
X37581434Y64055859D02*
X37244717Y64392576D01*
X36874328Y64089531D01*
X36941671Y64089531D01*
X37042686Y64055859D01*
X37211045Y63887500D01*
X37244717Y63786485D01*
X37244717Y63719141D01*
X37211045Y63618126D01*
X37042686Y63449767D01*
X36941671Y63416096D01*
X36874328Y63416096D01*
X36773312Y63449767D01*
X36604954Y63618126D01*
X36571282Y63719141D01*
X36571282Y63786485D01*
X37615106Y62473287D02*
X37581434Y62574302D01*
X37581434Y62708989D01*
X37581434Y62911019D01*
X37547763Y63012035D01*
X37480419Y63079378D01*
X37345732Y62877348D02*
X37312060Y62978363D01*
X37312060Y63113050D01*
X37413076Y63281409D01*
X37648778Y63517111D01*
X37817137Y63618126D01*
X37951824Y63618126D01*
X38052839Y63584454D01*
X38187526Y63449767D01*
X38221198Y63348752D01*
X38221198Y63214065D01*
X38120182Y63045706D01*
X37884480Y62810004D01*
X37716121Y62708989D01*
X37581434Y62708989D01*
X37480419Y62742661D01*
X37345732Y62877348D01*
X38591587Y63045706D02*
X39029320Y62607974D01*
X38524243Y62574302D01*
X38625259Y62473287D01*
X38658930Y62372271D01*
X38658930Y62304928D01*
X38625259Y62203913D01*
X38456900Y62035554D01*
X38355885Y62001882D01*
X38288541Y62001882D01*
X38187526Y62035554D01*
X37985495Y62237584D01*
X37951824Y62338600D01*
X37951824Y62405943D01*
X39231350Y62271256D02*
X39298694Y62271256D01*
X39399709Y62237584D01*
X39568068Y62069226D01*
X39601739Y61968210D01*
X39601739Y61900867D01*
X39568068Y61799852D01*
X39500724Y61732508D01*
X39366037Y61665165D01*
X38557915Y61665165D01*
X38995648Y61227432D01*
D12*
X35123733Y62674981D02*
X34723040Y62274287D01*
X34699469Y62203576D01*
X34699469Y62156436D01*
X34723040Y62085725D01*
X34817321Y61991444D01*
X34888031Y61967874D01*
X34935172Y61967874D01*
X35005882Y61991444D01*
X35406576Y62392138D01*
X35406576Y61402189D02*
X35123733Y61685031D01*
X35265155Y61543610D02*
X35760130Y62038585D01*
X35642278Y62015014D01*
X35547998Y62015014D01*
X35477287Y62038585D01*
%TO.C,U3*%
D15*
X64801380Y56761142D02*
X64325190Y56427809D01*
X64801380Y56189714D02*
X63801380Y56189714D01*
X63801380Y56570666D01*
X63849000Y56665904D01*
X63896619Y56713523D01*
X63991857Y56761142D01*
X64134714Y56761142D01*
X64229952Y56713523D01*
X64277571Y56665904D01*
X64325190Y56570666D01*
X64325190Y56189714D01*
X64277571Y57523047D02*
X64277571Y57189714D01*
X64801380Y57189714D02*
X63801380Y57189714D01*
X63801380Y57665904D01*
X64801380Y58046857D02*
X63801380Y58046857D01*
X64515666Y58380190D01*
X63801380Y58713523D01*
X64801380Y58713523D01*
X64801380Y59237333D02*
X64801380Y59427809D01*
X64753761Y59523047D01*
X64706142Y59570666D01*
X64563285Y59665904D01*
X64372809Y59713523D01*
X63991857Y59713523D01*
X63896619Y59665904D01*
X63849000Y59618285D01*
X63801380Y59523047D01*
X63801380Y59332571D01*
X63849000Y59237333D01*
X63896619Y59189714D01*
X63991857Y59142095D01*
X64229952Y59142095D01*
X64325190Y59189714D01*
X64372809Y59237333D01*
X64420428Y59332571D01*
X64420428Y59523047D01*
X64372809Y59618285D01*
X64325190Y59665904D01*
X64229952Y59713523D01*
X63801380Y60570666D02*
X63801380Y60380190D01*
X63849000Y60284952D01*
X63896619Y60237333D01*
X64039476Y60142095D01*
X64229952Y60094476D01*
X64610904Y60094476D01*
X64706142Y60142095D01*
X64753761Y60189714D01*
X64801380Y60284952D01*
X64801380Y60475428D01*
X64753761Y60570666D01*
X64706142Y60618285D01*
X64610904Y60665904D01*
X64372809Y60665904D01*
X64277571Y60618285D01*
X64229952Y60570666D01*
X64182333Y60475428D01*
X64182333Y60284952D01*
X64229952Y60189714D01*
X64277571Y60142095D01*
X64372809Y60094476D01*
X61301380Y57642095D02*
X62110904Y57642095D01*
X62206142Y57689714D01*
X62253761Y57737333D01*
X62301380Y57832571D01*
X62301380Y58023047D01*
X62253761Y58118285D01*
X62206142Y58165904D01*
X62110904Y58213523D01*
X61301380Y58213523D01*
X61301380Y58594476D02*
X61301380Y59213523D01*
X61682333Y58880190D01*
X61682333Y59023047D01*
X61729952Y59118285D01*
X61777571Y59165904D01*
X61872809Y59213523D01*
X62110904Y59213523D01*
X62206142Y59165904D01*
X62253761Y59118285D01*
X62301380Y59023047D01*
X62301380Y58737333D01*
X62253761Y58642095D01*
X62206142Y58594476D01*
%TO.C,U4*%
X24073161Y52473552D02*
X24120780Y52616409D01*
X24120780Y52854504D01*
X24073161Y52949742D01*
X24025542Y52997361D01*
X23930304Y53044980D01*
X23835066Y53044980D01*
X23739828Y52997361D01*
X23692209Y52949742D01*
X23644590Y52854504D01*
X23596971Y52664028D01*
X23549352Y52568790D01*
X23501733Y52521171D01*
X23406495Y52473552D01*
X23311257Y52473552D01*
X23216019Y52521171D01*
X23168400Y52568790D01*
X23120780Y52664028D01*
X23120780Y52902123D01*
X23168400Y53044980D01*
X23644590Y53664028D02*
X24120780Y53664028D01*
X23120780Y53330695D02*
X23644590Y53664028D01*
X23120780Y53997361D01*
X23549352Y54473552D02*
X23501733Y54378314D01*
X23454114Y54330695D01*
X23358876Y54283076D01*
X23311257Y54283076D01*
X23216019Y54330695D01*
X23168400Y54378314D01*
X23120780Y54473552D01*
X23120780Y54664028D01*
X23168400Y54759266D01*
X23216019Y54806885D01*
X23311257Y54854504D01*
X23358876Y54854504D01*
X23454114Y54806885D01*
X23501733Y54759266D01*
X23549352Y54664028D01*
X23549352Y54473552D01*
X23596971Y54378314D01*
X23644590Y54330695D01*
X23739828Y54283076D01*
X23930304Y54283076D01*
X24025542Y54330695D01*
X24073161Y54378314D01*
X24120780Y54473552D01*
X24120780Y54664028D01*
X24073161Y54759266D01*
X24025542Y54806885D01*
X23930304Y54854504D01*
X23739828Y54854504D01*
X23644590Y54806885D01*
X23596971Y54759266D01*
X23549352Y54664028D01*
X23120780Y55473552D02*
X23120780Y55568790D01*
X23168400Y55664028D01*
X23216019Y55711647D01*
X23311257Y55759266D01*
X23501733Y55806885D01*
X23739828Y55806885D01*
X23930304Y55759266D01*
X24025542Y55711647D01*
X24073161Y55664028D01*
X24120780Y55568790D01*
X24120780Y55473552D01*
X24073161Y55378314D01*
X24025542Y55330695D01*
X23930304Y55283076D01*
X23739828Y55235457D01*
X23501733Y55235457D01*
X23311257Y55283076D01*
X23216019Y55330695D01*
X23168400Y55378314D01*
X23120780Y55473552D01*
X23120780Y56140219D02*
X24120780Y56806885D01*
X23120780Y56806885D02*
X24120780Y56140219D01*
X23120780Y57092600D02*
X24120780Y57759266D01*
X23120780Y57759266D02*
X24120780Y57092600D01*
D18*
X26187447Y55366409D02*
X26187447Y54961647D01*
X26211257Y54914028D01*
X26235066Y54890219D01*
X26282685Y54866409D01*
X26377923Y54866409D01*
X26425542Y54890219D01*
X26449352Y54914028D01*
X26473161Y54961647D01*
X26473161Y55366409D01*
X26925542Y55199742D02*
X26925542Y54866409D01*
X26806495Y55390219D02*
X26687447Y55033076D01*
X26996971Y55033076D01*
%TO.C,J1*%
D15*
X54325342Y43226504D02*
X54372961Y43178885D01*
X54420580Y43036028D01*
X54420580Y42940790D01*
X54372961Y42797933D01*
X54277723Y42702695D01*
X54182485Y42655076D01*
X53992009Y42607457D01*
X53849152Y42607457D01*
X53658676Y42655076D01*
X53563438Y42702695D01*
X53468200Y42797933D01*
X53420580Y42940790D01*
X53420580Y43036028D01*
X53468200Y43178885D01*
X53515819Y43226504D01*
X54420580Y43797933D02*
X54372961Y43702695D01*
X54325342Y43655076D01*
X54230104Y43607457D01*
X53944390Y43607457D01*
X53849152Y43655076D01*
X53801533Y43702695D01*
X53753914Y43797933D01*
X53753914Y43940790D01*
X53801533Y44036028D01*
X53849152Y44083647D01*
X53944390Y44131266D01*
X54230104Y44131266D01*
X54325342Y44083647D01*
X54372961Y44036028D01*
X54420580Y43940790D01*
X54420580Y43797933D01*
X53753914Y44559838D02*
X54420580Y44559838D01*
X53849152Y44559838D02*
X53801533Y44607457D01*
X53753914Y44702695D01*
X53753914Y44845552D01*
X53801533Y44940790D01*
X53896771Y44988409D01*
X54420580Y44988409D01*
X53753914Y45464600D02*
X54420580Y45464600D01*
X53849152Y45464600D02*
X53801533Y45512219D01*
X53753914Y45607457D01*
X53753914Y45750314D01*
X53801533Y45845552D01*
X53896771Y45893171D01*
X54420580Y45893171D01*
X54515819Y46131266D02*
X54515819Y46893171D01*
X53420580Y47321742D02*
X53420580Y47416980D01*
X53468200Y47512219D01*
X53515819Y47559838D01*
X53611057Y47607457D01*
X53801533Y47655076D01*
X54039628Y47655076D01*
X54230104Y47607457D01*
X54325342Y47559838D01*
X54372961Y47512219D01*
X54420580Y47416980D01*
X54420580Y47321742D01*
X54372961Y47226504D01*
X54325342Y47178885D01*
X54230104Y47131266D01*
X54039628Y47083647D01*
X53801533Y47083647D01*
X53611057Y47131266D01*
X53515819Y47178885D01*
X53468200Y47226504D01*
X53420580Y47321742D01*
X54420580Y48607457D02*
X54420580Y48036028D01*
X54420580Y48321742D02*
X53420580Y48321742D01*
X53563438Y48226504D01*
X53658676Y48131266D01*
X53706295Y48036028D01*
X54420580Y48940790D02*
X53753914Y49464600D01*
X53753914Y48940790D02*
X54420580Y49464600D01*
X53420580Y50036028D02*
X53420580Y50131266D01*
X53468200Y50226504D01*
X53515819Y50274123D01*
X53611057Y50321742D01*
X53801533Y50369361D01*
X54039628Y50369361D01*
X54230104Y50321742D01*
X54325342Y50274123D01*
X54372961Y50226504D01*
X54420580Y50131266D01*
X54420580Y50036028D01*
X54372961Y49940790D01*
X54325342Y49893171D01*
X54230104Y49845552D01*
X54039628Y49797933D01*
X53801533Y49797933D01*
X53611057Y49845552D01*
X53515819Y49893171D01*
X53468200Y49940790D01*
X53420580Y50036028D01*
X53420580Y50702695D02*
X53420580Y51369361D01*
X54420580Y50940790D01*
X43684866Y47512219D02*
X43684866Y46797933D01*
X43637247Y46655076D01*
X43542009Y46559838D01*
X43399152Y46512219D01*
X43303914Y46512219D01*
X44684866Y46512219D02*
X44113438Y46512219D01*
X44399152Y46512219D02*
X44399152Y47512219D01*
X44303914Y47369361D01*
X44208676Y47274123D01*
X44113438Y47226504D01*
%TD*%
M02*
