%TF.GenerationSoftware,KiCad,Pcbnew,(5.1.6)-1*%
%TF.CreationDate,2020-12-02T12:11:42+01:00*%
%TF.ProjectId,LoRa_Dongle_Thin,4c6f5261-5f44-46f6-9e67-6c655f546869,rev?*%
%TF.SameCoordinates,Original*%
%TF.FileFunction,Copper,L2,Bot*%
%TF.FilePolarity,Positive*%
%FSLAX46Y46*%
G04 Gerber Fmt 4.6, Leading zero omitted, Abs format (unit mm)*
G04 Created by KiCad (PCBNEW (5.1.6)-1) date 2020-12-02 12:11:42*
%MOMM*%
%LPD*%
G01*
G04 APERTURE LIST*
%TA.AperFunction,SMDPad,CuDef*%
%ADD10R,1.000000X2.510000*%
%TD*%
%TA.AperFunction,ComponentPad*%
%ADD11C,2.250000*%
%TD*%
%TA.AperFunction,SMDPad,CuDef*%
%ADD12R,0.800000X1.500000*%
%TD*%
%TA.AperFunction,SMDPad,CuDef*%
%ADD13R,1.450000X2.000000*%
%TD*%
%TA.AperFunction,ViaPad*%
%ADD14C,0.450000*%
%TD*%
%TA.AperFunction,Conductor*%
%ADD15C,0.500000*%
%TD*%
%TA.AperFunction,Conductor*%
%ADD16C,0.300000*%
%TD*%
%TA.AperFunction,Conductor*%
%ADD17C,0.200000*%
%TD*%
%TA.AperFunction,Conductor*%
%ADD18C,0.250000*%
%TD*%
%TA.AperFunction,Conductor*%
%ADD19C,0.254000*%
%TD*%
G04 APERTURE END LIST*
D10*
%TO.P,J1,1*%
%TO.N,GND*%
X44043600Y50643600D03*
%TO.P,J1,3*%
%TO.N,/PA01*%
X38963600Y50643600D03*
%TO.P,J1,5*%
%TO.N,/SWDIO*%
X33883600Y50643600D03*
%TO.P,J1,7*%
%TO.N,+3V3*%
X28803600Y50643600D03*
%TO.P,J1,2*%
%TO.N,/PA02*%
X41503600Y50643600D03*
%TO.P,J1,4*%
%TO.N,/PA00*%
X36423600Y50643600D03*
%TO.P,J1,6*%
%TO.N,/SWCLK*%
X31343600Y50643600D03*
%TD*%
D11*
%TO.P,J3,1*%
%TO.N,Net-(J3-Pad1)*%
X74289400Y57251600D03*
%TO.P,J3,2*%
%TO.N,GND*%
X71749400Y54711600D03*
X76829400Y54711600D03*
X76829400Y59791600D03*
X71749400Y59791600D03*
%TD*%
D12*
%TO.P,J4,1*%
%TO.N,Net-(J4-Pad1)*%
X53309400Y54076000D03*
%TO.P,J4,2*%
%TO.N,/SD_CS*%
X54409400Y54076000D03*
%TO.P,J4,3*%
%TO.N,/SDO*%
X55509400Y54076000D03*
%TO.P,J4,4*%
%TO.N,+3V3*%
X56609400Y54076000D03*
%TO.P,J4,5*%
%TO.N,/SCK*%
X57709400Y54076000D03*
%TO.P,J4,6*%
%TO.N,Net-(J4-Pad6)*%
X58809400Y54076000D03*
%TO.P,J4,7*%
%TO.N,/SDI*%
X59909400Y54076000D03*
%TO.P,J4,8*%
%TO.N,GND*%
X61009400Y54076000D03*
D13*
%TO.P,J4,9*%
X63384400Y59776000D03*
X49634400Y59776000D03*
X49634400Y51476000D03*
X63384400Y51476000D03*
%TD*%
D14*
%TO.N,GND*%
X66192400Y54762400D03*
X66827400Y55397400D03*
X67462400Y56032400D03*
X68097400Y56667400D03*
X68732400Y57302400D03*
X69367400Y57937400D03*
%TO.N,*%
X70383400Y58445400D03*
%TO.N,GND*%
X67970400Y52349400D03*
X67970400Y51460400D03*
X67970400Y50571400D03*
X67589400Y49809400D03*
X68732400Y53873400D03*
X69367400Y54508400D03*
X68199000Y53213000D03*
X43798067Y52764267D03*
X45415200Y49758600D03*
X33223200Y64566800D03*
X37287200Y53263800D03*
X30683200Y62585600D03*
X25349200Y62585600D03*
X23114000Y62484000D03*
X23368000Y64008000D03*
X40462200Y57023000D03*
%TO.N,+3V3*%
X31775400Y59563000D03*
X52933600Y56159400D03*
X56616600Y55321200D03*
X45415200Y53086000D03*
X42341800Y56896000D03*
X35737800Y53467000D03*
%TO.N,GND*%
X34721800Y54635400D03*
X30048200Y51663600D03*
X32613600Y50749200D03*
%TO.N,/nRESET*%
X34518600Y57810400D03*
X32816800Y59969400D03*
%TO.N,+3V3*%
X35966400Y63982600D03*
X40843200Y52324000D03*
X65963800Y57505600D03*
X68707000Y62738000D03*
%TO.N,/SWDIO*%
X35498586Y49860200D03*
%TO.N,/SWCLK*%
X32918400Y49834800D03*
%TO.N,/RGB*%
X33375600Y60528200D03*
X65836800Y59842400D03*
%TO.N,/LED*%
X26390600Y51663600D03*
X25222200Y49631600D03*
%TO.N,/RF_RESET*%
X45415200Y55499000D03*
X42443400Y59182000D03*
%TO.N,/RF_INT*%
X41021000Y59842400D03*
X62026800Y60274200D03*
%TO.N,/FLASH_SDO*%
X42590125Y53946412D03*
X42773596Y50063400D03*
%TO.N,USB_D+*%
X22116888Y57029512D03*
X30276800Y57886600D03*
%TO.N,USB_D-*%
X21107400Y57048400D03*
X30327600Y58597802D03*
%TO.N,/PA00*%
X37541200Y50596800D03*
%TO.N,/PA01*%
X40055800Y50444400D03*
%TO.N,/SD_CS*%
X38658800Y54025800D03*
%TO.N,/SDO*%
X36547661Y59794539D03*
X40820285Y61806820D03*
X54533800Y57531000D03*
%TO.N,/SCK*%
X36042600Y59131200D03*
X41279859Y61332610D03*
X50520600Y58166000D03*
%TO.N,/SDI*%
X36880800Y62001400D03*
X40280600Y62331830D03*
X50317400Y62204600D03*
%TO.N,/PA02*%
X40259000Y51435000D03*
%TD*%
D15*
%TO.N,+3V3*%
X44272200Y54178200D02*
X50038000Y54178200D01*
X50038000Y54178200D02*
X52019200Y56159400D01*
X52019200Y56159400D02*
X52933600Y56159400D01*
D16*
X56609400Y54076000D02*
X56609400Y55314000D01*
X56609400Y55314000D02*
X56616600Y55321200D01*
X44323000Y54178200D02*
X44272200Y54178200D01*
X45415200Y53086000D02*
X44323000Y54178200D01*
D15*
X43510200Y54940200D02*
X44272200Y54178200D01*
X31775400Y59563000D02*
X36398200Y54940200D01*
D16*
X36398200Y54127400D02*
X36398200Y54940200D01*
X35737800Y53467000D02*
X36398200Y54127400D01*
D15*
X43205400Y55245000D02*
X43510200Y54940200D01*
X36398200Y54940200D02*
X36703000Y55245000D01*
X36703000Y55245000D02*
X43205400Y55245000D01*
D16*
X43205400Y56032400D02*
X43205400Y55245000D01*
X42341800Y56896000D02*
X43205400Y56032400D01*
%TO.N,GND*%
X44043600Y50643600D02*
X44444699Y50643600D01*
D17*
X44530200Y50643600D02*
X45415200Y49758600D01*
X44043600Y50643600D02*
X44530200Y50643600D01*
%TO.N,/nRESET*%
X34518600Y57810400D02*
X34518600Y58267600D01*
X34518600Y58267600D02*
X32816800Y59969400D01*
D16*
%TO.N,+3V3*%
X35737800Y53467000D02*
X29667200Y53467000D01*
X28803600Y52603400D02*
X28803600Y50643600D01*
X29667200Y53467000D02*
X28803600Y52603400D01*
D17*
X31775400Y59563000D02*
X31775400Y60185998D01*
X31775400Y60185998D02*
X35572002Y63982600D01*
X35572002Y63982600D02*
X35966400Y63982600D01*
X37617400Y54076600D02*
X36347400Y54076600D01*
X40843200Y52324000D02*
X39370000Y52324000D01*
X36347400Y54076600D02*
X35737800Y53467000D01*
X39370000Y52324000D02*
X37617400Y54076600D01*
D18*
X65963800Y57505600D02*
X68707000Y60248800D01*
X68707000Y60248800D02*
X68707000Y62738000D01*
D17*
%TO.N,/SWDIO*%
X33883600Y50643600D02*
X34715186Y50643600D01*
X34715186Y50643600D02*
X35498586Y49860200D01*
%TO.N,/SWCLK*%
X32152400Y49834800D02*
X31343600Y50643600D01*
X32918400Y49834800D02*
X32152400Y49834800D01*
D18*
%TO.N,/RGB*%
X33375600Y60528200D02*
X36002011Y63154611D01*
X36002011Y63154611D02*
X62524589Y63154611D01*
X62524589Y63154611D02*
X65836800Y59842400D01*
D17*
%TO.N,/LED*%
X26390600Y51663600D02*
X26390600Y50800000D01*
X26390600Y50800000D02*
X25222200Y49631600D01*
%TO.N,/RF_RESET*%
X42443400Y58470800D02*
X42443400Y59182000D01*
X45415200Y55499000D02*
X42443400Y58470800D01*
%TO.N,/RF_INT*%
X43908201Y62729601D02*
X41021000Y59842400D01*
X62026800Y60274200D02*
X59571399Y62729601D01*
X59571399Y62729601D02*
X43908201Y62729601D01*
%TO.N,/FLASH_SDO*%
X42590125Y53946412D02*
X42590125Y50246871D01*
X42590125Y50246871D02*
X42773596Y50063400D01*
%TO.N,USB_D+*%
X28727400Y57886600D02*
X30276800Y57886600D01*
X22116888Y57029512D02*
X22973976Y57886600D01*
X22973976Y57886600D02*
X28727400Y57886600D01*
%TO.N,USB_D-*%
X21107400Y57048400D02*
X22656802Y58597802D01*
X22656802Y58597802D02*
X30327600Y58597802D01*
%TO.N,/PA00*%
X36470400Y50596800D02*
X36423600Y50643600D01*
X37541200Y50596800D02*
X36470400Y50596800D01*
%TO.N,/PA01*%
X39162800Y50444400D02*
X38963600Y50643600D01*
X40055800Y50444400D02*
X39162800Y50444400D01*
%TO.N,/SD_CS*%
X54409400Y53126000D02*
X54409400Y54076000D01*
X39327990Y54694990D02*
X42977580Y54694990D01*
X46007799Y52560999D02*
X46380400Y52933600D01*
X54217000Y52933600D02*
X54409400Y53126000D01*
X45111571Y52560999D02*
X46007799Y52560999D01*
X46380400Y52933600D02*
X54217000Y52933600D01*
X38658800Y54025800D02*
X39327990Y54694990D01*
X42977580Y54694990D02*
X45111571Y52560999D01*
%TO.N,/SDO*%
X38559942Y61806820D02*
X40820285Y61806820D01*
X36547661Y59794539D02*
X38559942Y61806820D01*
X55509400Y56555400D02*
X54533800Y57531000D01*
X55509400Y54076000D02*
X55509400Y56555400D01*
%TO.N,/SCK*%
X36042600Y59131200D02*
X39078449Y59131200D01*
X39078449Y59131200D02*
X41279859Y61332610D01*
X54752004Y58166000D02*
X50520600Y58166000D01*
X57709400Y55208604D02*
X54752004Y58166000D01*
X57709400Y54076000D02*
X57709400Y55208604D01*
%TO.N,/SDI*%
X36880800Y62001400D02*
X37211230Y62331830D01*
X37211230Y62331830D02*
X40280600Y62331830D01*
X59909400Y55026000D02*
X52730800Y62204600D01*
X59909400Y54076000D02*
X59909400Y55026000D01*
X52730800Y62204600D02*
X50317400Y62204600D01*
%TO.N,/PA02*%
X41025000Y50643600D02*
X41503600Y50643600D01*
X40259000Y51435000D02*
X40259000Y51409600D01*
X40259000Y51409600D02*
X41025000Y50643600D01*
%TD*%
D19*
%TO.N,GND*%
G36*
X38732320Y52281443D02*
G01*
X38463600Y52281443D01*
X38388911Y52274087D01*
X38317092Y52252301D01*
X38250904Y52216922D01*
X38192889Y52169311D01*
X38145278Y52111296D01*
X38109899Y52045108D01*
X38088113Y51973289D01*
X38080757Y51898600D01*
X38080757Y50877748D01*
X38078230Y50883849D01*
X38011911Y50983102D01*
X37927502Y51067511D01*
X37828249Y51133830D01*
X37717964Y51179512D01*
X37600886Y51202800D01*
X37481514Y51202800D01*
X37364436Y51179512D01*
X37306443Y51155490D01*
X37306443Y51898600D01*
X37299087Y51973289D01*
X37277301Y52045108D01*
X37241922Y52111296D01*
X37194311Y52169311D01*
X37136296Y52216922D01*
X37070108Y52252301D01*
X36998289Y52274087D01*
X36923600Y52281443D01*
X35923600Y52281443D01*
X35848911Y52274087D01*
X35777092Y52252301D01*
X35710904Y52216922D01*
X35652889Y52169311D01*
X35605278Y52111296D01*
X35569899Y52045108D01*
X35548113Y51973289D01*
X35540757Y51898600D01*
X35540757Y50498266D01*
X35072016Y50967006D01*
X35056950Y50985364D01*
X34983708Y51045472D01*
X34900147Y51090136D01*
X34809478Y51117640D01*
X34766443Y51121879D01*
X34766443Y51898600D01*
X34759087Y51973289D01*
X34737301Y52045108D01*
X34701922Y52111296D01*
X34654311Y52169311D01*
X34596296Y52216922D01*
X34530108Y52252301D01*
X34458289Y52274087D01*
X34383600Y52281443D01*
X33383600Y52281443D01*
X33308911Y52274087D01*
X33237092Y52252301D01*
X33170904Y52216922D01*
X33112889Y52169311D01*
X33065278Y52111296D01*
X33029899Y52045108D01*
X33008113Y51973289D01*
X33000757Y51898600D01*
X33000757Y50436291D01*
X32978086Y50440800D01*
X32858714Y50440800D01*
X32741636Y50417512D01*
X32631351Y50371830D01*
X32547497Y50315800D01*
X32351637Y50315800D01*
X32226443Y50440994D01*
X32226443Y51898600D01*
X32219087Y51973289D01*
X32197301Y52045108D01*
X32161922Y52111296D01*
X32114311Y52169311D01*
X32056296Y52216922D01*
X31990108Y52252301D01*
X31918289Y52274087D01*
X31843600Y52281443D01*
X30843600Y52281443D01*
X30768911Y52274087D01*
X30697092Y52252301D01*
X30630904Y52216922D01*
X30572889Y52169311D01*
X30525278Y52111296D01*
X30489899Y52045108D01*
X30468113Y51973289D01*
X30460757Y51898600D01*
X30460757Y49388600D01*
X30468113Y49313911D01*
X30468329Y49313200D01*
X29678871Y49313200D01*
X29679087Y49313911D01*
X29686443Y49388600D01*
X29686443Y51898600D01*
X29679087Y51973289D01*
X29657301Y52045108D01*
X29621922Y52111296D01*
X29574311Y52169311D01*
X29516296Y52216922D01*
X29450108Y52252301D01*
X29378289Y52274087D01*
X29334600Y52278390D01*
X29334600Y52383454D01*
X29887147Y52936000D01*
X35441727Y52936000D01*
X35450751Y52929970D01*
X35561036Y52884288D01*
X35678114Y52861000D01*
X35797486Y52861000D01*
X35914564Y52884288D01*
X36024849Y52929970D01*
X36124102Y52996289D01*
X36208511Y53080698D01*
X36274830Y53179951D01*
X36320512Y53290236D01*
X36322630Y53300883D01*
X36617347Y53595600D01*
X37418164Y53595600D01*
X38732320Y52281443D01*
G37*
X38732320Y52281443D02*
X38463600Y52281443D01*
X38388911Y52274087D01*
X38317092Y52252301D01*
X38250904Y52216922D01*
X38192889Y52169311D01*
X38145278Y52111296D01*
X38109899Y52045108D01*
X38088113Y51973289D01*
X38080757Y51898600D01*
X38080757Y50877748D01*
X38078230Y50883849D01*
X38011911Y50983102D01*
X37927502Y51067511D01*
X37828249Y51133830D01*
X37717964Y51179512D01*
X37600886Y51202800D01*
X37481514Y51202800D01*
X37364436Y51179512D01*
X37306443Y51155490D01*
X37306443Y51898600D01*
X37299087Y51973289D01*
X37277301Y52045108D01*
X37241922Y52111296D01*
X37194311Y52169311D01*
X37136296Y52216922D01*
X37070108Y52252301D01*
X36998289Y52274087D01*
X36923600Y52281443D01*
X35923600Y52281443D01*
X35848911Y52274087D01*
X35777092Y52252301D01*
X35710904Y52216922D01*
X35652889Y52169311D01*
X35605278Y52111296D01*
X35569899Y52045108D01*
X35548113Y51973289D01*
X35540757Y51898600D01*
X35540757Y50498266D01*
X35072016Y50967006D01*
X35056950Y50985364D01*
X34983708Y51045472D01*
X34900147Y51090136D01*
X34809478Y51117640D01*
X34766443Y51121879D01*
X34766443Y51898600D01*
X34759087Y51973289D01*
X34737301Y52045108D01*
X34701922Y52111296D01*
X34654311Y52169311D01*
X34596296Y52216922D01*
X34530108Y52252301D01*
X34458289Y52274087D01*
X34383600Y52281443D01*
X33383600Y52281443D01*
X33308911Y52274087D01*
X33237092Y52252301D01*
X33170904Y52216922D01*
X33112889Y52169311D01*
X33065278Y52111296D01*
X33029899Y52045108D01*
X33008113Y51973289D01*
X33000757Y51898600D01*
X33000757Y50436291D01*
X32978086Y50440800D01*
X32858714Y50440800D01*
X32741636Y50417512D01*
X32631351Y50371830D01*
X32547497Y50315800D01*
X32351637Y50315800D01*
X32226443Y50440994D01*
X32226443Y51898600D01*
X32219087Y51973289D01*
X32197301Y52045108D01*
X32161922Y52111296D01*
X32114311Y52169311D01*
X32056296Y52216922D01*
X31990108Y52252301D01*
X31918289Y52274087D01*
X31843600Y52281443D01*
X30843600Y52281443D01*
X30768911Y52274087D01*
X30697092Y52252301D01*
X30630904Y52216922D01*
X30572889Y52169311D01*
X30525278Y52111296D01*
X30489899Y52045108D01*
X30468113Y51973289D01*
X30460757Y51898600D01*
X30460757Y49388600D01*
X30468113Y49313911D01*
X30468329Y49313200D01*
X29678871Y49313200D01*
X29679087Y49313911D01*
X29686443Y49388600D01*
X29686443Y51898600D01*
X29679087Y51973289D01*
X29657301Y52045108D01*
X29621922Y52111296D01*
X29574311Y52169311D01*
X29516296Y52216922D01*
X29450108Y52252301D01*
X29378289Y52274087D01*
X29334600Y52278390D01*
X29334600Y52383454D01*
X29887147Y52936000D01*
X35441727Y52936000D01*
X35450751Y52929970D01*
X35561036Y52884288D01*
X35678114Y52861000D01*
X35797486Y52861000D01*
X35914564Y52884288D01*
X36024849Y52929970D01*
X36124102Y52996289D01*
X36208511Y53080698D01*
X36274830Y53179951D01*
X36320512Y53290236D01*
X36322630Y53300883D01*
X36617347Y53595600D01*
X37418164Y53595600D01*
X38732320Y52281443D01*
G36*
X70160732Y65076557D02*
G01*
X70257825Y65047243D01*
X70347370Y64999631D01*
X70425968Y64935528D01*
X70490612Y64857386D01*
X70538848Y64768176D01*
X70568839Y64671290D01*
X70581451Y64551295D01*
X70581466Y64546949D01*
X70583259Y64529296D01*
X70583135Y64511561D01*
X70583688Y64505919D01*
X70637578Y63993194D01*
X70644983Y63957121D01*
X70651873Y63921003D01*
X70653511Y63915576D01*
X70805963Y63423082D01*
X70820240Y63389119D01*
X70834008Y63355041D01*
X70836664Y63350045D01*
X70836668Y63350036D01*
X70836673Y63350029D01*
X71081877Y62896533D01*
X71102453Y62866027D01*
X71122603Y62835235D01*
X71126180Y62830849D01*
X71126185Y62830842D01*
X71126191Y62830836D01*
X71454810Y62433604D01*
X71480942Y62407653D01*
X71506666Y62381385D01*
X71511028Y62377776D01*
X71511034Y62377770D01*
X71511041Y62377766D01*
X71910557Y62051928D01*
X71941199Y62031570D01*
X71971569Y62010775D01*
X71976555Y62008078D01*
X72431758Y61766043D01*
X72465798Y61752012D01*
X72499602Y61737524D01*
X72505010Y61735849D01*
X72505016Y61735847D01*
X72505022Y61735846D01*
X72998565Y61586837D01*
X73034720Y61579678D01*
X73070654Y61572040D01*
X73076283Y61571448D01*
X73076293Y61571446D01*
X73076302Y61571446D01*
X73589382Y61521138D01*
X73609059Y61519200D01*
X78074400Y61519200D01*
X78074400Y60643047D01*
X78052184Y60676297D01*
X77832088Y60790045D01*
X76833643Y59791600D01*
X77832088Y58793155D01*
X78052184Y58906903D01*
X78074400Y58944981D01*
X78074401Y55563046D01*
X78052184Y55596297D01*
X77832088Y55710045D01*
X76833643Y54711600D01*
X77832088Y53713155D01*
X78052184Y53826903D01*
X78074401Y53864982D01*
X78074401Y52882400D01*
X73609059Y52882400D01*
X73590273Y52880550D01*
X73573761Y52880665D01*
X73568119Y52880112D01*
X73055394Y52826222D01*
X73019315Y52818816D01*
X72983203Y52811927D01*
X72977778Y52810290D01*
X72977772Y52810288D01*
X72485282Y52657837D01*
X72451319Y52643560D01*
X72417241Y52629792D01*
X72412245Y52627136D01*
X72412236Y52627132D01*
X72412229Y52627127D01*
X71958733Y52381923D01*
X71928227Y52361347D01*
X71897435Y52341197D01*
X71893049Y52337620D01*
X71893042Y52337615D01*
X71893036Y52337609D01*
X71495804Y52008990D01*
X71469869Y51982874D01*
X71443584Y51957133D01*
X71439970Y51952766D01*
X71114128Y51553243D01*
X71093744Y51522563D01*
X71072975Y51492231D01*
X71070281Y51487249D01*
X71070278Y51487245D01*
X71070278Y51487244D01*
X70828242Y51032042D01*
X70814208Y50997993D01*
X70799724Y50964198D01*
X70798047Y50958783D01*
X70649037Y50465235D01*
X70641879Y50429086D01*
X70634240Y50393146D01*
X70633648Y50387517D01*
X70633646Y50387507D01*
X70633646Y50387498D01*
X70583338Y49874419D01*
X70569557Y49733868D01*
X70540243Y49636776D01*
X70492631Y49547230D01*
X70428530Y49468635D01*
X70350385Y49403987D01*
X70261177Y49355753D01*
X70164290Y49325761D01*
X70044780Y49313200D01*
X44914692Y49313200D01*
X44915145Y49314695D01*
X44922424Y49388600D01*
X44920711Y50476000D01*
X48530576Y50476000D01*
X48537855Y50402095D01*
X48559412Y50331030D01*
X48594419Y50265537D01*
X48641531Y50208131D01*
X48698937Y50161019D01*
X48764430Y50126012D01*
X48835495Y50104455D01*
X48909400Y50097176D01*
X49537150Y50099000D01*
X49631400Y50193250D01*
X49631400Y51473000D01*
X49637400Y51473000D01*
X49637400Y50193250D01*
X49731650Y50099000D01*
X50359400Y50097176D01*
X50433305Y50104455D01*
X50504370Y50126012D01*
X50569863Y50161019D01*
X50627269Y50208131D01*
X50674381Y50265537D01*
X50709388Y50331030D01*
X50730945Y50402095D01*
X50738224Y50476000D01*
X62280576Y50476000D01*
X62287855Y50402095D01*
X62309412Y50331030D01*
X62344419Y50265537D01*
X62391531Y50208131D01*
X62448937Y50161019D01*
X62514430Y50126012D01*
X62585495Y50104455D01*
X62659400Y50097176D01*
X63287150Y50099000D01*
X63381400Y50193250D01*
X63381400Y51473000D01*
X63387400Y51473000D01*
X63387400Y50193250D01*
X63481650Y50099000D01*
X64109400Y50097176D01*
X64183305Y50104455D01*
X64254370Y50126012D01*
X64319863Y50161019D01*
X64377269Y50208131D01*
X64424381Y50265537D01*
X64459388Y50331030D01*
X64480945Y50402095D01*
X64488224Y50476000D01*
X64486400Y51378750D01*
X64392150Y51473000D01*
X63387400Y51473000D01*
X63381400Y51473000D01*
X62376650Y51473000D01*
X62282400Y51378750D01*
X62280576Y50476000D01*
X50738224Y50476000D01*
X50736400Y51378750D01*
X50642150Y51473000D01*
X49637400Y51473000D01*
X49631400Y51473000D01*
X48626650Y51473000D01*
X48532400Y51378750D01*
X48530576Y50476000D01*
X44920711Y50476000D01*
X44920600Y50546350D01*
X44826350Y50640600D01*
X44046600Y50640600D01*
X44046600Y50620600D01*
X44040600Y50620600D01*
X44040600Y50640600D01*
X43260850Y50640600D01*
X43166600Y50546350D01*
X43166570Y50527439D01*
X43159898Y50534111D01*
X43071125Y50593427D01*
X43071125Y51898600D01*
X43164776Y51898600D01*
X43166600Y50740850D01*
X43260850Y50646600D01*
X44040600Y50646600D01*
X44040600Y52181350D01*
X44046600Y52181350D01*
X44046600Y50646600D01*
X44826350Y50646600D01*
X44920600Y50740850D01*
X44922424Y51898600D01*
X44915145Y51972505D01*
X44893588Y52043570D01*
X44858581Y52109063D01*
X44811469Y52166469D01*
X44754063Y52213581D01*
X44688570Y52248588D01*
X44617505Y52270145D01*
X44543600Y52277424D01*
X44140850Y52275600D01*
X44046600Y52181350D01*
X44040600Y52181350D01*
X43946350Y52275600D01*
X43543600Y52277424D01*
X43469695Y52270145D01*
X43398630Y52248588D01*
X43333137Y52213581D01*
X43275731Y52166469D01*
X43228619Y52109063D01*
X43193612Y52043570D01*
X43172055Y51972505D01*
X43164776Y51898600D01*
X43071125Y51898600D01*
X43071125Y53575509D01*
X43127155Y53659363D01*
X43172837Y53769648D01*
X43181107Y53811226D01*
X44754746Y52237587D01*
X44769807Y52219235D01*
X44843049Y52159127D01*
X44926610Y52114463D01*
X44975970Y52099490D01*
X45017278Y52086959D01*
X45111570Y52077672D01*
X45135197Y52079999D01*
X45984173Y52079999D01*
X46007799Y52077672D01*
X46031425Y52079999D01*
X46035558Y52080406D01*
X46102091Y52086959D01*
X46107385Y52088565D01*
X46192760Y52114463D01*
X46276321Y52159127D01*
X46349563Y52219235D01*
X46364629Y52237592D01*
X46579637Y52452600D01*
X48530623Y52452600D01*
X48532400Y51573250D01*
X48626650Y51479000D01*
X49631400Y51479000D01*
X49631400Y51499000D01*
X49637400Y51499000D01*
X49637400Y51479000D01*
X50642150Y51479000D01*
X50736400Y51573250D01*
X50738177Y52452600D01*
X54193374Y52452600D01*
X54217000Y52450273D01*
X54240626Y52452600D01*
X54274660Y52455952D01*
X54311292Y52459560D01*
X54314720Y52460600D01*
X54365487Y52476000D01*
X62280576Y52476000D01*
X62282400Y51573250D01*
X62376650Y51479000D01*
X63381400Y51479000D01*
X63381400Y52758750D01*
X63387400Y52758750D01*
X63387400Y51479000D01*
X64392150Y51479000D01*
X64486400Y51573250D01*
X64488224Y52476000D01*
X64480945Y52549905D01*
X64459388Y52620970D01*
X64424381Y52686463D01*
X64377269Y52743869D01*
X64319863Y52790981D01*
X64254370Y52825988D01*
X64183305Y52847545D01*
X64109400Y52854824D01*
X63481650Y52853000D01*
X63387400Y52758750D01*
X63381400Y52758750D01*
X63287150Y52853000D01*
X62659400Y52854824D01*
X62585495Y52847545D01*
X62514430Y52825988D01*
X62448937Y52790981D01*
X62391531Y52743869D01*
X62344419Y52686463D01*
X62309412Y52620970D01*
X62287855Y52549905D01*
X62280576Y52476000D01*
X54365487Y52476000D01*
X54401961Y52487064D01*
X54485522Y52531728D01*
X54558764Y52591836D01*
X54573830Y52610194D01*
X54732806Y52769170D01*
X54751164Y52784236D01*
X54811272Y52857478D01*
X54851870Y52933432D01*
X54855936Y52941038D01*
X54858032Y52947947D01*
X54884089Y52950513D01*
X54955908Y52972299D01*
X54959400Y52974166D01*
X54962892Y52972299D01*
X55034711Y52950513D01*
X55109400Y52943157D01*
X55909400Y52943157D01*
X55984089Y52950513D01*
X56055908Y52972299D01*
X56059400Y52974166D01*
X56062892Y52972299D01*
X56134711Y52950513D01*
X56209400Y52943157D01*
X57009400Y52943157D01*
X57084089Y52950513D01*
X57155908Y52972299D01*
X57159400Y52974166D01*
X57162892Y52972299D01*
X57234711Y52950513D01*
X57309400Y52943157D01*
X58109400Y52943157D01*
X58184089Y52950513D01*
X58255908Y52972299D01*
X58259400Y52974166D01*
X58262892Y52972299D01*
X58334711Y52950513D01*
X58409400Y52943157D01*
X59209400Y52943157D01*
X59284089Y52950513D01*
X59355908Y52972299D01*
X59359400Y52974166D01*
X59362892Y52972299D01*
X59434711Y52950513D01*
X59509400Y52943157D01*
X60309400Y52943157D01*
X60384089Y52950513D01*
X60455908Y52972299D01*
X60463642Y52976433D01*
X60464430Y52976012D01*
X60535495Y52954455D01*
X60609400Y52947176D01*
X60912150Y52949000D01*
X61006400Y53043250D01*
X61006400Y54073000D01*
X61012400Y54073000D01*
X61012400Y53043250D01*
X61106650Y52949000D01*
X61409400Y52947176D01*
X61483305Y52954455D01*
X61554370Y52976012D01*
X61619863Y53011019D01*
X61677269Y53058131D01*
X61724381Y53115537D01*
X61759388Y53181030D01*
X61780945Y53252095D01*
X61788224Y53326000D01*
X61787155Y53708912D01*
X70750955Y53708912D01*
X70864703Y53488816D01*
X71120256Y53339715D01*
X71399987Y53243336D01*
X71693145Y53203382D01*
X71988464Y53221387D01*
X72274597Y53296660D01*
X72540546Y53426309D01*
X72634097Y53488816D01*
X72747845Y53708912D01*
X75830955Y53708912D01*
X75944703Y53488816D01*
X76200256Y53339715D01*
X76479987Y53243336D01*
X76773145Y53203382D01*
X77068464Y53221387D01*
X77354597Y53296660D01*
X77620546Y53426309D01*
X77714097Y53488816D01*
X77827845Y53708912D01*
X76829400Y54707357D01*
X75830955Y53708912D01*
X72747845Y53708912D01*
X71749400Y54707357D01*
X70750955Y53708912D01*
X61787155Y53708912D01*
X61786400Y53978750D01*
X61692150Y54073000D01*
X61012400Y54073000D01*
X61006400Y54073000D01*
X60986400Y54073000D01*
X60986400Y54079000D01*
X61006400Y54079000D01*
X61006400Y55108750D01*
X61012400Y55108750D01*
X61012400Y54079000D01*
X61692150Y54079000D01*
X61786400Y54173250D01*
X61788061Y54767855D01*
X70241182Y54767855D01*
X70259187Y54472536D01*
X70334460Y54186403D01*
X70464109Y53920454D01*
X70526616Y53826903D01*
X70746712Y53713155D01*
X71745157Y54711600D01*
X71753643Y54711600D01*
X72752088Y53713155D01*
X72972184Y53826903D01*
X73121285Y54082456D01*
X73217664Y54362187D01*
X73257618Y54655345D01*
X73250759Y54767855D01*
X75321182Y54767855D01*
X75339187Y54472536D01*
X75414460Y54186403D01*
X75544109Y53920454D01*
X75606616Y53826903D01*
X75826712Y53713155D01*
X76825157Y54711600D01*
X75826712Y55710045D01*
X75606616Y55596297D01*
X75457515Y55340744D01*
X75361136Y55061013D01*
X75321182Y54767855D01*
X73250759Y54767855D01*
X73239613Y54950664D01*
X73164340Y55236797D01*
X73034691Y55502746D01*
X72972184Y55596297D01*
X72752088Y55710045D01*
X71753643Y54711600D01*
X71745157Y54711600D01*
X70746712Y55710045D01*
X70526616Y55596297D01*
X70377515Y55340744D01*
X70281136Y55061013D01*
X70241182Y54767855D01*
X61788061Y54767855D01*
X61788224Y54826000D01*
X61780945Y54899905D01*
X61759388Y54970970D01*
X61724381Y55036463D01*
X61677269Y55093869D01*
X61619863Y55140981D01*
X61554370Y55175988D01*
X61483305Y55197545D01*
X61409400Y55204824D01*
X61106650Y55203000D01*
X61012400Y55108750D01*
X61006400Y55108750D01*
X60912150Y55203000D01*
X60609400Y55204824D01*
X60535495Y55197545D01*
X60464430Y55175988D01*
X60463642Y55175567D01*
X60455908Y55179701D01*
X60384089Y55201487D01*
X60358031Y55204053D01*
X60355936Y55210961D01*
X60311272Y55294522D01*
X60251164Y55367764D01*
X60232812Y55382825D01*
X59901349Y55714288D01*
X70750955Y55714288D01*
X71749400Y54715843D01*
X72747845Y55714288D01*
X75830955Y55714288D01*
X76829400Y54715843D01*
X77827845Y55714288D01*
X77714097Y55934384D01*
X77458544Y56083485D01*
X77178813Y56179864D01*
X76885655Y56219818D01*
X76590336Y56201813D01*
X76304203Y56126540D01*
X76038254Y55996891D01*
X75944703Y55934384D01*
X75830955Y55714288D01*
X72747845Y55714288D01*
X72634097Y55934384D01*
X72378544Y56083485D01*
X72098813Y56179864D01*
X71805655Y56219818D01*
X71510336Y56201813D01*
X71224203Y56126540D01*
X70958254Y55996891D01*
X70864703Y55934384D01*
X70750955Y55714288D01*
X59901349Y55714288D01*
X58050351Y57565286D01*
X65357800Y57565286D01*
X65357800Y57445914D01*
X65381088Y57328836D01*
X65426770Y57218551D01*
X65493089Y57119298D01*
X65577498Y57034889D01*
X65676751Y56968570D01*
X65787036Y56922888D01*
X65904114Y56899600D01*
X66023486Y56899600D01*
X66140564Y56922888D01*
X66250849Y56968570D01*
X66350102Y57034889D01*
X66434511Y57119298D01*
X66500830Y57218551D01*
X66546512Y57328836D01*
X66557409Y57383618D01*
X66573719Y57399928D01*
X72783400Y57399928D01*
X72783400Y57103272D01*
X72841275Y56812316D01*
X72954800Y56538241D01*
X73119613Y56291581D01*
X73329381Y56081813D01*
X73576041Y55917000D01*
X73850116Y55803475D01*
X74141072Y55745600D01*
X74437728Y55745600D01*
X74728684Y55803475D01*
X75002759Y55917000D01*
X75249419Y56081813D01*
X75459187Y56291581D01*
X75624000Y56538241D01*
X75737525Y56812316D01*
X75795400Y57103272D01*
X75795400Y57399928D01*
X75737525Y57690884D01*
X75624000Y57964959D01*
X75459187Y58211619D01*
X75249419Y58421387D01*
X75002759Y58586200D01*
X74728684Y58699725D01*
X74437728Y58757600D01*
X74141072Y58757600D01*
X73850116Y58699725D01*
X73576041Y58586200D01*
X73329381Y58421387D01*
X73119613Y58211619D01*
X72954800Y57964959D01*
X72841275Y57690884D01*
X72783400Y57399928D01*
X66573719Y57399928D01*
X67678877Y58505086D01*
X69777400Y58505086D01*
X69777400Y58385714D01*
X69800688Y58268636D01*
X69846370Y58158351D01*
X69912689Y58059098D01*
X69997098Y57974689D01*
X70096351Y57908370D01*
X70206636Y57862688D01*
X70323714Y57839400D01*
X70443086Y57839400D01*
X70560164Y57862688D01*
X70670449Y57908370D01*
X70769702Y57974689D01*
X70854111Y58059098D01*
X70920430Y58158351D01*
X70966112Y58268636D01*
X70989400Y58385714D01*
X70989400Y58496062D01*
X71120256Y58419715D01*
X71399987Y58323336D01*
X71693145Y58283382D01*
X71988464Y58301387D01*
X72274597Y58376660D01*
X72540546Y58506309D01*
X72634097Y58568816D01*
X72747845Y58788912D01*
X75830955Y58788912D01*
X75944703Y58568816D01*
X76200256Y58419715D01*
X76479987Y58323336D01*
X76773145Y58283382D01*
X77068464Y58301387D01*
X77354597Y58376660D01*
X77620546Y58506309D01*
X77714097Y58568816D01*
X77827845Y58788912D01*
X76829400Y59787357D01*
X75830955Y58788912D01*
X72747845Y58788912D01*
X71749400Y59787357D01*
X71735258Y59773215D01*
X71731015Y59777458D01*
X71745157Y59791600D01*
X71753643Y59791600D01*
X72752088Y58793155D01*
X72972184Y58906903D01*
X73121285Y59162456D01*
X73217664Y59442187D01*
X73257618Y59735345D01*
X73250759Y59847855D01*
X75321182Y59847855D01*
X75339187Y59552536D01*
X75414460Y59266403D01*
X75544109Y59000454D01*
X75606616Y58906903D01*
X75826712Y58793155D01*
X76825157Y59791600D01*
X75826712Y60790045D01*
X75606616Y60676297D01*
X75457515Y60420744D01*
X75361136Y60141013D01*
X75321182Y59847855D01*
X73250759Y59847855D01*
X73239613Y60030664D01*
X73164340Y60316797D01*
X73034691Y60582746D01*
X72972184Y60676297D01*
X72752088Y60790045D01*
X71753643Y59791600D01*
X71745157Y59791600D01*
X70746712Y60790045D01*
X70526616Y60676297D01*
X70377515Y60420744D01*
X70281136Y60141013D01*
X70241182Y59847855D01*
X70259187Y59552536D01*
X70334460Y59266403D01*
X70439273Y59051400D01*
X70323714Y59051400D01*
X70206636Y59028112D01*
X70096351Y58982430D01*
X69997098Y58916111D01*
X69912689Y58831702D01*
X69846370Y58732449D01*
X69800688Y58622164D01*
X69777400Y58505086D01*
X67678877Y58505086D01*
X69047220Y59873428D01*
X69066527Y59889273D01*
X69129759Y59966321D01*
X69176745Y60054225D01*
X69205678Y60149607D01*
X69213000Y60223946D01*
X69213000Y60223947D01*
X69215448Y60248800D01*
X69213000Y60273654D01*
X69213000Y60794288D01*
X70750955Y60794288D01*
X71749400Y59795843D01*
X72747845Y60794288D01*
X75830955Y60794288D01*
X76829400Y59795843D01*
X77827845Y60794288D01*
X77714097Y61014384D01*
X77458544Y61163485D01*
X77178813Y61259864D01*
X76885655Y61299818D01*
X76590336Y61281813D01*
X76304203Y61206540D01*
X76038254Y61076891D01*
X75944703Y61014384D01*
X75830955Y60794288D01*
X72747845Y60794288D01*
X72634097Y61014384D01*
X72378544Y61163485D01*
X72098813Y61259864D01*
X71805655Y61299818D01*
X71510336Y61281813D01*
X71224203Y61206540D01*
X70958254Y61076891D01*
X70864703Y61014384D01*
X70750955Y60794288D01*
X69213000Y60794288D01*
X69213000Y62404512D01*
X69244030Y62450951D01*
X69289712Y62561236D01*
X69313000Y62678314D01*
X69313000Y62797686D01*
X69289712Y62914764D01*
X69244030Y63025049D01*
X69177711Y63124302D01*
X69093302Y63208711D01*
X68994049Y63275030D01*
X68883764Y63320712D01*
X68766686Y63344000D01*
X68647314Y63344000D01*
X68530236Y63320712D01*
X68419951Y63275030D01*
X68320698Y63208711D01*
X68236289Y63124302D01*
X68169970Y63025049D01*
X68124288Y62914764D01*
X68101000Y62797686D01*
X68101000Y62678314D01*
X68124288Y62561236D01*
X68169970Y62450951D01*
X68201001Y62404510D01*
X68201000Y60458392D01*
X65841818Y58099209D01*
X65787036Y58088312D01*
X65676751Y58042630D01*
X65577498Y57976311D01*
X65493089Y57891902D01*
X65426770Y57792649D01*
X65381088Y57682364D01*
X65357800Y57565286D01*
X58050351Y57565286D01*
X53367035Y62248601D01*
X59372163Y62248601D01*
X61424413Y60196350D01*
X61444088Y60097436D01*
X61489770Y59987151D01*
X61556089Y59887898D01*
X61640498Y59803489D01*
X61739751Y59737170D01*
X61850036Y59691488D01*
X61967114Y59668200D01*
X62086486Y59668200D01*
X62203564Y59691488D01*
X62313849Y59737170D01*
X62367470Y59772998D01*
X62376648Y59772998D01*
X62282400Y59678750D01*
X62280576Y58776000D01*
X62287855Y58702095D01*
X62309412Y58631030D01*
X62344419Y58565537D01*
X62391531Y58508131D01*
X62448937Y58461019D01*
X62514430Y58426012D01*
X62585495Y58404455D01*
X62659400Y58397176D01*
X63287150Y58399000D01*
X63381400Y58493250D01*
X63381400Y59773000D01*
X63387400Y59773000D01*
X63387400Y58493250D01*
X63481650Y58399000D01*
X64109400Y58397176D01*
X64183305Y58404455D01*
X64254370Y58426012D01*
X64319863Y58461019D01*
X64377269Y58508131D01*
X64424381Y58565537D01*
X64459388Y58631030D01*
X64480945Y58702095D01*
X64488224Y58776000D01*
X64486400Y59678750D01*
X64392150Y59773000D01*
X63387400Y59773000D01*
X63381400Y59773000D01*
X63361400Y59773000D01*
X63361400Y59779000D01*
X63381400Y59779000D01*
X63381400Y61058750D01*
X63287150Y61153000D01*
X62659400Y61154824D01*
X62585495Y61147545D01*
X62514430Y61125988D01*
X62448937Y61090981D01*
X62391531Y61043869D01*
X62344419Y60986463D01*
X62309412Y60920970D01*
X62287855Y60849905D01*
X62285214Y60823091D01*
X62203564Y60856912D01*
X62104650Y60876587D01*
X60332625Y62648611D01*
X62314998Y62648611D01*
X63809655Y61153953D01*
X63481650Y61153000D01*
X63387400Y61058750D01*
X63387400Y59779000D01*
X64392150Y59779000D01*
X64486400Y59873250D01*
X64487618Y60475990D01*
X65243192Y59720416D01*
X65254088Y59665636D01*
X65299770Y59555351D01*
X65366089Y59456098D01*
X65450498Y59371689D01*
X65549751Y59305370D01*
X65660036Y59259688D01*
X65777114Y59236400D01*
X65896486Y59236400D01*
X66013564Y59259688D01*
X66123849Y59305370D01*
X66223102Y59371689D01*
X66307511Y59456098D01*
X66373830Y59555351D01*
X66419512Y59665636D01*
X66442800Y59782714D01*
X66442800Y59902086D01*
X66419512Y60019164D01*
X66373830Y60129449D01*
X66307511Y60228702D01*
X66223102Y60313111D01*
X66123849Y60379430D01*
X66013564Y60425112D01*
X65958784Y60436008D01*
X62899965Y63494826D01*
X62884116Y63514138D01*
X62807068Y63577370D01*
X62719164Y63624356D01*
X62623782Y63653289D01*
X62549443Y63660611D01*
X62549435Y63660611D01*
X62524589Y63663058D01*
X62499743Y63660611D01*
X36480084Y63660611D01*
X36503430Y63695551D01*
X36549112Y63805836D01*
X36572400Y63922914D01*
X36572400Y64042286D01*
X36549112Y64159364D01*
X36503430Y64269649D01*
X36437111Y64368902D01*
X36352702Y64453311D01*
X36253449Y64519630D01*
X36143164Y64565312D01*
X36026086Y64588600D01*
X35906714Y64588600D01*
X35789636Y64565312D01*
X35679351Y64519630D01*
X35595513Y64463611D01*
X35572001Y64465927D01*
X35477709Y64456640D01*
X35466432Y64453219D01*
X35387041Y64429136D01*
X35303480Y64384472D01*
X35230238Y64324364D01*
X35215177Y64306012D01*
X31451989Y60542823D01*
X31433637Y60527762D01*
X31418576Y60509410D01*
X31373529Y60454520D01*
X31328865Y60370959D01*
X31301360Y60280290D01*
X31292073Y60185998D01*
X31294401Y60162362D01*
X31294401Y59971551D01*
X31248204Y59915260D01*
X31189611Y59805641D01*
X31153530Y59686697D01*
X31141348Y59563000D01*
X31153530Y59439303D01*
X31189611Y59320359D01*
X31248204Y59210740D01*
X31307297Y59138735D01*
X35867200Y54578832D01*
X35867200Y54347348D01*
X35571683Y54051830D01*
X35561036Y54049712D01*
X35450751Y54004030D01*
X35441727Y53998000D01*
X29693274Y53998000D01*
X29667200Y54000568D01*
X29641126Y53998000D01*
X29641116Y53998000D01*
X29563106Y53990317D01*
X29483322Y53966114D01*
X29463012Y53959953D01*
X29370764Y53910646D01*
X29310170Y53860917D01*
X29289910Y53844290D01*
X29273283Y53824030D01*
X28446575Y52997321D01*
X28426310Y52980690D01*
X28359954Y52899835D01*
X28310647Y52807587D01*
X28280283Y52707493D01*
X28272600Y52629483D01*
X28272600Y52629474D01*
X28270032Y52603400D01*
X28272600Y52577326D01*
X28272600Y52278390D01*
X28228911Y52274087D01*
X28157092Y52252301D01*
X28090904Y52216922D01*
X28032889Y52169311D01*
X27985278Y52111296D01*
X27949899Y52045108D01*
X27928113Y51973289D01*
X27920757Y51898600D01*
X27920757Y49388600D01*
X27928113Y49313911D01*
X27928329Y49313200D01*
X25738282Y49313200D01*
X25759230Y49344551D01*
X25804912Y49454836D01*
X25824587Y49553751D01*
X26714012Y50443175D01*
X26732364Y50458236D01*
X26792472Y50531478D01*
X26837136Y50615039D01*
X26864640Y50705708D01*
X26866137Y50720911D01*
X26873927Y50799999D01*
X26871600Y50823626D01*
X26871600Y51292697D01*
X26927630Y51376551D01*
X26973312Y51486836D01*
X26996600Y51603914D01*
X26996600Y51723286D01*
X26973312Y51840364D01*
X26927630Y51950649D01*
X26861311Y52049902D01*
X26776902Y52134311D01*
X26677649Y52200630D01*
X26567364Y52246312D01*
X26450286Y52269600D01*
X26330914Y52269600D01*
X26213836Y52246312D01*
X26103551Y52200630D01*
X26004298Y52134311D01*
X25919889Y52049902D01*
X25853570Y51950649D01*
X25807888Y51840364D01*
X25784600Y51723286D01*
X25784600Y51603914D01*
X25807888Y51486836D01*
X25853570Y51376551D01*
X25909600Y51292696D01*
X25909601Y50999238D01*
X25144351Y50233987D01*
X25045436Y50214312D01*
X24935151Y50168630D01*
X24835898Y50102311D01*
X24751489Y50017902D01*
X24685170Y49918649D01*
X24639488Y49808364D01*
X24616200Y49691286D01*
X24616200Y49571914D01*
X24639488Y49454836D01*
X24685170Y49344551D01*
X24694331Y49330841D01*
X24496921Y49350197D01*
X24153058Y49454017D01*
X23835907Y49622649D01*
X23557551Y49849670D01*
X23328596Y50126432D01*
X23157755Y50442395D01*
X23051538Y50785526D01*
X23013324Y51149105D01*
X23013964Y51155600D01*
X23006125Y51235190D01*
X22982910Y51311721D01*
X22945210Y51382253D01*
X22894474Y51444074D01*
X22832653Y51494810D01*
X22762121Y51532510D01*
X22685590Y51555725D01*
X22625941Y51561600D01*
X10997800Y51561600D01*
X10997800Y57108086D01*
X20501400Y57108086D01*
X20501400Y56988714D01*
X20524688Y56871636D01*
X20570370Y56761351D01*
X20636689Y56662098D01*
X20721098Y56577689D01*
X20820351Y56511370D01*
X20930636Y56465688D01*
X21047714Y56442400D01*
X21167086Y56442400D01*
X21284164Y56465688D01*
X21394449Y56511370D01*
X21493702Y56577689D01*
X21578111Y56662098D01*
X21605834Y56703588D01*
X21646177Y56643210D01*
X21730586Y56558801D01*
X21829839Y56492482D01*
X21940124Y56446800D01*
X22057202Y56423512D01*
X22176574Y56423512D01*
X22293652Y56446800D01*
X22403937Y56492482D01*
X22503190Y56558801D01*
X22587599Y56643210D01*
X22653918Y56742463D01*
X22699600Y56852748D01*
X22719275Y56951663D01*
X23173213Y57405600D01*
X29905897Y57405600D01*
X29989751Y57349570D01*
X30100036Y57303888D01*
X30217114Y57280600D01*
X30336486Y57280600D01*
X30453564Y57303888D01*
X30563849Y57349570D01*
X30663102Y57415889D01*
X30747511Y57500298D01*
X30813830Y57599551D01*
X30859512Y57709836D01*
X30882800Y57826914D01*
X30882800Y57946286D01*
X30859512Y58063364D01*
X30813830Y58173649D01*
X30792453Y58205642D01*
X30798311Y58211500D01*
X30864630Y58310753D01*
X30910312Y58421038D01*
X30933600Y58538116D01*
X30933600Y58657488D01*
X30910312Y58774566D01*
X30864630Y58884851D01*
X30798311Y58984104D01*
X30713902Y59068513D01*
X30614649Y59134832D01*
X30504364Y59180514D01*
X30387286Y59203802D01*
X30267914Y59203802D01*
X30150836Y59180514D01*
X30040551Y59134832D01*
X29956697Y59078802D01*
X22680425Y59078802D01*
X22656801Y59081129D01*
X22633177Y59078802D01*
X22633176Y59078802D01*
X22562510Y59071842D01*
X22471841Y59044338D01*
X22388280Y58999674D01*
X22315038Y58939566D01*
X22299977Y58921214D01*
X21029551Y57650787D01*
X20930636Y57631112D01*
X20820351Y57585430D01*
X20721098Y57519111D01*
X20636689Y57434702D01*
X20570370Y57335449D01*
X20524688Y57225164D01*
X20501400Y57108086D01*
X10997800Y57108086D01*
X10997800Y62840000D01*
X22625941Y62840000D01*
X22685590Y62845875D01*
X22762121Y62869090D01*
X22832653Y62906790D01*
X22894474Y62957526D01*
X22945210Y63019347D01*
X22982910Y63089879D01*
X23006125Y63166410D01*
X23013964Y63246000D01*
X23013955Y63246089D01*
X23048997Y63603475D01*
X23152817Y63947344D01*
X23321447Y64264490D01*
X23548466Y64542845D01*
X23825234Y64771806D01*
X24141195Y64942645D01*
X24484324Y65048862D01*
X24860505Y65088400D01*
X70039946Y65088400D01*
X70160732Y65076557D01*
G37*
X70160732Y65076557D02*
X70257825Y65047243D01*
X70347370Y64999631D01*
X70425968Y64935528D01*
X70490612Y64857386D01*
X70538848Y64768176D01*
X70568839Y64671290D01*
X70581451Y64551295D01*
X70581466Y64546949D01*
X70583259Y64529296D01*
X70583135Y64511561D01*
X70583688Y64505919D01*
X70637578Y63993194D01*
X70644983Y63957121D01*
X70651873Y63921003D01*
X70653511Y63915576D01*
X70805963Y63423082D01*
X70820240Y63389119D01*
X70834008Y63355041D01*
X70836664Y63350045D01*
X70836668Y63350036D01*
X70836673Y63350029D01*
X71081877Y62896533D01*
X71102453Y62866027D01*
X71122603Y62835235D01*
X71126180Y62830849D01*
X71126185Y62830842D01*
X71126191Y62830836D01*
X71454810Y62433604D01*
X71480942Y62407653D01*
X71506666Y62381385D01*
X71511028Y62377776D01*
X71511034Y62377770D01*
X71511041Y62377766D01*
X71910557Y62051928D01*
X71941199Y62031570D01*
X71971569Y62010775D01*
X71976555Y62008078D01*
X72431758Y61766043D01*
X72465798Y61752012D01*
X72499602Y61737524D01*
X72505010Y61735849D01*
X72505016Y61735847D01*
X72505022Y61735846D01*
X72998565Y61586837D01*
X73034720Y61579678D01*
X73070654Y61572040D01*
X73076283Y61571448D01*
X73076293Y61571446D01*
X73076302Y61571446D01*
X73589382Y61521138D01*
X73609059Y61519200D01*
X78074400Y61519200D01*
X78074400Y60643047D01*
X78052184Y60676297D01*
X77832088Y60790045D01*
X76833643Y59791600D01*
X77832088Y58793155D01*
X78052184Y58906903D01*
X78074400Y58944981D01*
X78074401Y55563046D01*
X78052184Y55596297D01*
X77832088Y55710045D01*
X76833643Y54711600D01*
X77832088Y53713155D01*
X78052184Y53826903D01*
X78074401Y53864982D01*
X78074401Y52882400D01*
X73609059Y52882400D01*
X73590273Y52880550D01*
X73573761Y52880665D01*
X73568119Y52880112D01*
X73055394Y52826222D01*
X73019315Y52818816D01*
X72983203Y52811927D01*
X72977778Y52810290D01*
X72977772Y52810288D01*
X72485282Y52657837D01*
X72451319Y52643560D01*
X72417241Y52629792D01*
X72412245Y52627136D01*
X72412236Y52627132D01*
X72412229Y52627127D01*
X71958733Y52381923D01*
X71928227Y52361347D01*
X71897435Y52341197D01*
X71893049Y52337620D01*
X71893042Y52337615D01*
X71893036Y52337609D01*
X71495804Y52008990D01*
X71469869Y51982874D01*
X71443584Y51957133D01*
X71439970Y51952766D01*
X71114128Y51553243D01*
X71093744Y51522563D01*
X71072975Y51492231D01*
X71070281Y51487249D01*
X71070278Y51487245D01*
X71070278Y51487244D01*
X70828242Y51032042D01*
X70814208Y50997993D01*
X70799724Y50964198D01*
X70798047Y50958783D01*
X70649037Y50465235D01*
X70641879Y50429086D01*
X70634240Y50393146D01*
X70633648Y50387517D01*
X70633646Y50387507D01*
X70633646Y50387498D01*
X70583338Y49874419D01*
X70569557Y49733868D01*
X70540243Y49636776D01*
X70492631Y49547230D01*
X70428530Y49468635D01*
X70350385Y49403987D01*
X70261177Y49355753D01*
X70164290Y49325761D01*
X70044780Y49313200D01*
X44914692Y49313200D01*
X44915145Y49314695D01*
X44922424Y49388600D01*
X44920711Y50476000D01*
X48530576Y50476000D01*
X48537855Y50402095D01*
X48559412Y50331030D01*
X48594419Y50265537D01*
X48641531Y50208131D01*
X48698937Y50161019D01*
X48764430Y50126012D01*
X48835495Y50104455D01*
X48909400Y50097176D01*
X49537150Y50099000D01*
X49631400Y50193250D01*
X49631400Y51473000D01*
X49637400Y51473000D01*
X49637400Y50193250D01*
X49731650Y50099000D01*
X50359400Y50097176D01*
X50433305Y50104455D01*
X50504370Y50126012D01*
X50569863Y50161019D01*
X50627269Y50208131D01*
X50674381Y50265537D01*
X50709388Y50331030D01*
X50730945Y50402095D01*
X50738224Y50476000D01*
X62280576Y50476000D01*
X62287855Y50402095D01*
X62309412Y50331030D01*
X62344419Y50265537D01*
X62391531Y50208131D01*
X62448937Y50161019D01*
X62514430Y50126012D01*
X62585495Y50104455D01*
X62659400Y50097176D01*
X63287150Y50099000D01*
X63381400Y50193250D01*
X63381400Y51473000D01*
X63387400Y51473000D01*
X63387400Y50193250D01*
X63481650Y50099000D01*
X64109400Y50097176D01*
X64183305Y50104455D01*
X64254370Y50126012D01*
X64319863Y50161019D01*
X64377269Y50208131D01*
X64424381Y50265537D01*
X64459388Y50331030D01*
X64480945Y50402095D01*
X64488224Y50476000D01*
X64486400Y51378750D01*
X64392150Y51473000D01*
X63387400Y51473000D01*
X63381400Y51473000D01*
X62376650Y51473000D01*
X62282400Y51378750D01*
X62280576Y50476000D01*
X50738224Y50476000D01*
X50736400Y51378750D01*
X50642150Y51473000D01*
X49637400Y51473000D01*
X49631400Y51473000D01*
X48626650Y51473000D01*
X48532400Y51378750D01*
X48530576Y50476000D01*
X44920711Y50476000D01*
X44920600Y50546350D01*
X44826350Y50640600D01*
X44046600Y50640600D01*
X44046600Y50620600D01*
X44040600Y50620600D01*
X44040600Y50640600D01*
X43260850Y50640600D01*
X43166600Y50546350D01*
X43166570Y50527439D01*
X43159898Y50534111D01*
X43071125Y50593427D01*
X43071125Y51898600D01*
X43164776Y51898600D01*
X43166600Y50740850D01*
X43260850Y50646600D01*
X44040600Y50646600D01*
X44040600Y52181350D01*
X44046600Y52181350D01*
X44046600Y50646600D01*
X44826350Y50646600D01*
X44920600Y50740850D01*
X44922424Y51898600D01*
X44915145Y51972505D01*
X44893588Y52043570D01*
X44858581Y52109063D01*
X44811469Y52166469D01*
X44754063Y52213581D01*
X44688570Y52248588D01*
X44617505Y52270145D01*
X44543600Y52277424D01*
X44140850Y52275600D01*
X44046600Y52181350D01*
X44040600Y52181350D01*
X43946350Y52275600D01*
X43543600Y52277424D01*
X43469695Y52270145D01*
X43398630Y52248588D01*
X43333137Y52213581D01*
X43275731Y52166469D01*
X43228619Y52109063D01*
X43193612Y52043570D01*
X43172055Y51972505D01*
X43164776Y51898600D01*
X43071125Y51898600D01*
X43071125Y53575509D01*
X43127155Y53659363D01*
X43172837Y53769648D01*
X43181107Y53811226D01*
X44754746Y52237587D01*
X44769807Y52219235D01*
X44843049Y52159127D01*
X44926610Y52114463D01*
X44975970Y52099490D01*
X45017278Y52086959D01*
X45111570Y52077672D01*
X45135197Y52079999D01*
X45984173Y52079999D01*
X46007799Y52077672D01*
X46031425Y52079999D01*
X46035558Y52080406D01*
X46102091Y52086959D01*
X46107385Y52088565D01*
X46192760Y52114463D01*
X46276321Y52159127D01*
X46349563Y52219235D01*
X46364629Y52237592D01*
X46579637Y52452600D01*
X48530623Y52452600D01*
X48532400Y51573250D01*
X48626650Y51479000D01*
X49631400Y51479000D01*
X49631400Y51499000D01*
X49637400Y51499000D01*
X49637400Y51479000D01*
X50642150Y51479000D01*
X50736400Y51573250D01*
X50738177Y52452600D01*
X54193374Y52452600D01*
X54217000Y52450273D01*
X54240626Y52452600D01*
X54274660Y52455952D01*
X54311292Y52459560D01*
X54314720Y52460600D01*
X54365487Y52476000D01*
X62280576Y52476000D01*
X62282400Y51573250D01*
X62376650Y51479000D01*
X63381400Y51479000D01*
X63381400Y52758750D01*
X63387400Y52758750D01*
X63387400Y51479000D01*
X64392150Y51479000D01*
X64486400Y51573250D01*
X64488224Y52476000D01*
X64480945Y52549905D01*
X64459388Y52620970D01*
X64424381Y52686463D01*
X64377269Y52743869D01*
X64319863Y52790981D01*
X64254370Y52825988D01*
X64183305Y52847545D01*
X64109400Y52854824D01*
X63481650Y52853000D01*
X63387400Y52758750D01*
X63381400Y52758750D01*
X63287150Y52853000D01*
X62659400Y52854824D01*
X62585495Y52847545D01*
X62514430Y52825988D01*
X62448937Y52790981D01*
X62391531Y52743869D01*
X62344419Y52686463D01*
X62309412Y52620970D01*
X62287855Y52549905D01*
X62280576Y52476000D01*
X54365487Y52476000D01*
X54401961Y52487064D01*
X54485522Y52531728D01*
X54558764Y52591836D01*
X54573830Y52610194D01*
X54732806Y52769170D01*
X54751164Y52784236D01*
X54811272Y52857478D01*
X54851870Y52933432D01*
X54855936Y52941038D01*
X54858032Y52947947D01*
X54884089Y52950513D01*
X54955908Y52972299D01*
X54959400Y52974166D01*
X54962892Y52972299D01*
X55034711Y52950513D01*
X55109400Y52943157D01*
X55909400Y52943157D01*
X55984089Y52950513D01*
X56055908Y52972299D01*
X56059400Y52974166D01*
X56062892Y52972299D01*
X56134711Y52950513D01*
X56209400Y52943157D01*
X57009400Y52943157D01*
X57084089Y52950513D01*
X57155908Y52972299D01*
X57159400Y52974166D01*
X57162892Y52972299D01*
X57234711Y52950513D01*
X57309400Y52943157D01*
X58109400Y52943157D01*
X58184089Y52950513D01*
X58255908Y52972299D01*
X58259400Y52974166D01*
X58262892Y52972299D01*
X58334711Y52950513D01*
X58409400Y52943157D01*
X59209400Y52943157D01*
X59284089Y52950513D01*
X59355908Y52972299D01*
X59359400Y52974166D01*
X59362892Y52972299D01*
X59434711Y52950513D01*
X59509400Y52943157D01*
X60309400Y52943157D01*
X60384089Y52950513D01*
X60455908Y52972299D01*
X60463642Y52976433D01*
X60464430Y52976012D01*
X60535495Y52954455D01*
X60609400Y52947176D01*
X60912150Y52949000D01*
X61006400Y53043250D01*
X61006400Y54073000D01*
X61012400Y54073000D01*
X61012400Y53043250D01*
X61106650Y52949000D01*
X61409400Y52947176D01*
X61483305Y52954455D01*
X61554370Y52976012D01*
X61619863Y53011019D01*
X61677269Y53058131D01*
X61724381Y53115537D01*
X61759388Y53181030D01*
X61780945Y53252095D01*
X61788224Y53326000D01*
X61787155Y53708912D01*
X70750955Y53708912D01*
X70864703Y53488816D01*
X71120256Y53339715D01*
X71399987Y53243336D01*
X71693145Y53203382D01*
X71988464Y53221387D01*
X72274597Y53296660D01*
X72540546Y53426309D01*
X72634097Y53488816D01*
X72747845Y53708912D01*
X75830955Y53708912D01*
X75944703Y53488816D01*
X76200256Y53339715D01*
X76479987Y53243336D01*
X76773145Y53203382D01*
X77068464Y53221387D01*
X77354597Y53296660D01*
X77620546Y53426309D01*
X77714097Y53488816D01*
X77827845Y53708912D01*
X76829400Y54707357D01*
X75830955Y53708912D01*
X72747845Y53708912D01*
X71749400Y54707357D01*
X70750955Y53708912D01*
X61787155Y53708912D01*
X61786400Y53978750D01*
X61692150Y54073000D01*
X61012400Y54073000D01*
X61006400Y54073000D01*
X60986400Y54073000D01*
X60986400Y54079000D01*
X61006400Y54079000D01*
X61006400Y55108750D01*
X61012400Y55108750D01*
X61012400Y54079000D01*
X61692150Y54079000D01*
X61786400Y54173250D01*
X61788061Y54767855D01*
X70241182Y54767855D01*
X70259187Y54472536D01*
X70334460Y54186403D01*
X70464109Y53920454D01*
X70526616Y53826903D01*
X70746712Y53713155D01*
X71745157Y54711600D01*
X71753643Y54711600D01*
X72752088Y53713155D01*
X72972184Y53826903D01*
X73121285Y54082456D01*
X73217664Y54362187D01*
X73257618Y54655345D01*
X73250759Y54767855D01*
X75321182Y54767855D01*
X75339187Y54472536D01*
X75414460Y54186403D01*
X75544109Y53920454D01*
X75606616Y53826903D01*
X75826712Y53713155D01*
X76825157Y54711600D01*
X75826712Y55710045D01*
X75606616Y55596297D01*
X75457515Y55340744D01*
X75361136Y55061013D01*
X75321182Y54767855D01*
X73250759Y54767855D01*
X73239613Y54950664D01*
X73164340Y55236797D01*
X73034691Y55502746D01*
X72972184Y55596297D01*
X72752088Y55710045D01*
X71753643Y54711600D01*
X71745157Y54711600D01*
X70746712Y55710045D01*
X70526616Y55596297D01*
X70377515Y55340744D01*
X70281136Y55061013D01*
X70241182Y54767855D01*
X61788061Y54767855D01*
X61788224Y54826000D01*
X61780945Y54899905D01*
X61759388Y54970970D01*
X61724381Y55036463D01*
X61677269Y55093869D01*
X61619863Y55140981D01*
X61554370Y55175988D01*
X61483305Y55197545D01*
X61409400Y55204824D01*
X61106650Y55203000D01*
X61012400Y55108750D01*
X61006400Y55108750D01*
X60912150Y55203000D01*
X60609400Y55204824D01*
X60535495Y55197545D01*
X60464430Y55175988D01*
X60463642Y55175567D01*
X60455908Y55179701D01*
X60384089Y55201487D01*
X60358031Y55204053D01*
X60355936Y55210961D01*
X60311272Y55294522D01*
X60251164Y55367764D01*
X60232812Y55382825D01*
X59901349Y55714288D01*
X70750955Y55714288D01*
X71749400Y54715843D01*
X72747845Y55714288D01*
X75830955Y55714288D01*
X76829400Y54715843D01*
X77827845Y55714288D01*
X77714097Y55934384D01*
X77458544Y56083485D01*
X77178813Y56179864D01*
X76885655Y56219818D01*
X76590336Y56201813D01*
X76304203Y56126540D01*
X76038254Y55996891D01*
X75944703Y55934384D01*
X75830955Y55714288D01*
X72747845Y55714288D01*
X72634097Y55934384D01*
X72378544Y56083485D01*
X72098813Y56179864D01*
X71805655Y56219818D01*
X71510336Y56201813D01*
X71224203Y56126540D01*
X70958254Y55996891D01*
X70864703Y55934384D01*
X70750955Y55714288D01*
X59901349Y55714288D01*
X58050351Y57565286D01*
X65357800Y57565286D01*
X65357800Y57445914D01*
X65381088Y57328836D01*
X65426770Y57218551D01*
X65493089Y57119298D01*
X65577498Y57034889D01*
X65676751Y56968570D01*
X65787036Y56922888D01*
X65904114Y56899600D01*
X66023486Y56899600D01*
X66140564Y56922888D01*
X66250849Y56968570D01*
X66350102Y57034889D01*
X66434511Y57119298D01*
X66500830Y57218551D01*
X66546512Y57328836D01*
X66557409Y57383618D01*
X66573719Y57399928D01*
X72783400Y57399928D01*
X72783400Y57103272D01*
X72841275Y56812316D01*
X72954800Y56538241D01*
X73119613Y56291581D01*
X73329381Y56081813D01*
X73576041Y55917000D01*
X73850116Y55803475D01*
X74141072Y55745600D01*
X74437728Y55745600D01*
X74728684Y55803475D01*
X75002759Y55917000D01*
X75249419Y56081813D01*
X75459187Y56291581D01*
X75624000Y56538241D01*
X75737525Y56812316D01*
X75795400Y57103272D01*
X75795400Y57399928D01*
X75737525Y57690884D01*
X75624000Y57964959D01*
X75459187Y58211619D01*
X75249419Y58421387D01*
X75002759Y58586200D01*
X74728684Y58699725D01*
X74437728Y58757600D01*
X74141072Y58757600D01*
X73850116Y58699725D01*
X73576041Y58586200D01*
X73329381Y58421387D01*
X73119613Y58211619D01*
X72954800Y57964959D01*
X72841275Y57690884D01*
X72783400Y57399928D01*
X66573719Y57399928D01*
X67678877Y58505086D01*
X69777400Y58505086D01*
X69777400Y58385714D01*
X69800688Y58268636D01*
X69846370Y58158351D01*
X69912689Y58059098D01*
X69997098Y57974689D01*
X70096351Y57908370D01*
X70206636Y57862688D01*
X70323714Y57839400D01*
X70443086Y57839400D01*
X70560164Y57862688D01*
X70670449Y57908370D01*
X70769702Y57974689D01*
X70854111Y58059098D01*
X70920430Y58158351D01*
X70966112Y58268636D01*
X70989400Y58385714D01*
X70989400Y58496062D01*
X71120256Y58419715D01*
X71399987Y58323336D01*
X71693145Y58283382D01*
X71988464Y58301387D01*
X72274597Y58376660D01*
X72540546Y58506309D01*
X72634097Y58568816D01*
X72747845Y58788912D01*
X75830955Y58788912D01*
X75944703Y58568816D01*
X76200256Y58419715D01*
X76479987Y58323336D01*
X76773145Y58283382D01*
X77068464Y58301387D01*
X77354597Y58376660D01*
X77620546Y58506309D01*
X77714097Y58568816D01*
X77827845Y58788912D01*
X76829400Y59787357D01*
X75830955Y58788912D01*
X72747845Y58788912D01*
X71749400Y59787357D01*
X71735258Y59773215D01*
X71731015Y59777458D01*
X71745157Y59791600D01*
X71753643Y59791600D01*
X72752088Y58793155D01*
X72972184Y58906903D01*
X73121285Y59162456D01*
X73217664Y59442187D01*
X73257618Y59735345D01*
X73250759Y59847855D01*
X75321182Y59847855D01*
X75339187Y59552536D01*
X75414460Y59266403D01*
X75544109Y59000454D01*
X75606616Y58906903D01*
X75826712Y58793155D01*
X76825157Y59791600D01*
X75826712Y60790045D01*
X75606616Y60676297D01*
X75457515Y60420744D01*
X75361136Y60141013D01*
X75321182Y59847855D01*
X73250759Y59847855D01*
X73239613Y60030664D01*
X73164340Y60316797D01*
X73034691Y60582746D01*
X72972184Y60676297D01*
X72752088Y60790045D01*
X71753643Y59791600D01*
X71745157Y59791600D01*
X70746712Y60790045D01*
X70526616Y60676297D01*
X70377515Y60420744D01*
X70281136Y60141013D01*
X70241182Y59847855D01*
X70259187Y59552536D01*
X70334460Y59266403D01*
X70439273Y59051400D01*
X70323714Y59051400D01*
X70206636Y59028112D01*
X70096351Y58982430D01*
X69997098Y58916111D01*
X69912689Y58831702D01*
X69846370Y58732449D01*
X69800688Y58622164D01*
X69777400Y58505086D01*
X67678877Y58505086D01*
X69047220Y59873428D01*
X69066527Y59889273D01*
X69129759Y59966321D01*
X69176745Y60054225D01*
X69205678Y60149607D01*
X69213000Y60223946D01*
X69213000Y60223947D01*
X69215448Y60248800D01*
X69213000Y60273654D01*
X69213000Y60794288D01*
X70750955Y60794288D01*
X71749400Y59795843D01*
X72747845Y60794288D01*
X75830955Y60794288D01*
X76829400Y59795843D01*
X77827845Y60794288D01*
X77714097Y61014384D01*
X77458544Y61163485D01*
X77178813Y61259864D01*
X76885655Y61299818D01*
X76590336Y61281813D01*
X76304203Y61206540D01*
X76038254Y61076891D01*
X75944703Y61014384D01*
X75830955Y60794288D01*
X72747845Y60794288D01*
X72634097Y61014384D01*
X72378544Y61163485D01*
X72098813Y61259864D01*
X71805655Y61299818D01*
X71510336Y61281813D01*
X71224203Y61206540D01*
X70958254Y61076891D01*
X70864703Y61014384D01*
X70750955Y60794288D01*
X69213000Y60794288D01*
X69213000Y62404512D01*
X69244030Y62450951D01*
X69289712Y62561236D01*
X69313000Y62678314D01*
X69313000Y62797686D01*
X69289712Y62914764D01*
X69244030Y63025049D01*
X69177711Y63124302D01*
X69093302Y63208711D01*
X68994049Y63275030D01*
X68883764Y63320712D01*
X68766686Y63344000D01*
X68647314Y63344000D01*
X68530236Y63320712D01*
X68419951Y63275030D01*
X68320698Y63208711D01*
X68236289Y63124302D01*
X68169970Y63025049D01*
X68124288Y62914764D01*
X68101000Y62797686D01*
X68101000Y62678314D01*
X68124288Y62561236D01*
X68169970Y62450951D01*
X68201001Y62404510D01*
X68201000Y60458392D01*
X65841818Y58099209D01*
X65787036Y58088312D01*
X65676751Y58042630D01*
X65577498Y57976311D01*
X65493089Y57891902D01*
X65426770Y57792649D01*
X65381088Y57682364D01*
X65357800Y57565286D01*
X58050351Y57565286D01*
X53367035Y62248601D01*
X59372163Y62248601D01*
X61424413Y60196350D01*
X61444088Y60097436D01*
X61489770Y59987151D01*
X61556089Y59887898D01*
X61640498Y59803489D01*
X61739751Y59737170D01*
X61850036Y59691488D01*
X61967114Y59668200D01*
X62086486Y59668200D01*
X62203564Y59691488D01*
X62313849Y59737170D01*
X62367470Y59772998D01*
X62376648Y59772998D01*
X62282400Y59678750D01*
X62280576Y58776000D01*
X62287855Y58702095D01*
X62309412Y58631030D01*
X62344419Y58565537D01*
X62391531Y58508131D01*
X62448937Y58461019D01*
X62514430Y58426012D01*
X62585495Y58404455D01*
X62659400Y58397176D01*
X63287150Y58399000D01*
X63381400Y58493250D01*
X63381400Y59773000D01*
X63387400Y59773000D01*
X63387400Y58493250D01*
X63481650Y58399000D01*
X64109400Y58397176D01*
X64183305Y58404455D01*
X64254370Y58426012D01*
X64319863Y58461019D01*
X64377269Y58508131D01*
X64424381Y58565537D01*
X64459388Y58631030D01*
X64480945Y58702095D01*
X64488224Y58776000D01*
X64486400Y59678750D01*
X64392150Y59773000D01*
X63387400Y59773000D01*
X63381400Y59773000D01*
X63361400Y59773000D01*
X63361400Y59779000D01*
X63381400Y59779000D01*
X63381400Y61058750D01*
X63287150Y61153000D01*
X62659400Y61154824D01*
X62585495Y61147545D01*
X62514430Y61125988D01*
X62448937Y61090981D01*
X62391531Y61043869D01*
X62344419Y60986463D01*
X62309412Y60920970D01*
X62287855Y60849905D01*
X62285214Y60823091D01*
X62203564Y60856912D01*
X62104650Y60876587D01*
X60332625Y62648611D01*
X62314998Y62648611D01*
X63809655Y61153953D01*
X63481650Y61153000D01*
X63387400Y61058750D01*
X63387400Y59779000D01*
X64392150Y59779000D01*
X64486400Y59873250D01*
X64487618Y60475990D01*
X65243192Y59720416D01*
X65254088Y59665636D01*
X65299770Y59555351D01*
X65366089Y59456098D01*
X65450498Y59371689D01*
X65549751Y59305370D01*
X65660036Y59259688D01*
X65777114Y59236400D01*
X65896486Y59236400D01*
X66013564Y59259688D01*
X66123849Y59305370D01*
X66223102Y59371689D01*
X66307511Y59456098D01*
X66373830Y59555351D01*
X66419512Y59665636D01*
X66442800Y59782714D01*
X66442800Y59902086D01*
X66419512Y60019164D01*
X66373830Y60129449D01*
X66307511Y60228702D01*
X66223102Y60313111D01*
X66123849Y60379430D01*
X66013564Y60425112D01*
X65958784Y60436008D01*
X62899965Y63494826D01*
X62884116Y63514138D01*
X62807068Y63577370D01*
X62719164Y63624356D01*
X62623782Y63653289D01*
X62549443Y63660611D01*
X62549435Y63660611D01*
X62524589Y63663058D01*
X62499743Y63660611D01*
X36480084Y63660611D01*
X36503430Y63695551D01*
X36549112Y63805836D01*
X36572400Y63922914D01*
X36572400Y64042286D01*
X36549112Y64159364D01*
X36503430Y64269649D01*
X36437111Y64368902D01*
X36352702Y64453311D01*
X36253449Y64519630D01*
X36143164Y64565312D01*
X36026086Y64588600D01*
X35906714Y64588600D01*
X35789636Y64565312D01*
X35679351Y64519630D01*
X35595513Y64463611D01*
X35572001Y64465927D01*
X35477709Y64456640D01*
X35466432Y64453219D01*
X35387041Y64429136D01*
X35303480Y64384472D01*
X35230238Y64324364D01*
X35215177Y64306012D01*
X31451989Y60542823D01*
X31433637Y60527762D01*
X31418576Y60509410D01*
X31373529Y60454520D01*
X31328865Y60370959D01*
X31301360Y60280290D01*
X31292073Y60185998D01*
X31294401Y60162362D01*
X31294401Y59971551D01*
X31248204Y59915260D01*
X31189611Y59805641D01*
X31153530Y59686697D01*
X31141348Y59563000D01*
X31153530Y59439303D01*
X31189611Y59320359D01*
X31248204Y59210740D01*
X31307297Y59138735D01*
X35867200Y54578832D01*
X35867200Y54347348D01*
X35571683Y54051830D01*
X35561036Y54049712D01*
X35450751Y54004030D01*
X35441727Y53998000D01*
X29693274Y53998000D01*
X29667200Y54000568D01*
X29641126Y53998000D01*
X29641116Y53998000D01*
X29563106Y53990317D01*
X29483322Y53966114D01*
X29463012Y53959953D01*
X29370764Y53910646D01*
X29310170Y53860917D01*
X29289910Y53844290D01*
X29273283Y53824030D01*
X28446575Y52997321D01*
X28426310Y52980690D01*
X28359954Y52899835D01*
X28310647Y52807587D01*
X28280283Y52707493D01*
X28272600Y52629483D01*
X28272600Y52629474D01*
X28270032Y52603400D01*
X28272600Y52577326D01*
X28272600Y52278390D01*
X28228911Y52274087D01*
X28157092Y52252301D01*
X28090904Y52216922D01*
X28032889Y52169311D01*
X27985278Y52111296D01*
X27949899Y52045108D01*
X27928113Y51973289D01*
X27920757Y51898600D01*
X27920757Y49388600D01*
X27928113Y49313911D01*
X27928329Y49313200D01*
X25738282Y49313200D01*
X25759230Y49344551D01*
X25804912Y49454836D01*
X25824587Y49553751D01*
X26714012Y50443175D01*
X26732364Y50458236D01*
X26792472Y50531478D01*
X26837136Y50615039D01*
X26864640Y50705708D01*
X26866137Y50720911D01*
X26873927Y50799999D01*
X26871600Y50823626D01*
X26871600Y51292697D01*
X26927630Y51376551D01*
X26973312Y51486836D01*
X26996600Y51603914D01*
X26996600Y51723286D01*
X26973312Y51840364D01*
X26927630Y51950649D01*
X26861311Y52049902D01*
X26776902Y52134311D01*
X26677649Y52200630D01*
X26567364Y52246312D01*
X26450286Y52269600D01*
X26330914Y52269600D01*
X26213836Y52246312D01*
X26103551Y52200630D01*
X26004298Y52134311D01*
X25919889Y52049902D01*
X25853570Y51950649D01*
X25807888Y51840364D01*
X25784600Y51723286D01*
X25784600Y51603914D01*
X25807888Y51486836D01*
X25853570Y51376551D01*
X25909600Y51292696D01*
X25909601Y50999238D01*
X25144351Y50233987D01*
X25045436Y50214312D01*
X24935151Y50168630D01*
X24835898Y50102311D01*
X24751489Y50017902D01*
X24685170Y49918649D01*
X24639488Y49808364D01*
X24616200Y49691286D01*
X24616200Y49571914D01*
X24639488Y49454836D01*
X24685170Y49344551D01*
X24694331Y49330841D01*
X24496921Y49350197D01*
X24153058Y49454017D01*
X23835907Y49622649D01*
X23557551Y49849670D01*
X23328596Y50126432D01*
X23157755Y50442395D01*
X23051538Y50785526D01*
X23013324Y51149105D01*
X23013964Y51155600D01*
X23006125Y51235190D01*
X22982910Y51311721D01*
X22945210Y51382253D01*
X22894474Y51444074D01*
X22832653Y51494810D01*
X22762121Y51532510D01*
X22685590Y51555725D01*
X22625941Y51561600D01*
X10997800Y51561600D01*
X10997800Y57108086D01*
X20501400Y57108086D01*
X20501400Y56988714D01*
X20524688Y56871636D01*
X20570370Y56761351D01*
X20636689Y56662098D01*
X20721098Y56577689D01*
X20820351Y56511370D01*
X20930636Y56465688D01*
X21047714Y56442400D01*
X21167086Y56442400D01*
X21284164Y56465688D01*
X21394449Y56511370D01*
X21493702Y56577689D01*
X21578111Y56662098D01*
X21605834Y56703588D01*
X21646177Y56643210D01*
X21730586Y56558801D01*
X21829839Y56492482D01*
X21940124Y56446800D01*
X22057202Y56423512D01*
X22176574Y56423512D01*
X22293652Y56446800D01*
X22403937Y56492482D01*
X22503190Y56558801D01*
X22587599Y56643210D01*
X22653918Y56742463D01*
X22699600Y56852748D01*
X22719275Y56951663D01*
X23173213Y57405600D01*
X29905897Y57405600D01*
X29989751Y57349570D01*
X30100036Y57303888D01*
X30217114Y57280600D01*
X30336486Y57280600D01*
X30453564Y57303888D01*
X30563849Y57349570D01*
X30663102Y57415889D01*
X30747511Y57500298D01*
X30813830Y57599551D01*
X30859512Y57709836D01*
X30882800Y57826914D01*
X30882800Y57946286D01*
X30859512Y58063364D01*
X30813830Y58173649D01*
X30792453Y58205642D01*
X30798311Y58211500D01*
X30864630Y58310753D01*
X30910312Y58421038D01*
X30933600Y58538116D01*
X30933600Y58657488D01*
X30910312Y58774566D01*
X30864630Y58884851D01*
X30798311Y58984104D01*
X30713902Y59068513D01*
X30614649Y59134832D01*
X30504364Y59180514D01*
X30387286Y59203802D01*
X30267914Y59203802D01*
X30150836Y59180514D01*
X30040551Y59134832D01*
X29956697Y59078802D01*
X22680425Y59078802D01*
X22656801Y59081129D01*
X22633177Y59078802D01*
X22633176Y59078802D01*
X22562510Y59071842D01*
X22471841Y59044338D01*
X22388280Y58999674D01*
X22315038Y58939566D01*
X22299977Y58921214D01*
X21029551Y57650787D01*
X20930636Y57631112D01*
X20820351Y57585430D01*
X20721098Y57519111D01*
X20636689Y57434702D01*
X20570370Y57335449D01*
X20524688Y57225164D01*
X20501400Y57108086D01*
X10997800Y57108086D01*
X10997800Y62840000D01*
X22625941Y62840000D01*
X22685590Y62845875D01*
X22762121Y62869090D01*
X22832653Y62906790D01*
X22894474Y62957526D01*
X22945210Y63019347D01*
X22982910Y63089879D01*
X23006125Y63166410D01*
X23013964Y63246000D01*
X23013955Y63246089D01*
X23048997Y63603475D01*
X23152817Y63947344D01*
X23321447Y64264490D01*
X23548466Y64542845D01*
X23825234Y64771806D01*
X24141195Y64942645D01*
X24484324Y65048862D01*
X24860505Y65088400D01*
X70039946Y65088400D01*
X70160732Y65076557D01*
G36*
X36802951Y62603787D02*
G01*
X36704036Y62584112D01*
X36593751Y62538430D01*
X36494498Y62472111D01*
X36410089Y62387702D01*
X36343770Y62288449D01*
X36298088Y62178164D01*
X36274800Y62061086D01*
X36274800Y61941714D01*
X36298088Y61824636D01*
X36343770Y61714351D01*
X36410089Y61615098D01*
X36494498Y61530689D01*
X36593751Y61464370D01*
X36704036Y61418688D01*
X36821114Y61395400D01*
X36940486Y61395400D01*
X37057564Y61418688D01*
X37167849Y61464370D01*
X37267102Y61530689D01*
X37351511Y61615098D01*
X37417830Y61714351D01*
X37463512Y61824636D01*
X37468722Y61850830D01*
X37923715Y61850830D01*
X36469812Y60396926D01*
X36370897Y60377251D01*
X36260612Y60331569D01*
X36161359Y60265250D01*
X36076950Y60180841D01*
X36010631Y60081588D01*
X35964949Y59971303D01*
X35941661Y59854225D01*
X35941661Y59734853D01*
X35942782Y59729217D01*
X35865836Y59713912D01*
X35755551Y59668230D01*
X35656298Y59601911D01*
X35571889Y59517502D01*
X35505570Y59418249D01*
X35459888Y59307964D01*
X35436600Y59190886D01*
X35436600Y59071514D01*
X35459888Y58954436D01*
X35505570Y58844151D01*
X35571889Y58744898D01*
X35656298Y58660489D01*
X35755551Y58594170D01*
X35865836Y58548488D01*
X35982914Y58525200D01*
X36102286Y58525200D01*
X36219364Y58548488D01*
X36329649Y58594170D01*
X36413503Y58650200D01*
X39054823Y58650200D01*
X39078449Y58647873D01*
X39102075Y58650200D01*
X39172741Y58657160D01*
X39263410Y58684664D01*
X39346971Y58729328D01*
X39420213Y58789436D01*
X39435279Y58807794D01*
X40415000Y59787515D01*
X40415000Y59782714D01*
X40438288Y59665636D01*
X40483970Y59555351D01*
X40550289Y59456098D01*
X40634698Y59371689D01*
X40733951Y59305370D01*
X40844236Y59259688D01*
X40961314Y59236400D01*
X41080686Y59236400D01*
X41107260Y59241686D01*
X41837400Y59241686D01*
X41837400Y59122314D01*
X41860688Y59005236D01*
X41906370Y58894951D01*
X41962400Y58811096D01*
X41962400Y58494427D01*
X41960073Y58470800D01*
X41969360Y58376508D01*
X41973794Y58361893D01*
X41996864Y58285840D01*
X42041528Y58202278D01*
X42101636Y58129036D01*
X42119994Y58113970D01*
X44812813Y55421150D01*
X44832488Y55322236D01*
X44878170Y55211951D01*
X44944489Y55112698D01*
X45028898Y55028289D01*
X45128151Y54961970D01*
X45238436Y54916288D01*
X45355514Y54893000D01*
X45474886Y54893000D01*
X45591964Y54916288D01*
X45702249Y54961970D01*
X45801502Y55028289D01*
X45885911Y55112698D01*
X45952230Y55211951D01*
X45997912Y55322236D01*
X46021200Y55439314D01*
X46021200Y55558686D01*
X45997912Y55675764D01*
X45952230Y55786049D01*
X45885911Y55885302D01*
X45801502Y55969711D01*
X45702249Y56036030D01*
X45591964Y56081712D01*
X45493050Y56101387D01*
X42924400Y58670036D01*
X42924400Y58776000D01*
X48530576Y58776000D01*
X48537855Y58702095D01*
X48559412Y58631030D01*
X48594419Y58565537D01*
X48641531Y58508131D01*
X48698937Y58461019D01*
X48764430Y58426012D01*
X48835495Y58404455D01*
X48909400Y58397176D01*
X49537150Y58399000D01*
X49631400Y58493250D01*
X49631400Y59773000D01*
X48626650Y59773000D01*
X48532400Y59678750D01*
X48530576Y58776000D01*
X42924400Y58776000D01*
X42924400Y58811097D01*
X42980430Y58894951D01*
X43026112Y59005236D01*
X43049400Y59122314D01*
X43049400Y59241686D01*
X43026112Y59358764D01*
X42980430Y59469049D01*
X42914111Y59568302D01*
X42829702Y59652711D01*
X42730449Y59719030D01*
X42620164Y59764712D01*
X42503086Y59788000D01*
X42383714Y59788000D01*
X42266636Y59764712D01*
X42156351Y59719030D01*
X42057098Y59652711D01*
X41972689Y59568302D01*
X41906370Y59469049D01*
X41860688Y59358764D01*
X41837400Y59241686D01*
X41107260Y59241686D01*
X41197764Y59259688D01*
X41308049Y59305370D01*
X41407302Y59371689D01*
X41491711Y59456098D01*
X41558030Y59555351D01*
X41603712Y59665636D01*
X41623387Y59764551D01*
X42634836Y60776000D01*
X48530576Y60776000D01*
X48532400Y59873250D01*
X48626650Y59779000D01*
X49631400Y59779000D01*
X49631400Y61058750D01*
X49637400Y61058750D01*
X49637400Y59779000D01*
X50642150Y59779000D01*
X50736400Y59873250D01*
X50738224Y60776000D01*
X50730945Y60849905D01*
X50709388Y60920970D01*
X50674381Y60986463D01*
X50627269Y61043869D01*
X50569863Y61090981D01*
X50504370Y61125988D01*
X50433305Y61147545D01*
X50359400Y61154824D01*
X49731650Y61153000D01*
X49637400Y61058750D01*
X49631400Y61058750D01*
X49537150Y61153000D01*
X48909400Y61154824D01*
X48835495Y61147545D01*
X48764430Y61125988D01*
X48698937Y61090981D01*
X48641531Y61043869D01*
X48594419Y60986463D01*
X48559412Y60920970D01*
X48537855Y60849905D01*
X48530576Y60776000D01*
X42634836Y60776000D01*
X44107438Y62248601D01*
X49711400Y62248601D01*
X49711400Y62144914D01*
X49734688Y62027836D01*
X49780370Y61917551D01*
X49846689Y61818298D01*
X49931098Y61733889D01*
X50030351Y61667570D01*
X50140636Y61621888D01*
X50257714Y61598600D01*
X50377086Y61598600D01*
X50494164Y61621888D01*
X50604449Y61667570D01*
X50688303Y61723600D01*
X52531564Y61723600D01*
X59046320Y55208843D01*
X58409400Y55208843D01*
X58334711Y55201487D01*
X58262892Y55179701D01*
X58259400Y55177834D01*
X58255908Y55179701D01*
X58191796Y55199149D01*
X58192727Y55208604D01*
X58183440Y55302897D01*
X58155936Y55393566D01*
X58118546Y55463517D01*
X58111272Y55477126D01*
X58051164Y55550368D01*
X58032806Y55565434D01*
X55108834Y58489406D01*
X55093768Y58507764D01*
X55020526Y58567872D01*
X54936965Y58612536D01*
X54846296Y58640040D01*
X54775630Y58647000D01*
X54752004Y58649327D01*
X54728378Y58647000D01*
X50891503Y58647000D01*
X50807649Y58703030D01*
X50734040Y58733520D01*
X50738224Y58776000D01*
X50736400Y59678750D01*
X50642150Y59773000D01*
X49637400Y59773000D01*
X49637400Y58493250D01*
X49731650Y58399000D01*
X49960906Y58398334D01*
X49937888Y58342764D01*
X49914600Y58225686D01*
X49914600Y58106314D01*
X49937888Y57989236D01*
X49983570Y57878951D01*
X50049889Y57779698D01*
X50134298Y57695289D01*
X50233551Y57628970D01*
X50343836Y57583288D01*
X50460914Y57560000D01*
X50580286Y57560000D01*
X50697364Y57583288D01*
X50807649Y57628970D01*
X50891503Y57685000D01*
X53946560Y57685000D01*
X53927800Y57590686D01*
X53927800Y57471314D01*
X53951088Y57354236D01*
X53996770Y57243951D01*
X54063089Y57144698D01*
X54147498Y57060289D01*
X54246751Y56993970D01*
X54357036Y56948288D01*
X54455951Y56928613D01*
X55028401Y56356162D01*
X55028400Y55199573D01*
X54962892Y55179701D01*
X54959400Y55177834D01*
X54955908Y55179701D01*
X54884089Y55201487D01*
X54809400Y55208843D01*
X54009400Y55208843D01*
X53934711Y55201487D01*
X53862892Y55179701D01*
X53859400Y55177834D01*
X53855908Y55179701D01*
X53784089Y55201487D01*
X53709400Y55208843D01*
X52909400Y55208843D01*
X52834711Y55201487D01*
X52762892Y55179701D01*
X52696704Y55144322D01*
X52638689Y55096711D01*
X52591078Y55038696D01*
X52555699Y54972508D01*
X52533913Y54900689D01*
X52526557Y54826000D01*
X52526557Y53414600D01*
X46404023Y53414600D01*
X46380399Y53416927D01*
X46356775Y53414600D01*
X46356774Y53414600D01*
X46286108Y53407640D01*
X46195439Y53380136D01*
X46111878Y53335472D01*
X46038636Y53275364D01*
X46023575Y53257012D01*
X46003124Y53236561D01*
X45997912Y53262764D01*
X45952230Y53373049D01*
X45885911Y53472302D01*
X45811013Y53547200D01*
X50007010Y53547200D01*
X50038000Y53544148D01*
X50068990Y53547200D01*
X50068998Y53547200D01*
X50161698Y53556330D01*
X50280642Y53592411D01*
X50390261Y53651004D01*
X50486343Y53729857D01*
X50506105Y53753937D01*
X52280569Y55528400D01*
X52964598Y55528400D01*
X53057298Y55537530D01*
X53176242Y55573611D01*
X53285861Y55632204D01*
X53381943Y55711057D01*
X53460796Y55807139D01*
X53519389Y55916758D01*
X53555470Y56035702D01*
X53567653Y56159400D01*
X53555470Y56283098D01*
X53519389Y56402042D01*
X53460796Y56511661D01*
X53381943Y56607743D01*
X53285861Y56686596D01*
X53176242Y56745189D01*
X53057298Y56781270D01*
X52964598Y56790400D01*
X52050190Y56790400D01*
X52019200Y56793452D01*
X51988209Y56790400D01*
X51988202Y56790400D01*
X51895502Y56781270D01*
X51776558Y56745189D01*
X51666939Y56686596D01*
X51595103Y56627641D01*
X51570857Y56607743D01*
X51551099Y56583668D01*
X49776632Y54809200D01*
X44533569Y54809200D01*
X43934465Y55408303D01*
X43736400Y55606368D01*
X43736400Y56006326D01*
X43738968Y56032400D01*
X43736400Y56058474D01*
X43736400Y56058484D01*
X43728717Y56136494D01*
X43698353Y56236588D01*
X43649046Y56328836D01*
X43599317Y56389430D01*
X43582690Y56409690D01*
X43562430Y56426317D01*
X42926630Y57062116D01*
X42924512Y57072764D01*
X42878830Y57183049D01*
X42812511Y57282302D01*
X42728102Y57366711D01*
X42628849Y57433030D01*
X42518564Y57478712D01*
X42401486Y57502000D01*
X42282114Y57502000D01*
X42165036Y57478712D01*
X42054751Y57433030D01*
X41955498Y57366711D01*
X41871089Y57282302D01*
X41804770Y57183049D01*
X41759088Y57072764D01*
X41735800Y56955686D01*
X41735800Y56836314D01*
X41759088Y56719236D01*
X41804770Y56608951D01*
X41871089Y56509698D01*
X41955498Y56425289D01*
X42054751Y56358970D01*
X42165036Y56313288D01*
X42175684Y56311170D01*
X42610853Y55876000D01*
X36733987Y55876000D01*
X36702999Y55879052D01*
X36672011Y55876000D01*
X36672002Y55876000D01*
X36579302Y55866870D01*
X36460358Y55830789D01*
X36421011Y55809757D01*
X34896616Y57334152D01*
X34904902Y57339689D01*
X34989311Y57424098D01*
X35055630Y57523351D01*
X35101312Y57633636D01*
X35124600Y57750714D01*
X35124600Y57870086D01*
X35101312Y57987164D01*
X35055630Y58097449D01*
X34999600Y58181303D01*
X34999600Y58243974D01*
X35001927Y58267600D01*
X34992640Y58361893D01*
X34965136Y58452562D01*
X34935630Y58507763D01*
X34920472Y58536122D01*
X34860364Y58609364D01*
X34842012Y58624425D01*
X33526160Y59940276D01*
X33552364Y59945488D01*
X33662649Y59991170D01*
X33761902Y60057489D01*
X33846311Y60141898D01*
X33912630Y60241151D01*
X33958312Y60351436D01*
X33969209Y60406217D01*
X36211603Y62648611D01*
X36847775Y62648611D01*
X36802951Y62603787D01*
G37*
X36802951Y62603787D02*
X36704036Y62584112D01*
X36593751Y62538430D01*
X36494498Y62472111D01*
X36410089Y62387702D01*
X36343770Y62288449D01*
X36298088Y62178164D01*
X36274800Y62061086D01*
X36274800Y61941714D01*
X36298088Y61824636D01*
X36343770Y61714351D01*
X36410089Y61615098D01*
X36494498Y61530689D01*
X36593751Y61464370D01*
X36704036Y61418688D01*
X36821114Y61395400D01*
X36940486Y61395400D01*
X37057564Y61418688D01*
X37167849Y61464370D01*
X37267102Y61530689D01*
X37351511Y61615098D01*
X37417830Y61714351D01*
X37463512Y61824636D01*
X37468722Y61850830D01*
X37923715Y61850830D01*
X36469812Y60396926D01*
X36370897Y60377251D01*
X36260612Y60331569D01*
X36161359Y60265250D01*
X36076950Y60180841D01*
X36010631Y60081588D01*
X35964949Y59971303D01*
X35941661Y59854225D01*
X35941661Y59734853D01*
X35942782Y59729217D01*
X35865836Y59713912D01*
X35755551Y59668230D01*
X35656298Y59601911D01*
X35571889Y59517502D01*
X35505570Y59418249D01*
X35459888Y59307964D01*
X35436600Y59190886D01*
X35436600Y59071514D01*
X35459888Y58954436D01*
X35505570Y58844151D01*
X35571889Y58744898D01*
X35656298Y58660489D01*
X35755551Y58594170D01*
X35865836Y58548488D01*
X35982914Y58525200D01*
X36102286Y58525200D01*
X36219364Y58548488D01*
X36329649Y58594170D01*
X36413503Y58650200D01*
X39054823Y58650200D01*
X39078449Y58647873D01*
X39102075Y58650200D01*
X39172741Y58657160D01*
X39263410Y58684664D01*
X39346971Y58729328D01*
X39420213Y58789436D01*
X39435279Y58807794D01*
X40415000Y59787515D01*
X40415000Y59782714D01*
X40438288Y59665636D01*
X40483970Y59555351D01*
X40550289Y59456098D01*
X40634698Y59371689D01*
X40733951Y59305370D01*
X40844236Y59259688D01*
X40961314Y59236400D01*
X41080686Y59236400D01*
X41107260Y59241686D01*
X41837400Y59241686D01*
X41837400Y59122314D01*
X41860688Y59005236D01*
X41906370Y58894951D01*
X41962400Y58811096D01*
X41962400Y58494427D01*
X41960073Y58470800D01*
X41969360Y58376508D01*
X41973794Y58361893D01*
X41996864Y58285840D01*
X42041528Y58202278D01*
X42101636Y58129036D01*
X42119994Y58113970D01*
X44812813Y55421150D01*
X44832488Y55322236D01*
X44878170Y55211951D01*
X44944489Y55112698D01*
X45028898Y55028289D01*
X45128151Y54961970D01*
X45238436Y54916288D01*
X45355514Y54893000D01*
X45474886Y54893000D01*
X45591964Y54916288D01*
X45702249Y54961970D01*
X45801502Y55028289D01*
X45885911Y55112698D01*
X45952230Y55211951D01*
X45997912Y55322236D01*
X46021200Y55439314D01*
X46021200Y55558686D01*
X45997912Y55675764D01*
X45952230Y55786049D01*
X45885911Y55885302D01*
X45801502Y55969711D01*
X45702249Y56036030D01*
X45591964Y56081712D01*
X45493050Y56101387D01*
X42924400Y58670036D01*
X42924400Y58776000D01*
X48530576Y58776000D01*
X48537855Y58702095D01*
X48559412Y58631030D01*
X48594419Y58565537D01*
X48641531Y58508131D01*
X48698937Y58461019D01*
X48764430Y58426012D01*
X48835495Y58404455D01*
X48909400Y58397176D01*
X49537150Y58399000D01*
X49631400Y58493250D01*
X49631400Y59773000D01*
X48626650Y59773000D01*
X48532400Y59678750D01*
X48530576Y58776000D01*
X42924400Y58776000D01*
X42924400Y58811097D01*
X42980430Y58894951D01*
X43026112Y59005236D01*
X43049400Y59122314D01*
X43049400Y59241686D01*
X43026112Y59358764D01*
X42980430Y59469049D01*
X42914111Y59568302D01*
X42829702Y59652711D01*
X42730449Y59719030D01*
X42620164Y59764712D01*
X42503086Y59788000D01*
X42383714Y59788000D01*
X42266636Y59764712D01*
X42156351Y59719030D01*
X42057098Y59652711D01*
X41972689Y59568302D01*
X41906370Y59469049D01*
X41860688Y59358764D01*
X41837400Y59241686D01*
X41107260Y59241686D01*
X41197764Y59259688D01*
X41308049Y59305370D01*
X41407302Y59371689D01*
X41491711Y59456098D01*
X41558030Y59555351D01*
X41603712Y59665636D01*
X41623387Y59764551D01*
X42634836Y60776000D01*
X48530576Y60776000D01*
X48532400Y59873250D01*
X48626650Y59779000D01*
X49631400Y59779000D01*
X49631400Y61058750D01*
X49637400Y61058750D01*
X49637400Y59779000D01*
X50642150Y59779000D01*
X50736400Y59873250D01*
X50738224Y60776000D01*
X50730945Y60849905D01*
X50709388Y60920970D01*
X50674381Y60986463D01*
X50627269Y61043869D01*
X50569863Y61090981D01*
X50504370Y61125988D01*
X50433305Y61147545D01*
X50359400Y61154824D01*
X49731650Y61153000D01*
X49637400Y61058750D01*
X49631400Y61058750D01*
X49537150Y61153000D01*
X48909400Y61154824D01*
X48835495Y61147545D01*
X48764430Y61125988D01*
X48698937Y61090981D01*
X48641531Y61043869D01*
X48594419Y60986463D01*
X48559412Y60920970D01*
X48537855Y60849905D01*
X48530576Y60776000D01*
X42634836Y60776000D01*
X44107438Y62248601D01*
X49711400Y62248601D01*
X49711400Y62144914D01*
X49734688Y62027836D01*
X49780370Y61917551D01*
X49846689Y61818298D01*
X49931098Y61733889D01*
X50030351Y61667570D01*
X50140636Y61621888D01*
X50257714Y61598600D01*
X50377086Y61598600D01*
X50494164Y61621888D01*
X50604449Y61667570D01*
X50688303Y61723600D01*
X52531564Y61723600D01*
X59046320Y55208843D01*
X58409400Y55208843D01*
X58334711Y55201487D01*
X58262892Y55179701D01*
X58259400Y55177834D01*
X58255908Y55179701D01*
X58191796Y55199149D01*
X58192727Y55208604D01*
X58183440Y55302897D01*
X58155936Y55393566D01*
X58118546Y55463517D01*
X58111272Y55477126D01*
X58051164Y55550368D01*
X58032806Y55565434D01*
X55108834Y58489406D01*
X55093768Y58507764D01*
X55020526Y58567872D01*
X54936965Y58612536D01*
X54846296Y58640040D01*
X54775630Y58647000D01*
X54752004Y58649327D01*
X54728378Y58647000D01*
X50891503Y58647000D01*
X50807649Y58703030D01*
X50734040Y58733520D01*
X50738224Y58776000D01*
X50736400Y59678750D01*
X50642150Y59773000D01*
X49637400Y59773000D01*
X49637400Y58493250D01*
X49731650Y58399000D01*
X49960906Y58398334D01*
X49937888Y58342764D01*
X49914600Y58225686D01*
X49914600Y58106314D01*
X49937888Y57989236D01*
X49983570Y57878951D01*
X50049889Y57779698D01*
X50134298Y57695289D01*
X50233551Y57628970D01*
X50343836Y57583288D01*
X50460914Y57560000D01*
X50580286Y57560000D01*
X50697364Y57583288D01*
X50807649Y57628970D01*
X50891503Y57685000D01*
X53946560Y57685000D01*
X53927800Y57590686D01*
X53927800Y57471314D01*
X53951088Y57354236D01*
X53996770Y57243951D01*
X54063089Y57144698D01*
X54147498Y57060289D01*
X54246751Y56993970D01*
X54357036Y56948288D01*
X54455951Y56928613D01*
X55028401Y56356162D01*
X55028400Y55199573D01*
X54962892Y55179701D01*
X54959400Y55177834D01*
X54955908Y55179701D01*
X54884089Y55201487D01*
X54809400Y55208843D01*
X54009400Y55208843D01*
X53934711Y55201487D01*
X53862892Y55179701D01*
X53859400Y55177834D01*
X53855908Y55179701D01*
X53784089Y55201487D01*
X53709400Y55208843D01*
X52909400Y55208843D01*
X52834711Y55201487D01*
X52762892Y55179701D01*
X52696704Y55144322D01*
X52638689Y55096711D01*
X52591078Y55038696D01*
X52555699Y54972508D01*
X52533913Y54900689D01*
X52526557Y54826000D01*
X52526557Y53414600D01*
X46404023Y53414600D01*
X46380399Y53416927D01*
X46356775Y53414600D01*
X46356774Y53414600D01*
X46286108Y53407640D01*
X46195439Y53380136D01*
X46111878Y53335472D01*
X46038636Y53275364D01*
X46023575Y53257012D01*
X46003124Y53236561D01*
X45997912Y53262764D01*
X45952230Y53373049D01*
X45885911Y53472302D01*
X45811013Y53547200D01*
X50007010Y53547200D01*
X50038000Y53544148D01*
X50068990Y53547200D01*
X50068998Y53547200D01*
X50161698Y53556330D01*
X50280642Y53592411D01*
X50390261Y53651004D01*
X50486343Y53729857D01*
X50506105Y53753937D01*
X52280569Y55528400D01*
X52964598Y55528400D01*
X53057298Y55537530D01*
X53176242Y55573611D01*
X53285861Y55632204D01*
X53381943Y55711057D01*
X53460796Y55807139D01*
X53519389Y55916758D01*
X53555470Y56035702D01*
X53567653Y56159400D01*
X53555470Y56283098D01*
X53519389Y56402042D01*
X53460796Y56511661D01*
X53381943Y56607743D01*
X53285861Y56686596D01*
X53176242Y56745189D01*
X53057298Y56781270D01*
X52964598Y56790400D01*
X52050190Y56790400D01*
X52019200Y56793452D01*
X51988209Y56790400D01*
X51988202Y56790400D01*
X51895502Y56781270D01*
X51776558Y56745189D01*
X51666939Y56686596D01*
X51595103Y56627641D01*
X51570857Y56607743D01*
X51551099Y56583668D01*
X49776632Y54809200D01*
X44533569Y54809200D01*
X43934465Y55408303D01*
X43736400Y55606368D01*
X43736400Y56006326D01*
X43738968Y56032400D01*
X43736400Y56058474D01*
X43736400Y56058484D01*
X43728717Y56136494D01*
X43698353Y56236588D01*
X43649046Y56328836D01*
X43599317Y56389430D01*
X43582690Y56409690D01*
X43562430Y56426317D01*
X42926630Y57062116D01*
X42924512Y57072764D01*
X42878830Y57183049D01*
X42812511Y57282302D01*
X42728102Y57366711D01*
X42628849Y57433030D01*
X42518564Y57478712D01*
X42401486Y57502000D01*
X42282114Y57502000D01*
X42165036Y57478712D01*
X42054751Y57433030D01*
X41955498Y57366711D01*
X41871089Y57282302D01*
X41804770Y57183049D01*
X41759088Y57072764D01*
X41735800Y56955686D01*
X41735800Y56836314D01*
X41759088Y56719236D01*
X41804770Y56608951D01*
X41871089Y56509698D01*
X41955498Y56425289D01*
X42054751Y56358970D01*
X42165036Y56313288D01*
X42175684Y56311170D01*
X42610853Y55876000D01*
X36733987Y55876000D01*
X36702999Y55879052D01*
X36672011Y55876000D01*
X36672002Y55876000D01*
X36579302Y55866870D01*
X36460358Y55830789D01*
X36421011Y55809757D01*
X34896616Y57334152D01*
X34904902Y57339689D01*
X34989311Y57424098D01*
X35055630Y57523351D01*
X35101312Y57633636D01*
X35124600Y57750714D01*
X35124600Y57870086D01*
X35101312Y57987164D01*
X35055630Y58097449D01*
X34999600Y58181303D01*
X34999600Y58243974D01*
X35001927Y58267600D01*
X34992640Y58361893D01*
X34965136Y58452562D01*
X34935630Y58507763D01*
X34920472Y58536122D01*
X34860364Y58609364D01*
X34842012Y58624425D01*
X33526160Y59940276D01*
X33552364Y59945488D01*
X33662649Y59991170D01*
X33761902Y60057489D01*
X33846311Y60141898D01*
X33912630Y60241151D01*
X33958312Y60351436D01*
X33969209Y60406217D01*
X36211603Y62648611D01*
X36847775Y62648611D01*
X36802951Y62603787D01*
%TD*%
M02*
