%TF.GenerationSoftware,KiCad,Pcbnew,(5.1.6)-1*%
%TF.CreationDate,2020-12-01T11:19:40+01:00*%
%TF.ProjectId,LoRa_Dongle,4c6f5261-5f44-46f6-9e67-6c652e6b6963,rev?*%
%TF.SameCoordinates,Original*%
%TF.FileFunction,Legend,Bot*%
%TF.FilePolarity,Positive*%
%FSLAX46Y46*%
G04 Gerber Fmt 4.6, Leading zero omitted, Abs format (unit mm)*
G04 Created by KiCad (PCBNEW (5.1.6)-1) date 2020-12-01 11:19:40*
%MOMM*%
%LPD*%
G01*
G04 APERTURE LIST*
%ADD10C,0.150000*%
%ADD11C,0.010000*%
%ADD12C,0.120000*%
G04 APERTURE END LIST*
D10*
X65317333Y59237619D02*
X65317333Y59904285D01*
X65317333Y59809047D02*
X65269714Y59856666D01*
X65174476Y59904285D01*
X65031619Y59904285D01*
X64936380Y59856666D01*
X64888761Y59761428D01*
X64888761Y59237619D01*
X64888761Y59761428D02*
X64841142Y59856666D01*
X64745904Y59904285D01*
X64603047Y59904285D01*
X64507809Y59856666D01*
X64460190Y59761428D01*
X64460190Y59237619D01*
X63984000Y59237619D02*
X63984000Y59904285D01*
X63984000Y60237619D02*
X64031619Y60190000D01*
X63984000Y60142380D01*
X63936380Y60190000D01*
X63984000Y60237619D01*
X63984000Y60142380D01*
X63079238Y59285238D02*
X63174476Y59237619D01*
X63364952Y59237619D01*
X63460190Y59285238D01*
X63507809Y59332857D01*
X63555428Y59428095D01*
X63555428Y59713809D01*
X63507809Y59809047D01*
X63460190Y59856666D01*
X63364952Y59904285D01*
X63174476Y59904285D01*
X63079238Y59856666D01*
X62650666Y59237619D02*
X62650666Y59904285D01*
X62650666Y59713809D02*
X62603047Y59809047D01*
X62555428Y59856666D01*
X62460190Y59904285D01*
X62364952Y59904285D01*
X61888761Y59237619D02*
X61984000Y59285238D01*
X62031619Y59332857D01*
X62079238Y59428095D01*
X62079238Y59713809D01*
X62031619Y59809047D01*
X61984000Y59856666D01*
X61888761Y59904285D01*
X61745904Y59904285D01*
X61650666Y59856666D01*
X61603047Y59809047D01*
X61555428Y59713809D01*
X61555428Y59428095D01*
X61603047Y59332857D01*
X61650666Y59285238D01*
X61745904Y59237619D01*
X61888761Y59237619D01*
X61174476Y59285238D02*
X61031619Y59237619D01*
X60793523Y59237619D01*
X60698285Y59285238D01*
X60650666Y59332857D01*
X60603047Y59428095D01*
X60603047Y59523333D01*
X60650666Y59618571D01*
X60698285Y59666190D01*
X60793523Y59713809D01*
X60984000Y59761428D01*
X61079238Y59809047D01*
X61126857Y59856666D01*
X61174476Y59951904D01*
X61174476Y60047142D01*
X61126857Y60142380D01*
X61079238Y60190000D01*
X60984000Y60237619D01*
X60745904Y60237619D01*
X60603047Y60190000D01*
X60174476Y59237619D02*
X60174476Y60237619D01*
X59936380Y60237619D01*
X59793523Y60190000D01*
X59698285Y60094761D01*
X59650666Y59999523D01*
X59603047Y59809047D01*
X59603047Y59666190D01*
X59650666Y59475714D01*
X59698285Y59380476D01*
X59793523Y59285238D01*
X59936380Y59237619D01*
X60174476Y59237619D01*
X51189000Y50545904D02*
X51141380Y50641142D01*
X51141380Y50784000D01*
X51189000Y50926857D01*
X51284238Y51022095D01*
X51379476Y51069714D01*
X51569952Y51117333D01*
X51712809Y51117333D01*
X51903285Y51069714D01*
X51998523Y51022095D01*
X52093761Y50926857D01*
X52141380Y50784000D01*
X52141380Y50688761D01*
X52093761Y50545904D01*
X52046142Y50498285D01*
X51712809Y50498285D01*
X51712809Y50688761D01*
X52141380Y50069714D02*
X51141380Y50069714D01*
X52141380Y49498285D01*
X51141380Y49498285D01*
X52141380Y49022095D02*
X51141380Y49022095D01*
X51141380Y48784000D01*
X51189000Y48641142D01*
X51284238Y48545904D01*
X51379476Y48498285D01*
X51569952Y48450666D01*
X51712809Y48450666D01*
X51903285Y48498285D01*
X51998523Y48545904D01*
X52093761Y48641142D01*
X52141380Y48784000D01*
X52141380Y49022095D01*
X49601380Y51807857D02*
X48601380Y51807857D01*
X48601380Y51426904D01*
X48649000Y51331666D01*
X48696619Y51284047D01*
X48791857Y51236428D01*
X48934714Y51236428D01*
X49029952Y51284047D01*
X49077571Y51331666D01*
X49125190Y51426904D01*
X49125190Y51807857D01*
X49315666Y50855476D02*
X49315666Y50379285D01*
X49601380Y50950714D02*
X48601380Y50617380D01*
X49601380Y50284047D01*
X48601380Y49760238D02*
X48601380Y49665000D01*
X48649000Y49569761D01*
X48696619Y49522142D01*
X48791857Y49474523D01*
X48982333Y49426904D01*
X49220428Y49426904D01*
X49410904Y49474523D01*
X49506142Y49522142D01*
X49553761Y49569761D01*
X49601380Y49665000D01*
X49601380Y49760238D01*
X49553761Y49855476D01*
X49506142Y49903095D01*
X49410904Y49950714D01*
X49220428Y49998333D01*
X48982333Y49998333D01*
X48791857Y49950714D01*
X48696619Y49903095D01*
X48649000Y49855476D01*
X48601380Y49760238D01*
X48696619Y49045952D02*
X48649000Y48998333D01*
X48601380Y48903095D01*
X48601380Y48665000D01*
X48649000Y48569761D01*
X48696619Y48522142D01*
X48791857Y48474523D01*
X48887095Y48474523D01*
X49029952Y48522142D01*
X49601380Y49093571D01*
X49601380Y48474523D01*
X46934380Y51807857D02*
X45934380Y51807857D01*
X45934380Y51426904D01*
X45982000Y51331666D01*
X46029619Y51284047D01*
X46124857Y51236428D01*
X46267714Y51236428D01*
X46362952Y51284047D01*
X46410571Y51331666D01*
X46458190Y51426904D01*
X46458190Y51807857D01*
X46648666Y50855476D02*
X46648666Y50379285D01*
X46934380Y50950714D02*
X45934380Y50617380D01*
X46934380Y50284047D01*
X45934380Y49760238D02*
X45934380Y49665000D01*
X45982000Y49569761D01*
X46029619Y49522142D01*
X46124857Y49474523D01*
X46315333Y49426904D01*
X46553428Y49426904D01*
X46743904Y49474523D01*
X46839142Y49522142D01*
X46886761Y49569761D01*
X46934380Y49665000D01*
X46934380Y49760238D01*
X46886761Y49855476D01*
X46839142Y49903095D01*
X46743904Y49950714D01*
X46553428Y49998333D01*
X46315333Y49998333D01*
X46124857Y49950714D01*
X46029619Y49903095D01*
X45982000Y49855476D01*
X45934380Y49760238D01*
X46934380Y48474523D02*
X46934380Y49045952D01*
X46934380Y48760238D02*
X45934380Y48760238D01*
X46077238Y48855476D01*
X46172476Y48950714D01*
X46220095Y49045952D01*
X44521380Y51934857D02*
X43521380Y51934857D01*
X43521380Y51553904D01*
X43569000Y51458666D01*
X43616619Y51411047D01*
X43711857Y51363428D01*
X43854714Y51363428D01*
X43949952Y51411047D01*
X43997571Y51458666D01*
X44045190Y51553904D01*
X44045190Y51934857D01*
X44235666Y50982476D02*
X44235666Y50506285D01*
X44521380Y51077714D02*
X43521380Y50744380D01*
X44521380Y50411047D01*
X43521380Y49887238D02*
X43521380Y49792000D01*
X43569000Y49696761D01*
X43616619Y49649142D01*
X43711857Y49601523D01*
X43902333Y49553904D01*
X44140428Y49553904D01*
X44330904Y49601523D01*
X44426142Y49649142D01*
X44473761Y49696761D01*
X44521380Y49792000D01*
X44521380Y49887238D01*
X44473761Y49982476D01*
X44426142Y50030095D01*
X44330904Y50077714D01*
X44140428Y50125333D01*
X43902333Y50125333D01*
X43711857Y50077714D01*
X43616619Y50030095D01*
X43569000Y49982476D01*
X43521380Y49887238D01*
X43521380Y48934857D02*
X43521380Y48839619D01*
X43569000Y48744380D01*
X43616619Y48696761D01*
X43711857Y48649142D01*
X43902333Y48601523D01*
X44140428Y48601523D01*
X44330904Y48649142D01*
X44426142Y48696761D01*
X44473761Y48744380D01*
X44521380Y48839619D01*
X44521380Y48934857D01*
X44473761Y49030095D01*
X44426142Y49077714D01*
X44330904Y49125333D01*
X44140428Y49172952D01*
X43902333Y49172952D01*
X43711857Y49125333D01*
X43616619Y49077714D01*
X43569000Y49030095D01*
X43521380Y48934857D01*
X41933761Y52792047D02*
X41981380Y52649190D01*
X41981380Y52411095D01*
X41933761Y52315857D01*
X41886142Y52268238D01*
X41790904Y52220619D01*
X41695666Y52220619D01*
X41600428Y52268238D01*
X41552809Y52315857D01*
X41505190Y52411095D01*
X41457571Y52601571D01*
X41409952Y52696809D01*
X41362333Y52744428D01*
X41267095Y52792047D01*
X41171857Y52792047D01*
X41076619Y52744428D01*
X41029000Y52696809D01*
X40981380Y52601571D01*
X40981380Y52363476D01*
X41029000Y52220619D01*
X40981380Y51887285D02*
X41981380Y51649190D01*
X41267095Y51458714D01*
X41981380Y51268238D01*
X40981380Y51030142D01*
X41981380Y50649190D02*
X40981380Y50649190D01*
X40981380Y50411095D01*
X41029000Y50268238D01*
X41124238Y50173000D01*
X41219476Y50125380D01*
X41409952Y50077761D01*
X41552809Y50077761D01*
X41743285Y50125380D01*
X41838523Y50173000D01*
X41933761Y50268238D01*
X41981380Y50411095D01*
X41981380Y50649190D01*
X41981380Y49649190D02*
X40981380Y49649190D01*
X40981380Y48982523D02*
X40981380Y48792047D01*
X41029000Y48696809D01*
X41124238Y48601571D01*
X41314714Y48553952D01*
X41648047Y48553952D01*
X41838523Y48601571D01*
X41933761Y48696809D01*
X41981380Y48792047D01*
X41981380Y48982523D01*
X41933761Y49077761D01*
X41838523Y49173000D01*
X41648047Y49220619D01*
X41314714Y49220619D01*
X41124238Y49173000D01*
X41029000Y49077761D01*
X40981380Y48982523D01*
X39393761Y53188904D02*
X39441380Y53046047D01*
X39441380Y52807952D01*
X39393761Y52712714D01*
X39346142Y52665095D01*
X39250904Y52617476D01*
X39155666Y52617476D01*
X39060428Y52665095D01*
X39012809Y52712714D01*
X38965190Y52807952D01*
X38917571Y52998428D01*
X38869952Y53093666D01*
X38822333Y53141285D01*
X38727095Y53188904D01*
X38631857Y53188904D01*
X38536619Y53141285D01*
X38489000Y53093666D01*
X38441380Y52998428D01*
X38441380Y52760333D01*
X38489000Y52617476D01*
X38441380Y52284142D02*
X39441380Y52046047D01*
X38727095Y51855571D01*
X39441380Y51665095D01*
X38441380Y51427000D01*
X39346142Y50474619D02*
X39393761Y50522238D01*
X39441380Y50665095D01*
X39441380Y50760333D01*
X39393761Y50903190D01*
X39298523Y50998428D01*
X39203285Y51046047D01*
X39012809Y51093666D01*
X38869952Y51093666D01*
X38679476Y51046047D01*
X38584238Y50998428D01*
X38489000Y50903190D01*
X38441380Y50760333D01*
X38441380Y50665095D01*
X38489000Y50522238D01*
X38536619Y50474619D01*
X39441380Y49569857D02*
X39441380Y50046047D01*
X38441380Y50046047D01*
X39441380Y49236523D02*
X38441380Y49236523D01*
X39441380Y48665095D02*
X38869952Y49093666D01*
X38441380Y48665095D02*
X39012809Y49236523D01*
X35901380Y51149095D02*
X35901380Y50530047D01*
X36282333Y50863380D01*
X36282333Y50720523D01*
X36329952Y50625285D01*
X36377571Y50577666D01*
X36472809Y50530047D01*
X36710904Y50530047D01*
X36806142Y50577666D01*
X36853761Y50625285D01*
X36901380Y50720523D01*
X36901380Y51006238D01*
X36853761Y51101476D01*
X36806142Y51149095D01*
X35901380Y50244333D02*
X36901380Y49911000D01*
X35901380Y49577666D01*
X35901380Y49339571D02*
X35901380Y48720523D01*
X36282333Y49053857D01*
X36282333Y48911000D01*
X36329952Y48815761D01*
X36377571Y48768142D01*
X36472809Y48720523D01*
X36710904Y48720523D01*
X36806142Y48768142D01*
X36853761Y48815761D01*
X36901380Y48911000D01*
X36901380Y49196714D01*
X36853761Y49291952D01*
X36806142Y49339571D01*
D11*
%TO.C,G\u002A\u002A\u002A*%
G36*
X61435200Y64905694D02*
G01*
X61403388Y64898403D01*
X61370520Y64886442D01*
X61345699Y64875163D01*
X61324728Y64864585D01*
X61308268Y64854846D01*
X61293604Y64844001D01*
X61278022Y64830107D01*
X61264847Y64817260D01*
X61230452Y64778523D01*
X61203862Y64738075D01*
X61184427Y64694615D01*
X61171497Y64646842D01*
X61167473Y64622463D01*
X61164937Y64572845D01*
X61170806Y64523211D01*
X61185100Y64473459D01*
X61204091Y64430606D01*
X61230268Y64388764D01*
X61263114Y64351201D01*
X61301548Y64318783D01*
X61344490Y64292378D01*
X61390861Y64272852D01*
X61406616Y64268097D01*
X61423035Y64264705D01*
X61443438Y64262093D01*
X61465936Y64260315D01*
X61488639Y64259425D01*
X61509659Y64259475D01*
X61527107Y64260520D01*
X61539093Y64262614D01*
X61542677Y64264234D01*
X61552993Y64268893D01*
X61562060Y64270332D01*
X61574118Y64272087D01*
X61591449Y64276614D01*
X61611650Y64283107D01*
X61632321Y64290760D01*
X61651061Y64298768D01*
X61659961Y64303183D01*
X61671400Y64310713D01*
X61686709Y64322775D01*
X61703942Y64337747D01*
X61721153Y64354008D01*
X61722240Y64355086D01*
X61740266Y64373475D01*
X61753629Y64388506D01*
X61764007Y64402428D01*
X61773080Y64417489D01*
X61782348Y64435566D01*
X61796424Y64466280D01*
X61806225Y64493085D01*
X61812438Y64518930D01*
X61815752Y64546767D01*
X61816853Y64579546D01*
X61816869Y64583733D01*
X61816536Y64610013D01*
X61815249Y64630617D01*
X61812702Y64648309D01*
X61808593Y64665854D01*
X61807361Y64670277D01*
X61788827Y64720522D01*
X61763413Y64766066D01*
X61731564Y64806441D01*
X61693722Y64841175D01*
X61650331Y64869802D01*
X61601835Y64891850D01*
X61596105Y64893889D01*
X61577266Y64899932D01*
X61560329Y64903997D01*
X61542303Y64906587D01*
X61520193Y64908206D01*
X61507719Y64908768D01*
X61468972Y64908940D01*
X61435200Y64905694D01*
G37*
X61435200Y64905694D02*
X61403388Y64898403D01*
X61370520Y64886442D01*
X61345699Y64875163D01*
X61324728Y64864585D01*
X61308268Y64854846D01*
X61293604Y64844001D01*
X61278022Y64830107D01*
X61264847Y64817260D01*
X61230452Y64778523D01*
X61203862Y64738075D01*
X61184427Y64694615D01*
X61171497Y64646842D01*
X61167473Y64622463D01*
X61164937Y64572845D01*
X61170806Y64523211D01*
X61185100Y64473459D01*
X61204091Y64430606D01*
X61230268Y64388764D01*
X61263114Y64351201D01*
X61301548Y64318783D01*
X61344490Y64292378D01*
X61390861Y64272852D01*
X61406616Y64268097D01*
X61423035Y64264705D01*
X61443438Y64262093D01*
X61465936Y64260315D01*
X61488639Y64259425D01*
X61509659Y64259475D01*
X61527107Y64260520D01*
X61539093Y64262614D01*
X61542677Y64264234D01*
X61552993Y64268893D01*
X61562060Y64270332D01*
X61574118Y64272087D01*
X61591449Y64276614D01*
X61611650Y64283107D01*
X61632321Y64290760D01*
X61651061Y64298768D01*
X61659961Y64303183D01*
X61671400Y64310713D01*
X61686709Y64322775D01*
X61703942Y64337747D01*
X61721153Y64354008D01*
X61722240Y64355086D01*
X61740266Y64373475D01*
X61753629Y64388506D01*
X61764007Y64402428D01*
X61773080Y64417489D01*
X61782348Y64435566D01*
X61796424Y64466280D01*
X61806225Y64493085D01*
X61812438Y64518930D01*
X61815752Y64546767D01*
X61816853Y64579546D01*
X61816869Y64583733D01*
X61816536Y64610013D01*
X61815249Y64630617D01*
X61812702Y64648309D01*
X61808593Y64665854D01*
X61807361Y64670277D01*
X61788827Y64720522D01*
X61763413Y64766066D01*
X61731564Y64806441D01*
X61693722Y64841175D01*
X61650331Y64869802D01*
X61601835Y64891850D01*
X61596105Y64893889D01*
X61577266Y64899932D01*
X61560329Y64903997D01*
X61542303Y64906587D01*
X61520193Y64908206D01*
X61507719Y64908768D01*
X61468972Y64908940D01*
X61435200Y64905694D01*
G36*
X40527450Y65817743D02*
G01*
X40490291Y65817699D01*
X40459978Y65817578D01*
X40435702Y65817342D01*
X40416652Y65816954D01*
X40402018Y65816376D01*
X40390989Y65815569D01*
X40382757Y65814495D01*
X40376511Y65813116D01*
X40371440Y65811395D01*
X40366734Y65809293D01*
X40364017Y65807964D01*
X40337388Y65790508D01*
X40314497Y65767003D01*
X40297740Y65740091D01*
X40286516Y65716150D01*
X40286516Y65352083D01*
X40297726Y65328173D01*
X40315449Y65299639D01*
X40339016Y65276021D01*
X40363043Y65260740D01*
X40383883Y65250483D01*
X40568033Y65249657D01*
X40614458Y65249497D01*
X40653149Y65249483D01*
X40684836Y65249634D01*
X40710251Y65249969D01*
X40730124Y65250504D01*
X40745188Y65251260D01*
X40756171Y65252255D01*
X40763807Y65253507D01*
X40768004Y65254708D01*
X40793995Y65267887D01*
X40817436Y65286343D01*
X40834413Y65306361D01*
X40840547Y65315888D01*
X40845636Y65324852D01*
X40849771Y65334122D01*
X40853041Y65344565D01*
X40855539Y65357047D01*
X40857355Y65372437D01*
X40858580Y65391601D01*
X40859306Y65415406D01*
X40859622Y65444721D01*
X40859621Y65480412D01*
X40859392Y65523346D01*
X40859254Y65543227D01*
X40858016Y65716150D01*
X40846792Y65740091D01*
X40829455Y65767763D01*
X40806019Y65791390D01*
X40780700Y65807786D01*
X40760649Y65817750D01*
X40572266Y65817750D01*
X40527450Y65817743D01*
G37*
X40527450Y65817743D02*
X40490291Y65817699D01*
X40459978Y65817578D01*
X40435702Y65817342D01*
X40416652Y65816954D01*
X40402018Y65816376D01*
X40390989Y65815569D01*
X40382757Y65814495D01*
X40376511Y65813116D01*
X40371440Y65811395D01*
X40366734Y65809293D01*
X40364017Y65807964D01*
X40337388Y65790508D01*
X40314497Y65767003D01*
X40297740Y65740091D01*
X40286516Y65716150D01*
X40286516Y65352083D01*
X40297726Y65328173D01*
X40315449Y65299639D01*
X40339016Y65276021D01*
X40363043Y65260740D01*
X40383883Y65250483D01*
X40568033Y65249657D01*
X40614458Y65249497D01*
X40653149Y65249483D01*
X40684836Y65249634D01*
X40710251Y65249969D01*
X40730124Y65250504D01*
X40745188Y65251260D01*
X40756171Y65252255D01*
X40763807Y65253507D01*
X40768004Y65254708D01*
X40793995Y65267887D01*
X40817436Y65286343D01*
X40834413Y65306361D01*
X40840547Y65315888D01*
X40845636Y65324852D01*
X40849771Y65334122D01*
X40853041Y65344565D01*
X40855539Y65357047D01*
X40857355Y65372437D01*
X40858580Y65391601D01*
X40859306Y65415406D01*
X40859622Y65444721D01*
X40859621Y65480412D01*
X40859392Y65523346D01*
X40859254Y65543227D01*
X40858016Y65716150D01*
X40846792Y65740091D01*
X40829455Y65767763D01*
X40806019Y65791390D01*
X40780700Y65807786D01*
X40760649Y65817750D01*
X40572266Y65817750D01*
X40527450Y65817743D01*
G36*
X35085866Y64465200D02*
G01*
X35683825Y64465175D01*
X35765379Y64465143D01*
X35842604Y64465055D01*
X35915153Y64464913D01*
X35982676Y64464720D01*
X36044826Y64464478D01*
X36101254Y64464189D01*
X36151612Y64463856D01*
X36195551Y64463480D01*
X36232723Y64463065D01*
X36262780Y64462611D01*
X36285374Y64462122D01*
X36300155Y64461600D01*
X36306424Y64461115D01*
X36341676Y64451480D01*
X36373331Y64435287D01*
X36400649Y64413522D01*
X36422892Y64387173D01*
X36439320Y64357225D01*
X36449193Y64324666D01*
X36451771Y64290481D01*
X36449602Y64270116D01*
X36438993Y64232701D01*
X36421342Y64199765D01*
X36397052Y64171839D01*
X36366525Y64149454D01*
X36352652Y64142167D01*
X36324116Y64128650D01*
X35744150Y64126360D01*
X35660631Y64126034D01*
X35585118Y64125737D01*
X35517149Y64125451D01*
X35456263Y64125157D01*
X35402000Y64124837D01*
X35353896Y64124472D01*
X35311492Y64124046D01*
X35274327Y64123538D01*
X35241939Y64122932D01*
X35213866Y64122208D01*
X35189649Y64121349D01*
X35168825Y64120336D01*
X35150933Y64119152D01*
X35135513Y64117777D01*
X35122103Y64116194D01*
X35110242Y64114384D01*
X35099469Y64112329D01*
X35089322Y64110011D01*
X35079341Y64107412D01*
X35069064Y64104513D01*
X35058030Y64101296D01*
X35049757Y64098888D01*
X34974731Y64072893D01*
X34903726Y64039633D01*
X34837155Y63999502D01*
X34775434Y63952894D01*
X34718975Y63900205D01*
X34668194Y63841829D01*
X34623504Y63778160D01*
X34585321Y63709595D01*
X34554057Y63636526D01*
X34548722Y63621552D01*
X34526626Y63545021D01*
X34512483Y63467128D01*
X34506325Y63388673D01*
X34508182Y63310455D01*
X34518085Y63233276D01*
X34531367Y63174493D01*
X34554265Y63105034D01*
X34584464Y63037930D01*
X34621295Y62974238D01*
X34664092Y62915016D01*
X34712186Y62861323D01*
X34752237Y62824557D01*
X34816361Y62776052D01*
X34883960Y62735263D01*
X34955055Y62702181D01*
X35029664Y62676797D01*
X35107810Y62659104D01*
X35187466Y62649246D01*
X35199060Y62648700D01*
X35218994Y62648188D01*
X35247141Y62647710D01*
X35283373Y62647267D01*
X35327563Y62646860D01*
X35379585Y62646489D01*
X35439310Y62646156D01*
X35506614Y62645859D01*
X35581367Y62645600D01*
X35663444Y62645380D01*
X35752717Y62645199D01*
X35849059Y62645058D01*
X35952342Y62644956D01*
X36062441Y62644896D01*
X36170658Y62644877D01*
X37096700Y62644866D01*
X37096700Y63207900D01*
X36195208Y63207900D01*
X36081644Y63207915D01*
X35976368Y63207961D01*
X35879202Y63208039D01*
X35789967Y63208149D01*
X35708486Y63208293D01*
X35634579Y63208472D01*
X35568068Y63208686D01*
X35508776Y63208936D01*
X35456523Y63209224D01*
X35411131Y63209549D01*
X35372422Y63209914D01*
X35340217Y63210319D01*
X35314339Y63210764D01*
X35294608Y63211251D01*
X35280846Y63211781D01*
X35272876Y63212355D01*
X35271283Y63212593D01*
X35240565Y63222792D01*
X35210436Y63239643D01*
X35182858Y63261581D01*
X35159796Y63287043D01*
X35143215Y63314465D01*
X35143127Y63314659D01*
X35130482Y63351906D01*
X35125928Y63388848D01*
X35129104Y63424631D01*
X35139653Y63458400D01*
X35157216Y63489302D01*
X35181433Y63516482D01*
X35211946Y63539087D01*
X35243942Y63554603D01*
X35247071Y63555562D01*
X35251517Y63556435D01*
X35257696Y63557228D01*
X35266030Y63557946D01*
X35276935Y63558597D01*
X35290832Y63559187D01*
X35308138Y63559721D01*
X35329272Y63560207D01*
X35354654Y63560651D01*
X35384702Y63561058D01*
X35419834Y63561437D01*
X35460470Y63561792D01*
X35507027Y63562130D01*
X35559926Y63562458D01*
X35619584Y63562782D01*
X35686420Y63563109D01*
X35760853Y63563444D01*
X35843302Y63563794D01*
X35849983Y63563822D01*
X35933337Y63564161D01*
X36008689Y63564464D01*
X36076502Y63564750D01*
X36137241Y63565037D01*
X36191369Y63565344D01*
X36239351Y63565687D01*
X36281651Y63566087D01*
X36318733Y63566560D01*
X36351060Y63567124D01*
X36379097Y63567800D01*
X36403308Y63568603D01*
X36424157Y63569553D01*
X36442108Y63570668D01*
X36457624Y63571966D01*
X36471171Y63573465D01*
X36483211Y63575183D01*
X36494210Y63577139D01*
X36504631Y63579350D01*
X36514937Y63581836D01*
X36525594Y63584614D01*
X36537065Y63587702D01*
X36549814Y63591119D01*
X36550501Y63591301D01*
X36622865Y63614740D01*
X36692393Y63645789D01*
X36758422Y63683905D01*
X36820288Y63728546D01*
X36877330Y63779167D01*
X36928885Y63835227D01*
X36974289Y63896182D01*
X37012881Y63961490D01*
X37020324Y63976250D01*
X37051341Y64048971D01*
X37074204Y64123200D01*
X37088979Y64198419D01*
X37095733Y64274107D01*
X37094530Y64349747D01*
X37085439Y64424819D01*
X37068525Y64498806D01*
X37043854Y64571187D01*
X37011492Y64641445D01*
X36971506Y64709061D01*
X36923963Y64773515D01*
X36917490Y64781325D01*
X36865254Y64837049D01*
X36807337Y64886784D01*
X36744326Y64930233D01*
X36676808Y64967101D01*
X36605371Y64997090D01*
X36530602Y65019905D01*
X36453087Y65035247D01*
X36403782Y65040887D01*
X36392902Y65041430D01*
X36373941Y65041945D01*
X36347287Y65042430D01*
X36313326Y65042882D01*
X36272444Y65043300D01*
X36225027Y65043680D01*
X36171462Y65044020D01*
X36112136Y65044319D01*
X36047435Y65044572D01*
X35977746Y65044779D01*
X35903454Y65044937D01*
X35824947Y65045043D01*
X35742610Y65045095D01*
X35719808Y65045099D01*
X35085866Y65045166D01*
X35085866Y64465200D01*
G37*
X35085866Y64465200D02*
X35683825Y64465175D01*
X35765379Y64465143D01*
X35842604Y64465055D01*
X35915153Y64464913D01*
X35982676Y64464720D01*
X36044826Y64464478D01*
X36101254Y64464189D01*
X36151612Y64463856D01*
X36195551Y64463480D01*
X36232723Y64463065D01*
X36262780Y64462611D01*
X36285374Y64462122D01*
X36300155Y64461600D01*
X36306424Y64461115D01*
X36341676Y64451480D01*
X36373331Y64435287D01*
X36400649Y64413522D01*
X36422892Y64387173D01*
X36439320Y64357225D01*
X36449193Y64324666D01*
X36451771Y64290481D01*
X36449602Y64270116D01*
X36438993Y64232701D01*
X36421342Y64199765D01*
X36397052Y64171839D01*
X36366525Y64149454D01*
X36352652Y64142167D01*
X36324116Y64128650D01*
X35744150Y64126360D01*
X35660631Y64126034D01*
X35585118Y64125737D01*
X35517149Y64125451D01*
X35456263Y64125157D01*
X35402000Y64124837D01*
X35353896Y64124472D01*
X35311492Y64124046D01*
X35274327Y64123538D01*
X35241939Y64122932D01*
X35213866Y64122208D01*
X35189649Y64121349D01*
X35168825Y64120336D01*
X35150933Y64119152D01*
X35135513Y64117777D01*
X35122103Y64116194D01*
X35110242Y64114384D01*
X35099469Y64112329D01*
X35089322Y64110011D01*
X35079341Y64107412D01*
X35069064Y64104513D01*
X35058030Y64101296D01*
X35049757Y64098888D01*
X34974731Y64072893D01*
X34903726Y64039633D01*
X34837155Y63999502D01*
X34775434Y63952894D01*
X34718975Y63900205D01*
X34668194Y63841829D01*
X34623504Y63778160D01*
X34585321Y63709595D01*
X34554057Y63636526D01*
X34548722Y63621552D01*
X34526626Y63545021D01*
X34512483Y63467128D01*
X34506325Y63388673D01*
X34508182Y63310455D01*
X34518085Y63233276D01*
X34531367Y63174493D01*
X34554265Y63105034D01*
X34584464Y63037930D01*
X34621295Y62974238D01*
X34664092Y62915016D01*
X34712186Y62861323D01*
X34752237Y62824557D01*
X34816361Y62776052D01*
X34883960Y62735263D01*
X34955055Y62702181D01*
X35029664Y62676797D01*
X35107810Y62659104D01*
X35187466Y62649246D01*
X35199060Y62648700D01*
X35218994Y62648188D01*
X35247141Y62647710D01*
X35283373Y62647267D01*
X35327563Y62646860D01*
X35379585Y62646489D01*
X35439310Y62646156D01*
X35506614Y62645859D01*
X35581367Y62645600D01*
X35663444Y62645380D01*
X35752717Y62645199D01*
X35849059Y62645058D01*
X35952342Y62644956D01*
X36062441Y62644896D01*
X36170658Y62644877D01*
X37096700Y62644866D01*
X37096700Y63207900D01*
X36195208Y63207900D01*
X36081644Y63207915D01*
X35976368Y63207961D01*
X35879202Y63208039D01*
X35789967Y63208149D01*
X35708486Y63208293D01*
X35634579Y63208472D01*
X35568068Y63208686D01*
X35508776Y63208936D01*
X35456523Y63209224D01*
X35411131Y63209549D01*
X35372422Y63209914D01*
X35340217Y63210319D01*
X35314339Y63210764D01*
X35294608Y63211251D01*
X35280846Y63211781D01*
X35272876Y63212355D01*
X35271283Y63212593D01*
X35240565Y63222792D01*
X35210436Y63239643D01*
X35182858Y63261581D01*
X35159796Y63287043D01*
X35143215Y63314465D01*
X35143127Y63314659D01*
X35130482Y63351906D01*
X35125928Y63388848D01*
X35129104Y63424631D01*
X35139653Y63458400D01*
X35157216Y63489302D01*
X35181433Y63516482D01*
X35211946Y63539087D01*
X35243942Y63554603D01*
X35247071Y63555562D01*
X35251517Y63556435D01*
X35257696Y63557228D01*
X35266030Y63557946D01*
X35276935Y63558597D01*
X35290832Y63559187D01*
X35308138Y63559721D01*
X35329272Y63560207D01*
X35354654Y63560651D01*
X35384702Y63561058D01*
X35419834Y63561437D01*
X35460470Y63561792D01*
X35507027Y63562130D01*
X35559926Y63562458D01*
X35619584Y63562782D01*
X35686420Y63563109D01*
X35760853Y63563444D01*
X35843302Y63563794D01*
X35849983Y63563822D01*
X35933337Y63564161D01*
X36008689Y63564464D01*
X36076502Y63564750D01*
X36137241Y63565037D01*
X36191369Y63565344D01*
X36239351Y63565687D01*
X36281651Y63566087D01*
X36318733Y63566560D01*
X36351060Y63567124D01*
X36379097Y63567800D01*
X36403308Y63568603D01*
X36424157Y63569553D01*
X36442108Y63570668D01*
X36457624Y63571966D01*
X36471171Y63573465D01*
X36483211Y63575183D01*
X36494210Y63577139D01*
X36504631Y63579350D01*
X36514937Y63581836D01*
X36525594Y63584614D01*
X36537065Y63587702D01*
X36549814Y63591119D01*
X36550501Y63591301D01*
X36622865Y63614740D01*
X36692393Y63645789D01*
X36758422Y63683905D01*
X36820288Y63728546D01*
X36877330Y63779167D01*
X36928885Y63835227D01*
X36974289Y63896182D01*
X37012881Y63961490D01*
X37020324Y63976250D01*
X37051341Y64048971D01*
X37074204Y64123200D01*
X37088979Y64198419D01*
X37095733Y64274107D01*
X37094530Y64349747D01*
X37085439Y64424819D01*
X37068525Y64498806D01*
X37043854Y64571187D01*
X37011492Y64641445D01*
X36971506Y64709061D01*
X36923963Y64773515D01*
X36917490Y64781325D01*
X36865254Y64837049D01*
X36807337Y64886784D01*
X36744326Y64930233D01*
X36676808Y64967101D01*
X36605371Y64997090D01*
X36530602Y65019905D01*
X36453087Y65035247D01*
X36403782Y65040887D01*
X36392902Y65041430D01*
X36373941Y65041945D01*
X36347287Y65042430D01*
X36313326Y65042882D01*
X36272444Y65043300D01*
X36225027Y65043680D01*
X36171462Y65044020D01*
X36112136Y65044319D01*
X36047435Y65044572D01*
X35977746Y65044779D01*
X35903454Y65044937D01*
X35824947Y65045043D01*
X35742610Y65045095D01*
X35719808Y65045099D01*
X35085866Y65045166D01*
X35085866Y64465200D01*
G36*
X37397266Y64465388D02*
G01*
X38209008Y64464103D01*
X38306777Y64463944D01*
X38396442Y64463790D01*
X38478366Y64463635D01*
X38552913Y64463476D01*
X38620445Y64463309D01*
X38681325Y64463131D01*
X38735917Y64462938D01*
X38784583Y64462726D01*
X38827686Y64462492D01*
X38865589Y64462231D01*
X38898656Y64461939D01*
X38927248Y64461614D01*
X38951731Y64461252D01*
X38972465Y64460847D01*
X38989814Y64460398D01*
X39004142Y64459900D01*
X39015810Y64459349D01*
X39025183Y64458742D01*
X39032623Y64458074D01*
X39038494Y64457343D01*
X39043157Y64456544D01*
X39046976Y64455673D01*
X39047872Y64455436D01*
X39087825Y64440938D01*
X39121410Y64420871D01*
X39148728Y64395129D01*
X39169879Y64363606D01*
X39184962Y64326199D01*
X39190155Y64305750D01*
X39191256Y64296215D01*
X39192260Y64278923D01*
X39193167Y64254587D01*
X39193978Y64223918D01*
X39194693Y64187625D01*
X39195311Y64146420D01*
X39195833Y64101013D01*
X39196259Y64052116D01*
X39196588Y64000438D01*
X39196820Y63946692D01*
X39196956Y63891586D01*
X39196996Y63835833D01*
X39196939Y63780143D01*
X39196786Y63725227D01*
X39196536Y63671795D01*
X39196190Y63620559D01*
X39195748Y63572228D01*
X39195209Y63527515D01*
X39194574Y63487129D01*
X39193842Y63451781D01*
X39193013Y63422182D01*
X39192089Y63399043D01*
X39191068Y63383075D01*
X39190155Y63375816D01*
X39178212Y63334897D01*
X39160812Y63300223D01*
X39137491Y63271269D01*
X39107788Y63247512D01*
X39071241Y63228429D01*
X39054156Y63221829D01*
X39020750Y63210017D01*
X38209008Y63208874D01*
X37397266Y63207732D01*
X37397266Y62644866D01*
X38196308Y62645463D01*
X38278664Y62645543D01*
X38359168Y62645658D01*
X38437375Y62645804D01*
X38512841Y62645981D01*
X38585120Y62646186D01*
X38653766Y62646417D01*
X38718335Y62646671D01*
X38778381Y62646946D01*
X38833460Y62647241D01*
X38883125Y62647553D01*
X38926933Y62647879D01*
X38964437Y62648218D01*
X38995192Y62648568D01*
X39018754Y62648926D01*
X39034676Y62649290D01*
X39041916Y62649606D01*
X39105480Y62657038D01*
X39171020Y62669474D01*
X39235193Y62686165D01*
X39293810Y62706036D01*
X39367177Y62738483D01*
X39434844Y62777056D01*
X39497027Y62821942D01*
X39553940Y62873327D01*
X39605797Y62931398D01*
X39652814Y62996341D01*
X39680941Y63042435D01*
X39707144Y63092836D01*
X39728791Y63144730D01*
X39746615Y63200175D01*
X39761348Y63261226D01*
X39764662Y63277750D01*
X39766052Y63285127D01*
X39767294Y63292397D01*
X39768398Y63300066D01*
X39769373Y63308640D01*
X39770230Y63318625D01*
X39770979Y63330528D01*
X39771631Y63344853D01*
X39772195Y63362107D01*
X39772682Y63382797D01*
X39773102Y63407427D01*
X39773465Y63436505D01*
X39773781Y63470535D01*
X39774062Y63510025D01*
X39774316Y63555479D01*
X39774554Y63607405D01*
X39774786Y63666307D01*
X39775023Y63732693D01*
X39775260Y63802683D01*
X39775500Y63877933D01*
X39775687Y63945223D01*
X39775816Y64005062D01*
X39775882Y64057956D01*
X39775879Y64104415D01*
X39775804Y64144944D01*
X39775650Y64180051D01*
X39775414Y64210244D01*
X39775089Y64236031D01*
X39774671Y64257918D01*
X39774156Y64276414D01*
X39773537Y64292025D01*
X39772811Y64305260D01*
X39771972Y64316625D01*
X39771015Y64326629D01*
X39770053Y64334853D01*
X39755078Y64420062D01*
X39732094Y64502725D01*
X39701243Y64582462D01*
X39662666Y64658893D01*
X39628427Y64714300D01*
X39581854Y64776347D01*
X39529473Y64832374D01*
X39471603Y64882206D01*
X39408560Y64925668D01*
X39340663Y64962586D01*
X39268230Y64992783D01*
X39191577Y65016086D01*
X39111023Y65032320D01*
X39035566Y65040732D01*
X39023069Y65041303D01*
X39002311Y65041839D01*
X38973496Y65042338D01*
X38936832Y65042800D01*
X38892522Y65043223D01*
X38840774Y65043606D01*
X38781791Y65043950D01*
X38715779Y65044251D01*
X38642944Y65044510D01*
X38563491Y65044724D01*
X38477626Y65044894D01*
X38385554Y65045019D01*
X38287480Y65045096D01*
X38185725Y65045125D01*
X37397266Y65045166D01*
X37397266Y64465388D01*
G37*
X37397266Y64465388D02*
X38209008Y64464103D01*
X38306777Y64463944D01*
X38396442Y64463790D01*
X38478366Y64463635D01*
X38552913Y64463476D01*
X38620445Y64463309D01*
X38681325Y64463131D01*
X38735917Y64462938D01*
X38784583Y64462726D01*
X38827686Y64462492D01*
X38865589Y64462231D01*
X38898656Y64461939D01*
X38927248Y64461614D01*
X38951731Y64461252D01*
X38972465Y64460847D01*
X38989814Y64460398D01*
X39004142Y64459900D01*
X39015810Y64459349D01*
X39025183Y64458742D01*
X39032623Y64458074D01*
X39038494Y64457343D01*
X39043157Y64456544D01*
X39046976Y64455673D01*
X39047872Y64455436D01*
X39087825Y64440938D01*
X39121410Y64420871D01*
X39148728Y64395129D01*
X39169879Y64363606D01*
X39184962Y64326199D01*
X39190155Y64305750D01*
X39191256Y64296215D01*
X39192260Y64278923D01*
X39193167Y64254587D01*
X39193978Y64223918D01*
X39194693Y64187625D01*
X39195311Y64146420D01*
X39195833Y64101013D01*
X39196259Y64052116D01*
X39196588Y64000438D01*
X39196820Y63946692D01*
X39196956Y63891586D01*
X39196996Y63835833D01*
X39196939Y63780143D01*
X39196786Y63725227D01*
X39196536Y63671795D01*
X39196190Y63620559D01*
X39195748Y63572228D01*
X39195209Y63527515D01*
X39194574Y63487129D01*
X39193842Y63451781D01*
X39193013Y63422182D01*
X39192089Y63399043D01*
X39191068Y63383075D01*
X39190155Y63375816D01*
X39178212Y63334897D01*
X39160812Y63300223D01*
X39137491Y63271269D01*
X39107788Y63247512D01*
X39071241Y63228429D01*
X39054156Y63221829D01*
X39020750Y63210017D01*
X38209008Y63208874D01*
X37397266Y63207732D01*
X37397266Y62644866D01*
X38196308Y62645463D01*
X38278664Y62645543D01*
X38359168Y62645658D01*
X38437375Y62645804D01*
X38512841Y62645981D01*
X38585120Y62646186D01*
X38653766Y62646417D01*
X38718335Y62646671D01*
X38778381Y62646946D01*
X38833460Y62647241D01*
X38883125Y62647553D01*
X38926933Y62647879D01*
X38964437Y62648218D01*
X38995192Y62648568D01*
X39018754Y62648926D01*
X39034676Y62649290D01*
X39041916Y62649606D01*
X39105480Y62657038D01*
X39171020Y62669474D01*
X39235193Y62686165D01*
X39293810Y62706036D01*
X39367177Y62738483D01*
X39434844Y62777056D01*
X39497027Y62821942D01*
X39553940Y62873327D01*
X39605797Y62931398D01*
X39652814Y62996341D01*
X39680941Y63042435D01*
X39707144Y63092836D01*
X39728791Y63144730D01*
X39746615Y63200175D01*
X39761348Y63261226D01*
X39764662Y63277750D01*
X39766052Y63285127D01*
X39767294Y63292397D01*
X39768398Y63300066D01*
X39769373Y63308640D01*
X39770230Y63318625D01*
X39770979Y63330528D01*
X39771631Y63344853D01*
X39772195Y63362107D01*
X39772682Y63382797D01*
X39773102Y63407427D01*
X39773465Y63436505D01*
X39773781Y63470535D01*
X39774062Y63510025D01*
X39774316Y63555479D01*
X39774554Y63607405D01*
X39774786Y63666307D01*
X39775023Y63732693D01*
X39775260Y63802683D01*
X39775500Y63877933D01*
X39775687Y63945223D01*
X39775816Y64005062D01*
X39775882Y64057956D01*
X39775879Y64104415D01*
X39775804Y64144944D01*
X39775650Y64180051D01*
X39775414Y64210244D01*
X39775089Y64236031D01*
X39774671Y64257918D01*
X39774156Y64276414D01*
X39773537Y64292025D01*
X39772811Y64305260D01*
X39771972Y64316625D01*
X39771015Y64326629D01*
X39770053Y64334853D01*
X39755078Y64420062D01*
X39732094Y64502725D01*
X39701243Y64582462D01*
X39662666Y64658893D01*
X39628427Y64714300D01*
X39581854Y64776347D01*
X39529473Y64832374D01*
X39471603Y64882206D01*
X39408560Y64925668D01*
X39340663Y64962586D01*
X39268230Y64992783D01*
X39191577Y65016086D01*
X39111023Y65032320D01*
X39035566Y65040732D01*
X39023069Y65041303D01*
X39002311Y65041839D01*
X38973496Y65042338D01*
X38936832Y65042800D01*
X38892522Y65043223D01*
X38840774Y65043606D01*
X38781791Y65043950D01*
X38715779Y65044251D01*
X38642944Y65044510D01*
X38563491Y65044724D01*
X38477626Y65044894D01*
X38385554Y65045019D01*
X38287480Y65045096D01*
X38185725Y65045125D01*
X37397266Y65045166D01*
X37397266Y64465388D01*
G36*
X40292866Y62644866D02*
G01*
X40851666Y62644866D01*
X40851666Y65045166D01*
X40292866Y65045166D01*
X40292866Y62644866D01*
G37*
X40292866Y62644866D02*
X40851666Y62644866D01*
X40851666Y65045166D01*
X40292866Y65045166D01*
X40292866Y62644866D01*
G36*
X43500674Y65044029D02*
G01*
X43373320Y65043905D01*
X43254150Y65043784D01*
X43142884Y65043666D01*
X43039240Y65043547D01*
X42942936Y65043426D01*
X42853692Y65043302D01*
X42771224Y65043172D01*
X42695253Y65043035D01*
X42625497Y65042890D01*
X42561673Y65042733D01*
X42503500Y65042563D01*
X42450698Y65042379D01*
X42402983Y65042179D01*
X42360076Y65041961D01*
X42321693Y65041723D01*
X42287555Y65041464D01*
X42257378Y65041180D01*
X42230882Y65040872D01*
X42207785Y65040537D01*
X42187806Y65040172D01*
X42170663Y65039778D01*
X42156074Y65039350D01*
X42143758Y65038889D01*
X42133434Y65038391D01*
X42124819Y65037856D01*
X42117633Y65037280D01*
X42111594Y65036664D01*
X42106420Y65036004D01*
X42101830Y65035299D01*
X42100499Y65035074D01*
X42015992Y65017011D01*
X41935202Y64992683D01*
X41858685Y64962377D01*
X41786996Y64926381D01*
X41720690Y64884980D01*
X41660324Y64838462D01*
X41606452Y64787113D01*
X41593999Y64773482D01*
X41547512Y64714833D01*
X41506967Y64650536D01*
X41472627Y64581219D01*
X41444753Y64507508D01*
X41423604Y64430033D01*
X41409443Y64349422D01*
X41406312Y64321876D01*
X41405744Y64311704D01*
X41405213Y64293210D01*
X41404719Y64266540D01*
X41404265Y64231837D01*
X41403849Y64189248D01*
X41403474Y64138918D01*
X41403139Y64080991D01*
X41402846Y64015612D01*
X41402595Y63942926D01*
X41402388Y63863078D01*
X41402223Y63776214D01*
X41402103Y63682478D01*
X41402029Y63582015D01*
X41402000Y63474970D01*
X41401999Y63461451D01*
X41401999Y62644866D01*
X41981966Y62644866D01*
X41982114Y63454492D01*
X41982141Y63554481D01*
X41982184Y63646345D01*
X41982247Y63730424D01*
X41982332Y63807061D01*
X41982441Y63876597D01*
X41982577Y63939372D01*
X41982742Y63995727D01*
X41982939Y64046005D01*
X41983169Y64090547D01*
X41983436Y64129693D01*
X41983742Y64163785D01*
X41984090Y64193164D01*
X41984481Y64218172D01*
X41984918Y64239149D01*
X41985404Y64256438D01*
X41985942Y64270379D01*
X41986532Y64281313D01*
X41987179Y64289582D01*
X41987884Y64295527D01*
X41988138Y64297082D01*
X41999139Y64338709D01*
X42016251Y64374480D01*
X42039467Y64404384D01*
X42068776Y64428413D01*
X42104172Y64446556D01*
X42131110Y64455369D01*
X42137383Y64456812D01*
X42144984Y64458062D01*
X42154569Y64459138D01*
X42166794Y64460059D01*
X42182313Y64460843D01*
X42201782Y64461511D01*
X42225855Y64462080D01*
X42255190Y64462571D01*
X42290440Y64463001D01*
X42332260Y64463390D01*
X42381307Y64463757D01*
X42431758Y64464082D01*
X42705866Y64465753D01*
X42705866Y62644866D01*
X43285607Y62644866D01*
X43286841Y63467192D01*
X43286992Y63565521D01*
X43287139Y63655744D01*
X43287286Y63738221D01*
X43287436Y63813313D01*
X43287594Y63881379D01*
X43287763Y63942781D01*
X43287947Y63997877D01*
X43288149Y64047030D01*
X43288374Y64090598D01*
X43288625Y64128943D01*
X43288905Y64162424D01*
X43289219Y64191403D01*
X43289570Y64216239D01*
X43289962Y64237293D01*
X43290398Y64254925D01*
X43290883Y64269495D01*
X43291420Y64281364D01*
X43292012Y64290892D01*
X43292664Y64298440D01*
X43293380Y64304367D01*
X43294162Y64309034D01*
X43295015Y64312802D01*
X43295602Y64314916D01*
X43311111Y64354952D01*
X43332100Y64388566D01*
X43358771Y64415956D01*
X43391325Y64437318D01*
X43429960Y64452848D01*
X43438627Y64455323D01*
X43443778Y64456550D01*
X43449892Y64457637D01*
X43457496Y64458597D01*
X43467120Y64459439D01*
X43479293Y64460175D01*
X43494544Y64460815D01*
X43513400Y64461371D01*
X43536393Y64461852D01*
X43564050Y64462270D01*
X43596900Y64462635D01*
X43635472Y64462957D01*
X43680295Y64463249D01*
X43731898Y64463520D01*
X43790811Y64463781D01*
X43857561Y64464043D01*
X43871091Y64464093D01*
X44276433Y64465594D01*
X44276433Y62644866D01*
X44856399Y62644866D01*
X44856399Y65045331D01*
X43500674Y65044029D01*
G37*
X43500674Y65044029D02*
X43373320Y65043905D01*
X43254150Y65043784D01*
X43142884Y65043666D01*
X43039240Y65043547D01*
X42942936Y65043426D01*
X42853692Y65043302D01*
X42771224Y65043172D01*
X42695253Y65043035D01*
X42625497Y65042890D01*
X42561673Y65042733D01*
X42503500Y65042563D01*
X42450698Y65042379D01*
X42402983Y65042179D01*
X42360076Y65041961D01*
X42321693Y65041723D01*
X42287555Y65041464D01*
X42257378Y65041180D01*
X42230882Y65040872D01*
X42207785Y65040537D01*
X42187806Y65040172D01*
X42170663Y65039778D01*
X42156074Y65039350D01*
X42143758Y65038889D01*
X42133434Y65038391D01*
X42124819Y65037856D01*
X42117633Y65037280D01*
X42111594Y65036664D01*
X42106420Y65036004D01*
X42101830Y65035299D01*
X42100499Y65035074D01*
X42015992Y65017011D01*
X41935202Y64992683D01*
X41858685Y64962377D01*
X41786996Y64926381D01*
X41720690Y64884980D01*
X41660324Y64838462D01*
X41606452Y64787113D01*
X41593999Y64773482D01*
X41547512Y64714833D01*
X41506967Y64650536D01*
X41472627Y64581219D01*
X41444753Y64507508D01*
X41423604Y64430033D01*
X41409443Y64349422D01*
X41406312Y64321876D01*
X41405744Y64311704D01*
X41405213Y64293210D01*
X41404719Y64266540D01*
X41404265Y64231837D01*
X41403849Y64189248D01*
X41403474Y64138918D01*
X41403139Y64080991D01*
X41402846Y64015612D01*
X41402595Y63942926D01*
X41402388Y63863078D01*
X41402223Y63776214D01*
X41402103Y63682478D01*
X41402029Y63582015D01*
X41402000Y63474970D01*
X41401999Y63461451D01*
X41401999Y62644866D01*
X41981966Y62644866D01*
X41982114Y63454492D01*
X41982141Y63554481D01*
X41982184Y63646345D01*
X41982247Y63730424D01*
X41982332Y63807061D01*
X41982441Y63876597D01*
X41982577Y63939372D01*
X41982742Y63995727D01*
X41982939Y64046005D01*
X41983169Y64090547D01*
X41983436Y64129693D01*
X41983742Y64163785D01*
X41984090Y64193164D01*
X41984481Y64218172D01*
X41984918Y64239149D01*
X41985404Y64256438D01*
X41985942Y64270379D01*
X41986532Y64281313D01*
X41987179Y64289582D01*
X41987884Y64295527D01*
X41988138Y64297082D01*
X41999139Y64338709D01*
X42016251Y64374480D01*
X42039467Y64404384D01*
X42068776Y64428413D01*
X42104172Y64446556D01*
X42131110Y64455369D01*
X42137383Y64456812D01*
X42144984Y64458062D01*
X42154569Y64459138D01*
X42166794Y64460059D01*
X42182313Y64460843D01*
X42201782Y64461511D01*
X42225855Y64462080D01*
X42255190Y64462571D01*
X42290440Y64463001D01*
X42332260Y64463390D01*
X42381307Y64463757D01*
X42431758Y64464082D01*
X42705866Y64465753D01*
X42705866Y62644866D01*
X43285607Y62644866D01*
X43286841Y63467192D01*
X43286992Y63565521D01*
X43287139Y63655744D01*
X43287286Y63738221D01*
X43287436Y63813313D01*
X43287594Y63881379D01*
X43287763Y63942781D01*
X43287947Y63997877D01*
X43288149Y64047030D01*
X43288374Y64090598D01*
X43288625Y64128943D01*
X43288905Y64162424D01*
X43289219Y64191403D01*
X43289570Y64216239D01*
X43289962Y64237293D01*
X43290398Y64254925D01*
X43290883Y64269495D01*
X43291420Y64281364D01*
X43292012Y64290892D01*
X43292664Y64298440D01*
X43293380Y64304367D01*
X43294162Y64309034D01*
X43295015Y64312802D01*
X43295602Y64314916D01*
X43311111Y64354952D01*
X43332100Y64388566D01*
X43358771Y64415956D01*
X43391325Y64437318D01*
X43429960Y64452848D01*
X43438627Y64455323D01*
X43443778Y64456550D01*
X43449892Y64457637D01*
X43457496Y64458597D01*
X43467120Y64459439D01*
X43479293Y64460175D01*
X43494544Y64460815D01*
X43513400Y64461371D01*
X43536393Y64461852D01*
X43564050Y64462270D01*
X43596900Y64462635D01*
X43635472Y64462957D01*
X43680295Y64463249D01*
X43731898Y64463520D01*
X43790811Y64463781D01*
X43857561Y64464043D01*
X43871091Y64464093D01*
X44276433Y64465594D01*
X44276433Y62644866D01*
X44856399Y62644866D01*
X44856399Y65045331D01*
X43500674Y65044029D01*
G36*
X50157591Y65044046D02*
G01*
X50058622Y65043878D01*
X49967747Y65043718D01*
X49884596Y65043564D01*
X49808797Y65043410D01*
X49739978Y65043253D01*
X49677768Y65043087D01*
X49621795Y65042909D01*
X49571687Y65042714D01*
X49527073Y65042498D01*
X49487581Y65042257D01*
X49452840Y65041985D01*
X49422478Y65041680D01*
X49396123Y65041336D01*
X49373404Y65040949D01*
X49353949Y65040515D01*
X49337387Y65040029D01*
X49323346Y65039488D01*
X49311454Y65038886D01*
X49301339Y65038220D01*
X49292631Y65037484D01*
X49284958Y65036676D01*
X49277947Y65035789D01*
X49271228Y65034821D01*
X49264429Y65033767D01*
X49263299Y65033588D01*
X49195135Y65021614D01*
X49133355Y65008056D01*
X49075930Y64992282D01*
X49020832Y64973659D01*
X48966033Y64951552D01*
X48909502Y64925330D01*
X48897678Y64919470D01*
X48845572Y64892044D01*
X48798223Y64864022D01*
X48752075Y64833202D01*
X48717199Y64807746D01*
X48650302Y64752151D01*
X48589252Y64690622D01*
X48534251Y64623537D01*
X48485503Y64551271D01*
X48443210Y64474203D01*
X48407575Y64392709D01*
X48378801Y64307167D01*
X48357091Y64217953D01*
X48342646Y64125444D01*
X48340768Y64107806D01*
X48340072Y64096426D01*
X48339435Y64076937D01*
X48338855Y64049307D01*
X48338333Y64013507D01*
X48337869Y63969506D01*
X48337462Y63917273D01*
X48337112Y63856778D01*
X48336819Y63787990D01*
X48336583Y63710879D01*
X48336403Y63625414D01*
X48336280Y63531565D01*
X48336213Y63429302D01*
X48336199Y63353215D01*
X48336199Y62644866D01*
X48916166Y62644866D01*
X48916166Y63340695D01*
X48916174Y63432083D01*
X48916199Y63515394D01*
X48916245Y63591019D01*
X48916316Y63659348D01*
X48916414Y63720772D01*
X48916544Y63775681D01*
X48916709Y63824465D01*
X48916911Y63867515D01*
X48917156Y63905221D01*
X48917445Y63937973D01*
X48917783Y63966161D01*
X48918173Y63990177D01*
X48918618Y64010409D01*
X48919122Y64027249D01*
X48919688Y64041087D01*
X48920320Y64052313D01*
X48921021Y64061317D01*
X48921795Y64068491D01*
X48922627Y64074120D01*
X48936835Y64133581D01*
X48958301Y64190315D01*
X48986486Y64243413D01*
X49020848Y64291969D01*
X49060849Y64335075D01*
X49094915Y64363803D01*
X49145258Y64396936D01*
X49200079Y64423688D01*
X49260135Y64444393D01*
X49297166Y64453655D01*
X49303204Y64454943D01*
X49309264Y64456100D01*
X49315814Y64457137D01*
X49323320Y64458060D01*
X49332249Y64458878D01*
X49343066Y64459600D01*
X49356239Y64460234D01*
X49372234Y64460788D01*
X49391518Y64461270D01*
X49414556Y64461690D01*
X49441816Y64462054D01*
X49473764Y64462373D01*
X49510867Y64462653D01*
X49553590Y64462904D01*
X49602401Y64463134D01*
X49657766Y64463351D01*
X49720152Y64463563D01*
X49790025Y64463780D01*
X49867851Y64464008D01*
X49876075Y64464032D01*
X50414766Y64465590D01*
X50414766Y62644866D01*
X50994733Y62644866D01*
X50994733Y65045465D01*
X50157591Y65044046D01*
G37*
X50157591Y65044046D02*
X50058622Y65043878D01*
X49967747Y65043718D01*
X49884596Y65043564D01*
X49808797Y65043410D01*
X49739978Y65043253D01*
X49677768Y65043087D01*
X49621795Y65042909D01*
X49571687Y65042714D01*
X49527073Y65042498D01*
X49487581Y65042257D01*
X49452840Y65041985D01*
X49422478Y65041680D01*
X49396123Y65041336D01*
X49373404Y65040949D01*
X49353949Y65040515D01*
X49337387Y65040029D01*
X49323346Y65039488D01*
X49311454Y65038886D01*
X49301339Y65038220D01*
X49292631Y65037484D01*
X49284958Y65036676D01*
X49277947Y65035789D01*
X49271228Y65034821D01*
X49264429Y65033767D01*
X49263299Y65033588D01*
X49195135Y65021614D01*
X49133355Y65008056D01*
X49075930Y64992282D01*
X49020832Y64973659D01*
X48966033Y64951552D01*
X48909502Y64925330D01*
X48897678Y64919470D01*
X48845572Y64892044D01*
X48798223Y64864022D01*
X48752075Y64833202D01*
X48717199Y64807746D01*
X48650302Y64752151D01*
X48589252Y64690622D01*
X48534251Y64623537D01*
X48485503Y64551271D01*
X48443210Y64474203D01*
X48407575Y64392709D01*
X48378801Y64307167D01*
X48357091Y64217953D01*
X48342646Y64125444D01*
X48340768Y64107806D01*
X48340072Y64096426D01*
X48339435Y64076937D01*
X48338855Y64049307D01*
X48338333Y64013507D01*
X48337869Y63969506D01*
X48337462Y63917273D01*
X48337112Y63856778D01*
X48336819Y63787990D01*
X48336583Y63710879D01*
X48336403Y63625414D01*
X48336280Y63531565D01*
X48336213Y63429302D01*
X48336199Y63353215D01*
X48336199Y62644866D01*
X48916166Y62644866D01*
X48916166Y63340695D01*
X48916174Y63432083D01*
X48916199Y63515394D01*
X48916245Y63591019D01*
X48916316Y63659348D01*
X48916414Y63720772D01*
X48916544Y63775681D01*
X48916709Y63824465D01*
X48916911Y63867515D01*
X48917156Y63905221D01*
X48917445Y63937973D01*
X48917783Y63966161D01*
X48918173Y63990177D01*
X48918618Y64010409D01*
X48919122Y64027249D01*
X48919688Y64041087D01*
X48920320Y64052313D01*
X48921021Y64061317D01*
X48921795Y64068491D01*
X48922627Y64074120D01*
X48936835Y64133581D01*
X48958301Y64190315D01*
X48986486Y64243413D01*
X49020848Y64291969D01*
X49060849Y64335075D01*
X49094915Y64363803D01*
X49145258Y64396936D01*
X49200079Y64423688D01*
X49260135Y64444393D01*
X49297166Y64453655D01*
X49303204Y64454943D01*
X49309264Y64456100D01*
X49315814Y64457137D01*
X49323320Y64458060D01*
X49332249Y64458878D01*
X49343066Y64459600D01*
X49356239Y64460234D01*
X49372234Y64460788D01*
X49391518Y64461270D01*
X49414556Y64461690D01*
X49441816Y64462054D01*
X49473764Y64462373D01*
X49510867Y64462653D01*
X49553590Y64462904D01*
X49602401Y64463134D01*
X49657766Y64463351D01*
X49720152Y64463563D01*
X49790025Y64463780D01*
X49867851Y64464008D01*
X49876075Y64464032D01*
X50414766Y64465590D01*
X50414766Y62644866D01*
X50994733Y62644866D01*
X50994733Y65045465D01*
X50157591Y65044046D01*
G36*
X53643711Y64220725D02*
G01*
X53643559Y64122325D01*
X53643411Y64032031D01*
X53643264Y63949484D01*
X53643113Y63874322D01*
X53642956Y63806186D01*
X53642789Y63744715D01*
X53642606Y63689550D01*
X53642406Y63640329D01*
X53642184Y63596693D01*
X53641936Y63558281D01*
X53641659Y63524733D01*
X53641348Y63495689D01*
X53641000Y63470788D01*
X53640612Y63449671D01*
X53640179Y63431976D01*
X53639697Y63417345D01*
X53639163Y63405416D01*
X53638574Y63395829D01*
X53637924Y63388224D01*
X53637211Y63382240D01*
X53636431Y63377518D01*
X53635580Y63373698D01*
X53634795Y63370883D01*
X53618904Y63330315D01*
X53597553Y63295159D01*
X53571262Y63266077D01*
X53540552Y63243729D01*
X53530499Y63238409D01*
X53520856Y63233666D01*
X53512244Y63229489D01*
X53504089Y63225839D01*
X53495816Y63222680D01*
X53486849Y63219972D01*
X53476613Y63217680D01*
X53464533Y63215764D01*
X53450034Y63214188D01*
X53432541Y63212913D01*
X53411478Y63211901D01*
X53386271Y63211116D01*
X53356344Y63210519D01*
X53321121Y63210073D01*
X53280029Y63209740D01*
X53232490Y63209482D01*
X53177932Y63209261D01*
X53115777Y63209040D01*
X53080708Y63208914D01*
X52709233Y63207553D01*
X52709233Y62644866D01*
X53068008Y62645479D01*
X53123581Y62645611D01*
X53177577Y62645811D01*
X53229274Y62646071D01*
X53277950Y62646386D01*
X53322884Y62646748D01*
X53363355Y62647150D01*
X53398640Y62647586D01*
X53428019Y62648048D01*
X53450769Y62648530D01*
X53466170Y62649025D01*
X53471233Y62649300D01*
X53552313Y62658802D01*
X53631008Y62675263D01*
X53706666Y62698380D01*
X53778633Y62727848D01*
X53846255Y62763364D01*
X53908879Y62804624D01*
X53965852Y62851325D01*
X54015758Y62902290D01*
X54062031Y62960681D01*
X54102457Y63022976D01*
X54136435Y63087995D01*
X54163366Y63154556D01*
X54182649Y63221479D01*
X54186129Y63237748D01*
X54188329Y63248758D01*
X54190353Y63259000D01*
X54192208Y63268852D01*
X54193901Y63278692D01*
X54195441Y63288898D01*
X54196837Y63299846D01*
X54198096Y63311916D01*
X54199226Y63325484D01*
X54200235Y63340929D01*
X54201131Y63358628D01*
X54201923Y63378958D01*
X54202619Y63402298D01*
X54203226Y63429026D01*
X54203753Y63459518D01*
X54204207Y63494153D01*
X54204598Y63533309D01*
X54204932Y63577362D01*
X54205218Y63626692D01*
X54205464Y63681675D01*
X54205678Y63742689D01*
X54205869Y63810113D01*
X54206043Y63884323D01*
X54206210Y63965698D01*
X54206377Y64054614D01*
X54206553Y64151451D01*
X54206637Y64197441D01*
X54208182Y65045166D01*
X53644965Y65045166D01*
X53643711Y64220725D01*
G37*
X53643711Y64220725D02*
X53643559Y64122325D01*
X53643411Y64032031D01*
X53643264Y63949484D01*
X53643113Y63874322D01*
X53642956Y63806186D01*
X53642789Y63744715D01*
X53642606Y63689550D01*
X53642406Y63640329D01*
X53642184Y63596693D01*
X53641936Y63558281D01*
X53641659Y63524733D01*
X53641348Y63495689D01*
X53641000Y63470788D01*
X53640612Y63449671D01*
X53640179Y63431976D01*
X53639697Y63417345D01*
X53639163Y63405416D01*
X53638574Y63395829D01*
X53637924Y63388224D01*
X53637211Y63382240D01*
X53636431Y63377518D01*
X53635580Y63373698D01*
X53634795Y63370883D01*
X53618904Y63330315D01*
X53597553Y63295159D01*
X53571262Y63266077D01*
X53540552Y63243729D01*
X53530499Y63238409D01*
X53520856Y63233666D01*
X53512244Y63229489D01*
X53504089Y63225839D01*
X53495816Y63222680D01*
X53486849Y63219972D01*
X53476613Y63217680D01*
X53464533Y63215764D01*
X53450034Y63214188D01*
X53432541Y63212913D01*
X53411478Y63211901D01*
X53386271Y63211116D01*
X53356344Y63210519D01*
X53321121Y63210073D01*
X53280029Y63209740D01*
X53232490Y63209482D01*
X53177932Y63209261D01*
X53115777Y63209040D01*
X53080708Y63208914D01*
X52709233Y63207553D01*
X52709233Y62644866D01*
X53068008Y62645479D01*
X53123581Y62645611D01*
X53177577Y62645811D01*
X53229274Y62646071D01*
X53277950Y62646386D01*
X53322884Y62646748D01*
X53363355Y62647150D01*
X53398640Y62647586D01*
X53428019Y62648048D01*
X53450769Y62648530D01*
X53466170Y62649025D01*
X53471233Y62649300D01*
X53552313Y62658802D01*
X53631008Y62675263D01*
X53706666Y62698380D01*
X53778633Y62727848D01*
X53846255Y62763364D01*
X53908879Y62804624D01*
X53965852Y62851325D01*
X54015758Y62902290D01*
X54062031Y62960681D01*
X54102457Y63022976D01*
X54136435Y63087995D01*
X54163366Y63154556D01*
X54182649Y63221479D01*
X54186129Y63237748D01*
X54188329Y63248758D01*
X54190353Y63259000D01*
X54192208Y63268852D01*
X54193901Y63278692D01*
X54195441Y63288898D01*
X54196837Y63299846D01*
X54198096Y63311916D01*
X54199226Y63325484D01*
X54200235Y63340929D01*
X54201131Y63358628D01*
X54201923Y63378958D01*
X54202619Y63402298D01*
X54203226Y63429026D01*
X54203753Y63459518D01*
X54204207Y63494153D01*
X54204598Y63533309D01*
X54204932Y63577362D01*
X54205218Y63626692D01*
X54205464Y63681675D01*
X54205678Y63742689D01*
X54205869Y63810113D01*
X54206043Y63884323D01*
X54206210Y63965698D01*
X54206377Y64054614D01*
X54206553Y64151451D01*
X54206637Y64197441D01*
X54208182Y65045166D01*
X53644965Y65045166D01*
X53643711Y64220725D01*
G36*
X56897058Y65818682D02*
G01*
X56787275Y65818529D01*
X56685610Y65818392D01*
X56591714Y65818262D01*
X56505241Y65818132D01*
X56425840Y65817994D01*
X56353164Y65817838D01*
X56286864Y65817658D01*
X56226591Y65817445D01*
X56171998Y65817190D01*
X56122736Y65816887D01*
X56078456Y65816526D01*
X56038811Y65816100D01*
X56003451Y65815601D01*
X55972028Y65815020D01*
X55944194Y65814350D01*
X55919601Y65813582D01*
X55897899Y65812708D01*
X55878742Y65811721D01*
X55861779Y65810611D01*
X55846663Y65809372D01*
X55833045Y65807994D01*
X55820578Y65806470D01*
X55808912Y65804792D01*
X55797699Y65802951D01*
X55786590Y65800940D01*
X55775238Y65798750D01*
X55763294Y65796374D01*
X55750409Y65793803D01*
X55740299Y65791816D01*
X55642347Y65768562D01*
X55545526Y65737311D01*
X55450887Y65698534D01*
X55359482Y65652700D01*
X55272360Y65600278D01*
X55204144Y65552169D01*
X55128199Y65489398D01*
X55057409Y65420211D01*
X54992111Y65345153D01*
X54932642Y65264769D01*
X54879339Y65179606D01*
X54832539Y65090208D01*
X54792579Y64997122D01*
X54759795Y64900893D01*
X54734526Y64802067D01*
X54731344Y64786752D01*
X54727105Y64765613D01*
X54723352Y64746368D01*
X54720055Y64728386D01*
X54717185Y64711033D01*
X54714712Y64693676D01*
X54712607Y64675682D01*
X54710840Y64656417D01*
X54709381Y64635249D01*
X54708201Y64611544D01*
X54707270Y64584669D01*
X54706559Y64553992D01*
X54706038Y64518878D01*
X54705677Y64478695D01*
X54705448Y64432810D01*
X54705320Y64380589D01*
X54705264Y64321400D01*
X54705250Y64254609D01*
X54705249Y64228133D01*
X54705252Y64159147D01*
X54705277Y64097994D01*
X54705357Y64044038D01*
X54705520Y63996645D01*
X54705795Y63955182D01*
X54706214Y63919013D01*
X54706804Y63887504D01*
X54707597Y63860020D01*
X54708621Y63835928D01*
X54709907Y63814592D01*
X54711484Y63795379D01*
X54713381Y63777653D01*
X54715629Y63760781D01*
X54718257Y63744128D01*
X54721294Y63727060D01*
X54724771Y63708941D01*
X54728718Y63689138D01*
X54730998Y63677800D01*
X54755309Y63578020D01*
X54787677Y63479682D01*
X54827711Y63383648D01*
X54875021Y63290778D01*
X54929218Y63201936D01*
X54976735Y63135046D01*
X54997025Y63110006D01*
X55022438Y63081290D01*
X55051483Y63050376D01*
X55082672Y63018742D01*
X55114514Y62987868D01*
X55145520Y62959230D01*
X55174199Y62934309D01*
X55198433Y62915049D01*
X55286311Y62854718D01*
X55377711Y62801815D01*
X55472200Y62756529D01*
X55569350Y62719047D01*
X55668731Y62689559D01*
X55757306Y62670439D01*
X55770817Y62668002D01*
X55783276Y62665745D01*
X55795031Y62663662D01*
X55806434Y62661744D01*
X55817835Y62659985D01*
X55829583Y62658376D01*
X55842029Y62656911D01*
X55855523Y62655582D01*
X55870415Y62654382D01*
X55887056Y62653302D01*
X55905796Y62652337D01*
X55926985Y62651477D01*
X55950972Y62650717D01*
X55978110Y62650048D01*
X56008746Y62649463D01*
X56043233Y62648955D01*
X56081919Y62648516D01*
X56125156Y62648138D01*
X56173293Y62647815D01*
X56226681Y62647539D01*
X56285669Y62647303D01*
X56350609Y62647098D01*
X56421849Y62646918D01*
X56499741Y62646755D01*
X56584635Y62646603D01*
X56676881Y62646452D01*
X56776828Y62646296D01*
X56884828Y62646128D01*
X56905524Y62646096D01*
X57890833Y62644531D01*
X57890833Y63720133D01*
X57310866Y63720133D01*
X57310866Y63207585D01*
X55945616Y63210575D01*
X55896933Y63219897D01*
X55822204Y63236624D01*
X55754265Y63257102D01*
X55692077Y63281849D01*
X55634603Y63311387D01*
X55580807Y63346234D01*
X55529652Y63386911D01*
X55490191Y63423740D01*
X55439704Y63479630D01*
X55396322Y63539845D01*
X55359978Y63604532D01*
X55330604Y63673839D01*
X55308133Y63747912D01*
X55292497Y63826898D01*
X55287577Y63864958D01*
X55286751Y63877016D01*
X55286008Y63896679D01*
X55285350Y63923112D01*
X55284777Y63955477D01*
X55284289Y63992936D01*
X55283885Y64034652D01*
X55283567Y64079789D01*
X55283334Y64127509D01*
X55283187Y64176974D01*
X55283125Y64227347D01*
X55283149Y64277792D01*
X55283259Y64327471D01*
X55283455Y64375547D01*
X55283738Y64421182D01*
X55284107Y64463539D01*
X55284563Y64501782D01*
X55285106Y64535072D01*
X55285736Y64562573D01*
X55286453Y64583447D01*
X55287257Y64596858D01*
X55287426Y64598550D01*
X55298010Y64669112D01*
X55313727Y64734874D01*
X55335254Y64798235D01*
X55359292Y64853392D01*
X55378133Y64890974D01*
X55396381Y64923150D01*
X55415782Y64952654D01*
X55438080Y64982220D01*
X55453470Y65001003D01*
X55503664Y65054306D01*
X55559928Y65102064D01*
X55621695Y65143988D01*
X55688400Y65179793D01*
X55759475Y65209190D01*
X55834355Y65231891D01*
X55912472Y65247610D01*
X55948624Y65252339D01*
X55958059Y65252923D01*
X55975329Y65253465D01*
X56000479Y65253966D01*
X56033555Y65254426D01*
X56074601Y65254846D01*
X56123663Y65255224D01*
X56180784Y65255562D01*
X56246011Y65255860D01*
X56319387Y65256117D01*
X56400958Y65256335D01*
X56490769Y65256513D01*
X56588865Y65256652D01*
X56695290Y65256751D01*
X56810089Y65256812D01*
X56933307Y65256833D01*
X57890833Y65256833D01*
X57890833Y65820104D01*
X56897058Y65818682D01*
G37*
X56897058Y65818682D02*
X56787275Y65818529D01*
X56685610Y65818392D01*
X56591714Y65818262D01*
X56505241Y65818132D01*
X56425840Y65817994D01*
X56353164Y65817838D01*
X56286864Y65817658D01*
X56226591Y65817445D01*
X56171998Y65817190D01*
X56122736Y65816887D01*
X56078456Y65816526D01*
X56038811Y65816100D01*
X56003451Y65815601D01*
X55972028Y65815020D01*
X55944194Y65814350D01*
X55919601Y65813582D01*
X55897899Y65812708D01*
X55878742Y65811721D01*
X55861779Y65810611D01*
X55846663Y65809372D01*
X55833045Y65807994D01*
X55820578Y65806470D01*
X55808912Y65804792D01*
X55797699Y65802951D01*
X55786590Y65800940D01*
X55775238Y65798750D01*
X55763294Y65796374D01*
X55750409Y65793803D01*
X55740299Y65791816D01*
X55642347Y65768562D01*
X55545526Y65737311D01*
X55450887Y65698534D01*
X55359482Y65652700D01*
X55272360Y65600278D01*
X55204144Y65552169D01*
X55128199Y65489398D01*
X55057409Y65420211D01*
X54992111Y65345153D01*
X54932642Y65264769D01*
X54879339Y65179606D01*
X54832539Y65090208D01*
X54792579Y64997122D01*
X54759795Y64900893D01*
X54734526Y64802067D01*
X54731344Y64786752D01*
X54727105Y64765613D01*
X54723352Y64746368D01*
X54720055Y64728386D01*
X54717185Y64711033D01*
X54714712Y64693676D01*
X54712607Y64675682D01*
X54710840Y64656417D01*
X54709381Y64635249D01*
X54708201Y64611544D01*
X54707270Y64584669D01*
X54706559Y64553992D01*
X54706038Y64518878D01*
X54705677Y64478695D01*
X54705448Y64432810D01*
X54705320Y64380589D01*
X54705264Y64321400D01*
X54705250Y64254609D01*
X54705249Y64228133D01*
X54705252Y64159147D01*
X54705277Y64097994D01*
X54705357Y64044038D01*
X54705520Y63996645D01*
X54705795Y63955182D01*
X54706214Y63919013D01*
X54706804Y63887504D01*
X54707597Y63860020D01*
X54708621Y63835928D01*
X54709907Y63814592D01*
X54711484Y63795379D01*
X54713381Y63777653D01*
X54715629Y63760781D01*
X54718257Y63744128D01*
X54721294Y63727060D01*
X54724771Y63708941D01*
X54728718Y63689138D01*
X54730998Y63677800D01*
X54755309Y63578020D01*
X54787677Y63479682D01*
X54827711Y63383648D01*
X54875021Y63290778D01*
X54929218Y63201936D01*
X54976735Y63135046D01*
X54997025Y63110006D01*
X55022438Y63081290D01*
X55051483Y63050376D01*
X55082672Y63018742D01*
X55114514Y62987868D01*
X55145520Y62959230D01*
X55174199Y62934309D01*
X55198433Y62915049D01*
X55286311Y62854718D01*
X55377711Y62801815D01*
X55472200Y62756529D01*
X55569350Y62719047D01*
X55668731Y62689559D01*
X55757306Y62670439D01*
X55770817Y62668002D01*
X55783276Y62665745D01*
X55795031Y62663662D01*
X55806434Y62661744D01*
X55817835Y62659985D01*
X55829583Y62658376D01*
X55842029Y62656911D01*
X55855523Y62655582D01*
X55870415Y62654382D01*
X55887056Y62653302D01*
X55905796Y62652337D01*
X55926985Y62651477D01*
X55950972Y62650717D01*
X55978110Y62650048D01*
X56008746Y62649463D01*
X56043233Y62648955D01*
X56081919Y62648516D01*
X56125156Y62648138D01*
X56173293Y62647815D01*
X56226681Y62647539D01*
X56285669Y62647303D01*
X56350609Y62647098D01*
X56421849Y62646918D01*
X56499741Y62646755D01*
X56584635Y62646603D01*
X56676881Y62646452D01*
X56776828Y62646296D01*
X56884828Y62646128D01*
X56905524Y62646096D01*
X57890833Y62644531D01*
X57890833Y63720133D01*
X57310866Y63720133D01*
X57310866Y63207585D01*
X55945616Y63210575D01*
X55896933Y63219897D01*
X55822204Y63236624D01*
X55754265Y63257102D01*
X55692077Y63281849D01*
X55634603Y63311387D01*
X55580807Y63346234D01*
X55529652Y63386911D01*
X55490191Y63423740D01*
X55439704Y63479630D01*
X55396322Y63539845D01*
X55359978Y63604532D01*
X55330604Y63673839D01*
X55308133Y63747912D01*
X55292497Y63826898D01*
X55287577Y63864958D01*
X55286751Y63877016D01*
X55286008Y63896679D01*
X55285350Y63923112D01*
X55284777Y63955477D01*
X55284289Y63992936D01*
X55283885Y64034652D01*
X55283567Y64079789D01*
X55283334Y64127509D01*
X55283187Y64176974D01*
X55283125Y64227347D01*
X55283149Y64277792D01*
X55283259Y64327471D01*
X55283455Y64375547D01*
X55283738Y64421182D01*
X55284107Y64463539D01*
X55284563Y64501782D01*
X55285106Y64535072D01*
X55285736Y64562573D01*
X55286453Y64583447D01*
X55287257Y64596858D01*
X55287426Y64598550D01*
X55298010Y64669112D01*
X55313727Y64734874D01*
X55335254Y64798235D01*
X55359292Y64853392D01*
X55378133Y64890974D01*
X55396381Y64923150D01*
X55415782Y64952654D01*
X55438080Y64982220D01*
X55453470Y65001003D01*
X55503664Y65054306D01*
X55559928Y65102064D01*
X55621695Y65143988D01*
X55688400Y65179793D01*
X55759475Y65209190D01*
X55834355Y65231891D01*
X55912472Y65247610D01*
X55948624Y65252339D01*
X55958059Y65252923D01*
X55975329Y65253465D01*
X56000479Y65253966D01*
X56033555Y65254426D01*
X56074601Y65254846D01*
X56123663Y65255224D01*
X56180784Y65255562D01*
X56246011Y65255860D01*
X56319387Y65256117D01*
X56400958Y65256335D01*
X56490769Y65256513D01*
X56588865Y65256652D01*
X56695290Y65256751D01*
X56810089Y65256812D01*
X56933307Y65256833D01*
X57890833Y65256833D01*
X57890833Y65820104D01*
X56897058Y65818682D01*
G36*
X46485174Y65045123D02*
G01*
X46424239Y65045060D01*
X46366285Y65044891D01*
X46311936Y65044624D01*
X46261813Y65044264D01*
X46216538Y65043819D01*
X46176734Y65043297D01*
X46143022Y65042702D01*
X46116025Y65042044D01*
X46096364Y65041328D01*
X46086183Y65040705D01*
X46022934Y65032744D01*
X45957975Y65019903D01*
X45893763Y65002835D01*
X45832760Y64982197D01*
X45777424Y64958642D01*
X45776700Y64958294D01*
X45706262Y64919896D01*
X45640756Y64875108D01*
X45580580Y64824437D01*
X45526130Y64768388D01*
X45477802Y64707469D01*
X45435994Y64642186D01*
X45401103Y64573045D01*
X45373525Y64500553D01*
X45353656Y64425216D01*
X45351801Y64415968D01*
X45349112Y64401533D01*
X45346710Y64387162D01*
X45344584Y64372326D01*
X45342719Y64356496D01*
X45341100Y64339140D01*
X45339715Y64319728D01*
X45338548Y64297732D01*
X45337587Y64272621D01*
X45336817Y64243864D01*
X45336224Y64210932D01*
X45335794Y64173294D01*
X45335514Y64130421D01*
X45335369Y64081783D01*
X45335345Y64026850D01*
X45335429Y63965090D01*
X45335607Y63895976D01*
X45335864Y63818976D01*
X45335893Y63811150D01*
X45336149Y63738935D01*
X45336377Y63674630D01*
X45336605Y63617678D01*
X45336858Y63567520D01*
X45337162Y63523601D01*
X45337545Y63485363D01*
X45338032Y63452249D01*
X45338651Y63423702D01*
X45339426Y63399165D01*
X45340386Y63378081D01*
X45341555Y63359892D01*
X45342960Y63344043D01*
X45344629Y63329974D01*
X45346587Y63317131D01*
X45348860Y63304954D01*
X45351475Y63292888D01*
X45354458Y63280376D01*
X45357836Y63266860D01*
X45361635Y63251782D01*
X45362551Y63248117D01*
X45382031Y63179137D01*
X45404808Y63116438D01*
X45431753Y63058189D01*
X45463737Y63002559D01*
X45501631Y62947718D01*
X45511901Y62934212D01*
X45561247Y62876846D01*
X45616165Y62824783D01*
X45675793Y62778598D01*
X45739270Y62738863D01*
X45805735Y62706154D01*
X45874327Y62681043D01*
X45904149Y62672753D01*
X45921124Y62668542D01*
X45936891Y62664835D01*
X45952096Y62661599D01*
X45967386Y62658797D01*
X45983406Y62656396D01*
X46000802Y62654360D01*
X46020220Y62652654D01*
X46042306Y62651243D01*
X46067706Y62650092D01*
X46097066Y62649167D01*
X46131031Y62648431D01*
X46170247Y62647851D01*
X46215362Y62647391D01*
X46267019Y62647017D01*
X46325865Y62646693D01*
X46390983Y62646391D01*
X46492820Y62645943D01*
X46586539Y62645537D01*
X46672487Y62645172D01*
X46751013Y62644849D01*
X46822464Y62644567D01*
X46887188Y62644326D01*
X46945533Y62644126D01*
X46997847Y62643966D01*
X47044478Y62643848D01*
X47085775Y62643769D01*
X47122084Y62643731D01*
X47153755Y62643734D01*
X47181134Y62643776D01*
X47204571Y62643858D01*
X47224412Y62643980D01*
X47241006Y62644141D01*
X47254700Y62644342D01*
X47265844Y62644583D01*
X47274784Y62644862D01*
X47281869Y62645180D01*
X47287446Y62645538D01*
X47291864Y62645933D01*
X47292532Y62646005D01*
X47355060Y62656037D01*
X47420340Y62672263D01*
X47486314Y62693913D01*
X47550923Y62720214D01*
X47612109Y62750394D01*
X47667813Y62783682D01*
X47677926Y62790514D01*
X47727731Y62829019D01*
X47775297Y62873817D01*
X47819581Y62923538D01*
X47859539Y62976815D01*
X47894128Y63032278D01*
X47922303Y63088559D01*
X47939711Y63133817D01*
X47958902Y63205248D01*
X47970557Y63279397D01*
X47974748Y63355270D01*
X47971548Y63431872D01*
X47961031Y63508206D01*
X47943267Y63583279D01*
X47918331Y63656096D01*
X47898204Y63701969D01*
X47861749Y63768299D01*
X47818462Y63830047D01*
X47768834Y63886889D01*
X47713350Y63938500D01*
X47652499Y63984554D01*
X47586770Y64024726D01*
X47516651Y64058692D01*
X47442629Y64086126D01*
X47365193Y64106702D01*
X47284831Y64120097D01*
X47267606Y64121969D01*
X47254184Y64122840D01*
X47232607Y64123628D01*
X47203186Y64124329D01*
X47166231Y64124939D01*
X47122055Y64125456D01*
X47070967Y64125876D01*
X47013279Y64126195D01*
X46949303Y64126411D01*
X46879348Y64126520D01*
X46843214Y64126533D01*
X46465066Y64126533D01*
X46465066Y63563500D01*
X46845008Y63563412D01*
X46913428Y63563392D01*
X46973920Y63563346D01*
X47027025Y63563245D01*
X47073282Y63563059D01*
X47113230Y63562758D01*
X47147409Y63562314D01*
X47176358Y63561696D01*
X47200617Y63560875D01*
X47220725Y63559821D01*
X47237222Y63558504D01*
X47250647Y63556897D01*
X47261540Y63554967D01*
X47270440Y63552687D01*
X47277887Y63550026D01*
X47284421Y63546956D01*
X47290579Y63543445D01*
X47296904Y63539466D01*
X47298282Y63538581D01*
X47318220Y63523465D01*
X47338607Y63504086D01*
X47357153Y63482922D01*
X47371567Y63462448D01*
X47375744Y63454841D01*
X47379813Y63445858D01*
X47382617Y63437101D01*
X47384388Y63426738D01*
X47385356Y63412939D01*
X47385754Y63393873D01*
X47385816Y63375117D01*
X47385671Y63350599D01*
X47385089Y63332704D01*
X47383855Y63319590D01*
X47381751Y63309416D01*
X47378558Y63300341D01*
X47376424Y63295503D01*
X47364494Y63276325D01*
X47346866Y63256310D01*
X47325776Y63237572D01*
X47303462Y63222224D01*
X47293059Y63216723D01*
X47285462Y63213093D01*
X47278587Y63209821D01*
X47271980Y63206888D01*
X47265187Y63204275D01*
X47257755Y63201963D01*
X47249229Y63199936D01*
X47239156Y63198173D01*
X47227083Y63196656D01*
X47212555Y63195368D01*
X47195119Y63194289D01*
X47174321Y63193401D01*
X47149708Y63192686D01*
X47120825Y63192125D01*
X47087220Y63191699D01*
X47048437Y63191391D01*
X47004024Y63191181D01*
X46953527Y63191051D01*
X46896492Y63190984D01*
X46832466Y63190959D01*
X46760994Y63190959D01*
X46681623Y63190966D01*
X46660409Y63190967D01*
X46578017Y63190963D01*
X46503643Y63190964D01*
X46436839Y63190991D01*
X46377155Y63191063D01*
X46324143Y63191200D01*
X46277355Y63191421D01*
X46236341Y63191747D01*
X46200654Y63192197D01*
X46169844Y63192790D01*
X46143464Y63193547D01*
X46121063Y63194487D01*
X46102194Y63195631D01*
X46086408Y63196997D01*
X46073256Y63198606D01*
X46062290Y63200477D01*
X46053061Y63202630D01*
X46045120Y63205085D01*
X46038020Y63207861D01*
X46031310Y63210979D01*
X46024543Y63214458D01*
X46017269Y63218318D01*
X46015264Y63219374D01*
X45983749Y63240424D01*
X45955658Y63268142D01*
X45932106Y63301048D01*
X45914211Y63337663D01*
X45905691Y63364533D01*
X45904750Y63369674D01*
X45903912Y63377380D01*
X45903171Y63388098D01*
X45902522Y63402277D01*
X45901960Y63420364D01*
X45901480Y63442807D01*
X45901075Y63470054D01*
X45900740Y63502551D01*
X45900471Y63540748D01*
X45900262Y63585091D01*
X45900107Y63636029D01*
X45900002Y63694008D01*
X45899940Y63759477D01*
X45899917Y63832884D01*
X45899916Y63847133D01*
X45899916Y64306450D01*
X45910903Y64338613D01*
X45929056Y64379710D01*
X45953485Y64415130D01*
X45984162Y64444840D01*
X46021059Y64468809D01*
X46026916Y64471802D01*
X46036215Y64476387D01*
X46044823Y64480424D01*
X46053317Y64483947D01*
X46062274Y64486992D01*
X46072271Y64489594D01*
X46083884Y64491787D01*
X46097690Y64493608D01*
X46114267Y64495090D01*
X46134189Y64496269D01*
X46158035Y64497180D01*
X46186381Y64497858D01*
X46219803Y64498339D01*
X46258879Y64498656D01*
X46304185Y64498845D01*
X46356297Y64498941D01*
X46415793Y64498979D01*
X46474591Y64498993D01*
X46833366Y64499066D01*
X46833366Y65045166D01*
X46485174Y65045123D01*
G37*
X46485174Y65045123D02*
X46424239Y65045060D01*
X46366285Y65044891D01*
X46311936Y65044624D01*
X46261813Y65044264D01*
X46216538Y65043819D01*
X46176734Y65043297D01*
X46143022Y65042702D01*
X46116025Y65042044D01*
X46096364Y65041328D01*
X46086183Y65040705D01*
X46022934Y65032744D01*
X45957975Y65019903D01*
X45893763Y65002835D01*
X45832760Y64982197D01*
X45777424Y64958642D01*
X45776700Y64958294D01*
X45706262Y64919896D01*
X45640756Y64875108D01*
X45580580Y64824437D01*
X45526130Y64768388D01*
X45477802Y64707469D01*
X45435994Y64642186D01*
X45401103Y64573045D01*
X45373525Y64500553D01*
X45353656Y64425216D01*
X45351801Y64415968D01*
X45349112Y64401533D01*
X45346710Y64387162D01*
X45344584Y64372326D01*
X45342719Y64356496D01*
X45341100Y64339140D01*
X45339715Y64319728D01*
X45338548Y64297732D01*
X45337587Y64272621D01*
X45336817Y64243864D01*
X45336224Y64210932D01*
X45335794Y64173294D01*
X45335514Y64130421D01*
X45335369Y64081783D01*
X45335345Y64026850D01*
X45335429Y63965090D01*
X45335607Y63895976D01*
X45335864Y63818976D01*
X45335893Y63811150D01*
X45336149Y63738935D01*
X45336377Y63674630D01*
X45336605Y63617678D01*
X45336858Y63567520D01*
X45337162Y63523601D01*
X45337545Y63485363D01*
X45338032Y63452249D01*
X45338651Y63423702D01*
X45339426Y63399165D01*
X45340386Y63378081D01*
X45341555Y63359892D01*
X45342960Y63344043D01*
X45344629Y63329974D01*
X45346587Y63317131D01*
X45348860Y63304954D01*
X45351475Y63292888D01*
X45354458Y63280376D01*
X45357836Y63266860D01*
X45361635Y63251782D01*
X45362551Y63248117D01*
X45382031Y63179137D01*
X45404808Y63116438D01*
X45431753Y63058189D01*
X45463737Y63002559D01*
X45501631Y62947718D01*
X45511901Y62934212D01*
X45561247Y62876846D01*
X45616165Y62824783D01*
X45675793Y62778598D01*
X45739270Y62738863D01*
X45805735Y62706154D01*
X45874327Y62681043D01*
X45904149Y62672753D01*
X45921124Y62668542D01*
X45936891Y62664835D01*
X45952096Y62661599D01*
X45967386Y62658797D01*
X45983406Y62656396D01*
X46000802Y62654360D01*
X46020220Y62652654D01*
X46042306Y62651243D01*
X46067706Y62650092D01*
X46097066Y62649167D01*
X46131031Y62648431D01*
X46170247Y62647851D01*
X46215362Y62647391D01*
X46267019Y62647017D01*
X46325865Y62646693D01*
X46390983Y62646391D01*
X46492820Y62645943D01*
X46586539Y62645537D01*
X46672487Y62645172D01*
X46751013Y62644849D01*
X46822464Y62644567D01*
X46887188Y62644326D01*
X46945533Y62644126D01*
X46997847Y62643966D01*
X47044478Y62643848D01*
X47085775Y62643769D01*
X47122084Y62643731D01*
X47153755Y62643734D01*
X47181134Y62643776D01*
X47204571Y62643858D01*
X47224412Y62643980D01*
X47241006Y62644141D01*
X47254700Y62644342D01*
X47265844Y62644583D01*
X47274784Y62644862D01*
X47281869Y62645180D01*
X47287446Y62645538D01*
X47291864Y62645933D01*
X47292532Y62646005D01*
X47355060Y62656037D01*
X47420340Y62672263D01*
X47486314Y62693913D01*
X47550923Y62720214D01*
X47612109Y62750394D01*
X47667813Y62783682D01*
X47677926Y62790514D01*
X47727731Y62829019D01*
X47775297Y62873817D01*
X47819581Y62923538D01*
X47859539Y62976815D01*
X47894128Y63032278D01*
X47922303Y63088559D01*
X47939711Y63133817D01*
X47958902Y63205248D01*
X47970557Y63279397D01*
X47974748Y63355270D01*
X47971548Y63431872D01*
X47961031Y63508206D01*
X47943267Y63583279D01*
X47918331Y63656096D01*
X47898204Y63701969D01*
X47861749Y63768299D01*
X47818462Y63830047D01*
X47768834Y63886889D01*
X47713350Y63938500D01*
X47652499Y63984554D01*
X47586770Y64024726D01*
X47516651Y64058692D01*
X47442629Y64086126D01*
X47365193Y64106702D01*
X47284831Y64120097D01*
X47267606Y64121969D01*
X47254184Y64122840D01*
X47232607Y64123628D01*
X47203186Y64124329D01*
X47166231Y64124939D01*
X47122055Y64125456D01*
X47070967Y64125876D01*
X47013279Y64126195D01*
X46949303Y64126411D01*
X46879348Y64126520D01*
X46843214Y64126533D01*
X46465066Y64126533D01*
X46465066Y63563500D01*
X46845008Y63563412D01*
X46913428Y63563392D01*
X46973920Y63563346D01*
X47027025Y63563245D01*
X47073282Y63563059D01*
X47113230Y63562758D01*
X47147409Y63562314D01*
X47176358Y63561696D01*
X47200617Y63560875D01*
X47220725Y63559821D01*
X47237222Y63558504D01*
X47250647Y63556897D01*
X47261540Y63554967D01*
X47270440Y63552687D01*
X47277887Y63550026D01*
X47284421Y63546956D01*
X47290579Y63543445D01*
X47296904Y63539466D01*
X47298282Y63538581D01*
X47318220Y63523465D01*
X47338607Y63504086D01*
X47357153Y63482922D01*
X47371567Y63462448D01*
X47375744Y63454841D01*
X47379813Y63445858D01*
X47382617Y63437101D01*
X47384388Y63426738D01*
X47385356Y63412939D01*
X47385754Y63393873D01*
X47385816Y63375117D01*
X47385671Y63350599D01*
X47385089Y63332704D01*
X47383855Y63319590D01*
X47381751Y63309416D01*
X47378558Y63300341D01*
X47376424Y63295503D01*
X47364494Y63276325D01*
X47346866Y63256310D01*
X47325776Y63237572D01*
X47303462Y63222224D01*
X47293059Y63216723D01*
X47285462Y63213093D01*
X47278587Y63209821D01*
X47271980Y63206888D01*
X47265187Y63204275D01*
X47257755Y63201963D01*
X47249229Y63199936D01*
X47239156Y63198173D01*
X47227083Y63196656D01*
X47212555Y63195368D01*
X47195119Y63194289D01*
X47174321Y63193401D01*
X47149708Y63192686D01*
X47120825Y63192125D01*
X47087220Y63191699D01*
X47048437Y63191391D01*
X47004024Y63191181D01*
X46953527Y63191051D01*
X46896492Y63190984D01*
X46832466Y63190959D01*
X46760994Y63190959D01*
X46681623Y63190966D01*
X46660409Y63190967D01*
X46578017Y63190963D01*
X46503643Y63190964D01*
X46436839Y63190991D01*
X46377155Y63191063D01*
X46324143Y63191200D01*
X46277355Y63191421D01*
X46236341Y63191747D01*
X46200654Y63192197D01*
X46169844Y63192790D01*
X46143464Y63193547D01*
X46121063Y63194487D01*
X46102194Y63195631D01*
X46086408Y63196997D01*
X46073256Y63198606D01*
X46062290Y63200477D01*
X46053061Y63202630D01*
X46045120Y63205085D01*
X46038020Y63207861D01*
X46031310Y63210979D01*
X46024543Y63214458D01*
X46017269Y63218318D01*
X46015264Y63219374D01*
X45983749Y63240424D01*
X45955658Y63268142D01*
X45932106Y63301048D01*
X45914211Y63337663D01*
X45905691Y63364533D01*
X45904750Y63369674D01*
X45903912Y63377380D01*
X45903171Y63388098D01*
X45902522Y63402277D01*
X45901960Y63420364D01*
X45901480Y63442807D01*
X45901075Y63470054D01*
X45900740Y63502551D01*
X45900471Y63540748D01*
X45900262Y63585091D01*
X45900107Y63636029D01*
X45900002Y63694008D01*
X45899940Y63759477D01*
X45899917Y63832884D01*
X45899916Y63847133D01*
X45899916Y64306450D01*
X45910903Y64338613D01*
X45929056Y64379710D01*
X45953485Y64415130D01*
X45984162Y64444840D01*
X46021059Y64468809D01*
X46026916Y64471802D01*
X46036215Y64476387D01*
X46044823Y64480424D01*
X46053317Y64483947D01*
X46062274Y64486992D01*
X46072271Y64489594D01*
X46083884Y64491787D01*
X46097690Y64493608D01*
X46114267Y64495090D01*
X46134189Y64496269D01*
X46158035Y64497180D01*
X46186381Y64497858D01*
X46219803Y64498339D01*
X46258879Y64498656D01*
X46304185Y64498845D01*
X46356297Y64498941D01*
X46415793Y64498979D01*
X46474591Y64498993D01*
X46833366Y64499066D01*
X46833366Y65045166D01*
X46485174Y65045123D01*
G36*
X36533666Y62221533D02*
G01*
X36673366Y62221533D01*
X36673366Y62327366D01*
X36533666Y62327366D01*
X36533666Y62221533D01*
G37*
X36533666Y62221533D02*
X36673366Y62221533D01*
X36673366Y62327366D01*
X36533666Y62327366D01*
X36533666Y62221533D01*
G36*
X41562866Y62221533D02*
G01*
X41681399Y62221533D01*
X41681399Y62327366D01*
X41562866Y62327366D01*
X41562866Y62221533D01*
G37*
X41562866Y62221533D02*
X41681399Y62221533D01*
X41681399Y62327366D01*
X41562866Y62327366D01*
X41562866Y62221533D01*
G36*
X51545101Y63697908D02*
G01*
X51545118Y63558268D01*
X51545162Y63425521D01*
X51545232Y63299757D01*
X51545329Y63181069D01*
X51545451Y63069548D01*
X51545599Y62965285D01*
X51545772Y62868373D01*
X51545971Y62778901D01*
X51546194Y62696963D01*
X51546441Y62622648D01*
X51546713Y62556050D01*
X51547009Y62497259D01*
X51547328Y62446366D01*
X51547671Y62403463D01*
X51548036Y62368643D01*
X51548425Y62341995D01*
X51548836Y62323611D01*
X51549269Y62313584D01*
X51549363Y62312550D01*
X51562719Y62227364D01*
X51583416Y62146108D01*
X51611382Y62068957D01*
X51646545Y61996083D01*
X51688834Y61927660D01*
X51730010Y61873513D01*
X51778672Y61821430D01*
X51834108Y61773604D01*
X51895579Y61730395D01*
X51962343Y61692161D01*
X52033659Y61659261D01*
X52108788Y61632053D01*
X52186987Y61610898D01*
X52267516Y61596154D01*
X52313416Y61590826D01*
X52324902Y61590174D01*
X52344490Y61589566D01*
X52371817Y61589006D01*
X52406519Y61588496D01*
X52448233Y61588038D01*
X52496594Y61587636D01*
X52551239Y61587292D01*
X52611804Y61587009D01*
X52677925Y61586789D01*
X52749239Y61586636D01*
X52825381Y61586553D01*
X52877508Y61586537D01*
X53395033Y61586533D01*
X53395033Y62166198D01*
X52849991Y62167594D01*
X52770589Y62167803D01*
X52699205Y62168006D01*
X52635388Y62168210D01*
X52578691Y62168424D01*
X52528663Y62168652D01*
X52484856Y62168903D01*
X52446820Y62169184D01*
X52414106Y62169502D01*
X52386264Y62169863D01*
X52362846Y62170276D01*
X52343403Y62170746D01*
X52327484Y62171281D01*
X52314641Y62171888D01*
X52304425Y62172574D01*
X52296386Y62173346D01*
X52290074Y62174211D01*
X52285042Y62175177D01*
X52280839Y62176249D01*
X52279816Y62176550D01*
X52238628Y62192519D01*
X52204051Y62213742D01*
X52175921Y62240396D01*
X52154075Y62272661D01*
X52138346Y62310713D01*
X52131712Y62336713D01*
X52131077Y62340402D01*
X52130483Y62345244D01*
X52129928Y62351516D01*
X52129413Y62359494D01*
X52128934Y62369455D01*
X52128491Y62381676D01*
X52128082Y62396433D01*
X52127706Y62414002D01*
X52127361Y62434661D01*
X52127047Y62458686D01*
X52126762Y62486353D01*
X52126505Y62517940D01*
X52126273Y62553722D01*
X52126067Y62593976D01*
X52125884Y62638980D01*
X52125723Y62689008D01*
X52125583Y62744339D01*
X52125463Y62805249D01*
X52125361Y62872014D01*
X52125275Y62944910D01*
X52125205Y63024216D01*
X52125149Y63110206D01*
X52125106Y63203158D01*
X52125074Y63303348D01*
X52125052Y63411053D01*
X52125039Y63526550D01*
X52125033Y63650114D01*
X52125033Y65045166D01*
X51545066Y65045166D01*
X51545101Y63697908D01*
G37*
X51545101Y63697908D02*
X51545118Y63558268D01*
X51545162Y63425521D01*
X51545232Y63299757D01*
X51545329Y63181069D01*
X51545451Y63069548D01*
X51545599Y62965285D01*
X51545772Y62868373D01*
X51545971Y62778901D01*
X51546194Y62696963D01*
X51546441Y62622648D01*
X51546713Y62556050D01*
X51547009Y62497259D01*
X51547328Y62446366D01*
X51547671Y62403463D01*
X51548036Y62368643D01*
X51548425Y62341995D01*
X51548836Y62323611D01*
X51549269Y62313584D01*
X51549363Y62312550D01*
X51562719Y62227364D01*
X51583416Y62146108D01*
X51611382Y62068957D01*
X51646545Y61996083D01*
X51688834Y61927660D01*
X51730010Y61873513D01*
X51778672Y61821430D01*
X51834108Y61773604D01*
X51895579Y61730395D01*
X51962343Y61692161D01*
X52033659Y61659261D01*
X52108788Y61632053D01*
X52186987Y61610898D01*
X52267516Y61596154D01*
X52313416Y61590826D01*
X52324902Y61590174D01*
X52344490Y61589566D01*
X52371817Y61589006D01*
X52406519Y61588496D01*
X52448233Y61588038D01*
X52496594Y61587636D01*
X52551239Y61587292D01*
X52611804Y61587009D01*
X52677925Y61586789D01*
X52749239Y61586636D01*
X52825381Y61586553D01*
X52877508Y61586537D01*
X53395033Y61586533D01*
X53395033Y62166198D01*
X52849991Y62167594D01*
X52770589Y62167803D01*
X52699205Y62168006D01*
X52635388Y62168210D01*
X52578691Y62168424D01*
X52528663Y62168652D01*
X52484856Y62168903D01*
X52446820Y62169184D01*
X52414106Y62169502D01*
X52386264Y62169863D01*
X52362846Y62170276D01*
X52343403Y62170746D01*
X52327484Y62171281D01*
X52314641Y62171888D01*
X52304425Y62172574D01*
X52296386Y62173346D01*
X52290074Y62174211D01*
X52285042Y62175177D01*
X52280839Y62176249D01*
X52279816Y62176550D01*
X52238628Y62192519D01*
X52204051Y62213742D01*
X52175921Y62240396D01*
X52154075Y62272661D01*
X52138346Y62310713D01*
X52131712Y62336713D01*
X52131077Y62340402D01*
X52130483Y62345244D01*
X52129928Y62351516D01*
X52129413Y62359494D01*
X52128934Y62369455D01*
X52128491Y62381676D01*
X52128082Y62396433D01*
X52127706Y62414002D01*
X52127361Y62434661D01*
X52127047Y62458686D01*
X52126762Y62486353D01*
X52126505Y62517940D01*
X52126273Y62553722D01*
X52126067Y62593976D01*
X52125884Y62638980D01*
X52125723Y62689008D01*
X52125583Y62744339D01*
X52125463Y62805249D01*
X52125361Y62872014D01*
X52125275Y62944910D01*
X52125205Y63024216D01*
X52125149Y63110206D01*
X52125106Y63203158D01*
X52125074Y63303348D01*
X52125052Y63411053D01*
X52125039Y63526550D01*
X52125033Y63650114D01*
X52125033Y65045166D01*
X51545066Y65045166D01*
X51545101Y63697908D01*
G36*
X34594800Y61976000D02*
G01*
X34755148Y61976000D01*
X34797772Y61975992D01*
X34832685Y61975897D01*
X34860641Y61975608D01*
X34882395Y61975016D01*
X34898701Y61974015D01*
X34910315Y61972496D01*
X34917992Y61970353D01*
X34922485Y61967477D01*
X34924551Y61963762D01*
X34924943Y61959099D01*
X34924418Y61953382D01*
X34924247Y61951914D01*
X34922883Y61940016D01*
X34789296Y61937900D01*
X34655708Y61935783D01*
X34623414Y61919814D01*
X34591496Y61899492D01*
X34565063Y61873287D01*
X34544644Y61842175D01*
X34530764Y61807136D01*
X34523952Y61769148D01*
X34524090Y61735533D01*
X34531237Y61696719D01*
X34545480Y61662460D01*
X34566647Y61632967D01*
X34594566Y61608453D01*
X34629064Y61589130D01*
X34649198Y61581322D01*
X34656198Y61579043D01*
X34663060Y61577152D01*
X34670635Y61575607D01*
X34679771Y61574364D01*
X34691321Y61573382D01*
X34706133Y61572618D01*
X34725059Y61572029D01*
X34748949Y61571572D01*
X34778654Y61571206D01*
X34815023Y61570887D01*
X34858906Y61570572D01*
X34864675Y61570533D01*
X35052000Y61569267D01*
X35052000Y61709300D01*
X34670615Y61709300D01*
X34660224Y61719691D01*
X34653536Y61728398D01*
X34650456Y61739103D01*
X34649833Y61751766D01*
X34650681Y61766200D01*
X34654151Y61776086D01*
X34661636Y61785251D01*
X34662207Y61785825D01*
X34674582Y61798200D01*
X34786513Y61798200D01*
X34817808Y61798361D01*
X34847498Y61798815D01*
X34874164Y61799517D01*
X34896389Y61800422D01*
X34912756Y61801484D01*
X34920937Y61802466D01*
X34955430Y61812873D01*
X34985695Y61829657D01*
X35011044Y61851859D01*
X35030789Y61878519D01*
X35044244Y61908679D01*
X35050721Y61941379D01*
X35049532Y61975659D01*
X35048676Y61980742D01*
X35038610Y62015312D01*
X35022360Y62044109D01*
X34999952Y62067100D01*
X34971412Y62084256D01*
X34950281Y62092060D01*
X34943224Y62093808D01*
X34934407Y62095234D01*
X34922968Y62096368D01*
X34908046Y62097242D01*
X34888782Y62097885D01*
X34864313Y62098328D01*
X34833780Y62098602D01*
X34796322Y62098738D01*
X34761248Y62098766D01*
X34594800Y62098766D01*
X34594800Y61976000D01*
G37*
X34594800Y61976000D02*
X34755148Y61976000D01*
X34797772Y61975992D01*
X34832685Y61975897D01*
X34860641Y61975608D01*
X34882395Y61975016D01*
X34898701Y61974015D01*
X34910315Y61972496D01*
X34917992Y61970353D01*
X34922485Y61967477D01*
X34924551Y61963762D01*
X34924943Y61959099D01*
X34924418Y61953382D01*
X34924247Y61951914D01*
X34922883Y61940016D01*
X34789296Y61937900D01*
X34655708Y61935783D01*
X34623414Y61919814D01*
X34591496Y61899492D01*
X34565063Y61873287D01*
X34544644Y61842175D01*
X34530764Y61807136D01*
X34523952Y61769148D01*
X34524090Y61735533D01*
X34531237Y61696719D01*
X34545480Y61662460D01*
X34566647Y61632967D01*
X34594566Y61608453D01*
X34629064Y61589130D01*
X34649198Y61581322D01*
X34656198Y61579043D01*
X34663060Y61577152D01*
X34670635Y61575607D01*
X34679771Y61574364D01*
X34691321Y61573382D01*
X34706133Y61572618D01*
X34725059Y61572029D01*
X34748949Y61571572D01*
X34778654Y61571206D01*
X34815023Y61570887D01*
X34858906Y61570572D01*
X34864675Y61570533D01*
X35052000Y61569267D01*
X35052000Y61709300D01*
X34670615Y61709300D01*
X34660224Y61719691D01*
X34653536Y61728398D01*
X34650456Y61739103D01*
X34649833Y61751766D01*
X34650681Y61766200D01*
X34654151Y61776086D01*
X34661636Y61785251D01*
X34662207Y61785825D01*
X34674582Y61798200D01*
X34786513Y61798200D01*
X34817808Y61798361D01*
X34847498Y61798815D01*
X34874164Y61799517D01*
X34896389Y61800422D01*
X34912756Y61801484D01*
X34920937Y61802466D01*
X34955430Y61812873D01*
X34985695Y61829657D01*
X35011044Y61851859D01*
X35030789Y61878519D01*
X35044244Y61908679D01*
X35050721Y61941379D01*
X35049532Y61975659D01*
X35048676Y61980742D01*
X35038610Y62015312D01*
X35022360Y62044109D01*
X34999952Y62067100D01*
X34971412Y62084256D01*
X34950281Y62092060D01*
X34943224Y62093808D01*
X34934407Y62095234D01*
X34922968Y62096368D01*
X34908046Y62097242D01*
X34888782Y62097885D01*
X34864313Y62098328D01*
X34833780Y62098602D01*
X34796322Y62098738D01*
X34761248Y62098766D01*
X34594800Y62098766D01*
X34594800Y61976000D01*
G36*
X35592523Y62098165D02*
G01*
X35556428Y62097975D01*
X35512752Y62097680D01*
X35507083Y62097639D01*
X35459588Y62097277D01*
X35419709Y62096862D01*
X35386596Y62096297D01*
X35359398Y62095486D01*
X35337265Y62094331D01*
X35319348Y62092738D01*
X35304794Y62090608D01*
X35292755Y62087846D01*
X35282379Y62084355D01*
X35272816Y62080038D01*
X35263217Y62074799D01*
X35253170Y62068808D01*
X35218372Y62042862D01*
X35188931Y62010826D01*
X35165710Y61973785D01*
X35152581Y61942439D01*
X35150250Y61935182D01*
X35148331Y61927987D01*
X35146775Y61919958D01*
X35145535Y61910198D01*
X35144562Y61897809D01*
X35143809Y61881897D01*
X35143227Y61861563D01*
X35142768Y61835911D01*
X35142384Y61804044D01*
X35142028Y61765066D01*
X35141840Y61742108D01*
X35140461Y61569600D01*
X35280600Y61569600D01*
X35280692Y61737875D01*
X35280740Y61782897D01*
X35280910Y61820283D01*
X35281323Y61850861D01*
X35282099Y61875462D01*
X35283359Y61894914D01*
X35285224Y61910049D01*
X35287814Y61921695D01*
X35291249Y61930682D01*
X35295652Y61937839D01*
X35301141Y61943998D01*
X35307838Y61949986D01*
X35312041Y61953476D01*
X35320072Y61959675D01*
X35328182Y61964626D01*
X35337404Y61968466D01*
X35348771Y61971336D01*
X35363315Y61973374D01*
X35382069Y61974720D01*
X35406066Y61975513D01*
X35436339Y61975893D01*
X35473921Y61975999D01*
X35478999Y61976000D01*
X35598100Y61976000D01*
X35598100Y61569600D01*
X35737800Y61569600D01*
X35737784Y61811958D01*
X35737771Y61863406D01*
X35737727Y61907071D01*
X35737627Y61943637D01*
X35737451Y61973787D01*
X35737174Y61998204D01*
X35736775Y62017573D01*
X35736231Y62032578D01*
X35735520Y62043901D01*
X35734620Y62052227D01*
X35733507Y62058238D01*
X35732159Y62062620D01*
X35730554Y62066055D01*
X35729356Y62068114D01*
X35719629Y62080093D01*
X35707655Y62090119D01*
X35707147Y62090439D01*
X35703581Y62092479D01*
X35699574Y62094157D01*
X35694331Y62095502D01*
X35687060Y62096541D01*
X35676968Y62097305D01*
X35663261Y62097820D01*
X35645147Y62098117D01*
X35621832Y62098222D01*
X35592523Y62098165D01*
G37*
X35592523Y62098165D02*
X35556428Y62097975D01*
X35512752Y62097680D01*
X35507083Y62097639D01*
X35459588Y62097277D01*
X35419709Y62096862D01*
X35386596Y62096297D01*
X35359398Y62095486D01*
X35337265Y62094331D01*
X35319348Y62092738D01*
X35304794Y62090608D01*
X35292755Y62087846D01*
X35282379Y62084355D01*
X35272816Y62080038D01*
X35263217Y62074799D01*
X35253170Y62068808D01*
X35218372Y62042862D01*
X35188931Y62010826D01*
X35165710Y61973785D01*
X35152581Y61942439D01*
X35150250Y61935182D01*
X35148331Y61927987D01*
X35146775Y61919958D01*
X35145535Y61910198D01*
X35144562Y61897809D01*
X35143809Y61881897D01*
X35143227Y61861563D01*
X35142768Y61835911D01*
X35142384Y61804044D01*
X35142028Y61765066D01*
X35141840Y61742108D01*
X35140461Y61569600D01*
X35280600Y61569600D01*
X35280692Y61737875D01*
X35280740Y61782897D01*
X35280910Y61820283D01*
X35281323Y61850861D01*
X35282099Y61875462D01*
X35283359Y61894914D01*
X35285224Y61910049D01*
X35287814Y61921695D01*
X35291249Y61930682D01*
X35295652Y61937839D01*
X35301141Y61943998D01*
X35307838Y61949986D01*
X35312041Y61953476D01*
X35320072Y61959675D01*
X35328182Y61964626D01*
X35337404Y61968466D01*
X35348771Y61971336D01*
X35363315Y61973374D01*
X35382069Y61974720D01*
X35406066Y61975513D01*
X35436339Y61975893D01*
X35473921Y61975999D01*
X35478999Y61976000D01*
X35598100Y61976000D01*
X35598100Y61569600D01*
X35737800Y61569600D01*
X35737784Y61811958D01*
X35737771Y61863406D01*
X35737727Y61907071D01*
X35737627Y61943637D01*
X35737451Y61973787D01*
X35737174Y61998204D01*
X35736775Y62017573D01*
X35736231Y62032578D01*
X35735520Y62043901D01*
X35734620Y62052227D01*
X35733507Y62058238D01*
X35732159Y62062620D01*
X35730554Y62066055D01*
X35729356Y62068114D01*
X35719629Y62080093D01*
X35707655Y62090119D01*
X35707147Y62090439D01*
X35703581Y62092479D01*
X35699574Y62094157D01*
X35694331Y62095502D01*
X35687060Y62096541D01*
X35676968Y62097305D01*
X35663261Y62097820D01*
X35645147Y62098117D01*
X35621832Y62098222D01*
X35592523Y62098165D01*
G36*
X36124373Y62098077D02*
G01*
X36119267Y62098032D01*
X35968516Y62096650D01*
X35940799Y62083515D01*
X35910143Y62066005D01*
X35886588Y62045366D01*
X35868956Y62020248D01*
X35856073Y61989302D01*
X35854678Y61984756D01*
X35852633Y61976461D01*
X35851025Y61966272D01*
X35849806Y61953156D01*
X35848929Y61936079D01*
X35848346Y61914007D01*
X35848011Y61885908D01*
X35847875Y61850748D01*
X35847866Y61836194D01*
X35847909Y61799660D01*
X35848077Y61770506D01*
X35848432Y61747642D01*
X35849033Y61729983D01*
X35849943Y61716439D01*
X35851220Y61705925D01*
X35852927Y61697352D01*
X35855123Y61689633D01*
X35856226Y61686326D01*
X35871022Y61654378D01*
X35891811Y61627658D01*
X35918989Y61605833D01*
X35952948Y61588570D01*
X35983873Y61578201D01*
X35993585Y61575695D01*
X36003296Y61573729D01*
X36014159Y61572244D01*
X36027324Y61571177D01*
X36043943Y61570468D01*
X36065167Y61570055D01*
X36092147Y61569877D01*
X36126035Y61569873D01*
X36139881Y61569901D01*
X36177406Y61570061D01*
X36207545Y61570375D01*
X36231380Y61570899D01*
X36249991Y61571687D01*
X36264458Y61572794D01*
X36275862Y61574274D01*
X36285284Y61576182D01*
X36290250Y61577502D01*
X36328244Y61592216D01*
X36360728Y61612671D01*
X36387187Y61638314D01*
X36407110Y61668593D01*
X36419981Y61702956D01*
X36423512Y61720793D01*
X36424774Y61733850D01*
X36425882Y61753579D01*
X36426774Y61778189D01*
X36427023Y61789490D01*
X36304770Y61789490D01*
X36304539Y61770222D01*
X36303926Y61756079D01*
X36302876Y61745948D01*
X36301334Y61738716D01*
X36299246Y61733270D01*
X36298593Y61731985D01*
X36291186Y61721582D01*
X36282868Y61714506D01*
X36282422Y61714280D01*
X36275389Y61712971D01*
X36260409Y61711851D01*
X36238001Y61710935D01*
X36208684Y61710240D01*
X36172976Y61709783D01*
X36134741Y61709586D01*
X35996166Y61709300D01*
X35982341Y61721645D01*
X35968516Y61733991D01*
X35967350Y61834887D01*
X35967035Y61867299D01*
X35966974Y61892398D01*
X35967231Y61911334D01*
X35967870Y61925260D01*
X35968952Y61935325D01*
X35970542Y61942681D01*
X35972702Y61948480D01*
X35973700Y61950541D01*
X35977274Y61957218D01*
X35981085Y61962614D01*
X35986013Y61966858D01*
X35992936Y61970077D01*
X36002735Y61972402D01*
X36016288Y61973959D01*
X36034476Y61974877D01*
X36058177Y61975286D01*
X36088271Y61975313D01*
X36125638Y61975086D01*
X36140933Y61974968D01*
X36279484Y61973883D01*
X36302950Y61950423D01*
X36304304Y61847853D01*
X36304673Y61814996D01*
X36304770Y61789490D01*
X36427023Y61789490D01*
X36427386Y61805885D01*
X36427657Y61834874D01*
X36427665Y61840533D01*
X36427468Y61869566D01*
X36426917Y61897655D01*
X36426075Y61923008D01*
X36425005Y61943832D01*
X36423768Y61958332D01*
X36423512Y61960273D01*
X36414318Y61996312D01*
X36398160Y62027972D01*
X36375686Y62054580D01*
X36347543Y62075462D01*
X36314381Y62089943D01*
X36293848Y62095009D01*
X36282553Y62096211D01*
X36263517Y62097154D01*
X36237459Y62097824D01*
X36205102Y62098210D01*
X36167166Y62098298D01*
X36124373Y62098077D01*
G37*
X36124373Y62098077D02*
X36119267Y62098032D01*
X35968516Y62096650D01*
X35940799Y62083515D01*
X35910143Y62066005D01*
X35886588Y62045366D01*
X35868956Y62020248D01*
X35856073Y61989302D01*
X35854678Y61984756D01*
X35852633Y61976461D01*
X35851025Y61966272D01*
X35849806Y61953156D01*
X35848929Y61936079D01*
X35848346Y61914007D01*
X35848011Y61885908D01*
X35847875Y61850748D01*
X35847866Y61836194D01*
X35847909Y61799660D01*
X35848077Y61770506D01*
X35848432Y61747642D01*
X35849033Y61729983D01*
X35849943Y61716439D01*
X35851220Y61705925D01*
X35852927Y61697352D01*
X35855123Y61689633D01*
X35856226Y61686326D01*
X35871022Y61654378D01*
X35891811Y61627658D01*
X35918989Y61605833D01*
X35952948Y61588570D01*
X35983873Y61578201D01*
X35993585Y61575695D01*
X36003296Y61573729D01*
X36014159Y61572244D01*
X36027324Y61571177D01*
X36043943Y61570468D01*
X36065167Y61570055D01*
X36092147Y61569877D01*
X36126035Y61569873D01*
X36139881Y61569901D01*
X36177406Y61570061D01*
X36207545Y61570375D01*
X36231380Y61570899D01*
X36249991Y61571687D01*
X36264458Y61572794D01*
X36275862Y61574274D01*
X36285284Y61576182D01*
X36290250Y61577502D01*
X36328244Y61592216D01*
X36360728Y61612671D01*
X36387187Y61638314D01*
X36407110Y61668593D01*
X36419981Y61702956D01*
X36423512Y61720793D01*
X36424774Y61733850D01*
X36425882Y61753579D01*
X36426774Y61778189D01*
X36427023Y61789490D01*
X36304770Y61789490D01*
X36304539Y61770222D01*
X36303926Y61756079D01*
X36302876Y61745948D01*
X36301334Y61738716D01*
X36299246Y61733270D01*
X36298593Y61731985D01*
X36291186Y61721582D01*
X36282868Y61714506D01*
X36282422Y61714280D01*
X36275389Y61712971D01*
X36260409Y61711851D01*
X36238001Y61710935D01*
X36208684Y61710240D01*
X36172976Y61709783D01*
X36134741Y61709586D01*
X35996166Y61709300D01*
X35982341Y61721645D01*
X35968516Y61733991D01*
X35967350Y61834887D01*
X35967035Y61867299D01*
X35966974Y61892398D01*
X35967231Y61911334D01*
X35967870Y61925260D01*
X35968952Y61935325D01*
X35970542Y61942681D01*
X35972702Y61948480D01*
X35973700Y61950541D01*
X35977274Y61957218D01*
X35981085Y61962614D01*
X35986013Y61966858D01*
X35992936Y61970077D01*
X36002735Y61972402D01*
X36016288Y61973959D01*
X36034476Y61974877D01*
X36058177Y61975286D01*
X36088271Y61975313D01*
X36125638Y61975086D01*
X36140933Y61974968D01*
X36279484Y61973883D01*
X36302950Y61950423D01*
X36304304Y61847853D01*
X36304673Y61814996D01*
X36304770Y61789490D01*
X36427023Y61789490D01*
X36427386Y61805885D01*
X36427657Y61834874D01*
X36427665Y61840533D01*
X36427468Y61869566D01*
X36426917Y61897655D01*
X36426075Y61923008D01*
X36425005Y61943832D01*
X36423768Y61958332D01*
X36423512Y61960273D01*
X36414318Y61996312D01*
X36398160Y62027972D01*
X36375686Y62054580D01*
X36347543Y62075462D01*
X36314381Y62089943D01*
X36293848Y62095009D01*
X36282553Y62096211D01*
X36263517Y62097154D01*
X36237459Y62097824D01*
X36205102Y62098210D01*
X36167166Y62098298D01*
X36124373Y62098077D01*
G36*
X36533666Y61569600D02*
G01*
X36673366Y61569600D01*
X36673366Y62098766D01*
X36533666Y62098766D01*
X36533666Y61569600D01*
G37*
X36533666Y61569600D02*
X36673366Y61569600D01*
X36673366Y62098766D01*
X36533666Y62098766D01*
X36533666Y61569600D01*
G36*
X36973933Y62098766D02*
G01*
X36762266Y62098766D01*
X36762266Y61976000D01*
X36973933Y61976000D01*
X36973933Y61569600D01*
X37113633Y61569600D01*
X37113633Y61976000D01*
X37274500Y61976000D01*
X37274500Y62098766D01*
X37113633Y62098766D01*
X37113633Y62272333D01*
X36973933Y62272333D01*
X36973933Y62098766D01*
G37*
X36973933Y62098766D02*
X36762266Y62098766D01*
X36762266Y61976000D01*
X36973933Y61976000D01*
X36973933Y61569600D01*
X37113633Y61569600D01*
X37113633Y61976000D01*
X37274500Y61976000D01*
X37274500Y62098766D01*
X37113633Y62098766D01*
X37113633Y62272333D01*
X36973933Y62272333D01*
X36973933Y62098766D01*
G36*
X37819732Y61938958D02*
G01*
X37819400Y61896546D01*
X37819043Y61861708D01*
X37818531Y61833557D01*
X37817730Y61811200D01*
X37816511Y61793747D01*
X37814742Y61780309D01*
X37812291Y61769994D01*
X37809026Y61761912D01*
X37804817Y61755174D01*
X37799532Y61748888D01*
X37793040Y61742164D01*
X37790272Y61739352D01*
X37782191Y61731379D01*
X37774561Y61724968D01*
X37766381Y61719947D01*
X37756646Y61716145D01*
X37744353Y61713393D01*
X37728500Y61711519D01*
X37708083Y61710352D01*
X37682098Y61709722D01*
X37649544Y61709458D01*
X37614225Y61709393D01*
X37486166Y61709300D01*
X37486166Y62098766D01*
X37363400Y62098766D01*
X37363415Y61856408D01*
X37363427Y61804977D01*
X37363470Y61761329D01*
X37363566Y61724779D01*
X37363740Y61694643D01*
X37364013Y61670236D01*
X37364409Y61650875D01*
X37364950Y61635875D01*
X37365659Y61624552D01*
X37366559Y61616222D01*
X37367672Y61610200D01*
X37369023Y61605802D01*
X37370633Y61602344D01*
X37371969Y61600045D01*
X37382339Y61588406D01*
X37396579Y61578790D01*
X37398412Y61577913D01*
X37403622Y61575771D01*
X37409444Y61574044D01*
X37416794Y61572690D01*
X37426585Y61571669D01*
X37439734Y61570937D01*
X37457154Y61570453D01*
X37479761Y61570176D01*
X37508470Y61570063D01*
X37544195Y61570072D01*
X37568716Y61570118D01*
X37614479Y61570323D01*
X37652461Y61570738D01*
X37683349Y61571385D01*
X37707826Y61572288D01*
X37726579Y61573469D01*
X37740291Y61574953D01*
X37747235Y61576179D01*
X37778470Y61585448D01*
X37810443Y61599205D01*
X37840981Y61616207D01*
X37867907Y61635211D01*
X37889045Y61654976D01*
X37892637Y61659222D01*
X37902323Y61672839D01*
X37912640Y61689704D01*
X37918674Y61700912D01*
X37924583Y61713361D01*
X37929470Y61725507D01*
X37933429Y61738289D01*
X37936558Y61752645D01*
X37938952Y61769513D01*
X37940709Y61789834D01*
X37941923Y61814545D01*
X37942692Y61844586D01*
X37943111Y61880894D01*
X37943277Y61924409D01*
X37943293Y61941075D01*
X37943366Y62098766D01*
X37820981Y62098766D01*
X37819732Y61938958D01*
G37*
X37819732Y61938958D02*
X37819400Y61896546D01*
X37819043Y61861708D01*
X37818531Y61833557D01*
X37817730Y61811200D01*
X37816511Y61793747D01*
X37814742Y61780309D01*
X37812291Y61769994D01*
X37809026Y61761912D01*
X37804817Y61755174D01*
X37799532Y61748888D01*
X37793040Y61742164D01*
X37790272Y61739352D01*
X37782191Y61731379D01*
X37774561Y61724968D01*
X37766381Y61719947D01*
X37756646Y61716145D01*
X37744353Y61713393D01*
X37728500Y61711519D01*
X37708083Y61710352D01*
X37682098Y61709722D01*
X37649544Y61709458D01*
X37614225Y61709393D01*
X37486166Y61709300D01*
X37486166Y62098766D01*
X37363400Y62098766D01*
X37363415Y61856408D01*
X37363427Y61804977D01*
X37363470Y61761329D01*
X37363566Y61724779D01*
X37363740Y61694643D01*
X37364013Y61670236D01*
X37364409Y61650875D01*
X37364950Y61635875D01*
X37365659Y61624552D01*
X37366559Y61616222D01*
X37367672Y61610200D01*
X37369023Y61605802D01*
X37370633Y61602344D01*
X37371969Y61600045D01*
X37382339Y61588406D01*
X37396579Y61578790D01*
X37398412Y61577913D01*
X37403622Y61575771D01*
X37409444Y61574044D01*
X37416794Y61572690D01*
X37426585Y61571669D01*
X37439734Y61570937D01*
X37457154Y61570453D01*
X37479761Y61570176D01*
X37508470Y61570063D01*
X37544195Y61570072D01*
X37568716Y61570118D01*
X37614479Y61570323D01*
X37652461Y61570738D01*
X37683349Y61571385D01*
X37707826Y61572288D01*
X37726579Y61573469D01*
X37740291Y61574953D01*
X37747235Y61576179D01*
X37778470Y61585448D01*
X37810443Y61599205D01*
X37840981Y61616207D01*
X37867907Y61635211D01*
X37889045Y61654976D01*
X37892637Y61659222D01*
X37902323Y61672839D01*
X37912640Y61689704D01*
X37918674Y61700912D01*
X37924583Y61713361D01*
X37929470Y61725507D01*
X37933429Y61738289D01*
X37936558Y61752645D01*
X37938952Y61769513D01*
X37940709Y61789834D01*
X37941923Y61814545D01*
X37942692Y61844586D01*
X37943111Y61880894D01*
X37943277Y61924409D01*
X37943293Y61941075D01*
X37943366Y62098766D01*
X37820981Y62098766D01*
X37819732Y61938958D01*
G36*
X38121166Y61739067D02*
G01*
X38108819Y61725242D01*
X38102742Y61718828D01*
X38096990Y61714711D01*
X38089487Y61712290D01*
X38078153Y61710964D01*
X38060910Y61710133D01*
X38055902Y61709950D01*
X38015333Y61708483D01*
X38015333Y61569600D01*
X38048141Y61569827D01*
X38086507Y61573386D01*
X38112700Y61579466D01*
X38149430Y61594236D01*
X38180920Y61614892D01*
X38206548Y61640765D01*
X38225689Y61671185D01*
X38237721Y61705485D01*
X38239760Y61715866D01*
X38240517Y61724764D01*
X38241219Y61741489D01*
X38241858Y61765400D01*
X38242426Y61795858D01*
X38242915Y61832223D01*
X38243315Y61873855D01*
X38243619Y61920113D01*
X38243819Y61970359D01*
X38243905Y62023952D01*
X38243908Y62034208D01*
X38243933Y62327366D01*
X38121166Y62327366D01*
X38121166Y61739067D01*
G37*
X38121166Y61739067D02*
X38108819Y61725242D01*
X38102742Y61718828D01*
X38096990Y61714711D01*
X38089487Y61712290D01*
X38078153Y61710964D01*
X38060910Y61710133D01*
X38055902Y61709950D01*
X38015333Y61708483D01*
X38015333Y61569600D01*
X38048141Y61569827D01*
X38086507Y61573386D01*
X38112700Y61579466D01*
X38149430Y61594236D01*
X38180920Y61614892D01*
X38206548Y61640765D01*
X38225689Y61671185D01*
X38237721Y61705485D01*
X38239760Y61715866D01*
X38240517Y61724764D01*
X38241219Y61741489D01*
X38241858Y61765400D01*
X38242426Y61795858D01*
X38242915Y61832223D01*
X38243315Y61873855D01*
X38243619Y61920113D01*
X38243819Y61970359D01*
X38243905Y62023952D01*
X38243908Y62034208D01*
X38243933Y62327366D01*
X38121166Y62327366D01*
X38121166Y61739067D01*
G36*
X38627594Y62098600D02*
G01*
X38594448Y62098378D01*
X38563358Y62097955D01*
X38535642Y62097333D01*
X38512613Y62096511D01*
X38495588Y62095489D01*
X38487584Y62094596D01*
X38455742Y62085605D01*
X38426106Y62070071D01*
X38400242Y62049226D01*
X38379719Y62024303D01*
X38367382Y62000135D01*
X38361826Y61984161D01*
X38357511Y61968603D01*
X38354315Y61952146D01*
X38352115Y61933476D01*
X38350787Y61911279D01*
X38350209Y61884241D01*
X38350257Y61851048D01*
X38350631Y61821249D01*
X38351199Y61788080D01*
X38351813Y61762160D01*
X38352577Y61742273D01*
X38353593Y61727203D01*
X38354966Y61715732D01*
X38356799Y61706643D01*
X38359195Y61698721D01*
X38361562Y61692463D01*
X38380091Y61656453D01*
X38404425Y61626575D01*
X38434692Y61602711D01*
X38471019Y61584740D01*
X38480365Y61581387D01*
X38488773Y61578711D01*
X38497031Y61576579D01*
X38506221Y61574919D01*
X38517428Y61573659D01*
X38531733Y61572730D01*
X38550221Y61572059D01*
X38573975Y61571574D01*
X38604078Y61571206D01*
X38639750Y61570896D01*
X38677853Y61570652D01*
X38708569Y61570612D01*
X38732976Y61570818D01*
X38752152Y61571314D01*
X38767175Y61572142D01*
X38779123Y61573347D01*
X38789074Y61574970D01*
X38798107Y61577055D01*
X38798843Y61577249D01*
X38836648Y61591326D01*
X38869349Y61612042D01*
X38896589Y61639115D01*
X38916351Y61669083D01*
X38927616Y61690250D01*
X38927616Y61839339D01*
X38811176Y61839339D01*
X38810992Y61804062D01*
X38810306Y61776275D01*
X38808948Y61755009D01*
X38806749Y61739292D01*
X38803538Y61728157D01*
X38799146Y61720632D01*
X38793403Y61715748D01*
X38789163Y61713650D01*
X38782512Y61712665D01*
X38768349Y61711836D01*
X38747623Y61711181D01*
X38721286Y61710720D01*
X38690292Y61710474D01*
X38655590Y61710462D01*
X38638339Y61710542D01*
X38497229Y61711416D01*
X38484881Y61725242D01*
X38472533Y61739067D01*
X38472533Y61838694D01*
X38472640Y61873595D01*
X38473094Y61901064D01*
X38474094Y61922135D01*
X38475841Y61937841D01*
X38478532Y61949214D01*
X38482369Y61957289D01*
X38487549Y61963099D01*
X38494274Y61967677D01*
X38497794Y61969578D01*
X38506042Y61971600D01*
X38521444Y61973287D01*
X38542698Y61974637D01*
X38568499Y61975651D01*
X38597543Y61976328D01*
X38628526Y61976668D01*
X38660143Y61976670D01*
X38691092Y61976335D01*
X38720067Y61975662D01*
X38745765Y61974651D01*
X38766881Y61973302D01*
X38782112Y61971614D01*
X38790046Y61969643D01*
X38796335Y61965452D01*
X38801263Y61959485D01*
X38804989Y61950761D01*
X38807673Y61938296D01*
X38809474Y61921108D01*
X38810551Y61898213D01*
X38811065Y61868629D01*
X38811176Y61839339D01*
X38927616Y61839339D01*
X38927616Y61987017D01*
X38913441Y62014949D01*
X38904340Y62030991D01*
X38894326Y62045773D01*
X38885924Y62055713D01*
X38866888Y62070188D01*
X38842849Y62082888D01*
X38817272Y62092115D01*
X38806750Y62094574D01*
X38796028Y62095747D01*
X38778156Y62096721D01*
X38754451Y62097495D01*
X38726227Y62098071D01*
X38694799Y62098447D01*
X38661483Y62098623D01*
X38627594Y62098600D01*
G37*
X38627594Y62098600D02*
X38594448Y62098378D01*
X38563358Y62097955D01*
X38535642Y62097333D01*
X38512613Y62096511D01*
X38495588Y62095489D01*
X38487584Y62094596D01*
X38455742Y62085605D01*
X38426106Y62070071D01*
X38400242Y62049226D01*
X38379719Y62024303D01*
X38367382Y62000135D01*
X38361826Y61984161D01*
X38357511Y61968603D01*
X38354315Y61952146D01*
X38352115Y61933476D01*
X38350787Y61911279D01*
X38350209Y61884241D01*
X38350257Y61851048D01*
X38350631Y61821249D01*
X38351199Y61788080D01*
X38351813Y61762160D01*
X38352577Y61742273D01*
X38353593Y61727203D01*
X38354966Y61715732D01*
X38356799Y61706643D01*
X38359195Y61698721D01*
X38361562Y61692463D01*
X38380091Y61656453D01*
X38404425Y61626575D01*
X38434692Y61602711D01*
X38471019Y61584740D01*
X38480365Y61581387D01*
X38488773Y61578711D01*
X38497031Y61576579D01*
X38506221Y61574919D01*
X38517428Y61573659D01*
X38531733Y61572730D01*
X38550221Y61572059D01*
X38573975Y61571574D01*
X38604078Y61571206D01*
X38639750Y61570896D01*
X38677853Y61570652D01*
X38708569Y61570612D01*
X38732976Y61570818D01*
X38752152Y61571314D01*
X38767175Y61572142D01*
X38779123Y61573347D01*
X38789074Y61574970D01*
X38798107Y61577055D01*
X38798843Y61577249D01*
X38836648Y61591326D01*
X38869349Y61612042D01*
X38896589Y61639115D01*
X38916351Y61669083D01*
X38927616Y61690250D01*
X38927616Y61839339D01*
X38811176Y61839339D01*
X38810992Y61804062D01*
X38810306Y61776275D01*
X38808948Y61755009D01*
X38806749Y61739292D01*
X38803538Y61728157D01*
X38799146Y61720632D01*
X38793403Y61715748D01*
X38789163Y61713650D01*
X38782512Y61712665D01*
X38768349Y61711836D01*
X38747623Y61711181D01*
X38721286Y61710720D01*
X38690292Y61710474D01*
X38655590Y61710462D01*
X38638339Y61710542D01*
X38497229Y61711416D01*
X38484881Y61725242D01*
X38472533Y61739067D01*
X38472533Y61838694D01*
X38472640Y61873595D01*
X38473094Y61901064D01*
X38474094Y61922135D01*
X38475841Y61937841D01*
X38478532Y61949214D01*
X38482369Y61957289D01*
X38487549Y61963099D01*
X38494274Y61967677D01*
X38497794Y61969578D01*
X38506042Y61971600D01*
X38521444Y61973287D01*
X38542698Y61974637D01*
X38568499Y61975651D01*
X38597543Y61976328D01*
X38628526Y61976668D01*
X38660143Y61976670D01*
X38691092Y61976335D01*
X38720067Y61975662D01*
X38745765Y61974651D01*
X38766881Y61973302D01*
X38782112Y61971614D01*
X38790046Y61969643D01*
X38796335Y61965452D01*
X38801263Y61959485D01*
X38804989Y61950761D01*
X38807673Y61938296D01*
X38809474Y61921108D01*
X38810551Y61898213D01*
X38811065Y61868629D01*
X38811176Y61839339D01*
X38927616Y61839339D01*
X38927616Y61987017D01*
X38913441Y62014949D01*
X38904340Y62030991D01*
X38894326Y62045773D01*
X38885924Y62055713D01*
X38866888Y62070188D01*
X38842849Y62082888D01*
X38817272Y62092115D01*
X38806750Y62094574D01*
X38796028Y62095747D01*
X38778156Y62096721D01*
X38754451Y62097495D01*
X38726227Y62098071D01*
X38694799Y62098447D01*
X38661483Y62098623D01*
X38627594Y62098600D01*
G36*
X39090600Y61976000D02*
G01*
X39250408Y61975935D01*
X39286476Y61975841D01*
X39319936Y61975600D01*
X39349829Y61975230D01*
X39375197Y61974752D01*
X39395083Y61974182D01*
X39408530Y61973540D01*
X39414579Y61972844D01*
X39414758Y61972760D01*
X39421396Y61963732D01*
X39422624Y61951999D01*
X39420756Y61946286D01*
X39419116Y61944044D01*
X39416252Y61942252D01*
X39411257Y61940846D01*
X39403224Y61939764D01*
X39391246Y61938944D01*
X39374416Y61938324D01*
X39351828Y61937840D01*
X39322573Y61937431D01*
X39286363Y61937041D01*
X39249534Y61936644D01*
X39220116Y61936226D01*
X39197053Y61935712D01*
X39179288Y61935026D01*
X39165767Y61934092D01*
X39155434Y61932836D01*
X39147232Y61931181D01*
X39140106Y61929052D01*
X39133000Y61926374D01*
X39132079Y61926004D01*
X39103658Y61910464D01*
X39077206Y61888314D01*
X39054442Y61861410D01*
X39037088Y61831606D01*
X39031428Y61817528D01*
X39022144Y61779073D01*
X39020488Y61741235D01*
X39026088Y61704985D01*
X39038566Y61671297D01*
X39057548Y61641141D01*
X39082658Y61615492D01*
X39113522Y61595321D01*
X39118049Y61593099D01*
X39129927Y61587680D01*
X39141220Y61583167D01*
X39152820Y61579478D01*
X39165618Y61576528D01*
X39180508Y61574236D01*
X39198382Y61572519D01*
X39220131Y61571294D01*
X39246649Y61570479D01*
X39278828Y61569991D01*
X39317560Y61569748D01*
X39363737Y61569666D01*
X39371058Y61569662D01*
X39547800Y61569600D01*
X39547800Y61709300D01*
X39170382Y61709300D01*
X39158007Y61721674D01*
X39148862Y61733669D01*
X39145723Y61747018D01*
X39145649Y61750249D01*
X39148201Y61766230D01*
X39154830Y61780938D01*
X39164038Y61791778D01*
X39171960Y61795859D01*
X39178568Y61796451D01*
X39192476Y61797080D01*
X39212520Y61797713D01*
X39237534Y61798320D01*
X39266351Y61798869D01*
X39297807Y61799330D01*
X39304383Y61799409D01*
X39340115Y61799857D01*
X39368477Y61800328D01*
X39390567Y61800906D01*
X39407481Y61801673D01*
X39420317Y61802712D01*
X39430172Y61804106D01*
X39438142Y61805937D01*
X39445325Y61808290D01*
X39450933Y61810477D01*
X39481462Y61827283D01*
X39507709Y61850713D01*
X39528229Y61879414D01*
X39531742Y61886122D01*
X39538229Y61899944D01*
X39542320Y61911301D01*
X39544561Y61922965D01*
X39545498Y61937711D01*
X39545680Y61956861D01*
X39545442Y61977229D01*
X39544428Y61991678D01*
X39542178Y62002751D01*
X39538234Y62012990D01*
X39534038Y62021367D01*
X39514245Y62050570D01*
X39489033Y62073283D01*
X39467754Y62085538D01*
X39444083Y62096650D01*
X39267341Y62097923D01*
X39090600Y62099196D01*
X39090600Y61976000D01*
G37*
X39090600Y61976000D02*
X39250408Y61975935D01*
X39286476Y61975841D01*
X39319936Y61975600D01*
X39349829Y61975230D01*
X39375197Y61974752D01*
X39395083Y61974182D01*
X39408530Y61973540D01*
X39414579Y61972844D01*
X39414758Y61972760D01*
X39421396Y61963732D01*
X39422624Y61951999D01*
X39420756Y61946286D01*
X39419116Y61944044D01*
X39416252Y61942252D01*
X39411257Y61940846D01*
X39403224Y61939764D01*
X39391246Y61938944D01*
X39374416Y61938324D01*
X39351828Y61937840D01*
X39322573Y61937431D01*
X39286363Y61937041D01*
X39249534Y61936644D01*
X39220116Y61936226D01*
X39197053Y61935712D01*
X39179288Y61935026D01*
X39165767Y61934092D01*
X39155434Y61932836D01*
X39147232Y61931181D01*
X39140106Y61929052D01*
X39133000Y61926374D01*
X39132079Y61926004D01*
X39103658Y61910464D01*
X39077206Y61888314D01*
X39054442Y61861410D01*
X39037088Y61831606D01*
X39031428Y61817528D01*
X39022144Y61779073D01*
X39020488Y61741235D01*
X39026088Y61704985D01*
X39038566Y61671297D01*
X39057548Y61641141D01*
X39082658Y61615492D01*
X39113522Y61595321D01*
X39118049Y61593099D01*
X39129927Y61587680D01*
X39141220Y61583167D01*
X39152820Y61579478D01*
X39165618Y61576528D01*
X39180508Y61574236D01*
X39198382Y61572519D01*
X39220131Y61571294D01*
X39246649Y61570479D01*
X39278828Y61569991D01*
X39317560Y61569748D01*
X39363737Y61569666D01*
X39371058Y61569662D01*
X39547800Y61569600D01*
X39547800Y61709300D01*
X39170382Y61709300D01*
X39158007Y61721674D01*
X39148862Y61733669D01*
X39145723Y61747018D01*
X39145649Y61750249D01*
X39148201Y61766230D01*
X39154830Y61780938D01*
X39164038Y61791778D01*
X39171960Y61795859D01*
X39178568Y61796451D01*
X39192476Y61797080D01*
X39212520Y61797713D01*
X39237534Y61798320D01*
X39266351Y61798869D01*
X39297807Y61799330D01*
X39304383Y61799409D01*
X39340115Y61799857D01*
X39368477Y61800328D01*
X39390567Y61800906D01*
X39407481Y61801673D01*
X39420317Y61802712D01*
X39430172Y61804106D01*
X39438142Y61805937D01*
X39445325Y61808290D01*
X39450933Y61810477D01*
X39481462Y61827283D01*
X39507709Y61850713D01*
X39528229Y61879414D01*
X39531742Y61886122D01*
X39538229Y61899944D01*
X39542320Y61911301D01*
X39544561Y61922965D01*
X39545498Y61937711D01*
X39545680Y61956861D01*
X39545442Y61977229D01*
X39544428Y61991678D01*
X39542178Y62002751D01*
X39538234Y62012990D01*
X39534038Y62021367D01*
X39514245Y62050570D01*
X39489033Y62073283D01*
X39467754Y62085538D01*
X39444083Y62096650D01*
X39267341Y62097923D01*
X39090600Y62099196D01*
X39090600Y61976000D01*
G36*
X40043100Y61738086D02*
G01*
X40028706Y61723693D01*
X40021601Y61716900D01*
X40015353Y61712673D01*
X40007725Y61710403D01*
X39996479Y61709482D01*
X39979378Y61709301D01*
X39975790Y61709300D01*
X39937266Y61709300D01*
X39937266Y61569600D01*
X39970075Y61569855D01*
X39991147Y61571093D01*
X40013701Y61574072D01*
X40031141Y61577733D01*
X40068866Y61591894D01*
X40101324Y61612443D01*
X40128086Y61639031D01*
X40148721Y61671310D01*
X40150311Y61674583D01*
X40163749Y61702950D01*
X40164963Y62015158D01*
X40166176Y62327366D01*
X40043100Y62327366D01*
X40043100Y61738086D01*
G37*
X40043100Y61738086D02*
X40028706Y61723693D01*
X40021601Y61716900D01*
X40015353Y61712673D01*
X40007725Y61710403D01*
X39996479Y61709482D01*
X39979378Y61709301D01*
X39975790Y61709300D01*
X39937266Y61709300D01*
X39937266Y61569600D01*
X39970075Y61569855D01*
X39991147Y61571093D01*
X40013701Y61574072D01*
X40031141Y61577733D01*
X40068866Y61591894D01*
X40101324Y61612443D01*
X40128086Y61639031D01*
X40148721Y61671310D01*
X40150311Y61674583D01*
X40163749Y61702950D01*
X40164963Y62015158D01*
X40166176Y62327366D01*
X40043100Y62327366D01*
X40043100Y61738086D01*
G36*
X40564858Y62097899D02*
G01*
X40523136Y62097525D01*
X40488977Y62097152D01*
X40461478Y62096729D01*
X40439736Y62096202D01*
X40422848Y62095521D01*
X40409910Y62094632D01*
X40400018Y62093484D01*
X40392271Y62092024D01*
X40385764Y62090201D01*
X40379594Y62087961D01*
X40377330Y62087063D01*
X40345380Y62070680D01*
X40319881Y62049519D01*
X40304168Y62029720D01*
X40295780Y62016616D01*
X40289092Y62004554D01*
X40283913Y61992369D01*
X40280052Y61978896D01*
X40277318Y61962968D01*
X40275518Y61943421D01*
X40274462Y61919090D01*
X40273960Y61888808D01*
X40273818Y61851410D01*
X40273816Y61844766D01*
X40273857Y61809842D01*
X40274030Y61782187D01*
X40274412Y61760606D01*
X40275080Y61743902D01*
X40276111Y61730878D01*
X40277581Y61720337D01*
X40279567Y61711085D01*
X40282146Y61701922D01*
X40283189Y61698559D01*
X40298754Y61662501D01*
X40320942Y61631106D01*
X40348961Y61605218D01*
X40382021Y61585683D01*
X40393303Y61580998D01*
X40400478Y61578455D01*
X40407714Y61576416D01*
X40416032Y61574818D01*
X40426454Y61573596D01*
X40440000Y61572687D01*
X40457692Y61572026D01*
X40480552Y61571548D01*
X40509601Y61571191D01*
X40545861Y61570889D01*
X40555333Y61570821D01*
X40594044Y61570591D01*
X40625340Y61570537D01*
X40650271Y61570701D01*
X40669886Y61571126D01*
X40685237Y61571856D01*
X40697372Y61572933D01*
X40707343Y61574401D01*
X40716199Y61576301D01*
X40721174Y61577601D01*
X40758631Y61591770D01*
X40790741Y61611930D01*
X40816973Y61637456D01*
X40836791Y61667724D01*
X40849664Y61702108D01*
X40854748Y61734111D01*
X40853762Y61773844D01*
X40845474Y61810609D01*
X40830314Y61843630D01*
X40808707Y61872128D01*
X40781084Y61895327D01*
X40759274Y61907587D01*
X40735249Y61918850D01*
X40449499Y61921478D01*
X40449499Y61798200D01*
X40707599Y61798200D01*
X40720910Y61786307D01*
X40731773Y61771348D01*
X40736758Y61752826D01*
X40735488Y61733613D01*
X40729635Y61719544D01*
X40724686Y61712273D01*
X40719328Y61706426D01*
X40712629Y61701850D01*
X40703656Y61698388D01*
X40691477Y61695887D01*
X40675160Y61694191D01*
X40653772Y61693147D01*
X40626381Y61692598D01*
X40592055Y61692391D01*
X40565916Y61692366D01*
X40526544Y61692428D01*
X40494721Y61692727D01*
X40469533Y61693430D01*
X40450061Y61694707D01*
X40435391Y61696726D01*
X40424606Y61699657D01*
X40416789Y61703667D01*
X40411024Y61708926D01*
X40406395Y61715603D01*
X40402722Y61722414D01*
X40400113Y61728164D01*
X40398116Y61734659D01*
X40396650Y61743057D01*
X40395635Y61754515D01*
X40394991Y61770193D01*
X40394636Y61791249D01*
X40394492Y61818841D01*
X40394473Y61841423D01*
X40394581Y61877089D01*
X40395047Y61905354D01*
X40396089Y61927281D01*
X40397927Y61943934D01*
X40400779Y61956378D01*
X40404864Y61965675D01*
X40410401Y61972891D01*
X40417609Y61979088D01*
X40423667Y61983324D01*
X40427692Y61985894D01*
X40431872Y61987960D01*
X40437126Y61989576D01*
X40444370Y61990797D01*
X40454522Y61991679D01*
X40468501Y61992278D01*
X40487223Y61992647D01*
X40511606Y61992842D01*
X40542568Y61992919D01*
X40581026Y61992933D01*
X40728899Y61992933D01*
X40728899Y62099305D01*
X40564858Y62097899D01*
G37*
X40564858Y62097899D02*
X40523136Y62097525D01*
X40488977Y62097152D01*
X40461478Y62096729D01*
X40439736Y62096202D01*
X40422848Y62095521D01*
X40409910Y62094632D01*
X40400018Y62093484D01*
X40392271Y62092024D01*
X40385764Y62090201D01*
X40379594Y62087961D01*
X40377330Y62087063D01*
X40345380Y62070680D01*
X40319881Y62049519D01*
X40304168Y62029720D01*
X40295780Y62016616D01*
X40289092Y62004554D01*
X40283913Y61992369D01*
X40280052Y61978896D01*
X40277318Y61962968D01*
X40275518Y61943421D01*
X40274462Y61919090D01*
X40273960Y61888808D01*
X40273818Y61851410D01*
X40273816Y61844766D01*
X40273857Y61809842D01*
X40274030Y61782187D01*
X40274412Y61760606D01*
X40275080Y61743902D01*
X40276111Y61730878D01*
X40277581Y61720337D01*
X40279567Y61711085D01*
X40282146Y61701922D01*
X40283189Y61698559D01*
X40298754Y61662501D01*
X40320942Y61631106D01*
X40348961Y61605218D01*
X40382021Y61585683D01*
X40393303Y61580998D01*
X40400478Y61578455D01*
X40407714Y61576416D01*
X40416032Y61574818D01*
X40426454Y61573596D01*
X40440000Y61572687D01*
X40457692Y61572026D01*
X40480552Y61571548D01*
X40509601Y61571191D01*
X40545861Y61570889D01*
X40555333Y61570821D01*
X40594044Y61570591D01*
X40625340Y61570537D01*
X40650271Y61570701D01*
X40669886Y61571126D01*
X40685237Y61571856D01*
X40697372Y61572933D01*
X40707343Y61574401D01*
X40716199Y61576301D01*
X40721174Y61577601D01*
X40758631Y61591770D01*
X40790741Y61611930D01*
X40816973Y61637456D01*
X40836791Y61667724D01*
X40849664Y61702108D01*
X40854748Y61734111D01*
X40853762Y61773844D01*
X40845474Y61810609D01*
X40830314Y61843630D01*
X40808707Y61872128D01*
X40781084Y61895327D01*
X40759274Y61907587D01*
X40735249Y61918850D01*
X40449499Y61921478D01*
X40449499Y61798200D01*
X40707599Y61798200D01*
X40720910Y61786307D01*
X40731773Y61771348D01*
X40736758Y61752826D01*
X40735488Y61733613D01*
X40729635Y61719544D01*
X40724686Y61712273D01*
X40719328Y61706426D01*
X40712629Y61701850D01*
X40703656Y61698388D01*
X40691477Y61695887D01*
X40675160Y61694191D01*
X40653772Y61693147D01*
X40626381Y61692598D01*
X40592055Y61692391D01*
X40565916Y61692366D01*
X40526544Y61692428D01*
X40494721Y61692727D01*
X40469533Y61693430D01*
X40450061Y61694707D01*
X40435391Y61696726D01*
X40424606Y61699657D01*
X40416789Y61703667D01*
X40411024Y61708926D01*
X40406395Y61715603D01*
X40402722Y61722414D01*
X40400113Y61728164D01*
X40398116Y61734659D01*
X40396650Y61743057D01*
X40395635Y61754515D01*
X40394991Y61770193D01*
X40394636Y61791249D01*
X40394492Y61818841D01*
X40394473Y61841423D01*
X40394581Y61877089D01*
X40395047Y61905354D01*
X40396089Y61927281D01*
X40397927Y61943934D01*
X40400779Y61956378D01*
X40404864Y61965675D01*
X40410401Y61972891D01*
X40417609Y61979088D01*
X40423667Y61983324D01*
X40427692Y61985894D01*
X40431872Y61987960D01*
X40437126Y61989576D01*
X40444370Y61990797D01*
X40454522Y61991679D01*
X40468501Y61992278D01*
X40487223Y61992647D01*
X40511606Y61992842D01*
X40542568Y61992919D01*
X40581026Y61992933D01*
X40728899Y61992933D01*
X40728899Y62099305D01*
X40564858Y62097899D01*
G36*
X40927866Y61976253D02*
G01*
X41116600Y61975068D01*
X41305333Y61973883D01*
X41330033Y61946233D01*
X41330033Y61739067D01*
X41317683Y61725242D01*
X41305333Y61711416D01*
X41116600Y61710231D01*
X40927866Y61709046D01*
X40927866Y61569600D01*
X41104608Y61569833D01*
X41148586Y61569918D01*
X41185002Y61570072D01*
X41214759Y61570331D01*
X41238762Y61570733D01*
X41257914Y61571314D01*
X41273119Y61572110D01*
X41285282Y61573160D01*
X41295307Y61574499D01*
X41304097Y61576164D01*
X41312557Y61578193D01*
X41313099Y61578334D01*
X41349284Y61591772D01*
X41381598Y61611765D01*
X41408994Y61637343D01*
X41430423Y61667535D01*
X41444408Y61699957D01*
X41447053Y61709345D01*
X41449084Y61719064D01*
X41450580Y61730368D01*
X41451619Y61744514D01*
X41452281Y61762756D01*
X41452644Y61786351D01*
X41452786Y61816555D01*
X41452799Y61833740D01*
X41452669Y61870319D01*
X41452240Y61899531D01*
X41451460Y61922475D01*
X41450273Y61940247D01*
X41448627Y61953944D01*
X41446466Y61964662D01*
X41446317Y61965241D01*
X41433177Y62001724D01*
X41414301Y62033645D01*
X41390468Y62060041D01*
X41362458Y62079952D01*
X41347820Y62086897D01*
X41342028Y62089168D01*
X41336357Y62091061D01*
X41330002Y62092617D01*
X41322161Y62093874D01*
X41312028Y62094873D01*
X41298800Y62095653D01*
X41281674Y62096255D01*
X41259845Y62096717D01*
X41232510Y62097079D01*
X41198865Y62097382D01*
X41158105Y62097665D01*
X41125774Y62097867D01*
X40927866Y62099084D01*
X40927866Y61976253D01*
G37*
X40927866Y61976253D02*
X41116600Y61975068D01*
X41305333Y61973883D01*
X41330033Y61946233D01*
X41330033Y61739067D01*
X41317683Y61725242D01*
X41305333Y61711416D01*
X41116600Y61710231D01*
X40927866Y61709046D01*
X40927866Y61569600D01*
X41104608Y61569833D01*
X41148586Y61569918D01*
X41185002Y61570072D01*
X41214759Y61570331D01*
X41238762Y61570733D01*
X41257914Y61571314D01*
X41273119Y61572110D01*
X41285282Y61573160D01*
X41295307Y61574499D01*
X41304097Y61576164D01*
X41312557Y61578193D01*
X41313099Y61578334D01*
X41349284Y61591772D01*
X41381598Y61611765D01*
X41408994Y61637343D01*
X41430423Y61667535D01*
X41444408Y61699957D01*
X41447053Y61709345D01*
X41449084Y61719064D01*
X41450580Y61730368D01*
X41451619Y61744514D01*
X41452281Y61762756D01*
X41452644Y61786351D01*
X41452786Y61816555D01*
X41452799Y61833740D01*
X41452669Y61870319D01*
X41452240Y61899531D01*
X41451460Y61922475D01*
X41450273Y61940247D01*
X41448627Y61953944D01*
X41446466Y61964662D01*
X41446317Y61965241D01*
X41433177Y62001724D01*
X41414301Y62033645D01*
X41390468Y62060041D01*
X41362458Y62079952D01*
X41347820Y62086897D01*
X41342028Y62089168D01*
X41336357Y62091061D01*
X41330002Y62092617D01*
X41322161Y62093874D01*
X41312028Y62094873D01*
X41298800Y62095653D01*
X41281674Y62096255D01*
X41259845Y62096717D01*
X41232510Y62097079D01*
X41198865Y62097382D01*
X41158105Y62097665D01*
X41125774Y62097867D01*
X40927866Y62099084D01*
X40927866Y61976253D01*
G36*
X41562866Y61569600D02*
G01*
X41681399Y61569600D01*
X41681399Y62098766D01*
X41562866Y62098766D01*
X41562866Y61569600D01*
G37*
X41562866Y61569600D02*
X41681399Y61569600D01*
X41681399Y62098766D01*
X41562866Y62098766D01*
X41562866Y61569600D01*
G36*
X42591566Y62083567D02*
G01*
X42562648Y62067458D01*
X42540431Y62049100D01*
X42523209Y62026616D01*
X42509278Y61998127D01*
X42505854Y61989149D01*
X42503077Y61980663D01*
X42500903Y61971490D01*
X42499229Y61960391D01*
X42497954Y61946129D01*
X42496974Y61927466D01*
X42496187Y61903164D01*
X42495491Y61871985D01*
X42495296Y61861700D01*
X42494908Y61829733D01*
X42494920Y61799259D01*
X42495304Y61771848D01*
X42496033Y61749073D01*
X42497079Y61732505D01*
X42497624Y61727645D01*
X42506635Y61689181D01*
X42522097Y61655924D01*
X42543875Y61628156D01*
X42546894Y61625218D01*
X42566262Y61608675D01*
X42585883Y61596209D01*
X42608572Y61586308D01*
X42634440Y61578201D01*
X42644162Y61575693D01*
X42653899Y61573726D01*
X42664801Y61572237D01*
X42678021Y61571165D01*
X42694709Y61570447D01*
X42716017Y61570023D01*
X42743096Y61569830D01*
X42777099Y61569807D01*
X42790448Y61569827D01*
X42826760Y61569930D01*
X42855757Y61570139D01*
X42878594Y61570526D01*
X42896423Y61571162D01*
X42910396Y61572117D01*
X42921666Y61573462D01*
X42931386Y61575269D01*
X42940708Y61577608D01*
X42947166Y61579466D01*
X42984401Y61594591D01*
X43016298Y61616286D01*
X43042793Y61644497D01*
X43060259Y61672106D01*
X43072049Y61694483D01*
X43072049Y61812979D01*
X42955180Y61812979D01*
X42955006Y61784366D01*
X42954172Y61762257D01*
X42952521Y61745676D01*
X42949895Y61733645D01*
X42946138Y61725185D01*
X42941091Y61719321D01*
X42934598Y61715073D01*
X42933185Y61714367D01*
X42926206Y61713040D01*
X42912026Y61711918D01*
X42891912Y61711002D01*
X42867127Y61710294D01*
X42838936Y61709796D01*
X42808604Y61709509D01*
X42777395Y61709434D01*
X42746575Y61709572D01*
X42717406Y61709926D01*
X42691156Y61710497D01*
X42669086Y61711286D01*
X42652463Y61712294D01*
X42642551Y61713524D01*
X42640847Y61714031D01*
X42633652Y61717907D01*
X42628022Y61722874D01*
X42623786Y61729922D01*
X42620773Y61740042D01*
X42618811Y61754224D01*
X42617731Y61773457D01*
X42617360Y61798733D01*
X42617527Y61831042D01*
X42617729Y61847853D01*
X42619083Y61950423D01*
X42642559Y61973883D01*
X42930040Y61973883D01*
X42953516Y61950423D01*
X42954850Y61849074D01*
X42955180Y61812979D01*
X43072049Y61812979D01*
X43072049Y61986583D01*
X43057560Y62013306D01*
X43036909Y62043273D01*
X43011011Y62067328D01*
X42980901Y62084544D01*
X42975940Y62086534D01*
X42969041Y62089090D01*
X42962532Y62091174D01*
X42955504Y62092835D01*
X42947044Y62094121D01*
X42936243Y62095080D01*
X42922190Y62095759D01*
X42903973Y62096207D01*
X42880683Y62096473D01*
X42851407Y62096603D01*
X42815237Y62096646D01*
X42784183Y62096650D01*
X42619083Y62096650D01*
X42591566Y62083567D01*
G37*
X42591566Y62083567D02*
X42562648Y62067458D01*
X42540431Y62049100D01*
X42523209Y62026616D01*
X42509278Y61998127D01*
X42505854Y61989149D01*
X42503077Y61980663D01*
X42500903Y61971490D01*
X42499229Y61960391D01*
X42497954Y61946129D01*
X42496974Y61927466D01*
X42496187Y61903164D01*
X42495491Y61871985D01*
X42495296Y61861700D01*
X42494908Y61829733D01*
X42494920Y61799259D01*
X42495304Y61771848D01*
X42496033Y61749073D01*
X42497079Y61732505D01*
X42497624Y61727645D01*
X42506635Y61689181D01*
X42522097Y61655924D01*
X42543875Y61628156D01*
X42546894Y61625218D01*
X42566262Y61608675D01*
X42585883Y61596209D01*
X42608572Y61586308D01*
X42634440Y61578201D01*
X42644162Y61575693D01*
X42653899Y61573726D01*
X42664801Y61572237D01*
X42678021Y61571165D01*
X42694709Y61570447D01*
X42716017Y61570023D01*
X42743096Y61569830D01*
X42777099Y61569807D01*
X42790448Y61569827D01*
X42826760Y61569930D01*
X42855757Y61570139D01*
X42878594Y61570526D01*
X42896423Y61571162D01*
X42910396Y61572117D01*
X42921666Y61573462D01*
X42931386Y61575269D01*
X42940708Y61577608D01*
X42947166Y61579466D01*
X42984401Y61594591D01*
X43016298Y61616286D01*
X43042793Y61644497D01*
X43060259Y61672106D01*
X43072049Y61694483D01*
X43072049Y61812979D01*
X42955180Y61812979D01*
X42955006Y61784366D01*
X42954172Y61762257D01*
X42952521Y61745676D01*
X42949895Y61733645D01*
X42946138Y61725185D01*
X42941091Y61719321D01*
X42934598Y61715073D01*
X42933185Y61714367D01*
X42926206Y61713040D01*
X42912026Y61711918D01*
X42891912Y61711002D01*
X42867127Y61710294D01*
X42838936Y61709796D01*
X42808604Y61709509D01*
X42777395Y61709434D01*
X42746575Y61709572D01*
X42717406Y61709926D01*
X42691156Y61710497D01*
X42669086Y61711286D01*
X42652463Y61712294D01*
X42642551Y61713524D01*
X42640847Y61714031D01*
X42633652Y61717907D01*
X42628022Y61722874D01*
X42623786Y61729922D01*
X42620773Y61740042D01*
X42618811Y61754224D01*
X42617731Y61773457D01*
X42617360Y61798733D01*
X42617527Y61831042D01*
X42617729Y61847853D01*
X42619083Y61950423D01*
X42642559Y61973883D01*
X42930040Y61973883D01*
X42953516Y61950423D01*
X42954850Y61849074D01*
X42955180Y61812979D01*
X43072049Y61812979D01*
X43072049Y61986583D01*
X43057560Y62013306D01*
X43036909Y62043273D01*
X43011011Y62067328D01*
X42980901Y62084544D01*
X42975940Y62086534D01*
X42969041Y62089090D01*
X42962532Y62091174D01*
X42955504Y62092835D01*
X42947044Y62094121D01*
X42936243Y62095080D01*
X42922190Y62095759D01*
X42903973Y62096207D01*
X42880683Y62096473D01*
X42851407Y62096603D01*
X42815237Y62096646D01*
X42784183Y62096650D01*
X42619083Y62096650D01*
X42591566Y62083567D01*
G36*
X43256199Y62038015D02*
G01*
X43256143Y61973413D01*
X43255970Y61917054D01*
X43255679Y61868714D01*
X43255265Y61828173D01*
X43254724Y61795205D01*
X43254055Y61769589D01*
X43253252Y61751101D01*
X43252312Y61739519D01*
X43251507Y61735203D01*
X43245289Y61723826D01*
X43235110Y61716079D01*
X43219717Y61711461D01*
X43197854Y61709472D01*
X43186560Y61709300D01*
X43150366Y61709300D01*
X43150366Y61569600D01*
X43185291Y61569833D01*
X43210837Y61571361D01*
X43237396Y61575145D01*
X43251966Y61578334D01*
X43286556Y61591046D01*
X43312293Y61606070D01*
X43337182Y61625223D01*
X43356156Y61645511D01*
X43371606Y61669717D01*
X43377976Y61682478D01*
X43389549Y61707183D01*
X43390714Y62017275D01*
X43391878Y62327366D01*
X43256199Y62327366D01*
X43256199Y62038015D01*
G37*
X43256199Y62038015D02*
X43256143Y61973413D01*
X43255970Y61917054D01*
X43255679Y61868714D01*
X43255265Y61828173D01*
X43254724Y61795205D01*
X43254055Y61769589D01*
X43253252Y61751101D01*
X43252312Y61739519D01*
X43251507Y61735203D01*
X43245289Y61723826D01*
X43235110Y61716079D01*
X43219717Y61711461D01*
X43197854Y61709472D01*
X43186560Y61709300D01*
X43150366Y61709300D01*
X43150366Y61569600D01*
X43185291Y61569833D01*
X43210837Y61571361D01*
X43237396Y61575145D01*
X43251966Y61578334D01*
X43286556Y61591046D01*
X43312293Y61606070D01*
X43337182Y61625223D01*
X43356156Y61645511D01*
X43371606Y61669717D01*
X43377976Y61682478D01*
X43389549Y61707183D01*
X43390714Y62017275D01*
X43391878Y62327366D01*
X43256199Y62327366D01*
X43256199Y62038015D01*
G36*
X43720135Y62098205D02*
G01*
X43688446Y62097781D01*
X43662547Y62096885D01*
X43641546Y62095449D01*
X43624552Y62093405D01*
X43610676Y62090685D01*
X43599025Y62087221D01*
X43588709Y62082946D01*
X43585173Y62081208D01*
X43560312Y62064584D01*
X43537749Y62042163D01*
X43520029Y62016614D01*
X43516039Y62008742D01*
X43503849Y61982350D01*
X43503849Y61694483D01*
X43516064Y61668036D01*
X43533377Y61639724D01*
X43557270Y61615960D01*
X43588317Y61596180D01*
X43590234Y61595201D01*
X43604580Y61588314D01*
X43618220Y61582780D01*
X43632295Y61578456D01*
X43647944Y61575199D01*
X43666307Y61572866D01*
X43688524Y61571314D01*
X43715735Y61570400D01*
X43749079Y61569981D01*
X43789696Y61569914D01*
X43791716Y61569917D01*
X43828708Y61570041D01*
X43858371Y61570323D01*
X43881843Y61570823D01*
X43900262Y61571600D01*
X43914764Y61572715D01*
X43926488Y61574225D01*
X43936570Y61576191D01*
X43943090Y61577824D01*
X43980557Y61591858D01*
X44013091Y61612086D01*
X44040023Y61637822D01*
X44060686Y61668379D01*
X44074413Y61703074D01*
X44077402Y61715791D01*
X44078881Y61728122D01*
X44079964Y61747020D01*
X44080671Y61771075D01*
X44081019Y61798875D01*
X44081028Y61829009D01*
X44080717Y61860066D01*
X44080104Y61890636D01*
X44079207Y61919306D01*
X44078046Y61944667D01*
X44077940Y61946233D01*
X43958933Y61946233D01*
X43958933Y61738086D01*
X43944540Y61723693D01*
X43930146Y61709300D01*
X43791861Y61709300D01*
X43748538Y61709419D01*
X43713275Y61709787D01*
X43685671Y61710417D01*
X43665323Y61711321D01*
X43651830Y61712515D01*
X43644788Y61714010D01*
X43644330Y61714225D01*
X43638569Y61717545D01*
X43634066Y61721320D01*
X43630664Y61726563D01*
X43628207Y61734287D01*
X43626539Y61745507D01*
X43625504Y61761235D01*
X43624945Y61782484D01*
X43624706Y61810269D01*
X43624634Y61841917D01*
X43624499Y61951251D01*
X43637037Y61963788D01*
X43649574Y61976325D01*
X43934236Y61973883D01*
X43946585Y61960058D01*
X43958933Y61946233D01*
X44077940Y61946233D01*
X44076640Y61965306D01*
X44075006Y61979814D01*
X44073826Y61985302D01*
X44065358Y62004103D01*
X44052309Y62024989D01*
X44036842Y62044923D01*
X44021117Y62060866D01*
X44018567Y62062967D01*
X44003831Y62072931D01*
X43986159Y62082585D01*
X43976524Y62086916D01*
X43969840Y62089480D01*
X43963219Y62091556D01*
X43955696Y62093204D01*
X43946302Y62094488D01*
X43934071Y62095468D01*
X43918036Y62096207D01*
X43897228Y62096766D01*
X43870683Y62097207D01*
X43837432Y62097591D01*
X43804446Y62097908D01*
X43758505Y62098225D01*
X43720135Y62098205D01*
G37*
X43720135Y62098205D02*
X43688446Y62097781D01*
X43662547Y62096885D01*
X43641546Y62095449D01*
X43624552Y62093405D01*
X43610676Y62090685D01*
X43599025Y62087221D01*
X43588709Y62082946D01*
X43585173Y62081208D01*
X43560312Y62064584D01*
X43537749Y62042163D01*
X43520029Y62016614D01*
X43516039Y62008742D01*
X43503849Y61982350D01*
X43503849Y61694483D01*
X43516064Y61668036D01*
X43533377Y61639724D01*
X43557270Y61615960D01*
X43588317Y61596180D01*
X43590234Y61595201D01*
X43604580Y61588314D01*
X43618220Y61582780D01*
X43632295Y61578456D01*
X43647944Y61575199D01*
X43666307Y61572866D01*
X43688524Y61571314D01*
X43715735Y61570400D01*
X43749079Y61569981D01*
X43789696Y61569914D01*
X43791716Y61569917D01*
X43828708Y61570041D01*
X43858371Y61570323D01*
X43881843Y61570823D01*
X43900262Y61571600D01*
X43914764Y61572715D01*
X43926488Y61574225D01*
X43936570Y61576191D01*
X43943090Y61577824D01*
X43980557Y61591858D01*
X44013091Y61612086D01*
X44040023Y61637822D01*
X44060686Y61668379D01*
X44074413Y61703074D01*
X44077402Y61715791D01*
X44078881Y61728122D01*
X44079964Y61747020D01*
X44080671Y61771075D01*
X44081019Y61798875D01*
X44081028Y61829009D01*
X44080717Y61860066D01*
X44080104Y61890636D01*
X44079207Y61919306D01*
X44078046Y61944667D01*
X44077940Y61946233D01*
X43958933Y61946233D01*
X43958933Y61738086D01*
X43944540Y61723693D01*
X43930146Y61709300D01*
X43791861Y61709300D01*
X43748538Y61709419D01*
X43713275Y61709787D01*
X43685671Y61710417D01*
X43665323Y61711321D01*
X43651830Y61712515D01*
X43644788Y61714010D01*
X43644330Y61714225D01*
X43638569Y61717545D01*
X43634066Y61721320D01*
X43630664Y61726563D01*
X43628207Y61734287D01*
X43626539Y61745507D01*
X43625504Y61761235D01*
X43624945Y61782484D01*
X43624706Y61810269D01*
X43624634Y61841917D01*
X43624499Y61951251D01*
X43637037Y61963788D01*
X43649574Y61976325D01*
X43934236Y61973883D01*
X43946585Y61960058D01*
X43958933Y61946233D01*
X44077940Y61946233D01*
X44076640Y61965306D01*
X44075006Y61979814D01*
X44073826Y61985302D01*
X44065358Y62004103D01*
X44052309Y62024989D01*
X44036842Y62044923D01*
X44021117Y62060866D01*
X44018567Y62062967D01*
X44003831Y62072931D01*
X43986159Y62082585D01*
X43976524Y62086916D01*
X43969840Y62089480D01*
X43963219Y62091556D01*
X43955696Y62093204D01*
X43946302Y62094488D01*
X43934071Y62095468D01*
X43918036Y62096207D01*
X43897228Y62096766D01*
X43870683Y62097207D01*
X43837432Y62097591D01*
X43804446Y62097908D01*
X43758505Y62098225D01*
X43720135Y62098205D01*
G36*
X44469545Y62098066D02*
G01*
X44432193Y62097712D01*
X44401863Y62097077D01*
X44378992Y62096169D01*
X44364015Y62094994D01*
X44361099Y62094586D01*
X44322659Y62084035D01*
X44287237Y62066071D01*
X44255741Y62041482D01*
X44229081Y62011054D01*
X44208166Y61975574D01*
X44199666Y61954833D01*
X44197297Y61947852D01*
X44195339Y61941035D01*
X44193745Y61933508D01*
X44192466Y61924399D01*
X44191455Y61912836D01*
X44190665Y61897945D01*
X44190047Y61878853D01*
X44189554Y61854689D01*
X44189139Y61824578D01*
X44188753Y61787648D01*
X44188398Y61748458D01*
X44186821Y61569600D01*
X44310299Y61569600D01*
X44310299Y61729934D01*
X44310337Y61773642D01*
X44310510Y61809770D01*
X44310914Y61839203D01*
X44311641Y61862828D01*
X44312785Y61881531D01*
X44314440Y61896198D01*
X44316699Y61907715D01*
X44319656Y61916968D01*
X44323404Y61924843D01*
X44328037Y61932227D01*
X44332281Y61938156D01*
X44341977Y61948379D01*
X44355153Y61958826D01*
X44361099Y61962655D01*
X44380149Y61973883D01*
X44514558Y61975162D01*
X44648966Y61976440D01*
X44648966Y61569600D01*
X44767499Y61569600D01*
X44767499Y62065024D01*
X44753012Y62080837D01*
X44738524Y62096650D01*
X44563570Y62097902D01*
X44513482Y62098131D01*
X44469545Y62098066D01*
G37*
X44469545Y62098066D02*
X44432193Y62097712D01*
X44401863Y62097077D01*
X44378992Y62096169D01*
X44364015Y62094994D01*
X44361099Y62094586D01*
X44322659Y62084035D01*
X44287237Y62066071D01*
X44255741Y62041482D01*
X44229081Y62011054D01*
X44208166Y61975574D01*
X44199666Y61954833D01*
X44197297Y61947852D01*
X44195339Y61941035D01*
X44193745Y61933508D01*
X44192466Y61924399D01*
X44191455Y61912836D01*
X44190665Y61897945D01*
X44190047Y61878853D01*
X44189554Y61854689D01*
X44189139Y61824578D01*
X44188753Y61787648D01*
X44188398Y61748458D01*
X44186821Y61569600D01*
X44310299Y61569600D01*
X44310299Y61729934D01*
X44310337Y61773642D01*
X44310510Y61809770D01*
X44310914Y61839203D01*
X44311641Y61862828D01*
X44312785Y61881531D01*
X44314440Y61896198D01*
X44316699Y61907715D01*
X44319656Y61916968D01*
X44323404Y61924843D01*
X44328037Y61932227D01*
X44332281Y61938156D01*
X44341977Y61948379D01*
X44355153Y61958826D01*
X44361099Y61962655D01*
X44380149Y61973883D01*
X44514558Y61975162D01*
X44648966Y61976440D01*
X44648966Y61569600D01*
X44767499Y61569600D01*
X44767499Y62065024D01*
X44753012Y62080837D01*
X44738524Y62096650D01*
X44563570Y62097902D01*
X44513482Y62098131D01*
X44469545Y62098066D01*
G36*
X45164374Y62098700D02*
G01*
X45121848Y62098578D01*
X45086795Y62098171D01*
X45058225Y62097348D01*
X45035146Y62095977D01*
X45016567Y62093927D01*
X45001497Y62091066D01*
X44988944Y62087264D01*
X44977918Y62082389D01*
X44967426Y62076309D01*
X44960479Y62071688D01*
X44934873Y62049463D01*
X44915446Y62022026D01*
X44903283Y61993875D01*
X44901238Y61987477D01*
X44899537Y61980971D01*
X44898149Y61973546D01*
X44897042Y61964390D01*
X44896184Y61952692D01*
X44895543Y61937641D01*
X44895089Y61918426D01*
X44894789Y61894237D01*
X44894613Y61864261D01*
X44894527Y61827688D01*
X44894500Y61783707D01*
X44894499Y61768700D01*
X44894499Y61569600D01*
X45017266Y61569600D01*
X45017266Y61951251D01*
X45029641Y61963625D01*
X45042015Y61976000D01*
X45296666Y61976000D01*
X45296666Y62098766D01*
X45164374Y62098700D01*
G37*
X45164374Y62098700D02*
X45121848Y62098578D01*
X45086795Y62098171D01*
X45058225Y62097348D01*
X45035146Y62095977D01*
X45016567Y62093927D01*
X45001497Y62091066D01*
X44988944Y62087264D01*
X44977918Y62082389D01*
X44967426Y62076309D01*
X44960479Y62071688D01*
X44934873Y62049463D01*
X44915446Y62022026D01*
X44903283Y61993875D01*
X44901238Y61987477D01*
X44899537Y61980971D01*
X44898149Y61973546D01*
X44897042Y61964390D01*
X44896184Y61952692D01*
X44895543Y61937641D01*
X44895089Y61918426D01*
X44894789Y61894237D01*
X44894613Y61864261D01*
X44894527Y61827688D01*
X44894500Y61783707D01*
X44894499Y61768700D01*
X44894499Y61569600D01*
X45017266Y61569600D01*
X45017266Y61951251D01*
X45029641Y61963625D01*
X45042015Y61976000D01*
X45296666Y61976000D01*
X45296666Y62098766D01*
X45164374Y62098700D01*
G36*
X45351699Y61569600D02*
G01*
X45474466Y61569600D01*
X45474466Y62327366D01*
X45351699Y62327366D01*
X45351699Y61569600D01*
G37*
X45351699Y61569600D02*
X45474466Y61569600D01*
X45474466Y62327366D01*
X45351699Y62327366D01*
X45351699Y61569600D01*
G36*
X45584533Y61976253D02*
G01*
X45773266Y61975068D01*
X45962000Y61973883D01*
X45974350Y61960058D01*
X45986699Y61946233D01*
X45986699Y61739067D01*
X45974350Y61725242D01*
X45962000Y61711416D01*
X45773266Y61710231D01*
X45584533Y61709046D01*
X45584533Y61569600D01*
X45761274Y61569833D01*
X45805253Y61569918D01*
X45841669Y61570072D01*
X45871426Y61570331D01*
X45895428Y61570733D01*
X45914580Y61571314D01*
X45929786Y61572110D01*
X45941949Y61573160D01*
X45951973Y61574499D01*
X45960764Y61576164D01*
X45969223Y61578193D01*
X45969766Y61578334D01*
X46005950Y61591772D01*
X46038265Y61611765D01*
X46065660Y61637343D01*
X46087089Y61667535D01*
X46101075Y61699957D01*
X46103720Y61709345D01*
X46105751Y61719064D01*
X46107247Y61730368D01*
X46108286Y61744514D01*
X46108948Y61762756D01*
X46109310Y61786351D01*
X46109453Y61816555D01*
X46109466Y61833740D01*
X46109318Y61871856D01*
X46108760Y61902767D01*
X46107627Y61927729D01*
X46105749Y61948001D01*
X46102961Y61964839D01*
X46099094Y61979502D01*
X46093980Y61993246D01*
X46087454Y62007330D01*
X46085953Y62010320D01*
X46065717Y62041182D01*
X46039414Y62066399D01*
X46012551Y62082965D01*
X45984583Y62096650D01*
X45784558Y62097902D01*
X45584533Y62099153D01*
X45584533Y61976253D01*
G37*
X45584533Y61976253D02*
X45773266Y61975068D01*
X45962000Y61973883D01*
X45974350Y61960058D01*
X45986699Y61946233D01*
X45986699Y61739067D01*
X45974350Y61725242D01*
X45962000Y61711416D01*
X45773266Y61710231D01*
X45584533Y61709046D01*
X45584533Y61569600D01*
X45761274Y61569833D01*
X45805253Y61569918D01*
X45841669Y61570072D01*
X45871426Y61570331D01*
X45895428Y61570733D01*
X45914580Y61571314D01*
X45929786Y61572110D01*
X45941949Y61573160D01*
X45951973Y61574499D01*
X45960764Y61576164D01*
X45969223Y61578193D01*
X45969766Y61578334D01*
X46005950Y61591772D01*
X46038265Y61611765D01*
X46065660Y61637343D01*
X46087089Y61667535D01*
X46101075Y61699957D01*
X46103720Y61709345D01*
X46105751Y61719064D01*
X46107247Y61730368D01*
X46108286Y61744514D01*
X46108948Y61762756D01*
X46109310Y61786351D01*
X46109453Y61816555D01*
X46109466Y61833740D01*
X46109318Y61871856D01*
X46108760Y61902767D01*
X46107627Y61927729D01*
X46105749Y61948001D01*
X46102961Y61964839D01*
X46099094Y61979502D01*
X46093980Y61993246D01*
X46087454Y62007330D01*
X46085953Y62010320D01*
X46065717Y62041182D01*
X46039414Y62066399D01*
X46012551Y62082965D01*
X45984583Y62096650D01*
X45784558Y62097902D01*
X45584533Y62099153D01*
X45584533Y61976253D01*
G36*
X46435920Y62096622D02*
G01*
X46401528Y62096514D01*
X46373769Y62096284D01*
X46351724Y62095892D01*
X46334478Y62095298D01*
X46321113Y62094463D01*
X46310712Y62093347D01*
X46302359Y62091908D01*
X46295135Y62090108D01*
X46289708Y62088431D01*
X46257727Y62073737D01*
X46230853Y62052688D01*
X46209616Y62026050D01*
X46194541Y61994588D01*
X46186157Y61959068D01*
X46184553Y61935783D01*
X46187889Y61894518D01*
X46198546Y61857168D01*
X46216272Y61824149D01*
X46240812Y61795878D01*
X46271915Y61772768D01*
X46289383Y61763498D01*
X46319016Y61749516D01*
X46453424Y61748238D01*
X46587833Y61746960D01*
X46587833Y61870166D01*
X46463520Y61870166D01*
X46427752Y61870189D01*
X46399465Y61870301D01*
X46377670Y61870566D01*
X46361382Y61871049D01*
X46349614Y61871813D01*
X46341379Y61872924D01*
X46335691Y61874445D01*
X46331563Y61876441D01*
X46328008Y61878976D01*
X46327969Y61879007D01*
X46314225Y61894478D01*
X46306256Y61913380D01*
X46303964Y61933774D01*
X46307250Y61953722D01*
X46316014Y61971283D01*
X46330159Y61984518D01*
X46333435Y61986378D01*
X46338283Y61988280D01*
X46345271Y61989787D01*
X46355329Y61990942D01*
X46369386Y61991787D01*
X46388371Y61992366D01*
X46413213Y61992722D01*
X46444843Y61992896D01*
X46475937Y61992933D01*
X46605762Y61992933D01*
X46621778Y61976917D01*
X46628123Y61969979D01*
X46633118Y61962604D01*
X46636902Y61953750D01*
X46639611Y61942378D01*
X46641383Y61927445D01*
X46642356Y61907913D01*
X46642668Y61882740D01*
X46642457Y61850885D01*
X46642064Y61823600D01*
X46641412Y61790417D01*
X46640497Y61764580D01*
X46639072Y61744969D01*
X46636892Y61730461D01*
X46633712Y61719938D01*
X46629288Y61712278D01*
X46623373Y61706361D01*
X46615723Y61701065D01*
X46615181Y61700729D01*
X46610759Y61698288D01*
X46605631Y61696373D01*
X46598777Y61694920D01*
X46589177Y61693867D01*
X46575810Y61693149D01*
X46557656Y61692703D01*
X46533696Y61692467D01*
X46502910Y61692377D01*
X46480441Y61692366D01*
X46359233Y61692366D01*
X46359233Y61569600D01*
X46478824Y61569855D01*
X46515567Y61570007D01*
X46544984Y61570330D01*
X46568218Y61570885D01*
X46586410Y61571730D01*
X46600701Y61572927D01*
X46612232Y61574535D01*
X46622145Y61576615D01*
X46625933Y61577597D01*
X46649033Y61584714D01*
X46667584Y61592832D01*
X46685308Y61603836D01*
X46700664Y61615404D01*
X46725499Y61640276D01*
X46744585Y61670545D01*
X46754939Y61697427D01*
X46756975Y61705670D01*
X46758545Y61715224D01*
X46759689Y61727152D01*
X46760448Y61742519D01*
X46760859Y61762390D01*
X46760964Y61787830D01*
X46760801Y61819902D01*
X46760541Y61847711D01*
X46760133Y61883929D01*
X46759701Y61912761D01*
X46759166Y61935286D01*
X46758449Y61952584D01*
X46757469Y61965734D01*
X46756146Y61975817D01*
X46754401Y61983912D01*
X46752155Y61991098D01*
X46749425Y61998211D01*
X46734083Y62026170D01*
X46712230Y62051842D01*
X46685820Y62073172D01*
X46669089Y62082789D01*
X46640942Y62096650D01*
X46477862Y62096650D01*
X46435920Y62096622D01*
G37*
X46435920Y62096622D02*
X46401528Y62096514D01*
X46373769Y62096284D01*
X46351724Y62095892D01*
X46334478Y62095298D01*
X46321113Y62094463D01*
X46310712Y62093347D01*
X46302359Y62091908D01*
X46295135Y62090108D01*
X46289708Y62088431D01*
X46257727Y62073737D01*
X46230853Y62052688D01*
X46209616Y62026050D01*
X46194541Y61994588D01*
X46186157Y61959068D01*
X46184553Y61935783D01*
X46187889Y61894518D01*
X46198546Y61857168D01*
X46216272Y61824149D01*
X46240812Y61795878D01*
X46271915Y61772768D01*
X46289383Y61763498D01*
X46319016Y61749516D01*
X46453424Y61748238D01*
X46587833Y61746960D01*
X46587833Y61870166D01*
X46463520Y61870166D01*
X46427752Y61870189D01*
X46399465Y61870301D01*
X46377670Y61870566D01*
X46361382Y61871049D01*
X46349614Y61871813D01*
X46341379Y61872924D01*
X46335691Y61874445D01*
X46331563Y61876441D01*
X46328008Y61878976D01*
X46327969Y61879007D01*
X46314225Y61894478D01*
X46306256Y61913380D01*
X46303964Y61933774D01*
X46307250Y61953722D01*
X46316014Y61971283D01*
X46330159Y61984518D01*
X46333435Y61986378D01*
X46338283Y61988280D01*
X46345271Y61989787D01*
X46355329Y61990942D01*
X46369386Y61991787D01*
X46388371Y61992366D01*
X46413213Y61992722D01*
X46444843Y61992896D01*
X46475937Y61992933D01*
X46605762Y61992933D01*
X46621778Y61976917D01*
X46628123Y61969979D01*
X46633118Y61962604D01*
X46636902Y61953750D01*
X46639611Y61942378D01*
X46641383Y61927445D01*
X46642356Y61907913D01*
X46642668Y61882740D01*
X46642457Y61850885D01*
X46642064Y61823600D01*
X46641412Y61790417D01*
X46640497Y61764580D01*
X46639072Y61744969D01*
X46636892Y61730461D01*
X46633712Y61719938D01*
X46629288Y61712278D01*
X46623373Y61706361D01*
X46615723Y61701065D01*
X46615181Y61700729D01*
X46610759Y61698288D01*
X46605631Y61696373D01*
X46598777Y61694920D01*
X46589177Y61693867D01*
X46575810Y61693149D01*
X46557656Y61692703D01*
X46533696Y61692467D01*
X46502910Y61692377D01*
X46480441Y61692366D01*
X46359233Y61692366D01*
X46359233Y61569600D01*
X46478824Y61569855D01*
X46515567Y61570007D01*
X46544984Y61570330D01*
X46568218Y61570885D01*
X46586410Y61571730D01*
X46600701Y61572927D01*
X46612232Y61574535D01*
X46622145Y61576615D01*
X46625933Y61577597D01*
X46649033Y61584714D01*
X46667584Y61592832D01*
X46685308Y61603836D01*
X46700664Y61615404D01*
X46725499Y61640276D01*
X46744585Y61670545D01*
X46754939Y61697427D01*
X46756975Y61705670D01*
X46758545Y61715224D01*
X46759689Y61727152D01*
X46760448Y61742519D01*
X46760859Y61762390D01*
X46760964Y61787830D01*
X46760801Y61819902D01*
X46760541Y61847711D01*
X46760133Y61883929D01*
X46759701Y61912761D01*
X46759166Y61935286D01*
X46758449Y61952584D01*
X46757469Y61965734D01*
X46756146Y61975817D01*
X46754401Y61983912D01*
X46752155Y61991098D01*
X46749425Y61998211D01*
X46734083Y62026170D01*
X46712230Y62051842D01*
X46685820Y62073172D01*
X46669089Y62082789D01*
X46640942Y62096650D01*
X46477862Y62096650D01*
X46435920Y62096622D01*
G36*
X46782566Y62153914D02*
G01*
X46923324Y62152799D01*
X47064083Y62151683D01*
X47065170Y61860641D01*
X47066258Y61569600D01*
X47184733Y61569600D01*
X47184733Y62153800D01*
X47468366Y62153800D01*
X47468366Y62272333D01*
X46782566Y62272333D01*
X46782566Y62153914D01*
G37*
X46782566Y62153914D02*
X46923324Y62152799D01*
X47064083Y62151683D01*
X47065170Y61860641D01*
X47066258Y61569600D01*
X47184733Y61569600D01*
X47184733Y62153800D01*
X47468366Y62153800D01*
X47468366Y62272333D01*
X46782566Y62272333D01*
X46782566Y62153914D01*
G36*
X62466282Y67177235D02*
G01*
X62342568Y67177205D01*
X62219582Y67177161D01*
X62097621Y67177101D01*
X61976981Y67177026D01*
X61857959Y67176936D01*
X61740852Y67176832D01*
X61625956Y67176712D01*
X61513568Y67176577D01*
X61403984Y67176427D01*
X61297501Y67176262D01*
X61194415Y67176082D01*
X61095024Y67175887D01*
X60999624Y67175677D01*
X60908511Y67175452D01*
X60821982Y67175212D01*
X60740333Y67174957D01*
X60663862Y67174687D01*
X60592864Y67174402D01*
X60527637Y67174101D01*
X60468477Y67173786D01*
X60415681Y67173456D01*
X60369544Y67173111D01*
X60330365Y67172751D01*
X60298439Y67172375D01*
X60274063Y67171985D01*
X60257533Y67171580D01*
X60249147Y67171159D01*
X60248799Y67171120D01*
X60147986Y67154549D01*
X60050776Y67130399D01*
X59957319Y67098742D01*
X59867764Y67059646D01*
X59782258Y67013183D01*
X59700952Y66959422D01*
X59623994Y66898434D01*
X59574537Y66853174D01*
X59532396Y66810891D01*
X59495642Y66770599D01*
X59462351Y66730018D01*
X59430600Y66686868D01*
X59415141Y66664276D01*
X59363313Y66579878D01*
X59319545Y66493320D01*
X59283715Y66404234D01*
X59255695Y66312250D01*
X59235362Y66216997D01*
X59222589Y66118106D01*
X59220281Y66088683D01*
X59219927Y66079156D01*
X59219588Y66061508D01*
X59219264Y66036086D01*
X59218955Y66003235D01*
X59218660Y65963302D01*
X59218380Y65916632D01*
X59218115Y65863572D01*
X59217865Y65804468D01*
X59217629Y65739665D01*
X59217409Y65669511D01*
X59217202Y65594350D01*
X59217011Y65514529D01*
X59216835Y65430394D01*
X59216673Y65342291D01*
X59216526Y65250566D01*
X59216393Y65155565D01*
X59216276Y65057635D01*
X59216173Y64957120D01*
X59216085Y64854368D01*
X59216012Y64749724D01*
X59215953Y64643535D01*
X59215909Y64536146D01*
X59215880Y64427903D01*
X59215866Y64319153D01*
X59215867Y64210242D01*
X59215882Y64101515D01*
X59215912Y63993319D01*
X59215957Y63886000D01*
X59216016Y63779903D01*
X59216090Y63675375D01*
X59216179Y63572763D01*
X59216283Y63472411D01*
X59216402Y63374666D01*
X59216535Y63279874D01*
X59216683Y63188381D01*
X59216846Y63100534D01*
X59217024Y63016677D01*
X59217216Y62937158D01*
X59217423Y62862322D01*
X59217645Y62792516D01*
X59217881Y62728085D01*
X59218133Y62669375D01*
X59218399Y62616733D01*
X59218680Y62570504D01*
X59218975Y62531035D01*
X59219286Y62498672D01*
X59219611Y62473760D01*
X59219951Y62456647D01*
X59220281Y62448016D01*
X59229892Y62354301D01*
X59245979Y62264826D01*
X59268930Y62177951D01*
X59299133Y62092031D01*
X59311534Y62061775D01*
X59352661Y61975623D01*
X59401030Y61893297D01*
X59456141Y61815243D01*
X59517496Y61741903D01*
X59584596Y61673721D01*
X59656941Y61611142D01*
X59734033Y61554609D01*
X59815373Y61504565D01*
X59900462Y61461456D01*
X59988801Y61425724D01*
X60048176Y61406534D01*
X60090548Y61395224D01*
X60138112Y61384322D01*
X60187601Y61374535D01*
X60227828Y61367758D01*
X60231615Y61367222D01*
X60235962Y61366712D01*
X60241082Y61366227D01*
X60247184Y61365767D01*
X60254482Y61365332D01*
X60263185Y61364919D01*
X60273505Y61364529D01*
X60285653Y61364161D01*
X60299841Y61363814D01*
X60316279Y61363488D01*
X60335179Y61363181D01*
X60356751Y61362894D01*
X60381208Y61362625D01*
X60408761Y61362374D01*
X60439620Y61362140D01*
X60473997Y61361922D01*
X60512102Y61361720D01*
X60554149Y61361533D01*
X60600346Y61361360D01*
X60650906Y61361200D01*
X60706040Y61361054D01*
X60765959Y61360919D01*
X60830874Y61360796D01*
X60900997Y61360684D01*
X60976539Y61360582D01*
X61057710Y61360489D01*
X61144723Y61360405D01*
X61237787Y61360329D01*
X61337116Y61360260D01*
X61442919Y61360197D01*
X61555407Y61360141D01*
X61674794Y61360089D01*
X61801288Y61360042D01*
X61935102Y61359999D01*
X62076447Y61359959D01*
X62225533Y61359921D01*
X62382573Y61359885D01*
X62547778Y61359849D01*
X62621583Y61359834D01*
X62762261Y61359808D01*
X62900881Y61359788D01*
X63037197Y61359772D01*
X63170967Y61359762D01*
X63301948Y61359757D01*
X63429896Y61359756D01*
X63554567Y61359761D01*
X63675718Y61359770D01*
X63793106Y61359784D01*
X63906487Y61359803D01*
X64015619Y61359826D01*
X64120257Y61359853D01*
X64220157Y61359885D01*
X64315078Y61359921D01*
X64404775Y61359960D01*
X64489005Y61360004D01*
X64567524Y61360052D01*
X64640089Y61360104D01*
X64706457Y61360159D01*
X64766384Y61360218D01*
X64819628Y61360280D01*
X64865943Y61360346D01*
X64905087Y61360415D01*
X64936818Y61360488D01*
X64960890Y61360564D01*
X64977061Y61360642D01*
X64985087Y61360724D01*
X64985899Y61360751D01*
X65087816Y61372192D01*
X65186484Y61391370D01*
X65281766Y61418233D01*
X65373524Y61452725D01*
X65461619Y61494792D01*
X65545915Y61544382D01*
X65626272Y61601440D01*
X65649434Y61619878D01*
X65723840Y61685993D01*
X65791651Y61757323D01*
X65852717Y61833593D01*
X65906886Y61914525D01*
X65954007Y61999842D01*
X65993929Y62089268D01*
X66026501Y62182526D01*
X66051572Y62279339D01*
X66068991Y62379431D01*
X66070463Y62390866D01*
X66070940Y62398963D01*
X66071397Y62415189D01*
X66071835Y62439207D01*
X66072254Y62470679D01*
X66072654Y62509270D01*
X66073034Y62554641D01*
X66073395Y62606456D01*
X66073736Y62664377D01*
X66074058Y62728067D01*
X66074361Y62797188D01*
X66074644Y62871404D01*
X66074908Y62950377D01*
X66075152Y63033770D01*
X66075377Y63121246D01*
X66075583Y63212468D01*
X66075769Y63307098D01*
X66075936Y63404799D01*
X66076083Y63505234D01*
X66076211Y63608066D01*
X66076320Y63712958D01*
X66076409Y63819572D01*
X66076479Y63927571D01*
X66076530Y64036617D01*
X66076561Y64146375D01*
X66076573Y64256506D01*
X66076565Y64366673D01*
X66076538Y64476539D01*
X66076492Y64585767D01*
X66076426Y64694020D01*
X66076341Y64800960D01*
X66076236Y64906250D01*
X66076112Y65009553D01*
X66075969Y65110532D01*
X66075806Y65208849D01*
X66075624Y65304168D01*
X66075423Y65396150D01*
X66075202Y65484460D01*
X66074962Y65568759D01*
X66074702Y65648711D01*
X66074423Y65723978D01*
X66074125Y65794223D01*
X66073807Y65859108D01*
X66073470Y65918298D01*
X66073113Y65971453D01*
X66072737Y66018238D01*
X66072342Y66058314D01*
X66071927Y66091346D01*
X66071493Y66116995D01*
X66071040Y66134924D01*
X66070567Y66144796D01*
X66070463Y66145833D01*
X66054437Y66243200D01*
X65286630Y66243200D01*
X65285394Y64775291D01*
X65284158Y63307383D01*
X65274519Y63248440D01*
X65259572Y63169397D01*
X65241368Y63096412D01*
X65219274Y63027491D01*
X65192655Y62960641D01*
X65163313Y62898642D01*
X65127455Y62833061D01*
X65088584Y62772156D01*
X65045349Y62714088D01*
X64996402Y62657015D01*
X64952148Y62610761D01*
X64879237Y62543426D01*
X64802443Y62483613D01*
X64721801Y62431339D01*
X64637342Y62386621D01*
X64549101Y62349473D01*
X64457111Y62319913D01*
X64361405Y62297956D01*
X64278933Y62285490D01*
X64271049Y62285064D01*
X64255197Y62284662D01*
X64231877Y62284288D01*
X64201586Y62283943D01*
X64164824Y62283630D01*
X64122089Y62283350D01*
X64073881Y62283106D01*
X64020698Y62282901D01*
X63963038Y62282736D01*
X63901402Y62282613D01*
X63836287Y62282535D01*
X63768192Y62282504D01*
X63697617Y62282522D01*
X63625059Y62282591D01*
X63622766Y62282594D01*
X63537858Y62282708D01*
X63460983Y62282818D01*
X63391709Y62282930D01*
X63329601Y62283051D01*
X63274226Y62283187D01*
X63225151Y62283345D01*
X63181943Y62283531D01*
X63144168Y62283751D01*
X63111393Y62284012D01*
X63083184Y62284321D01*
X63059109Y62284683D01*
X63038734Y62285106D01*
X63021625Y62285596D01*
X63007349Y62286159D01*
X62995474Y62286802D01*
X62985564Y62287531D01*
X62977188Y62288352D01*
X62969912Y62289273D01*
X62963302Y62290299D01*
X62956926Y62291436D01*
X62950845Y62292597D01*
X62871808Y62311992D01*
X62796543Y62338702D01*
X62725414Y62372328D01*
X62658786Y62412470D01*
X62597022Y62458729D01*
X62540486Y62510706D01*
X62489542Y62568000D01*
X62444553Y62630214D01*
X62405884Y62696946D01*
X62373899Y62767798D01*
X62348961Y62842371D01*
X62331435Y62920264D01*
X62323298Y62981416D01*
X62322524Y62994127D01*
X62321824Y63014544D01*
X62321200Y63041909D01*
X62320649Y63075461D01*
X62320173Y63114442D01*
X62319771Y63158091D01*
X62319444Y63205650D01*
X62319190Y63256359D01*
X62319010Y63309457D01*
X62318904Y63364187D01*
X62318872Y63419788D01*
X62318913Y63475501D01*
X62319027Y63530566D01*
X62319215Y63584224D01*
X62319476Y63635715D01*
X62319811Y63684280D01*
X62320218Y63729159D01*
X62320698Y63769593D01*
X62321251Y63804822D01*
X62321877Y63834087D01*
X62322575Y63856628D01*
X62323345Y63871686D01*
X62323426Y63872745D01*
X62335358Y63971763D01*
X62355165Y64067669D01*
X62382846Y64160465D01*
X62418402Y64250151D01*
X62461833Y64336727D01*
X62513139Y64420193D01*
X62567768Y64494833D01*
X62588313Y64519321D01*
X62613696Y64547287D01*
X62642128Y64576936D01*
X62671822Y64606475D01*
X62700991Y64634109D01*
X62727847Y64658043D01*
X62742233Y64669982D01*
X62810591Y64720152D01*
X62884437Y64766045D01*
X62962118Y64806850D01*
X63041982Y64841752D01*
X63122376Y64869940D01*
X63181580Y64886079D01*
X63206338Y64891875D01*
X63228786Y64896851D01*
X63249814Y64901076D01*
X63270311Y64904618D01*
X63291166Y64907547D01*
X63313270Y64909929D01*
X63337510Y64911835D01*
X63364777Y64913332D01*
X63395960Y64914489D01*
X63431949Y64915374D01*
X63473632Y64916057D01*
X63521899Y64916605D01*
X63577640Y64917088D01*
X63584666Y64917143D01*
X63639693Y64917467D01*
X63700569Y64917643D01*
X63765195Y64917674D01*
X63831468Y64917568D01*
X63897288Y64917328D01*
X63960555Y64916959D01*
X64019166Y64916468D01*
X64061975Y64915980D01*
X64295866Y64912922D01*
X64295866Y64256765D01*
X63869358Y64258324D01*
X63799430Y64258572D01*
X63737439Y64258769D01*
X63682854Y64258910D01*
X63635146Y64258986D01*
X63593785Y64258991D01*
X63558240Y64258918D01*
X63527981Y64258760D01*
X63502479Y64258511D01*
X63481203Y64258164D01*
X63463624Y64257711D01*
X63449211Y64257146D01*
X63437434Y64256462D01*
X63427764Y64255652D01*
X63419670Y64254709D01*
X63412623Y64253627D01*
X63406092Y64252398D01*
X63405702Y64252319D01*
X63340504Y64234870D01*
X63278544Y64209919D01*
X63220476Y64177875D01*
X63166951Y64139147D01*
X63118623Y64094141D01*
X63080291Y64048846D01*
X63057318Y64014573D01*
X63035242Y63974586D01*
X63015374Y63931628D01*
X62999022Y63888443D01*
X62991008Y63861950D01*
X62977367Y63811150D01*
X62975907Y63466133D01*
X62975641Y63401691D01*
X62975441Y63345130D01*
X62975334Y63295864D01*
X62975347Y63253306D01*
X62975507Y63216872D01*
X62975842Y63185975D01*
X62976378Y63160029D01*
X62977142Y63138449D01*
X62978162Y63120648D01*
X62979464Y63106041D01*
X62981077Y63094042D01*
X62983026Y63084065D01*
X62985339Y63075525D01*
X62988043Y63067834D01*
X62991165Y63060408D01*
X62994732Y63052661D01*
X62995055Y63051973D01*
X63006672Y63032437D01*
X63023137Y63011431D01*
X63042199Y62991374D01*
X63061607Y62974688D01*
X63075314Y62965690D01*
X63082202Y62961893D01*
X63088400Y62958487D01*
X63094382Y62955449D01*
X63100619Y62952759D01*
X63107582Y62950396D01*
X63115745Y62948336D01*
X63125578Y62946560D01*
X63137554Y62945046D01*
X63152144Y62943772D01*
X63169820Y62942717D01*
X63191054Y62941859D01*
X63216319Y62941177D01*
X63246085Y62940649D01*
X63280825Y62940255D01*
X63321011Y62939972D01*
X63367114Y62939779D01*
X63419607Y62939655D01*
X63478960Y62939578D01*
X63545647Y62939527D01*
X63620139Y62939480D01*
X63652399Y62939457D01*
X63730216Y62939393D01*
X63800062Y62939335D01*
X63862435Y62939307D01*
X63917832Y62939329D01*
X63966750Y62939425D01*
X64009685Y62939616D01*
X64047134Y62939924D01*
X64079594Y62940371D01*
X64107562Y62940980D01*
X64131535Y62941772D01*
X64152009Y62942769D01*
X64169481Y62943994D01*
X64184448Y62945468D01*
X64197406Y62947213D01*
X64208854Y62949252D01*
X64219286Y62951607D01*
X64229201Y62954300D01*
X64239095Y62957352D01*
X64249465Y62960785D01*
X64260807Y62964623D01*
X64267092Y62966731D01*
X64327382Y62991202D01*
X64383841Y63022907D01*
X64435899Y63061268D01*
X64482987Y63105707D01*
X64524534Y63155643D01*
X64559972Y63210500D01*
X64588732Y63269699D01*
X64602790Y63307811D01*
X64605062Y63314518D01*
X64607192Y63320462D01*
X64609185Y63325917D01*
X64611046Y63331160D01*
X64612779Y63336465D01*
X64614390Y63342107D01*
X64615882Y63348362D01*
X64617262Y63355505D01*
X64618533Y63363811D01*
X64619701Y63373555D01*
X64620769Y63385013D01*
X64621744Y63398460D01*
X64622629Y63414170D01*
X64623430Y63432420D01*
X64624151Y63453484D01*
X64624797Y63477638D01*
X64625373Y63505156D01*
X64625883Y63536315D01*
X64626333Y63571388D01*
X64626727Y63610653D01*
X64627069Y63654382D01*
X64627366Y63702853D01*
X64627620Y63756340D01*
X64627838Y63815118D01*
X64628024Y63879463D01*
X64628182Y63949649D01*
X64628318Y64025953D01*
X64628436Y64108648D01*
X64628542Y64198011D01*
X64628639Y64294316D01*
X64628732Y64397840D01*
X64628827Y64508856D01*
X64628928Y64627640D01*
X64629040Y64754468D01*
X64629106Y64826091D01*
X64630446Y66243200D01*
X62975095Y66243200D01*
X62972949Y65023214D01*
X62907333Y64994847D01*
X62814945Y64950458D01*
X62726626Y64899067D01*
X62642884Y64841099D01*
X62564228Y64776981D01*
X62491168Y64707139D01*
X62424213Y64631998D01*
X62363870Y64551984D01*
X62345552Y64524670D01*
X62335208Y64509180D01*
X62326385Y64496716D01*
X62320167Y64488769D01*
X62317841Y64486665D01*
X62317532Y64490804D01*
X62317231Y64503015D01*
X62316939Y64522907D01*
X62316659Y64550086D01*
X62316391Y64584158D01*
X62316347Y64591292D01*
X62151298Y64591292D01*
X62151296Y64583733D01*
X62150768Y64542296D01*
X62149050Y64507098D01*
X62145801Y64475956D01*
X62140681Y64446687D01*
X62133348Y64417105D01*
X62123460Y64385028D01*
X62117529Y64367593D01*
X62093197Y64306556D01*
X62064189Y64250712D01*
X62029460Y64198416D01*
X61987968Y64148024D01*
X61959246Y64117870D01*
X61905050Y64068486D01*
X61848724Y64026878D01*
X61789283Y63992431D01*
X61725741Y63964532D01*
X61696958Y63954410D01*
X61640853Y63939330D01*
X61580215Y63928939D01*
X61517713Y63923478D01*
X61456020Y63923188D01*
X61401631Y63927780D01*
X61336250Y63940398D01*
X61270527Y63960396D01*
X61206403Y63987002D01*
X61145818Y64019443D01*
X61106488Y64045257D01*
X61088095Y64059527D01*
X61066154Y64078306D01*
X61042506Y64099849D01*
X61018991Y64122410D01*
X60997448Y64144244D01*
X60979718Y64163605D01*
X60972138Y64172720D01*
X60957414Y64191390D01*
X60928015Y64173917D01*
X60874066Y64136994D01*
X60825078Y64093573D01*
X60781653Y64044412D01*
X60744393Y63990272D01*
X60713902Y63931912D01*
X60693188Y63877796D01*
X60689895Y63867726D01*
X60686882Y63858676D01*
X60684136Y63850252D01*
X60681644Y63842060D01*
X60679392Y63833705D01*
X60677369Y63824792D01*
X60675560Y63814926D01*
X60673954Y63803713D01*
X60672536Y63790759D01*
X60671293Y63775668D01*
X60670213Y63758046D01*
X60669283Y63737498D01*
X60668489Y63713630D01*
X60667819Y63686048D01*
X60667259Y63654355D01*
X60666797Y63618159D01*
X60666419Y63577064D01*
X60666113Y63530675D01*
X60665864Y63478599D01*
X60665661Y63420439D01*
X60665491Y63355803D01*
X60665339Y63284294D01*
X60665194Y63205519D01*
X60665041Y63119082D01*
X60664869Y63024590D01*
X60664861Y63020549D01*
X60663441Y62272281D01*
X60336529Y62273365D01*
X60009616Y62274450D01*
X60008352Y63023750D01*
X60008189Y63137034D01*
X60008096Y63241891D01*
X60008074Y63338359D01*
X60008123Y63426478D01*
X60008243Y63506286D01*
X60008435Y63577823D01*
X60008697Y63641127D01*
X60009031Y63696237D01*
X60009437Y63743192D01*
X60009915Y63782032D01*
X60010464Y63812794D01*
X60011086Y63835519D01*
X60011678Y63848658D01*
X60019698Y63935966D01*
X60033076Y64018138D01*
X60052272Y64096944D01*
X60077746Y64174152D01*
X60109955Y64251533D01*
X60123910Y64281050D01*
X60157103Y64344729D01*
X60192301Y64403102D01*
X60230872Y64458071D01*
X60274186Y64511538D01*
X60323611Y64565406D01*
X60341817Y64583916D01*
X60396655Y64636127D01*
X60450623Y64681739D01*
X60505655Y64722144D01*
X60563685Y64758733D01*
X60626644Y64792897D01*
X60644616Y64801826D01*
X60692549Y64824296D01*
X60736752Y64842862D01*
X60780281Y64858684D01*
X60826195Y64872919D01*
X60848479Y64879125D01*
X60904176Y64894179D01*
X60937379Y64945257D01*
X60962144Y64979859D01*
X60991916Y65015796D01*
X61024842Y65051152D01*
X61059072Y65084015D01*
X61092756Y65112472D01*
X61114563Y65128437D01*
X61179484Y65167562D01*
X61246918Y65198819D01*
X61316299Y65222206D01*
X61387063Y65237717D01*
X61458645Y65245350D01*
X61530480Y65245099D01*
X61602002Y65236962D01*
X61672646Y65220934D01*
X61741848Y65197012D01*
X61809041Y65165191D01*
X61861699Y65133563D01*
X61887320Y65114746D01*
X61915929Y65090616D01*
X61945799Y65062894D01*
X61975201Y65033299D01*
X62002408Y65003550D01*
X62025692Y64975368D01*
X62038903Y64957238D01*
X62076633Y64894119D01*
X62107751Y64826153D01*
X62131889Y64754218D01*
X62142089Y64713124D01*
X62145420Y64696651D01*
X62147862Y64681024D01*
X62149545Y64664459D01*
X62150594Y64645171D01*
X62151136Y64621377D01*
X62151298Y64591292D01*
X62316347Y64591292D01*
X62316137Y64624731D01*
X62315898Y64671410D01*
X62315676Y64723804D01*
X62315472Y64781517D01*
X62315288Y64844158D01*
X62315125Y64911333D01*
X62314984Y64982649D01*
X62314868Y65057712D01*
X62314776Y65136129D01*
X62314711Y65217507D01*
X62314674Y65301452D01*
X62314666Y65364783D01*
X62314666Y66226267D01*
X60663666Y66226267D01*
X60663666Y65019698D01*
X60645674Y65012617D01*
X60628994Y65005423D01*
X60606671Y64994891D01*
X60580403Y64981904D01*
X60551888Y64967346D01*
X60522824Y64952099D01*
X60494907Y64937047D01*
X60469837Y64923071D01*
X60449310Y64911056D01*
X60443533Y64907489D01*
X60364656Y64853669D01*
X60288686Y64793549D01*
X60216757Y64728222D01*
X60150005Y64658778D01*
X60089565Y64586309D01*
X60044275Y64523556D01*
X60032583Y64506538D01*
X60022349Y64492408D01*
X60014574Y64482497D01*
X60010266Y64478140D01*
X60009974Y64478047D01*
X60009454Y64482206D01*
X60009006Y64494511D01*
X60008633Y64514644D01*
X60008333Y64542283D01*
X60008109Y64577110D01*
X60007960Y64618804D01*
X60007887Y64667047D01*
X60007891Y64721518D01*
X60007972Y64781898D01*
X60008131Y64847866D01*
X60008369Y64919103D01*
X60008685Y64995290D01*
X60008916Y65043752D01*
X60009279Y65119290D01*
X60009629Y65197017D01*
X60009962Y65276014D01*
X60010275Y65355362D01*
X60010566Y65434142D01*
X60010832Y65511435D01*
X60011069Y65586321D01*
X60011275Y65657882D01*
X60011446Y65725199D01*
X60011580Y65787352D01*
X60011674Y65843423D01*
X60011724Y65892492D01*
X60011733Y65917935D01*
X60011733Y66226267D01*
X60663666Y66226267D01*
X62314666Y66226267D01*
X62314666Y66243200D01*
X62975095Y66243200D01*
X64630446Y66243200D01*
X65286630Y66243200D01*
X66054437Y66243200D01*
X66053902Y66246446D01*
X66029679Y66343753D01*
X65997907Y66437516D01*
X65958700Y66527498D01*
X65912173Y66613464D01*
X65858439Y66695174D01*
X65797614Y66772394D01*
X65737045Y66837712D01*
X65664060Y66904808D01*
X65586372Y66964916D01*
X65504216Y67017919D01*
X65417830Y67063705D01*
X65327451Y67102158D01*
X65233316Y67133165D01*
X65135661Y67156612D01*
X65045166Y67171130D01*
X65037526Y67171551D01*
X65021717Y67171958D01*
X64998034Y67172349D01*
X64966774Y67172726D01*
X64928234Y67173087D01*
X64882711Y67173434D01*
X64830501Y67173765D01*
X64771901Y67174082D01*
X64707207Y67174383D01*
X64636716Y67174669D01*
X64560725Y67174940D01*
X64479529Y67175196D01*
X64393427Y67175438D01*
X64302714Y67175664D01*
X64207687Y67175875D01*
X64108642Y67176071D01*
X64005877Y67176252D01*
X63899687Y67176417D01*
X63790369Y67176568D01*
X63678221Y67176704D01*
X63563538Y67176825D01*
X63446618Y67176931D01*
X63327756Y67177021D01*
X63207249Y67177097D01*
X63085395Y67177157D01*
X62962489Y67177203D01*
X62838828Y67177233D01*
X62714709Y67177249D01*
X62590428Y67177249D01*
X62466282Y67177235D01*
G37*
X62466282Y67177235D02*
X62342568Y67177205D01*
X62219582Y67177161D01*
X62097621Y67177101D01*
X61976981Y67177026D01*
X61857959Y67176936D01*
X61740852Y67176832D01*
X61625956Y67176712D01*
X61513568Y67176577D01*
X61403984Y67176427D01*
X61297501Y67176262D01*
X61194415Y67176082D01*
X61095024Y67175887D01*
X60999624Y67175677D01*
X60908511Y67175452D01*
X60821982Y67175212D01*
X60740333Y67174957D01*
X60663862Y67174687D01*
X60592864Y67174402D01*
X60527637Y67174101D01*
X60468477Y67173786D01*
X60415681Y67173456D01*
X60369544Y67173111D01*
X60330365Y67172751D01*
X60298439Y67172375D01*
X60274063Y67171985D01*
X60257533Y67171580D01*
X60249147Y67171159D01*
X60248799Y67171120D01*
X60147986Y67154549D01*
X60050776Y67130399D01*
X59957319Y67098742D01*
X59867764Y67059646D01*
X59782258Y67013183D01*
X59700952Y66959422D01*
X59623994Y66898434D01*
X59574537Y66853174D01*
X59532396Y66810891D01*
X59495642Y66770599D01*
X59462351Y66730018D01*
X59430600Y66686868D01*
X59415141Y66664276D01*
X59363313Y66579878D01*
X59319545Y66493320D01*
X59283715Y66404234D01*
X59255695Y66312250D01*
X59235362Y66216997D01*
X59222589Y66118106D01*
X59220281Y66088683D01*
X59219927Y66079156D01*
X59219588Y66061508D01*
X59219264Y66036086D01*
X59218955Y66003235D01*
X59218660Y65963302D01*
X59218380Y65916632D01*
X59218115Y65863572D01*
X59217865Y65804468D01*
X59217629Y65739665D01*
X59217409Y65669511D01*
X59217202Y65594350D01*
X59217011Y65514529D01*
X59216835Y65430394D01*
X59216673Y65342291D01*
X59216526Y65250566D01*
X59216393Y65155565D01*
X59216276Y65057635D01*
X59216173Y64957120D01*
X59216085Y64854368D01*
X59216012Y64749724D01*
X59215953Y64643535D01*
X59215909Y64536146D01*
X59215880Y64427903D01*
X59215866Y64319153D01*
X59215867Y64210242D01*
X59215882Y64101515D01*
X59215912Y63993319D01*
X59215957Y63886000D01*
X59216016Y63779903D01*
X59216090Y63675375D01*
X59216179Y63572763D01*
X59216283Y63472411D01*
X59216402Y63374666D01*
X59216535Y63279874D01*
X59216683Y63188381D01*
X59216846Y63100534D01*
X59217024Y63016677D01*
X59217216Y62937158D01*
X59217423Y62862322D01*
X59217645Y62792516D01*
X59217881Y62728085D01*
X59218133Y62669375D01*
X59218399Y62616733D01*
X59218680Y62570504D01*
X59218975Y62531035D01*
X59219286Y62498672D01*
X59219611Y62473760D01*
X59219951Y62456647D01*
X59220281Y62448016D01*
X59229892Y62354301D01*
X59245979Y62264826D01*
X59268930Y62177951D01*
X59299133Y62092031D01*
X59311534Y62061775D01*
X59352661Y61975623D01*
X59401030Y61893297D01*
X59456141Y61815243D01*
X59517496Y61741903D01*
X59584596Y61673721D01*
X59656941Y61611142D01*
X59734033Y61554609D01*
X59815373Y61504565D01*
X59900462Y61461456D01*
X59988801Y61425724D01*
X60048176Y61406534D01*
X60090548Y61395224D01*
X60138112Y61384322D01*
X60187601Y61374535D01*
X60227828Y61367758D01*
X60231615Y61367222D01*
X60235962Y61366712D01*
X60241082Y61366227D01*
X60247184Y61365767D01*
X60254482Y61365332D01*
X60263185Y61364919D01*
X60273505Y61364529D01*
X60285653Y61364161D01*
X60299841Y61363814D01*
X60316279Y61363488D01*
X60335179Y61363181D01*
X60356751Y61362894D01*
X60381208Y61362625D01*
X60408761Y61362374D01*
X60439620Y61362140D01*
X60473997Y61361922D01*
X60512102Y61361720D01*
X60554149Y61361533D01*
X60600346Y61361360D01*
X60650906Y61361200D01*
X60706040Y61361054D01*
X60765959Y61360919D01*
X60830874Y61360796D01*
X60900997Y61360684D01*
X60976539Y61360582D01*
X61057710Y61360489D01*
X61144723Y61360405D01*
X61237787Y61360329D01*
X61337116Y61360260D01*
X61442919Y61360197D01*
X61555407Y61360141D01*
X61674794Y61360089D01*
X61801288Y61360042D01*
X61935102Y61359999D01*
X62076447Y61359959D01*
X62225533Y61359921D01*
X62382573Y61359885D01*
X62547778Y61359849D01*
X62621583Y61359834D01*
X62762261Y61359808D01*
X62900881Y61359788D01*
X63037197Y61359772D01*
X63170967Y61359762D01*
X63301948Y61359757D01*
X63429896Y61359756D01*
X63554567Y61359761D01*
X63675718Y61359770D01*
X63793106Y61359784D01*
X63906487Y61359803D01*
X64015619Y61359826D01*
X64120257Y61359853D01*
X64220157Y61359885D01*
X64315078Y61359921D01*
X64404775Y61359960D01*
X64489005Y61360004D01*
X64567524Y61360052D01*
X64640089Y61360104D01*
X64706457Y61360159D01*
X64766384Y61360218D01*
X64819628Y61360280D01*
X64865943Y61360346D01*
X64905087Y61360415D01*
X64936818Y61360488D01*
X64960890Y61360564D01*
X64977061Y61360642D01*
X64985087Y61360724D01*
X64985899Y61360751D01*
X65087816Y61372192D01*
X65186484Y61391370D01*
X65281766Y61418233D01*
X65373524Y61452725D01*
X65461619Y61494792D01*
X65545915Y61544382D01*
X65626272Y61601440D01*
X65649434Y61619878D01*
X65723840Y61685993D01*
X65791651Y61757323D01*
X65852717Y61833593D01*
X65906886Y61914525D01*
X65954007Y61999842D01*
X65993929Y62089268D01*
X66026501Y62182526D01*
X66051572Y62279339D01*
X66068991Y62379431D01*
X66070463Y62390866D01*
X66070940Y62398963D01*
X66071397Y62415189D01*
X66071835Y62439207D01*
X66072254Y62470679D01*
X66072654Y62509270D01*
X66073034Y62554641D01*
X66073395Y62606456D01*
X66073736Y62664377D01*
X66074058Y62728067D01*
X66074361Y62797188D01*
X66074644Y62871404D01*
X66074908Y62950377D01*
X66075152Y63033770D01*
X66075377Y63121246D01*
X66075583Y63212468D01*
X66075769Y63307098D01*
X66075936Y63404799D01*
X66076083Y63505234D01*
X66076211Y63608066D01*
X66076320Y63712958D01*
X66076409Y63819572D01*
X66076479Y63927571D01*
X66076530Y64036617D01*
X66076561Y64146375D01*
X66076573Y64256506D01*
X66076565Y64366673D01*
X66076538Y64476539D01*
X66076492Y64585767D01*
X66076426Y64694020D01*
X66076341Y64800960D01*
X66076236Y64906250D01*
X66076112Y65009553D01*
X66075969Y65110532D01*
X66075806Y65208849D01*
X66075624Y65304168D01*
X66075423Y65396150D01*
X66075202Y65484460D01*
X66074962Y65568759D01*
X66074702Y65648711D01*
X66074423Y65723978D01*
X66074125Y65794223D01*
X66073807Y65859108D01*
X66073470Y65918298D01*
X66073113Y65971453D01*
X66072737Y66018238D01*
X66072342Y66058314D01*
X66071927Y66091346D01*
X66071493Y66116995D01*
X66071040Y66134924D01*
X66070567Y66144796D01*
X66070463Y66145833D01*
X66054437Y66243200D01*
X65286630Y66243200D01*
X65285394Y64775291D01*
X65284158Y63307383D01*
X65274519Y63248440D01*
X65259572Y63169397D01*
X65241368Y63096412D01*
X65219274Y63027491D01*
X65192655Y62960641D01*
X65163313Y62898642D01*
X65127455Y62833061D01*
X65088584Y62772156D01*
X65045349Y62714088D01*
X64996402Y62657015D01*
X64952148Y62610761D01*
X64879237Y62543426D01*
X64802443Y62483613D01*
X64721801Y62431339D01*
X64637342Y62386621D01*
X64549101Y62349473D01*
X64457111Y62319913D01*
X64361405Y62297956D01*
X64278933Y62285490D01*
X64271049Y62285064D01*
X64255197Y62284662D01*
X64231877Y62284288D01*
X64201586Y62283943D01*
X64164824Y62283630D01*
X64122089Y62283350D01*
X64073881Y62283106D01*
X64020698Y62282901D01*
X63963038Y62282736D01*
X63901402Y62282613D01*
X63836287Y62282535D01*
X63768192Y62282504D01*
X63697617Y62282522D01*
X63625059Y62282591D01*
X63622766Y62282594D01*
X63537858Y62282708D01*
X63460983Y62282818D01*
X63391709Y62282930D01*
X63329601Y62283051D01*
X63274226Y62283187D01*
X63225151Y62283345D01*
X63181943Y62283531D01*
X63144168Y62283751D01*
X63111393Y62284012D01*
X63083184Y62284321D01*
X63059109Y62284683D01*
X63038734Y62285106D01*
X63021625Y62285596D01*
X63007349Y62286159D01*
X62995474Y62286802D01*
X62985564Y62287531D01*
X62977188Y62288352D01*
X62969912Y62289273D01*
X62963302Y62290299D01*
X62956926Y62291436D01*
X62950845Y62292597D01*
X62871808Y62311992D01*
X62796543Y62338702D01*
X62725414Y62372328D01*
X62658786Y62412470D01*
X62597022Y62458729D01*
X62540486Y62510706D01*
X62489542Y62568000D01*
X62444553Y62630214D01*
X62405884Y62696946D01*
X62373899Y62767798D01*
X62348961Y62842371D01*
X62331435Y62920264D01*
X62323298Y62981416D01*
X62322524Y62994127D01*
X62321824Y63014544D01*
X62321200Y63041909D01*
X62320649Y63075461D01*
X62320173Y63114442D01*
X62319771Y63158091D01*
X62319444Y63205650D01*
X62319190Y63256359D01*
X62319010Y63309457D01*
X62318904Y63364187D01*
X62318872Y63419788D01*
X62318913Y63475501D01*
X62319027Y63530566D01*
X62319215Y63584224D01*
X62319476Y63635715D01*
X62319811Y63684280D01*
X62320218Y63729159D01*
X62320698Y63769593D01*
X62321251Y63804822D01*
X62321877Y63834087D01*
X62322575Y63856628D01*
X62323345Y63871686D01*
X62323426Y63872745D01*
X62335358Y63971763D01*
X62355165Y64067669D01*
X62382846Y64160465D01*
X62418402Y64250151D01*
X62461833Y64336727D01*
X62513139Y64420193D01*
X62567768Y64494833D01*
X62588313Y64519321D01*
X62613696Y64547287D01*
X62642128Y64576936D01*
X62671822Y64606475D01*
X62700991Y64634109D01*
X62727847Y64658043D01*
X62742233Y64669982D01*
X62810591Y64720152D01*
X62884437Y64766045D01*
X62962118Y64806850D01*
X63041982Y64841752D01*
X63122376Y64869940D01*
X63181580Y64886079D01*
X63206338Y64891875D01*
X63228786Y64896851D01*
X63249814Y64901076D01*
X63270311Y64904618D01*
X63291166Y64907547D01*
X63313270Y64909929D01*
X63337510Y64911835D01*
X63364777Y64913332D01*
X63395960Y64914489D01*
X63431949Y64915374D01*
X63473632Y64916057D01*
X63521899Y64916605D01*
X63577640Y64917088D01*
X63584666Y64917143D01*
X63639693Y64917467D01*
X63700569Y64917643D01*
X63765195Y64917674D01*
X63831468Y64917568D01*
X63897288Y64917328D01*
X63960555Y64916959D01*
X64019166Y64916468D01*
X64061975Y64915980D01*
X64295866Y64912922D01*
X64295866Y64256765D01*
X63869358Y64258324D01*
X63799430Y64258572D01*
X63737439Y64258769D01*
X63682854Y64258910D01*
X63635146Y64258986D01*
X63593785Y64258991D01*
X63558240Y64258918D01*
X63527981Y64258760D01*
X63502479Y64258511D01*
X63481203Y64258164D01*
X63463624Y64257711D01*
X63449211Y64257146D01*
X63437434Y64256462D01*
X63427764Y64255652D01*
X63419670Y64254709D01*
X63412623Y64253627D01*
X63406092Y64252398D01*
X63405702Y64252319D01*
X63340504Y64234870D01*
X63278544Y64209919D01*
X63220476Y64177875D01*
X63166951Y64139147D01*
X63118623Y64094141D01*
X63080291Y64048846D01*
X63057318Y64014573D01*
X63035242Y63974586D01*
X63015374Y63931628D01*
X62999022Y63888443D01*
X62991008Y63861950D01*
X62977367Y63811150D01*
X62975907Y63466133D01*
X62975641Y63401691D01*
X62975441Y63345130D01*
X62975334Y63295864D01*
X62975347Y63253306D01*
X62975507Y63216872D01*
X62975842Y63185975D01*
X62976378Y63160029D01*
X62977142Y63138449D01*
X62978162Y63120648D01*
X62979464Y63106041D01*
X62981077Y63094042D01*
X62983026Y63084065D01*
X62985339Y63075525D01*
X62988043Y63067834D01*
X62991165Y63060408D01*
X62994732Y63052661D01*
X62995055Y63051973D01*
X63006672Y63032437D01*
X63023137Y63011431D01*
X63042199Y62991374D01*
X63061607Y62974688D01*
X63075314Y62965690D01*
X63082202Y62961893D01*
X63088400Y62958487D01*
X63094382Y62955449D01*
X63100619Y62952759D01*
X63107582Y62950396D01*
X63115745Y62948336D01*
X63125578Y62946560D01*
X63137554Y62945046D01*
X63152144Y62943772D01*
X63169820Y62942717D01*
X63191054Y62941859D01*
X63216319Y62941177D01*
X63246085Y62940649D01*
X63280825Y62940255D01*
X63321011Y62939972D01*
X63367114Y62939779D01*
X63419607Y62939655D01*
X63478960Y62939578D01*
X63545647Y62939527D01*
X63620139Y62939480D01*
X63652399Y62939457D01*
X63730216Y62939393D01*
X63800062Y62939335D01*
X63862435Y62939307D01*
X63917832Y62939329D01*
X63966750Y62939425D01*
X64009685Y62939616D01*
X64047134Y62939924D01*
X64079594Y62940371D01*
X64107562Y62940980D01*
X64131535Y62941772D01*
X64152009Y62942769D01*
X64169481Y62943994D01*
X64184448Y62945468D01*
X64197406Y62947213D01*
X64208854Y62949252D01*
X64219286Y62951607D01*
X64229201Y62954300D01*
X64239095Y62957352D01*
X64249465Y62960785D01*
X64260807Y62964623D01*
X64267092Y62966731D01*
X64327382Y62991202D01*
X64383841Y63022907D01*
X64435899Y63061268D01*
X64482987Y63105707D01*
X64524534Y63155643D01*
X64559972Y63210500D01*
X64588732Y63269699D01*
X64602790Y63307811D01*
X64605062Y63314518D01*
X64607192Y63320462D01*
X64609185Y63325917D01*
X64611046Y63331160D01*
X64612779Y63336465D01*
X64614390Y63342107D01*
X64615882Y63348362D01*
X64617262Y63355505D01*
X64618533Y63363811D01*
X64619701Y63373555D01*
X64620769Y63385013D01*
X64621744Y63398460D01*
X64622629Y63414170D01*
X64623430Y63432420D01*
X64624151Y63453484D01*
X64624797Y63477638D01*
X64625373Y63505156D01*
X64625883Y63536315D01*
X64626333Y63571388D01*
X64626727Y63610653D01*
X64627069Y63654382D01*
X64627366Y63702853D01*
X64627620Y63756340D01*
X64627838Y63815118D01*
X64628024Y63879463D01*
X64628182Y63949649D01*
X64628318Y64025953D01*
X64628436Y64108648D01*
X64628542Y64198011D01*
X64628639Y64294316D01*
X64628732Y64397840D01*
X64628827Y64508856D01*
X64628928Y64627640D01*
X64629040Y64754468D01*
X64629106Y64826091D01*
X64630446Y66243200D01*
X62975095Y66243200D01*
X62972949Y65023214D01*
X62907333Y64994847D01*
X62814945Y64950458D01*
X62726626Y64899067D01*
X62642884Y64841099D01*
X62564228Y64776981D01*
X62491168Y64707139D01*
X62424213Y64631998D01*
X62363870Y64551984D01*
X62345552Y64524670D01*
X62335208Y64509180D01*
X62326385Y64496716D01*
X62320167Y64488769D01*
X62317841Y64486665D01*
X62317532Y64490804D01*
X62317231Y64503015D01*
X62316939Y64522907D01*
X62316659Y64550086D01*
X62316391Y64584158D01*
X62316347Y64591292D01*
X62151298Y64591292D01*
X62151296Y64583733D01*
X62150768Y64542296D01*
X62149050Y64507098D01*
X62145801Y64475956D01*
X62140681Y64446687D01*
X62133348Y64417105D01*
X62123460Y64385028D01*
X62117529Y64367593D01*
X62093197Y64306556D01*
X62064189Y64250712D01*
X62029460Y64198416D01*
X61987968Y64148024D01*
X61959246Y64117870D01*
X61905050Y64068486D01*
X61848724Y64026878D01*
X61789283Y63992431D01*
X61725741Y63964532D01*
X61696958Y63954410D01*
X61640853Y63939330D01*
X61580215Y63928939D01*
X61517713Y63923478D01*
X61456020Y63923188D01*
X61401631Y63927780D01*
X61336250Y63940398D01*
X61270527Y63960396D01*
X61206403Y63987002D01*
X61145818Y64019443D01*
X61106488Y64045257D01*
X61088095Y64059527D01*
X61066154Y64078306D01*
X61042506Y64099849D01*
X61018991Y64122410D01*
X60997448Y64144244D01*
X60979718Y64163605D01*
X60972138Y64172720D01*
X60957414Y64191390D01*
X60928015Y64173917D01*
X60874066Y64136994D01*
X60825078Y64093573D01*
X60781653Y64044412D01*
X60744393Y63990272D01*
X60713902Y63931912D01*
X60693188Y63877796D01*
X60689895Y63867726D01*
X60686882Y63858676D01*
X60684136Y63850252D01*
X60681644Y63842060D01*
X60679392Y63833705D01*
X60677369Y63824792D01*
X60675560Y63814926D01*
X60673954Y63803713D01*
X60672536Y63790759D01*
X60671293Y63775668D01*
X60670213Y63758046D01*
X60669283Y63737498D01*
X60668489Y63713630D01*
X60667819Y63686048D01*
X60667259Y63654355D01*
X60666797Y63618159D01*
X60666419Y63577064D01*
X60666113Y63530675D01*
X60665864Y63478599D01*
X60665661Y63420439D01*
X60665491Y63355803D01*
X60665339Y63284294D01*
X60665194Y63205519D01*
X60665041Y63119082D01*
X60664869Y63024590D01*
X60664861Y63020549D01*
X60663441Y62272281D01*
X60336529Y62273365D01*
X60009616Y62274450D01*
X60008352Y63023750D01*
X60008189Y63137034D01*
X60008096Y63241891D01*
X60008074Y63338359D01*
X60008123Y63426478D01*
X60008243Y63506286D01*
X60008435Y63577823D01*
X60008697Y63641127D01*
X60009031Y63696237D01*
X60009437Y63743192D01*
X60009915Y63782032D01*
X60010464Y63812794D01*
X60011086Y63835519D01*
X60011678Y63848658D01*
X60019698Y63935966D01*
X60033076Y64018138D01*
X60052272Y64096944D01*
X60077746Y64174152D01*
X60109955Y64251533D01*
X60123910Y64281050D01*
X60157103Y64344729D01*
X60192301Y64403102D01*
X60230872Y64458071D01*
X60274186Y64511538D01*
X60323611Y64565406D01*
X60341817Y64583916D01*
X60396655Y64636127D01*
X60450623Y64681739D01*
X60505655Y64722144D01*
X60563685Y64758733D01*
X60626644Y64792897D01*
X60644616Y64801826D01*
X60692549Y64824296D01*
X60736752Y64842862D01*
X60780281Y64858684D01*
X60826195Y64872919D01*
X60848479Y64879125D01*
X60904176Y64894179D01*
X60937379Y64945257D01*
X60962144Y64979859D01*
X60991916Y65015796D01*
X61024842Y65051152D01*
X61059072Y65084015D01*
X61092756Y65112472D01*
X61114563Y65128437D01*
X61179484Y65167562D01*
X61246918Y65198819D01*
X61316299Y65222206D01*
X61387063Y65237717D01*
X61458645Y65245350D01*
X61530480Y65245099D01*
X61602002Y65236962D01*
X61672646Y65220934D01*
X61741848Y65197012D01*
X61809041Y65165191D01*
X61861699Y65133563D01*
X61887320Y65114746D01*
X61915929Y65090616D01*
X61945799Y65062894D01*
X61975201Y65033299D01*
X62002408Y65003550D01*
X62025692Y64975368D01*
X62038903Y64957238D01*
X62076633Y64894119D01*
X62107751Y64826153D01*
X62131889Y64754218D01*
X62142089Y64713124D01*
X62145420Y64696651D01*
X62147862Y64681024D01*
X62149545Y64664459D01*
X62150594Y64645171D01*
X62151136Y64621377D01*
X62151298Y64591292D01*
X62316347Y64591292D01*
X62316137Y64624731D01*
X62315898Y64671410D01*
X62315676Y64723804D01*
X62315472Y64781517D01*
X62315288Y64844158D01*
X62315125Y64911333D01*
X62314984Y64982649D01*
X62314868Y65057712D01*
X62314776Y65136129D01*
X62314711Y65217507D01*
X62314674Y65301452D01*
X62314666Y65364783D01*
X62314666Y66226267D01*
X60663666Y66226267D01*
X60663666Y65019698D01*
X60645674Y65012617D01*
X60628994Y65005423D01*
X60606671Y64994891D01*
X60580403Y64981904D01*
X60551888Y64967346D01*
X60522824Y64952099D01*
X60494907Y64937047D01*
X60469837Y64923071D01*
X60449310Y64911056D01*
X60443533Y64907489D01*
X60364656Y64853669D01*
X60288686Y64793549D01*
X60216757Y64728222D01*
X60150005Y64658778D01*
X60089565Y64586309D01*
X60044275Y64523556D01*
X60032583Y64506538D01*
X60022349Y64492408D01*
X60014574Y64482497D01*
X60010266Y64478140D01*
X60009974Y64478047D01*
X60009454Y64482206D01*
X60009006Y64494511D01*
X60008633Y64514644D01*
X60008333Y64542283D01*
X60008109Y64577110D01*
X60007960Y64618804D01*
X60007887Y64667047D01*
X60007891Y64721518D01*
X60007972Y64781898D01*
X60008131Y64847866D01*
X60008369Y64919103D01*
X60008685Y64995290D01*
X60008916Y65043752D01*
X60009279Y65119290D01*
X60009629Y65197017D01*
X60009962Y65276014D01*
X60010275Y65355362D01*
X60010566Y65434142D01*
X60010832Y65511435D01*
X60011069Y65586321D01*
X60011275Y65657882D01*
X60011446Y65725199D01*
X60011580Y65787352D01*
X60011674Y65843423D01*
X60011724Y65892492D01*
X60011733Y65917935D01*
X60011733Y66226267D01*
X60663666Y66226267D01*
X62314666Y66226267D01*
X62314666Y66243200D01*
X62975095Y66243200D01*
X64630446Y66243200D01*
X65286630Y66243200D01*
X66054437Y66243200D01*
X66053902Y66246446D01*
X66029679Y66343753D01*
X65997907Y66437516D01*
X65958700Y66527498D01*
X65912173Y66613464D01*
X65858439Y66695174D01*
X65797614Y66772394D01*
X65737045Y66837712D01*
X65664060Y66904808D01*
X65586372Y66964916D01*
X65504216Y67017919D01*
X65417830Y67063705D01*
X65327451Y67102158D01*
X65233316Y67133165D01*
X65135661Y67156612D01*
X65045166Y67171130D01*
X65037526Y67171551D01*
X65021717Y67171958D01*
X64998034Y67172349D01*
X64966774Y67172726D01*
X64928234Y67173087D01*
X64882711Y67173434D01*
X64830501Y67173765D01*
X64771901Y67174082D01*
X64707207Y67174383D01*
X64636716Y67174669D01*
X64560725Y67174940D01*
X64479529Y67175196D01*
X64393427Y67175438D01*
X64302714Y67175664D01*
X64207687Y67175875D01*
X64108642Y67176071D01*
X64005877Y67176252D01*
X63899687Y67176417D01*
X63790369Y67176568D01*
X63678221Y67176704D01*
X63563538Y67176825D01*
X63446618Y67176931D01*
X63327756Y67177021D01*
X63207249Y67177097D01*
X63085395Y67177157D01*
X62962489Y67177203D01*
X62838828Y67177233D01*
X62714709Y67177249D01*
X62590428Y67177249D01*
X62466282Y67177235D01*
G36*
X41904843Y62085304D02*
G01*
X41873765Y62066198D01*
X41847615Y62040842D01*
X41827408Y62010498D01*
X41814162Y61976426D01*
X41812886Y61971281D01*
X41811931Y61962808D01*
X41811072Y61946439D01*
X41810319Y61922747D01*
X41809682Y61892301D01*
X41809172Y61855672D01*
X41808798Y61813433D01*
X41808571Y61766152D01*
X41808503Y61726064D01*
X41808498Y61673130D01*
X41808581Y61627920D01*
X41808816Y61589691D01*
X41809269Y61557700D01*
X41810007Y61531205D01*
X41811094Y61509462D01*
X41812597Y61491729D01*
X41814582Y61477262D01*
X41817113Y61465320D01*
X41820258Y61455159D01*
X41824080Y61446036D01*
X41828647Y61437209D01*
X41834025Y61427934D01*
X41835037Y61426238D01*
X41855407Y61399660D01*
X41882299Y61377549D01*
X41903952Y61365095D01*
X41918082Y61358385D01*
X41931604Y61353034D01*
X41945700Y61348891D01*
X41961555Y61345807D01*
X41980349Y61343632D01*
X42003267Y61342215D01*
X42031490Y61341405D01*
X42066201Y61341054D01*
X42093702Y61341000D01*
X42210566Y61341000D01*
X42210566Y61480700D01*
X41955915Y61480700D01*
X41931166Y61505449D01*
X41931166Y61946233D01*
X41955862Y61973883D01*
X42092506Y61975113D01*
X42135054Y61975384D01*
X42169682Y61975346D01*
X42196928Y61974985D01*
X42217333Y61974288D01*
X42231438Y61973241D01*
X42239782Y61971830D01*
X42241224Y61971342D01*
X42248291Y61967918D01*
X42253849Y61963520D01*
X42258077Y61957166D01*
X42261155Y61947876D01*
X42263262Y61934665D01*
X42264580Y61916554D01*
X42265288Y61892559D01*
X42265565Y61861699D01*
X42265599Y61838301D01*
X42265599Y61734049D01*
X42253225Y61721674D01*
X42240851Y61709300D01*
X41986199Y61709300D01*
X41986199Y61569600D01*
X42102408Y61569600D01*
X42141778Y61569706D01*
X42173877Y61570127D01*
X42199897Y61571013D01*
X42221033Y61572517D01*
X42238478Y61574792D01*
X42253426Y61577987D01*
X42267070Y61582257D01*
X42280603Y61587752D01*
X42293879Y61593970D01*
X42325299Y61612674D01*
X42349893Y61635255D01*
X42368855Y61662879D01*
X42373090Y61671200D01*
X42386249Y61698716D01*
X42386249Y61986583D01*
X42374484Y62010542D01*
X42355052Y62040995D01*
X42329525Y62065581D01*
X42300138Y62083295D01*
X42271949Y62096650D01*
X41929049Y62096650D01*
X41904843Y62085304D01*
G37*
X41904843Y62085304D02*
X41873765Y62066198D01*
X41847615Y62040842D01*
X41827408Y62010498D01*
X41814162Y61976426D01*
X41812886Y61971281D01*
X41811931Y61962808D01*
X41811072Y61946439D01*
X41810319Y61922747D01*
X41809682Y61892301D01*
X41809172Y61855672D01*
X41808798Y61813433D01*
X41808571Y61766152D01*
X41808503Y61726064D01*
X41808498Y61673130D01*
X41808581Y61627920D01*
X41808816Y61589691D01*
X41809269Y61557700D01*
X41810007Y61531205D01*
X41811094Y61509462D01*
X41812597Y61491729D01*
X41814582Y61477262D01*
X41817113Y61465320D01*
X41820258Y61455159D01*
X41824080Y61446036D01*
X41828647Y61437209D01*
X41834025Y61427934D01*
X41835037Y61426238D01*
X41855407Y61399660D01*
X41882299Y61377549D01*
X41903952Y61365095D01*
X41918082Y61358385D01*
X41931604Y61353034D01*
X41945700Y61348891D01*
X41961555Y61345807D01*
X41980349Y61343632D01*
X42003267Y61342215D01*
X42031490Y61341405D01*
X42066201Y61341054D01*
X42093702Y61341000D01*
X42210566Y61341000D01*
X42210566Y61480700D01*
X41955915Y61480700D01*
X41931166Y61505449D01*
X41931166Y61946233D01*
X41955862Y61973883D01*
X42092506Y61975113D01*
X42135054Y61975384D01*
X42169682Y61975346D01*
X42196928Y61974985D01*
X42217333Y61974288D01*
X42231438Y61973241D01*
X42239782Y61971830D01*
X42241224Y61971342D01*
X42248291Y61967918D01*
X42253849Y61963520D01*
X42258077Y61957166D01*
X42261155Y61947876D01*
X42263262Y61934665D01*
X42264580Y61916554D01*
X42265288Y61892559D01*
X42265565Y61861699D01*
X42265599Y61838301D01*
X42265599Y61734049D01*
X42253225Y61721674D01*
X42240851Y61709300D01*
X41986199Y61709300D01*
X41986199Y61569600D01*
X42102408Y61569600D01*
X42141778Y61569706D01*
X42173877Y61570127D01*
X42199897Y61571013D01*
X42221033Y61572517D01*
X42238478Y61574792D01*
X42253426Y61577987D01*
X42267070Y61582257D01*
X42280603Y61587752D01*
X42293879Y61593970D01*
X42325299Y61612674D01*
X42349893Y61635255D01*
X42368855Y61662879D01*
X42373090Y61671200D01*
X42386249Y61698716D01*
X42386249Y61986583D01*
X42374484Y62010542D01*
X42355052Y62040995D01*
X42329525Y62065581D01*
X42300138Y62083295D01*
X42271949Y62096650D01*
X41929049Y62096650D01*
X41904843Y62085304D01*
D12*
%TO.C,J4*%
X67509400Y43986800D02*
X68009400Y43886800D01*
X66209400Y44286800D02*
X67509400Y43986800D01*
X64709400Y44486800D02*
X66209400Y44286800D01*
X63409400Y44586800D02*
X64709400Y44486800D01*
X61609400Y44586800D02*
X63409400Y44586800D01*
X60309400Y44486800D02*
X61609400Y44586800D01*
X59509400Y44386800D02*
X60309400Y44486800D01*
X57809400Y44086800D02*
X59509400Y44386800D01*
X57009400Y43886800D02*
X57809400Y44086800D01*
X57509400Y43286800D02*
X67509400Y43286800D01*
X57009400Y44786800D02*
X57009400Y43786800D01*
X68009400Y44786800D02*
X68009400Y43786800D01*
X55599400Y44786800D02*
X69419400Y44786800D01*
X69419400Y58706800D02*
X55599400Y58706800D01*
X69419400Y56006800D02*
X69419400Y58706800D01*
X69419400Y44786800D02*
X69419400Y45186800D01*
X69419400Y47706800D02*
X69419400Y53486800D01*
X55599400Y56006800D02*
X55599400Y58706800D01*
X55599400Y47706800D02*
X55599400Y53486800D01*
X55599400Y44786800D02*
X55599400Y45186800D01*
X57509400Y43286800D02*
G75*
G02*
X57009400Y43786800I0J500000D01*
G01*
X68009400Y43786800D02*
G75*
G02*
X67509400Y43286800I-500000J0D01*
G01*
D10*
X71707333Y46521619D02*
X71707333Y45807333D01*
X71754952Y45664476D01*
X71850190Y45569238D01*
X71993047Y45521619D01*
X72088285Y45521619D01*
X70802571Y46188285D02*
X70802571Y45521619D01*
X71040666Y46569238D02*
X71278761Y45854952D01*
X70659714Y45854952D01*
%TD*%
M02*
