%TF.GenerationSoftware,KiCad,Pcbnew,(5.1.6)-1*%
%TF.CreationDate,2020-12-01T11:19:40+01:00*%
%TF.ProjectId,LoRa_Dongle,4c6f5261-5f44-46f6-9e67-6c652e6b6963,rev?*%
%TF.SameCoordinates,Original*%
%TF.FileFunction,Soldermask,Bot*%
%TF.FilePolarity,Negative*%
%FSLAX46Y46*%
G04 Gerber Fmt 4.6, Leading zero omitted, Abs format (unit mm)*
G04 Created by KiCad (PCBNEW (5.1.6)-1) date 2020-12-01 11:19:40*
%MOMM*%
%LPD*%
G01*
G04 APERTURE LIST*
%ADD10C,4.500000*%
%ADD11C,0.800000*%
%ADD12C,2.350000*%
%ADD13C,0.900000*%
%ADD14R,1.800000X1.800000*%
%ADD15O,1.800000X1.800000*%
%ADD16R,0.900000X1.600000*%
%ADD17R,1.550000X2.100000*%
G04 APERTURE END LIST*
D10*
%TO.C,REF\u002A\u002A*%
X74396600Y47421800D03*
D11*
X76046600Y47421800D03*
X75563326Y46255074D03*
X74396600Y45771800D03*
X73229874Y46255074D03*
X72746600Y47421800D03*
X73229874Y48588526D03*
X74396600Y49071800D03*
X75563326Y48588526D03*
%TD*%
%TO.C,REF\u002A\u002A*%
X26338126Y68121126D03*
X25171400Y68604400D03*
X24004674Y68121126D03*
X23521400Y66954400D03*
X24004674Y65787674D03*
X25171400Y65304400D03*
X26338126Y65787674D03*
X26821400Y66954400D03*
D10*
X25171400Y66954400D03*
%TD*%
D12*
%TO.C,J3*%
X80289400Y57251600D03*
X77749400Y54711600D03*
X82829400Y54711600D03*
X82829400Y59791600D03*
X77749400Y59791600D03*
%TD*%
D13*
%TO.C,SW1*%
X33343200Y67951200D03*
X35643200Y67951200D03*
%TD*%
%TO.C,SW2*%
X45981000Y67900400D03*
X43681000Y67900400D03*
%TD*%
D14*
%TO.C,J1*%
X36398200Y46964600D03*
D15*
X38938200Y46964600D03*
X41478200Y46964600D03*
X44018200Y46964600D03*
X46558200Y46964600D03*
X49098200Y46964600D03*
X51638200Y46964600D03*
%TD*%
D16*
%TO.C,J4*%
X59309400Y49046800D03*
X60409400Y49046800D03*
X61509400Y49046800D03*
X62609400Y49046800D03*
X63709400Y49046800D03*
X64809400Y49046800D03*
X65909400Y49046800D03*
X67009400Y49046800D03*
D17*
X69384400Y54746800D03*
X55634400Y54746800D03*
X55634400Y46446800D03*
X69384400Y46446800D03*
%TD*%
M02*
