%TF.GenerationSoftware,KiCad,Pcbnew,(5.1.6)-1*%
%TF.CreationDate,2020-12-01T11:19:40+01:00*%
%TF.ProjectId,LoRa_Dongle,4c6f5261-5f44-46f6-9e67-6c652e6b6963,rev?*%
%TF.SameCoordinates,Original*%
%TF.FileFunction,Other,Fab,Bot*%
%FSLAX46Y46*%
G04 Gerber Fmt 4.6, Leading zero omitted, Abs format (unit mm)*
G04 Created by KiCad (PCBNEW (5.1.6)-1) date 2020-12-01 11:19:40*
%MOMM*%
%LPD*%
G01*
G04 APERTURE LIST*
%ADD10C,0.100000*%
%ADD11C,0.150000*%
G04 APERTURE END LIST*
D10*
%TO.C,J4*%
X55709400Y58596800D02*
X69309400Y58596800D01*
X55709400Y44896800D02*
X55709400Y58596800D01*
X69309400Y44896800D02*
X55709400Y44896800D01*
X69309400Y58596800D02*
X69309400Y44896800D01*
%TD*%
%TO.C,J4*%
D11*
X67723685Y59364419D02*
X67723685Y60364419D01*
X67390352Y59650133D01*
X67057019Y60364419D01*
X67057019Y59364419D01*
X66580828Y59364419D02*
X66580828Y60031085D01*
X66580828Y60364419D02*
X66628447Y60316800D01*
X66580828Y60269180D01*
X66533209Y60316800D01*
X66580828Y60364419D01*
X66580828Y60269180D01*
X65676066Y59412038D02*
X65771304Y59364419D01*
X65961780Y59364419D01*
X66057019Y59412038D01*
X66104638Y59459657D01*
X66152257Y59554895D01*
X66152257Y59840609D01*
X66104638Y59935847D01*
X66057019Y59983466D01*
X65961780Y60031085D01*
X65771304Y60031085D01*
X65676066Y59983466D01*
X65247495Y59364419D02*
X65247495Y60031085D01*
X65247495Y59840609D02*
X65199876Y59935847D01*
X65152257Y59983466D01*
X65057019Y60031085D01*
X64961780Y60031085D01*
X64485590Y59364419D02*
X64580828Y59412038D01*
X64628447Y59459657D01*
X64676066Y59554895D01*
X64676066Y59840609D01*
X64628447Y59935847D01*
X64580828Y59983466D01*
X64485590Y60031085D01*
X64342733Y60031085D01*
X64247495Y59983466D01*
X64199876Y59935847D01*
X64152257Y59840609D01*
X64152257Y59554895D01*
X64199876Y59459657D01*
X64247495Y59412038D01*
X64342733Y59364419D01*
X64485590Y59364419D01*
X63961780Y59269180D02*
X63199876Y59269180D01*
X63009400Y59412038D02*
X62866542Y59364419D01*
X62628447Y59364419D01*
X62533209Y59412038D01*
X62485590Y59459657D01*
X62437971Y59554895D01*
X62437971Y59650133D01*
X62485590Y59745371D01*
X62533209Y59792990D01*
X62628447Y59840609D01*
X62818923Y59888228D01*
X62914161Y59935847D01*
X62961780Y59983466D01*
X63009400Y60078704D01*
X63009400Y60173942D01*
X62961780Y60269180D01*
X62914161Y60316800D01*
X62818923Y60364419D01*
X62580828Y60364419D01*
X62437971Y60316800D01*
X62009400Y59364419D02*
X62009400Y60364419D01*
X61771304Y60364419D01*
X61628447Y60316800D01*
X61533209Y60221561D01*
X61485590Y60126323D01*
X61437971Y59935847D01*
X61437971Y59792990D01*
X61485590Y59602514D01*
X61533209Y59507276D01*
X61628447Y59412038D01*
X61771304Y59364419D01*
X62009400Y59364419D01*
X61247495Y59269180D02*
X60485590Y59269180D01*
X59676066Y59459657D02*
X59723685Y59412038D01*
X59866542Y59364419D01*
X59961780Y59364419D01*
X60104638Y59412038D01*
X60199876Y59507276D01*
X60247495Y59602514D01*
X60295114Y59792990D01*
X60295114Y59935847D01*
X60247495Y60126323D01*
X60199876Y60221561D01*
X60104638Y60316800D01*
X59961780Y60364419D01*
X59866542Y60364419D01*
X59723685Y60316800D01*
X59676066Y60269180D01*
X58818923Y59364419D02*
X58818923Y59888228D01*
X58866542Y59983466D01*
X58961780Y60031085D01*
X59152257Y60031085D01*
X59247495Y59983466D01*
X58818923Y59412038D02*
X58914161Y59364419D01*
X59152257Y59364419D01*
X59247495Y59412038D01*
X59295114Y59507276D01*
X59295114Y59602514D01*
X59247495Y59697752D01*
X59152257Y59745371D01*
X58914161Y59745371D01*
X58818923Y59792990D01*
X58342733Y59364419D02*
X58342733Y60031085D01*
X58342733Y59840609D02*
X58295114Y59935847D01*
X58247495Y59983466D01*
X58152257Y60031085D01*
X58057019Y60031085D01*
X57295114Y59364419D02*
X57295114Y60364419D01*
X57295114Y59412038D02*
X57390352Y59364419D01*
X57580828Y59364419D01*
X57676066Y59412038D01*
X57723685Y59459657D01*
X57771304Y59554895D01*
X57771304Y59840609D01*
X57723685Y59935847D01*
X57676066Y59983466D01*
X57580828Y60031085D01*
X57390352Y60031085D01*
X57295114Y59983466D01*
X62842733Y52294419D02*
X62842733Y51580133D01*
X62890352Y51437276D01*
X62985590Y51342038D01*
X63128447Y51294419D01*
X63223685Y51294419D01*
X61937971Y51961085D02*
X61937971Y51294419D01*
X62176066Y52342038D02*
X62414161Y51627752D01*
X61795114Y51627752D01*
%TD*%
M02*
