%TF.GenerationSoftware,KiCad,Pcbnew,(5.1.6)-1*%
%TF.CreationDate,2020-12-02T12:11:42+01:00*%
%TF.ProjectId,LoRa_Dongle_Thin,4c6f5261-5f44-46f6-9e67-6c655f546869,rev?*%
%TF.SameCoordinates,Original*%
%TF.FileFunction,Soldermask,Top*%
%TF.FilePolarity,Negative*%
%FSLAX46Y46*%
G04 Gerber Fmt 4.6, Leading zero omitted, Abs format (unit mm)*
G04 Created by KiCad (PCBNEW (5.1.6)-1) date 2020-12-02 12:11:42*
%MOMM*%
%LPD*%
G01*
G04 APERTURE LIST*
%ADD10C,0.100000*%
%ADD11C,2.350000*%
%ADD12R,2.600000X1.100000*%
%ADD13R,0.950000X1.700000*%
%ADD14R,8.100000X2.000000*%
%ADD15R,7.600000X2.100000*%
%ADD16R,0.750000X1.160000*%
%ADD17R,1.000000X1.800000*%
G04 APERTURE END LIST*
%TO.C,C4*%
G36*
G01*
X33030048Y51399645D02*
X33309355Y51678953D01*
G75*
G02*
X33553307Y51678953I121976J-121976D01*
G01*
X33797259Y51435001D01*
G75*
G02*
X33797259Y51191049I-121976J-121976D01*
G01*
X33517951Y50911741D01*
G75*
G02*
X33273999Y50911741I-121976J121976D01*
G01*
X33030047Y51155693D01*
G75*
G02*
X33030047Y51399645I121976J121976D01*
G01*
G37*
G36*
G01*
X33715942Y50713751D02*
X33995249Y50993059D01*
G75*
G02*
X34239201Y50993059I121976J-121976D01*
G01*
X34483153Y50749107D01*
G75*
G02*
X34483153Y50505155I-121976J-121976D01*
G01*
X34203845Y50225847D01*
G75*
G02*
X33959893Y50225847I-121976J121976D01*
G01*
X33715941Y50469799D01*
G75*
G02*
X33715941Y50713751I121976J121976D01*
G01*
G37*
%TD*%
D10*
%TO.C,U2*%
G36*
X42748855Y57709638D02*
G01*
X41546774Y56507557D01*
X41087155Y56967176D01*
X42289236Y58169257D01*
X42748855Y57709638D01*
G37*
G36*
X42183170Y58275324D02*
G01*
X40981089Y57073243D01*
X40521470Y57532862D01*
X41723551Y58734943D01*
X42183170Y58275324D01*
G37*
G36*
X41617484Y58841009D02*
G01*
X40415403Y57638928D01*
X39955784Y58098547D01*
X41157865Y59300628D01*
X41617484Y58841009D01*
G37*
G36*
X41051799Y59406695D02*
G01*
X39849718Y58204614D01*
X39390099Y58664233D01*
X40592180Y59866314D01*
X41051799Y59406695D01*
G37*
G36*
X40486114Y59972380D02*
G01*
X39284033Y58770299D01*
X38824414Y59229918D01*
X40026495Y60431999D01*
X40486114Y59972380D01*
G37*
G36*
X39920428Y60538065D02*
G01*
X38718347Y59335984D01*
X38258728Y59795603D01*
X39460809Y60997684D01*
X39920428Y60538065D01*
G37*
G36*
X39354743Y61103751D02*
G01*
X38152662Y59901670D01*
X37693043Y60361289D01*
X38895124Y61563370D01*
X39354743Y61103751D01*
G37*
G36*
X38789057Y61669436D02*
G01*
X37586976Y60467355D01*
X37127357Y60926974D01*
X38329438Y62129055D01*
X38789057Y61669436D01*
G37*
G36*
X32877645Y55758024D02*
G01*
X31675564Y54555943D01*
X31215945Y55015562D01*
X32418026Y56217643D01*
X32877645Y55758024D01*
G37*
G36*
X33443330Y55192338D02*
G01*
X32241249Y53990257D01*
X31781630Y54449876D01*
X32983711Y55651957D01*
X33443330Y55192338D01*
G37*
G36*
X34009016Y54626653D02*
G01*
X32806935Y53424572D01*
X32347316Y53884191D01*
X33549397Y55086272D01*
X34009016Y54626653D01*
G37*
G36*
X34574701Y54060967D02*
G01*
X33372620Y52858886D01*
X32913001Y53318505D01*
X34115082Y54520586D01*
X34574701Y54060967D01*
G37*
G36*
X35140386Y53495282D02*
G01*
X33938305Y52293201D01*
X33478686Y52752820D01*
X34680767Y53954901D01*
X35140386Y53495282D01*
G37*
G36*
X35706072Y52929597D02*
G01*
X34503991Y51727516D01*
X34044372Y52187135D01*
X35246453Y53389216D01*
X35706072Y52929597D01*
G37*
G36*
X36271757Y52363911D02*
G01*
X35069676Y51161830D01*
X34610057Y51621449D01*
X35812138Y52823530D01*
X36271757Y52363911D01*
G37*
G36*
X36837443Y51798226D02*
G01*
X35635362Y50596145D01*
X35175743Y51055764D01*
X36377824Y52257845D01*
X36837443Y51798226D01*
G37*
G36*
X38789057Y51055764D02*
G01*
X38329438Y50596145D01*
X37127357Y51798226D01*
X37586976Y52257845D01*
X38789057Y51055764D01*
G37*
G36*
X39354743Y51621449D02*
G01*
X38895124Y51161830D01*
X37693043Y52363911D01*
X38152662Y52823530D01*
X39354743Y51621449D01*
G37*
G36*
X39920428Y52187135D02*
G01*
X39460809Y51727516D01*
X38258728Y52929597D01*
X38718347Y53389216D01*
X39920428Y52187135D01*
G37*
G36*
X40486114Y52752820D02*
G01*
X40026495Y52293201D01*
X38824414Y53495282D01*
X39284033Y53954901D01*
X40486114Y52752820D01*
G37*
G36*
X41051799Y53318505D02*
G01*
X40592180Y52858886D01*
X39390099Y54060967D01*
X39849718Y54520586D01*
X41051799Y53318505D01*
G37*
G36*
X41617484Y53884191D02*
G01*
X41157865Y53424572D01*
X39955784Y54626653D01*
X40415403Y55086272D01*
X41617484Y53884191D01*
G37*
G36*
X42183170Y54449876D02*
G01*
X41723551Y53990257D01*
X40521470Y55192338D01*
X40981089Y55651957D01*
X42183170Y54449876D01*
G37*
G36*
X42748855Y55015562D02*
G01*
X42289236Y54555943D01*
X41087155Y55758024D01*
X41546774Y56217643D01*
X42748855Y55015562D01*
G37*
G36*
X36837443Y60926974D02*
G01*
X36377824Y60467355D01*
X35175743Y61669436D01*
X35635362Y62129055D01*
X36837443Y60926974D01*
G37*
G36*
X36271757Y60361289D02*
G01*
X35812138Y59901670D01*
X34610057Y61103751D01*
X35069676Y61563370D01*
X36271757Y60361289D01*
G37*
G36*
X35706072Y59795603D02*
G01*
X35246453Y59335984D01*
X34044372Y60538065D01*
X34503991Y60997684D01*
X35706072Y59795603D01*
G37*
G36*
X35140386Y59229918D02*
G01*
X34680767Y58770299D01*
X33478686Y59972380D01*
X33938305Y60431999D01*
X35140386Y59229918D01*
G37*
G36*
X34574701Y58664233D02*
G01*
X34115082Y58204614D01*
X32913001Y59406695D01*
X33372620Y59866314D01*
X34574701Y58664233D01*
G37*
G36*
X34009016Y58098547D02*
G01*
X33549397Y57638928D01*
X32347316Y58841009D01*
X32806935Y59300628D01*
X34009016Y58098547D01*
G37*
G36*
X33443330Y57532862D02*
G01*
X32983711Y57073243D01*
X31781630Y58275324D01*
X32241249Y58734943D01*
X33443330Y57532862D01*
G37*
G36*
X32877645Y56967176D02*
G01*
X32418026Y56507557D01*
X31215945Y57709638D01*
X31675564Y58169257D01*
X32877645Y56967176D01*
G37*
%TD*%
D11*
%TO.C,J3*%
X74289400Y57251600D03*
X71749400Y54711600D03*
X76829400Y54711600D03*
X76829400Y59791600D03*
X71749400Y59791600D03*
%TD*%
D12*
%TO.C,U3*%
X47749000Y64226200D03*
X47749000Y62226200D03*
X47749000Y60226200D03*
X47749000Y58226200D03*
X47749000Y56226200D03*
X47749000Y54226200D03*
X47749000Y52226200D03*
X47749000Y50226200D03*
X63949000Y50226200D03*
X63949000Y52226200D03*
X63949000Y54226200D03*
X63949000Y56226200D03*
X63949000Y58226200D03*
X63949000Y60226200D03*
X63949000Y62226200D03*
X63949000Y64226200D03*
%TD*%
%TO.C,C5*%
G36*
G01*
X31762141Y52938206D02*
X31364393Y52540459D01*
G75*
G02*
X31019679Y52540459I-172357J172357D01*
G01*
X30674965Y52885173D01*
G75*
G02*
X30674965Y53229887I172357J172357D01*
G01*
X31072713Y53627635D01*
G75*
G02*
X31417427Y53627635I172357J-172357D01*
G01*
X31762141Y53282921D01*
G75*
G02*
X31762141Y52938207I-172357J-172357D01*
G01*
G37*
G36*
G01*
X32875835Y51824512D02*
X32478087Y51426765D01*
G75*
G02*
X32133373Y51426765I-172357J172357D01*
G01*
X31788659Y51771479D01*
G75*
G02*
X31788659Y52116193I172357J172357D01*
G01*
X32186407Y52513941D01*
G75*
G02*
X32531121Y52513941I172357J-172357D01*
G01*
X32875835Y52169227D01*
G75*
G02*
X32875835Y51824513I-172357J-172357D01*
G01*
G37*
%TD*%
%TO.C,C6*%
G36*
G01*
X24534550Y54234000D02*
X25097050Y54234000D01*
G75*
G02*
X25340800Y53990250I0J-243750D01*
G01*
X25340800Y53502750D01*
G75*
G02*
X25097050Y53259000I-243750J0D01*
G01*
X24534550Y53259000D01*
G75*
G02*
X24290800Y53502750I0J243750D01*
G01*
X24290800Y53990250D01*
G75*
G02*
X24534550Y54234000I243750J0D01*
G01*
G37*
G36*
G01*
X24534550Y52659000D02*
X25097050Y52659000D01*
G75*
G02*
X25340800Y52415250I0J-243750D01*
G01*
X25340800Y51927750D01*
G75*
G02*
X25097050Y51684000I-243750J0D01*
G01*
X24534550Y51684000D01*
G75*
G02*
X24290800Y51927750I0J243750D01*
G01*
X24290800Y52415250D01*
G75*
G02*
X24534550Y52659000I243750J0D01*
G01*
G37*
%TD*%
%TO.C,C9*%
G36*
G01*
X29389650Y59075400D02*
X28827150Y59075400D01*
G75*
G02*
X28583400Y59319150I0J243750D01*
G01*
X28583400Y59806650D01*
G75*
G02*
X28827150Y60050400I243750J0D01*
G01*
X29389650Y60050400D01*
G75*
G02*
X29633400Y59806650I0J-243750D01*
G01*
X29633400Y59319150D01*
G75*
G02*
X29389650Y59075400I-243750J0D01*
G01*
G37*
G36*
G01*
X29389650Y60650400D02*
X28827150Y60650400D01*
G75*
G02*
X28583400Y60894150I0J243750D01*
G01*
X28583400Y61381650D01*
G75*
G02*
X28827150Y61625400I243750J0D01*
G01*
X29389650Y61625400D01*
G75*
G02*
X29633400Y61381650I0J-243750D01*
G01*
X29633400Y60894150D01*
G75*
G02*
X29389650Y60650400I-243750J0D01*
G01*
G37*
%TD*%
%TO.C,C10*%
G36*
G01*
X30888250Y60650400D02*
X30325750Y60650400D01*
G75*
G02*
X30082000Y60894150I0J243750D01*
G01*
X30082000Y61381650D01*
G75*
G02*
X30325750Y61625400I243750J0D01*
G01*
X30888250Y61625400D01*
G75*
G02*
X31132000Y61381650I0J-243750D01*
G01*
X31132000Y60894150D01*
G75*
G02*
X30888250Y60650400I-243750J0D01*
G01*
G37*
G36*
G01*
X30888250Y59075400D02*
X30325750Y59075400D01*
G75*
G02*
X30082000Y59319150I0J243750D01*
G01*
X30082000Y59806650D01*
G75*
G02*
X30325750Y60050400I243750J0D01*
G01*
X30888250Y60050400D01*
G75*
G02*
X31132000Y59806650I0J-243750D01*
G01*
X31132000Y59319150D01*
G75*
G02*
X30888250Y59075400I-243750J0D01*
G01*
G37*
%TD*%
D13*
%TO.C,D1*%
X68636600Y64132400D03*
X66886600Y64132400D03*
X68636600Y60632400D03*
X66886600Y60632400D03*
%TD*%
%TO.C,D2*%
G36*
G01*
X23671000Y63628350D02*
X23671000Y64590850D01*
G75*
G02*
X23939750Y64859600I268750J0D01*
G01*
X24477250Y64859600D01*
G75*
G02*
X24746000Y64590850I0J-268750D01*
G01*
X24746000Y63628350D01*
G75*
G02*
X24477250Y63359600I-268750J0D01*
G01*
X23939750Y63359600D01*
G75*
G02*
X23671000Y63628350I0J268750D01*
G01*
G37*
G36*
G01*
X25546000Y63628350D02*
X25546000Y64590850D01*
G75*
G02*
X25814750Y64859600I268750J0D01*
G01*
X26352250Y64859600D01*
G75*
G02*
X26621000Y64590850I0J-268750D01*
G01*
X26621000Y63628350D01*
G75*
G02*
X26352250Y63359600I-268750J0D01*
G01*
X25814750Y63359600D01*
G75*
G02*
X25546000Y63628350I0J268750D01*
G01*
G37*
%TD*%
%TO.C,D3*%
G36*
G01*
X28048000Y50595450D02*
X28048000Y49632950D01*
G75*
G02*
X27779250Y49364200I-268750J0D01*
G01*
X27241750Y49364200D01*
G75*
G02*
X26973000Y49632950I0J268750D01*
G01*
X26973000Y50595450D01*
G75*
G02*
X27241750Y50864200I268750J0D01*
G01*
X27779250Y50864200D01*
G75*
G02*
X28048000Y50595450I0J-268750D01*
G01*
G37*
G36*
G01*
X29923000Y50595450D02*
X29923000Y49632950D01*
G75*
G02*
X29654250Y49364200I-268750J0D01*
G01*
X29116750Y49364200D01*
G75*
G02*
X28848000Y49632950I0J268750D01*
G01*
X28848000Y50595450D01*
G75*
G02*
X29116750Y50864200I268750J0D01*
G01*
X29654250Y50864200D01*
G75*
G02*
X29923000Y50595450I0J-268750D01*
G01*
G37*
%TD*%
D14*
%TO.C,J2*%
X15491800Y53390800D03*
X15491800Y61010800D03*
D15*
X15741800Y58500800D03*
X15741800Y55900800D03*
%TD*%
%TO.C,L2*%
G36*
G01*
X23756800Y59245400D02*
X23756800Y61455400D01*
G75*
G02*
X24026800Y61725400I270000J0D01*
G01*
X24836800Y61725400D01*
G75*
G02*
X25106800Y61455400I0J-270000D01*
G01*
X25106800Y59245400D01*
G75*
G02*
X24836800Y58975400I-270000J0D01*
G01*
X24026800Y58975400D01*
G75*
G02*
X23756800Y59245400I0J270000D01*
G01*
G37*
G36*
G01*
X26556800Y59245400D02*
X26556800Y61455400D01*
G75*
G02*
X26826800Y61725400I270000J0D01*
G01*
X27636800Y61725400D01*
G75*
G02*
X27906800Y61455400I0J-270000D01*
G01*
X27906800Y59245400D01*
G75*
G02*
X27636800Y58975400I-270000J0D01*
G01*
X26826800Y58975400D01*
G75*
G02*
X26556800Y59245400I0J270000D01*
G01*
G37*
%TD*%
D10*
%TO.C,U1*%
G36*
X42679350Y53333024D02*
G01*
X42926837Y53580511D01*
X43421812Y53085536D01*
X43174325Y52838049D01*
X42679350Y53333024D01*
G37*
G36*
X44659249Y51353125D02*
G01*
X44906736Y51600612D01*
X45401711Y51105637D01*
X45154224Y50858150D01*
X44659249Y51353125D01*
G37*
G36*
X42113664Y52767338D02*
G01*
X42361151Y53014825D01*
X42856126Y52519850D01*
X42608639Y52272363D01*
X42113664Y52767338D01*
G37*
G36*
X41547979Y52201653D02*
G01*
X41795466Y52449140D01*
X42290441Y51954165D01*
X42042954Y51706678D01*
X41547979Y52201653D01*
G37*
G36*
X40982293Y51635967D02*
G01*
X41229780Y51883454D01*
X41724755Y51388479D01*
X41477268Y51140992D01*
X40982293Y51635967D01*
G37*
G36*
X44093563Y50787439D02*
G01*
X44341050Y51034926D01*
X44836025Y50539951D01*
X44588538Y50292464D01*
X44093563Y50787439D01*
G37*
G36*
X43527878Y50221754D02*
G01*
X43775365Y50469241D01*
X44270340Y49974266D01*
X44022853Y49726779D01*
X43527878Y50221754D01*
G37*
G36*
X42962192Y49656068D02*
G01*
X43209679Y49903555D01*
X43704654Y49408580D01*
X43457167Y49161093D01*
X42962192Y49656068D01*
G37*
G36*
X42187910Y50578842D02*
G01*
X42824306Y51215238D01*
X43036438Y51003106D01*
X42400042Y50366710D01*
X42187910Y50578842D01*
G37*
G36*
X43301462Y51692394D02*
G01*
X43937858Y52328790D01*
X44149990Y52116658D01*
X43513594Y51480262D01*
X43301462Y51692394D01*
G37*
%TD*%
D16*
%TO.C,U4*%
X26705600Y57564200D03*
X25755600Y57564200D03*
X24805600Y57564200D03*
X24805600Y55364200D03*
X26705600Y55364200D03*
%TD*%
%TO.C,C1*%
G36*
G01*
X37572300Y64350600D02*
X37967300Y64350600D01*
G75*
G02*
X38139800Y64178100I0J-172500D01*
G01*
X38139800Y63833100D01*
G75*
G02*
X37967300Y63660600I-172500J0D01*
G01*
X37572300Y63660600D01*
G75*
G02*
X37399800Y63833100I0J172500D01*
G01*
X37399800Y64178100D01*
G75*
G02*
X37572300Y64350600I172500J0D01*
G01*
G37*
G36*
G01*
X37572300Y65320600D02*
X37967300Y65320600D01*
G75*
G02*
X38139800Y65148100I0J-172500D01*
G01*
X38139800Y64803100D01*
G75*
G02*
X37967300Y64630600I-172500J0D01*
G01*
X37572300Y64630600D01*
G75*
G02*
X37399800Y64803100I0J172500D01*
G01*
X37399800Y65148100D01*
G75*
G02*
X37572300Y65320600I172500J0D01*
G01*
G37*
%TD*%
%TO.C,C2*%
G36*
G01*
X29926900Y65320600D02*
X30321900Y65320600D01*
G75*
G02*
X30494400Y65148100I0J-172500D01*
G01*
X30494400Y64803100D01*
G75*
G02*
X30321900Y64630600I-172500J0D01*
G01*
X29926900Y64630600D01*
G75*
G02*
X29754400Y64803100I0J172500D01*
G01*
X29754400Y65148100D01*
G75*
G02*
X29926900Y65320600I172500J0D01*
G01*
G37*
G36*
G01*
X29926900Y64350600D02*
X30321900Y64350600D01*
G75*
G02*
X30494400Y64178100I0J-172500D01*
G01*
X30494400Y63833100D01*
G75*
G02*
X30321900Y63660600I-172500J0D01*
G01*
X29926900Y63660600D01*
G75*
G02*
X29754400Y63833100I0J172500D01*
G01*
X29754400Y64178100D01*
G75*
G02*
X29926900Y64350600I172500J0D01*
G01*
G37*
%TD*%
%TO.C,C3*%
G36*
G01*
X43520342Y57800351D02*
X43799649Y58079659D01*
G75*
G02*
X44043601Y58079659I121976J-121976D01*
G01*
X44287553Y57835707D01*
G75*
G02*
X44287553Y57591755I-121976J-121976D01*
G01*
X44008245Y57312447D01*
G75*
G02*
X43764293Y57312447I-121976J121976D01*
G01*
X43520341Y57556399D01*
G75*
G02*
X43520341Y57800351I121976J121976D01*
G01*
G37*
G36*
G01*
X42834448Y58486245D02*
X43113755Y58765553D01*
G75*
G02*
X43357707Y58765553I121976J-121976D01*
G01*
X43601659Y58521601D01*
G75*
G02*
X43601659Y58277649I-121976J-121976D01*
G01*
X43322351Y57998341D01*
G75*
G02*
X43078399Y57998341I-121976J121976D01*
G01*
X42834447Y58242293D01*
G75*
G02*
X42834447Y58486245I121976J121976D01*
G01*
G37*
%TD*%
%TO.C,R1*%
G36*
G01*
X37052900Y64630600D02*
X36657900Y64630600D01*
G75*
G02*
X36485400Y64803100I0J172500D01*
G01*
X36485400Y65148100D01*
G75*
G02*
X36657900Y65320600I172500J0D01*
G01*
X37052900Y65320600D01*
G75*
G02*
X37225400Y65148100I0J-172500D01*
G01*
X37225400Y64803100D01*
G75*
G02*
X37052900Y64630600I-172500J0D01*
G01*
G37*
G36*
G01*
X37052900Y63660600D02*
X36657900Y63660600D01*
G75*
G02*
X36485400Y63833100I0J172500D01*
G01*
X36485400Y64178100D01*
G75*
G02*
X36657900Y64350600I172500J0D01*
G01*
X37052900Y64350600D01*
G75*
G02*
X37225400Y64178100I0J-172500D01*
G01*
X37225400Y63833100D01*
G75*
G02*
X37052900Y63660600I-172500J0D01*
G01*
G37*
%TD*%
%TO.C,R2*%
G36*
G01*
X29382100Y64630600D02*
X28987100Y64630600D01*
G75*
G02*
X28814600Y64803100I0J172500D01*
G01*
X28814600Y65148100D01*
G75*
G02*
X28987100Y65320600I172500J0D01*
G01*
X29382100Y65320600D01*
G75*
G02*
X29554600Y65148100I0J-172500D01*
G01*
X29554600Y64803100D01*
G75*
G02*
X29382100Y64630600I-172500J0D01*
G01*
G37*
G36*
G01*
X29382100Y63660600D02*
X28987100Y63660600D01*
G75*
G02*
X28814600Y63833100I0J172500D01*
G01*
X28814600Y64178100D01*
G75*
G02*
X28987100Y64350600I172500J0D01*
G01*
X29382100Y64350600D01*
G75*
G02*
X29554600Y64178100I0J-172500D01*
G01*
X29554600Y63833100D01*
G75*
G02*
X29382100Y63660600I-172500J0D01*
G01*
G37*
%TD*%
%TO.C,R3*%
G36*
G01*
X67524800Y58998500D02*
X67524800Y58603500D01*
G75*
G02*
X67352300Y58431000I-172500J0D01*
G01*
X67007300Y58431000D01*
G75*
G02*
X66834800Y58603500I0J172500D01*
G01*
X66834800Y58998500D01*
G75*
G02*
X67007300Y59171000I172500J0D01*
G01*
X67352300Y59171000D01*
G75*
G02*
X67524800Y58998500I0J-172500D01*
G01*
G37*
G36*
G01*
X66554800Y58998500D02*
X66554800Y58603500D01*
G75*
G02*
X66382300Y58431000I-172500J0D01*
G01*
X66037300Y58431000D01*
G75*
G02*
X65864800Y58603500I0J172500D01*
G01*
X65864800Y58998500D01*
G75*
G02*
X66037300Y59171000I172500J0D01*
G01*
X66382300Y59171000D01*
G75*
G02*
X66554800Y58998500I0J-172500D01*
G01*
G37*
%TD*%
%TO.C,R4*%
G36*
G01*
X27654900Y63279600D02*
X27259900Y63279600D01*
G75*
G02*
X27087400Y63452100I0J172500D01*
G01*
X27087400Y63797100D01*
G75*
G02*
X27259900Y63969600I172500J0D01*
G01*
X27654900Y63969600D01*
G75*
G02*
X27827400Y63797100I0J-172500D01*
G01*
X27827400Y63452100D01*
G75*
G02*
X27654900Y63279600I-172500J0D01*
G01*
G37*
G36*
G01*
X27654900Y64249600D02*
X27259900Y64249600D01*
G75*
G02*
X27087400Y64422100I0J172500D01*
G01*
X27087400Y64767100D01*
G75*
G02*
X27259900Y64939600I172500J0D01*
G01*
X27654900Y64939600D01*
G75*
G02*
X27827400Y64767100I0J-172500D01*
G01*
X27827400Y64422100D01*
G75*
G02*
X27654900Y64249600I-172500J0D01*
G01*
G37*
%TD*%
%TO.C,R5*%
G36*
G01*
X26308700Y50254200D02*
X25913700Y50254200D01*
G75*
G02*
X25741200Y50426700I0J172500D01*
G01*
X25741200Y50771700D01*
G75*
G02*
X25913700Y50944200I172500J0D01*
G01*
X26308700Y50944200D01*
G75*
G02*
X26481200Y50771700I0J-172500D01*
G01*
X26481200Y50426700D01*
G75*
G02*
X26308700Y50254200I-172500J0D01*
G01*
G37*
G36*
G01*
X26308700Y49284200D02*
X25913700Y49284200D01*
G75*
G02*
X25741200Y49456700I0J172500D01*
G01*
X25741200Y49801700D01*
G75*
G02*
X25913700Y49974200I172500J0D01*
G01*
X26308700Y49974200D01*
G75*
G02*
X26481200Y49801700I0J-172500D01*
G01*
X26481200Y49456700D01*
G75*
G02*
X26308700Y49284200I-172500J0D01*
G01*
G37*
%TD*%
%TO.C,R6*%
G36*
G01*
X45612700Y53475200D02*
X45217700Y53475200D01*
G75*
G02*
X45045200Y53647700I0J172500D01*
G01*
X45045200Y53992700D01*
G75*
G02*
X45217700Y54165200I172500J0D01*
G01*
X45612700Y54165200D01*
G75*
G02*
X45785200Y53992700I0J-172500D01*
G01*
X45785200Y53647700D01*
G75*
G02*
X45612700Y53475200I-172500J0D01*
G01*
G37*
G36*
G01*
X45612700Y54445200D02*
X45217700Y54445200D01*
G75*
G02*
X45045200Y54617700I0J172500D01*
G01*
X45045200Y54962700D01*
G75*
G02*
X45217700Y55135200I172500J0D01*
G01*
X45612700Y55135200D01*
G75*
G02*
X45785200Y54962700I0J-172500D01*
G01*
X45785200Y54617700D01*
G75*
G02*
X45612700Y54445200I-172500J0D01*
G01*
G37*
%TD*%
%TO.C,R7*%
G36*
G01*
X28021900Y57446600D02*
X28416900Y57446600D01*
G75*
G02*
X28589400Y57274100I0J-172500D01*
G01*
X28589400Y56929100D01*
G75*
G02*
X28416900Y56756600I-172500J0D01*
G01*
X28021900Y56756600D01*
G75*
G02*
X27849400Y56929100I0J172500D01*
G01*
X27849400Y57274100D01*
G75*
G02*
X28021900Y57446600I172500J0D01*
G01*
G37*
G36*
G01*
X28021900Y56476600D02*
X28416900Y56476600D01*
G75*
G02*
X28589400Y56304100I0J-172500D01*
G01*
X28589400Y55959100D01*
G75*
G02*
X28416900Y55786600I-172500J0D01*
G01*
X28021900Y55786600D01*
G75*
G02*
X27849400Y55959100I0J172500D01*
G01*
X27849400Y56304100D01*
G75*
G02*
X28021900Y56476600I172500J0D01*
G01*
G37*
%TD*%
%TO.C,R8*%
G36*
G01*
X28819000Y54945900D02*
X28819000Y55340900D01*
G75*
G02*
X28991500Y55513400I172500J0D01*
G01*
X29336500Y55513400D01*
G75*
G02*
X29509000Y55340900I0J-172500D01*
G01*
X29509000Y54945900D01*
G75*
G02*
X29336500Y54773400I-172500J0D01*
G01*
X28991500Y54773400D01*
G75*
G02*
X28819000Y54945900I0J172500D01*
G01*
G37*
G36*
G01*
X27849000Y54945900D02*
X27849000Y55340900D01*
G75*
G02*
X28021500Y55513400I172500J0D01*
G01*
X28366500Y55513400D01*
G75*
G02*
X28539000Y55340900I0J-172500D01*
G01*
X28539000Y54945900D01*
G75*
G02*
X28366500Y54773400I-172500J0D01*
G01*
X28021500Y54773400D01*
G75*
G02*
X27849000Y54945900I0J172500D01*
G01*
G37*
%TD*%
D17*
%TO.C,SW1*%
X42492400Y64312800D03*
X39092400Y64312800D03*
%TD*%
%TO.C,SW2*%
X31370800Y64312800D03*
X34770800Y64312800D03*
%TD*%
M02*
