%TF.GenerationSoftware,KiCad,Pcbnew,(5.1.6)-1*%
%TF.CreationDate,2020-12-01T11:19:40+01:00*%
%TF.ProjectId,LoRa_Dongle,4c6f5261-5f44-46f6-9e67-6c652e6b6963,rev?*%
%TF.SameCoordinates,Original*%
%TF.FileFunction,Paste,Top*%
%TF.FilePolarity,Positive*%
%FSLAX46Y46*%
G04 Gerber Fmt 4.6, Leading zero omitted, Abs format (unit mm)*
G04 Created by KiCad (PCBNEW (5.1.6)-1) date 2020-12-01 11:19:40*
%MOMM*%
%LPD*%
G01*
G04 APERTURE LIST*
%ADD10C,0.100000*%
%ADD11R,1.600000X0.850000*%
%ADD12R,1.450000X1.000000*%
%ADD13R,0.900000X1.000000*%
%ADD14R,1.000000X2.500000*%
%ADD15R,0.650000X1.060000*%
G04 APERTURE END LIST*
D10*
%TO.C,U2*%
G36*
X45548345Y57633438D02*
G01*
X44416974Y56502067D01*
X44028065Y56890976D01*
X45159436Y58022347D01*
X45548345Y57633438D01*
G37*
G36*
X44982660Y58199124D02*
G01*
X43851289Y57067753D01*
X43462380Y57456662D01*
X44593751Y58588033D01*
X44982660Y58199124D01*
G37*
G36*
X44416974Y58764809D02*
G01*
X43285603Y57633438D01*
X42896694Y58022347D01*
X44028065Y59153718D01*
X44416974Y58764809D01*
G37*
G36*
X43851289Y59330495D02*
G01*
X42719918Y58199124D01*
X42331009Y58588033D01*
X43462380Y59719404D01*
X43851289Y59330495D01*
G37*
G36*
X43285604Y59896180D02*
G01*
X42154233Y58764809D01*
X41765324Y59153718D01*
X42896695Y60285089D01*
X43285604Y59896180D01*
G37*
G36*
X42719918Y60461865D02*
G01*
X41588547Y59330494D01*
X41199638Y59719403D01*
X42331009Y60850774D01*
X42719918Y60461865D01*
G37*
G36*
X42154233Y61027551D02*
G01*
X41022862Y59896180D01*
X40633953Y60285089D01*
X41765324Y61416460D01*
X42154233Y61027551D01*
G37*
G36*
X41588547Y61593236D02*
G01*
X40457176Y60461865D01*
X40068267Y60850774D01*
X41199638Y61982145D01*
X41588547Y61593236D01*
G37*
G36*
X35677135Y55681824D02*
G01*
X34545764Y54550453D01*
X34156855Y54939362D01*
X35288226Y56070733D01*
X35677135Y55681824D01*
G37*
G36*
X36242820Y55116138D02*
G01*
X35111449Y53984767D01*
X34722540Y54373676D01*
X35853911Y55505047D01*
X36242820Y55116138D01*
G37*
G36*
X36808506Y54550453D02*
G01*
X35677135Y53419082D01*
X35288226Y53807991D01*
X36419597Y54939362D01*
X36808506Y54550453D01*
G37*
G36*
X37374191Y53984767D02*
G01*
X36242820Y52853396D01*
X35853911Y53242305D01*
X36985282Y54373676D01*
X37374191Y53984767D01*
G37*
G36*
X37939876Y53419082D02*
G01*
X36808505Y52287711D01*
X36419596Y52676620D01*
X37550967Y53807991D01*
X37939876Y53419082D01*
G37*
G36*
X38505562Y52853397D02*
G01*
X37374191Y51722026D01*
X36985282Y52110935D01*
X38116653Y53242306D01*
X38505562Y52853397D01*
G37*
G36*
X39071247Y52287711D02*
G01*
X37939876Y51156340D01*
X37550967Y51545249D01*
X38682338Y52676620D01*
X39071247Y52287711D01*
G37*
G36*
X39636933Y51722026D02*
G01*
X38505562Y50590655D01*
X38116653Y50979564D01*
X39248024Y52110935D01*
X39636933Y51722026D01*
G37*
G36*
X41588547Y50979564D02*
G01*
X41199638Y50590655D01*
X40068267Y51722026D01*
X40457176Y52110935D01*
X41588547Y50979564D01*
G37*
G36*
X42154233Y51545249D02*
G01*
X41765324Y51156340D01*
X40633953Y52287711D01*
X41022862Y52676620D01*
X42154233Y51545249D01*
G37*
G36*
X42719918Y52110935D02*
G01*
X42331009Y51722026D01*
X41199638Y52853397D01*
X41588547Y53242306D01*
X42719918Y52110935D01*
G37*
G36*
X43285604Y52676620D02*
G01*
X42896695Y52287711D01*
X41765324Y53419082D01*
X42154233Y53807991D01*
X43285604Y52676620D01*
G37*
G36*
X43851289Y53242305D02*
G01*
X43462380Y52853396D01*
X42331009Y53984767D01*
X42719918Y54373676D01*
X43851289Y53242305D01*
G37*
G36*
X44416974Y53807991D02*
G01*
X44028065Y53419082D01*
X42896694Y54550453D01*
X43285603Y54939362D01*
X44416974Y53807991D01*
G37*
G36*
X44982660Y54373676D02*
G01*
X44593751Y53984767D01*
X43462380Y55116138D01*
X43851289Y55505047D01*
X44982660Y54373676D01*
G37*
G36*
X45548345Y54939362D02*
G01*
X45159436Y54550453D01*
X44028065Y55681824D01*
X44416974Y56070733D01*
X45548345Y54939362D01*
G37*
G36*
X39636933Y60850774D02*
G01*
X39248024Y60461865D01*
X38116653Y61593236D01*
X38505562Y61982145D01*
X39636933Y60850774D01*
G37*
G36*
X39071247Y60285089D02*
G01*
X38682338Y59896180D01*
X37550967Y61027551D01*
X37939876Y61416460D01*
X39071247Y60285089D01*
G37*
G36*
X38505562Y59719403D02*
G01*
X38116653Y59330494D01*
X36985282Y60461865D01*
X37374191Y60850774D01*
X38505562Y59719403D01*
G37*
G36*
X37939876Y59153718D02*
G01*
X37550967Y58764809D01*
X36419596Y59896180D01*
X36808505Y60285089D01*
X37939876Y59153718D01*
G37*
G36*
X37374191Y58588033D02*
G01*
X36985282Y58199124D01*
X35853911Y59330495D01*
X36242820Y59719404D01*
X37374191Y58588033D01*
G37*
G36*
X36808506Y58022347D02*
G01*
X36419597Y57633438D01*
X35288226Y58764809D01*
X35677135Y59153718D01*
X36808506Y58022347D01*
G37*
G36*
X36242820Y57456662D02*
G01*
X35853911Y57067753D01*
X34722540Y58199124D01*
X35111449Y58588033D01*
X36242820Y57456662D01*
G37*
G36*
X35677135Y56890976D02*
G01*
X35288226Y56502067D01*
X34156855Y57633438D01*
X34545764Y58022347D01*
X35677135Y56890976D01*
G37*
%TD*%
%TO.C,C1*%
G36*
G01*
X37814800Y65605950D02*
X37814800Y66118450D01*
G75*
G02*
X38033550Y66337200I218750J0D01*
G01*
X38471050Y66337200D01*
G75*
G02*
X38689800Y66118450I0J-218750D01*
G01*
X38689800Y65605950D01*
G75*
G02*
X38471050Y65387200I-218750J0D01*
G01*
X38033550Y65387200D01*
G75*
G02*
X37814800Y65605950I0J218750D01*
G01*
G37*
G36*
G01*
X39389800Y65605950D02*
X39389800Y66118450D01*
G75*
G02*
X39608550Y66337200I218750J0D01*
G01*
X40046050Y66337200D01*
G75*
G02*
X40264800Y66118450I0J-218750D01*
G01*
X40264800Y65605950D01*
G75*
G02*
X40046050Y65387200I-218750J0D01*
G01*
X39608550Y65387200D01*
G75*
G02*
X39389800Y65605950I0J218750D01*
G01*
G37*
%TD*%
%TO.C,C2*%
G36*
G01*
X48000400Y63243750D02*
X48000400Y63756250D01*
G75*
G02*
X48219150Y63975000I218750J0D01*
G01*
X48656650Y63975000D01*
G75*
G02*
X48875400Y63756250I0J-218750D01*
G01*
X48875400Y63243750D01*
G75*
G02*
X48656650Y63025000I-218750J0D01*
G01*
X48219150Y63025000D01*
G75*
G02*
X48000400Y63243750I0J218750D01*
G01*
G37*
G36*
G01*
X46425400Y63243750D02*
X46425400Y63756250D01*
G75*
G02*
X46644150Y63975000I218750J0D01*
G01*
X47081650Y63975000D01*
G75*
G02*
X47300400Y63756250I0J-218750D01*
G01*
X47300400Y63243750D01*
G75*
G02*
X47081650Y63025000I-218750J0D01*
G01*
X46644150Y63025000D01*
G75*
G02*
X46425400Y63243750I0J218750D01*
G01*
G37*
%TD*%
%TO.C,C3*%
G36*
G01*
X45713998Y58698610D02*
X46076390Y59061003D01*
G75*
G02*
X46385750Y59061003I154680J-154680D01*
G01*
X46695109Y58751644D01*
G75*
G02*
X46695109Y58442284I-154680J-154680D01*
G01*
X46332716Y58079891D01*
G75*
G02*
X46023356Y58079891I-154680J154680D01*
G01*
X45713997Y58389250D01*
G75*
G02*
X45713997Y58698610I154680J154680D01*
G01*
G37*
G36*
G01*
X46827692Y57584916D02*
X47190084Y57947309D01*
G75*
G02*
X47499444Y57947309I154680J-154680D01*
G01*
X47808803Y57637950D01*
G75*
G02*
X47808803Y57328590I-154680J-154680D01*
G01*
X47446410Y56966197D01*
G75*
G02*
X47137050Y56966197I-154680J154680D01*
G01*
X46827691Y57275556D01*
G75*
G02*
X46827691Y57584916I154680J154680D01*
G01*
G37*
%TD*%
%TO.C,C4*%
G36*
G01*
X36947092Y49533116D02*
X37309484Y49895509D01*
G75*
G02*
X37618844Y49895509I154680J-154680D01*
G01*
X37928203Y49586150D01*
G75*
G02*
X37928203Y49276790I-154680J-154680D01*
G01*
X37565810Y48914397D01*
G75*
G02*
X37256450Y48914397I-154680J154680D01*
G01*
X36947091Y49223756D01*
G75*
G02*
X36947091Y49533116I154680J154680D01*
G01*
G37*
G36*
G01*
X35833398Y50646810D02*
X36195790Y51009203D01*
G75*
G02*
X36505150Y51009203I154680J-154680D01*
G01*
X36814509Y50699844D01*
G75*
G02*
X36814509Y50390484I-154680J-154680D01*
G01*
X36452116Y50028091D01*
G75*
G02*
X36142756Y50028091I-154680J154680D01*
G01*
X35833397Y50337450D01*
G75*
G02*
X35833397Y50646810I154680J154680D01*
G01*
G37*
%TD*%
%TO.C,C5*%
G36*
G01*
X34680908Y52524084D02*
X34318516Y52161691D01*
G75*
G02*
X34009156Y52161691I-154680J154680D01*
G01*
X33699797Y52471050D01*
G75*
G02*
X33699797Y52780410I154680J154680D01*
G01*
X34062190Y53142803D01*
G75*
G02*
X34371550Y53142803I154680J-154680D01*
G01*
X34680909Y52833444D01*
G75*
G02*
X34680909Y52524084I-154680J-154680D01*
G01*
G37*
G36*
G01*
X35794602Y51410390D02*
X35432210Y51047997D01*
G75*
G02*
X35122850Y51047997I-154680J154680D01*
G01*
X34813491Y51357356D01*
G75*
G02*
X34813491Y51666716I154680J154680D01*
G01*
X35175884Y52029109D01*
G75*
G02*
X35485244Y52029109I154680J-154680D01*
G01*
X35794603Y51719750D01*
G75*
G02*
X35794603Y51410390I-154680J-154680D01*
G01*
G37*
%TD*%
%TO.C,C6*%
G36*
G01*
X25216400Y52042350D02*
X25216400Y52554850D01*
G75*
G02*
X25435150Y52773600I218750J0D01*
G01*
X25872650Y52773600D01*
G75*
G02*
X26091400Y52554850I0J-218750D01*
G01*
X26091400Y52042350D01*
G75*
G02*
X25872650Y51823600I-218750J0D01*
G01*
X25435150Y51823600D01*
G75*
G02*
X25216400Y52042350I0J218750D01*
G01*
G37*
G36*
G01*
X26791400Y52042350D02*
X26791400Y52554850D01*
G75*
G02*
X27010150Y52773600I218750J0D01*
G01*
X27447650Y52773600D01*
G75*
G02*
X27666400Y52554850I0J-218750D01*
G01*
X27666400Y52042350D01*
G75*
G02*
X27447650Y51823600I-218750J0D01*
G01*
X27010150Y51823600D01*
G75*
G02*
X26791400Y52042350I0J218750D01*
G01*
G37*
%TD*%
%TO.C,C9*%
G36*
G01*
X30177450Y57753800D02*
X29664950Y57753800D01*
G75*
G02*
X29446200Y57972550I0J218750D01*
G01*
X29446200Y58410050D01*
G75*
G02*
X29664950Y58628800I218750J0D01*
G01*
X30177450Y58628800D01*
G75*
G02*
X30396200Y58410050I0J-218750D01*
G01*
X30396200Y57972550D01*
G75*
G02*
X30177450Y57753800I-218750J0D01*
G01*
G37*
G36*
G01*
X30177450Y59328800D02*
X29664950Y59328800D01*
G75*
G02*
X29446200Y59547550I0J218750D01*
G01*
X29446200Y59985050D01*
G75*
G02*
X29664950Y60203800I218750J0D01*
G01*
X30177450Y60203800D01*
G75*
G02*
X30396200Y59985050I0J-218750D01*
G01*
X30396200Y59547550D01*
G75*
G02*
X30177450Y59328800I-218750J0D01*
G01*
G37*
%TD*%
%TO.C,C10*%
G36*
G01*
X31676050Y59328800D02*
X31163550Y59328800D01*
G75*
G02*
X30944800Y59547550I0J218750D01*
G01*
X30944800Y59985050D01*
G75*
G02*
X31163550Y60203800I218750J0D01*
G01*
X31676050Y60203800D01*
G75*
G02*
X31894800Y59985050I0J-218750D01*
G01*
X31894800Y59547550D01*
G75*
G02*
X31676050Y59328800I-218750J0D01*
G01*
G37*
G36*
G01*
X31676050Y57753800D02*
X31163550Y57753800D01*
G75*
G02*
X30944800Y57972550I0J218750D01*
G01*
X30944800Y58410050D01*
G75*
G02*
X31163550Y58628800I218750J0D01*
G01*
X31676050Y58628800D01*
G75*
G02*
X31894800Y58410050I0J-218750D01*
G01*
X31894800Y57972550D01*
G75*
G02*
X31676050Y57753800I-218750J0D01*
G01*
G37*
%TD*%
D11*
%TO.C,D1*%
X28933200Y49008000D03*
X28933200Y47258000D03*
X32433200Y49008000D03*
X32433200Y47258000D03*
%TD*%
%TO.C,D2*%
G36*
G01*
X28474350Y68989000D02*
X29386850Y68989000D01*
G75*
G02*
X29630600Y68745250I0J-243750D01*
G01*
X29630600Y68257750D01*
G75*
G02*
X29386850Y68014000I-243750J0D01*
G01*
X28474350Y68014000D01*
G75*
G02*
X28230600Y68257750I0J243750D01*
G01*
X28230600Y68745250D01*
G75*
G02*
X28474350Y68989000I243750J0D01*
G01*
G37*
G36*
G01*
X28474350Y67114000D02*
X29386850Y67114000D01*
G75*
G02*
X29630600Y66870250I0J-243750D01*
G01*
X29630600Y66382750D01*
G75*
G02*
X29386850Y66139000I-243750J0D01*
G01*
X28474350Y66139000D01*
G75*
G02*
X28230600Y66382750I0J243750D01*
G01*
X28230600Y66870250D01*
G75*
G02*
X28474350Y67114000I243750J0D01*
G01*
G37*
%TD*%
%TO.C,D3*%
G36*
G01*
X76173650Y67099600D02*
X75261150Y67099600D01*
G75*
G02*
X75017400Y67343350I0J243750D01*
G01*
X75017400Y67830850D01*
G75*
G02*
X75261150Y68074600I243750J0D01*
G01*
X76173650Y68074600D01*
G75*
G02*
X76417400Y67830850I0J-243750D01*
G01*
X76417400Y67343350D01*
G75*
G02*
X76173650Y67099600I-243750J0D01*
G01*
G37*
G36*
G01*
X76173650Y65224600D02*
X75261150Y65224600D01*
G75*
G02*
X75017400Y65468350I0J243750D01*
G01*
X75017400Y65955850D01*
G75*
G02*
X75261150Y66199600I243750J0D01*
G01*
X76173650Y66199600D01*
G75*
G02*
X76417400Y65955850I0J-243750D01*
G01*
X76417400Y65468350D01*
G75*
G02*
X76173650Y65224600I-243750J0D01*
G01*
G37*
%TD*%
%TO.C,L2*%
G36*
G01*
X24619600Y57903800D02*
X24619600Y60053800D01*
G75*
G02*
X24869600Y60303800I250000J0D01*
G01*
X25619600Y60303800D01*
G75*
G02*
X25869600Y60053800I0J-250000D01*
G01*
X25869600Y57903800D01*
G75*
G02*
X25619600Y57653800I-250000J0D01*
G01*
X24869600Y57653800D01*
G75*
G02*
X24619600Y57903800I0J250000D01*
G01*
G37*
G36*
G01*
X27419600Y57903800D02*
X27419600Y60053800D01*
G75*
G02*
X27669600Y60303800I250000J0D01*
G01*
X28419600Y60303800D01*
G75*
G02*
X28669600Y60053800I0J-250000D01*
G01*
X28669600Y57903800D01*
G75*
G02*
X28419600Y57653800I-250000J0D01*
G01*
X27669600Y57653800D01*
G75*
G02*
X27419600Y57903800I0J250000D01*
G01*
G37*
%TD*%
%TO.C,R1*%
G36*
G01*
X38689800Y64645250D02*
X38689800Y64132750D01*
G75*
G02*
X38471050Y63914000I-218750J0D01*
G01*
X38033550Y63914000D01*
G75*
G02*
X37814800Y64132750I0J218750D01*
G01*
X37814800Y64645250D01*
G75*
G02*
X38033550Y64864000I218750J0D01*
G01*
X38471050Y64864000D01*
G75*
G02*
X38689800Y64645250I0J-218750D01*
G01*
G37*
G36*
G01*
X40264800Y64645250D02*
X40264800Y64132750D01*
G75*
G02*
X40046050Y63914000I-218750J0D01*
G01*
X39608550Y63914000D01*
G75*
G02*
X39389800Y64132750I0J218750D01*
G01*
X39389800Y64645250D01*
G75*
G02*
X39608550Y64864000I218750J0D01*
G01*
X40046050Y64864000D01*
G75*
G02*
X40264800Y64645250I0J-218750D01*
G01*
G37*
%TD*%
%TO.C,R2*%
G36*
G01*
X47300400Y65331050D02*
X47300400Y64818550D01*
G75*
G02*
X47081650Y64599800I-218750J0D01*
G01*
X46644150Y64599800D01*
G75*
G02*
X46425400Y64818550I0J218750D01*
G01*
X46425400Y65331050D01*
G75*
G02*
X46644150Y65549800I218750J0D01*
G01*
X47081650Y65549800D01*
G75*
G02*
X47300400Y65331050I0J-218750D01*
G01*
G37*
G36*
G01*
X48875400Y65331050D02*
X48875400Y64818550D01*
G75*
G02*
X48656650Y64599800I-218750J0D01*
G01*
X48219150Y64599800D01*
G75*
G02*
X48000400Y64818550I0J218750D01*
G01*
X48000400Y65331050D01*
G75*
G02*
X48219150Y65549800I218750J0D01*
G01*
X48656650Y65549800D01*
G75*
G02*
X48875400Y65331050I0J-218750D01*
G01*
G37*
%TD*%
%TO.C,R3*%
G36*
G01*
X32873400Y51234050D02*
X32873400Y50721550D01*
G75*
G02*
X32654650Y50502800I-218750J0D01*
G01*
X32217150Y50502800D01*
G75*
G02*
X31998400Y50721550I0J218750D01*
G01*
X31998400Y51234050D01*
G75*
G02*
X32217150Y51452800I218750J0D01*
G01*
X32654650Y51452800D01*
G75*
G02*
X32873400Y51234050I0J-218750D01*
G01*
G37*
G36*
G01*
X31298400Y51234050D02*
X31298400Y50721550D01*
G75*
G02*
X31079650Y50502800I-218750J0D01*
G01*
X30642150Y50502800D01*
G75*
G02*
X30423400Y50721550I0J218750D01*
G01*
X30423400Y51234050D01*
G75*
G02*
X30642150Y51452800I218750J0D01*
G01*
X31079650Y51452800D01*
G75*
G02*
X31298400Y51234050I0J-218750D01*
G01*
G37*
%TD*%
%TO.C,R4*%
G36*
G01*
X29186850Y64637400D02*
X28674350Y64637400D01*
G75*
G02*
X28455600Y64856150I0J218750D01*
G01*
X28455600Y65293650D01*
G75*
G02*
X28674350Y65512400I218750J0D01*
G01*
X29186850Y65512400D01*
G75*
G02*
X29405600Y65293650I0J-218750D01*
G01*
X29405600Y64856150D01*
G75*
G02*
X29186850Y64637400I-218750J0D01*
G01*
G37*
G36*
G01*
X29186850Y63062400D02*
X28674350Y63062400D01*
G75*
G02*
X28455600Y63281150I0J218750D01*
G01*
X28455600Y63718650D01*
G75*
G02*
X28674350Y63937400I218750J0D01*
G01*
X29186850Y63937400D01*
G75*
G02*
X29405600Y63718650I0J-218750D01*
G01*
X29405600Y63281150D01*
G75*
G02*
X29186850Y63062400I-218750J0D01*
G01*
G37*
%TD*%
%TO.C,R5*%
G36*
G01*
X71901600Y67333150D02*
X71901600Y67845650D01*
G75*
G02*
X72120350Y68064400I218750J0D01*
G01*
X72557850Y68064400D01*
G75*
G02*
X72776600Y67845650I0J-218750D01*
G01*
X72776600Y67333150D01*
G75*
G02*
X72557850Y67114400I-218750J0D01*
G01*
X72120350Y67114400D01*
G75*
G02*
X71901600Y67333150I0J218750D01*
G01*
G37*
G36*
G01*
X73476600Y67333150D02*
X73476600Y67845650D01*
G75*
G02*
X73695350Y68064400I218750J0D01*
G01*
X74132850Y68064400D01*
G75*
G02*
X74351600Y67845650I0J-218750D01*
G01*
X74351600Y67333150D01*
G75*
G02*
X74132850Y67114400I-218750J0D01*
G01*
X73695350Y67114400D01*
G75*
G02*
X73476600Y67333150I0J218750D01*
G01*
G37*
%TD*%
%TO.C,R6*%
G36*
G01*
X62808400Y46682950D02*
X62808400Y47195450D01*
G75*
G02*
X63027150Y47414200I218750J0D01*
G01*
X63464650Y47414200D01*
G75*
G02*
X63683400Y47195450I0J-218750D01*
G01*
X63683400Y46682950D01*
G75*
G02*
X63464650Y46464200I-218750J0D01*
G01*
X63027150Y46464200D01*
G75*
G02*
X62808400Y46682950I0J218750D01*
G01*
G37*
G36*
G01*
X64383400Y46682950D02*
X64383400Y47195450D01*
G75*
G02*
X64602150Y47414200I218750J0D01*
G01*
X65039650Y47414200D01*
G75*
G02*
X65258400Y47195450I0J-218750D01*
G01*
X65258400Y46682950D01*
G75*
G02*
X65039650Y46464200I-218750J0D01*
G01*
X64602150Y46464200D01*
G75*
G02*
X64383400Y46682950I0J218750D01*
G01*
G37*
%TD*%
%TO.C,R7*%
G36*
G01*
X29004550Y55428400D02*
X29517050Y55428400D01*
G75*
G02*
X29735800Y55209650I0J-218750D01*
G01*
X29735800Y54772150D01*
G75*
G02*
X29517050Y54553400I-218750J0D01*
G01*
X29004550Y54553400D01*
G75*
G02*
X28785800Y54772150I0J218750D01*
G01*
X28785800Y55209650D01*
G75*
G02*
X29004550Y55428400I218750J0D01*
G01*
G37*
G36*
G01*
X29004550Y57003400D02*
X29517050Y57003400D01*
G75*
G02*
X29735800Y56784650I0J-218750D01*
G01*
X29735800Y56347150D01*
G75*
G02*
X29517050Y56128400I-218750J0D01*
G01*
X29004550Y56128400D01*
G75*
G02*
X28785800Y56347150I0J218750D01*
G01*
X28785800Y56784650D01*
G75*
G02*
X29004550Y57003400I218750J0D01*
G01*
G37*
%TD*%
%TO.C,R8*%
G36*
G01*
X29004550Y54006200D02*
X29517050Y54006200D01*
G75*
G02*
X29735800Y53787450I0J-218750D01*
G01*
X29735800Y53349950D01*
G75*
G02*
X29517050Y53131200I-218750J0D01*
G01*
X29004550Y53131200D01*
G75*
G02*
X28785800Y53349950I0J218750D01*
G01*
X28785800Y53787450D01*
G75*
G02*
X29004550Y54006200I218750J0D01*
G01*
G37*
G36*
G01*
X29004550Y52431200D02*
X29517050Y52431200D01*
G75*
G02*
X29735800Y52212450I0J-218750D01*
G01*
X29735800Y51774950D01*
G75*
G02*
X29517050Y51556200I-218750J0D01*
G01*
X29004550Y51556200D01*
G75*
G02*
X28785800Y51774950I0J218750D01*
G01*
X28785800Y52212450D01*
G75*
G02*
X29004550Y52431200I218750J0D01*
G01*
G37*
%TD*%
D12*
%TO.C,SW1*%
X37893200Y68851200D03*
X31093200Y68851200D03*
D13*
X32393200Y66751200D03*
X36593200Y66751200D03*
%TD*%
%TO.C,SW2*%
X46931000Y66700400D03*
X42731000Y66700400D03*
D12*
X41431000Y68800400D03*
X48231000Y68800400D03*
%TD*%
D10*
%TO.C,U1*%
G36*
X35989939Y60382776D02*
G01*
X35813163Y60206000D01*
X35388899Y60630264D01*
X35565675Y60807040D01*
X35989939Y60382776D01*
G37*
G36*
X34010040Y62362675D02*
G01*
X33833264Y62185899D01*
X33409000Y62610163D01*
X33585776Y62786939D01*
X34010040Y62362675D01*
G37*
G36*
X36555625Y60948462D02*
G01*
X36378849Y60771686D01*
X35954585Y61195950D01*
X36131361Y61372726D01*
X36555625Y60948462D01*
G37*
G36*
X37121310Y61514147D02*
G01*
X36944534Y61337371D01*
X36520270Y61761635D01*
X36697046Y61938411D01*
X37121310Y61514147D01*
G37*
G36*
X37686996Y62079833D02*
G01*
X37510220Y61903057D01*
X37085956Y62327321D01*
X37262732Y62504097D01*
X37686996Y62079833D01*
G37*
G36*
X34575726Y62928361D02*
G01*
X34398950Y62751585D01*
X33974686Y63175849D01*
X34151462Y63352625D01*
X34575726Y62928361D01*
G37*
G36*
X35141411Y63494046D02*
G01*
X34964635Y63317270D01*
X34540371Y63741534D01*
X34717147Y63918310D01*
X35141411Y63494046D01*
G37*
G36*
X35707097Y64059732D02*
G01*
X35530321Y63882956D01*
X35106057Y64307220D01*
X35282833Y64483996D01*
X35707097Y64059732D01*
G37*
G36*
X36481379Y63136958D02*
G01*
X35915694Y62571273D01*
X35774273Y62712694D01*
X36339958Y63278379D01*
X36481379Y63136958D01*
G37*
G36*
X35367827Y62023406D02*
G01*
X34802142Y61457721D01*
X34660721Y61599142D01*
X35226406Y62164827D01*
X35367827Y62023406D01*
G37*
%TD*%
D14*
%TO.C,U3*%
X54849000Y49304000D03*
X56849000Y49304000D03*
X58849000Y49304000D03*
X60849000Y49304000D03*
X62849000Y49304000D03*
X64849000Y49304000D03*
X66849000Y49304000D03*
X68849000Y49304000D03*
X68849000Y65504000D03*
X66849000Y65504000D03*
X64849000Y65504000D03*
X62849000Y65504000D03*
X60849000Y65504000D03*
X58849000Y65504000D03*
X56849000Y65504000D03*
X54849000Y65504000D03*
%TD*%
D15*
%TO.C,U4*%
X27518400Y56192600D03*
X26568400Y56192600D03*
X25618400Y56192600D03*
X25618400Y53992600D03*
X27518400Y53992600D03*
%TD*%
M02*
