M48
; DRILL file {KiCad (5.1.6)-1} date 12/01/20 11:19:42
; FORMAT={3:3/ absolute / metric / suppress leading zeros}
; #@! TF.CreationDate,2020-12-01T11:19:42+01:00
; #@! TF.GenerationSoftware,Kicad,Pcbnew,(5.1.6)-1
; #@! TF.FileFunction,Plated,1,2,PTH
FMAT,2
METRIC,TZ
T1C0.300
T2C0.400
T3C1.000
T4C1.500
T5C2.200
%
G90
G05
T1
X21057Y57353
X21939Y57334
X23114Y62484
X23114Y60960
X23114Y57150
X23114Y55372
X23114Y51816
X23368Y64008
X23368Y49530
X23622Y46736
X25654Y45720
X26162Y61214
X29972Y65278
X29972Y45720
X30582Y48387
X31496Y61214
X31750Y56388
X31750Y53594
X32487Y57429
X33020Y65278
X33253Y59842
X33253Y59142
X33350Y56540
X34290Y50292
X34290Y47752
X34290Y45720
X35483Y63219
X36160Y63692
X36627Y48666
X37287Y55016
X38100Y58420
X38202Y62408
X38354Y55880
X38862Y59182
X38989Y53924
X39878Y63119
X40894Y59182
X41148Y58420
X41148Y55880
X42647Y61646
X43129Y56058
X43688Y65278
X43688Y62992
X43688Y60960
X44450Y51308
X45847Y50165
X46990Y51308
X47168Y60249
X49149Y62103
X49479Y57429
X49530Y58420
X49530Y55372
X49530Y51308
X49606Y65075
X52324Y61722
X52324Y58420
X52324Y55372
X52451Y48666
X53086Y68580
X53289Y52172
X53467Y48997
X57048Y47371
X57429Y52273
X57658Y68580
X58849Y51108
X58928Y55626
X60223Y52451
X60503Y51110
X61976Y68580
X62103Y46939
X62713Y51410
X64516Y58928
X64516Y55626
X66802Y68580
X66929Y46482
X67564Y63221
X68326Y62205
X69342Y61189
X70358Y60173
X70612Y63983
X71374Y59157
X71628Y62967
X72390Y58141
X72644Y61951
X73406Y57125
X73660Y60935
X74422Y56363
X74676Y59919
X75692Y58903
X75946Y55855
T2
X23521Y66954
X24005Y68121
X24005Y65788
X25171Y68604
X25171Y65304
X26338Y68121
X26338Y65788
X26821Y66954
X72747Y47422
X73230Y48589
X73230Y46255
X74397Y49072
X74397Y45772
X75563Y48589
X75563Y46255
X76047Y47422
T3
X36398Y46965
X38938Y46965
X41478Y46965
X44018Y46965
X46558Y46965
X49098Y46965
X51638Y46965
T4
X77749Y59792
X77749Y54712
X80289Y57252
X82829Y59792
X82829Y54712
T5
X25171Y66954
X74397Y47422
T0
M30
