%TF.GenerationSoftware,KiCad,Pcbnew,(5.1.6)-1*%
%TF.CreationDate,2020-12-02T12:11:42+01:00*%
%TF.ProjectId,LoRa_Dongle_Thin,4c6f5261-5f44-46f6-9e67-6c655f546869,rev?*%
%TF.SameCoordinates,Original*%
%TF.FileFunction,Legend,Bot*%
%TF.FilePolarity,Positive*%
%FSLAX46Y46*%
G04 Gerber Fmt 4.6, Leading zero omitted, Abs format (unit mm)*
G04 Created by KiCad (PCBNEW (5.1.6)-1) date 2020-12-02 12:11:42*
%MOMM*%
%LPD*%
G01*
G04 APERTURE LIST*
%ADD10C,0.150000*%
%ADD11C,0.120000*%
%ADD12C,0.010000*%
G04 APERTURE END LIST*
D10*
X59145133Y64165219D02*
X59145133Y64831885D01*
X59145133Y64736647D02*
X59097514Y64784266D01*
X59002276Y64831885D01*
X58859419Y64831885D01*
X58764180Y64784266D01*
X58716561Y64689028D01*
X58716561Y64165219D01*
X58716561Y64689028D02*
X58668942Y64784266D01*
X58573704Y64831885D01*
X58430847Y64831885D01*
X58335609Y64784266D01*
X58287990Y64689028D01*
X58287990Y64165219D01*
X57811800Y64165219D02*
X57811800Y64831885D01*
X57811800Y65165219D02*
X57859419Y65117600D01*
X57811800Y65069980D01*
X57764180Y65117600D01*
X57811800Y65165219D01*
X57811800Y65069980D01*
X56907038Y64212838D02*
X57002276Y64165219D01*
X57192752Y64165219D01*
X57287990Y64212838D01*
X57335609Y64260457D01*
X57383228Y64355695D01*
X57383228Y64641409D01*
X57335609Y64736647D01*
X57287990Y64784266D01*
X57192752Y64831885D01*
X57002276Y64831885D01*
X56907038Y64784266D01*
X56478466Y64165219D02*
X56478466Y64831885D01*
X56478466Y64641409D02*
X56430847Y64736647D01*
X56383228Y64784266D01*
X56287990Y64831885D01*
X56192752Y64831885D01*
X55716561Y64165219D02*
X55811800Y64212838D01*
X55859419Y64260457D01*
X55907038Y64355695D01*
X55907038Y64641409D01*
X55859419Y64736647D01*
X55811800Y64784266D01*
X55716561Y64831885D01*
X55573704Y64831885D01*
X55478466Y64784266D01*
X55430847Y64736647D01*
X55383228Y64641409D01*
X55383228Y64355695D01*
X55430847Y64260457D01*
X55478466Y64212838D01*
X55573704Y64165219D01*
X55716561Y64165219D01*
X55002276Y64212838D02*
X54859419Y64165219D01*
X54621323Y64165219D01*
X54526085Y64212838D01*
X54478466Y64260457D01*
X54430847Y64355695D01*
X54430847Y64450933D01*
X54478466Y64546171D01*
X54526085Y64593790D01*
X54621323Y64641409D01*
X54811800Y64689028D01*
X54907038Y64736647D01*
X54954657Y64784266D01*
X55002276Y64879504D01*
X55002276Y64974742D01*
X54954657Y65069980D01*
X54907038Y65117600D01*
X54811800Y65165219D01*
X54573704Y65165219D01*
X54430847Y65117600D01*
X54002276Y64165219D02*
X54002276Y65165219D01*
X53764180Y65165219D01*
X53621323Y65117600D01*
X53526085Y65022361D01*
X53478466Y64927123D01*
X53430847Y64736647D01*
X53430847Y64593790D01*
X53478466Y64403314D01*
X53526085Y64308076D01*
X53621323Y64212838D01*
X53764180Y64165219D01*
X54002276Y64165219D01*
X43569000Y54609904D02*
X43521380Y54705142D01*
X43521380Y54848000D01*
X43569000Y54990857D01*
X43664238Y55086095D01*
X43759476Y55133714D01*
X43949952Y55181333D01*
X44092809Y55181333D01*
X44283285Y55133714D01*
X44378523Y55086095D01*
X44473761Y54990857D01*
X44521380Y54848000D01*
X44521380Y54752761D01*
X44473761Y54609904D01*
X44426142Y54562285D01*
X44092809Y54562285D01*
X44092809Y54752761D01*
X44521380Y54133714D02*
X43521380Y54133714D01*
X44521380Y53562285D01*
X43521380Y53562285D01*
X44521380Y53086095D02*
X43521380Y53086095D01*
X43521380Y52848000D01*
X43569000Y52705142D01*
X43664238Y52609904D01*
X43759476Y52562285D01*
X43949952Y52514666D01*
X44092809Y52514666D01*
X44283285Y52562285D01*
X44378523Y52609904D01*
X44473761Y52705142D01*
X44521380Y52848000D01*
X44521380Y53086095D01*
X41930580Y55871857D02*
X40930580Y55871857D01*
X40930580Y55490904D01*
X40978200Y55395666D01*
X41025819Y55348047D01*
X41121057Y55300428D01*
X41263914Y55300428D01*
X41359152Y55348047D01*
X41406771Y55395666D01*
X41454390Y55490904D01*
X41454390Y55871857D01*
X41644866Y54919476D02*
X41644866Y54443285D01*
X41930580Y55014714D02*
X40930580Y54681380D01*
X41930580Y54348047D01*
X40930580Y53824238D02*
X40930580Y53729000D01*
X40978200Y53633761D01*
X41025819Y53586142D01*
X41121057Y53538523D01*
X41311533Y53490904D01*
X41549628Y53490904D01*
X41740104Y53538523D01*
X41835342Y53586142D01*
X41882961Y53633761D01*
X41930580Y53729000D01*
X41930580Y53824238D01*
X41882961Y53919476D01*
X41835342Y53967095D01*
X41740104Y54014714D01*
X41549628Y54062333D01*
X41311533Y54062333D01*
X41121057Y54014714D01*
X41025819Y53967095D01*
X40978200Y53919476D01*
X40930580Y53824238D01*
X41025819Y53109952D02*
X40978200Y53062333D01*
X40930580Y52967095D01*
X40930580Y52729000D01*
X40978200Y52633761D01*
X41025819Y52586142D01*
X41121057Y52538523D01*
X41216295Y52538523D01*
X41359152Y52586142D01*
X41930580Y53157571D01*
X41930580Y52538523D01*
X39415980Y55821057D02*
X38415980Y55821057D01*
X38415980Y55440104D01*
X38463600Y55344866D01*
X38511219Y55297247D01*
X38606457Y55249628D01*
X38749314Y55249628D01*
X38844552Y55297247D01*
X38892171Y55344866D01*
X38939790Y55440104D01*
X38939790Y55821057D01*
X39130266Y54868676D02*
X39130266Y54392485D01*
X39415980Y54963914D02*
X38415980Y54630580D01*
X39415980Y54297247D01*
X38415980Y53773438D02*
X38415980Y53678200D01*
X38463600Y53582961D01*
X38511219Y53535342D01*
X38606457Y53487723D01*
X38796933Y53440104D01*
X39035028Y53440104D01*
X39225504Y53487723D01*
X39320742Y53535342D01*
X39368361Y53582961D01*
X39415980Y53678200D01*
X39415980Y53773438D01*
X39368361Y53868676D01*
X39320742Y53916295D01*
X39225504Y53963914D01*
X39035028Y54011533D01*
X38796933Y54011533D01*
X38606457Y53963914D01*
X38511219Y53916295D01*
X38463600Y53868676D01*
X38415980Y53773438D01*
X39415980Y52487723D02*
X39415980Y53059152D01*
X39415980Y52773438D02*
X38415980Y52773438D01*
X38558838Y52868676D01*
X38654076Y52963914D01*
X38701695Y53059152D01*
X36901380Y55871857D02*
X35901380Y55871857D01*
X35901380Y55490904D01*
X35949000Y55395666D01*
X35996619Y55348047D01*
X36091857Y55300428D01*
X36234714Y55300428D01*
X36329952Y55348047D01*
X36377571Y55395666D01*
X36425190Y55490904D01*
X36425190Y55871857D01*
X36615666Y54919476D02*
X36615666Y54443285D01*
X36901380Y55014714D02*
X35901380Y54681380D01*
X36901380Y54348047D01*
X35901380Y53824238D02*
X35901380Y53729000D01*
X35949000Y53633761D01*
X35996619Y53586142D01*
X36091857Y53538523D01*
X36282333Y53490904D01*
X36520428Y53490904D01*
X36710904Y53538523D01*
X36806142Y53586142D01*
X36853761Y53633761D01*
X36901380Y53729000D01*
X36901380Y53824238D01*
X36853761Y53919476D01*
X36806142Y53967095D01*
X36710904Y54014714D01*
X36520428Y54062333D01*
X36282333Y54062333D01*
X36091857Y54014714D01*
X35996619Y53967095D01*
X35949000Y53919476D01*
X35901380Y53824238D01*
X35901380Y52871857D02*
X35901380Y52776619D01*
X35949000Y52681380D01*
X35996619Y52633761D01*
X36091857Y52586142D01*
X36282333Y52538523D01*
X36520428Y52538523D01*
X36710904Y52586142D01*
X36806142Y52633761D01*
X36853761Y52681380D01*
X36901380Y52776619D01*
X36901380Y52871857D01*
X36853761Y52967095D01*
X36806142Y53014714D01*
X36710904Y53062333D01*
X36520428Y53109952D01*
X36282333Y53109952D01*
X36091857Y53062333D01*
X35996619Y53014714D01*
X35949000Y52967095D01*
X35901380Y52871857D01*
X34313761Y56729047D02*
X34361380Y56586190D01*
X34361380Y56348095D01*
X34313761Y56252857D01*
X34266142Y56205238D01*
X34170904Y56157619D01*
X34075666Y56157619D01*
X33980428Y56205238D01*
X33932809Y56252857D01*
X33885190Y56348095D01*
X33837571Y56538571D01*
X33789952Y56633809D01*
X33742333Y56681428D01*
X33647095Y56729047D01*
X33551857Y56729047D01*
X33456619Y56681428D01*
X33409000Y56633809D01*
X33361380Y56538571D01*
X33361380Y56300476D01*
X33409000Y56157619D01*
X33361380Y55824285D02*
X34361380Y55586190D01*
X33647095Y55395714D01*
X34361380Y55205238D01*
X33361380Y54967142D01*
X34361380Y54586190D02*
X33361380Y54586190D01*
X33361380Y54348095D01*
X33409000Y54205238D01*
X33504238Y54110000D01*
X33599476Y54062380D01*
X33789952Y54014761D01*
X33932809Y54014761D01*
X34123285Y54062380D01*
X34218523Y54110000D01*
X34313761Y54205238D01*
X34361380Y54348095D01*
X34361380Y54586190D01*
X34361380Y53586190D02*
X33361380Y53586190D01*
X33361380Y52919523D02*
X33361380Y52729047D01*
X33409000Y52633809D01*
X33504238Y52538571D01*
X33694714Y52490952D01*
X34028047Y52490952D01*
X34218523Y52538571D01*
X34313761Y52633809D01*
X34361380Y52729047D01*
X34361380Y52919523D01*
X34313761Y53014761D01*
X34218523Y53110000D01*
X34028047Y53157619D01*
X33694714Y53157619D01*
X33504238Y53110000D01*
X33409000Y53014761D01*
X33361380Y52919523D01*
X31799161Y57049704D02*
X31846780Y56906847D01*
X31846780Y56668752D01*
X31799161Y56573514D01*
X31751542Y56525895D01*
X31656304Y56478276D01*
X31561066Y56478276D01*
X31465828Y56525895D01*
X31418209Y56573514D01*
X31370590Y56668752D01*
X31322971Y56859228D01*
X31275352Y56954466D01*
X31227733Y57002085D01*
X31132495Y57049704D01*
X31037257Y57049704D01*
X30942019Y57002085D01*
X30894400Y56954466D01*
X30846780Y56859228D01*
X30846780Y56621133D01*
X30894400Y56478276D01*
X30846780Y56144942D02*
X31846780Y55906847D01*
X31132495Y55716371D01*
X31846780Y55525895D01*
X30846780Y55287800D01*
X31751542Y54335419D02*
X31799161Y54383038D01*
X31846780Y54525895D01*
X31846780Y54621133D01*
X31799161Y54763990D01*
X31703923Y54859228D01*
X31608685Y54906847D01*
X31418209Y54954466D01*
X31275352Y54954466D01*
X31084876Y54906847D01*
X30989638Y54859228D01*
X30894400Y54763990D01*
X30846780Y54621133D01*
X30846780Y54525895D01*
X30894400Y54383038D01*
X30942019Y54335419D01*
X31846780Y53430657D02*
X31846780Y53906847D01*
X30846780Y53906847D01*
X31846780Y53097323D02*
X30846780Y53097323D01*
X31846780Y52525895D02*
X31275352Y52954466D01*
X30846780Y52525895D02*
X31418209Y53097323D01*
X28281380Y54959095D02*
X28281380Y54340047D01*
X28662333Y54673380D01*
X28662333Y54530523D01*
X28709952Y54435285D01*
X28757571Y54387666D01*
X28852809Y54340047D01*
X29090904Y54340047D01*
X29186142Y54387666D01*
X29233761Y54435285D01*
X29281380Y54530523D01*
X29281380Y54816238D01*
X29233761Y54911476D01*
X29186142Y54959095D01*
X28281380Y54054333D02*
X29281380Y53721000D01*
X28281380Y53387666D01*
X28281380Y53149571D02*
X28281380Y52530523D01*
X28662333Y52863857D01*
X28662333Y52721000D01*
X28709952Y52625761D01*
X28757571Y52578142D01*
X28852809Y52530523D01*
X29090904Y52530523D01*
X29186142Y52578142D01*
X29233761Y52625761D01*
X29281380Y52721000D01*
X29281380Y53006714D01*
X29233761Y53101952D01*
X29186142Y53149571D01*
D11*
%TO.C,J1*%
X45373600Y50968600D02*
X45373600Y52070000D01*
X27473600Y50968600D02*
X27473600Y52070000D01*
X45364400Y52070000D02*
X27482800Y52070000D01*
X44803600Y50968600D02*
X44803600Y49448600D01*
X45373600Y50968600D02*
X44803600Y50968600D01*
X43283600Y50968600D02*
X39723600Y50968600D01*
X38203600Y50968600D02*
X34643600Y50968600D01*
X33123600Y50968600D02*
X29563600Y50968600D01*
D12*
%TO.C,G\u002A\u002A\u002A*%
G36*
X40099200Y60587694D02*
G01*
X40067388Y60580403D01*
X40034520Y60568442D01*
X40009699Y60557163D01*
X39988728Y60546585D01*
X39972268Y60536846D01*
X39957604Y60526001D01*
X39942022Y60512107D01*
X39928847Y60499260D01*
X39894452Y60460523D01*
X39867862Y60420075D01*
X39848427Y60376615D01*
X39835497Y60328842D01*
X39831473Y60304463D01*
X39828937Y60254845D01*
X39834806Y60205211D01*
X39849100Y60155459D01*
X39868091Y60112606D01*
X39894268Y60070764D01*
X39927114Y60033201D01*
X39965548Y60000783D01*
X40008490Y59974378D01*
X40054861Y59954852D01*
X40070616Y59950097D01*
X40087035Y59946705D01*
X40107438Y59944093D01*
X40129936Y59942315D01*
X40152639Y59941425D01*
X40173659Y59941475D01*
X40191107Y59942520D01*
X40203093Y59944614D01*
X40206677Y59946234D01*
X40216993Y59950893D01*
X40226060Y59952332D01*
X40238118Y59954087D01*
X40255449Y59958614D01*
X40275650Y59965107D01*
X40296321Y59972760D01*
X40315061Y59980768D01*
X40323961Y59985183D01*
X40335400Y59992713D01*
X40350709Y60004775D01*
X40367942Y60019747D01*
X40385153Y60036008D01*
X40386240Y60037086D01*
X40404266Y60055475D01*
X40417629Y60070506D01*
X40428007Y60084428D01*
X40437080Y60099489D01*
X40446348Y60117566D01*
X40460424Y60148280D01*
X40470225Y60175085D01*
X40476438Y60200930D01*
X40479752Y60228767D01*
X40480853Y60261546D01*
X40480869Y60265733D01*
X40480536Y60292013D01*
X40479249Y60312617D01*
X40476702Y60330309D01*
X40472593Y60347854D01*
X40471361Y60352277D01*
X40452827Y60402522D01*
X40427413Y60448066D01*
X40395564Y60488441D01*
X40357722Y60523175D01*
X40314331Y60551802D01*
X40265835Y60573850D01*
X40260105Y60575889D01*
X40241266Y60581932D01*
X40224329Y60585997D01*
X40206303Y60588587D01*
X40184193Y60590206D01*
X40171719Y60590768D01*
X40132972Y60590940D01*
X40099200Y60587694D01*
G37*
X40099200Y60587694D02*
X40067388Y60580403D01*
X40034520Y60568442D01*
X40009699Y60557163D01*
X39988728Y60546585D01*
X39972268Y60536846D01*
X39957604Y60526001D01*
X39942022Y60512107D01*
X39928847Y60499260D01*
X39894452Y60460523D01*
X39867862Y60420075D01*
X39848427Y60376615D01*
X39835497Y60328842D01*
X39831473Y60304463D01*
X39828937Y60254845D01*
X39834806Y60205211D01*
X39849100Y60155459D01*
X39868091Y60112606D01*
X39894268Y60070764D01*
X39927114Y60033201D01*
X39965548Y60000783D01*
X40008490Y59974378D01*
X40054861Y59954852D01*
X40070616Y59950097D01*
X40087035Y59946705D01*
X40107438Y59944093D01*
X40129936Y59942315D01*
X40152639Y59941425D01*
X40173659Y59941475D01*
X40191107Y59942520D01*
X40203093Y59944614D01*
X40206677Y59946234D01*
X40216993Y59950893D01*
X40226060Y59952332D01*
X40238118Y59954087D01*
X40255449Y59958614D01*
X40275650Y59965107D01*
X40296321Y59972760D01*
X40315061Y59980768D01*
X40323961Y59985183D01*
X40335400Y59992713D01*
X40350709Y60004775D01*
X40367942Y60019747D01*
X40385153Y60036008D01*
X40386240Y60037086D01*
X40404266Y60055475D01*
X40417629Y60070506D01*
X40428007Y60084428D01*
X40437080Y60099489D01*
X40446348Y60117566D01*
X40460424Y60148280D01*
X40470225Y60175085D01*
X40476438Y60200930D01*
X40479752Y60228767D01*
X40480853Y60261546D01*
X40480869Y60265733D01*
X40480536Y60292013D01*
X40479249Y60312617D01*
X40476702Y60330309D01*
X40472593Y60347854D01*
X40471361Y60352277D01*
X40452827Y60402522D01*
X40427413Y60448066D01*
X40395564Y60488441D01*
X40357722Y60523175D01*
X40314331Y60551802D01*
X40265835Y60573850D01*
X40260105Y60575889D01*
X40241266Y60581932D01*
X40224329Y60585997D01*
X40206303Y60588587D01*
X40184193Y60590206D01*
X40171719Y60590768D01*
X40132972Y60590940D01*
X40099200Y60587694D01*
G36*
X19191450Y61499743D02*
G01*
X19154291Y61499699D01*
X19123978Y61499578D01*
X19099702Y61499342D01*
X19080652Y61498954D01*
X19066018Y61498376D01*
X19054989Y61497569D01*
X19046757Y61496495D01*
X19040511Y61495116D01*
X19035440Y61493395D01*
X19030734Y61491293D01*
X19028017Y61489964D01*
X19001388Y61472508D01*
X18978497Y61449003D01*
X18961740Y61422091D01*
X18950516Y61398150D01*
X18950516Y61034083D01*
X18961726Y61010173D01*
X18979449Y60981639D01*
X19003016Y60958021D01*
X19027043Y60942740D01*
X19047883Y60932483D01*
X19232033Y60931657D01*
X19278458Y60931497D01*
X19317149Y60931483D01*
X19348836Y60931634D01*
X19374251Y60931969D01*
X19394124Y60932504D01*
X19409188Y60933260D01*
X19420171Y60934255D01*
X19427807Y60935507D01*
X19432004Y60936708D01*
X19457995Y60949887D01*
X19481436Y60968343D01*
X19498413Y60988361D01*
X19504547Y60997888D01*
X19509636Y61006852D01*
X19513771Y61016122D01*
X19517041Y61026565D01*
X19519539Y61039047D01*
X19521355Y61054437D01*
X19522580Y61073601D01*
X19523306Y61097406D01*
X19523622Y61126721D01*
X19523621Y61162412D01*
X19523392Y61205346D01*
X19523254Y61225227D01*
X19522016Y61398150D01*
X19510792Y61422091D01*
X19493455Y61449763D01*
X19470019Y61473390D01*
X19444700Y61489786D01*
X19424649Y61499750D01*
X19236266Y61499750D01*
X19191450Y61499743D01*
G37*
X19191450Y61499743D02*
X19154291Y61499699D01*
X19123978Y61499578D01*
X19099702Y61499342D01*
X19080652Y61498954D01*
X19066018Y61498376D01*
X19054989Y61497569D01*
X19046757Y61496495D01*
X19040511Y61495116D01*
X19035440Y61493395D01*
X19030734Y61491293D01*
X19028017Y61489964D01*
X19001388Y61472508D01*
X18978497Y61449003D01*
X18961740Y61422091D01*
X18950516Y61398150D01*
X18950516Y61034083D01*
X18961726Y61010173D01*
X18979449Y60981639D01*
X19003016Y60958021D01*
X19027043Y60942740D01*
X19047883Y60932483D01*
X19232033Y60931657D01*
X19278458Y60931497D01*
X19317149Y60931483D01*
X19348836Y60931634D01*
X19374251Y60931969D01*
X19394124Y60932504D01*
X19409188Y60933260D01*
X19420171Y60934255D01*
X19427807Y60935507D01*
X19432004Y60936708D01*
X19457995Y60949887D01*
X19481436Y60968343D01*
X19498413Y60988361D01*
X19504547Y60997888D01*
X19509636Y61006852D01*
X19513771Y61016122D01*
X19517041Y61026565D01*
X19519539Y61039047D01*
X19521355Y61054437D01*
X19522580Y61073601D01*
X19523306Y61097406D01*
X19523622Y61126721D01*
X19523621Y61162412D01*
X19523392Y61205346D01*
X19523254Y61225227D01*
X19522016Y61398150D01*
X19510792Y61422091D01*
X19493455Y61449763D01*
X19470019Y61473390D01*
X19444700Y61489786D01*
X19424649Y61499750D01*
X19236266Y61499750D01*
X19191450Y61499743D01*
G36*
X13749866Y60147200D02*
G01*
X14347825Y60147175D01*
X14429379Y60147143D01*
X14506604Y60147055D01*
X14579153Y60146913D01*
X14646676Y60146720D01*
X14708826Y60146478D01*
X14765254Y60146189D01*
X14815612Y60145856D01*
X14859551Y60145480D01*
X14896723Y60145065D01*
X14926780Y60144611D01*
X14949374Y60144122D01*
X14964155Y60143600D01*
X14970424Y60143115D01*
X15005676Y60133480D01*
X15037331Y60117287D01*
X15064649Y60095522D01*
X15086892Y60069173D01*
X15103320Y60039225D01*
X15113193Y60006666D01*
X15115771Y59972481D01*
X15113602Y59952116D01*
X15102993Y59914701D01*
X15085342Y59881765D01*
X15061052Y59853839D01*
X15030525Y59831454D01*
X15016652Y59824167D01*
X14988116Y59810650D01*
X14408150Y59808360D01*
X14324631Y59808034D01*
X14249118Y59807737D01*
X14181149Y59807451D01*
X14120263Y59807157D01*
X14066000Y59806837D01*
X14017896Y59806472D01*
X13975492Y59806046D01*
X13938327Y59805538D01*
X13905939Y59804932D01*
X13877866Y59804208D01*
X13853649Y59803349D01*
X13832825Y59802336D01*
X13814933Y59801152D01*
X13799513Y59799777D01*
X13786103Y59798194D01*
X13774242Y59796384D01*
X13763469Y59794329D01*
X13753322Y59792011D01*
X13743341Y59789412D01*
X13733064Y59786513D01*
X13722030Y59783296D01*
X13713757Y59780888D01*
X13638731Y59754893D01*
X13567726Y59721633D01*
X13501155Y59681502D01*
X13439434Y59634894D01*
X13382975Y59582205D01*
X13332194Y59523829D01*
X13287504Y59460160D01*
X13249321Y59391595D01*
X13218057Y59318526D01*
X13212722Y59303552D01*
X13190626Y59227021D01*
X13176483Y59149128D01*
X13170325Y59070673D01*
X13172182Y58992455D01*
X13182085Y58915276D01*
X13195367Y58856493D01*
X13218265Y58787034D01*
X13248464Y58719930D01*
X13285295Y58656238D01*
X13328092Y58597016D01*
X13376186Y58543323D01*
X13416237Y58506557D01*
X13480361Y58458052D01*
X13547960Y58417263D01*
X13619055Y58384181D01*
X13693664Y58358797D01*
X13771810Y58341104D01*
X13851466Y58331246D01*
X13863060Y58330700D01*
X13882994Y58330188D01*
X13911141Y58329710D01*
X13947373Y58329267D01*
X13991563Y58328860D01*
X14043585Y58328489D01*
X14103310Y58328156D01*
X14170614Y58327859D01*
X14245367Y58327600D01*
X14327444Y58327380D01*
X14416717Y58327199D01*
X14513059Y58327058D01*
X14616342Y58326956D01*
X14726441Y58326896D01*
X14834658Y58326877D01*
X15760700Y58326866D01*
X15760700Y58889900D01*
X14859208Y58889900D01*
X14745644Y58889915D01*
X14640368Y58889961D01*
X14543202Y58890039D01*
X14453967Y58890149D01*
X14372486Y58890293D01*
X14298579Y58890472D01*
X14232068Y58890686D01*
X14172776Y58890936D01*
X14120523Y58891224D01*
X14075131Y58891549D01*
X14036422Y58891914D01*
X14004217Y58892319D01*
X13978339Y58892764D01*
X13958608Y58893251D01*
X13944846Y58893781D01*
X13936876Y58894355D01*
X13935283Y58894593D01*
X13904565Y58904792D01*
X13874436Y58921643D01*
X13846858Y58943581D01*
X13823796Y58969043D01*
X13807215Y58996465D01*
X13807127Y58996659D01*
X13794482Y59033906D01*
X13789928Y59070848D01*
X13793104Y59106631D01*
X13803653Y59140400D01*
X13821216Y59171302D01*
X13845433Y59198482D01*
X13875946Y59221087D01*
X13907942Y59236603D01*
X13911071Y59237562D01*
X13915517Y59238435D01*
X13921696Y59239228D01*
X13930030Y59239946D01*
X13940935Y59240597D01*
X13954832Y59241187D01*
X13972138Y59241721D01*
X13993272Y59242207D01*
X14018654Y59242651D01*
X14048702Y59243058D01*
X14083834Y59243437D01*
X14124470Y59243792D01*
X14171027Y59244130D01*
X14223926Y59244458D01*
X14283584Y59244782D01*
X14350420Y59245109D01*
X14424853Y59245444D01*
X14507302Y59245794D01*
X14513983Y59245822D01*
X14597337Y59246161D01*
X14672689Y59246464D01*
X14740502Y59246750D01*
X14801241Y59247037D01*
X14855369Y59247344D01*
X14903351Y59247687D01*
X14945651Y59248087D01*
X14982733Y59248560D01*
X15015060Y59249124D01*
X15043097Y59249800D01*
X15067308Y59250603D01*
X15088157Y59251553D01*
X15106108Y59252668D01*
X15121624Y59253966D01*
X15135171Y59255465D01*
X15147211Y59257183D01*
X15158210Y59259139D01*
X15168631Y59261350D01*
X15178937Y59263836D01*
X15189594Y59266614D01*
X15201065Y59269702D01*
X15213814Y59273119D01*
X15214501Y59273301D01*
X15286865Y59296740D01*
X15356393Y59327789D01*
X15422422Y59365905D01*
X15484288Y59410546D01*
X15541330Y59461167D01*
X15592885Y59517227D01*
X15638289Y59578182D01*
X15676881Y59643490D01*
X15684324Y59658250D01*
X15715341Y59730971D01*
X15738204Y59805200D01*
X15752979Y59880419D01*
X15759733Y59956107D01*
X15758530Y60031747D01*
X15749439Y60106819D01*
X15732525Y60180806D01*
X15707854Y60253187D01*
X15675492Y60323445D01*
X15635506Y60391061D01*
X15587963Y60455515D01*
X15581490Y60463325D01*
X15529254Y60519049D01*
X15471337Y60568784D01*
X15408326Y60612233D01*
X15340808Y60649101D01*
X15269371Y60679090D01*
X15194602Y60701905D01*
X15117087Y60717247D01*
X15067782Y60722887D01*
X15056902Y60723430D01*
X15037941Y60723945D01*
X15011287Y60724430D01*
X14977326Y60724882D01*
X14936444Y60725300D01*
X14889027Y60725680D01*
X14835462Y60726020D01*
X14776136Y60726319D01*
X14711435Y60726572D01*
X14641746Y60726779D01*
X14567454Y60726937D01*
X14488947Y60727043D01*
X14406610Y60727095D01*
X14383808Y60727099D01*
X13749866Y60727166D01*
X13749866Y60147200D01*
G37*
X13749866Y60147200D02*
X14347825Y60147175D01*
X14429379Y60147143D01*
X14506604Y60147055D01*
X14579153Y60146913D01*
X14646676Y60146720D01*
X14708826Y60146478D01*
X14765254Y60146189D01*
X14815612Y60145856D01*
X14859551Y60145480D01*
X14896723Y60145065D01*
X14926780Y60144611D01*
X14949374Y60144122D01*
X14964155Y60143600D01*
X14970424Y60143115D01*
X15005676Y60133480D01*
X15037331Y60117287D01*
X15064649Y60095522D01*
X15086892Y60069173D01*
X15103320Y60039225D01*
X15113193Y60006666D01*
X15115771Y59972481D01*
X15113602Y59952116D01*
X15102993Y59914701D01*
X15085342Y59881765D01*
X15061052Y59853839D01*
X15030525Y59831454D01*
X15016652Y59824167D01*
X14988116Y59810650D01*
X14408150Y59808360D01*
X14324631Y59808034D01*
X14249118Y59807737D01*
X14181149Y59807451D01*
X14120263Y59807157D01*
X14066000Y59806837D01*
X14017896Y59806472D01*
X13975492Y59806046D01*
X13938327Y59805538D01*
X13905939Y59804932D01*
X13877866Y59804208D01*
X13853649Y59803349D01*
X13832825Y59802336D01*
X13814933Y59801152D01*
X13799513Y59799777D01*
X13786103Y59798194D01*
X13774242Y59796384D01*
X13763469Y59794329D01*
X13753322Y59792011D01*
X13743341Y59789412D01*
X13733064Y59786513D01*
X13722030Y59783296D01*
X13713757Y59780888D01*
X13638731Y59754893D01*
X13567726Y59721633D01*
X13501155Y59681502D01*
X13439434Y59634894D01*
X13382975Y59582205D01*
X13332194Y59523829D01*
X13287504Y59460160D01*
X13249321Y59391595D01*
X13218057Y59318526D01*
X13212722Y59303552D01*
X13190626Y59227021D01*
X13176483Y59149128D01*
X13170325Y59070673D01*
X13172182Y58992455D01*
X13182085Y58915276D01*
X13195367Y58856493D01*
X13218265Y58787034D01*
X13248464Y58719930D01*
X13285295Y58656238D01*
X13328092Y58597016D01*
X13376186Y58543323D01*
X13416237Y58506557D01*
X13480361Y58458052D01*
X13547960Y58417263D01*
X13619055Y58384181D01*
X13693664Y58358797D01*
X13771810Y58341104D01*
X13851466Y58331246D01*
X13863060Y58330700D01*
X13882994Y58330188D01*
X13911141Y58329710D01*
X13947373Y58329267D01*
X13991563Y58328860D01*
X14043585Y58328489D01*
X14103310Y58328156D01*
X14170614Y58327859D01*
X14245367Y58327600D01*
X14327444Y58327380D01*
X14416717Y58327199D01*
X14513059Y58327058D01*
X14616342Y58326956D01*
X14726441Y58326896D01*
X14834658Y58326877D01*
X15760700Y58326866D01*
X15760700Y58889900D01*
X14859208Y58889900D01*
X14745644Y58889915D01*
X14640368Y58889961D01*
X14543202Y58890039D01*
X14453967Y58890149D01*
X14372486Y58890293D01*
X14298579Y58890472D01*
X14232068Y58890686D01*
X14172776Y58890936D01*
X14120523Y58891224D01*
X14075131Y58891549D01*
X14036422Y58891914D01*
X14004217Y58892319D01*
X13978339Y58892764D01*
X13958608Y58893251D01*
X13944846Y58893781D01*
X13936876Y58894355D01*
X13935283Y58894593D01*
X13904565Y58904792D01*
X13874436Y58921643D01*
X13846858Y58943581D01*
X13823796Y58969043D01*
X13807215Y58996465D01*
X13807127Y58996659D01*
X13794482Y59033906D01*
X13789928Y59070848D01*
X13793104Y59106631D01*
X13803653Y59140400D01*
X13821216Y59171302D01*
X13845433Y59198482D01*
X13875946Y59221087D01*
X13907942Y59236603D01*
X13911071Y59237562D01*
X13915517Y59238435D01*
X13921696Y59239228D01*
X13930030Y59239946D01*
X13940935Y59240597D01*
X13954832Y59241187D01*
X13972138Y59241721D01*
X13993272Y59242207D01*
X14018654Y59242651D01*
X14048702Y59243058D01*
X14083834Y59243437D01*
X14124470Y59243792D01*
X14171027Y59244130D01*
X14223926Y59244458D01*
X14283584Y59244782D01*
X14350420Y59245109D01*
X14424853Y59245444D01*
X14507302Y59245794D01*
X14513983Y59245822D01*
X14597337Y59246161D01*
X14672689Y59246464D01*
X14740502Y59246750D01*
X14801241Y59247037D01*
X14855369Y59247344D01*
X14903351Y59247687D01*
X14945651Y59248087D01*
X14982733Y59248560D01*
X15015060Y59249124D01*
X15043097Y59249800D01*
X15067308Y59250603D01*
X15088157Y59251553D01*
X15106108Y59252668D01*
X15121624Y59253966D01*
X15135171Y59255465D01*
X15147211Y59257183D01*
X15158210Y59259139D01*
X15168631Y59261350D01*
X15178937Y59263836D01*
X15189594Y59266614D01*
X15201065Y59269702D01*
X15213814Y59273119D01*
X15214501Y59273301D01*
X15286865Y59296740D01*
X15356393Y59327789D01*
X15422422Y59365905D01*
X15484288Y59410546D01*
X15541330Y59461167D01*
X15592885Y59517227D01*
X15638289Y59578182D01*
X15676881Y59643490D01*
X15684324Y59658250D01*
X15715341Y59730971D01*
X15738204Y59805200D01*
X15752979Y59880419D01*
X15759733Y59956107D01*
X15758530Y60031747D01*
X15749439Y60106819D01*
X15732525Y60180806D01*
X15707854Y60253187D01*
X15675492Y60323445D01*
X15635506Y60391061D01*
X15587963Y60455515D01*
X15581490Y60463325D01*
X15529254Y60519049D01*
X15471337Y60568784D01*
X15408326Y60612233D01*
X15340808Y60649101D01*
X15269371Y60679090D01*
X15194602Y60701905D01*
X15117087Y60717247D01*
X15067782Y60722887D01*
X15056902Y60723430D01*
X15037941Y60723945D01*
X15011287Y60724430D01*
X14977326Y60724882D01*
X14936444Y60725300D01*
X14889027Y60725680D01*
X14835462Y60726020D01*
X14776136Y60726319D01*
X14711435Y60726572D01*
X14641746Y60726779D01*
X14567454Y60726937D01*
X14488947Y60727043D01*
X14406610Y60727095D01*
X14383808Y60727099D01*
X13749866Y60727166D01*
X13749866Y60147200D01*
G36*
X16061266Y60147388D02*
G01*
X16873008Y60146103D01*
X16970777Y60145944D01*
X17060442Y60145790D01*
X17142366Y60145635D01*
X17216913Y60145476D01*
X17284445Y60145309D01*
X17345325Y60145131D01*
X17399917Y60144938D01*
X17448583Y60144726D01*
X17491686Y60144492D01*
X17529589Y60144231D01*
X17562656Y60143939D01*
X17591248Y60143614D01*
X17615731Y60143252D01*
X17636465Y60142847D01*
X17653814Y60142398D01*
X17668142Y60141900D01*
X17679810Y60141349D01*
X17689183Y60140742D01*
X17696623Y60140074D01*
X17702494Y60139343D01*
X17707157Y60138544D01*
X17710976Y60137673D01*
X17711872Y60137436D01*
X17751825Y60122938D01*
X17785410Y60102871D01*
X17812728Y60077129D01*
X17833879Y60045606D01*
X17848962Y60008199D01*
X17854155Y59987750D01*
X17855256Y59978215D01*
X17856260Y59960923D01*
X17857167Y59936587D01*
X17857978Y59905918D01*
X17858693Y59869625D01*
X17859311Y59828420D01*
X17859833Y59783013D01*
X17860259Y59734116D01*
X17860588Y59682438D01*
X17860820Y59628692D01*
X17860956Y59573586D01*
X17860996Y59517833D01*
X17860939Y59462143D01*
X17860786Y59407227D01*
X17860536Y59353795D01*
X17860190Y59302559D01*
X17859748Y59254228D01*
X17859209Y59209515D01*
X17858574Y59169129D01*
X17857842Y59133781D01*
X17857013Y59104182D01*
X17856089Y59081043D01*
X17855068Y59065075D01*
X17854155Y59057816D01*
X17842212Y59016897D01*
X17824812Y58982223D01*
X17801491Y58953269D01*
X17771788Y58929512D01*
X17735241Y58910429D01*
X17718156Y58903829D01*
X17684750Y58892017D01*
X16873008Y58890874D01*
X16061266Y58889732D01*
X16061266Y58326866D01*
X16860308Y58327463D01*
X16942664Y58327543D01*
X17023168Y58327658D01*
X17101375Y58327804D01*
X17176841Y58327981D01*
X17249120Y58328186D01*
X17317766Y58328417D01*
X17382335Y58328671D01*
X17442381Y58328946D01*
X17497460Y58329241D01*
X17547125Y58329553D01*
X17590933Y58329879D01*
X17628437Y58330218D01*
X17659192Y58330568D01*
X17682754Y58330926D01*
X17698676Y58331290D01*
X17705916Y58331606D01*
X17769480Y58339038D01*
X17835020Y58351474D01*
X17899193Y58368165D01*
X17957810Y58388036D01*
X18031177Y58420483D01*
X18098844Y58459056D01*
X18161027Y58503942D01*
X18217940Y58555327D01*
X18269797Y58613398D01*
X18316814Y58678341D01*
X18344941Y58724435D01*
X18371144Y58774836D01*
X18392791Y58826730D01*
X18410615Y58882175D01*
X18425348Y58943226D01*
X18428662Y58959750D01*
X18430052Y58967127D01*
X18431294Y58974397D01*
X18432398Y58982066D01*
X18433373Y58990640D01*
X18434230Y59000625D01*
X18434979Y59012528D01*
X18435631Y59026853D01*
X18436195Y59044107D01*
X18436682Y59064797D01*
X18437102Y59089427D01*
X18437465Y59118505D01*
X18437781Y59152535D01*
X18438062Y59192025D01*
X18438316Y59237479D01*
X18438554Y59289405D01*
X18438786Y59348307D01*
X18439023Y59414693D01*
X18439260Y59484683D01*
X18439500Y59559933D01*
X18439687Y59627223D01*
X18439816Y59687062D01*
X18439882Y59739956D01*
X18439879Y59786415D01*
X18439804Y59826944D01*
X18439650Y59862051D01*
X18439414Y59892244D01*
X18439089Y59918031D01*
X18438671Y59939918D01*
X18438156Y59958414D01*
X18437537Y59974025D01*
X18436811Y59987260D01*
X18435972Y59998625D01*
X18435015Y60008629D01*
X18434053Y60016853D01*
X18419078Y60102062D01*
X18396094Y60184725D01*
X18365243Y60264462D01*
X18326666Y60340893D01*
X18292427Y60396300D01*
X18245854Y60458347D01*
X18193473Y60514374D01*
X18135603Y60564206D01*
X18072560Y60607668D01*
X18004663Y60644586D01*
X17932230Y60674783D01*
X17855577Y60698086D01*
X17775023Y60714320D01*
X17699566Y60722732D01*
X17687069Y60723303D01*
X17666311Y60723839D01*
X17637496Y60724338D01*
X17600832Y60724800D01*
X17556522Y60725223D01*
X17504774Y60725606D01*
X17445791Y60725950D01*
X17379779Y60726251D01*
X17306944Y60726510D01*
X17227491Y60726724D01*
X17141626Y60726894D01*
X17049554Y60727019D01*
X16951480Y60727096D01*
X16849725Y60727125D01*
X16061266Y60727166D01*
X16061266Y60147388D01*
G37*
X16061266Y60147388D02*
X16873008Y60146103D01*
X16970777Y60145944D01*
X17060442Y60145790D01*
X17142366Y60145635D01*
X17216913Y60145476D01*
X17284445Y60145309D01*
X17345325Y60145131D01*
X17399917Y60144938D01*
X17448583Y60144726D01*
X17491686Y60144492D01*
X17529589Y60144231D01*
X17562656Y60143939D01*
X17591248Y60143614D01*
X17615731Y60143252D01*
X17636465Y60142847D01*
X17653814Y60142398D01*
X17668142Y60141900D01*
X17679810Y60141349D01*
X17689183Y60140742D01*
X17696623Y60140074D01*
X17702494Y60139343D01*
X17707157Y60138544D01*
X17710976Y60137673D01*
X17711872Y60137436D01*
X17751825Y60122938D01*
X17785410Y60102871D01*
X17812728Y60077129D01*
X17833879Y60045606D01*
X17848962Y60008199D01*
X17854155Y59987750D01*
X17855256Y59978215D01*
X17856260Y59960923D01*
X17857167Y59936587D01*
X17857978Y59905918D01*
X17858693Y59869625D01*
X17859311Y59828420D01*
X17859833Y59783013D01*
X17860259Y59734116D01*
X17860588Y59682438D01*
X17860820Y59628692D01*
X17860956Y59573586D01*
X17860996Y59517833D01*
X17860939Y59462143D01*
X17860786Y59407227D01*
X17860536Y59353795D01*
X17860190Y59302559D01*
X17859748Y59254228D01*
X17859209Y59209515D01*
X17858574Y59169129D01*
X17857842Y59133781D01*
X17857013Y59104182D01*
X17856089Y59081043D01*
X17855068Y59065075D01*
X17854155Y59057816D01*
X17842212Y59016897D01*
X17824812Y58982223D01*
X17801491Y58953269D01*
X17771788Y58929512D01*
X17735241Y58910429D01*
X17718156Y58903829D01*
X17684750Y58892017D01*
X16873008Y58890874D01*
X16061266Y58889732D01*
X16061266Y58326866D01*
X16860308Y58327463D01*
X16942664Y58327543D01*
X17023168Y58327658D01*
X17101375Y58327804D01*
X17176841Y58327981D01*
X17249120Y58328186D01*
X17317766Y58328417D01*
X17382335Y58328671D01*
X17442381Y58328946D01*
X17497460Y58329241D01*
X17547125Y58329553D01*
X17590933Y58329879D01*
X17628437Y58330218D01*
X17659192Y58330568D01*
X17682754Y58330926D01*
X17698676Y58331290D01*
X17705916Y58331606D01*
X17769480Y58339038D01*
X17835020Y58351474D01*
X17899193Y58368165D01*
X17957810Y58388036D01*
X18031177Y58420483D01*
X18098844Y58459056D01*
X18161027Y58503942D01*
X18217940Y58555327D01*
X18269797Y58613398D01*
X18316814Y58678341D01*
X18344941Y58724435D01*
X18371144Y58774836D01*
X18392791Y58826730D01*
X18410615Y58882175D01*
X18425348Y58943226D01*
X18428662Y58959750D01*
X18430052Y58967127D01*
X18431294Y58974397D01*
X18432398Y58982066D01*
X18433373Y58990640D01*
X18434230Y59000625D01*
X18434979Y59012528D01*
X18435631Y59026853D01*
X18436195Y59044107D01*
X18436682Y59064797D01*
X18437102Y59089427D01*
X18437465Y59118505D01*
X18437781Y59152535D01*
X18438062Y59192025D01*
X18438316Y59237479D01*
X18438554Y59289405D01*
X18438786Y59348307D01*
X18439023Y59414693D01*
X18439260Y59484683D01*
X18439500Y59559933D01*
X18439687Y59627223D01*
X18439816Y59687062D01*
X18439882Y59739956D01*
X18439879Y59786415D01*
X18439804Y59826944D01*
X18439650Y59862051D01*
X18439414Y59892244D01*
X18439089Y59918031D01*
X18438671Y59939918D01*
X18438156Y59958414D01*
X18437537Y59974025D01*
X18436811Y59987260D01*
X18435972Y59998625D01*
X18435015Y60008629D01*
X18434053Y60016853D01*
X18419078Y60102062D01*
X18396094Y60184725D01*
X18365243Y60264462D01*
X18326666Y60340893D01*
X18292427Y60396300D01*
X18245854Y60458347D01*
X18193473Y60514374D01*
X18135603Y60564206D01*
X18072560Y60607668D01*
X18004663Y60644586D01*
X17932230Y60674783D01*
X17855577Y60698086D01*
X17775023Y60714320D01*
X17699566Y60722732D01*
X17687069Y60723303D01*
X17666311Y60723839D01*
X17637496Y60724338D01*
X17600832Y60724800D01*
X17556522Y60725223D01*
X17504774Y60725606D01*
X17445791Y60725950D01*
X17379779Y60726251D01*
X17306944Y60726510D01*
X17227491Y60726724D01*
X17141626Y60726894D01*
X17049554Y60727019D01*
X16951480Y60727096D01*
X16849725Y60727125D01*
X16061266Y60727166D01*
X16061266Y60147388D01*
G36*
X18956866Y58326866D02*
G01*
X19515666Y58326866D01*
X19515666Y60727166D01*
X18956866Y60727166D01*
X18956866Y58326866D01*
G37*
X18956866Y58326866D02*
X19515666Y58326866D01*
X19515666Y60727166D01*
X18956866Y60727166D01*
X18956866Y58326866D01*
G36*
X22164674Y60726029D02*
G01*
X22037320Y60725905D01*
X21918150Y60725784D01*
X21806884Y60725666D01*
X21703240Y60725547D01*
X21606936Y60725426D01*
X21517692Y60725302D01*
X21435224Y60725172D01*
X21359253Y60725035D01*
X21289497Y60724890D01*
X21225673Y60724733D01*
X21167500Y60724563D01*
X21114698Y60724379D01*
X21066983Y60724179D01*
X21024076Y60723961D01*
X20985693Y60723723D01*
X20951555Y60723464D01*
X20921378Y60723180D01*
X20894882Y60722872D01*
X20871785Y60722537D01*
X20851806Y60722172D01*
X20834663Y60721778D01*
X20820074Y60721350D01*
X20807758Y60720889D01*
X20797434Y60720391D01*
X20788819Y60719856D01*
X20781633Y60719280D01*
X20775594Y60718664D01*
X20770420Y60718004D01*
X20765830Y60717299D01*
X20764499Y60717074D01*
X20679992Y60699011D01*
X20599202Y60674683D01*
X20522685Y60644377D01*
X20450996Y60608381D01*
X20384690Y60566980D01*
X20324324Y60520462D01*
X20270452Y60469113D01*
X20257999Y60455482D01*
X20211512Y60396833D01*
X20170967Y60332536D01*
X20136627Y60263219D01*
X20108753Y60189508D01*
X20087604Y60112033D01*
X20073443Y60031422D01*
X20070312Y60003876D01*
X20069744Y59993704D01*
X20069213Y59975210D01*
X20068719Y59948540D01*
X20068265Y59913837D01*
X20067849Y59871248D01*
X20067474Y59820918D01*
X20067139Y59762991D01*
X20066846Y59697612D01*
X20066595Y59624926D01*
X20066388Y59545078D01*
X20066223Y59458214D01*
X20066103Y59364478D01*
X20066029Y59264015D01*
X20066000Y59156970D01*
X20065999Y59143451D01*
X20065999Y58326866D01*
X20645966Y58326866D01*
X20646114Y59136492D01*
X20646141Y59236481D01*
X20646184Y59328345D01*
X20646247Y59412424D01*
X20646332Y59489061D01*
X20646441Y59558597D01*
X20646577Y59621372D01*
X20646742Y59677727D01*
X20646939Y59728005D01*
X20647169Y59772547D01*
X20647436Y59811693D01*
X20647742Y59845785D01*
X20648090Y59875164D01*
X20648481Y59900172D01*
X20648918Y59921149D01*
X20649404Y59938438D01*
X20649942Y59952379D01*
X20650532Y59963313D01*
X20651179Y59971582D01*
X20651884Y59977527D01*
X20652138Y59979082D01*
X20663139Y60020709D01*
X20680251Y60056480D01*
X20703467Y60086384D01*
X20732776Y60110413D01*
X20768172Y60128556D01*
X20795110Y60137369D01*
X20801383Y60138812D01*
X20808984Y60140062D01*
X20818569Y60141138D01*
X20830794Y60142059D01*
X20846313Y60142843D01*
X20865782Y60143511D01*
X20889855Y60144080D01*
X20919190Y60144571D01*
X20954440Y60145001D01*
X20996260Y60145390D01*
X21045307Y60145757D01*
X21095758Y60146082D01*
X21369866Y60147753D01*
X21369866Y58326866D01*
X21949607Y58326866D01*
X21950841Y59149192D01*
X21950992Y59247521D01*
X21951139Y59337744D01*
X21951286Y59420221D01*
X21951436Y59495313D01*
X21951594Y59563379D01*
X21951763Y59624781D01*
X21951947Y59679877D01*
X21952149Y59729030D01*
X21952374Y59772598D01*
X21952625Y59810943D01*
X21952905Y59844424D01*
X21953219Y59873403D01*
X21953570Y59898239D01*
X21953962Y59919293D01*
X21954398Y59936925D01*
X21954883Y59951495D01*
X21955420Y59963364D01*
X21956012Y59972892D01*
X21956664Y59980440D01*
X21957380Y59986367D01*
X21958162Y59991034D01*
X21959015Y59994802D01*
X21959602Y59996916D01*
X21975111Y60036952D01*
X21996100Y60070566D01*
X22022771Y60097956D01*
X22055325Y60119318D01*
X22093960Y60134848D01*
X22102627Y60137323D01*
X22107778Y60138550D01*
X22113892Y60139637D01*
X22121496Y60140597D01*
X22131120Y60141439D01*
X22143293Y60142175D01*
X22158544Y60142815D01*
X22177400Y60143371D01*
X22200393Y60143852D01*
X22228050Y60144270D01*
X22260900Y60144635D01*
X22299472Y60144957D01*
X22344295Y60145249D01*
X22395898Y60145520D01*
X22454811Y60145781D01*
X22521561Y60146043D01*
X22535091Y60146093D01*
X22940433Y60147594D01*
X22940433Y58326866D01*
X23520399Y58326866D01*
X23520399Y60727331D01*
X22164674Y60726029D01*
G37*
X22164674Y60726029D02*
X22037320Y60725905D01*
X21918150Y60725784D01*
X21806884Y60725666D01*
X21703240Y60725547D01*
X21606936Y60725426D01*
X21517692Y60725302D01*
X21435224Y60725172D01*
X21359253Y60725035D01*
X21289497Y60724890D01*
X21225673Y60724733D01*
X21167500Y60724563D01*
X21114698Y60724379D01*
X21066983Y60724179D01*
X21024076Y60723961D01*
X20985693Y60723723D01*
X20951555Y60723464D01*
X20921378Y60723180D01*
X20894882Y60722872D01*
X20871785Y60722537D01*
X20851806Y60722172D01*
X20834663Y60721778D01*
X20820074Y60721350D01*
X20807758Y60720889D01*
X20797434Y60720391D01*
X20788819Y60719856D01*
X20781633Y60719280D01*
X20775594Y60718664D01*
X20770420Y60718004D01*
X20765830Y60717299D01*
X20764499Y60717074D01*
X20679992Y60699011D01*
X20599202Y60674683D01*
X20522685Y60644377D01*
X20450996Y60608381D01*
X20384690Y60566980D01*
X20324324Y60520462D01*
X20270452Y60469113D01*
X20257999Y60455482D01*
X20211512Y60396833D01*
X20170967Y60332536D01*
X20136627Y60263219D01*
X20108753Y60189508D01*
X20087604Y60112033D01*
X20073443Y60031422D01*
X20070312Y60003876D01*
X20069744Y59993704D01*
X20069213Y59975210D01*
X20068719Y59948540D01*
X20068265Y59913837D01*
X20067849Y59871248D01*
X20067474Y59820918D01*
X20067139Y59762991D01*
X20066846Y59697612D01*
X20066595Y59624926D01*
X20066388Y59545078D01*
X20066223Y59458214D01*
X20066103Y59364478D01*
X20066029Y59264015D01*
X20066000Y59156970D01*
X20065999Y59143451D01*
X20065999Y58326866D01*
X20645966Y58326866D01*
X20646114Y59136492D01*
X20646141Y59236481D01*
X20646184Y59328345D01*
X20646247Y59412424D01*
X20646332Y59489061D01*
X20646441Y59558597D01*
X20646577Y59621372D01*
X20646742Y59677727D01*
X20646939Y59728005D01*
X20647169Y59772547D01*
X20647436Y59811693D01*
X20647742Y59845785D01*
X20648090Y59875164D01*
X20648481Y59900172D01*
X20648918Y59921149D01*
X20649404Y59938438D01*
X20649942Y59952379D01*
X20650532Y59963313D01*
X20651179Y59971582D01*
X20651884Y59977527D01*
X20652138Y59979082D01*
X20663139Y60020709D01*
X20680251Y60056480D01*
X20703467Y60086384D01*
X20732776Y60110413D01*
X20768172Y60128556D01*
X20795110Y60137369D01*
X20801383Y60138812D01*
X20808984Y60140062D01*
X20818569Y60141138D01*
X20830794Y60142059D01*
X20846313Y60142843D01*
X20865782Y60143511D01*
X20889855Y60144080D01*
X20919190Y60144571D01*
X20954440Y60145001D01*
X20996260Y60145390D01*
X21045307Y60145757D01*
X21095758Y60146082D01*
X21369866Y60147753D01*
X21369866Y58326866D01*
X21949607Y58326866D01*
X21950841Y59149192D01*
X21950992Y59247521D01*
X21951139Y59337744D01*
X21951286Y59420221D01*
X21951436Y59495313D01*
X21951594Y59563379D01*
X21951763Y59624781D01*
X21951947Y59679877D01*
X21952149Y59729030D01*
X21952374Y59772598D01*
X21952625Y59810943D01*
X21952905Y59844424D01*
X21953219Y59873403D01*
X21953570Y59898239D01*
X21953962Y59919293D01*
X21954398Y59936925D01*
X21954883Y59951495D01*
X21955420Y59963364D01*
X21956012Y59972892D01*
X21956664Y59980440D01*
X21957380Y59986367D01*
X21958162Y59991034D01*
X21959015Y59994802D01*
X21959602Y59996916D01*
X21975111Y60036952D01*
X21996100Y60070566D01*
X22022771Y60097956D01*
X22055325Y60119318D01*
X22093960Y60134848D01*
X22102627Y60137323D01*
X22107778Y60138550D01*
X22113892Y60139637D01*
X22121496Y60140597D01*
X22131120Y60141439D01*
X22143293Y60142175D01*
X22158544Y60142815D01*
X22177400Y60143371D01*
X22200393Y60143852D01*
X22228050Y60144270D01*
X22260900Y60144635D01*
X22299472Y60144957D01*
X22344295Y60145249D01*
X22395898Y60145520D01*
X22454811Y60145781D01*
X22521561Y60146043D01*
X22535091Y60146093D01*
X22940433Y60147594D01*
X22940433Y58326866D01*
X23520399Y58326866D01*
X23520399Y60727331D01*
X22164674Y60726029D01*
G36*
X28821591Y60726046D02*
G01*
X28722622Y60725878D01*
X28631747Y60725718D01*
X28548596Y60725564D01*
X28472797Y60725410D01*
X28403978Y60725253D01*
X28341768Y60725087D01*
X28285795Y60724909D01*
X28235687Y60724714D01*
X28191073Y60724498D01*
X28151581Y60724257D01*
X28116840Y60723985D01*
X28086478Y60723680D01*
X28060123Y60723336D01*
X28037404Y60722949D01*
X28017949Y60722515D01*
X28001387Y60722029D01*
X27987346Y60721488D01*
X27975454Y60720886D01*
X27965339Y60720220D01*
X27956631Y60719484D01*
X27948958Y60718676D01*
X27941947Y60717789D01*
X27935228Y60716821D01*
X27928429Y60715767D01*
X27927299Y60715588D01*
X27859135Y60703614D01*
X27797355Y60690056D01*
X27739930Y60674282D01*
X27684832Y60655659D01*
X27630033Y60633552D01*
X27573502Y60607330D01*
X27561678Y60601470D01*
X27509572Y60574044D01*
X27462223Y60546022D01*
X27416075Y60515202D01*
X27381199Y60489746D01*
X27314302Y60434151D01*
X27253252Y60372622D01*
X27198251Y60305537D01*
X27149503Y60233271D01*
X27107210Y60156203D01*
X27071575Y60074709D01*
X27042801Y59989167D01*
X27021091Y59899953D01*
X27006646Y59807444D01*
X27004768Y59789806D01*
X27004072Y59778426D01*
X27003435Y59758937D01*
X27002855Y59731307D01*
X27002333Y59695507D01*
X27001869Y59651506D01*
X27001462Y59599273D01*
X27001112Y59538778D01*
X27000819Y59469990D01*
X27000583Y59392879D01*
X27000403Y59307414D01*
X27000280Y59213565D01*
X27000213Y59111302D01*
X27000199Y59035215D01*
X27000199Y58326866D01*
X27580166Y58326866D01*
X27580166Y59022695D01*
X27580174Y59114083D01*
X27580199Y59197394D01*
X27580245Y59273019D01*
X27580316Y59341348D01*
X27580414Y59402772D01*
X27580544Y59457681D01*
X27580709Y59506465D01*
X27580911Y59549515D01*
X27581156Y59587221D01*
X27581445Y59619973D01*
X27581783Y59648161D01*
X27582173Y59672177D01*
X27582618Y59692409D01*
X27583122Y59709249D01*
X27583688Y59723087D01*
X27584320Y59734313D01*
X27585021Y59743317D01*
X27585795Y59750491D01*
X27586627Y59756120D01*
X27600835Y59815581D01*
X27622301Y59872315D01*
X27650486Y59925413D01*
X27684848Y59973969D01*
X27724849Y60017075D01*
X27758915Y60045803D01*
X27809258Y60078936D01*
X27864079Y60105688D01*
X27924135Y60126393D01*
X27961166Y60135655D01*
X27967204Y60136943D01*
X27973264Y60138100D01*
X27979814Y60139137D01*
X27987320Y60140060D01*
X27996249Y60140878D01*
X28007066Y60141600D01*
X28020239Y60142234D01*
X28036234Y60142788D01*
X28055518Y60143270D01*
X28078556Y60143690D01*
X28105816Y60144054D01*
X28137764Y60144373D01*
X28174867Y60144653D01*
X28217590Y60144904D01*
X28266401Y60145134D01*
X28321766Y60145351D01*
X28384152Y60145563D01*
X28454025Y60145780D01*
X28531851Y60146008D01*
X28540075Y60146032D01*
X29078766Y60147590D01*
X29078766Y58326866D01*
X29658733Y58326866D01*
X29658733Y60727465D01*
X28821591Y60726046D01*
G37*
X28821591Y60726046D02*
X28722622Y60725878D01*
X28631747Y60725718D01*
X28548596Y60725564D01*
X28472797Y60725410D01*
X28403978Y60725253D01*
X28341768Y60725087D01*
X28285795Y60724909D01*
X28235687Y60724714D01*
X28191073Y60724498D01*
X28151581Y60724257D01*
X28116840Y60723985D01*
X28086478Y60723680D01*
X28060123Y60723336D01*
X28037404Y60722949D01*
X28017949Y60722515D01*
X28001387Y60722029D01*
X27987346Y60721488D01*
X27975454Y60720886D01*
X27965339Y60720220D01*
X27956631Y60719484D01*
X27948958Y60718676D01*
X27941947Y60717789D01*
X27935228Y60716821D01*
X27928429Y60715767D01*
X27927299Y60715588D01*
X27859135Y60703614D01*
X27797355Y60690056D01*
X27739930Y60674282D01*
X27684832Y60655659D01*
X27630033Y60633552D01*
X27573502Y60607330D01*
X27561678Y60601470D01*
X27509572Y60574044D01*
X27462223Y60546022D01*
X27416075Y60515202D01*
X27381199Y60489746D01*
X27314302Y60434151D01*
X27253252Y60372622D01*
X27198251Y60305537D01*
X27149503Y60233271D01*
X27107210Y60156203D01*
X27071575Y60074709D01*
X27042801Y59989167D01*
X27021091Y59899953D01*
X27006646Y59807444D01*
X27004768Y59789806D01*
X27004072Y59778426D01*
X27003435Y59758937D01*
X27002855Y59731307D01*
X27002333Y59695507D01*
X27001869Y59651506D01*
X27001462Y59599273D01*
X27001112Y59538778D01*
X27000819Y59469990D01*
X27000583Y59392879D01*
X27000403Y59307414D01*
X27000280Y59213565D01*
X27000213Y59111302D01*
X27000199Y59035215D01*
X27000199Y58326866D01*
X27580166Y58326866D01*
X27580166Y59022695D01*
X27580174Y59114083D01*
X27580199Y59197394D01*
X27580245Y59273019D01*
X27580316Y59341348D01*
X27580414Y59402772D01*
X27580544Y59457681D01*
X27580709Y59506465D01*
X27580911Y59549515D01*
X27581156Y59587221D01*
X27581445Y59619973D01*
X27581783Y59648161D01*
X27582173Y59672177D01*
X27582618Y59692409D01*
X27583122Y59709249D01*
X27583688Y59723087D01*
X27584320Y59734313D01*
X27585021Y59743317D01*
X27585795Y59750491D01*
X27586627Y59756120D01*
X27600835Y59815581D01*
X27622301Y59872315D01*
X27650486Y59925413D01*
X27684848Y59973969D01*
X27724849Y60017075D01*
X27758915Y60045803D01*
X27809258Y60078936D01*
X27864079Y60105688D01*
X27924135Y60126393D01*
X27961166Y60135655D01*
X27967204Y60136943D01*
X27973264Y60138100D01*
X27979814Y60139137D01*
X27987320Y60140060D01*
X27996249Y60140878D01*
X28007066Y60141600D01*
X28020239Y60142234D01*
X28036234Y60142788D01*
X28055518Y60143270D01*
X28078556Y60143690D01*
X28105816Y60144054D01*
X28137764Y60144373D01*
X28174867Y60144653D01*
X28217590Y60144904D01*
X28266401Y60145134D01*
X28321766Y60145351D01*
X28384152Y60145563D01*
X28454025Y60145780D01*
X28531851Y60146008D01*
X28540075Y60146032D01*
X29078766Y60147590D01*
X29078766Y58326866D01*
X29658733Y58326866D01*
X29658733Y60727465D01*
X28821591Y60726046D01*
G36*
X32307711Y59902725D02*
G01*
X32307559Y59804325D01*
X32307411Y59714031D01*
X32307264Y59631484D01*
X32307113Y59556322D01*
X32306956Y59488186D01*
X32306789Y59426715D01*
X32306606Y59371550D01*
X32306406Y59322329D01*
X32306184Y59278693D01*
X32305936Y59240281D01*
X32305659Y59206733D01*
X32305348Y59177689D01*
X32305000Y59152788D01*
X32304612Y59131671D01*
X32304179Y59113976D01*
X32303697Y59099345D01*
X32303163Y59087416D01*
X32302574Y59077829D01*
X32301924Y59070224D01*
X32301211Y59064240D01*
X32300431Y59059518D01*
X32299580Y59055698D01*
X32298795Y59052883D01*
X32282904Y59012315D01*
X32261553Y58977159D01*
X32235262Y58948077D01*
X32204552Y58925729D01*
X32194499Y58920409D01*
X32184856Y58915666D01*
X32176244Y58911489D01*
X32168089Y58907839D01*
X32159816Y58904680D01*
X32150849Y58901972D01*
X32140613Y58899680D01*
X32128533Y58897764D01*
X32114034Y58896188D01*
X32096541Y58894913D01*
X32075478Y58893901D01*
X32050271Y58893116D01*
X32020344Y58892519D01*
X31985121Y58892073D01*
X31944029Y58891740D01*
X31896490Y58891482D01*
X31841932Y58891261D01*
X31779777Y58891040D01*
X31744708Y58890914D01*
X31373233Y58889553D01*
X31373233Y58326866D01*
X31732008Y58327479D01*
X31787581Y58327611D01*
X31841577Y58327811D01*
X31893274Y58328071D01*
X31941950Y58328386D01*
X31986884Y58328748D01*
X32027355Y58329150D01*
X32062640Y58329586D01*
X32092019Y58330048D01*
X32114769Y58330530D01*
X32130170Y58331025D01*
X32135233Y58331300D01*
X32216313Y58340802D01*
X32295008Y58357263D01*
X32370666Y58380380D01*
X32442633Y58409848D01*
X32510255Y58445364D01*
X32572879Y58486624D01*
X32629852Y58533325D01*
X32679758Y58584290D01*
X32726031Y58642681D01*
X32766457Y58704976D01*
X32800435Y58769995D01*
X32827366Y58836556D01*
X32846649Y58903479D01*
X32850129Y58919748D01*
X32852329Y58930758D01*
X32854353Y58941000D01*
X32856208Y58950852D01*
X32857901Y58960692D01*
X32859441Y58970898D01*
X32860837Y58981846D01*
X32862096Y58993916D01*
X32863226Y59007484D01*
X32864235Y59022929D01*
X32865131Y59040628D01*
X32865923Y59060958D01*
X32866619Y59084298D01*
X32867226Y59111026D01*
X32867753Y59141518D01*
X32868207Y59176153D01*
X32868598Y59215309D01*
X32868932Y59259362D01*
X32869218Y59308692D01*
X32869464Y59363675D01*
X32869678Y59424689D01*
X32869869Y59492113D01*
X32870043Y59566323D01*
X32870210Y59647698D01*
X32870377Y59736614D01*
X32870553Y59833451D01*
X32870637Y59879441D01*
X32872182Y60727166D01*
X32308965Y60727166D01*
X32307711Y59902725D01*
G37*
X32307711Y59902725D02*
X32307559Y59804325D01*
X32307411Y59714031D01*
X32307264Y59631484D01*
X32307113Y59556322D01*
X32306956Y59488186D01*
X32306789Y59426715D01*
X32306606Y59371550D01*
X32306406Y59322329D01*
X32306184Y59278693D01*
X32305936Y59240281D01*
X32305659Y59206733D01*
X32305348Y59177689D01*
X32305000Y59152788D01*
X32304612Y59131671D01*
X32304179Y59113976D01*
X32303697Y59099345D01*
X32303163Y59087416D01*
X32302574Y59077829D01*
X32301924Y59070224D01*
X32301211Y59064240D01*
X32300431Y59059518D01*
X32299580Y59055698D01*
X32298795Y59052883D01*
X32282904Y59012315D01*
X32261553Y58977159D01*
X32235262Y58948077D01*
X32204552Y58925729D01*
X32194499Y58920409D01*
X32184856Y58915666D01*
X32176244Y58911489D01*
X32168089Y58907839D01*
X32159816Y58904680D01*
X32150849Y58901972D01*
X32140613Y58899680D01*
X32128533Y58897764D01*
X32114034Y58896188D01*
X32096541Y58894913D01*
X32075478Y58893901D01*
X32050271Y58893116D01*
X32020344Y58892519D01*
X31985121Y58892073D01*
X31944029Y58891740D01*
X31896490Y58891482D01*
X31841932Y58891261D01*
X31779777Y58891040D01*
X31744708Y58890914D01*
X31373233Y58889553D01*
X31373233Y58326866D01*
X31732008Y58327479D01*
X31787581Y58327611D01*
X31841577Y58327811D01*
X31893274Y58328071D01*
X31941950Y58328386D01*
X31986884Y58328748D01*
X32027355Y58329150D01*
X32062640Y58329586D01*
X32092019Y58330048D01*
X32114769Y58330530D01*
X32130170Y58331025D01*
X32135233Y58331300D01*
X32216313Y58340802D01*
X32295008Y58357263D01*
X32370666Y58380380D01*
X32442633Y58409848D01*
X32510255Y58445364D01*
X32572879Y58486624D01*
X32629852Y58533325D01*
X32679758Y58584290D01*
X32726031Y58642681D01*
X32766457Y58704976D01*
X32800435Y58769995D01*
X32827366Y58836556D01*
X32846649Y58903479D01*
X32850129Y58919748D01*
X32852329Y58930758D01*
X32854353Y58941000D01*
X32856208Y58950852D01*
X32857901Y58960692D01*
X32859441Y58970898D01*
X32860837Y58981846D01*
X32862096Y58993916D01*
X32863226Y59007484D01*
X32864235Y59022929D01*
X32865131Y59040628D01*
X32865923Y59060958D01*
X32866619Y59084298D01*
X32867226Y59111026D01*
X32867753Y59141518D01*
X32868207Y59176153D01*
X32868598Y59215309D01*
X32868932Y59259362D01*
X32869218Y59308692D01*
X32869464Y59363675D01*
X32869678Y59424689D01*
X32869869Y59492113D01*
X32870043Y59566323D01*
X32870210Y59647698D01*
X32870377Y59736614D01*
X32870553Y59833451D01*
X32870637Y59879441D01*
X32872182Y60727166D01*
X32308965Y60727166D01*
X32307711Y59902725D01*
G36*
X35561058Y61500682D02*
G01*
X35451275Y61500529D01*
X35349610Y61500392D01*
X35255714Y61500262D01*
X35169241Y61500132D01*
X35089840Y61499994D01*
X35017164Y61499838D01*
X34950864Y61499658D01*
X34890591Y61499445D01*
X34835998Y61499190D01*
X34786736Y61498887D01*
X34742456Y61498526D01*
X34702811Y61498100D01*
X34667451Y61497601D01*
X34636028Y61497020D01*
X34608194Y61496350D01*
X34583601Y61495582D01*
X34561899Y61494708D01*
X34542742Y61493721D01*
X34525779Y61492611D01*
X34510663Y61491372D01*
X34497045Y61489994D01*
X34484578Y61488470D01*
X34472912Y61486792D01*
X34461699Y61484951D01*
X34450590Y61482940D01*
X34439238Y61480750D01*
X34427294Y61478374D01*
X34414409Y61475803D01*
X34404299Y61473816D01*
X34306347Y61450562D01*
X34209526Y61419311D01*
X34114887Y61380534D01*
X34023482Y61334700D01*
X33936360Y61282278D01*
X33868144Y61234169D01*
X33792199Y61171398D01*
X33721409Y61102211D01*
X33656111Y61027153D01*
X33596642Y60946769D01*
X33543339Y60861606D01*
X33496539Y60772208D01*
X33456579Y60679122D01*
X33423795Y60582893D01*
X33398526Y60484067D01*
X33395344Y60468752D01*
X33391105Y60447613D01*
X33387352Y60428368D01*
X33384055Y60410386D01*
X33381185Y60393033D01*
X33378712Y60375676D01*
X33376607Y60357682D01*
X33374840Y60338417D01*
X33373381Y60317249D01*
X33372201Y60293544D01*
X33371270Y60266669D01*
X33370559Y60235992D01*
X33370038Y60200878D01*
X33369677Y60160695D01*
X33369448Y60114810D01*
X33369320Y60062589D01*
X33369264Y60003400D01*
X33369250Y59936609D01*
X33369249Y59910133D01*
X33369252Y59841147D01*
X33369277Y59779994D01*
X33369357Y59726038D01*
X33369520Y59678645D01*
X33369795Y59637182D01*
X33370214Y59601013D01*
X33370804Y59569504D01*
X33371597Y59542020D01*
X33372621Y59517928D01*
X33373907Y59496592D01*
X33375484Y59477379D01*
X33377381Y59459653D01*
X33379629Y59442781D01*
X33382257Y59426128D01*
X33385294Y59409060D01*
X33388771Y59390941D01*
X33392718Y59371138D01*
X33394998Y59359800D01*
X33419309Y59260020D01*
X33451677Y59161682D01*
X33491711Y59065648D01*
X33539021Y58972778D01*
X33593218Y58883936D01*
X33640735Y58817046D01*
X33661025Y58792006D01*
X33686438Y58763290D01*
X33715483Y58732376D01*
X33746672Y58700742D01*
X33778514Y58669868D01*
X33809520Y58641230D01*
X33838199Y58616309D01*
X33862433Y58597049D01*
X33950311Y58536718D01*
X34041711Y58483815D01*
X34136200Y58438529D01*
X34233350Y58401047D01*
X34332731Y58371559D01*
X34421306Y58352439D01*
X34434817Y58350002D01*
X34447276Y58347745D01*
X34459031Y58345662D01*
X34470434Y58343744D01*
X34481835Y58341985D01*
X34493583Y58340376D01*
X34506029Y58338911D01*
X34519523Y58337582D01*
X34534415Y58336382D01*
X34551056Y58335302D01*
X34569796Y58334337D01*
X34590985Y58333477D01*
X34614972Y58332717D01*
X34642110Y58332048D01*
X34672746Y58331463D01*
X34707233Y58330955D01*
X34745919Y58330516D01*
X34789156Y58330138D01*
X34837293Y58329815D01*
X34890681Y58329539D01*
X34949669Y58329303D01*
X35014609Y58329098D01*
X35085849Y58328918D01*
X35163741Y58328755D01*
X35248635Y58328603D01*
X35340881Y58328452D01*
X35440828Y58328296D01*
X35548828Y58328128D01*
X35569524Y58328096D01*
X36554833Y58326531D01*
X36554833Y59402133D01*
X35974866Y59402133D01*
X35974866Y58889585D01*
X34609616Y58892575D01*
X34560933Y58901897D01*
X34486204Y58918624D01*
X34418265Y58939102D01*
X34356077Y58963849D01*
X34298603Y58993387D01*
X34244807Y59028234D01*
X34193652Y59068911D01*
X34154191Y59105740D01*
X34103704Y59161630D01*
X34060322Y59221845D01*
X34023978Y59286532D01*
X33994604Y59355839D01*
X33972133Y59429912D01*
X33956497Y59508898D01*
X33951577Y59546958D01*
X33950751Y59559016D01*
X33950008Y59578679D01*
X33949350Y59605112D01*
X33948777Y59637477D01*
X33948289Y59674936D01*
X33947885Y59716652D01*
X33947567Y59761789D01*
X33947334Y59809509D01*
X33947187Y59858974D01*
X33947125Y59909347D01*
X33947149Y59959792D01*
X33947259Y60009471D01*
X33947455Y60057547D01*
X33947738Y60103182D01*
X33948107Y60145539D01*
X33948563Y60183782D01*
X33949106Y60217072D01*
X33949736Y60244573D01*
X33950453Y60265447D01*
X33951257Y60278858D01*
X33951426Y60280550D01*
X33962010Y60351112D01*
X33977727Y60416874D01*
X33999254Y60480235D01*
X34023292Y60535392D01*
X34042133Y60572974D01*
X34060381Y60605150D01*
X34079782Y60634654D01*
X34102080Y60664220D01*
X34117470Y60683003D01*
X34167664Y60736306D01*
X34223928Y60784064D01*
X34285695Y60825988D01*
X34352400Y60861793D01*
X34423475Y60891190D01*
X34498355Y60913891D01*
X34576472Y60929610D01*
X34612624Y60934339D01*
X34622059Y60934923D01*
X34639329Y60935465D01*
X34664479Y60935966D01*
X34697555Y60936426D01*
X34738601Y60936846D01*
X34787663Y60937224D01*
X34844784Y60937562D01*
X34910011Y60937860D01*
X34983387Y60938117D01*
X35064958Y60938335D01*
X35154769Y60938513D01*
X35252865Y60938652D01*
X35359290Y60938751D01*
X35474089Y60938812D01*
X35597307Y60938833D01*
X36554833Y60938833D01*
X36554833Y61502104D01*
X35561058Y61500682D01*
G37*
X35561058Y61500682D02*
X35451275Y61500529D01*
X35349610Y61500392D01*
X35255714Y61500262D01*
X35169241Y61500132D01*
X35089840Y61499994D01*
X35017164Y61499838D01*
X34950864Y61499658D01*
X34890591Y61499445D01*
X34835998Y61499190D01*
X34786736Y61498887D01*
X34742456Y61498526D01*
X34702811Y61498100D01*
X34667451Y61497601D01*
X34636028Y61497020D01*
X34608194Y61496350D01*
X34583601Y61495582D01*
X34561899Y61494708D01*
X34542742Y61493721D01*
X34525779Y61492611D01*
X34510663Y61491372D01*
X34497045Y61489994D01*
X34484578Y61488470D01*
X34472912Y61486792D01*
X34461699Y61484951D01*
X34450590Y61482940D01*
X34439238Y61480750D01*
X34427294Y61478374D01*
X34414409Y61475803D01*
X34404299Y61473816D01*
X34306347Y61450562D01*
X34209526Y61419311D01*
X34114887Y61380534D01*
X34023482Y61334700D01*
X33936360Y61282278D01*
X33868144Y61234169D01*
X33792199Y61171398D01*
X33721409Y61102211D01*
X33656111Y61027153D01*
X33596642Y60946769D01*
X33543339Y60861606D01*
X33496539Y60772208D01*
X33456579Y60679122D01*
X33423795Y60582893D01*
X33398526Y60484067D01*
X33395344Y60468752D01*
X33391105Y60447613D01*
X33387352Y60428368D01*
X33384055Y60410386D01*
X33381185Y60393033D01*
X33378712Y60375676D01*
X33376607Y60357682D01*
X33374840Y60338417D01*
X33373381Y60317249D01*
X33372201Y60293544D01*
X33371270Y60266669D01*
X33370559Y60235992D01*
X33370038Y60200878D01*
X33369677Y60160695D01*
X33369448Y60114810D01*
X33369320Y60062589D01*
X33369264Y60003400D01*
X33369250Y59936609D01*
X33369249Y59910133D01*
X33369252Y59841147D01*
X33369277Y59779994D01*
X33369357Y59726038D01*
X33369520Y59678645D01*
X33369795Y59637182D01*
X33370214Y59601013D01*
X33370804Y59569504D01*
X33371597Y59542020D01*
X33372621Y59517928D01*
X33373907Y59496592D01*
X33375484Y59477379D01*
X33377381Y59459653D01*
X33379629Y59442781D01*
X33382257Y59426128D01*
X33385294Y59409060D01*
X33388771Y59390941D01*
X33392718Y59371138D01*
X33394998Y59359800D01*
X33419309Y59260020D01*
X33451677Y59161682D01*
X33491711Y59065648D01*
X33539021Y58972778D01*
X33593218Y58883936D01*
X33640735Y58817046D01*
X33661025Y58792006D01*
X33686438Y58763290D01*
X33715483Y58732376D01*
X33746672Y58700742D01*
X33778514Y58669868D01*
X33809520Y58641230D01*
X33838199Y58616309D01*
X33862433Y58597049D01*
X33950311Y58536718D01*
X34041711Y58483815D01*
X34136200Y58438529D01*
X34233350Y58401047D01*
X34332731Y58371559D01*
X34421306Y58352439D01*
X34434817Y58350002D01*
X34447276Y58347745D01*
X34459031Y58345662D01*
X34470434Y58343744D01*
X34481835Y58341985D01*
X34493583Y58340376D01*
X34506029Y58338911D01*
X34519523Y58337582D01*
X34534415Y58336382D01*
X34551056Y58335302D01*
X34569796Y58334337D01*
X34590985Y58333477D01*
X34614972Y58332717D01*
X34642110Y58332048D01*
X34672746Y58331463D01*
X34707233Y58330955D01*
X34745919Y58330516D01*
X34789156Y58330138D01*
X34837293Y58329815D01*
X34890681Y58329539D01*
X34949669Y58329303D01*
X35014609Y58329098D01*
X35085849Y58328918D01*
X35163741Y58328755D01*
X35248635Y58328603D01*
X35340881Y58328452D01*
X35440828Y58328296D01*
X35548828Y58328128D01*
X35569524Y58328096D01*
X36554833Y58326531D01*
X36554833Y59402133D01*
X35974866Y59402133D01*
X35974866Y58889585D01*
X34609616Y58892575D01*
X34560933Y58901897D01*
X34486204Y58918624D01*
X34418265Y58939102D01*
X34356077Y58963849D01*
X34298603Y58993387D01*
X34244807Y59028234D01*
X34193652Y59068911D01*
X34154191Y59105740D01*
X34103704Y59161630D01*
X34060322Y59221845D01*
X34023978Y59286532D01*
X33994604Y59355839D01*
X33972133Y59429912D01*
X33956497Y59508898D01*
X33951577Y59546958D01*
X33950751Y59559016D01*
X33950008Y59578679D01*
X33949350Y59605112D01*
X33948777Y59637477D01*
X33948289Y59674936D01*
X33947885Y59716652D01*
X33947567Y59761789D01*
X33947334Y59809509D01*
X33947187Y59858974D01*
X33947125Y59909347D01*
X33947149Y59959792D01*
X33947259Y60009471D01*
X33947455Y60057547D01*
X33947738Y60103182D01*
X33948107Y60145539D01*
X33948563Y60183782D01*
X33949106Y60217072D01*
X33949736Y60244573D01*
X33950453Y60265447D01*
X33951257Y60278858D01*
X33951426Y60280550D01*
X33962010Y60351112D01*
X33977727Y60416874D01*
X33999254Y60480235D01*
X34023292Y60535392D01*
X34042133Y60572974D01*
X34060381Y60605150D01*
X34079782Y60634654D01*
X34102080Y60664220D01*
X34117470Y60683003D01*
X34167664Y60736306D01*
X34223928Y60784064D01*
X34285695Y60825988D01*
X34352400Y60861793D01*
X34423475Y60891190D01*
X34498355Y60913891D01*
X34576472Y60929610D01*
X34612624Y60934339D01*
X34622059Y60934923D01*
X34639329Y60935465D01*
X34664479Y60935966D01*
X34697555Y60936426D01*
X34738601Y60936846D01*
X34787663Y60937224D01*
X34844784Y60937562D01*
X34910011Y60937860D01*
X34983387Y60938117D01*
X35064958Y60938335D01*
X35154769Y60938513D01*
X35252865Y60938652D01*
X35359290Y60938751D01*
X35474089Y60938812D01*
X35597307Y60938833D01*
X36554833Y60938833D01*
X36554833Y61502104D01*
X35561058Y61500682D01*
G36*
X25149174Y60727123D02*
G01*
X25088239Y60727060D01*
X25030285Y60726891D01*
X24975936Y60726624D01*
X24925813Y60726264D01*
X24880538Y60725819D01*
X24840734Y60725297D01*
X24807022Y60724702D01*
X24780025Y60724044D01*
X24760364Y60723328D01*
X24750183Y60722705D01*
X24686934Y60714744D01*
X24621975Y60701903D01*
X24557763Y60684835D01*
X24496760Y60664197D01*
X24441424Y60640642D01*
X24440700Y60640294D01*
X24370262Y60601896D01*
X24304756Y60557108D01*
X24244580Y60506437D01*
X24190130Y60450388D01*
X24141802Y60389469D01*
X24099994Y60324186D01*
X24065103Y60255045D01*
X24037525Y60182553D01*
X24017656Y60107216D01*
X24015801Y60097968D01*
X24013112Y60083533D01*
X24010710Y60069162D01*
X24008584Y60054326D01*
X24006719Y60038496D01*
X24005100Y60021140D01*
X24003715Y60001728D01*
X24002548Y59979732D01*
X24001587Y59954621D01*
X24000817Y59925864D01*
X24000224Y59892932D01*
X23999794Y59855294D01*
X23999514Y59812421D01*
X23999369Y59763783D01*
X23999345Y59708850D01*
X23999429Y59647090D01*
X23999607Y59577976D01*
X23999864Y59500976D01*
X23999893Y59493150D01*
X24000149Y59420935D01*
X24000377Y59356630D01*
X24000605Y59299678D01*
X24000858Y59249520D01*
X24001162Y59205601D01*
X24001545Y59167363D01*
X24002032Y59134249D01*
X24002651Y59105702D01*
X24003426Y59081165D01*
X24004386Y59060081D01*
X24005555Y59041892D01*
X24006960Y59026043D01*
X24008629Y59011974D01*
X24010587Y58999131D01*
X24012860Y58986954D01*
X24015475Y58974888D01*
X24018458Y58962376D01*
X24021836Y58948860D01*
X24025635Y58933782D01*
X24026551Y58930117D01*
X24046031Y58861137D01*
X24068808Y58798438D01*
X24095753Y58740189D01*
X24127737Y58684559D01*
X24165631Y58629718D01*
X24175901Y58616212D01*
X24225247Y58558846D01*
X24280165Y58506783D01*
X24339793Y58460598D01*
X24403270Y58420863D01*
X24469735Y58388154D01*
X24538327Y58363043D01*
X24568149Y58354753D01*
X24585124Y58350542D01*
X24600891Y58346835D01*
X24616096Y58343599D01*
X24631386Y58340797D01*
X24647406Y58338396D01*
X24664802Y58336360D01*
X24684220Y58334654D01*
X24706306Y58333243D01*
X24731706Y58332092D01*
X24761066Y58331167D01*
X24795031Y58330431D01*
X24834247Y58329851D01*
X24879362Y58329391D01*
X24931019Y58329017D01*
X24989865Y58328693D01*
X25054983Y58328391D01*
X25156820Y58327943D01*
X25250539Y58327537D01*
X25336487Y58327172D01*
X25415013Y58326849D01*
X25486464Y58326567D01*
X25551188Y58326326D01*
X25609533Y58326126D01*
X25661847Y58325966D01*
X25708478Y58325848D01*
X25749775Y58325769D01*
X25786084Y58325731D01*
X25817755Y58325734D01*
X25845134Y58325776D01*
X25868571Y58325858D01*
X25888412Y58325980D01*
X25905006Y58326141D01*
X25918700Y58326342D01*
X25929844Y58326583D01*
X25938784Y58326862D01*
X25945869Y58327180D01*
X25951446Y58327538D01*
X25955864Y58327933D01*
X25956532Y58328005D01*
X26019060Y58338037D01*
X26084340Y58354263D01*
X26150314Y58375913D01*
X26214923Y58402214D01*
X26276109Y58432394D01*
X26331813Y58465682D01*
X26341926Y58472514D01*
X26391731Y58511019D01*
X26439297Y58555817D01*
X26483581Y58605538D01*
X26523539Y58658815D01*
X26558128Y58714278D01*
X26586303Y58770559D01*
X26603711Y58815817D01*
X26622902Y58887248D01*
X26634557Y58961397D01*
X26638748Y59037270D01*
X26635548Y59113872D01*
X26625031Y59190206D01*
X26607267Y59265279D01*
X26582331Y59338096D01*
X26562204Y59383969D01*
X26525749Y59450299D01*
X26482462Y59512047D01*
X26432834Y59568889D01*
X26377350Y59620500D01*
X26316499Y59666554D01*
X26250770Y59706726D01*
X26180651Y59740692D01*
X26106629Y59768126D01*
X26029193Y59788702D01*
X25948831Y59802097D01*
X25931606Y59803969D01*
X25918184Y59804840D01*
X25896607Y59805628D01*
X25867186Y59806329D01*
X25830231Y59806939D01*
X25786055Y59807456D01*
X25734967Y59807876D01*
X25677279Y59808195D01*
X25613303Y59808411D01*
X25543348Y59808520D01*
X25507214Y59808533D01*
X25129066Y59808533D01*
X25129066Y59245500D01*
X25509008Y59245412D01*
X25577428Y59245392D01*
X25637920Y59245346D01*
X25691025Y59245245D01*
X25737282Y59245059D01*
X25777230Y59244758D01*
X25811409Y59244314D01*
X25840358Y59243696D01*
X25864617Y59242875D01*
X25884725Y59241821D01*
X25901222Y59240504D01*
X25914647Y59238897D01*
X25925540Y59236967D01*
X25934440Y59234687D01*
X25941887Y59232026D01*
X25948421Y59228956D01*
X25954579Y59225445D01*
X25960904Y59221466D01*
X25962282Y59220581D01*
X25982220Y59205465D01*
X26002607Y59186086D01*
X26021153Y59164922D01*
X26035567Y59144448D01*
X26039744Y59136841D01*
X26043813Y59127858D01*
X26046617Y59119101D01*
X26048388Y59108738D01*
X26049356Y59094939D01*
X26049754Y59075873D01*
X26049816Y59057117D01*
X26049671Y59032599D01*
X26049089Y59014704D01*
X26047855Y59001590D01*
X26045751Y58991416D01*
X26042558Y58982341D01*
X26040424Y58977503D01*
X26028494Y58958325D01*
X26010866Y58938310D01*
X25989776Y58919572D01*
X25967462Y58904224D01*
X25957059Y58898723D01*
X25949462Y58895093D01*
X25942587Y58891821D01*
X25935980Y58888888D01*
X25929187Y58886275D01*
X25921755Y58883963D01*
X25913229Y58881936D01*
X25903156Y58880173D01*
X25891083Y58878656D01*
X25876555Y58877368D01*
X25859119Y58876289D01*
X25838321Y58875401D01*
X25813708Y58874686D01*
X25784825Y58874125D01*
X25751220Y58873699D01*
X25712437Y58873391D01*
X25668024Y58873181D01*
X25617527Y58873051D01*
X25560492Y58872984D01*
X25496466Y58872959D01*
X25424994Y58872959D01*
X25345623Y58872966D01*
X25324409Y58872967D01*
X25242017Y58872963D01*
X25167643Y58872964D01*
X25100839Y58872991D01*
X25041155Y58873063D01*
X24988143Y58873200D01*
X24941355Y58873421D01*
X24900341Y58873747D01*
X24864654Y58874197D01*
X24833844Y58874790D01*
X24807464Y58875547D01*
X24785063Y58876487D01*
X24766194Y58877631D01*
X24750408Y58878997D01*
X24737256Y58880606D01*
X24726290Y58882477D01*
X24717061Y58884630D01*
X24709120Y58887085D01*
X24702020Y58889861D01*
X24695310Y58892979D01*
X24688543Y58896458D01*
X24681269Y58900318D01*
X24679264Y58901374D01*
X24647749Y58922424D01*
X24619658Y58950142D01*
X24596106Y58983048D01*
X24578211Y59019663D01*
X24569691Y59046533D01*
X24568750Y59051674D01*
X24567912Y59059380D01*
X24567171Y59070098D01*
X24566522Y59084277D01*
X24565960Y59102364D01*
X24565480Y59124807D01*
X24565075Y59152054D01*
X24564740Y59184551D01*
X24564471Y59222748D01*
X24564262Y59267091D01*
X24564107Y59318029D01*
X24564002Y59376008D01*
X24563940Y59441477D01*
X24563917Y59514884D01*
X24563916Y59529133D01*
X24563916Y59988450D01*
X24574903Y60020613D01*
X24593056Y60061710D01*
X24617485Y60097130D01*
X24648162Y60126840D01*
X24685059Y60150809D01*
X24690916Y60153802D01*
X24700215Y60158387D01*
X24708823Y60162424D01*
X24717317Y60165947D01*
X24726274Y60168992D01*
X24736271Y60171594D01*
X24747884Y60173787D01*
X24761690Y60175608D01*
X24778267Y60177090D01*
X24798189Y60178269D01*
X24822035Y60179180D01*
X24850381Y60179858D01*
X24883803Y60180339D01*
X24922879Y60180656D01*
X24968185Y60180845D01*
X25020297Y60180941D01*
X25079793Y60180979D01*
X25138591Y60180993D01*
X25497366Y60181066D01*
X25497366Y60727166D01*
X25149174Y60727123D01*
G37*
X25149174Y60727123D02*
X25088239Y60727060D01*
X25030285Y60726891D01*
X24975936Y60726624D01*
X24925813Y60726264D01*
X24880538Y60725819D01*
X24840734Y60725297D01*
X24807022Y60724702D01*
X24780025Y60724044D01*
X24760364Y60723328D01*
X24750183Y60722705D01*
X24686934Y60714744D01*
X24621975Y60701903D01*
X24557763Y60684835D01*
X24496760Y60664197D01*
X24441424Y60640642D01*
X24440700Y60640294D01*
X24370262Y60601896D01*
X24304756Y60557108D01*
X24244580Y60506437D01*
X24190130Y60450388D01*
X24141802Y60389469D01*
X24099994Y60324186D01*
X24065103Y60255045D01*
X24037525Y60182553D01*
X24017656Y60107216D01*
X24015801Y60097968D01*
X24013112Y60083533D01*
X24010710Y60069162D01*
X24008584Y60054326D01*
X24006719Y60038496D01*
X24005100Y60021140D01*
X24003715Y60001728D01*
X24002548Y59979732D01*
X24001587Y59954621D01*
X24000817Y59925864D01*
X24000224Y59892932D01*
X23999794Y59855294D01*
X23999514Y59812421D01*
X23999369Y59763783D01*
X23999345Y59708850D01*
X23999429Y59647090D01*
X23999607Y59577976D01*
X23999864Y59500976D01*
X23999893Y59493150D01*
X24000149Y59420935D01*
X24000377Y59356630D01*
X24000605Y59299678D01*
X24000858Y59249520D01*
X24001162Y59205601D01*
X24001545Y59167363D01*
X24002032Y59134249D01*
X24002651Y59105702D01*
X24003426Y59081165D01*
X24004386Y59060081D01*
X24005555Y59041892D01*
X24006960Y59026043D01*
X24008629Y59011974D01*
X24010587Y58999131D01*
X24012860Y58986954D01*
X24015475Y58974888D01*
X24018458Y58962376D01*
X24021836Y58948860D01*
X24025635Y58933782D01*
X24026551Y58930117D01*
X24046031Y58861137D01*
X24068808Y58798438D01*
X24095753Y58740189D01*
X24127737Y58684559D01*
X24165631Y58629718D01*
X24175901Y58616212D01*
X24225247Y58558846D01*
X24280165Y58506783D01*
X24339793Y58460598D01*
X24403270Y58420863D01*
X24469735Y58388154D01*
X24538327Y58363043D01*
X24568149Y58354753D01*
X24585124Y58350542D01*
X24600891Y58346835D01*
X24616096Y58343599D01*
X24631386Y58340797D01*
X24647406Y58338396D01*
X24664802Y58336360D01*
X24684220Y58334654D01*
X24706306Y58333243D01*
X24731706Y58332092D01*
X24761066Y58331167D01*
X24795031Y58330431D01*
X24834247Y58329851D01*
X24879362Y58329391D01*
X24931019Y58329017D01*
X24989865Y58328693D01*
X25054983Y58328391D01*
X25156820Y58327943D01*
X25250539Y58327537D01*
X25336487Y58327172D01*
X25415013Y58326849D01*
X25486464Y58326567D01*
X25551188Y58326326D01*
X25609533Y58326126D01*
X25661847Y58325966D01*
X25708478Y58325848D01*
X25749775Y58325769D01*
X25786084Y58325731D01*
X25817755Y58325734D01*
X25845134Y58325776D01*
X25868571Y58325858D01*
X25888412Y58325980D01*
X25905006Y58326141D01*
X25918700Y58326342D01*
X25929844Y58326583D01*
X25938784Y58326862D01*
X25945869Y58327180D01*
X25951446Y58327538D01*
X25955864Y58327933D01*
X25956532Y58328005D01*
X26019060Y58338037D01*
X26084340Y58354263D01*
X26150314Y58375913D01*
X26214923Y58402214D01*
X26276109Y58432394D01*
X26331813Y58465682D01*
X26341926Y58472514D01*
X26391731Y58511019D01*
X26439297Y58555817D01*
X26483581Y58605538D01*
X26523539Y58658815D01*
X26558128Y58714278D01*
X26586303Y58770559D01*
X26603711Y58815817D01*
X26622902Y58887248D01*
X26634557Y58961397D01*
X26638748Y59037270D01*
X26635548Y59113872D01*
X26625031Y59190206D01*
X26607267Y59265279D01*
X26582331Y59338096D01*
X26562204Y59383969D01*
X26525749Y59450299D01*
X26482462Y59512047D01*
X26432834Y59568889D01*
X26377350Y59620500D01*
X26316499Y59666554D01*
X26250770Y59706726D01*
X26180651Y59740692D01*
X26106629Y59768126D01*
X26029193Y59788702D01*
X25948831Y59802097D01*
X25931606Y59803969D01*
X25918184Y59804840D01*
X25896607Y59805628D01*
X25867186Y59806329D01*
X25830231Y59806939D01*
X25786055Y59807456D01*
X25734967Y59807876D01*
X25677279Y59808195D01*
X25613303Y59808411D01*
X25543348Y59808520D01*
X25507214Y59808533D01*
X25129066Y59808533D01*
X25129066Y59245500D01*
X25509008Y59245412D01*
X25577428Y59245392D01*
X25637920Y59245346D01*
X25691025Y59245245D01*
X25737282Y59245059D01*
X25777230Y59244758D01*
X25811409Y59244314D01*
X25840358Y59243696D01*
X25864617Y59242875D01*
X25884725Y59241821D01*
X25901222Y59240504D01*
X25914647Y59238897D01*
X25925540Y59236967D01*
X25934440Y59234687D01*
X25941887Y59232026D01*
X25948421Y59228956D01*
X25954579Y59225445D01*
X25960904Y59221466D01*
X25962282Y59220581D01*
X25982220Y59205465D01*
X26002607Y59186086D01*
X26021153Y59164922D01*
X26035567Y59144448D01*
X26039744Y59136841D01*
X26043813Y59127858D01*
X26046617Y59119101D01*
X26048388Y59108738D01*
X26049356Y59094939D01*
X26049754Y59075873D01*
X26049816Y59057117D01*
X26049671Y59032599D01*
X26049089Y59014704D01*
X26047855Y59001590D01*
X26045751Y58991416D01*
X26042558Y58982341D01*
X26040424Y58977503D01*
X26028494Y58958325D01*
X26010866Y58938310D01*
X25989776Y58919572D01*
X25967462Y58904224D01*
X25957059Y58898723D01*
X25949462Y58895093D01*
X25942587Y58891821D01*
X25935980Y58888888D01*
X25929187Y58886275D01*
X25921755Y58883963D01*
X25913229Y58881936D01*
X25903156Y58880173D01*
X25891083Y58878656D01*
X25876555Y58877368D01*
X25859119Y58876289D01*
X25838321Y58875401D01*
X25813708Y58874686D01*
X25784825Y58874125D01*
X25751220Y58873699D01*
X25712437Y58873391D01*
X25668024Y58873181D01*
X25617527Y58873051D01*
X25560492Y58872984D01*
X25496466Y58872959D01*
X25424994Y58872959D01*
X25345623Y58872966D01*
X25324409Y58872967D01*
X25242017Y58872963D01*
X25167643Y58872964D01*
X25100839Y58872991D01*
X25041155Y58873063D01*
X24988143Y58873200D01*
X24941355Y58873421D01*
X24900341Y58873747D01*
X24864654Y58874197D01*
X24833844Y58874790D01*
X24807464Y58875547D01*
X24785063Y58876487D01*
X24766194Y58877631D01*
X24750408Y58878997D01*
X24737256Y58880606D01*
X24726290Y58882477D01*
X24717061Y58884630D01*
X24709120Y58887085D01*
X24702020Y58889861D01*
X24695310Y58892979D01*
X24688543Y58896458D01*
X24681269Y58900318D01*
X24679264Y58901374D01*
X24647749Y58922424D01*
X24619658Y58950142D01*
X24596106Y58983048D01*
X24578211Y59019663D01*
X24569691Y59046533D01*
X24568750Y59051674D01*
X24567912Y59059380D01*
X24567171Y59070098D01*
X24566522Y59084277D01*
X24565960Y59102364D01*
X24565480Y59124807D01*
X24565075Y59152054D01*
X24564740Y59184551D01*
X24564471Y59222748D01*
X24564262Y59267091D01*
X24564107Y59318029D01*
X24564002Y59376008D01*
X24563940Y59441477D01*
X24563917Y59514884D01*
X24563916Y59529133D01*
X24563916Y59988450D01*
X24574903Y60020613D01*
X24593056Y60061710D01*
X24617485Y60097130D01*
X24648162Y60126840D01*
X24685059Y60150809D01*
X24690916Y60153802D01*
X24700215Y60158387D01*
X24708823Y60162424D01*
X24717317Y60165947D01*
X24726274Y60168992D01*
X24736271Y60171594D01*
X24747884Y60173787D01*
X24761690Y60175608D01*
X24778267Y60177090D01*
X24798189Y60178269D01*
X24822035Y60179180D01*
X24850381Y60179858D01*
X24883803Y60180339D01*
X24922879Y60180656D01*
X24968185Y60180845D01*
X25020297Y60180941D01*
X25079793Y60180979D01*
X25138591Y60180993D01*
X25497366Y60181066D01*
X25497366Y60727166D01*
X25149174Y60727123D01*
G36*
X15197666Y57903533D02*
G01*
X15337366Y57903533D01*
X15337366Y58009366D01*
X15197666Y58009366D01*
X15197666Y57903533D01*
G37*
X15197666Y57903533D02*
X15337366Y57903533D01*
X15337366Y58009366D01*
X15197666Y58009366D01*
X15197666Y57903533D01*
G36*
X20226866Y57903533D02*
G01*
X20345399Y57903533D01*
X20345399Y58009366D01*
X20226866Y58009366D01*
X20226866Y57903533D01*
G37*
X20226866Y57903533D02*
X20345399Y57903533D01*
X20345399Y58009366D01*
X20226866Y58009366D01*
X20226866Y57903533D01*
G36*
X30209101Y59379908D02*
G01*
X30209118Y59240268D01*
X30209162Y59107521D01*
X30209232Y58981757D01*
X30209329Y58863069D01*
X30209451Y58751548D01*
X30209599Y58647285D01*
X30209772Y58550373D01*
X30209971Y58460901D01*
X30210194Y58378963D01*
X30210441Y58304648D01*
X30210713Y58238050D01*
X30211009Y58179259D01*
X30211328Y58128366D01*
X30211671Y58085463D01*
X30212036Y58050643D01*
X30212425Y58023995D01*
X30212836Y58005611D01*
X30213269Y57995584D01*
X30213363Y57994550D01*
X30226719Y57909364D01*
X30247416Y57828108D01*
X30275382Y57750957D01*
X30310545Y57678083D01*
X30352834Y57609660D01*
X30394010Y57555513D01*
X30442672Y57503430D01*
X30498108Y57455604D01*
X30559579Y57412395D01*
X30626343Y57374161D01*
X30697659Y57341261D01*
X30772788Y57314053D01*
X30850987Y57292898D01*
X30931516Y57278154D01*
X30977416Y57272826D01*
X30988902Y57272174D01*
X31008490Y57271566D01*
X31035817Y57271006D01*
X31070519Y57270496D01*
X31112233Y57270038D01*
X31160594Y57269636D01*
X31215239Y57269292D01*
X31275804Y57269009D01*
X31341925Y57268789D01*
X31413239Y57268636D01*
X31489381Y57268553D01*
X31541508Y57268537D01*
X32059033Y57268533D01*
X32059033Y57848198D01*
X31513991Y57849594D01*
X31434589Y57849803D01*
X31363205Y57850006D01*
X31299388Y57850210D01*
X31242691Y57850424D01*
X31192663Y57850652D01*
X31148856Y57850903D01*
X31110820Y57851184D01*
X31078106Y57851502D01*
X31050264Y57851863D01*
X31026846Y57852276D01*
X31007403Y57852746D01*
X30991484Y57853281D01*
X30978641Y57853888D01*
X30968425Y57854574D01*
X30960386Y57855346D01*
X30954074Y57856211D01*
X30949042Y57857177D01*
X30944839Y57858249D01*
X30943816Y57858550D01*
X30902628Y57874519D01*
X30868051Y57895742D01*
X30839921Y57922396D01*
X30818075Y57954661D01*
X30802346Y57992713D01*
X30795712Y58018713D01*
X30795077Y58022402D01*
X30794483Y58027244D01*
X30793928Y58033516D01*
X30793413Y58041494D01*
X30792934Y58051455D01*
X30792491Y58063676D01*
X30792082Y58078433D01*
X30791706Y58096002D01*
X30791361Y58116661D01*
X30791047Y58140686D01*
X30790762Y58168353D01*
X30790505Y58199940D01*
X30790273Y58235722D01*
X30790067Y58275976D01*
X30789884Y58320980D01*
X30789723Y58371008D01*
X30789583Y58426339D01*
X30789463Y58487249D01*
X30789361Y58554014D01*
X30789275Y58626910D01*
X30789205Y58706216D01*
X30789149Y58792206D01*
X30789106Y58885158D01*
X30789074Y58985348D01*
X30789052Y59093053D01*
X30789039Y59208550D01*
X30789033Y59332114D01*
X30789033Y60727166D01*
X30209066Y60727166D01*
X30209101Y59379908D01*
G37*
X30209101Y59379908D02*
X30209118Y59240268D01*
X30209162Y59107521D01*
X30209232Y58981757D01*
X30209329Y58863069D01*
X30209451Y58751548D01*
X30209599Y58647285D01*
X30209772Y58550373D01*
X30209971Y58460901D01*
X30210194Y58378963D01*
X30210441Y58304648D01*
X30210713Y58238050D01*
X30211009Y58179259D01*
X30211328Y58128366D01*
X30211671Y58085463D01*
X30212036Y58050643D01*
X30212425Y58023995D01*
X30212836Y58005611D01*
X30213269Y57995584D01*
X30213363Y57994550D01*
X30226719Y57909364D01*
X30247416Y57828108D01*
X30275382Y57750957D01*
X30310545Y57678083D01*
X30352834Y57609660D01*
X30394010Y57555513D01*
X30442672Y57503430D01*
X30498108Y57455604D01*
X30559579Y57412395D01*
X30626343Y57374161D01*
X30697659Y57341261D01*
X30772788Y57314053D01*
X30850987Y57292898D01*
X30931516Y57278154D01*
X30977416Y57272826D01*
X30988902Y57272174D01*
X31008490Y57271566D01*
X31035817Y57271006D01*
X31070519Y57270496D01*
X31112233Y57270038D01*
X31160594Y57269636D01*
X31215239Y57269292D01*
X31275804Y57269009D01*
X31341925Y57268789D01*
X31413239Y57268636D01*
X31489381Y57268553D01*
X31541508Y57268537D01*
X32059033Y57268533D01*
X32059033Y57848198D01*
X31513991Y57849594D01*
X31434589Y57849803D01*
X31363205Y57850006D01*
X31299388Y57850210D01*
X31242691Y57850424D01*
X31192663Y57850652D01*
X31148856Y57850903D01*
X31110820Y57851184D01*
X31078106Y57851502D01*
X31050264Y57851863D01*
X31026846Y57852276D01*
X31007403Y57852746D01*
X30991484Y57853281D01*
X30978641Y57853888D01*
X30968425Y57854574D01*
X30960386Y57855346D01*
X30954074Y57856211D01*
X30949042Y57857177D01*
X30944839Y57858249D01*
X30943816Y57858550D01*
X30902628Y57874519D01*
X30868051Y57895742D01*
X30839921Y57922396D01*
X30818075Y57954661D01*
X30802346Y57992713D01*
X30795712Y58018713D01*
X30795077Y58022402D01*
X30794483Y58027244D01*
X30793928Y58033516D01*
X30793413Y58041494D01*
X30792934Y58051455D01*
X30792491Y58063676D01*
X30792082Y58078433D01*
X30791706Y58096002D01*
X30791361Y58116661D01*
X30791047Y58140686D01*
X30790762Y58168353D01*
X30790505Y58199940D01*
X30790273Y58235722D01*
X30790067Y58275976D01*
X30789884Y58320980D01*
X30789723Y58371008D01*
X30789583Y58426339D01*
X30789463Y58487249D01*
X30789361Y58554014D01*
X30789275Y58626910D01*
X30789205Y58706216D01*
X30789149Y58792206D01*
X30789106Y58885158D01*
X30789074Y58985348D01*
X30789052Y59093053D01*
X30789039Y59208550D01*
X30789033Y59332114D01*
X30789033Y60727166D01*
X30209066Y60727166D01*
X30209101Y59379908D01*
G36*
X13258800Y57658000D02*
G01*
X13419148Y57658000D01*
X13461772Y57657992D01*
X13496685Y57657897D01*
X13524641Y57657608D01*
X13546395Y57657016D01*
X13562701Y57656015D01*
X13574315Y57654496D01*
X13581992Y57652353D01*
X13586485Y57649477D01*
X13588551Y57645762D01*
X13588943Y57641099D01*
X13588418Y57635382D01*
X13588247Y57633914D01*
X13586883Y57622016D01*
X13453296Y57619900D01*
X13319708Y57617783D01*
X13287414Y57601814D01*
X13255496Y57581492D01*
X13229063Y57555287D01*
X13208644Y57524175D01*
X13194764Y57489136D01*
X13187952Y57451148D01*
X13188090Y57417533D01*
X13195237Y57378719D01*
X13209480Y57344460D01*
X13230647Y57314967D01*
X13258566Y57290453D01*
X13293064Y57271130D01*
X13313198Y57263322D01*
X13320198Y57261043D01*
X13327060Y57259152D01*
X13334635Y57257607D01*
X13343771Y57256364D01*
X13355321Y57255382D01*
X13370133Y57254618D01*
X13389059Y57254029D01*
X13412949Y57253572D01*
X13442654Y57253206D01*
X13479023Y57252887D01*
X13522906Y57252572D01*
X13528675Y57252533D01*
X13716000Y57251267D01*
X13716000Y57391300D01*
X13334615Y57391300D01*
X13324224Y57401691D01*
X13317536Y57410398D01*
X13314456Y57421103D01*
X13313833Y57433766D01*
X13314681Y57448200D01*
X13318151Y57458086D01*
X13325636Y57467251D01*
X13326207Y57467825D01*
X13338582Y57480200D01*
X13450513Y57480200D01*
X13481808Y57480361D01*
X13511498Y57480815D01*
X13538164Y57481517D01*
X13560389Y57482422D01*
X13576756Y57483484D01*
X13584937Y57484466D01*
X13619430Y57494873D01*
X13649695Y57511657D01*
X13675044Y57533859D01*
X13694789Y57560519D01*
X13708244Y57590679D01*
X13714721Y57623379D01*
X13713532Y57657659D01*
X13712676Y57662742D01*
X13702610Y57697312D01*
X13686360Y57726109D01*
X13663952Y57749100D01*
X13635412Y57766256D01*
X13614281Y57774060D01*
X13607224Y57775808D01*
X13598407Y57777234D01*
X13586968Y57778368D01*
X13572046Y57779242D01*
X13552782Y57779885D01*
X13528313Y57780328D01*
X13497780Y57780602D01*
X13460322Y57780738D01*
X13425248Y57780766D01*
X13258800Y57780766D01*
X13258800Y57658000D01*
G37*
X13258800Y57658000D02*
X13419148Y57658000D01*
X13461772Y57657992D01*
X13496685Y57657897D01*
X13524641Y57657608D01*
X13546395Y57657016D01*
X13562701Y57656015D01*
X13574315Y57654496D01*
X13581992Y57652353D01*
X13586485Y57649477D01*
X13588551Y57645762D01*
X13588943Y57641099D01*
X13588418Y57635382D01*
X13588247Y57633914D01*
X13586883Y57622016D01*
X13453296Y57619900D01*
X13319708Y57617783D01*
X13287414Y57601814D01*
X13255496Y57581492D01*
X13229063Y57555287D01*
X13208644Y57524175D01*
X13194764Y57489136D01*
X13187952Y57451148D01*
X13188090Y57417533D01*
X13195237Y57378719D01*
X13209480Y57344460D01*
X13230647Y57314967D01*
X13258566Y57290453D01*
X13293064Y57271130D01*
X13313198Y57263322D01*
X13320198Y57261043D01*
X13327060Y57259152D01*
X13334635Y57257607D01*
X13343771Y57256364D01*
X13355321Y57255382D01*
X13370133Y57254618D01*
X13389059Y57254029D01*
X13412949Y57253572D01*
X13442654Y57253206D01*
X13479023Y57252887D01*
X13522906Y57252572D01*
X13528675Y57252533D01*
X13716000Y57251267D01*
X13716000Y57391300D01*
X13334615Y57391300D01*
X13324224Y57401691D01*
X13317536Y57410398D01*
X13314456Y57421103D01*
X13313833Y57433766D01*
X13314681Y57448200D01*
X13318151Y57458086D01*
X13325636Y57467251D01*
X13326207Y57467825D01*
X13338582Y57480200D01*
X13450513Y57480200D01*
X13481808Y57480361D01*
X13511498Y57480815D01*
X13538164Y57481517D01*
X13560389Y57482422D01*
X13576756Y57483484D01*
X13584937Y57484466D01*
X13619430Y57494873D01*
X13649695Y57511657D01*
X13675044Y57533859D01*
X13694789Y57560519D01*
X13708244Y57590679D01*
X13714721Y57623379D01*
X13713532Y57657659D01*
X13712676Y57662742D01*
X13702610Y57697312D01*
X13686360Y57726109D01*
X13663952Y57749100D01*
X13635412Y57766256D01*
X13614281Y57774060D01*
X13607224Y57775808D01*
X13598407Y57777234D01*
X13586968Y57778368D01*
X13572046Y57779242D01*
X13552782Y57779885D01*
X13528313Y57780328D01*
X13497780Y57780602D01*
X13460322Y57780738D01*
X13425248Y57780766D01*
X13258800Y57780766D01*
X13258800Y57658000D01*
G36*
X14256523Y57780165D02*
G01*
X14220428Y57779975D01*
X14176752Y57779680D01*
X14171083Y57779639D01*
X14123588Y57779277D01*
X14083709Y57778862D01*
X14050596Y57778297D01*
X14023398Y57777486D01*
X14001265Y57776331D01*
X13983348Y57774738D01*
X13968794Y57772608D01*
X13956755Y57769846D01*
X13946379Y57766355D01*
X13936816Y57762038D01*
X13927217Y57756799D01*
X13917170Y57750808D01*
X13882372Y57724862D01*
X13852931Y57692826D01*
X13829710Y57655785D01*
X13816581Y57624439D01*
X13814250Y57617182D01*
X13812331Y57609987D01*
X13810775Y57601958D01*
X13809535Y57592198D01*
X13808562Y57579809D01*
X13807809Y57563897D01*
X13807227Y57543563D01*
X13806768Y57517911D01*
X13806384Y57486044D01*
X13806028Y57447066D01*
X13805840Y57424108D01*
X13804461Y57251600D01*
X13944600Y57251600D01*
X13944692Y57419875D01*
X13944740Y57464897D01*
X13944910Y57502283D01*
X13945323Y57532861D01*
X13946099Y57557462D01*
X13947359Y57576914D01*
X13949224Y57592049D01*
X13951814Y57603695D01*
X13955249Y57612682D01*
X13959652Y57619839D01*
X13965141Y57625998D01*
X13971838Y57631986D01*
X13976041Y57635476D01*
X13984072Y57641675D01*
X13992182Y57646626D01*
X14001404Y57650466D01*
X14012771Y57653336D01*
X14027315Y57655374D01*
X14046069Y57656720D01*
X14070066Y57657513D01*
X14100339Y57657893D01*
X14137921Y57657999D01*
X14142999Y57658000D01*
X14262100Y57658000D01*
X14262100Y57251600D01*
X14401800Y57251600D01*
X14401784Y57493958D01*
X14401771Y57545406D01*
X14401727Y57589071D01*
X14401627Y57625637D01*
X14401451Y57655787D01*
X14401174Y57680204D01*
X14400775Y57699573D01*
X14400231Y57714578D01*
X14399520Y57725901D01*
X14398620Y57734227D01*
X14397507Y57740238D01*
X14396159Y57744620D01*
X14394554Y57748055D01*
X14393356Y57750114D01*
X14383629Y57762093D01*
X14371655Y57772119D01*
X14371147Y57772439D01*
X14367581Y57774479D01*
X14363574Y57776157D01*
X14358331Y57777502D01*
X14351060Y57778541D01*
X14340968Y57779305D01*
X14327261Y57779820D01*
X14309147Y57780117D01*
X14285832Y57780222D01*
X14256523Y57780165D01*
G37*
X14256523Y57780165D02*
X14220428Y57779975D01*
X14176752Y57779680D01*
X14171083Y57779639D01*
X14123588Y57779277D01*
X14083709Y57778862D01*
X14050596Y57778297D01*
X14023398Y57777486D01*
X14001265Y57776331D01*
X13983348Y57774738D01*
X13968794Y57772608D01*
X13956755Y57769846D01*
X13946379Y57766355D01*
X13936816Y57762038D01*
X13927217Y57756799D01*
X13917170Y57750808D01*
X13882372Y57724862D01*
X13852931Y57692826D01*
X13829710Y57655785D01*
X13816581Y57624439D01*
X13814250Y57617182D01*
X13812331Y57609987D01*
X13810775Y57601958D01*
X13809535Y57592198D01*
X13808562Y57579809D01*
X13807809Y57563897D01*
X13807227Y57543563D01*
X13806768Y57517911D01*
X13806384Y57486044D01*
X13806028Y57447066D01*
X13805840Y57424108D01*
X13804461Y57251600D01*
X13944600Y57251600D01*
X13944692Y57419875D01*
X13944740Y57464897D01*
X13944910Y57502283D01*
X13945323Y57532861D01*
X13946099Y57557462D01*
X13947359Y57576914D01*
X13949224Y57592049D01*
X13951814Y57603695D01*
X13955249Y57612682D01*
X13959652Y57619839D01*
X13965141Y57625998D01*
X13971838Y57631986D01*
X13976041Y57635476D01*
X13984072Y57641675D01*
X13992182Y57646626D01*
X14001404Y57650466D01*
X14012771Y57653336D01*
X14027315Y57655374D01*
X14046069Y57656720D01*
X14070066Y57657513D01*
X14100339Y57657893D01*
X14137921Y57657999D01*
X14142999Y57658000D01*
X14262100Y57658000D01*
X14262100Y57251600D01*
X14401800Y57251600D01*
X14401784Y57493958D01*
X14401771Y57545406D01*
X14401727Y57589071D01*
X14401627Y57625637D01*
X14401451Y57655787D01*
X14401174Y57680204D01*
X14400775Y57699573D01*
X14400231Y57714578D01*
X14399520Y57725901D01*
X14398620Y57734227D01*
X14397507Y57740238D01*
X14396159Y57744620D01*
X14394554Y57748055D01*
X14393356Y57750114D01*
X14383629Y57762093D01*
X14371655Y57772119D01*
X14371147Y57772439D01*
X14367581Y57774479D01*
X14363574Y57776157D01*
X14358331Y57777502D01*
X14351060Y57778541D01*
X14340968Y57779305D01*
X14327261Y57779820D01*
X14309147Y57780117D01*
X14285832Y57780222D01*
X14256523Y57780165D01*
G36*
X14788373Y57780077D02*
G01*
X14783267Y57780032D01*
X14632516Y57778650D01*
X14604799Y57765515D01*
X14574143Y57748005D01*
X14550588Y57727366D01*
X14532956Y57702248D01*
X14520073Y57671302D01*
X14518678Y57666756D01*
X14516633Y57658461D01*
X14515025Y57648272D01*
X14513806Y57635156D01*
X14512929Y57618079D01*
X14512346Y57596007D01*
X14512011Y57567908D01*
X14511875Y57532748D01*
X14511866Y57518194D01*
X14511909Y57481660D01*
X14512077Y57452506D01*
X14512432Y57429642D01*
X14513033Y57411983D01*
X14513943Y57398439D01*
X14515220Y57387925D01*
X14516927Y57379352D01*
X14519123Y57371633D01*
X14520226Y57368326D01*
X14535022Y57336378D01*
X14555811Y57309658D01*
X14582989Y57287833D01*
X14616948Y57270570D01*
X14647873Y57260201D01*
X14657585Y57257695D01*
X14667296Y57255729D01*
X14678159Y57254244D01*
X14691324Y57253177D01*
X14707943Y57252468D01*
X14729167Y57252055D01*
X14756147Y57251877D01*
X14790035Y57251873D01*
X14803881Y57251901D01*
X14841406Y57252061D01*
X14871545Y57252375D01*
X14895380Y57252899D01*
X14913991Y57253687D01*
X14928458Y57254794D01*
X14939862Y57256274D01*
X14949284Y57258182D01*
X14954250Y57259502D01*
X14992244Y57274216D01*
X15024728Y57294671D01*
X15051187Y57320314D01*
X15071110Y57350593D01*
X15083981Y57384956D01*
X15087512Y57402793D01*
X15088774Y57415850D01*
X15089882Y57435579D01*
X15090774Y57460189D01*
X15091023Y57471490D01*
X14968770Y57471490D01*
X14968539Y57452222D01*
X14967926Y57438079D01*
X14966876Y57427948D01*
X14965334Y57420716D01*
X14963246Y57415270D01*
X14962593Y57413985D01*
X14955186Y57403582D01*
X14946868Y57396506D01*
X14946422Y57396280D01*
X14939389Y57394971D01*
X14924409Y57393851D01*
X14902001Y57392935D01*
X14872684Y57392240D01*
X14836976Y57391783D01*
X14798741Y57391586D01*
X14660166Y57391300D01*
X14646341Y57403645D01*
X14632516Y57415991D01*
X14631350Y57516887D01*
X14631035Y57549299D01*
X14630974Y57574398D01*
X14631231Y57593334D01*
X14631870Y57607260D01*
X14632952Y57617325D01*
X14634542Y57624681D01*
X14636702Y57630480D01*
X14637700Y57632541D01*
X14641274Y57639218D01*
X14645085Y57644614D01*
X14650013Y57648858D01*
X14656936Y57652077D01*
X14666735Y57654402D01*
X14680288Y57655959D01*
X14698476Y57656877D01*
X14722177Y57657286D01*
X14752271Y57657313D01*
X14789638Y57657086D01*
X14804933Y57656968D01*
X14943484Y57655883D01*
X14966950Y57632423D01*
X14968304Y57529853D01*
X14968673Y57496996D01*
X14968770Y57471490D01*
X15091023Y57471490D01*
X15091386Y57487885D01*
X15091657Y57516874D01*
X15091665Y57522533D01*
X15091468Y57551566D01*
X15090917Y57579655D01*
X15090075Y57605008D01*
X15089005Y57625832D01*
X15087768Y57640332D01*
X15087512Y57642273D01*
X15078318Y57678312D01*
X15062160Y57709972D01*
X15039686Y57736580D01*
X15011543Y57757462D01*
X14978381Y57771943D01*
X14957848Y57777009D01*
X14946553Y57778211D01*
X14927517Y57779154D01*
X14901459Y57779824D01*
X14869102Y57780210D01*
X14831166Y57780298D01*
X14788373Y57780077D01*
G37*
X14788373Y57780077D02*
X14783267Y57780032D01*
X14632516Y57778650D01*
X14604799Y57765515D01*
X14574143Y57748005D01*
X14550588Y57727366D01*
X14532956Y57702248D01*
X14520073Y57671302D01*
X14518678Y57666756D01*
X14516633Y57658461D01*
X14515025Y57648272D01*
X14513806Y57635156D01*
X14512929Y57618079D01*
X14512346Y57596007D01*
X14512011Y57567908D01*
X14511875Y57532748D01*
X14511866Y57518194D01*
X14511909Y57481660D01*
X14512077Y57452506D01*
X14512432Y57429642D01*
X14513033Y57411983D01*
X14513943Y57398439D01*
X14515220Y57387925D01*
X14516927Y57379352D01*
X14519123Y57371633D01*
X14520226Y57368326D01*
X14535022Y57336378D01*
X14555811Y57309658D01*
X14582989Y57287833D01*
X14616948Y57270570D01*
X14647873Y57260201D01*
X14657585Y57257695D01*
X14667296Y57255729D01*
X14678159Y57254244D01*
X14691324Y57253177D01*
X14707943Y57252468D01*
X14729167Y57252055D01*
X14756147Y57251877D01*
X14790035Y57251873D01*
X14803881Y57251901D01*
X14841406Y57252061D01*
X14871545Y57252375D01*
X14895380Y57252899D01*
X14913991Y57253687D01*
X14928458Y57254794D01*
X14939862Y57256274D01*
X14949284Y57258182D01*
X14954250Y57259502D01*
X14992244Y57274216D01*
X15024728Y57294671D01*
X15051187Y57320314D01*
X15071110Y57350593D01*
X15083981Y57384956D01*
X15087512Y57402793D01*
X15088774Y57415850D01*
X15089882Y57435579D01*
X15090774Y57460189D01*
X15091023Y57471490D01*
X14968770Y57471490D01*
X14968539Y57452222D01*
X14967926Y57438079D01*
X14966876Y57427948D01*
X14965334Y57420716D01*
X14963246Y57415270D01*
X14962593Y57413985D01*
X14955186Y57403582D01*
X14946868Y57396506D01*
X14946422Y57396280D01*
X14939389Y57394971D01*
X14924409Y57393851D01*
X14902001Y57392935D01*
X14872684Y57392240D01*
X14836976Y57391783D01*
X14798741Y57391586D01*
X14660166Y57391300D01*
X14646341Y57403645D01*
X14632516Y57415991D01*
X14631350Y57516887D01*
X14631035Y57549299D01*
X14630974Y57574398D01*
X14631231Y57593334D01*
X14631870Y57607260D01*
X14632952Y57617325D01*
X14634542Y57624681D01*
X14636702Y57630480D01*
X14637700Y57632541D01*
X14641274Y57639218D01*
X14645085Y57644614D01*
X14650013Y57648858D01*
X14656936Y57652077D01*
X14666735Y57654402D01*
X14680288Y57655959D01*
X14698476Y57656877D01*
X14722177Y57657286D01*
X14752271Y57657313D01*
X14789638Y57657086D01*
X14804933Y57656968D01*
X14943484Y57655883D01*
X14966950Y57632423D01*
X14968304Y57529853D01*
X14968673Y57496996D01*
X14968770Y57471490D01*
X15091023Y57471490D01*
X15091386Y57487885D01*
X15091657Y57516874D01*
X15091665Y57522533D01*
X15091468Y57551566D01*
X15090917Y57579655D01*
X15090075Y57605008D01*
X15089005Y57625832D01*
X15087768Y57640332D01*
X15087512Y57642273D01*
X15078318Y57678312D01*
X15062160Y57709972D01*
X15039686Y57736580D01*
X15011543Y57757462D01*
X14978381Y57771943D01*
X14957848Y57777009D01*
X14946553Y57778211D01*
X14927517Y57779154D01*
X14901459Y57779824D01*
X14869102Y57780210D01*
X14831166Y57780298D01*
X14788373Y57780077D01*
G36*
X15197666Y57251600D02*
G01*
X15337366Y57251600D01*
X15337366Y57780766D01*
X15197666Y57780766D01*
X15197666Y57251600D01*
G37*
X15197666Y57251600D02*
X15337366Y57251600D01*
X15337366Y57780766D01*
X15197666Y57780766D01*
X15197666Y57251600D01*
G36*
X15637933Y57780766D02*
G01*
X15426266Y57780766D01*
X15426266Y57658000D01*
X15637933Y57658000D01*
X15637933Y57251600D01*
X15777633Y57251600D01*
X15777633Y57658000D01*
X15938500Y57658000D01*
X15938500Y57780766D01*
X15777633Y57780766D01*
X15777633Y57954333D01*
X15637933Y57954333D01*
X15637933Y57780766D01*
G37*
X15637933Y57780766D02*
X15426266Y57780766D01*
X15426266Y57658000D01*
X15637933Y57658000D01*
X15637933Y57251600D01*
X15777633Y57251600D01*
X15777633Y57658000D01*
X15938500Y57658000D01*
X15938500Y57780766D01*
X15777633Y57780766D01*
X15777633Y57954333D01*
X15637933Y57954333D01*
X15637933Y57780766D01*
G36*
X16483732Y57620958D02*
G01*
X16483400Y57578546D01*
X16483043Y57543708D01*
X16482531Y57515557D01*
X16481730Y57493200D01*
X16480511Y57475747D01*
X16478742Y57462309D01*
X16476291Y57451994D01*
X16473026Y57443912D01*
X16468817Y57437174D01*
X16463532Y57430888D01*
X16457040Y57424164D01*
X16454272Y57421352D01*
X16446191Y57413379D01*
X16438561Y57406968D01*
X16430381Y57401947D01*
X16420646Y57398145D01*
X16408353Y57395393D01*
X16392500Y57393519D01*
X16372083Y57392352D01*
X16346098Y57391722D01*
X16313544Y57391458D01*
X16278225Y57391393D01*
X16150166Y57391300D01*
X16150166Y57780766D01*
X16027400Y57780766D01*
X16027415Y57538408D01*
X16027427Y57486977D01*
X16027470Y57443329D01*
X16027566Y57406779D01*
X16027740Y57376643D01*
X16028013Y57352236D01*
X16028409Y57332875D01*
X16028950Y57317875D01*
X16029659Y57306552D01*
X16030559Y57298222D01*
X16031672Y57292200D01*
X16033023Y57287802D01*
X16034633Y57284344D01*
X16035969Y57282045D01*
X16046339Y57270406D01*
X16060579Y57260790D01*
X16062412Y57259913D01*
X16067622Y57257771D01*
X16073444Y57256044D01*
X16080794Y57254690D01*
X16090585Y57253669D01*
X16103734Y57252937D01*
X16121154Y57252453D01*
X16143761Y57252176D01*
X16172470Y57252063D01*
X16208195Y57252072D01*
X16232716Y57252118D01*
X16278479Y57252323D01*
X16316461Y57252738D01*
X16347349Y57253385D01*
X16371826Y57254288D01*
X16390579Y57255469D01*
X16404291Y57256953D01*
X16411235Y57258179D01*
X16442470Y57267448D01*
X16474443Y57281205D01*
X16504981Y57298207D01*
X16531907Y57317211D01*
X16553045Y57336976D01*
X16556637Y57341222D01*
X16566323Y57354839D01*
X16576640Y57371704D01*
X16582674Y57382912D01*
X16588583Y57395361D01*
X16593470Y57407507D01*
X16597429Y57420289D01*
X16600558Y57434645D01*
X16602952Y57451513D01*
X16604709Y57471834D01*
X16605923Y57496545D01*
X16606692Y57526586D01*
X16607111Y57562894D01*
X16607277Y57606409D01*
X16607293Y57623075D01*
X16607366Y57780766D01*
X16484981Y57780766D01*
X16483732Y57620958D01*
G37*
X16483732Y57620958D02*
X16483400Y57578546D01*
X16483043Y57543708D01*
X16482531Y57515557D01*
X16481730Y57493200D01*
X16480511Y57475747D01*
X16478742Y57462309D01*
X16476291Y57451994D01*
X16473026Y57443912D01*
X16468817Y57437174D01*
X16463532Y57430888D01*
X16457040Y57424164D01*
X16454272Y57421352D01*
X16446191Y57413379D01*
X16438561Y57406968D01*
X16430381Y57401947D01*
X16420646Y57398145D01*
X16408353Y57395393D01*
X16392500Y57393519D01*
X16372083Y57392352D01*
X16346098Y57391722D01*
X16313544Y57391458D01*
X16278225Y57391393D01*
X16150166Y57391300D01*
X16150166Y57780766D01*
X16027400Y57780766D01*
X16027415Y57538408D01*
X16027427Y57486977D01*
X16027470Y57443329D01*
X16027566Y57406779D01*
X16027740Y57376643D01*
X16028013Y57352236D01*
X16028409Y57332875D01*
X16028950Y57317875D01*
X16029659Y57306552D01*
X16030559Y57298222D01*
X16031672Y57292200D01*
X16033023Y57287802D01*
X16034633Y57284344D01*
X16035969Y57282045D01*
X16046339Y57270406D01*
X16060579Y57260790D01*
X16062412Y57259913D01*
X16067622Y57257771D01*
X16073444Y57256044D01*
X16080794Y57254690D01*
X16090585Y57253669D01*
X16103734Y57252937D01*
X16121154Y57252453D01*
X16143761Y57252176D01*
X16172470Y57252063D01*
X16208195Y57252072D01*
X16232716Y57252118D01*
X16278479Y57252323D01*
X16316461Y57252738D01*
X16347349Y57253385D01*
X16371826Y57254288D01*
X16390579Y57255469D01*
X16404291Y57256953D01*
X16411235Y57258179D01*
X16442470Y57267448D01*
X16474443Y57281205D01*
X16504981Y57298207D01*
X16531907Y57317211D01*
X16553045Y57336976D01*
X16556637Y57341222D01*
X16566323Y57354839D01*
X16576640Y57371704D01*
X16582674Y57382912D01*
X16588583Y57395361D01*
X16593470Y57407507D01*
X16597429Y57420289D01*
X16600558Y57434645D01*
X16602952Y57451513D01*
X16604709Y57471834D01*
X16605923Y57496545D01*
X16606692Y57526586D01*
X16607111Y57562894D01*
X16607277Y57606409D01*
X16607293Y57623075D01*
X16607366Y57780766D01*
X16484981Y57780766D01*
X16483732Y57620958D01*
G36*
X16785166Y57421067D02*
G01*
X16772819Y57407242D01*
X16766742Y57400828D01*
X16760990Y57396711D01*
X16753487Y57394290D01*
X16742153Y57392964D01*
X16724910Y57392133D01*
X16719902Y57391950D01*
X16679333Y57390483D01*
X16679333Y57251600D01*
X16712141Y57251827D01*
X16750507Y57255386D01*
X16776700Y57261466D01*
X16813430Y57276236D01*
X16844920Y57296892D01*
X16870548Y57322765D01*
X16889689Y57353185D01*
X16901721Y57387485D01*
X16903760Y57397866D01*
X16904517Y57406764D01*
X16905219Y57423489D01*
X16905858Y57447400D01*
X16906426Y57477858D01*
X16906915Y57514223D01*
X16907315Y57555855D01*
X16907619Y57602113D01*
X16907819Y57652359D01*
X16907905Y57705952D01*
X16907908Y57716208D01*
X16907933Y58009366D01*
X16785166Y58009366D01*
X16785166Y57421067D01*
G37*
X16785166Y57421067D02*
X16772819Y57407242D01*
X16766742Y57400828D01*
X16760990Y57396711D01*
X16753487Y57394290D01*
X16742153Y57392964D01*
X16724910Y57392133D01*
X16719902Y57391950D01*
X16679333Y57390483D01*
X16679333Y57251600D01*
X16712141Y57251827D01*
X16750507Y57255386D01*
X16776700Y57261466D01*
X16813430Y57276236D01*
X16844920Y57296892D01*
X16870548Y57322765D01*
X16889689Y57353185D01*
X16901721Y57387485D01*
X16903760Y57397866D01*
X16904517Y57406764D01*
X16905219Y57423489D01*
X16905858Y57447400D01*
X16906426Y57477858D01*
X16906915Y57514223D01*
X16907315Y57555855D01*
X16907619Y57602113D01*
X16907819Y57652359D01*
X16907905Y57705952D01*
X16907908Y57716208D01*
X16907933Y58009366D01*
X16785166Y58009366D01*
X16785166Y57421067D01*
G36*
X17291594Y57780600D02*
G01*
X17258448Y57780378D01*
X17227358Y57779955D01*
X17199642Y57779333D01*
X17176613Y57778511D01*
X17159588Y57777489D01*
X17151584Y57776596D01*
X17119742Y57767605D01*
X17090106Y57752071D01*
X17064242Y57731226D01*
X17043719Y57706303D01*
X17031382Y57682135D01*
X17025826Y57666161D01*
X17021511Y57650603D01*
X17018315Y57634146D01*
X17016115Y57615476D01*
X17014787Y57593279D01*
X17014209Y57566241D01*
X17014257Y57533048D01*
X17014631Y57503249D01*
X17015199Y57470080D01*
X17015813Y57444160D01*
X17016577Y57424273D01*
X17017593Y57409203D01*
X17018966Y57397732D01*
X17020799Y57388643D01*
X17023195Y57380721D01*
X17025562Y57374463D01*
X17044091Y57338453D01*
X17068425Y57308575D01*
X17098692Y57284711D01*
X17135019Y57266740D01*
X17144365Y57263387D01*
X17152773Y57260711D01*
X17161031Y57258579D01*
X17170221Y57256919D01*
X17181428Y57255659D01*
X17195733Y57254730D01*
X17214221Y57254059D01*
X17237975Y57253574D01*
X17268078Y57253206D01*
X17303750Y57252896D01*
X17341853Y57252652D01*
X17372569Y57252612D01*
X17396976Y57252818D01*
X17416152Y57253314D01*
X17431175Y57254142D01*
X17443123Y57255347D01*
X17453074Y57256970D01*
X17462107Y57259055D01*
X17462843Y57259249D01*
X17500648Y57273326D01*
X17533349Y57294042D01*
X17560589Y57321115D01*
X17580351Y57351083D01*
X17591616Y57372250D01*
X17591616Y57521339D01*
X17475176Y57521339D01*
X17474992Y57486062D01*
X17474306Y57458275D01*
X17472948Y57437009D01*
X17470749Y57421292D01*
X17467538Y57410157D01*
X17463146Y57402632D01*
X17457403Y57397748D01*
X17453163Y57395650D01*
X17446512Y57394665D01*
X17432349Y57393836D01*
X17411623Y57393181D01*
X17385286Y57392720D01*
X17354292Y57392474D01*
X17319590Y57392462D01*
X17302339Y57392542D01*
X17161229Y57393416D01*
X17148881Y57407242D01*
X17136533Y57421067D01*
X17136533Y57520694D01*
X17136640Y57555595D01*
X17137094Y57583064D01*
X17138094Y57604135D01*
X17139841Y57619841D01*
X17142532Y57631214D01*
X17146369Y57639289D01*
X17151549Y57645099D01*
X17158274Y57649677D01*
X17161794Y57651578D01*
X17170042Y57653600D01*
X17185444Y57655287D01*
X17206698Y57656637D01*
X17232499Y57657651D01*
X17261543Y57658328D01*
X17292526Y57658668D01*
X17324143Y57658670D01*
X17355092Y57658335D01*
X17384067Y57657662D01*
X17409765Y57656651D01*
X17430881Y57655302D01*
X17446112Y57653614D01*
X17454046Y57651643D01*
X17460335Y57647452D01*
X17465263Y57641485D01*
X17468989Y57632761D01*
X17471673Y57620296D01*
X17473474Y57603108D01*
X17474551Y57580213D01*
X17475065Y57550629D01*
X17475176Y57521339D01*
X17591616Y57521339D01*
X17591616Y57669017D01*
X17577441Y57696949D01*
X17568340Y57712991D01*
X17558326Y57727773D01*
X17549924Y57737713D01*
X17530888Y57752188D01*
X17506849Y57764888D01*
X17481272Y57774115D01*
X17470750Y57776574D01*
X17460028Y57777747D01*
X17442156Y57778721D01*
X17418451Y57779495D01*
X17390227Y57780071D01*
X17358799Y57780447D01*
X17325483Y57780623D01*
X17291594Y57780600D01*
G37*
X17291594Y57780600D02*
X17258448Y57780378D01*
X17227358Y57779955D01*
X17199642Y57779333D01*
X17176613Y57778511D01*
X17159588Y57777489D01*
X17151584Y57776596D01*
X17119742Y57767605D01*
X17090106Y57752071D01*
X17064242Y57731226D01*
X17043719Y57706303D01*
X17031382Y57682135D01*
X17025826Y57666161D01*
X17021511Y57650603D01*
X17018315Y57634146D01*
X17016115Y57615476D01*
X17014787Y57593279D01*
X17014209Y57566241D01*
X17014257Y57533048D01*
X17014631Y57503249D01*
X17015199Y57470080D01*
X17015813Y57444160D01*
X17016577Y57424273D01*
X17017593Y57409203D01*
X17018966Y57397732D01*
X17020799Y57388643D01*
X17023195Y57380721D01*
X17025562Y57374463D01*
X17044091Y57338453D01*
X17068425Y57308575D01*
X17098692Y57284711D01*
X17135019Y57266740D01*
X17144365Y57263387D01*
X17152773Y57260711D01*
X17161031Y57258579D01*
X17170221Y57256919D01*
X17181428Y57255659D01*
X17195733Y57254730D01*
X17214221Y57254059D01*
X17237975Y57253574D01*
X17268078Y57253206D01*
X17303750Y57252896D01*
X17341853Y57252652D01*
X17372569Y57252612D01*
X17396976Y57252818D01*
X17416152Y57253314D01*
X17431175Y57254142D01*
X17443123Y57255347D01*
X17453074Y57256970D01*
X17462107Y57259055D01*
X17462843Y57259249D01*
X17500648Y57273326D01*
X17533349Y57294042D01*
X17560589Y57321115D01*
X17580351Y57351083D01*
X17591616Y57372250D01*
X17591616Y57521339D01*
X17475176Y57521339D01*
X17474992Y57486062D01*
X17474306Y57458275D01*
X17472948Y57437009D01*
X17470749Y57421292D01*
X17467538Y57410157D01*
X17463146Y57402632D01*
X17457403Y57397748D01*
X17453163Y57395650D01*
X17446512Y57394665D01*
X17432349Y57393836D01*
X17411623Y57393181D01*
X17385286Y57392720D01*
X17354292Y57392474D01*
X17319590Y57392462D01*
X17302339Y57392542D01*
X17161229Y57393416D01*
X17148881Y57407242D01*
X17136533Y57421067D01*
X17136533Y57520694D01*
X17136640Y57555595D01*
X17137094Y57583064D01*
X17138094Y57604135D01*
X17139841Y57619841D01*
X17142532Y57631214D01*
X17146369Y57639289D01*
X17151549Y57645099D01*
X17158274Y57649677D01*
X17161794Y57651578D01*
X17170042Y57653600D01*
X17185444Y57655287D01*
X17206698Y57656637D01*
X17232499Y57657651D01*
X17261543Y57658328D01*
X17292526Y57658668D01*
X17324143Y57658670D01*
X17355092Y57658335D01*
X17384067Y57657662D01*
X17409765Y57656651D01*
X17430881Y57655302D01*
X17446112Y57653614D01*
X17454046Y57651643D01*
X17460335Y57647452D01*
X17465263Y57641485D01*
X17468989Y57632761D01*
X17471673Y57620296D01*
X17473474Y57603108D01*
X17474551Y57580213D01*
X17475065Y57550629D01*
X17475176Y57521339D01*
X17591616Y57521339D01*
X17591616Y57669017D01*
X17577441Y57696949D01*
X17568340Y57712991D01*
X17558326Y57727773D01*
X17549924Y57737713D01*
X17530888Y57752188D01*
X17506849Y57764888D01*
X17481272Y57774115D01*
X17470750Y57776574D01*
X17460028Y57777747D01*
X17442156Y57778721D01*
X17418451Y57779495D01*
X17390227Y57780071D01*
X17358799Y57780447D01*
X17325483Y57780623D01*
X17291594Y57780600D01*
G36*
X17754600Y57658000D02*
G01*
X17914408Y57657935D01*
X17950476Y57657841D01*
X17983936Y57657600D01*
X18013829Y57657230D01*
X18039197Y57656752D01*
X18059083Y57656182D01*
X18072530Y57655540D01*
X18078579Y57654844D01*
X18078758Y57654760D01*
X18085396Y57645732D01*
X18086624Y57633999D01*
X18084756Y57628286D01*
X18083116Y57626044D01*
X18080252Y57624252D01*
X18075257Y57622846D01*
X18067224Y57621764D01*
X18055246Y57620944D01*
X18038416Y57620324D01*
X18015828Y57619840D01*
X17986573Y57619431D01*
X17950363Y57619041D01*
X17913534Y57618644D01*
X17884116Y57618226D01*
X17861053Y57617712D01*
X17843288Y57617026D01*
X17829767Y57616092D01*
X17819434Y57614836D01*
X17811232Y57613181D01*
X17804106Y57611052D01*
X17797000Y57608374D01*
X17796079Y57608004D01*
X17767658Y57592464D01*
X17741206Y57570314D01*
X17718442Y57543410D01*
X17701088Y57513606D01*
X17695428Y57499528D01*
X17686144Y57461073D01*
X17684488Y57423235D01*
X17690088Y57386985D01*
X17702566Y57353297D01*
X17721548Y57323141D01*
X17746658Y57297492D01*
X17777522Y57277321D01*
X17782049Y57275099D01*
X17793927Y57269680D01*
X17805220Y57265167D01*
X17816820Y57261478D01*
X17829618Y57258528D01*
X17844508Y57256236D01*
X17862382Y57254519D01*
X17884131Y57253294D01*
X17910649Y57252479D01*
X17942828Y57251991D01*
X17981560Y57251748D01*
X18027737Y57251666D01*
X18035058Y57251662D01*
X18211800Y57251600D01*
X18211800Y57391300D01*
X17834382Y57391300D01*
X17822007Y57403674D01*
X17812862Y57415669D01*
X17809723Y57429018D01*
X17809649Y57432249D01*
X17812201Y57448230D01*
X17818830Y57462938D01*
X17828038Y57473778D01*
X17835960Y57477859D01*
X17842568Y57478451D01*
X17856476Y57479080D01*
X17876520Y57479713D01*
X17901534Y57480320D01*
X17930351Y57480869D01*
X17961807Y57481330D01*
X17968383Y57481409D01*
X18004115Y57481857D01*
X18032477Y57482328D01*
X18054567Y57482906D01*
X18071481Y57483673D01*
X18084317Y57484712D01*
X18094172Y57486106D01*
X18102142Y57487937D01*
X18109325Y57490290D01*
X18114933Y57492477D01*
X18145462Y57509283D01*
X18171709Y57532713D01*
X18192229Y57561414D01*
X18195742Y57568122D01*
X18202229Y57581944D01*
X18206320Y57593301D01*
X18208561Y57604965D01*
X18209498Y57619711D01*
X18209680Y57638861D01*
X18209442Y57659229D01*
X18208428Y57673678D01*
X18206178Y57684751D01*
X18202234Y57694990D01*
X18198038Y57703367D01*
X18178245Y57732570D01*
X18153033Y57755283D01*
X18131754Y57767538D01*
X18108083Y57778650D01*
X17931341Y57779923D01*
X17754600Y57781196D01*
X17754600Y57658000D01*
G37*
X17754600Y57658000D02*
X17914408Y57657935D01*
X17950476Y57657841D01*
X17983936Y57657600D01*
X18013829Y57657230D01*
X18039197Y57656752D01*
X18059083Y57656182D01*
X18072530Y57655540D01*
X18078579Y57654844D01*
X18078758Y57654760D01*
X18085396Y57645732D01*
X18086624Y57633999D01*
X18084756Y57628286D01*
X18083116Y57626044D01*
X18080252Y57624252D01*
X18075257Y57622846D01*
X18067224Y57621764D01*
X18055246Y57620944D01*
X18038416Y57620324D01*
X18015828Y57619840D01*
X17986573Y57619431D01*
X17950363Y57619041D01*
X17913534Y57618644D01*
X17884116Y57618226D01*
X17861053Y57617712D01*
X17843288Y57617026D01*
X17829767Y57616092D01*
X17819434Y57614836D01*
X17811232Y57613181D01*
X17804106Y57611052D01*
X17797000Y57608374D01*
X17796079Y57608004D01*
X17767658Y57592464D01*
X17741206Y57570314D01*
X17718442Y57543410D01*
X17701088Y57513606D01*
X17695428Y57499528D01*
X17686144Y57461073D01*
X17684488Y57423235D01*
X17690088Y57386985D01*
X17702566Y57353297D01*
X17721548Y57323141D01*
X17746658Y57297492D01*
X17777522Y57277321D01*
X17782049Y57275099D01*
X17793927Y57269680D01*
X17805220Y57265167D01*
X17816820Y57261478D01*
X17829618Y57258528D01*
X17844508Y57256236D01*
X17862382Y57254519D01*
X17884131Y57253294D01*
X17910649Y57252479D01*
X17942828Y57251991D01*
X17981560Y57251748D01*
X18027737Y57251666D01*
X18035058Y57251662D01*
X18211800Y57251600D01*
X18211800Y57391300D01*
X17834382Y57391300D01*
X17822007Y57403674D01*
X17812862Y57415669D01*
X17809723Y57429018D01*
X17809649Y57432249D01*
X17812201Y57448230D01*
X17818830Y57462938D01*
X17828038Y57473778D01*
X17835960Y57477859D01*
X17842568Y57478451D01*
X17856476Y57479080D01*
X17876520Y57479713D01*
X17901534Y57480320D01*
X17930351Y57480869D01*
X17961807Y57481330D01*
X17968383Y57481409D01*
X18004115Y57481857D01*
X18032477Y57482328D01*
X18054567Y57482906D01*
X18071481Y57483673D01*
X18084317Y57484712D01*
X18094172Y57486106D01*
X18102142Y57487937D01*
X18109325Y57490290D01*
X18114933Y57492477D01*
X18145462Y57509283D01*
X18171709Y57532713D01*
X18192229Y57561414D01*
X18195742Y57568122D01*
X18202229Y57581944D01*
X18206320Y57593301D01*
X18208561Y57604965D01*
X18209498Y57619711D01*
X18209680Y57638861D01*
X18209442Y57659229D01*
X18208428Y57673678D01*
X18206178Y57684751D01*
X18202234Y57694990D01*
X18198038Y57703367D01*
X18178245Y57732570D01*
X18153033Y57755283D01*
X18131754Y57767538D01*
X18108083Y57778650D01*
X17931341Y57779923D01*
X17754600Y57781196D01*
X17754600Y57658000D01*
G36*
X18707100Y57420086D02*
G01*
X18692706Y57405693D01*
X18685601Y57398900D01*
X18679353Y57394673D01*
X18671725Y57392403D01*
X18660479Y57391482D01*
X18643378Y57391301D01*
X18639790Y57391300D01*
X18601266Y57391300D01*
X18601266Y57251600D01*
X18634075Y57251855D01*
X18655147Y57253093D01*
X18677701Y57256072D01*
X18695141Y57259733D01*
X18732866Y57273894D01*
X18765324Y57294443D01*
X18792086Y57321031D01*
X18812721Y57353310D01*
X18814311Y57356583D01*
X18827749Y57384950D01*
X18828963Y57697158D01*
X18830176Y58009366D01*
X18707100Y58009366D01*
X18707100Y57420086D01*
G37*
X18707100Y57420086D02*
X18692706Y57405693D01*
X18685601Y57398900D01*
X18679353Y57394673D01*
X18671725Y57392403D01*
X18660479Y57391482D01*
X18643378Y57391301D01*
X18639790Y57391300D01*
X18601266Y57391300D01*
X18601266Y57251600D01*
X18634075Y57251855D01*
X18655147Y57253093D01*
X18677701Y57256072D01*
X18695141Y57259733D01*
X18732866Y57273894D01*
X18765324Y57294443D01*
X18792086Y57321031D01*
X18812721Y57353310D01*
X18814311Y57356583D01*
X18827749Y57384950D01*
X18828963Y57697158D01*
X18830176Y58009366D01*
X18707100Y58009366D01*
X18707100Y57420086D01*
G36*
X19228858Y57779899D02*
G01*
X19187136Y57779525D01*
X19152977Y57779152D01*
X19125478Y57778729D01*
X19103736Y57778202D01*
X19086848Y57777521D01*
X19073910Y57776632D01*
X19064018Y57775484D01*
X19056271Y57774024D01*
X19049764Y57772201D01*
X19043594Y57769961D01*
X19041330Y57769063D01*
X19009380Y57752680D01*
X18983881Y57731519D01*
X18968168Y57711720D01*
X18959780Y57698616D01*
X18953092Y57686554D01*
X18947913Y57674369D01*
X18944052Y57660896D01*
X18941318Y57644968D01*
X18939518Y57625421D01*
X18938462Y57601090D01*
X18937960Y57570808D01*
X18937818Y57533410D01*
X18937816Y57526766D01*
X18937857Y57491842D01*
X18938030Y57464187D01*
X18938412Y57442606D01*
X18939080Y57425902D01*
X18940111Y57412878D01*
X18941581Y57402337D01*
X18943567Y57393085D01*
X18946146Y57383922D01*
X18947189Y57380559D01*
X18962754Y57344501D01*
X18984942Y57313106D01*
X19012961Y57287218D01*
X19046021Y57267683D01*
X19057303Y57262998D01*
X19064478Y57260455D01*
X19071714Y57258416D01*
X19080032Y57256818D01*
X19090454Y57255596D01*
X19104000Y57254687D01*
X19121692Y57254026D01*
X19144552Y57253548D01*
X19173601Y57253191D01*
X19209861Y57252889D01*
X19219333Y57252821D01*
X19258044Y57252591D01*
X19289340Y57252537D01*
X19314271Y57252701D01*
X19333886Y57253126D01*
X19349237Y57253856D01*
X19361372Y57254933D01*
X19371343Y57256401D01*
X19380199Y57258301D01*
X19385174Y57259601D01*
X19422631Y57273770D01*
X19454741Y57293930D01*
X19480973Y57319456D01*
X19500791Y57349724D01*
X19513664Y57384108D01*
X19518748Y57416111D01*
X19517762Y57455844D01*
X19509474Y57492609D01*
X19494314Y57525630D01*
X19472707Y57554128D01*
X19445084Y57577327D01*
X19423274Y57589587D01*
X19399249Y57600850D01*
X19113499Y57603478D01*
X19113499Y57480200D01*
X19371599Y57480200D01*
X19384910Y57468307D01*
X19395773Y57453348D01*
X19400758Y57434826D01*
X19399488Y57415613D01*
X19393635Y57401544D01*
X19388686Y57394273D01*
X19383328Y57388426D01*
X19376629Y57383850D01*
X19367656Y57380388D01*
X19355477Y57377887D01*
X19339160Y57376191D01*
X19317772Y57375147D01*
X19290381Y57374598D01*
X19256055Y57374391D01*
X19229916Y57374366D01*
X19190544Y57374428D01*
X19158721Y57374727D01*
X19133533Y57375430D01*
X19114061Y57376707D01*
X19099391Y57378726D01*
X19088606Y57381657D01*
X19080789Y57385667D01*
X19075024Y57390926D01*
X19070395Y57397603D01*
X19066722Y57404414D01*
X19064113Y57410164D01*
X19062116Y57416659D01*
X19060650Y57425057D01*
X19059635Y57436515D01*
X19058991Y57452193D01*
X19058636Y57473249D01*
X19058492Y57500841D01*
X19058473Y57523423D01*
X19058581Y57559089D01*
X19059047Y57587354D01*
X19060089Y57609281D01*
X19061927Y57625934D01*
X19064779Y57638378D01*
X19068864Y57647675D01*
X19074401Y57654891D01*
X19081609Y57661088D01*
X19087667Y57665324D01*
X19091692Y57667894D01*
X19095872Y57669960D01*
X19101126Y57671576D01*
X19108370Y57672797D01*
X19118522Y57673679D01*
X19132501Y57674278D01*
X19151223Y57674647D01*
X19175606Y57674842D01*
X19206568Y57674919D01*
X19245026Y57674933D01*
X19392899Y57674933D01*
X19392899Y57781305D01*
X19228858Y57779899D01*
G37*
X19228858Y57779899D02*
X19187136Y57779525D01*
X19152977Y57779152D01*
X19125478Y57778729D01*
X19103736Y57778202D01*
X19086848Y57777521D01*
X19073910Y57776632D01*
X19064018Y57775484D01*
X19056271Y57774024D01*
X19049764Y57772201D01*
X19043594Y57769961D01*
X19041330Y57769063D01*
X19009380Y57752680D01*
X18983881Y57731519D01*
X18968168Y57711720D01*
X18959780Y57698616D01*
X18953092Y57686554D01*
X18947913Y57674369D01*
X18944052Y57660896D01*
X18941318Y57644968D01*
X18939518Y57625421D01*
X18938462Y57601090D01*
X18937960Y57570808D01*
X18937818Y57533410D01*
X18937816Y57526766D01*
X18937857Y57491842D01*
X18938030Y57464187D01*
X18938412Y57442606D01*
X18939080Y57425902D01*
X18940111Y57412878D01*
X18941581Y57402337D01*
X18943567Y57393085D01*
X18946146Y57383922D01*
X18947189Y57380559D01*
X18962754Y57344501D01*
X18984942Y57313106D01*
X19012961Y57287218D01*
X19046021Y57267683D01*
X19057303Y57262998D01*
X19064478Y57260455D01*
X19071714Y57258416D01*
X19080032Y57256818D01*
X19090454Y57255596D01*
X19104000Y57254687D01*
X19121692Y57254026D01*
X19144552Y57253548D01*
X19173601Y57253191D01*
X19209861Y57252889D01*
X19219333Y57252821D01*
X19258044Y57252591D01*
X19289340Y57252537D01*
X19314271Y57252701D01*
X19333886Y57253126D01*
X19349237Y57253856D01*
X19361372Y57254933D01*
X19371343Y57256401D01*
X19380199Y57258301D01*
X19385174Y57259601D01*
X19422631Y57273770D01*
X19454741Y57293930D01*
X19480973Y57319456D01*
X19500791Y57349724D01*
X19513664Y57384108D01*
X19518748Y57416111D01*
X19517762Y57455844D01*
X19509474Y57492609D01*
X19494314Y57525630D01*
X19472707Y57554128D01*
X19445084Y57577327D01*
X19423274Y57589587D01*
X19399249Y57600850D01*
X19113499Y57603478D01*
X19113499Y57480200D01*
X19371599Y57480200D01*
X19384910Y57468307D01*
X19395773Y57453348D01*
X19400758Y57434826D01*
X19399488Y57415613D01*
X19393635Y57401544D01*
X19388686Y57394273D01*
X19383328Y57388426D01*
X19376629Y57383850D01*
X19367656Y57380388D01*
X19355477Y57377887D01*
X19339160Y57376191D01*
X19317772Y57375147D01*
X19290381Y57374598D01*
X19256055Y57374391D01*
X19229916Y57374366D01*
X19190544Y57374428D01*
X19158721Y57374727D01*
X19133533Y57375430D01*
X19114061Y57376707D01*
X19099391Y57378726D01*
X19088606Y57381657D01*
X19080789Y57385667D01*
X19075024Y57390926D01*
X19070395Y57397603D01*
X19066722Y57404414D01*
X19064113Y57410164D01*
X19062116Y57416659D01*
X19060650Y57425057D01*
X19059635Y57436515D01*
X19058991Y57452193D01*
X19058636Y57473249D01*
X19058492Y57500841D01*
X19058473Y57523423D01*
X19058581Y57559089D01*
X19059047Y57587354D01*
X19060089Y57609281D01*
X19061927Y57625934D01*
X19064779Y57638378D01*
X19068864Y57647675D01*
X19074401Y57654891D01*
X19081609Y57661088D01*
X19087667Y57665324D01*
X19091692Y57667894D01*
X19095872Y57669960D01*
X19101126Y57671576D01*
X19108370Y57672797D01*
X19118522Y57673679D01*
X19132501Y57674278D01*
X19151223Y57674647D01*
X19175606Y57674842D01*
X19206568Y57674919D01*
X19245026Y57674933D01*
X19392899Y57674933D01*
X19392899Y57781305D01*
X19228858Y57779899D01*
G36*
X19591866Y57658253D02*
G01*
X19780600Y57657068D01*
X19969333Y57655883D01*
X19994033Y57628233D01*
X19994033Y57421067D01*
X19981683Y57407242D01*
X19969333Y57393416D01*
X19780600Y57392231D01*
X19591866Y57391046D01*
X19591866Y57251600D01*
X19768608Y57251833D01*
X19812586Y57251918D01*
X19849002Y57252072D01*
X19878759Y57252331D01*
X19902762Y57252733D01*
X19921914Y57253314D01*
X19937119Y57254110D01*
X19949282Y57255160D01*
X19959307Y57256499D01*
X19968097Y57258164D01*
X19976557Y57260193D01*
X19977099Y57260334D01*
X20013284Y57273772D01*
X20045598Y57293765D01*
X20072994Y57319343D01*
X20094423Y57349535D01*
X20108408Y57381957D01*
X20111053Y57391345D01*
X20113084Y57401064D01*
X20114580Y57412368D01*
X20115619Y57426514D01*
X20116281Y57444756D01*
X20116644Y57468351D01*
X20116786Y57498555D01*
X20116799Y57515740D01*
X20116669Y57552319D01*
X20116240Y57581531D01*
X20115460Y57604475D01*
X20114273Y57622247D01*
X20112627Y57635944D01*
X20110466Y57646662D01*
X20110317Y57647241D01*
X20097177Y57683724D01*
X20078301Y57715645D01*
X20054468Y57742041D01*
X20026458Y57761952D01*
X20011820Y57768897D01*
X20006028Y57771168D01*
X20000357Y57773061D01*
X19994002Y57774617D01*
X19986161Y57775874D01*
X19976028Y57776873D01*
X19962800Y57777653D01*
X19945674Y57778255D01*
X19923845Y57778717D01*
X19896510Y57779079D01*
X19862865Y57779382D01*
X19822105Y57779665D01*
X19789774Y57779867D01*
X19591866Y57781084D01*
X19591866Y57658253D01*
G37*
X19591866Y57658253D02*
X19780600Y57657068D01*
X19969333Y57655883D01*
X19994033Y57628233D01*
X19994033Y57421067D01*
X19981683Y57407242D01*
X19969333Y57393416D01*
X19780600Y57392231D01*
X19591866Y57391046D01*
X19591866Y57251600D01*
X19768608Y57251833D01*
X19812586Y57251918D01*
X19849002Y57252072D01*
X19878759Y57252331D01*
X19902762Y57252733D01*
X19921914Y57253314D01*
X19937119Y57254110D01*
X19949282Y57255160D01*
X19959307Y57256499D01*
X19968097Y57258164D01*
X19976557Y57260193D01*
X19977099Y57260334D01*
X20013284Y57273772D01*
X20045598Y57293765D01*
X20072994Y57319343D01*
X20094423Y57349535D01*
X20108408Y57381957D01*
X20111053Y57391345D01*
X20113084Y57401064D01*
X20114580Y57412368D01*
X20115619Y57426514D01*
X20116281Y57444756D01*
X20116644Y57468351D01*
X20116786Y57498555D01*
X20116799Y57515740D01*
X20116669Y57552319D01*
X20116240Y57581531D01*
X20115460Y57604475D01*
X20114273Y57622247D01*
X20112627Y57635944D01*
X20110466Y57646662D01*
X20110317Y57647241D01*
X20097177Y57683724D01*
X20078301Y57715645D01*
X20054468Y57742041D01*
X20026458Y57761952D01*
X20011820Y57768897D01*
X20006028Y57771168D01*
X20000357Y57773061D01*
X19994002Y57774617D01*
X19986161Y57775874D01*
X19976028Y57776873D01*
X19962800Y57777653D01*
X19945674Y57778255D01*
X19923845Y57778717D01*
X19896510Y57779079D01*
X19862865Y57779382D01*
X19822105Y57779665D01*
X19789774Y57779867D01*
X19591866Y57781084D01*
X19591866Y57658253D01*
G36*
X20226866Y57251600D02*
G01*
X20345399Y57251600D01*
X20345399Y57780766D01*
X20226866Y57780766D01*
X20226866Y57251600D01*
G37*
X20226866Y57251600D02*
X20345399Y57251600D01*
X20345399Y57780766D01*
X20226866Y57780766D01*
X20226866Y57251600D01*
G36*
X21255566Y57765567D02*
G01*
X21226648Y57749458D01*
X21204431Y57731100D01*
X21187209Y57708616D01*
X21173278Y57680127D01*
X21169854Y57671149D01*
X21167077Y57662663D01*
X21164903Y57653490D01*
X21163229Y57642391D01*
X21161954Y57628129D01*
X21160974Y57609466D01*
X21160187Y57585164D01*
X21159491Y57553985D01*
X21159296Y57543700D01*
X21158908Y57511733D01*
X21158920Y57481259D01*
X21159304Y57453848D01*
X21160033Y57431073D01*
X21161079Y57414505D01*
X21161624Y57409645D01*
X21170635Y57371181D01*
X21186097Y57337924D01*
X21207875Y57310156D01*
X21210894Y57307218D01*
X21230262Y57290675D01*
X21249883Y57278209D01*
X21272572Y57268308D01*
X21298440Y57260201D01*
X21308162Y57257693D01*
X21317899Y57255726D01*
X21328801Y57254237D01*
X21342021Y57253165D01*
X21358709Y57252447D01*
X21380017Y57252023D01*
X21407096Y57251830D01*
X21441099Y57251807D01*
X21454448Y57251827D01*
X21490760Y57251930D01*
X21519757Y57252139D01*
X21542594Y57252526D01*
X21560423Y57253162D01*
X21574396Y57254117D01*
X21585666Y57255462D01*
X21595386Y57257269D01*
X21604708Y57259608D01*
X21611166Y57261466D01*
X21648401Y57276591D01*
X21680298Y57298286D01*
X21706793Y57326497D01*
X21724259Y57354106D01*
X21736049Y57376483D01*
X21736049Y57494979D01*
X21619180Y57494979D01*
X21619006Y57466366D01*
X21618172Y57444257D01*
X21616521Y57427676D01*
X21613895Y57415645D01*
X21610138Y57407185D01*
X21605091Y57401321D01*
X21598598Y57397073D01*
X21597185Y57396367D01*
X21590206Y57395040D01*
X21576026Y57393918D01*
X21555912Y57393002D01*
X21531127Y57392294D01*
X21502936Y57391796D01*
X21472604Y57391509D01*
X21441395Y57391434D01*
X21410575Y57391572D01*
X21381406Y57391926D01*
X21355156Y57392497D01*
X21333086Y57393286D01*
X21316463Y57394294D01*
X21306551Y57395524D01*
X21304847Y57396031D01*
X21297652Y57399907D01*
X21292022Y57404874D01*
X21287786Y57411922D01*
X21284773Y57422042D01*
X21282811Y57436224D01*
X21281731Y57455457D01*
X21281360Y57480733D01*
X21281527Y57513042D01*
X21281729Y57529853D01*
X21283083Y57632423D01*
X21306559Y57655883D01*
X21594040Y57655883D01*
X21617516Y57632423D01*
X21618850Y57531074D01*
X21619180Y57494979D01*
X21736049Y57494979D01*
X21736049Y57668583D01*
X21721560Y57695306D01*
X21700909Y57725273D01*
X21675011Y57749328D01*
X21644901Y57766544D01*
X21639940Y57768534D01*
X21633041Y57771090D01*
X21626532Y57773174D01*
X21619504Y57774835D01*
X21611044Y57776121D01*
X21600243Y57777080D01*
X21586190Y57777759D01*
X21567973Y57778207D01*
X21544683Y57778473D01*
X21515407Y57778603D01*
X21479237Y57778646D01*
X21448183Y57778650D01*
X21283083Y57778650D01*
X21255566Y57765567D01*
G37*
X21255566Y57765567D02*
X21226648Y57749458D01*
X21204431Y57731100D01*
X21187209Y57708616D01*
X21173278Y57680127D01*
X21169854Y57671149D01*
X21167077Y57662663D01*
X21164903Y57653490D01*
X21163229Y57642391D01*
X21161954Y57628129D01*
X21160974Y57609466D01*
X21160187Y57585164D01*
X21159491Y57553985D01*
X21159296Y57543700D01*
X21158908Y57511733D01*
X21158920Y57481259D01*
X21159304Y57453848D01*
X21160033Y57431073D01*
X21161079Y57414505D01*
X21161624Y57409645D01*
X21170635Y57371181D01*
X21186097Y57337924D01*
X21207875Y57310156D01*
X21210894Y57307218D01*
X21230262Y57290675D01*
X21249883Y57278209D01*
X21272572Y57268308D01*
X21298440Y57260201D01*
X21308162Y57257693D01*
X21317899Y57255726D01*
X21328801Y57254237D01*
X21342021Y57253165D01*
X21358709Y57252447D01*
X21380017Y57252023D01*
X21407096Y57251830D01*
X21441099Y57251807D01*
X21454448Y57251827D01*
X21490760Y57251930D01*
X21519757Y57252139D01*
X21542594Y57252526D01*
X21560423Y57253162D01*
X21574396Y57254117D01*
X21585666Y57255462D01*
X21595386Y57257269D01*
X21604708Y57259608D01*
X21611166Y57261466D01*
X21648401Y57276591D01*
X21680298Y57298286D01*
X21706793Y57326497D01*
X21724259Y57354106D01*
X21736049Y57376483D01*
X21736049Y57494979D01*
X21619180Y57494979D01*
X21619006Y57466366D01*
X21618172Y57444257D01*
X21616521Y57427676D01*
X21613895Y57415645D01*
X21610138Y57407185D01*
X21605091Y57401321D01*
X21598598Y57397073D01*
X21597185Y57396367D01*
X21590206Y57395040D01*
X21576026Y57393918D01*
X21555912Y57393002D01*
X21531127Y57392294D01*
X21502936Y57391796D01*
X21472604Y57391509D01*
X21441395Y57391434D01*
X21410575Y57391572D01*
X21381406Y57391926D01*
X21355156Y57392497D01*
X21333086Y57393286D01*
X21316463Y57394294D01*
X21306551Y57395524D01*
X21304847Y57396031D01*
X21297652Y57399907D01*
X21292022Y57404874D01*
X21287786Y57411922D01*
X21284773Y57422042D01*
X21282811Y57436224D01*
X21281731Y57455457D01*
X21281360Y57480733D01*
X21281527Y57513042D01*
X21281729Y57529853D01*
X21283083Y57632423D01*
X21306559Y57655883D01*
X21594040Y57655883D01*
X21617516Y57632423D01*
X21618850Y57531074D01*
X21619180Y57494979D01*
X21736049Y57494979D01*
X21736049Y57668583D01*
X21721560Y57695306D01*
X21700909Y57725273D01*
X21675011Y57749328D01*
X21644901Y57766544D01*
X21639940Y57768534D01*
X21633041Y57771090D01*
X21626532Y57773174D01*
X21619504Y57774835D01*
X21611044Y57776121D01*
X21600243Y57777080D01*
X21586190Y57777759D01*
X21567973Y57778207D01*
X21544683Y57778473D01*
X21515407Y57778603D01*
X21479237Y57778646D01*
X21448183Y57778650D01*
X21283083Y57778650D01*
X21255566Y57765567D01*
G36*
X21920199Y57720015D02*
G01*
X21920143Y57655413D01*
X21919970Y57599054D01*
X21919679Y57550714D01*
X21919265Y57510173D01*
X21918724Y57477205D01*
X21918055Y57451589D01*
X21917252Y57433101D01*
X21916312Y57421519D01*
X21915507Y57417203D01*
X21909289Y57405826D01*
X21899110Y57398079D01*
X21883717Y57393461D01*
X21861854Y57391472D01*
X21850560Y57391300D01*
X21814366Y57391300D01*
X21814366Y57251600D01*
X21849291Y57251833D01*
X21874837Y57253361D01*
X21901396Y57257145D01*
X21915966Y57260334D01*
X21950556Y57273046D01*
X21976293Y57288070D01*
X22001182Y57307223D01*
X22020156Y57327511D01*
X22035606Y57351717D01*
X22041976Y57364478D01*
X22053549Y57389183D01*
X22054714Y57699275D01*
X22055878Y58009366D01*
X21920199Y58009366D01*
X21920199Y57720015D01*
G37*
X21920199Y57720015D02*
X21920143Y57655413D01*
X21919970Y57599054D01*
X21919679Y57550714D01*
X21919265Y57510173D01*
X21918724Y57477205D01*
X21918055Y57451589D01*
X21917252Y57433101D01*
X21916312Y57421519D01*
X21915507Y57417203D01*
X21909289Y57405826D01*
X21899110Y57398079D01*
X21883717Y57393461D01*
X21861854Y57391472D01*
X21850560Y57391300D01*
X21814366Y57391300D01*
X21814366Y57251600D01*
X21849291Y57251833D01*
X21874837Y57253361D01*
X21901396Y57257145D01*
X21915966Y57260334D01*
X21950556Y57273046D01*
X21976293Y57288070D01*
X22001182Y57307223D01*
X22020156Y57327511D01*
X22035606Y57351717D01*
X22041976Y57364478D01*
X22053549Y57389183D01*
X22054714Y57699275D01*
X22055878Y58009366D01*
X21920199Y58009366D01*
X21920199Y57720015D01*
G36*
X22384135Y57780205D02*
G01*
X22352446Y57779781D01*
X22326547Y57778885D01*
X22305546Y57777449D01*
X22288552Y57775405D01*
X22274676Y57772685D01*
X22263025Y57769221D01*
X22252709Y57764946D01*
X22249173Y57763208D01*
X22224312Y57746584D01*
X22201749Y57724163D01*
X22184029Y57698614D01*
X22180039Y57690742D01*
X22167849Y57664350D01*
X22167849Y57376483D01*
X22180064Y57350036D01*
X22197377Y57321724D01*
X22221270Y57297960D01*
X22252317Y57278180D01*
X22254234Y57277201D01*
X22268580Y57270314D01*
X22282220Y57264780D01*
X22296295Y57260456D01*
X22311944Y57257199D01*
X22330307Y57254866D01*
X22352524Y57253314D01*
X22379735Y57252400D01*
X22413079Y57251981D01*
X22453696Y57251914D01*
X22455716Y57251917D01*
X22492708Y57252041D01*
X22522371Y57252323D01*
X22545843Y57252823D01*
X22564262Y57253600D01*
X22578764Y57254715D01*
X22590488Y57256225D01*
X22600570Y57258191D01*
X22607090Y57259824D01*
X22644557Y57273858D01*
X22677091Y57294086D01*
X22704023Y57319822D01*
X22724686Y57350379D01*
X22738413Y57385074D01*
X22741402Y57397791D01*
X22742881Y57410122D01*
X22743964Y57429020D01*
X22744671Y57453075D01*
X22745019Y57480875D01*
X22745028Y57511009D01*
X22744717Y57542066D01*
X22744104Y57572636D01*
X22743207Y57601306D01*
X22742046Y57626667D01*
X22741940Y57628233D01*
X22622933Y57628233D01*
X22622933Y57420086D01*
X22608540Y57405693D01*
X22594146Y57391300D01*
X22455861Y57391300D01*
X22412538Y57391419D01*
X22377275Y57391787D01*
X22349671Y57392417D01*
X22329323Y57393321D01*
X22315830Y57394515D01*
X22308788Y57396010D01*
X22308330Y57396225D01*
X22302569Y57399545D01*
X22298066Y57403320D01*
X22294664Y57408563D01*
X22292207Y57416287D01*
X22290539Y57427507D01*
X22289504Y57443235D01*
X22288945Y57464484D01*
X22288706Y57492269D01*
X22288634Y57523917D01*
X22288499Y57633251D01*
X22301037Y57645788D01*
X22313574Y57658325D01*
X22598236Y57655883D01*
X22610585Y57642058D01*
X22622933Y57628233D01*
X22741940Y57628233D01*
X22740640Y57647306D01*
X22739006Y57661814D01*
X22737826Y57667302D01*
X22729358Y57686103D01*
X22716309Y57706989D01*
X22700842Y57726923D01*
X22685117Y57742866D01*
X22682567Y57744967D01*
X22667831Y57754931D01*
X22650159Y57764585D01*
X22640524Y57768916D01*
X22633840Y57771480D01*
X22627219Y57773556D01*
X22619696Y57775204D01*
X22610302Y57776488D01*
X22598071Y57777468D01*
X22582036Y57778207D01*
X22561228Y57778766D01*
X22534683Y57779207D01*
X22501432Y57779591D01*
X22468446Y57779908D01*
X22422505Y57780225D01*
X22384135Y57780205D01*
G37*
X22384135Y57780205D02*
X22352446Y57779781D01*
X22326547Y57778885D01*
X22305546Y57777449D01*
X22288552Y57775405D01*
X22274676Y57772685D01*
X22263025Y57769221D01*
X22252709Y57764946D01*
X22249173Y57763208D01*
X22224312Y57746584D01*
X22201749Y57724163D01*
X22184029Y57698614D01*
X22180039Y57690742D01*
X22167849Y57664350D01*
X22167849Y57376483D01*
X22180064Y57350036D01*
X22197377Y57321724D01*
X22221270Y57297960D01*
X22252317Y57278180D01*
X22254234Y57277201D01*
X22268580Y57270314D01*
X22282220Y57264780D01*
X22296295Y57260456D01*
X22311944Y57257199D01*
X22330307Y57254866D01*
X22352524Y57253314D01*
X22379735Y57252400D01*
X22413079Y57251981D01*
X22453696Y57251914D01*
X22455716Y57251917D01*
X22492708Y57252041D01*
X22522371Y57252323D01*
X22545843Y57252823D01*
X22564262Y57253600D01*
X22578764Y57254715D01*
X22590488Y57256225D01*
X22600570Y57258191D01*
X22607090Y57259824D01*
X22644557Y57273858D01*
X22677091Y57294086D01*
X22704023Y57319822D01*
X22724686Y57350379D01*
X22738413Y57385074D01*
X22741402Y57397791D01*
X22742881Y57410122D01*
X22743964Y57429020D01*
X22744671Y57453075D01*
X22745019Y57480875D01*
X22745028Y57511009D01*
X22744717Y57542066D01*
X22744104Y57572636D01*
X22743207Y57601306D01*
X22742046Y57626667D01*
X22741940Y57628233D01*
X22622933Y57628233D01*
X22622933Y57420086D01*
X22608540Y57405693D01*
X22594146Y57391300D01*
X22455861Y57391300D01*
X22412538Y57391419D01*
X22377275Y57391787D01*
X22349671Y57392417D01*
X22329323Y57393321D01*
X22315830Y57394515D01*
X22308788Y57396010D01*
X22308330Y57396225D01*
X22302569Y57399545D01*
X22298066Y57403320D01*
X22294664Y57408563D01*
X22292207Y57416287D01*
X22290539Y57427507D01*
X22289504Y57443235D01*
X22288945Y57464484D01*
X22288706Y57492269D01*
X22288634Y57523917D01*
X22288499Y57633251D01*
X22301037Y57645788D01*
X22313574Y57658325D01*
X22598236Y57655883D01*
X22610585Y57642058D01*
X22622933Y57628233D01*
X22741940Y57628233D01*
X22740640Y57647306D01*
X22739006Y57661814D01*
X22737826Y57667302D01*
X22729358Y57686103D01*
X22716309Y57706989D01*
X22700842Y57726923D01*
X22685117Y57742866D01*
X22682567Y57744967D01*
X22667831Y57754931D01*
X22650159Y57764585D01*
X22640524Y57768916D01*
X22633840Y57771480D01*
X22627219Y57773556D01*
X22619696Y57775204D01*
X22610302Y57776488D01*
X22598071Y57777468D01*
X22582036Y57778207D01*
X22561228Y57778766D01*
X22534683Y57779207D01*
X22501432Y57779591D01*
X22468446Y57779908D01*
X22422505Y57780225D01*
X22384135Y57780205D01*
G36*
X23133545Y57780066D02*
G01*
X23096193Y57779712D01*
X23065863Y57779077D01*
X23042992Y57778169D01*
X23028015Y57776994D01*
X23025099Y57776586D01*
X22986659Y57766035D01*
X22951237Y57748071D01*
X22919741Y57723482D01*
X22893081Y57693054D01*
X22872166Y57657574D01*
X22863666Y57636833D01*
X22861297Y57629852D01*
X22859339Y57623035D01*
X22857745Y57615508D01*
X22856466Y57606399D01*
X22855455Y57594836D01*
X22854665Y57579945D01*
X22854047Y57560853D01*
X22853554Y57536689D01*
X22853139Y57506578D01*
X22852753Y57469648D01*
X22852398Y57430458D01*
X22850821Y57251600D01*
X22974299Y57251600D01*
X22974299Y57411934D01*
X22974337Y57455642D01*
X22974510Y57491770D01*
X22974914Y57521203D01*
X22975641Y57544828D01*
X22976785Y57563531D01*
X22978440Y57578198D01*
X22980699Y57589715D01*
X22983656Y57598968D01*
X22987404Y57606843D01*
X22992037Y57614227D01*
X22996281Y57620156D01*
X23005977Y57630379D01*
X23019153Y57640826D01*
X23025099Y57644655D01*
X23044149Y57655883D01*
X23178558Y57657162D01*
X23312966Y57658440D01*
X23312966Y57251600D01*
X23431499Y57251600D01*
X23431499Y57747024D01*
X23417012Y57762837D01*
X23402524Y57778650D01*
X23227570Y57779902D01*
X23177482Y57780131D01*
X23133545Y57780066D01*
G37*
X23133545Y57780066D02*
X23096193Y57779712D01*
X23065863Y57779077D01*
X23042992Y57778169D01*
X23028015Y57776994D01*
X23025099Y57776586D01*
X22986659Y57766035D01*
X22951237Y57748071D01*
X22919741Y57723482D01*
X22893081Y57693054D01*
X22872166Y57657574D01*
X22863666Y57636833D01*
X22861297Y57629852D01*
X22859339Y57623035D01*
X22857745Y57615508D01*
X22856466Y57606399D01*
X22855455Y57594836D01*
X22854665Y57579945D01*
X22854047Y57560853D01*
X22853554Y57536689D01*
X22853139Y57506578D01*
X22852753Y57469648D01*
X22852398Y57430458D01*
X22850821Y57251600D01*
X22974299Y57251600D01*
X22974299Y57411934D01*
X22974337Y57455642D01*
X22974510Y57491770D01*
X22974914Y57521203D01*
X22975641Y57544828D01*
X22976785Y57563531D01*
X22978440Y57578198D01*
X22980699Y57589715D01*
X22983656Y57598968D01*
X22987404Y57606843D01*
X22992037Y57614227D01*
X22996281Y57620156D01*
X23005977Y57630379D01*
X23019153Y57640826D01*
X23025099Y57644655D01*
X23044149Y57655883D01*
X23178558Y57657162D01*
X23312966Y57658440D01*
X23312966Y57251600D01*
X23431499Y57251600D01*
X23431499Y57747024D01*
X23417012Y57762837D01*
X23402524Y57778650D01*
X23227570Y57779902D01*
X23177482Y57780131D01*
X23133545Y57780066D01*
G36*
X23828374Y57780700D02*
G01*
X23785848Y57780578D01*
X23750795Y57780171D01*
X23722225Y57779348D01*
X23699146Y57777977D01*
X23680567Y57775927D01*
X23665497Y57773066D01*
X23652944Y57769264D01*
X23641918Y57764389D01*
X23631426Y57758309D01*
X23624479Y57753688D01*
X23598873Y57731463D01*
X23579446Y57704026D01*
X23567283Y57675875D01*
X23565238Y57669477D01*
X23563537Y57662971D01*
X23562149Y57655546D01*
X23561042Y57646390D01*
X23560184Y57634692D01*
X23559543Y57619641D01*
X23559089Y57600426D01*
X23558789Y57576237D01*
X23558613Y57546261D01*
X23558527Y57509688D01*
X23558500Y57465707D01*
X23558499Y57450700D01*
X23558499Y57251600D01*
X23681266Y57251600D01*
X23681266Y57633251D01*
X23693641Y57645625D01*
X23706015Y57658000D01*
X23960666Y57658000D01*
X23960666Y57780766D01*
X23828374Y57780700D01*
G37*
X23828374Y57780700D02*
X23785848Y57780578D01*
X23750795Y57780171D01*
X23722225Y57779348D01*
X23699146Y57777977D01*
X23680567Y57775927D01*
X23665497Y57773066D01*
X23652944Y57769264D01*
X23641918Y57764389D01*
X23631426Y57758309D01*
X23624479Y57753688D01*
X23598873Y57731463D01*
X23579446Y57704026D01*
X23567283Y57675875D01*
X23565238Y57669477D01*
X23563537Y57662971D01*
X23562149Y57655546D01*
X23561042Y57646390D01*
X23560184Y57634692D01*
X23559543Y57619641D01*
X23559089Y57600426D01*
X23558789Y57576237D01*
X23558613Y57546261D01*
X23558527Y57509688D01*
X23558500Y57465707D01*
X23558499Y57450700D01*
X23558499Y57251600D01*
X23681266Y57251600D01*
X23681266Y57633251D01*
X23693641Y57645625D01*
X23706015Y57658000D01*
X23960666Y57658000D01*
X23960666Y57780766D01*
X23828374Y57780700D01*
G36*
X24015699Y57251600D02*
G01*
X24138466Y57251600D01*
X24138466Y58009366D01*
X24015699Y58009366D01*
X24015699Y57251600D01*
G37*
X24015699Y57251600D02*
X24138466Y57251600D01*
X24138466Y58009366D01*
X24015699Y58009366D01*
X24015699Y57251600D01*
G36*
X24248533Y57658253D02*
G01*
X24437266Y57657068D01*
X24626000Y57655883D01*
X24638350Y57642058D01*
X24650699Y57628233D01*
X24650699Y57421067D01*
X24638350Y57407242D01*
X24626000Y57393416D01*
X24437266Y57392231D01*
X24248533Y57391046D01*
X24248533Y57251600D01*
X24425274Y57251833D01*
X24469253Y57251918D01*
X24505669Y57252072D01*
X24535426Y57252331D01*
X24559428Y57252733D01*
X24578580Y57253314D01*
X24593786Y57254110D01*
X24605949Y57255160D01*
X24615973Y57256499D01*
X24624764Y57258164D01*
X24633223Y57260193D01*
X24633766Y57260334D01*
X24669950Y57273772D01*
X24702265Y57293765D01*
X24729660Y57319343D01*
X24751089Y57349535D01*
X24765075Y57381957D01*
X24767720Y57391345D01*
X24769751Y57401064D01*
X24771247Y57412368D01*
X24772286Y57426514D01*
X24772948Y57444756D01*
X24773310Y57468351D01*
X24773453Y57498555D01*
X24773466Y57515740D01*
X24773318Y57553856D01*
X24772760Y57584767D01*
X24771627Y57609729D01*
X24769749Y57630001D01*
X24766961Y57646839D01*
X24763094Y57661502D01*
X24757980Y57675246D01*
X24751454Y57689330D01*
X24749953Y57692320D01*
X24729717Y57723182D01*
X24703414Y57748399D01*
X24676551Y57764965D01*
X24648583Y57778650D01*
X24448558Y57779902D01*
X24248533Y57781153D01*
X24248533Y57658253D01*
G37*
X24248533Y57658253D02*
X24437266Y57657068D01*
X24626000Y57655883D01*
X24638350Y57642058D01*
X24650699Y57628233D01*
X24650699Y57421067D01*
X24638350Y57407242D01*
X24626000Y57393416D01*
X24437266Y57392231D01*
X24248533Y57391046D01*
X24248533Y57251600D01*
X24425274Y57251833D01*
X24469253Y57251918D01*
X24505669Y57252072D01*
X24535426Y57252331D01*
X24559428Y57252733D01*
X24578580Y57253314D01*
X24593786Y57254110D01*
X24605949Y57255160D01*
X24615973Y57256499D01*
X24624764Y57258164D01*
X24633223Y57260193D01*
X24633766Y57260334D01*
X24669950Y57273772D01*
X24702265Y57293765D01*
X24729660Y57319343D01*
X24751089Y57349535D01*
X24765075Y57381957D01*
X24767720Y57391345D01*
X24769751Y57401064D01*
X24771247Y57412368D01*
X24772286Y57426514D01*
X24772948Y57444756D01*
X24773310Y57468351D01*
X24773453Y57498555D01*
X24773466Y57515740D01*
X24773318Y57553856D01*
X24772760Y57584767D01*
X24771627Y57609729D01*
X24769749Y57630001D01*
X24766961Y57646839D01*
X24763094Y57661502D01*
X24757980Y57675246D01*
X24751454Y57689330D01*
X24749953Y57692320D01*
X24729717Y57723182D01*
X24703414Y57748399D01*
X24676551Y57764965D01*
X24648583Y57778650D01*
X24448558Y57779902D01*
X24248533Y57781153D01*
X24248533Y57658253D01*
G36*
X25099920Y57778622D02*
G01*
X25065528Y57778514D01*
X25037769Y57778284D01*
X25015724Y57777892D01*
X24998478Y57777298D01*
X24985113Y57776463D01*
X24974712Y57775347D01*
X24966359Y57773908D01*
X24959135Y57772108D01*
X24953708Y57770431D01*
X24921727Y57755737D01*
X24894853Y57734688D01*
X24873616Y57708050D01*
X24858541Y57676588D01*
X24850157Y57641068D01*
X24848553Y57617783D01*
X24851889Y57576518D01*
X24862546Y57539168D01*
X24880272Y57506149D01*
X24904812Y57477878D01*
X24935915Y57454768D01*
X24953383Y57445498D01*
X24983016Y57431516D01*
X25117424Y57430238D01*
X25251833Y57428960D01*
X25251833Y57552166D01*
X25127520Y57552166D01*
X25091752Y57552189D01*
X25063465Y57552301D01*
X25041670Y57552566D01*
X25025382Y57553049D01*
X25013614Y57553813D01*
X25005379Y57554924D01*
X24999691Y57556445D01*
X24995563Y57558441D01*
X24992008Y57560976D01*
X24991969Y57561007D01*
X24978225Y57576478D01*
X24970256Y57595380D01*
X24967964Y57615774D01*
X24971250Y57635722D01*
X24980014Y57653283D01*
X24994159Y57666518D01*
X24997435Y57668378D01*
X25002283Y57670280D01*
X25009271Y57671787D01*
X25019329Y57672942D01*
X25033386Y57673787D01*
X25052371Y57674366D01*
X25077213Y57674722D01*
X25108843Y57674896D01*
X25139937Y57674933D01*
X25269762Y57674933D01*
X25285778Y57658917D01*
X25292123Y57651979D01*
X25297118Y57644604D01*
X25300902Y57635750D01*
X25303611Y57624378D01*
X25305383Y57609445D01*
X25306356Y57589913D01*
X25306668Y57564740D01*
X25306457Y57532885D01*
X25306064Y57505600D01*
X25305412Y57472417D01*
X25304497Y57446580D01*
X25303072Y57426969D01*
X25300892Y57412461D01*
X25297712Y57401938D01*
X25293288Y57394278D01*
X25287373Y57388361D01*
X25279723Y57383065D01*
X25279181Y57382729D01*
X25274759Y57380288D01*
X25269631Y57378373D01*
X25262777Y57376920D01*
X25253177Y57375867D01*
X25239810Y57375149D01*
X25221656Y57374703D01*
X25197696Y57374467D01*
X25166910Y57374377D01*
X25144441Y57374366D01*
X25023233Y57374366D01*
X25023233Y57251600D01*
X25142824Y57251855D01*
X25179567Y57252007D01*
X25208984Y57252330D01*
X25232218Y57252885D01*
X25250410Y57253730D01*
X25264701Y57254927D01*
X25276232Y57256535D01*
X25286145Y57258615D01*
X25289933Y57259597D01*
X25313033Y57266714D01*
X25331584Y57274832D01*
X25349308Y57285836D01*
X25364664Y57297404D01*
X25389499Y57322276D01*
X25408585Y57352545D01*
X25418939Y57379427D01*
X25420975Y57387670D01*
X25422545Y57397224D01*
X25423689Y57409152D01*
X25424448Y57424519D01*
X25424859Y57444390D01*
X25424964Y57469830D01*
X25424801Y57501902D01*
X25424541Y57529711D01*
X25424133Y57565929D01*
X25423701Y57594761D01*
X25423166Y57617286D01*
X25422449Y57634584D01*
X25421469Y57647734D01*
X25420146Y57657817D01*
X25418401Y57665912D01*
X25416155Y57673098D01*
X25413425Y57680211D01*
X25398083Y57708170D01*
X25376230Y57733842D01*
X25349820Y57755172D01*
X25333089Y57764789D01*
X25304942Y57778650D01*
X25141862Y57778650D01*
X25099920Y57778622D01*
G37*
X25099920Y57778622D02*
X25065528Y57778514D01*
X25037769Y57778284D01*
X25015724Y57777892D01*
X24998478Y57777298D01*
X24985113Y57776463D01*
X24974712Y57775347D01*
X24966359Y57773908D01*
X24959135Y57772108D01*
X24953708Y57770431D01*
X24921727Y57755737D01*
X24894853Y57734688D01*
X24873616Y57708050D01*
X24858541Y57676588D01*
X24850157Y57641068D01*
X24848553Y57617783D01*
X24851889Y57576518D01*
X24862546Y57539168D01*
X24880272Y57506149D01*
X24904812Y57477878D01*
X24935915Y57454768D01*
X24953383Y57445498D01*
X24983016Y57431516D01*
X25117424Y57430238D01*
X25251833Y57428960D01*
X25251833Y57552166D01*
X25127520Y57552166D01*
X25091752Y57552189D01*
X25063465Y57552301D01*
X25041670Y57552566D01*
X25025382Y57553049D01*
X25013614Y57553813D01*
X25005379Y57554924D01*
X24999691Y57556445D01*
X24995563Y57558441D01*
X24992008Y57560976D01*
X24991969Y57561007D01*
X24978225Y57576478D01*
X24970256Y57595380D01*
X24967964Y57615774D01*
X24971250Y57635722D01*
X24980014Y57653283D01*
X24994159Y57666518D01*
X24997435Y57668378D01*
X25002283Y57670280D01*
X25009271Y57671787D01*
X25019329Y57672942D01*
X25033386Y57673787D01*
X25052371Y57674366D01*
X25077213Y57674722D01*
X25108843Y57674896D01*
X25139937Y57674933D01*
X25269762Y57674933D01*
X25285778Y57658917D01*
X25292123Y57651979D01*
X25297118Y57644604D01*
X25300902Y57635750D01*
X25303611Y57624378D01*
X25305383Y57609445D01*
X25306356Y57589913D01*
X25306668Y57564740D01*
X25306457Y57532885D01*
X25306064Y57505600D01*
X25305412Y57472417D01*
X25304497Y57446580D01*
X25303072Y57426969D01*
X25300892Y57412461D01*
X25297712Y57401938D01*
X25293288Y57394278D01*
X25287373Y57388361D01*
X25279723Y57383065D01*
X25279181Y57382729D01*
X25274759Y57380288D01*
X25269631Y57378373D01*
X25262777Y57376920D01*
X25253177Y57375867D01*
X25239810Y57375149D01*
X25221656Y57374703D01*
X25197696Y57374467D01*
X25166910Y57374377D01*
X25144441Y57374366D01*
X25023233Y57374366D01*
X25023233Y57251600D01*
X25142824Y57251855D01*
X25179567Y57252007D01*
X25208984Y57252330D01*
X25232218Y57252885D01*
X25250410Y57253730D01*
X25264701Y57254927D01*
X25276232Y57256535D01*
X25286145Y57258615D01*
X25289933Y57259597D01*
X25313033Y57266714D01*
X25331584Y57274832D01*
X25349308Y57285836D01*
X25364664Y57297404D01*
X25389499Y57322276D01*
X25408585Y57352545D01*
X25418939Y57379427D01*
X25420975Y57387670D01*
X25422545Y57397224D01*
X25423689Y57409152D01*
X25424448Y57424519D01*
X25424859Y57444390D01*
X25424964Y57469830D01*
X25424801Y57501902D01*
X25424541Y57529711D01*
X25424133Y57565929D01*
X25423701Y57594761D01*
X25423166Y57617286D01*
X25422449Y57634584D01*
X25421469Y57647734D01*
X25420146Y57657817D01*
X25418401Y57665912D01*
X25416155Y57673098D01*
X25413425Y57680211D01*
X25398083Y57708170D01*
X25376230Y57733842D01*
X25349820Y57755172D01*
X25333089Y57764789D01*
X25304942Y57778650D01*
X25141862Y57778650D01*
X25099920Y57778622D01*
G36*
X25446566Y57835914D02*
G01*
X25587324Y57834799D01*
X25728083Y57833683D01*
X25729170Y57542641D01*
X25730258Y57251600D01*
X25848733Y57251600D01*
X25848733Y57835800D01*
X26132366Y57835800D01*
X26132366Y57954333D01*
X25446566Y57954333D01*
X25446566Y57835914D01*
G37*
X25446566Y57835914D02*
X25587324Y57834799D01*
X25728083Y57833683D01*
X25729170Y57542641D01*
X25730258Y57251600D01*
X25848733Y57251600D01*
X25848733Y57835800D01*
X26132366Y57835800D01*
X26132366Y57954333D01*
X25446566Y57954333D01*
X25446566Y57835914D01*
G36*
X41130282Y62859235D02*
G01*
X41006568Y62859205D01*
X40883582Y62859161D01*
X40761621Y62859101D01*
X40640981Y62859026D01*
X40521959Y62858936D01*
X40404852Y62858832D01*
X40289956Y62858712D01*
X40177568Y62858577D01*
X40067984Y62858427D01*
X39961501Y62858262D01*
X39858415Y62858082D01*
X39759024Y62857887D01*
X39663624Y62857677D01*
X39572511Y62857452D01*
X39485982Y62857212D01*
X39404333Y62856957D01*
X39327862Y62856687D01*
X39256864Y62856402D01*
X39191637Y62856101D01*
X39132477Y62855786D01*
X39079681Y62855456D01*
X39033544Y62855111D01*
X38994365Y62854751D01*
X38962439Y62854375D01*
X38938063Y62853985D01*
X38921533Y62853580D01*
X38913147Y62853159D01*
X38912799Y62853120D01*
X38811986Y62836549D01*
X38714776Y62812399D01*
X38621319Y62780742D01*
X38531764Y62741646D01*
X38446258Y62695183D01*
X38364952Y62641422D01*
X38287994Y62580434D01*
X38238537Y62535174D01*
X38196396Y62492891D01*
X38159642Y62452599D01*
X38126351Y62412018D01*
X38094600Y62368868D01*
X38079141Y62346276D01*
X38027313Y62261878D01*
X37983545Y62175320D01*
X37947715Y62086234D01*
X37919695Y61994250D01*
X37899362Y61898997D01*
X37886589Y61800106D01*
X37884281Y61770683D01*
X37883927Y61761156D01*
X37883588Y61743508D01*
X37883264Y61718086D01*
X37882955Y61685235D01*
X37882660Y61645302D01*
X37882380Y61598632D01*
X37882115Y61545572D01*
X37881865Y61486468D01*
X37881629Y61421665D01*
X37881409Y61351511D01*
X37881202Y61276350D01*
X37881011Y61196529D01*
X37880835Y61112394D01*
X37880673Y61024291D01*
X37880526Y60932566D01*
X37880393Y60837565D01*
X37880276Y60739635D01*
X37880173Y60639120D01*
X37880085Y60536368D01*
X37880012Y60431724D01*
X37879953Y60325535D01*
X37879909Y60218146D01*
X37879880Y60109903D01*
X37879866Y60001153D01*
X37879867Y59892242D01*
X37879882Y59783515D01*
X37879912Y59675319D01*
X37879957Y59568000D01*
X37880016Y59461903D01*
X37880090Y59357375D01*
X37880179Y59254763D01*
X37880283Y59154411D01*
X37880402Y59056666D01*
X37880535Y58961874D01*
X37880683Y58870381D01*
X37880846Y58782534D01*
X37881024Y58698677D01*
X37881216Y58619158D01*
X37881423Y58544322D01*
X37881645Y58474516D01*
X37881881Y58410085D01*
X37882133Y58351375D01*
X37882399Y58298733D01*
X37882680Y58252504D01*
X37882975Y58213035D01*
X37883286Y58180672D01*
X37883611Y58155760D01*
X37883951Y58138647D01*
X37884281Y58130016D01*
X37893892Y58036301D01*
X37909979Y57946826D01*
X37932930Y57859951D01*
X37963133Y57774031D01*
X37975534Y57743775D01*
X38016661Y57657623D01*
X38065030Y57575297D01*
X38120141Y57497243D01*
X38181496Y57423903D01*
X38248596Y57355721D01*
X38320941Y57293142D01*
X38398033Y57236609D01*
X38479373Y57186565D01*
X38564462Y57143456D01*
X38652801Y57107724D01*
X38712176Y57088534D01*
X38754548Y57077224D01*
X38802112Y57066322D01*
X38851601Y57056535D01*
X38891828Y57049758D01*
X38895615Y57049222D01*
X38899962Y57048712D01*
X38905082Y57048227D01*
X38911184Y57047767D01*
X38918482Y57047332D01*
X38927185Y57046919D01*
X38937505Y57046529D01*
X38949653Y57046161D01*
X38963841Y57045814D01*
X38980279Y57045488D01*
X38999179Y57045181D01*
X39020751Y57044894D01*
X39045208Y57044625D01*
X39072761Y57044374D01*
X39103620Y57044140D01*
X39137997Y57043922D01*
X39176102Y57043720D01*
X39218149Y57043533D01*
X39264346Y57043360D01*
X39314906Y57043200D01*
X39370040Y57043054D01*
X39429959Y57042919D01*
X39494874Y57042796D01*
X39564997Y57042684D01*
X39640539Y57042582D01*
X39721710Y57042489D01*
X39808723Y57042405D01*
X39901787Y57042329D01*
X40001116Y57042260D01*
X40106919Y57042197D01*
X40219407Y57042141D01*
X40338794Y57042089D01*
X40465288Y57042042D01*
X40599102Y57041999D01*
X40740447Y57041959D01*
X40889533Y57041921D01*
X41046573Y57041885D01*
X41211778Y57041849D01*
X41285583Y57041834D01*
X41426261Y57041808D01*
X41564881Y57041788D01*
X41701197Y57041772D01*
X41834967Y57041762D01*
X41965948Y57041757D01*
X42093896Y57041756D01*
X42218567Y57041761D01*
X42339718Y57041770D01*
X42457106Y57041784D01*
X42570487Y57041803D01*
X42679619Y57041826D01*
X42784257Y57041853D01*
X42884157Y57041885D01*
X42979078Y57041921D01*
X43068775Y57041960D01*
X43153005Y57042004D01*
X43231524Y57042052D01*
X43304089Y57042104D01*
X43370457Y57042159D01*
X43430384Y57042218D01*
X43483628Y57042280D01*
X43529943Y57042346D01*
X43569087Y57042415D01*
X43600818Y57042488D01*
X43624890Y57042564D01*
X43641061Y57042642D01*
X43649087Y57042724D01*
X43649899Y57042751D01*
X43751816Y57054192D01*
X43850484Y57073370D01*
X43945766Y57100233D01*
X44037524Y57134725D01*
X44125619Y57176792D01*
X44209915Y57226382D01*
X44290272Y57283440D01*
X44313434Y57301878D01*
X44387840Y57367993D01*
X44455651Y57439323D01*
X44516717Y57515593D01*
X44570886Y57596525D01*
X44618007Y57681842D01*
X44657929Y57771268D01*
X44690501Y57864526D01*
X44715572Y57961339D01*
X44732991Y58061431D01*
X44734463Y58072866D01*
X44734940Y58080963D01*
X44735397Y58097189D01*
X44735835Y58121207D01*
X44736254Y58152679D01*
X44736654Y58191270D01*
X44737034Y58236641D01*
X44737395Y58288456D01*
X44737736Y58346377D01*
X44738058Y58410067D01*
X44738361Y58479188D01*
X44738644Y58553404D01*
X44738908Y58632377D01*
X44739152Y58715770D01*
X44739377Y58803246D01*
X44739583Y58894468D01*
X44739769Y58989098D01*
X44739936Y59086799D01*
X44740083Y59187234D01*
X44740211Y59290066D01*
X44740320Y59394958D01*
X44740409Y59501572D01*
X44740479Y59609571D01*
X44740530Y59718617D01*
X44740561Y59828375D01*
X44740573Y59938506D01*
X44740565Y60048673D01*
X44740538Y60158539D01*
X44740492Y60267767D01*
X44740426Y60376020D01*
X44740341Y60482960D01*
X44740236Y60588250D01*
X44740112Y60691553D01*
X44739969Y60792532D01*
X44739806Y60890849D01*
X44739624Y60986168D01*
X44739423Y61078150D01*
X44739202Y61166460D01*
X44738962Y61250759D01*
X44738702Y61330711D01*
X44738423Y61405978D01*
X44738125Y61476223D01*
X44737807Y61541108D01*
X44737470Y61600298D01*
X44737113Y61653453D01*
X44736737Y61700238D01*
X44736342Y61740314D01*
X44735927Y61773346D01*
X44735493Y61798995D01*
X44735040Y61816924D01*
X44734567Y61826796D01*
X44734463Y61827833D01*
X44718437Y61925200D01*
X43950630Y61925200D01*
X43949394Y60457291D01*
X43948158Y58989383D01*
X43938519Y58930440D01*
X43923572Y58851397D01*
X43905368Y58778412D01*
X43883274Y58709491D01*
X43856655Y58642641D01*
X43827313Y58580642D01*
X43791455Y58515061D01*
X43752584Y58454156D01*
X43709349Y58396088D01*
X43660402Y58339015D01*
X43616148Y58292761D01*
X43543237Y58225426D01*
X43466443Y58165613D01*
X43385801Y58113339D01*
X43301342Y58068621D01*
X43213101Y58031473D01*
X43121111Y58001913D01*
X43025405Y57979956D01*
X42942933Y57967490D01*
X42935049Y57967064D01*
X42919197Y57966662D01*
X42895877Y57966288D01*
X42865586Y57965943D01*
X42828824Y57965630D01*
X42786089Y57965350D01*
X42737881Y57965106D01*
X42684698Y57964901D01*
X42627038Y57964736D01*
X42565402Y57964613D01*
X42500287Y57964535D01*
X42432192Y57964504D01*
X42361617Y57964522D01*
X42289059Y57964591D01*
X42286766Y57964594D01*
X42201858Y57964708D01*
X42124983Y57964818D01*
X42055709Y57964930D01*
X41993601Y57965051D01*
X41938226Y57965187D01*
X41889151Y57965345D01*
X41845943Y57965531D01*
X41808168Y57965751D01*
X41775393Y57966012D01*
X41747184Y57966321D01*
X41723109Y57966683D01*
X41702734Y57967106D01*
X41685625Y57967596D01*
X41671349Y57968159D01*
X41659474Y57968802D01*
X41649564Y57969531D01*
X41641188Y57970352D01*
X41633912Y57971273D01*
X41627302Y57972299D01*
X41620926Y57973436D01*
X41614845Y57974597D01*
X41535808Y57993992D01*
X41460543Y58020702D01*
X41389414Y58054328D01*
X41322786Y58094470D01*
X41261022Y58140729D01*
X41204486Y58192706D01*
X41153542Y58250000D01*
X41108553Y58312214D01*
X41069884Y58378946D01*
X41037899Y58449798D01*
X41012961Y58524371D01*
X40995435Y58602264D01*
X40987298Y58663416D01*
X40986524Y58676127D01*
X40985824Y58696544D01*
X40985200Y58723909D01*
X40984649Y58757461D01*
X40984173Y58796442D01*
X40983771Y58840091D01*
X40983444Y58887650D01*
X40983190Y58938359D01*
X40983010Y58991457D01*
X40982904Y59046187D01*
X40982872Y59101788D01*
X40982913Y59157501D01*
X40983027Y59212566D01*
X40983215Y59266224D01*
X40983476Y59317715D01*
X40983811Y59366280D01*
X40984218Y59411159D01*
X40984698Y59451593D01*
X40985251Y59486822D01*
X40985877Y59516087D01*
X40986575Y59538628D01*
X40987345Y59553686D01*
X40987426Y59554745D01*
X40999358Y59653763D01*
X41019165Y59749669D01*
X41046846Y59842465D01*
X41082402Y59932151D01*
X41125833Y60018727D01*
X41177139Y60102193D01*
X41231768Y60176833D01*
X41252313Y60201321D01*
X41277696Y60229287D01*
X41306128Y60258936D01*
X41335822Y60288475D01*
X41364991Y60316109D01*
X41391847Y60340043D01*
X41406233Y60351982D01*
X41474591Y60402152D01*
X41548437Y60448045D01*
X41626118Y60488850D01*
X41705982Y60523752D01*
X41786376Y60551940D01*
X41845580Y60568079D01*
X41870338Y60573875D01*
X41892786Y60578851D01*
X41913814Y60583076D01*
X41934311Y60586618D01*
X41955166Y60589547D01*
X41977270Y60591929D01*
X42001510Y60593835D01*
X42028777Y60595332D01*
X42059960Y60596489D01*
X42095949Y60597374D01*
X42137632Y60598057D01*
X42185899Y60598605D01*
X42241640Y60599088D01*
X42248666Y60599143D01*
X42303693Y60599467D01*
X42364569Y60599643D01*
X42429195Y60599674D01*
X42495468Y60599568D01*
X42561288Y60599328D01*
X42624555Y60598959D01*
X42683166Y60598468D01*
X42725975Y60597980D01*
X42959866Y60594922D01*
X42959866Y59938765D01*
X42533358Y59940324D01*
X42463430Y59940572D01*
X42401439Y59940769D01*
X42346854Y59940910D01*
X42299146Y59940986D01*
X42257785Y59940991D01*
X42222240Y59940918D01*
X42191981Y59940760D01*
X42166479Y59940511D01*
X42145203Y59940164D01*
X42127624Y59939711D01*
X42113211Y59939146D01*
X42101434Y59938462D01*
X42091764Y59937652D01*
X42083670Y59936709D01*
X42076623Y59935627D01*
X42070092Y59934398D01*
X42069702Y59934319D01*
X42004504Y59916870D01*
X41942544Y59891919D01*
X41884476Y59859875D01*
X41830951Y59821147D01*
X41782623Y59776141D01*
X41744291Y59730846D01*
X41721318Y59696573D01*
X41699242Y59656586D01*
X41679374Y59613628D01*
X41663022Y59570443D01*
X41655008Y59543950D01*
X41641367Y59493150D01*
X41639907Y59148133D01*
X41639641Y59083691D01*
X41639441Y59027130D01*
X41639334Y58977864D01*
X41639347Y58935306D01*
X41639507Y58898872D01*
X41639842Y58867975D01*
X41640378Y58842029D01*
X41641142Y58820449D01*
X41642162Y58802648D01*
X41643464Y58788041D01*
X41645077Y58776042D01*
X41647026Y58766065D01*
X41649339Y58757525D01*
X41652043Y58749834D01*
X41655165Y58742408D01*
X41658732Y58734661D01*
X41659055Y58733973D01*
X41670672Y58714437D01*
X41687137Y58693431D01*
X41706199Y58673374D01*
X41725607Y58656688D01*
X41739314Y58647690D01*
X41746202Y58643893D01*
X41752400Y58640487D01*
X41758382Y58637449D01*
X41764619Y58634759D01*
X41771582Y58632396D01*
X41779745Y58630336D01*
X41789578Y58628560D01*
X41801554Y58627046D01*
X41816144Y58625772D01*
X41833820Y58624717D01*
X41855054Y58623859D01*
X41880319Y58623177D01*
X41910085Y58622649D01*
X41944825Y58622255D01*
X41985011Y58621972D01*
X42031114Y58621779D01*
X42083607Y58621655D01*
X42142960Y58621578D01*
X42209647Y58621527D01*
X42284139Y58621480D01*
X42316399Y58621457D01*
X42394216Y58621393D01*
X42464062Y58621335D01*
X42526435Y58621307D01*
X42581832Y58621329D01*
X42630750Y58621425D01*
X42673685Y58621616D01*
X42711134Y58621924D01*
X42743594Y58622371D01*
X42771562Y58622980D01*
X42795535Y58623772D01*
X42816009Y58624769D01*
X42833481Y58625994D01*
X42848448Y58627468D01*
X42861406Y58629213D01*
X42872854Y58631252D01*
X42883286Y58633607D01*
X42893201Y58636300D01*
X42903095Y58639352D01*
X42913465Y58642785D01*
X42924807Y58646623D01*
X42931092Y58648731D01*
X42991382Y58673202D01*
X43047841Y58704907D01*
X43099899Y58743268D01*
X43146987Y58787707D01*
X43188534Y58837643D01*
X43223972Y58892500D01*
X43252732Y58951699D01*
X43266790Y58989811D01*
X43269062Y58996518D01*
X43271192Y59002462D01*
X43273185Y59007917D01*
X43275046Y59013160D01*
X43276779Y59018465D01*
X43278390Y59024107D01*
X43279882Y59030362D01*
X43281262Y59037505D01*
X43282533Y59045811D01*
X43283701Y59055555D01*
X43284769Y59067013D01*
X43285744Y59080460D01*
X43286629Y59096170D01*
X43287430Y59114420D01*
X43288151Y59135484D01*
X43288797Y59159638D01*
X43289373Y59187156D01*
X43289883Y59218315D01*
X43290333Y59253388D01*
X43290727Y59292653D01*
X43291069Y59336382D01*
X43291366Y59384853D01*
X43291620Y59438340D01*
X43291838Y59497118D01*
X43292024Y59561463D01*
X43292182Y59631649D01*
X43292318Y59707953D01*
X43292436Y59790648D01*
X43292542Y59880011D01*
X43292639Y59976316D01*
X43292732Y60079840D01*
X43292827Y60190856D01*
X43292928Y60309640D01*
X43293040Y60436468D01*
X43293106Y60508091D01*
X43294446Y61925200D01*
X41639095Y61925200D01*
X41636949Y60705214D01*
X41571333Y60676847D01*
X41478945Y60632458D01*
X41390626Y60581067D01*
X41306884Y60523099D01*
X41228228Y60458981D01*
X41155168Y60389139D01*
X41088213Y60313998D01*
X41027870Y60233984D01*
X41009552Y60206670D01*
X40999208Y60191180D01*
X40990385Y60178716D01*
X40984167Y60170769D01*
X40981841Y60168665D01*
X40981532Y60172804D01*
X40981231Y60185015D01*
X40980939Y60204907D01*
X40980659Y60232086D01*
X40980391Y60266158D01*
X40980347Y60273292D01*
X40815298Y60273292D01*
X40815296Y60265733D01*
X40814768Y60224296D01*
X40813050Y60189098D01*
X40809801Y60157956D01*
X40804681Y60128687D01*
X40797348Y60099105D01*
X40787460Y60067028D01*
X40781529Y60049593D01*
X40757197Y59988556D01*
X40728189Y59932712D01*
X40693460Y59880416D01*
X40651968Y59830024D01*
X40623246Y59799870D01*
X40569050Y59750486D01*
X40512724Y59708878D01*
X40453283Y59674431D01*
X40389741Y59646532D01*
X40360958Y59636410D01*
X40304853Y59621330D01*
X40244215Y59610939D01*
X40181713Y59605478D01*
X40120020Y59605188D01*
X40065631Y59609780D01*
X40000250Y59622398D01*
X39934527Y59642396D01*
X39870403Y59669002D01*
X39809818Y59701443D01*
X39770488Y59727257D01*
X39752095Y59741527D01*
X39730154Y59760306D01*
X39706506Y59781849D01*
X39682991Y59804410D01*
X39661448Y59826244D01*
X39643718Y59845605D01*
X39636138Y59854720D01*
X39621414Y59873390D01*
X39592015Y59855917D01*
X39538066Y59818994D01*
X39489078Y59775573D01*
X39445653Y59726412D01*
X39408393Y59672272D01*
X39377902Y59613912D01*
X39357188Y59559796D01*
X39353895Y59549726D01*
X39350882Y59540676D01*
X39348136Y59532252D01*
X39345644Y59524060D01*
X39343392Y59515705D01*
X39341369Y59506792D01*
X39339560Y59496926D01*
X39337954Y59485713D01*
X39336536Y59472759D01*
X39335293Y59457668D01*
X39334213Y59440046D01*
X39333283Y59419498D01*
X39332489Y59395630D01*
X39331819Y59368048D01*
X39331259Y59336355D01*
X39330797Y59300159D01*
X39330419Y59259064D01*
X39330113Y59212675D01*
X39329864Y59160599D01*
X39329661Y59102439D01*
X39329491Y59037803D01*
X39329339Y58966294D01*
X39329194Y58887519D01*
X39329041Y58801082D01*
X39328869Y58706590D01*
X39328861Y58702549D01*
X39327441Y57954281D01*
X39000529Y57955365D01*
X38673616Y57956450D01*
X38672352Y58705750D01*
X38672189Y58819034D01*
X38672096Y58923891D01*
X38672074Y59020359D01*
X38672123Y59108478D01*
X38672243Y59188286D01*
X38672435Y59259823D01*
X38672697Y59323127D01*
X38673031Y59378237D01*
X38673437Y59425192D01*
X38673915Y59464032D01*
X38674464Y59494794D01*
X38675086Y59517519D01*
X38675678Y59530658D01*
X38683698Y59617966D01*
X38697076Y59700138D01*
X38716272Y59778944D01*
X38741746Y59856152D01*
X38773955Y59933533D01*
X38787910Y59963050D01*
X38821103Y60026729D01*
X38856301Y60085102D01*
X38894872Y60140071D01*
X38938186Y60193538D01*
X38987611Y60247406D01*
X39005817Y60265916D01*
X39060655Y60318127D01*
X39114623Y60363739D01*
X39169655Y60404144D01*
X39227685Y60440733D01*
X39290644Y60474897D01*
X39308616Y60483826D01*
X39356549Y60506296D01*
X39400752Y60524862D01*
X39444281Y60540684D01*
X39490195Y60554919D01*
X39512479Y60561125D01*
X39568176Y60576179D01*
X39601379Y60627257D01*
X39626144Y60661859D01*
X39655916Y60697796D01*
X39688842Y60733152D01*
X39723072Y60766015D01*
X39756756Y60794472D01*
X39778563Y60810437D01*
X39843484Y60849562D01*
X39910918Y60880819D01*
X39980299Y60904206D01*
X40051063Y60919717D01*
X40122645Y60927350D01*
X40194480Y60927099D01*
X40266002Y60918962D01*
X40336646Y60902934D01*
X40405848Y60879012D01*
X40473041Y60847191D01*
X40525699Y60815563D01*
X40551320Y60796746D01*
X40579929Y60772616D01*
X40609799Y60744894D01*
X40639201Y60715299D01*
X40666408Y60685550D01*
X40689692Y60657368D01*
X40702903Y60639238D01*
X40740633Y60576119D01*
X40771751Y60508153D01*
X40795889Y60436218D01*
X40806089Y60395124D01*
X40809420Y60378651D01*
X40811862Y60363024D01*
X40813545Y60346459D01*
X40814594Y60327171D01*
X40815136Y60303377D01*
X40815298Y60273292D01*
X40980347Y60273292D01*
X40980137Y60306731D01*
X40979898Y60353410D01*
X40979676Y60405804D01*
X40979472Y60463517D01*
X40979288Y60526158D01*
X40979125Y60593333D01*
X40978984Y60664649D01*
X40978868Y60739712D01*
X40978776Y60818129D01*
X40978711Y60899507D01*
X40978674Y60983452D01*
X40978666Y61046783D01*
X40978666Y61908267D01*
X39327666Y61908267D01*
X39327666Y60701698D01*
X39309674Y60694617D01*
X39292994Y60687423D01*
X39270671Y60676891D01*
X39244403Y60663904D01*
X39215888Y60649346D01*
X39186824Y60634099D01*
X39158907Y60619047D01*
X39133837Y60605071D01*
X39113310Y60593056D01*
X39107533Y60589489D01*
X39028656Y60535669D01*
X38952686Y60475549D01*
X38880757Y60410222D01*
X38814005Y60340778D01*
X38753565Y60268309D01*
X38708275Y60205556D01*
X38696583Y60188538D01*
X38686349Y60174408D01*
X38678574Y60164497D01*
X38674266Y60160140D01*
X38673974Y60160047D01*
X38673454Y60164206D01*
X38673006Y60176511D01*
X38672633Y60196644D01*
X38672333Y60224283D01*
X38672109Y60259110D01*
X38671960Y60300804D01*
X38671887Y60349047D01*
X38671891Y60403518D01*
X38671972Y60463898D01*
X38672131Y60529866D01*
X38672369Y60601103D01*
X38672685Y60677290D01*
X38672916Y60725752D01*
X38673279Y60801290D01*
X38673629Y60879017D01*
X38673962Y60958014D01*
X38674275Y61037362D01*
X38674566Y61116142D01*
X38674832Y61193435D01*
X38675069Y61268321D01*
X38675275Y61339882D01*
X38675446Y61407199D01*
X38675580Y61469352D01*
X38675674Y61525423D01*
X38675724Y61574492D01*
X38675733Y61599935D01*
X38675733Y61908267D01*
X39327666Y61908267D01*
X40978666Y61908267D01*
X40978666Y61925200D01*
X41639095Y61925200D01*
X43294446Y61925200D01*
X43950630Y61925200D01*
X44718437Y61925200D01*
X44717902Y61928446D01*
X44693679Y62025753D01*
X44661907Y62119516D01*
X44622700Y62209498D01*
X44576173Y62295464D01*
X44522439Y62377174D01*
X44461614Y62454394D01*
X44401045Y62519712D01*
X44328060Y62586808D01*
X44250372Y62646916D01*
X44168216Y62699919D01*
X44081830Y62745705D01*
X43991451Y62784158D01*
X43897316Y62815165D01*
X43799661Y62838612D01*
X43709166Y62853130D01*
X43701526Y62853551D01*
X43685717Y62853958D01*
X43662034Y62854349D01*
X43630774Y62854726D01*
X43592234Y62855087D01*
X43546711Y62855434D01*
X43494501Y62855765D01*
X43435901Y62856082D01*
X43371207Y62856383D01*
X43300716Y62856669D01*
X43224725Y62856940D01*
X43143529Y62857196D01*
X43057427Y62857438D01*
X42966714Y62857664D01*
X42871687Y62857875D01*
X42772642Y62858071D01*
X42669877Y62858252D01*
X42563687Y62858417D01*
X42454369Y62858568D01*
X42342221Y62858704D01*
X42227538Y62858825D01*
X42110618Y62858931D01*
X41991756Y62859021D01*
X41871249Y62859097D01*
X41749395Y62859157D01*
X41626489Y62859203D01*
X41502828Y62859233D01*
X41378709Y62859249D01*
X41254428Y62859249D01*
X41130282Y62859235D01*
G37*
X41130282Y62859235D02*
X41006568Y62859205D01*
X40883582Y62859161D01*
X40761621Y62859101D01*
X40640981Y62859026D01*
X40521959Y62858936D01*
X40404852Y62858832D01*
X40289956Y62858712D01*
X40177568Y62858577D01*
X40067984Y62858427D01*
X39961501Y62858262D01*
X39858415Y62858082D01*
X39759024Y62857887D01*
X39663624Y62857677D01*
X39572511Y62857452D01*
X39485982Y62857212D01*
X39404333Y62856957D01*
X39327862Y62856687D01*
X39256864Y62856402D01*
X39191637Y62856101D01*
X39132477Y62855786D01*
X39079681Y62855456D01*
X39033544Y62855111D01*
X38994365Y62854751D01*
X38962439Y62854375D01*
X38938063Y62853985D01*
X38921533Y62853580D01*
X38913147Y62853159D01*
X38912799Y62853120D01*
X38811986Y62836549D01*
X38714776Y62812399D01*
X38621319Y62780742D01*
X38531764Y62741646D01*
X38446258Y62695183D01*
X38364952Y62641422D01*
X38287994Y62580434D01*
X38238537Y62535174D01*
X38196396Y62492891D01*
X38159642Y62452599D01*
X38126351Y62412018D01*
X38094600Y62368868D01*
X38079141Y62346276D01*
X38027313Y62261878D01*
X37983545Y62175320D01*
X37947715Y62086234D01*
X37919695Y61994250D01*
X37899362Y61898997D01*
X37886589Y61800106D01*
X37884281Y61770683D01*
X37883927Y61761156D01*
X37883588Y61743508D01*
X37883264Y61718086D01*
X37882955Y61685235D01*
X37882660Y61645302D01*
X37882380Y61598632D01*
X37882115Y61545572D01*
X37881865Y61486468D01*
X37881629Y61421665D01*
X37881409Y61351511D01*
X37881202Y61276350D01*
X37881011Y61196529D01*
X37880835Y61112394D01*
X37880673Y61024291D01*
X37880526Y60932566D01*
X37880393Y60837565D01*
X37880276Y60739635D01*
X37880173Y60639120D01*
X37880085Y60536368D01*
X37880012Y60431724D01*
X37879953Y60325535D01*
X37879909Y60218146D01*
X37879880Y60109903D01*
X37879866Y60001153D01*
X37879867Y59892242D01*
X37879882Y59783515D01*
X37879912Y59675319D01*
X37879957Y59568000D01*
X37880016Y59461903D01*
X37880090Y59357375D01*
X37880179Y59254763D01*
X37880283Y59154411D01*
X37880402Y59056666D01*
X37880535Y58961874D01*
X37880683Y58870381D01*
X37880846Y58782534D01*
X37881024Y58698677D01*
X37881216Y58619158D01*
X37881423Y58544322D01*
X37881645Y58474516D01*
X37881881Y58410085D01*
X37882133Y58351375D01*
X37882399Y58298733D01*
X37882680Y58252504D01*
X37882975Y58213035D01*
X37883286Y58180672D01*
X37883611Y58155760D01*
X37883951Y58138647D01*
X37884281Y58130016D01*
X37893892Y58036301D01*
X37909979Y57946826D01*
X37932930Y57859951D01*
X37963133Y57774031D01*
X37975534Y57743775D01*
X38016661Y57657623D01*
X38065030Y57575297D01*
X38120141Y57497243D01*
X38181496Y57423903D01*
X38248596Y57355721D01*
X38320941Y57293142D01*
X38398033Y57236609D01*
X38479373Y57186565D01*
X38564462Y57143456D01*
X38652801Y57107724D01*
X38712176Y57088534D01*
X38754548Y57077224D01*
X38802112Y57066322D01*
X38851601Y57056535D01*
X38891828Y57049758D01*
X38895615Y57049222D01*
X38899962Y57048712D01*
X38905082Y57048227D01*
X38911184Y57047767D01*
X38918482Y57047332D01*
X38927185Y57046919D01*
X38937505Y57046529D01*
X38949653Y57046161D01*
X38963841Y57045814D01*
X38980279Y57045488D01*
X38999179Y57045181D01*
X39020751Y57044894D01*
X39045208Y57044625D01*
X39072761Y57044374D01*
X39103620Y57044140D01*
X39137997Y57043922D01*
X39176102Y57043720D01*
X39218149Y57043533D01*
X39264346Y57043360D01*
X39314906Y57043200D01*
X39370040Y57043054D01*
X39429959Y57042919D01*
X39494874Y57042796D01*
X39564997Y57042684D01*
X39640539Y57042582D01*
X39721710Y57042489D01*
X39808723Y57042405D01*
X39901787Y57042329D01*
X40001116Y57042260D01*
X40106919Y57042197D01*
X40219407Y57042141D01*
X40338794Y57042089D01*
X40465288Y57042042D01*
X40599102Y57041999D01*
X40740447Y57041959D01*
X40889533Y57041921D01*
X41046573Y57041885D01*
X41211778Y57041849D01*
X41285583Y57041834D01*
X41426261Y57041808D01*
X41564881Y57041788D01*
X41701197Y57041772D01*
X41834967Y57041762D01*
X41965948Y57041757D01*
X42093896Y57041756D01*
X42218567Y57041761D01*
X42339718Y57041770D01*
X42457106Y57041784D01*
X42570487Y57041803D01*
X42679619Y57041826D01*
X42784257Y57041853D01*
X42884157Y57041885D01*
X42979078Y57041921D01*
X43068775Y57041960D01*
X43153005Y57042004D01*
X43231524Y57042052D01*
X43304089Y57042104D01*
X43370457Y57042159D01*
X43430384Y57042218D01*
X43483628Y57042280D01*
X43529943Y57042346D01*
X43569087Y57042415D01*
X43600818Y57042488D01*
X43624890Y57042564D01*
X43641061Y57042642D01*
X43649087Y57042724D01*
X43649899Y57042751D01*
X43751816Y57054192D01*
X43850484Y57073370D01*
X43945766Y57100233D01*
X44037524Y57134725D01*
X44125619Y57176792D01*
X44209915Y57226382D01*
X44290272Y57283440D01*
X44313434Y57301878D01*
X44387840Y57367993D01*
X44455651Y57439323D01*
X44516717Y57515593D01*
X44570886Y57596525D01*
X44618007Y57681842D01*
X44657929Y57771268D01*
X44690501Y57864526D01*
X44715572Y57961339D01*
X44732991Y58061431D01*
X44734463Y58072866D01*
X44734940Y58080963D01*
X44735397Y58097189D01*
X44735835Y58121207D01*
X44736254Y58152679D01*
X44736654Y58191270D01*
X44737034Y58236641D01*
X44737395Y58288456D01*
X44737736Y58346377D01*
X44738058Y58410067D01*
X44738361Y58479188D01*
X44738644Y58553404D01*
X44738908Y58632377D01*
X44739152Y58715770D01*
X44739377Y58803246D01*
X44739583Y58894468D01*
X44739769Y58989098D01*
X44739936Y59086799D01*
X44740083Y59187234D01*
X44740211Y59290066D01*
X44740320Y59394958D01*
X44740409Y59501572D01*
X44740479Y59609571D01*
X44740530Y59718617D01*
X44740561Y59828375D01*
X44740573Y59938506D01*
X44740565Y60048673D01*
X44740538Y60158539D01*
X44740492Y60267767D01*
X44740426Y60376020D01*
X44740341Y60482960D01*
X44740236Y60588250D01*
X44740112Y60691553D01*
X44739969Y60792532D01*
X44739806Y60890849D01*
X44739624Y60986168D01*
X44739423Y61078150D01*
X44739202Y61166460D01*
X44738962Y61250759D01*
X44738702Y61330711D01*
X44738423Y61405978D01*
X44738125Y61476223D01*
X44737807Y61541108D01*
X44737470Y61600298D01*
X44737113Y61653453D01*
X44736737Y61700238D01*
X44736342Y61740314D01*
X44735927Y61773346D01*
X44735493Y61798995D01*
X44735040Y61816924D01*
X44734567Y61826796D01*
X44734463Y61827833D01*
X44718437Y61925200D01*
X43950630Y61925200D01*
X43949394Y60457291D01*
X43948158Y58989383D01*
X43938519Y58930440D01*
X43923572Y58851397D01*
X43905368Y58778412D01*
X43883274Y58709491D01*
X43856655Y58642641D01*
X43827313Y58580642D01*
X43791455Y58515061D01*
X43752584Y58454156D01*
X43709349Y58396088D01*
X43660402Y58339015D01*
X43616148Y58292761D01*
X43543237Y58225426D01*
X43466443Y58165613D01*
X43385801Y58113339D01*
X43301342Y58068621D01*
X43213101Y58031473D01*
X43121111Y58001913D01*
X43025405Y57979956D01*
X42942933Y57967490D01*
X42935049Y57967064D01*
X42919197Y57966662D01*
X42895877Y57966288D01*
X42865586Y57965943D01*
X42828824Y57965630D01*
X42786089Y57965350D01*
X42737881Y57965106D01*
X42684698Y57964901D01*
X42627038Y57964736D01*
X42565402Y57964613D01*
X42500287Y57964535D01*
X42432192Y57964504D01*
X42361617Y57964522D01*
X42289059Y57964591D01*
X42286766Y57964594D01*
X42201858Y57964708D01*
X42124983Y57964818D01*
X42055709Y57964930D01*
X41993601Y57965051D01*
X41938226Y57965187D01*
X41889151Y57965345D01*
X41845943Y57965531D01*
X41808168Y57965751D01*
X41775393Y57966012D01*
X41747184Y57966321D01*
X41723109Y57966683D01*
X41702734Y57967106D01*
X41685625Y57967596D01*
X41671349Y57968159D01*
X41659474Y57968802D01*
X41649564Y57969531D01*
X41641188Y57970352D01*
X41633912Y57971273D01*
X41627302Y57972299D01*
X41620926Y57973436D01*
X41614845Y57974597D01*
X41535808Y57993992D01*
X41460543Y58020702D01*
X41389414Y58054328D01*
X41322786Y58094470D01*
X41261022Y58140729D01*
X41204486Y58192706D01*
X41153542Y58250000D01*
X41108553Y58312214D01*
X41069884Y58378946D01*
X41037899Y58449798D01*
X41012961Y58524371D01*
X40995435Y58602264D01*
X40987298Y58663416D01*
X40986524Y58676127D01*
X40985824Y58696544D01*
X40985200Y58723909D01*
X40984649Y58757461D01*
X40984173Y58796442D01*
X40983771Y58840091D01*
X40983444Y58887650D01*
X40983190Y58938359D01*
X40983010Y58991457D01*
X40982904Y59046187D01*
X40982872Y59101788D01*
X40982913Y59157501D01*
X40983027Y59212566D01*
X40983215Y59266224D01*
X40983476Y59317715D01*
X40983811Y59366280D01*
X40984218Y59411159D01*
X40984698Y59451593D01*
X40985251Y59486822D01*
X40985877Y59516087D01*
X40986575Y59538628D01*
X40987345Y59553686D01*
X40987426Y59554745D01*
X40999358Y59653763D01*
X41019165Y59749669D01*
X41046846Y59842465D01*
X41082402Y59932151D01*
X41125833Y60018727D01*
X41177139Y60102193D01*
X41231768Y60176833D01*
X41252313Y60201321D01*
X41277696Y60229287D01*
X41306128Y60258936D01*
X41335822Y60288475D01*
X41364991Y60316109D01*
X41391847Y60340043D01*
X41406233Y60351982D01*
X41474591Y60402152D01*
X41548437Y60448045D01*
X41626118Y60488850D01*
X41705982Y60523752D01*
X41786376Y60551940D01*
X41845580Y60568079D01*
X41870338Y60573875D01*
X41892786Y60578851D01*
X41913814Y60583076D01*
X41934311Y60586618D01*
X41955166Y60589547D01*
X41977270Y60591929D01*
X42001510Y60593835D01*
X42028777Y60595332D01*
X42059960Y60596489D01*
X42095949Y60597374D01*
X42137632Y60598057D01*
X42185899Y60598605D01*
X42241640Y60599088D01*
X42248666Y60599143D01*
X42303693Y60599467D01*
X42364569Y60599643D01*
X42429195Y60599674D01*
X42495468Y60599568D01*
X42561288Y60599328D01*
X42624555Y60598959D01*
X42683166Y60598468D01*
X42725975Y60597980D01*
X42959866Y60594922D01*
X42959866Y59938765D01*
X42533358Y59940324D01*
X42463430Y59940572D01*
X42401439Y59940769D01*
X42346854Y59940910D01*
X42299146Y59940986D01*
X42257785Y59940991D01*
X42222240Y59940918D01*
X42191981Y59940760D01*
X42166479Y59940511D01*
X42145203Y59940164D01*
X42127624Y59939711D01*
X42113211Y59939146D01*
X42101434Y59938462D01*
X42091764Y59937652D01*
X42083670Y59936709D01*
X42076623Y59935627D01*
X42070092Y59934398D01*
X42069702Y59934319D01*
X42004504Y59916870D01*
X41942544Y59891919D01*
X41884476Y59859875D01*
X41830951Y59821147D01*
X41782623Y59776141D01*
X41744291Y59730846D01*
X41721318Y59696573D01*
X41699242Y59656586D01*
X41679374Y59613628D01*
X41663022Y59570443D01*
X41655008Y59543950D01*
X41641367Y59493150D01*
X41639907Y59148133D01*
X41639641Y59083691D01*
X41639441Y59027130D01*
X41639334Y58977864D01*
X41639347Y58935306D01*
X41639507Y58898872D01*
X41639842Y58867975D01*
X41640378Y58842029D01*
X41641142Y58820449D01*
X41642162Y58802648D01*
X41643464Y58788041D01*
X41645077Y58776042D01*
X41647026Y58766065D01*
X41649339Y58757525D01*
X41652043Y58749834D01*
X41655165Y58742408D01*
X41658732Y58734661D01*
X41659055Y58733973D01*
X41670672Y58714437D01*
X41687137Y58693431D01*
X41706199Y58673374D01*
X41725607Y58656688D01*
X41739314Y58647690D01*
X41746202Y58643893D01*
X41752400Y58640487D01*
X41758382Y58637449D01*
X41764619Y58634759D01*
X41771582Y58632396D01*
X41779745Y58630336D01*
X41789578Y58628560D01*
X41801554Y58627046D01*
X41816144Y58625772D01*
X41833820Y58624717D01*
X41855054Y58623859D01*
X41880319Y58623177D01*
X41910085Y58622649D01*
X41944825Y58622255D01*
X41985011Y58621972D01*
X42031114Y58621779D01*
X42083607Y58621655D01*
X42142960Y58621578D01*
X42209647Y58621527D01*
X42284139Y58621480D01*
X42316399Y58621457D01*
X42394216Y58621393D01*
X42464062Y58621335D01*
X42526435Y58621307D01*
X42581832Y58621329D01*
X42630750Y58621425D01*
X42673685Y58621616D01*
X42711134Y58621924D01*
X42743594Y58622371D01*
X42771562Y58622980D01*
X42795535Y58623772D01*
X42816009Y58624769D01*
X42833481Y58625994D01*
X42848448Y58627468D01*
X42861406Y58629213D01*
X42872854Y58631252D01*
X42883286Y58633607D01*
X42893201Y58636300D01*
X42903095Y58639352D01*
X42913465Y58642785D01*
X42924807Y58646623D01*
X42931092Y58648731D01*
X42991382Y58673202D01*
X43047841Y58704907D01*
X43099899Y58743268D01*
X43146987Y58787707D01*
X43188534Y58837643D01*
X43223972Y58892500D01*
X43252732Y58951699D01*
X43266790Y58989811D01*
X43269062Y58996518D01*
X43271192Y59002462D01*
X43273185Y59007917D01*
X43275046Y59013160D01*
X43276779Y59018465D01*
X43278390Y59024107D01*
X43279882Y59030362D01*
X43281262Y59037505D01*
X43282533Y59045811D01*
X43283701Y59055555D01*
X43284769Y59067013D01*
X43285744Y59080460D01*
X43286629Y59096170D01*
X43287430Y59114420D01*
X43288151Y59135484D01*
X43288797Y59159638D01*
X43289373Y59187156D01*
X43289883Y59218315D01*
X43290333Y59253388D01*
X43290727Y59292653D01*
X43291069Y59336382D01*
X43291366Y59384853D01*
X43291620Y59438340D01*
X43291838Y59497118D01*
X43292024Y59561463D01*
X43292182Y59631649D01*
X43292318Y59707953D01*
X43292436Y59790648D01*
X43292542Y59880011D01*
X43292639Y59976316D01*
X43292732Y60079840D01*
X43292827Y60190856D01*
X43292928Y60309640D01*
X43293040Y60436468D01*
X43293106Y60508091D01*
X43294446Y61925200D01*
X41639095Y61925200D01*
X41636949Y60705214D01*
X41571333Y60676847D01*
X41478945Y60632458D01*
X41390626Y60581067D01*
X41306884Y60523099D01*
X41228228Y60458981D01*
X41155168Y60389139D01*
X41088213Y60313998D01*
X41027870Y60233984D01*
X41009552Y60206670D01*
X40999208Y60191180D01*
X40990385Y60178716D01*
X40984167Y60170769D01*
X40981841Y60168665D01*
X40981532Y60172804D01*
X40981231Y60185015D01*
X40980939Y60204907D01*
X40980659Y60232086D01*
X40980391Y60266158D01*
X40980347Y60273292D01*
X40815298Y60273292D01*
X40815296Y60265733D01*
X40814768Y60224296D01*
X40813050Y60189098D01*
X40809801Y60157956D01*
X40804681Y60128687D01*
X40797348Y60099105D01*
X40787460Y60067028D01*
X40781529Y60049593D01*
X40757197Y59988556D01*
X40728189Y59932712D01*
X40693460Y59880416D01*
X40651968Y59830024D01*
X40623246Y59799870D01*
X40569050Y59750486D01*
X40512724Y59708878D01*
X40453283Y59674431D01*
X40389741Y59646532D01*
X40360958Y59636410D01*
X40304853Y59621330D01*
X40244215Y59610939D01*
X40181713Y59605478D01*
X40120020Y59605188D01*
X40065631Y59609780D01*
X40000250Y59622398D01*
X39934527Y59642396D01*
X39870403Y59669002D01*
X39809818Y59701443D01*
X39770488Y59727257D01*
X39752095Y59741527D01*
X39730154Y59760306D01*
X39706506Y59781849D01*
X39682991Y59804410D01*
X39661448Y59826244D01*
X39643718Y59845605D01*
X39636138Y59854720D01*
X39621414Y59873390D01*
X39592015Y59855917D01*
X39538066Y59818994D01*
X39489078Y59775573D01*
X39445653Y59726412D01*
X39408393Y59672272D01*
X39377902Y59613912D01*
X39357188Y59559796D01*
X39353895Y59549726D01*
X39350882Y59540676D01*
X39348136Y59532252D01*
X39345644Y59524060D01*
X39343392Y59515705D01*
X39341369Y59506792D01*
X39339560Y59496926D01*
X39337954Y59485713D01*
X39336536Y59472759D01*
X39335293Y59457668D01*
X39334213Y59440046D01*
X39333283Y59419498D01*
X39332489Y59395630D01*
X39331819Y59368048D01*
X39331259Y59336355D01*
X39330797Y59300159D01*
X39330419Y59259064D01*
X39330113Y59212675D01*
X39329864Y59160599D01*
X39329661Y59102439D01*
X39329491Y59037803D01*
X39329339Y58966294D01*
X39329194Y58887519D01*
X39329041Y58801082D01*
X39328869Y58706590D01*
X39328861Y58702549D01*
X39327441Y57954281D01*
X39000529Y57955365D01*
X38673616Y57956450D01*
X38672352Y58705750D01*
X38672189Y58819034D01*
X38672096Y58923891D01*
X38672074Y59020359D01*
X38672123Y59108478D01*
X38672243Y59188286D01*
X38672435Y59259823D01*
X38672697Y59323127D01*
X38673031Y59378237D01*
X38673437Y59425192D01*
X38673915Y59464032D01*
X38674464Y59494794D01*
X38675086Y59517519D01*
X38675678Y59530658D01*
X38683698Y59617966D01*
X38697076Y59700138D01*
X38716272Y59778944D01*
X38741746Y59856152D01*
X38773955Y59933533D01*
X38787910Y59963050D01*
X38821103Y60026729D01*
X38856301Y60085102D01*
X38894872Y60140071D01*
X38938186Y60193538D01*
X38987611Y60247406D01*
X39005817Y60265916D01*
X39060655Y60318127D01*
X39114623Y60363739D01*
X39169655Y60404144D01*
X39227685Y60440733D01*
X39290644Y60474897D01*
X39308616Y60483826D01*
X39356549Y60506296D01*
X39400752Y60524862D01*
X39444281Y60540684D01*
X39490195Y60554919D01*
X39512479Y60561125D01*
X39568176Y60576179D01*
X39601379Y60627257D01*
X39626144Y60661859D01*
X39655916Y60697796D01*
X39688842Y60733152D01*
X39723072Y60766015D01*
X39756756Y60794472D01*
X39778563Y60810437D01*
X39843484Y60849562D01*
X39910918Y60880819D01*
X39980299Y60904206D01*
X40051063Y60919717D01*
X40122645Y60927350D01*
X40194480Y60927099D01*
X40266002Y60918962D01*
X40336646Y60902934D01*
X40405848Y60879012D01*
X40473041Y60847191D01*
X40525699Y60815563D01*
X40551320Y60796746D01*
X40579929Y60772616D01*
X40609799Y60744894D01*
X40639201Y60715299D01*
X40666408Y60685550D01*
X40689692Y60657368D01*
X40702903Y60639238D01*
X40740633Y60576119D01*
X40771751Y60508153D01*
X40795889Y60436218D01*
X40806089Y60395124D01*
X40809420Y60378651D01*
X40811862Y60363024D01*
X40813545Y60346459D01*
X40814594Y60327171D01*
X40815136Y60303377D01*
X40815298Y60273292D01*
X40980347Y60273292D01*
X40980137Y60306731D01*
X40979898Y60353410D01*
X40979676Y60405804D01*
X40979472Y60463517D01*
X40979288Y60526158D01*
X40979125Y60593333D01*
X40978984Y60664649D01*
X40978868Y60739712D01*
X40978776Y60818129D01*
X40978711Y60899507D01*
X40978674Y60983452D01*
X40978666Y61046783D01*
X40978666Y61908267D01*
X39327666Y61908267D01*
X39327666Y60701698D01*
X39309674Y60694617D01*
X39292994Y60687423D01*
X39270671Y60676891D01*
X39244403Y60663904D01*
X39215888Y60649346D01*
X39186824Y60634099D01*
X39158907Y60619047D01*
X39133837Y60605071D01*
X39113310Y60593056D01*
X39107533Y60589489D01*
X39028656Y60535669D01*
X38952686Y60475549D01*
X38880757Y60410222D01*
X38814005Y60340778D01*
X38753565Y60268309D01*
X38708275Y60205556D01*
X38696583Y60188538D01*
X38686349Y60174408D01*
X38678574Y60164497D01*
X38674266Y60160140D01*
X38673974Y60160047D01*
X38673454Y60164206D01*
X38673006Y60176511D01*
X38672633Y60196644D01*
X38672333Y60224283D01*
X38672109Y60259110D01*
X38671960Y60300804D01*
X38671887Y60349047D01*
X38671891Y60403518D01*
X38671972Y60463898D01*
X38672131Y60529866D01*
X38672369Y60601103D01*
X38672685Y60677290D01*
X38672916Y60725752D01*
X38673279Y60801290D01*
X38673629Y60879017D01*
X38673962Y60958014D01*
X38674275Y61037362D01*
X38674566Y61116142D01*
X38674832Y61193435D01*
X38675069Y61268321D01*
X38675275Y61339882D01*
X38675446Y61407199D01*
X38675580Y61469352D01*
X38675674Y61525423D01*
X38675724Y61574492D01*
X38675733Y61599935D01*
X38675733Y61908267D01*
X39327666Y61908267D01*
X40978666Y61908267D01*
X40978666Y61925200D01*
X41639095Y61925200D01*
X43294446Y61925200D01*
X43950630Y61925200D01*
X44718437Y61925200D01*
X44717902Y61928446D01*
X44693679Y62025753D01*
X44661907Y62119516D01*
X44622700Y62209498D01*
X44576173Y62295464D01*
X44522439Y62377174D01*
X44461614Y62454394D01*
X44401045Y62519712D01*
X44328060Y62586808D01*
X44250372Y62646916D01*
X44168216Y62699919D01*
X44081830Y62745705D01*
X43991451Y62784158D01*
X43897316Y62815165D01*
X43799661Y62838612D01*
X43709166Y62853130D01*
X43701526Y62853551D01*
X43685717Y62853958D01*
X43662034Y62854349D01*
X43630774Y62854726D01*
X43592234Y62855087D01*
X43546711Y62855434D01*
X43494501Y62855765D01*
X43435901Y62856082D01*
X43371207Y62856383D01*
X43300716Y62856669D01*
X43224725Y62856940D01*
X43143529Y62857196D01*
X43057427Y62857438D01*
X42966714Y62857664D01*
X42871687Y62857875D01*
X42772642Y62858071D01*
X42669877Y62858252D01*
X42563687Y62858417D01*
X42454369Y62858568D01*
X42342221Y62858704D01*
X42227538Y62858825D01*
X42110618Y62858931D01*
X41991756Y62859021D01*
X41871249Y62859097D01*
X41749395Y62859157D01*
X41626489Y62859203D01*
X41502828Y62859233D01*
X41378709Y62859249D01*
X41254428Y62859249D01*
X41130282Y62859235D01*
G36*
X20568843Y57767304D02*
G01*
X20537765Y57748198D01*
X20511615Y57722842D01*
X20491408Y57692498D01*
X20478162Y57658426D01*
X20476886Y57653281D01*
X20475931Y57644808D01*
X20475072Y57628439D01*
X20474319Y57604747D01*
X20473682Y57574301D01*
X20473172Y57537672D01*
X20472798Y57495433D01*
X20472571Y57448152D01*
X20472503Y57408064D01*
X20472498Y57355130D01*
X20472581Y57309920D01*
X20472816Y57271691D01*
X20473269Y57239700D01*
X20474007Y57213205D01*
X20475094Y57191462D01*
X20476597Y57173729D01*
X20478582Y57159262D01*
X20481113Y57147320D01*
X20484258Y57137159D01*
X20488080Y57128036D01*
X20492647Y57119209D01*
X20498025Y57109934D01*
X20499037Y57108238D01*
X20519407Y57081660D01*
X20546299Y57059549D01*
X20567952Y57047095D01*
X20582082Y57040385D01*
X20595604Y57035034D01*
X20609700Y57030891D01*
X20625555Y57027807D01*
X20644349Y57025632D01*
X20667267Y57024215D01*
X20695490Y57023405D01*
X20730201Y57023054D01*
X20757702Y57023000D01*
X20874566Y57023000D01*
X20874566Y57162700D01*
X20619915Y57162700D01*
X20595166Y57187449D01*
X20595166Y57628233D01*
X20619862Y57655883D01*
X20756506Y57657113D01*
X20799054Y57657384D01*
X20833682Y57657346D01*
X20860928Y57656985D01*
X20881333Y57656288D01*
X20895438Y57655241D01*
X20903782Y57653830D01*
X20905224Y57653342D01*
X20912291Y57649918D01*
X20917849Y57645520D01*
X20922077Y57639166D01*
X20925155Y57629876D01*
X20927262Y57616665D01*
X20928580Y57598554D01*
X20929288Y57574559D01*
X20929565Y57543699D01*
X20929599Y57520301D01*
X20929599Y57416049D01*
X20917225Y57403674D01*
X20904851Y57391300D01*
X20650199Y57391300D01*
X20650199Y57251600D01*
X20766408Y57251600D01*
X20805778Y57251706D01*
X20837877Y57252127D01*
X20863897Y57253013D01*
X20885033Y57254517D01*
X20902478Y57256792D01*
X20917426Y57259987D01*
X20931070Y57264257D01*
X20944603Y57269752D01*
X20957879Y57275970D01*
X20989299Y57294674D01*
X21013893Y57317255D01*
X21032855Y57344879D01*
X21037090Y57353200D01*
X21050249Y57380716D01*
X21050249Y57668583D01*
X21038484Y57692542D01*
X21019052Y57722995D01*
X20993525Y57747581D01*
X20964138Y57765295D01*
X20935949Y57778650D01*
X20593049Y57778650D01*
X20568843Y57767304D01*
G37*
X20568843Y57767304D02*
X20537765Y57748198D01*
X20511615Y57722842D01*
X20491408Y57692498D01*
X20478162Y57658426D01*
X20476886Y57653281D01*
X20475931Y57644808D01*
X20475072Y57628439D01*
X20474319Y57604747D01*
X20473682Y57574301D01*
X20473172Y57537672D01*
X20472798Y57495433D01*
X20472571Y57448152D01*
X20472503Y57408064D01*
X20472498Y57355130D01*
X20472581Y57309920D01*
X20472816Y57271691D01*
X20473269Y57239700D01*
X20474007Y57213205D01*
X20475094Y57191462D01*
X20476597Y57173729D01*
X20478582Y57159262D01*
X20481113Y57147320D01*
X20484258Y57137159D01*
X20488080Y57128036D01*
X20492647Y57119209D01*
X20498025Y57109934D01*
X20499037Y57108238D01*
X20519407Y57081660D01*
X20546299Y57059549D01*
X20567952Y57047095D01*
X20582082Y57040385D01*
X20595604Y57035034D01*
X20609700Y57030891D01*
X20625555Y57027807D01*
X20644349Y57025632D01*
X20667267Y57024215D01*
X20695490Y57023405D01*
X20730201Y57023054D01*
X20757702Y57023000D01*
X20874566Y57023000D01*
X20874566Y57162700D01*
X20619915Y57162700D01*
X20595166Y57187449D01*
X20595166Y57628233D01*
X20619862Y57655883D01*
X20756506Y57657113D01*
X20799054Y57657384D01*
X20833682Y57657346D01*
X20860928Y57656985D01*
X20881333Y57656288D01*
X20895438Y57655241D01*
X20903782Y57653830D01*
X20905224Y57653342D01*
X20912291Y57649918D01*
X20917849Y57645520D01*
X20922077Y57639166D01*
X20925155Y57629876D01*
X20927262Y57616665D01*
X20928580Y57598554D01*
X20929288Y57574559D01*
X20929565Y57543699D01*
X20929599Y57520301D01*
X20929599Y57416049D01*
X20917225Y57403674D01*
X20904851Y57391300D01*
X20650199Y57391300D01*
X20650199Y57251600D01*
X20766408Y57251600D01*
X20805778Y57251706D01*
X20837877Y57252127D01*
X20863897Y57253013D01*
X20885033Y57254517D01*
X20902478Y57256792D01*
X20917426Y57259987D01*
X20931070Y57264257D01*
X20944603Y57269752D01*
X20957879Y57275970D01*
X20989299Y57294674D01*
X21013893Y57317255D01*
X21032855Y57344879D01*
X21037090Y57353200D01*
X21050249Y57380716D01*
X21050249Y57668583D01*
X21038484Y57692542D01*
X21019052Y57722995D01*
X20993525Y57747581D01*
X20964138Y57765295D01*
X20935949Y57778650D01*
X20593049Y57778650D01*
X20568843Y57767304D01*
D11*
%TO.C,J4*%
X61509400Y49016000D02*
X62009400Y48916000D01*
X60209400Y49316000D02*
X61509400Y49016000D01*
X58709400Y49516000D02*
X60209400Y49316000D01*
X57409400Y49616000D02*
X58709400Y49516000D01*
X55609400Y49616000D02*
X57409400Y49616000D01*
X54309400Y49516000D02*
X55609400Y49616000D01*
X53509400Y49416000D02*
X54309400Y49516000D01*
X51809400Y49116000D02*
X53509400Y49416000D01*
X51009400Y48916000D02*
X51809400Y49116000D01*
X51509400Y48316000D02*
X61509400Y48316000D01*
X51009400Y49816000D02*
X51009400Y48816000D01*
X62009400Y49816000D02*
X62009400Y48816000D01*
X49599400Y49816000D02*
X63419400Y49816000D01*
X63419400Y63736000D02*
X49599400Y63736000D01*
X63419400Y61036000D02*
X63419400Y63736000D01*
X63419400Y49816000D02*
X63419400Y50216000D01*
X63419400Y52736000D02*
X63419400Y58516000D01*
X49599400Y61036000D02*
X49599400Y63736000D01*
X49599400Y52736000D02*
X49599400Y58516000D01*
X49599400Y49816000D02*
X49599400Y50216000D01*
X51509400Y48316000D02*
G75*
G02*
X51009400Y48816000I0J500000D01*
G01*
X62009400Y48816000D02*
G75*
G02*
X61509400Y48316000I-500000J0D01*
G01*
%TO.C,J1*%
D10*
X45934380Y51768333D02*
X46648666Y51768333D01*
X46791523Y51815952D01*
X46886761Y51911190D01*
X46934380Y52054047D01*
X46934380Y52149285D01*
X46934380Y50768333D02*
X46934380Y51339761D01*
X46934380Y51054047D02*
X45934380Y51054047D01*
X46077238Y51149285D01*
X46172476Y51244523D01*
X46220095Y51339761D01*
%TO.C,J4*%
X65707333Y51550819D02*
X65707333Y50836533D01*
X65754952Y50693676D01*
X65850190Y50598438D01*
X65993047Y50550819D01*
X66088285Y50550819D01*
X64802571Y51217485D02*
X64802571Y50550819D01*
X65040666Y51598438D02*
X65278761Y50884152D01*
X64659714Y50884152D01*
%TD*%
M02*
