%TF.GenerationSoftware,KiCad,Pcbnew,(5.1.6)-1*%
%TF.CreationDate,2020-12-02T12:11:42+01:00*%
%TF.ProjectId,LoRa_Dongle_Thin,4c6f5261-5f44-46f6-9e67-6c655f546869,rev?*%
%TF.SameCoordinates,Original*%
%TF.FileFunction,Other,Fab,Top*%
%FSLAX46Y46*%
G04 Gerber Fmt 4.6, Leading zero omitted, Abs format (unit mm)*
G04 Created by KiCad (PCBNEW (5.1.6)-1) date 2020-12-02 12:11:42*
%MOMM*%
%LPD*%
G01*
G04 APERTURE LIST*
%ADD10C,0.100000*%
%ADD11C,0.200000*%
%ADD12C,0.127000*%
%ADD13C,0.150000*%
%ADD14C,0.040000*%
%ADD15C,0.015000*%
%ADD16C,0.060000*%
%ADD17C,0.080000*%
%ADD18C,0.120000*%
%ADD19C,0.075000*%
G04 APERTURE END LIST*
D10*
%TO.C,C4*%
X33933377Y50422070D02*
X33226270Y51129177D01*
X34286930Y50775623D02*
X33933377Y50422070D01*
X33579823Y51482730D02*
X34286930Y50775623D01*
X33226270Y51129177D02*
X33579823Y51482730D01*
D11*
%TO.C,U2*%
X39331000Y50154202D02*
G75*
G03*
X39331000Y50154202I-100000J0D01*
G01*
D12*
X36982400Y61312347D02*
X41932147Y56362600D01*
X32032653Y56362600D02*
X36982400Y51412853D01*
X36982400Y61312347D02*
X32032653Y56362600D01*
X41932147Y56362600D02*
X36982400Y51412853D01*
D10*
%TO.C,J3*%
X78239400Y60751600D02*
X78239400Y53751600D01*
X78239400Y60751600D02*
X71239400Y60751600D01*
X71239400Y60751600D02*
X71239400Y53751600D01*
X78239400Y53751600D02*
X71239400Y53751600D01*
X90789400Y60251600D02*
X90789400Y54251600D01*
X90789400Y60251600D02*
X79359400Y60251600D01*
X90789400Y54251600D02*
X79359400Y54251600D01*
X78239400Y53351600D02*
X79359400Y53351600D01*
X79359400Y53351600D02*
X79359400Y61151600D01*
X79359400Y61151600D02*
X78239400Y61151600D01*
X78239400Y61151600D02*
X78239400Y53351600D01*
X80289400Y60251600D02*
X80989400Y54251600D01*
X81289400Y60251600D02*
X81989400Y54251600D01*
X82289400Y60251600D02*
X82989400Y54251600D01*
X83289400Y60251600D02*
X83989400Y54251600D01*
X84289400Y60251600D02*
X84989400Y54251600D01*
X85289400Y60251600D02*
X85989400Y54251600D01*
X86289400Y60251600D02*
X86989400Y54251600D01*
X87289400Y60251600D02*
X87989400Y54251600D01*
X88289400Y60251600D02*
X88989400Y54251600D01*
%TO.C,U3*%
X50349000Y64226200D02*
G75*
G03*
X50349000Y64226200I-500000J0D01*
G01*
X46999000Y65226200D02*
X64699000Y65226200D01*
X64699000Y65226200D02*
X64699000Y49226200D01*
X64699000Y49226200D02*
X46999000Y49226200D01*
X46999000Y49226200D02*
X46999000Y65226200D01*
%TO.C,C5*%
X31492557Y53375728D02*
X32623928Y52244357D01*
X30926872Y52810043D02*
X31492557Y53375728D01*
X32058243Y51678672D02*
X30926872Y52810043D01*
X32623928Y52244357D02*
X32058243Y51678672D01*
%TO.C,C6*%
X24415800Y53759000D02*
X25215800Y53759000D01*
X25215800Y53759000D02*
X25215800Y52159000D01*
X25215800Y52159000D02*
X24415800Y52159000D01*
X24415800Y52159000D02*
X24415800Y53759000D01*
%TO.C,C9*%
X29508400Y59550400D02*
X28708400Y59550400D01*
X28708400Y59550400D02*
X28708400Y61150400D01*
X28708400Y61150400D02*
X29508400Y61150400D01*
X29508400Y61150400D02*
X29508400Y59550400D01*
%TO.C,C10*%
X31007000Y61150400D02*
X31007000Y59550400D01*
X30207000Y61150400D02*
X31007000Y61150400D01*
X30207000Y59550400D02*
X30207000Y61150400D01*
X31007000Y59550400D02*
X30207000Y59550400D01*
%TO.C,D1*%
X67011600Y60632400D02*
X66011600Y61632400D01*
X69511600Y64132400D02*
X66011600Y64132400D01*
X66011600Y64132400D02*
X66011600Y60632400D01*
X66011600Y60632400D02*
X69511600Y60632400D01*
X69511600Y60632400D02*
X69511600Y64132400D01*
X69261600Y62382400D02*
G75*
G03*
X69261600Y62382400I-1500000J0D01*
G01*
%TO.C,D2*%
X26146000Y64709600D02*
X24446000Y64709600D01*
X24446000Y64709600D02*
X24146000Y64409600D01*
X24146000Y64409600D02*
X24146000Y63509600D01*
X24146000Y63509600D02*
X26146000Y63509600D01*
X26146000Y63509600D02*
X26146000Y64709600D01*
%TO.C,D3*%
X27448000Y50714200D02*
X27448000Y49514200D01*
X29448000Y50714200D02*
X27448000Y50714200D01*
X29448000Y49814200D02*
X29448000Y50714200D01*
X29148000Y49514200D02*
X29448000Y49814200D01*
X27448000Y49514200D02*
X29148000Y49514200D01*
%TO.C,L2*%
X24231800Y59100400D02*
X24231800Y61600400D01*
X24231800Y61600400D02*
X27431800Y61600400D01*
X27431800Y61600400D02*
X27431800Y59100400D01*
X27431800Y59100400D02*
X24231800Y59100400D01*
%TO.C,U1*%
X43863753Y53456767D02*
X43156647Y53456767D01*
X40761252Y51061372D02*
X43156647Y53456767D01*
X42882572Y48940052D02*
X40761252Y51061372D01*
X45631520Y51689000D02*
X42882572Y48940052D01*
X43863753Y53456767D02*
X45631520Y51689000D01*
%TO.C,U4*%
X26655600Y57364200D02*
X27305600Y56714200D01*
X27305600Y55564200D02*
X27305600Y56714200D01*
X26655600Y57364200D02*
X24205600Y57364200D01*
X24205600Y55564200D02*
X24205600Y57364200D01*
X27305600Y55564200D02*
X24205600Y55564200D01*
%TO.C,C1*%
X37519800Y64990600D02*
X38019800Y64990600D01*
X38019800Y64990600D02*
X38019800Y63990600D01*
X38019800Y63990600D02*
X37519800Y63990600D01*
X37519800Y63990600D02*
X37519800Y64990600D01*
%TO.C,C2*%
X29874400Y63990600D02*
X29874400Y64990600D01*
X30374400Y63990600D02*
X29874400Y63990600D01*
X30374400Y64990600D02*
X30374400Y63990600D01*
X29874400Y64990600D02*
X30374400Y64990600D01*
%TO.C,C3*%
X43030670Y58215777D02*
X43384223Y58569330D01*
X43384223Y58569330D02*
X44091330Y57862223D01*
X44091330Y57862223D02*
X43737777Y57508670D01*
X43737777Y57508670D02*
X43030670Y58215777D01*
%TO.C,R1*%
X37105400Y63990600D02*
X36605400Y63990600D01*
X36605400Y63990600D02*
X36605400Y64990600D01*
X36605400Y64990600D02*
X37105400Y64990600D01*
X37105400Y64990600D02*
X37105400Y63990600D01*
%TO.C,R2*%
X29434600Y63990600D02*
X28934600Y63990600D01*
X28934600Y63990600D02*
X28934600Y64990600D01*
X28934600Y64990600D02*
X29434600Y64990600D01*
X29434600Y64990600D02*
X29434600Y63990600D01*
%TO.C,R3*%
X66194800Y59051000D02*
X67194800Y59051000D01*
X66194800Y58551000D02*
X66194800Y59051000D01*
X67194800Y58551000D02*
X66194800Y58551000D01*
X67194800Y59051000D02*
X67194800Y58551000D01*
%TO.C,R4*%
X27707400Y64609600D02*
X27707400Y63609600D01*
X27207400Y64609600D02*
X27707400Y64609600D01*
X27207400Y63609600D02*
X27207400Y64609600D01*
X27707400Y63609600D02*
X27207400Y63609600D01*
%TO.C,R5*%
X26361200Y49614200D02*
X25861200Y49614200D01*
X25861200Y49614200D02*
X25861200Y50614200D01*
X25861200Y50614200D02*
X26361200Y50614200D01*
X26361200Y50614200D02*
X26361200Y49614200D01*
%TO.C,R6*%
X45665200Y54805200D02*
X45665200Y53805200D01*
X45165200Y54805200D02*
X45665200Y54805200D01*
X45165200Y53805200D02*
X45165200Y54805200D01*
X45665200Y53805200D02*
X45165200Y53805200D01*
%TO.C,R7*%
X27969400Y56116600D02*
X27969400Y57116600D01*
X28469400Y56116600D02*
X27969400Y56116600D01*
X28469400Y57116600D02*
X28469400Y56116600D01*
X27969400Y57116600D02*
X28469400Y57116600D01*
%TO.C,R8*%
X28179000Y54893400D02*
X28179000Y55393400D01*
X28179000Y55393400D02*
X29179000Y55393400D01*
X29179000Y55393400D02*
X29179000Y54893400D01*
X29179000Y54893400D02*
X28179000Y54893400D01*
%TO.C,SW1*%
X39292400Y63062800D02*
X39292400Y65562800D01*
X42292400Y63062800D02*
X39292400Y63062800D01*
X42292400Y65562800D02*
X42292400Y63062800D01*
X39292400Y65562800D02*
X42292400Y65562800D01*
X41642400Y65962800D02*
X41642400Y65562800D01*
X41242400Y66262800D02*
X41642400Y65962800D01*
X40342400Y66262800D02*
X41242400Y66262800D01*
X39942400Y65962800D02*
X40342400Y66262800D01*
X39942400Y65562800D02*
X39942400Y65962800D01*
%TO.C,SW2*%
X32220800Y65562800D02*
X32220800Y65962800D01*
X32220800Y65962800D02*
X32620800Y66262800D01*
X32620800Y66262800D02*
X33520800Y66262800D01*
X33520800Y66262800D02*
X33920800Y65962800D01*
X33920800Y65962800D02*
X33920800Y65562800D01*
X31570800Y65562800D02*
X34570800Y65562800D01*
X34570800Y65562800D02*
X34570800Y63062800D01*
X34570800Y63062800D02*
X31570800Y63062800D01*
X31570800Y63062800D02*
X31570800Y65562800D01*
%TD*%
%TO.C,C4*%
D13*
X31515071Y50899535D02*
X31111010Y51303596D01*
X31313040Y51101565D02*
X32020147Y51808672D01*
X31851788Y51775000D01*
X31717101Y51775000D01*
X31616086Y51808672D01*
X32659910Y51168909D02*
X32727254Y51101565D01*
X32760926Y51000550D01*
X32760926Y50933207D01*
X32727254Y50832191D01*
X32626239Y50663833D01*
X32457880Y50495474D01*
X32289521Y50394459D01*
X32188506Y50360787D01*
X32121162Y50360787D01*
X32020147Y50394459D01*
X31952804Y50461802D01*
X31919132Y50562817D01*
X31919132Y50630161D01*
X31952804Y50731176D01*
X32053819Y50899535D01*
X32222178Y51067894D01*
X32390536Y51168909D01*
X32491552Y51202581D01*
X32558895Y51202581D01*
X32659910Y51168909D01*
X33333346Y50495474D02*
X33400689Y50428130D01*
X33434361Y50327115D01*
X33434361Y50259772D01*
X33400689Y50158756D01*
X33299674Y49990397D01*
X33131315Y49822039D01*
X32962956Y49721023D01*
X32861941Y49687352D01*
X32794597Y49687352D01*
X32693582Y49721023D01*
X32626239Y49788367D01*
X32592567Y49889382D01*
X32592567Y49956726D01*
X32626239Y50057741D01*
X32727254Y50226100D01*
X32895613Y50394459D01*
X33063972Y50495474D01*
X33164987Y50529146D01*
X33232330Y50529146D01*
X33333346Y50495474D01*
X33636391Y49721023D02*
X33164987Y49249619D01*
X33569048Y49653680D02*
X33636391Y49653680D01*
X33737407Y49620008D01*
X33838422Y49518993D01*
X33872094Y49417978D01*
X33838422Y49316962D01*
X33468033Y48946573D01*
X34410842Y48744543D02*
X34175139Y48980245D01*
X33804750Y48609856D02*
X34511857Y49316962D01*
X34848574Y48980245D01*
D14*
X33664002Y50918728D02*
X33647166Y50918728D01*
X33613495Y50935564D01*
X33596659Y50952400D01*
X33579823Y50986071D01*
X33579823Y51019743D01*
X33588241Y51044997D01*
X33613495Y51087087D01*
X33638748Y51112340D01*
X33680838Y51137594D01*
X33706092Y51146012D01*
X33739764Y51146012D01*
X33773435Y51129176D01*
X33790271Y51112340D01*
X33807107Y51078669D01*
X33807107Y51061833D01*
X33916540Y50868220D02*
X33798689Y50750369D01*
X33941794Y50977653D02*
X33773435Y50893474D01*
X33882869Y50784041D01*
%TO.C,U2*%
D15*
X30162355Y71382726D02*
X30499072Y71046009D01*
X29892981Y71248039D02*
X30835790Y71719444D01*
X30364385Y70776635D01*
X31206179Y71349054D02*
X31610240Y70944993D01*
X30701103Y70439917D02*
X31408209Y71147024D01*
X31138835Y70069528D02*
X31206179Y69934841D01*
X31374538Y69766482D01*
X31475553Y69732810D01*
X31542896Y69732810D01*
X31643912Y69766482D01*
X31711255Y69833826D01*
X31744927Y69934841D01*
X31744927Y70002184D01*
X31711255Y70103200D01*
X31610240Y70271558D01*
X31576568Y70372574D01*
X31576568Y70439917D01*
X31610240Y70540932D01*
X31677583Y70608276D01*
X31778599Y70641948D01*
X31845942Y70641948D01*
X31946957Y70608276D01*
X32115316Y70439917D01*
X32182660Y70305230D01*
X31980629Y69564452D02*
X32317347Y69227734D01*
X31711255Y69429765D02*
X32654064Y69901169D01*
X32182660Y68958360D01*
X32418362Y68722658D02*
X33125469Y69429765D01*
X32856095Y68688986D01*
X33596873Y68958360D01*
X32889767Y68251253D01*
X33226484Y67914536D02*
X33933591Y68621642D01*
X34101950Y68453284D01*
X34169293Y68318597D01*
X34169293Y68183910D01*
X34135621Y68082894D01*
X34034606Y67914536D01*
X33933591Y67813520D01*
X33765232Y67712505D01*
X33664217Y67678833D01*
X33529530Y67678833D01*
X33394843Y67746177D01*
X33226484Y67914536D01*
X34539682Y67880864D02*
X34607026Y67880864D01*
X34708041Y67847192D01*
X34876400Y67678833D01*
X34910072Y67577818D01*
X34910072Y67510475D01*
X34876400Y67409459D01*
X34809056Y67342116D01*
X34674369Y67274772D01*
X33866247Y67274772D01*
X34303980Y66837040D01*
X34977415Y66163605D02*
X34573354Y66567666D01*
X34775385Y66365635D02*
X35482491Y67072742D01*
X35314133Y67039070D01*
X35179446Y67039070D01*
X35078430Y67072742D01*
X35650850Y66230948D02*
X35886552Y65995246D01*
X35617178Y65523841D02*
X35280461Y65860559D01*
X35987568Y66567666D01*
X36324285Y66230948D01*
X36290613Y64850406D02*
X35886552Y65254467D01*
X36088583Y65052437D02*
X36795690Y65759544D01*
X36627331Y65725872D01*
X36492644Y65725872D01*
X36391629Y65759544D01*
X37098735Y64850406D02*
X37065064Y64951422D01*
X37065064Y65018765D01*
X37098735Y65119780D01*
X37132407Y65153452D01*
X37233422Y65187124D01*
X37300766Y65187124D01*
X37401781Y65153452D01*
X37536468Y65018765D01*
X37570140Y64917750D01*
X37570140Y64850406D01*
X37536468Y64749391D01*
X37502796Y64715719D01*
X37401781Y64682048D01*
X37334438Y64682048D01*
X37233422Y64715719D01*
X37098735Y64850406D01*
X36997720Y64884078D01*
X36930377Y64884078D01*
X36829361Y64850406D01*
X36694674Y64715719D01*
X36661003Y64614704D01*
X36661003Y64547361D01*
X36694674Y64446345D01*
X36829361Y64311658D01*
X36930377Y64277987D01*
X36997720Y64277987D01*
X37098735Y64311658D01*
X37233422Y64446345D01*
X37267094Y64547361D01*
X37267094Y64614704D01*
X37233422Y64715719D01*
X37435453Y64109628D02*
X37772170Y63772910D01*
X37166079Y63974941D02*
X38108888Y64446345D01*
X37637483Y63503536D01*
X38142560Y63537208D02*
X38681308Y62998460D01*
X38917010Y62628071D02*
X39253728Y62291353D01*
X38647636Y62493384D02*
X39590445Y62964788D01*
X39119041Y62021979D01*
X40061850Y62493384D02*
X39489430Y61920964D01*
X39455758Y61819949D01*
X39455758Y61752605D01*
X39489430Y61651590D01*
X39624117Y61516903D01*
X39725132Y61483231D01*
X39792476Y61483231D01*
X39893491Y61516903D01*
X40465911Y62089323D01*
X40701613Y61853620D02*
X41105674Y61449559D01*
X40196537Y60944483D02*
X40903643Y61651590D01*
%TO.C,J3*%
D13*
X69646542Y53061123D02*
X69694161Y53013504D01*
X69741780Y52870647D01*
X69741780Y52775409D01*
X69694161Y52632552D01*
X69598923Y52537314D01*
X69503685Y52489695D01*
X69313209Y52442076D01*
X69170352Y52442076D01*
X68979876Y52489695D01*
X68884638Y52537314D01*
X68789400Y52632552D01*
X68741780Y52775409D01*
X68741780Y52870647D01*
X68789400Y53013504D01*
X68837019Y53061123D01*
X69741780Y53632552D02*
X69694161Y53537314D01*
X69646542Y53489695D01*
X69551304Y53442076D01*
X69265590Y53442076D01*
X69170352Y53489695D01*
X69122733Y53537314D01*
X69075114Y53632552D01*
X69075114Y53775409D01*
X69122733Y53870647D01*
X69170352Y53918266D01*
X69265590Y53965885D01*
X69551304Y53965885D01*
X69646542Y53918266D01*
X69694161Y53870647D01*
X69741780Y53775409D01*
X69741780Y53632552D01*
X69075114Y54394457D02*
X69741780Y54394457D01*
X69170352Y54394457D02*
X69122733Y54442076D01*
X69075114Y54537314D01*
X69075114Y54680171D01*
X69122733Y54775409D01*
X69217971Y54823028D01*
X69741780Y54823028D01*
X69075114Y55299219D02*
X69741780Y55299219D01*
X69170352Y55299219D02*
X69122733Y55346838D01*
X69075114Y55442076D01*
X69075114Y55584933D01*
X69122733Y55680171D01*
X69217971Y55727790D01*
X69741780Y55727790D01*
X69837019Y55965885D02*
X69837019Y56727790D01*
X69646542Y57537314D02*
X69694161Y57489695D01*
X69741780Y57346838D01*
X69741780Y57251600D01*
X69694161Y57108742D01*
X69598923Y57013504D01*
X69503685Y56965885D01*
X69313209Y56918266D01*
X69170352Y56918266D01*
X68979876Y56965885D01*
X68884638Y57013504D01*
X68789400Y57108742D01*
X68741780Y57251600D01*
X68741780Y57346838D01*
X68789400Y57489695D01*
X68837019Y57537314D01*
X69741780Y58108742D02*
X69694161Y58013504D01*
X69646542Y57965885D01*
X69551304Y57918266D01*
X69265590Y57918266D01*
X69170352Y57965885D01*
X69122733Y58013504D01*
X69075114Y58108742D01*
X69075114Y58251600D01*
X69122733Y58346838D01*
X69170352Y58394457D01*
X69265590Y58442076D01*
X69551304Y58442076D01*
X69646542Y58394457D01*
X69694161Y58346838D01*
X69741780Y58251600D01*
X69741780Y58108742D01*
X69741780Y59299219D02*
X69217971Y59299219D01*
X69122733Y59251600D01*
X69075114Y59156361D01*
X69075114Y58965885D01*
X69122733Y58870647D01*
X69694161Y59299219D02*
X69741780Y59203980D01*
X69741780Y58965885D01*
X69694161Y58870647D01*
X69598923Y58823028D01*
X69503685Y58823028D01*
X69408447Y58870647D01*
X69360828Y58965885D01*
X69360828Y59203980D01*
X69313209Y59299219D01*
X69741780Y59680171D02*
X69075114Y60203980D01*
X69075114Y59680171D02*
X69741780Y60203980D01*
X69741780Y60584933D02*
X69075114Y60584933D01*
X68741780Y60584933D02*
X68789400Y60537314D01*
X68837019Y60584933D01*
X68789400Y60632552D01*
X68741780Y60584933D01*
X68837019Y60584933D01*
X69741780Y61489695D02*
X69217971Y61489695D01*
X69122733Y61442076D01*
X69075114Y61346838D01*
X69075114Y61156361D01*
X69122733Y61061123D01*
X69694161Y61489695D02*
X69741780Y61394457D01*
X69741780Y61156361D01*
X69694161Y61061123D01*
X69598923Y61013504D01*
X69503685Y61013504D01*
X69408447Y61061123D01*
X69360828Y61156361D01*
X69360828Y61394457D01*
X69313209Y61489695D01*
X69741780Y62108742D02*
X69694161Y62013504D01*
X69598923Y61965885D01*
X68741780Y61965885D01*
X73741780Y56918266D02*
X74456066Y56918266D01*
X74598923Y56870647D01*
X74694161Y56775409D01*
X74741780Y56632552D01*
X74741780Y56537314D01*
X73741780Y57299219D02*
X73741780Y57918266D01*
X74122733Y57584933D01*
X74122733Y57727790D01*
X74170352Y57823028D01*
X74217971Y57870647D01*
X74313209Y57918266D01*
X74551304Y57918266D01*
X74646542Y57870647D01*
X74694161Y57823028D01*
X74741780Y57727790D01*
X74741780Y57442076D01*
X74694161Y57346838D01*
X74646542Y57299219D01*
%TO.C,U3*%
X55206142Y54273819D02*
X54872809Y54750009D01*
X54634714Y54273819D02*
X54634714Y55273819D01*
X55015666Y55273819D01*
X55110904Y55226200D01*
X55158523Y55178580D01*
X55206142Y55083342D01*
X55206142Y54940485D01*
X55158523Y54845247D01*
X55110904Y54797628D01*
X55015666Y54750009D01*
X54634714Y54750009D01*
X55968047Y54797628D02*
X55634714Y54797628D01*
X55634714Y54273819D02*
X55634714Y55273819D01*
X56110904Y55273819D01*
X56491857Y54273819D02*
X56491857Y55273819D01*
X56825190Y54559533D01*
X57158523Y55273819D01*
X57158523Y54273819D01*
X57682333Y54273819D02*
X57872809Y54273819D01*
X57968047Y54321438D01*
X58015666Y54369057D01*
X58110904Y54511914D01*
X58158523Y54702390D01*
X58158523Y55083342D01*
X58110904Y55178580D01*
X58063285Y55226200D01*
X57968047Y55273819D01*
X57777571Y55273819D01*
X57682333Y55226200D01*
X57634714Y55178580D01*
X57587095Y55083342D01*
X57587095Y54845247D01*
X57634714Y54750009D01*
X57682333Y54702390D01*
X57777571Y54654771D01*
X57968047Y54654771D01*
X58063285Y54702390D01*
X58110904Y54750009D01*
X58158523Y54845247D01*
X58491857Y55273819D02*
X59158523Y54273819D01*
X59158523Y55273819D02*
X58491857Y54273819D01*
X56087095Y57773819D02*
X56087095Y56964295D01*
X56134714Y56869057D01*
X56182333Y56821438D01*
X56277571Y56773819D01*
X56468047Y56773819D01*
X56563285Y56821438D01*
X56610904Y56869057D01*
X56658523Y56964295D01*
X56658523Y57773819D01*
X57039476Y57773819D02*
X57658523Y57773819D01*
X57325190Y57392866D01*
X57468047Y57392866D01*
X57563285Y57345247D01*
X57610904Y57297628D01*
X57658523Y57202390D01*
X57658523Y56964295D01*
X57610904Y56869057D01*
X57563285Y56821438D01*
X57468047Y56773819D01*
X57182333Y56773819D01*
X57087095Y56821438D01*
X57039476Y56869057D01*
%TO.C,C5*%
X32045784Y53639378D02*
X31641723Y54043439D01*
X31843753Y53841408D02*
X32550860Y54548515D01*
X32382501Y54514843D01*
X32247814Y54514843D01*
X32146799Y54548515D01*
X33123280Y53504691D02*
X32651875Y53033286D01*
X32820234Y53807737D02*
X32449845Y53437347D01*
X32416173Y53336332D01*
X32449845Y53235317D01*
X32550860Y53134301D01*
X32651875Y53100630D01*
X32719219Y53100630D01*
X33594685Y52831256D02*
X33358982Y53066958D01*
X32988593Y52696569D02*
X33695700Y53403675D01*
X34032417Y53066958D01*
D16*
X31627244Y52473325D02*
X31600306Y52473325D01*
X31546432Y52500262D01*
X31519494Y52527200D01*
X31492557Y52581074D01*
X31492557Y52634949D01*
X31506025Y52675355D01*
X31546432Y52742699D01*
X31586838Y52783105D01*
X31654181Y52823511D01*
X31694587Y52836980D01*
X31748462Y52836980D01*
X31802337Y52810042D01*
X31829274Y52783105D01*
X31856212Y52729230D01*
X31856212Y52702293D01*
X32139054Y52473325D02*
X32004367Y52608012D01*
X31856212Y52486793D01*
X31883149Y52486793D01*
X31923555Y52473325D01*
X31990899Y52405981D01*
X32004367Y52365575D01*
X32004367Y52338638D01*
X31990899Y52298232D01*
X31923555Y52230888D01*
X31883149Y52217419D01*
X31856212Y52217419D01*
X31815806Y52230888D01*
X31748462Y52298232D01*
X31734993Y52338638D01*
X31734993Y52365575D01*
%TO.C,C6*%
D13*
X22933419Y51316142D02*
X22885800Y51363761D01*
X22838180Y51459000D01*
X22838180Y51697095D01*
X22885800Y51792333D01*
X22933419Y51839952D01*
X23028657Y51887571D01*
X23123895Y51887571D01*
X23266752Y51839952D01*
X23838180Y51268523D01*
X23838180Y51887571D01*
X22933419Y52268523D02*
X22885800Y52316142D01*
X22838180Y52411380D01*
X22838180Y52649476D01*
X22885800Y52744714D01*
X22933419Y52792333D01*
X23028657Y52839952D01*
X23123895Y52839952D01*
X23266752Y52792333D01*
X23838180Y52220904D01*
X23838180Y52839952D01*
X23171514Y53697095D02*
X23838180Y53697095D01*
X23171514Y53268523D02*
X23695323Y53268523D01*
X23790561Y53316142D01*
X23838180Y53411380D01*
X23838180Y53554238D01*
X23790561Y53649476D01*
X23742942Y53697095D01*
X23314371Y54506619D02*
X23314371Y54173285D01*
X23838180Y54173285D02*
X22838180Y54173285D01*
X22838180Y54649476D01*
D16*
X24958657Y52892333D02*
X24977704Y52873285D01*
X24996752Y52816142D01*
X24996752Y52778047D01*
X24977704Y52720904D01*
X24939609Y52682809D01*
X24901514Y52663761D01*
X24825323Y52644714D01*
X24768180Y52644714D01*
X24691990Y52663761D01*
X24653895Y52682809D01*
X24615800Y52720904D01*
X24596752Y52778047D01*
X24596752Y52816142D01*
X24615800Y52873285D01*
X24634847Y52892333D01*
X24596752Y53235190D02*
X24596752Y53159000D01*
X24615800Y53120904D01*
X24634847Y53101857D01*
X24691990Y53063761D01*
X24768180Y53044714D01*
X24920561Y53044714D01*
X24958657Y53063761D01*
X24977704Y53082809D01*
X24996752Y53120904D01*
X24996752Y53197095D01*
X24977704Y53235190D01*
X24958657Y53254238D01*
X24920561Y53273285D01*
X24825323Y53273285D01*
X24787228Y53254238D01*
X24768180Y53235190D01*
X24749133Y53197095D01*
X24749133Y53120904D01*
X24768180Y53082809D01*
X24787228Y53063761D01*
X24825323Y53044714D01*
%TO.C,C9*%
D13*
X30086019Y58707542D02*
X30038400Y58755161D01*
X29990780Y58850400D01*
X29990780Y59088495D01*
X30038400Y59183733D01*
X30086019Y59231352D01*
X30181257Y59278971D01*
X30276495Y59278971D01*
X30419352Y59231352D01*
X30990780Y58659923D01*
X30990780Y59278971D01*
X30086019Y59659923D02*
X30038400Y59707542D01*
X29990780Y59802780D01*
X29990780Y60040876D01*
X30038400Y60136114D01*
X30086019Y60183733D01*
X30181257Y60231352D01*
X30276495Y60231352D01*
X30419352Y60183733D01*
X30990780Y59612304D01*
X30990780Y60231352D01*
X30324114Y61088495D02*
X30990780Y61088495D01*
X30324114Y60659923D02*
X30847923Y60659923D01*
X30943161Y60707542D01*
X30990780Y60802780D01*
X30990780Y60945638D01*
X30943161Y61040876D01*
X30895542Y61088495D01*
X30466971Y61898019D02*
X30466971Y61564685D01*
X30990780Y61564685D02*
X29990780Y61564685D01*
X29990780Y62040876D01*
D16*
X29251257Y60283733D02*
X29270304Y60264685D01*
X29289352Y60207542D01*
X29289352Y60169447D01*
X29270304Y60112304D01*
X29232209Y60074209D01*
X29194114Y60055161D01*
X29117923Y60036114D01*
X29060780Y60036114D01*
X28984590Y60055161D01*
X28946495Y60074209D01*
X28908400Y60112304D01*
X28889352Y60169447D01*
X28889352Y60207542D01*
X28908400Y60264685D01*
X28927447Y60283733D01*
X29289352Y60474209D02*
X29289352Y60550400D01*
X29270304Y60588495D01*
X29251257Y60607542D01*
X29194114Y60645638D01*
X29117923Y60664685D01*
X28965542Y60664685D01*
X28927447Y60645638D01*
X28908400Y60626590D01*
X28889352Y60588495D01*
X28889352Y60512304D01*
X28908400Y60474209D01*
X28927447Y60455161D01*
X28965542Y60436114D01*
X29060780Y60436114D01*
X29098876Y60455161D01*
X29117923Y60474209D01*
X29136971Y60512304D01*
X29136971Y60588495D01*
X29117923Y60626590D01*
X29098876Y60645638D01*
X29060780Y60664685D01*
%TO.C,C10*%
D13*
X31584619Y58707542D02*
X31537000Y58755161D01*
X31489380Y58850400D01*
X31489380Y59088495D01*
X31537000Y59183733D01*
X31584619Y59231352D01*
X31679857Y59278971D01*
X31775095Y59278971D01*
X31917952Y59231352D01*
X32489380Y58659923D01*
X32489380Y59278971D01*
X31584619Y59659923D02*
X31537000Y59707542D01*
X31489380Y59802780D01*
X31489380Y60040876D01*
X31537000Y60136114D01*
X31584619Y60183733D01*
X31679857Y60231352D01*
X31775095Y60231352D01*
X31917952Y60183733D01*
X32489380Y59612304D01*
X32489380Y60231352D01*
X31822714Y61088495D02*
X32489380Y61088495D01*
X31822714Y60659923D02*
X32346523Y60659923D01*
X32441761Y60707542D01*
X32489380Y60802780D01*
X32489380Y60945638D01*
X32441761Y61040876D01*
X32394142Y61088495D01*
X31965571Y61898019D02*
X31965571Y61564685D01*
X32489380Y61564685D02*
X31489380Y61564685D01*
X31489380Y62040876D01*
D16*
X30749857Y60093257D02*
X30768904Y60074209D01*
X30787952Y60017066D01*
X30787952Y59978971D01*
X30768904Y59921828D01*
X30730809Y59883733D01*
X30692714Y59864685D01*
X30616523Y59845638D01*
X30559380Y59845638D01*
X30483190Y59864685D01*
X30445095Y59883733D01*
X30407000Y59921828D01*
X30387952Y59978971D01*
X30387952Y60017066D01*
X30407000Y60074209D01*
X30426047Y60093257D01*
X30787952Y60474209D02*
X30787952Y60245638D01*
X30787952Y60359923D02*
X30387952Y60359923D01*
X30445095Y60321828D01*
X30483190Y60283733D01*
X30502238Y60245638D01*
X30387952Y60721828D02*
X30387952Y60759923D01*
X30407000Y60798019D01*
X30426047Y60817066D01*
X30464142Y60836114D01*
X30540333Y60855161D01*
X30635571Y60855161D01*
X30711761Y60836114D01*
X30749857Y60817066D01*
X30768904Y60798019D01*
X30787952Y60759923D01*
X30787952Y60721828D01*
X30768904Y60683733D01*
X30749857Y60664685D01*
X30711761Y60645638D01*
X30635571Y60626590D01*
X30540333Y60626590D01*
X30464142Y60645638D01*
X30426047Y60664685D01*
X30407000Y60683733D01*
X30387952Y60721828D01*
%TO.C,D1*%
D13*
X63963980Y59072876D02*
X64963980Y59310971D01*
X64249695Y59501447D01*
X64963980Y59691923D01*
X63963980Y59930019D01*
X64916361Y60263352D02*
X64963980Y60406209D01*
X64963980Y60644304D01*
X64916361Y60739542D01*
X64868742Y60787161D01*
X64773504Y60834780D01*
X64678266Y60834780D01*
X64583028Y60787161D01*
X64535409Y60739542D01*
X64487790Y60644304D01*
X64440171Y60453828D01*
X64392552Y60358590D01*
X64344933Y60310971D01*
X64249695Y60263352D01*
X64154457Y60263352D01*
X64059219Y60310971D01*
X64011600Y60358590D01*
X63963980Y60453828D01*
X63963980Y60691923D01*
X64011600Y60834780D01*
X64059219Y61215733D02*
X64011600Y61263352D01*
X63963980Y61358590D01*
X63963980Y61596685D01*
X64011600Y61691923D01*
X64059219Y61739542D01*
X64154457Y61787161D01*
X64249695Y61787161D01*
X64392552Y61739542D01*
X64963980Y61168114D01*
X64963980Y61787161D01*
X64392552Y62358590D02*
X64344933Y62263352D01*
X64297314Y62215733D01*
X64202076Y62168114D01*
X64154457Y62168114D01*
X64059219Y62215733D01*
X64011600Y62263352D01*
X63963980Y62358590D01*
X63963980Y62549066D01*
X64011600Y62644304D01*
X64059219Y62691923D01*
X64154457Y62739542D01*
X64202076Y62739542D01*
X64297314Y62691923D01*
X64344933Y62644304D01*
X64392552Y62549066D01*
X64392552Y62358590D01*
X64440171Y62263352D01*
X64487790Y62215733D01*
X64583028Y62168114D01*
X64773504Y62168114D01*
X64868742Y62215733D01*
X64916361Y62263352D01*
X64963980Y62358590D01*
X64963980Y62549066D01*
X64916361Y62644304D01*
X64868742Y62691923D01*
X64773504Y62739542D01*
X64583028Y62739542D01*
X64487790Y62691923D01*
X64440171Y62644304D01*
X64392552Y62549066D01*
X64963980Y63691923D02*
X64963980Y63120495D01*
X64963980Y63406209D02*
X63963980Y63406209D01*
X64106838Y63310971D01*
X64202076Y63215733D01*
X64249695Y63120495D01*
X64059219Y64072876D02*
X64011600Y64120495D01*
X63963980Y64215733D01*
X63963980Y64453828D01*
X64011600Y64549066D01*
X64059219Y64596685D01*
X64154457Y64644304D01*
X64249695Y64644304D01*
X64392552Y64596685D01*
X64963980Y64025257D01*
X64963980Y64644304D01*
X64440171Y65406209D02*
X64487790Y65549066D01*
X64535409Y65596685D01*
X64630647Y65644304D01*
X64773504Y65644304D01*
X64868742Y65596685D01*
X64916361Y65549066D01*
X64963980Y65453828D01*
X64963980Y65072876D01*
X63963980Y65072876D01*
X63963980Y65406209D01*
X64011600Y65501447D01*
X64059219Y65549066D01*
X64154457Y65596685D01*
X64249695Y65596685D01*
X64344933Y65549066D01*
X64392552Y65501447D01*
X64440171Y65406209D01*
X64440171Y65072876D01*
D10*
X67987790Y62013352D02*
X67487790Y62013352D01*
X67487790Y62132400D01*
X67511600Y62203828D01*
X67559219Y62251447D01*
X67606838Y62275257D01*
X67702076Y62299066D01*
X67773504Y62299066D01*
X67868742Y62275257D01*
X67916361Y62251447D01*
X67963980Y62203828D01*
X67987790Y62132400D01*
X67987790Y62013352D01*
X67987790Y62775257D02*
X67987790Y62489542D01*
X67987790Y62632400D02*
X67487790Y62632400D01*
X67559219Y62584780D01*
X67606838Y62537161D01*
X67630647Y62489542D01*
%TO.C,D2*%
D13*
X22003142Y62007219D02*
X21526952Y62007219D01*
X21526952Y63007219D01*
X22336476Y62531028D02*
X22669809Y62531028D01*
X22812666Y62007219D02*
X22336476Y62007219D01*
X22336476Y63007219D01*
X22812666Y63007219D01*
X23241238Y62007219D02*
X23241238Y63007219D01*
X23479333Y63007219D01*
X23622190Y62959600D01*
X23717428Y62864361D01*
X23765047Y62769123D01*
X23812666Y62578647D01*
X23812666Y62435790D01*
X23765047Y62245314D01*
X23717428Y62150076D01*
X23622190Y62054838D01*
X23479333Y62007219D01*
X23241238Y62007219D01*
X24003142Y61911980D02*
X24765047Y61911980D01*
X24955523Y62054838D02*
X25098380Y62007219D01*
X25336476Y62007219D01*
X25431714Y62054838D01*
X25479333Y62102457D01*
X25526952Y62197695D01*
X25526952Y62292933D01*
X25479333Y62388171D01*
X25431714Y62435790D01*
X25336476Y62483409D01*
X25146000Y62531028D01*
X25050761Y62578647D01*
X25003142Y62626266D01*
X24955523Y62721504D01*
X24955523Y62816742D01*
X25003142Y62911980D01*
X25050761Y62959600D01*
X25146000Y63007219D01*
X25384095Y63007219D01*
X25526952Y62959600D01*
X25955523Y62007219D02*
X25955523Y62673885D01*
X25955523Y62578647D02*
X26003142Y62626266D01*
X26098380Y62673885D01*
X26241238Y62673885D01*
X26336476Y62626266D01*
X26384095Y62531028D01*
X26384095Y62007219D01*
X26384095Y62531028D02*
X26431714Y62626266D01*
X26526952Y62673885D01*
X26669809Y62673885D01*
X26765047Y62626266D01*
X26812666Y62531028D01*
X26812666Y62007219D01*
X27717428Y62007219D02*
X27717428Y62531028D01*
X27669809Y62626266D01*
X27574571Y62673885D01*
X27384095Y62673885D01*
X27288857Y62626266D01*
X27717428Y62054838D02*
X27622190Y62007219D01*
X27384095Y62007219D01*
X27288857Y62054838D01*
X27241238Y62150076D01*
X27241238Y62245314D01*
X27288857Y62340552D01*
X27384095Y62388171D01*
X27622190Y62388171D01*
X27717428Y62435790D01*
X28336476Y62007219D02*
X28241238Y62054838D01*
X28193619Y62150076D01*
X28193619Y63007219D01*
X28860285Y62007219D02*
X28765047Y62054838D01*
X28717428Y62150076D01*
X28717428Y63007219D01*
D17*
X24776952Y63883409D02*
X24776952Y64383409D01*
X24896000Y64383409D01*
X24967428Y64359600D01*
X25015047Y64311980D01*
X25038857Y64264361D01*
X25062666Y64169123D01*
X25062666Y64097695D01*
X25038857Y64002457D01*
X25015047Y63954838D01*
X24967428Y63907219D01*
X24896000Y63883409D01*
X24776952Y63883409D01*
X25253142Y64335790D02*
X25276952Y64359600D01*
X25324571Y64383409D01*
X25443619Y64383409D01*
X25491238Y64359600D01*
X25515047Y64335790D01*
X25538857Y64288171D01*
X25538857Y64240552D01*
X25515047Y64169123D01*
X25229333Y63883409D01*
X25538857Y63883409D01*
%TO.C,D3*%
D13*
X25305142Y51311819D02*
X24828952Y51311819D01*
X24828952Y52311819D01*
X25638476Y51835628D02*
X25971809Y51835628D01*
X26114666Y51311819D02*
X25638476Y51311819D01*
X25638476Y52311819D01*
X26114666Y52311819D01*
X26543238Y51311819D02*
X26543238Y52311819D01*
X26781333Y52311819D01*
X26924190Y52264200D01*
X27019428Y52168961D01*
X27067047Y52073723D01*
X27114666Y51883247D01*
X27114666Y51740390D01*
X27067047Y51549914D01*
X27019428Y51454676D01*
X26924190Y51359438D01*
X26781333Y51311819D01*
X26543238Y51311819D01*
X27305142Y51216580D02*
X28067047Y51216580D01*
X28257523Y51359438D02*
X28400380Y51311819D01*
X28638476Y51311819D01*
X28733714Y51359438D01*
X28781333Y51407057D01*
X28828952Y51502295D01*
X28828952Y51597533D01*
X28781333Y51692771D01*
X28733714Y51740390D01*
X28638476Y51788009D01*
X28448000Y51835628D01*
X28352761Y51883247D01*
X28305142Y51930866D01*
X28257523Y52026104D01*
X28257523Y52121342D01*
X28305142Y52216580D01*
X28352761Y52264200D01*
X28448000Y52311819D01*
X28686095Y52311819D01*
X28828952Y52264200D01*
X29257523Y51311819D02*
X29257523Y51978485D01*
X29257523Y51883247D02*
X29305142Y51930866D01*
X29400380Y51978485D01*
X29543238Y51978485D01*
X29638476Y51930866D01*
X29686095Y51835628D01*
X29686095Y51311819D01*
X29686095Y51835628D02*
X29733714Y51930866D01*
X29828952Y51978485D01*
X29971809Y51978485D01*
X30067047Y51930866D01*
X30114666Y51835628D01*
X30114666Y51311819D01*
X31019428Y51311819D02*
X31019428Y51835628D01*
X30971809Y51930866D01*
X30876571Y51978485D01*
X30686095Y51978485D01*
X30590857Y51930866D01*
X31019428Y51359438D02*
X30924190Y51311819D01*
X30686095Y51311819D01*
X30590857Y51359438D01*
X30543238Y51454676D01*
X30543238Y51549914D01*
X30590857Y51645152D01*
X30686095Y51692771D01*
X30924190Y51692771D01*
X31019428Y51740390D01*
X31638476Y51311819D02*
X31543238Y51359438D01*
X31495619Y51454676D01*
X31495619Y52311819D01*
X32162285Y51311819D02*
X32067047Y51359438D01*
X32019428Y51454676D01*
X32019428Y52311819D01*
D17*
X28078952Y49888009D02*
X28078952Y50388009D01*
X28198000Y50388009D01*
X28269428Y50364200D01*
X28317047Y50316580D01*
X28340857Y50268961D01*
X28364666Y50173723D01*
X28364666Y50102295D01*
X28340857Y50007057D01*
X28317047Y49959438D01*
X28269428Y49911819D01*
X28198000Y49888009D01*
X28078952Y49888009D01*
X28531333Y50388009D02*
X28840857Y50388009D01*
X28674190Y50197533D01*
X28745619Y50197533D01*
X28793238Y50173723D01*
X28817047Y50149914D01*
X28840857Y50102295D01*
X28840857Y49983247D01*
X28817047Y49935628D01*
X28793238Y49911819D01*
X28745619Y49888009D01*
X28602761Y49888009D01*
X28555142Y49911819D01*
X28531333Y49935628D01*
%TO.C,L2*%
D13*
X23855609Y58522780D02*
X23903228Y58570400D01*
X23998466Y58618019D01*
X24236561Y58618019D01*
X24331800Y58570400D01*
X24379419Y58522780D01*
X24427038Y58427542D01*
X24427038Y58332304D01*
X24379419Y58189447D01*
X23807990Y57618019D01*
X24427038Y57618019D01*
X24855609Y57713257D02*
X24903228Y57665638D01*
X24855609Y57618019D01*
X24807990Y57665638D01*
X24855609Y57713257D01*
X24855609Y57618019D01*
X25284180Y58522780D02*
X25331800Y58570400D01*
X25427038Y58618019D01*
X25665133Y58618019D01*
X25760371Y58570400D01*
X25807990Y58522780D01*
X25855609Y58427542D01*
X25855609Y58332304D01*
X25807990Y58189447D01*
X25236561Y57618019D01*
X25855609Y57618019D01*
X26712752Y58284685D02*
X26712752Y57618019D01*
X26284180Y58284685D02*
X26284180Y57760876D01*
X26331800Y57665638D01*
X26427038Y57618019D01*
X26569895Y57618019D01*
X26665133Y57665638D01*
X26712752Y57713257D01*
X27188942Y57618019D02*
X27188942Y58618019D01*
X27188942Y58141828D02*
X27760371Y58141828D01*
X27760371Y57618019D02*
X27760371Y58618019D01*
D18*
X25698466Y59988495D02*
X25317514Y59988495D01*
X25317514Y60788495D01*
X25927038Y60712304D02*
X25965133Y60750400D01*
X26041323Y60788495D01*
X26231800Y60788495D01*
X26307990Y60750400D01*
X26346085Y60712304D01*
X26384180Y60636114D01*
X26384180Y60559923D01*
X26346085Y60445638D01*
X25888942Y59988495D01*
X26384180Y59988495D01*
%TO.C,U1*%
D13*
X40182084Y52117978D02*
X40148412Y52218993D01*
X40047397Y52320008D01*
X39912710Y52387352D01*
X39778023Y52387352D01*
X39677008Y52353680D01*
X39508649Y52252665D01*
X39407634Y52151650D01*
X39306618Y51983291D01*
X39272947Y51882276D01*
X39272947Y51747589D01*
X39340290Y51612902D01*
X39407634Y51545558D01*
X39542321Y51478215D01*
X39609664Y51478215D01*
X39845366Y51713917D01*
X39710679Y51848604D01*
X39845366Y51107825D02*
X40552473Y51814932D01*
X40720832Y51646573D01*
X40788175Y51511886D01*
X40788175Y51377199D01*
X40754504Y51276184D01*
X40653488Y51107825D01*
X40552473Y51006810D01*
X40384114Y50905795D01*
X40283099Y50872123D01*
X40148412Y50872123D01*
X40013725Y50939467D01*
X39845366Y51107825D01*
X41158565Y51074154D02*
X41225908Y51074154D01*
X41326923Y51040482D01*
X41495282Y50872123D01*
X41528954Y50771108D01*
X41528954Y50703764D01*
X41495282Y50602749D01*
X41427939Y50535406D01*
X41293252Y50468062D01*
X40485130Y50468062D01*
X40922862Y50030329D01*
X42269732Y50097673D02*
X41933015Y50434390D01*
X41562626Y50131345D01*
X41629969Y50131345D01*
X41730984Y50097673D01*
X41899343Y49929314D01*
X41933015Y49828299D01*
X41933015Y49760955D01*
X41899343Y49659940D01*
X41730984Y49491581D01*
X41629969Y49457910D01*
X41562626Y49457910D01*
X41461610Y49491581D01*
X41293252Y49659940D01*
X41259580Y49760955D01*
X41259580Y49828299D01*
X42303404Y48515101D02*
X42269732Y48616116D01*
X42269732Y48750803D01*
X42269732Y48952833D01*
X42236061Y49053849D01*
X42168717Y49121192D01*
X42034030Y48919162D02*
X42000358Y49020177D01*
X42000358Y49154864D01*
X42101374Y49323223D01*
X42337076Y49558925D01*
X42505435Y49659940D01*
X42640122Y49659940D01*
X42741137Y49626268D01*
X42875824Y49491581D01*
X42909496Y49390566D01*
X42909496Y49255879D01*
X42808480Y49087520D01*
X42572778Y48851818D01*
X42404419Y48750803D01*
X42269732Y48750803D01*
X42168717Y48784475D01*
X42034030Y48919162D01*
X43279885Y49087520D02*
X43717618Y48649788D01*
X43212541Y48616116D01*
X43313557Y48515101D01*
X43347228Y48414085D01*
X43347228Y48346742D01*
X43313557Y48245727D01*
X43145198Y48077368D01*
X43044183Y48043696D01*
X42976839Y48043696D01*
X42875824Y48077368D01*
X42673793Y48279398D01*
X42640122Y48380414D01*
X42640122Y48447757D01*
X43919648Y48313070D02*
X43986992Y48313070D01*
X44088007Y48279398D01*
X44256366Y48111040D01*
X44290037Y48010024D01*
X44290037Y47942681D01*
X44256366Y47841666D01*
X44189022Y47774322D01*
X44054335Y47706979D01*
X43246213Y47706979D01*
X43683946Y47269246D01*
D10*
X43404133Y52337181D02*
X43003440Y51936487D01*
X42979869Y51865776D01*
X42979869Y51818636D01*
X43003440Y51747925D01*
X43097721Y51653644D01*
X43168431Y51630074D01*
X43215572Y51630074D01*
X43286282Y51653644D01*
X43686976Y52054338D01*
X43686976Y51064389D02*
X43404133Y51347231D01*
X43545555Y51205810D02*
X44040530Y51700785D01*
X43922678Y51677214D01*
X43828398Y51677214D01*
X43757687Y51700785D01*
%TO.C,U4*%
D13*
X23260361Y53845152D02*
X23307980Y53988009D01*
X23307980Y54226104D01*
X23260361Y54321342D01*
X23212742Y54368961D01*
X23117504Y54416580D01*
X23022266Y54416580D01*
X22927028Y54368961D01*
X22879409Y54321342D01*
X22831790Y54226104D01*
X22784171Y54035628D01*
X22736552Y53940390D01*
X22688933Y53892771D01*
X22593695Y53845152D01*
X22498457Y53845152D01*
X22403219Y53892771D01*
X22355600Y53940390D01*
X22307980Y54035628D01*
X22307980Y54273723D01*
X22355600Y54416580D01*
X22831790Y55035628D02*
X23307980Y55035628D01*
X22307980Y54702295D02*
X22831790Y55035628D01*
X22307980Y55368961D01*
X22736552Y55845152D02*
X22688933Y55749914D01*
X22641314Y55702295D01*
X22546076Y55654676D01*
X22498457Y55654676D01*
X22403219Y55702295D01*
X22355600Y55749914D01*
X22307980Y55845152D01*
X22307980Y56035628D01*
X22355600Y56130866D01*
X22403219Y56178485D01*
X22498457Y56226104D01*
X22546076Y56226104D01*
X22641314Y56178485D01*
X22688933Y56130866D01*
X22736552Y56035628D01*
X22736552Y55845152D01*
X22784171Y55749914D01*
X22831790Y55702295D01*
X22927028Y55654676D01*
X23117504Y55654676D01*
X23212742Y55702295D01*
X23260361Y55749914D01*
X23307980Y55845152D01*
X23307980Y56035628D01*
X23260361Y56130866D01*
X23212742Y56178485D01*
X23117504Y56226104D01*
X22927028Y56226104D01*
X22831790Y56178485D01*
X22784171Y56130866D01*
X22736552Y56035628D01*
X22307980Y56845152D02*
X22307980Y56940390D01*
X22355600Y57035628D01*
X22403219Y57083247D01*
X22498457Y57130866D01*
X22688933Y57178485D01*
X22927028Y57178485D01*
X23117504Y57130866D01*
X23212742Y57083247D01*
X23260361Y57035628D01*
X23307980Y56940390D01*
X23307980Y56845152D01*
X23260361Y56749914D01*
X23212742Y56702295D01*
X23117504Y56654676D01*
X22927028Y56607057D01*
X22688933Y56607057D01*
X22498457Y56654676D01*
X22403219Y56702295D01*
X22355600Y56749914D01*
X22307980Y56845152D01*
X22307980Y57511819D02*
X23307980Y58178485D01*
X22307980Y58178485D02*
X23307980Y57511819D01*
X22307980Y58464200D02*
X23307980Y59130866D01*
X22307980Y59130866D02*
X23307980Y58464200D01*
D19*
X25374647Y56738009D02*
X25374647Y56333247D01*
X25398457Y56285628D01*
X25422266Y56261819D01*
X25469885Y56238009D01*
X25565123Y56238009D01*
X25612742Y56261819D01*
X25636552Y56285628D01*
X25660361Y56333247D01*
X25660361Y56738009D01*
X26112742Y56571342D02*
X26112742Y56238009D01*
X25993695Y56761819D02*
X25874647Y56404676D01*
X26184171Y56404676D01*
%TO.C,C1*%
D13*
X37052180Y63419171D02*
X37052180Y62847742D01*
X37052180Y63133457D02*
X36052180Y63133457D01*
X36195038Y63038219D01*
X36290276Y62942980D01*
X36337895Y62847742D01*
X36052180Y64038219D02*
X36052180Y64133457D01*
X36099800Y64228695D01*
X36147419Y64276314D01*
X36242657Y64323933D01*
X36433133Y64371552D01*
X36671228Y64371552D01*
X36861704Y64323933D01*
X36956942Y64276314D01*
X37004561Y64228695D01*
X37052180Y64133457D01*
X37052180Y64038219D01*
X37004561Y63942980D01*
X36956942Y63895361D01*
X36861704Y63847742D01*
X36671228Y63800123D01*
X36433133Y63800123D01*
X36242657Y63847742D01*
X36147419Y63895361D01*
X36099800Y63942980D01*
X36052180Y64038219D01*
X36385514Y64800123D02*
X37052180Y64800123D01*
X36480752Y64800123D02*
X36433133Y64847742D01*
X36385514Y64942980D01*
X36385514Y65085838D01*
X36433133Y65181076D01*
X36528371Y65228695D01*
X37052180Y65228695D01*
X36528371Y66038219D02*
X36528371Y65704885D01*
X37052180Y65704885D02*
X36052180Y65704885D01*
X36052180Y66181076D01*
D14*
X37859085Y64448933D02*
X37870990Y64437028D01*
X37882895Y64401314D01*
X37882895Y64377504D01*
X37870990Y64341790D01*
X37847180Y64317980D01*
X37823371Y64306076D01*
X37775752Y64294171D01*
X37740038Y64294171D01*
X37692419Y64306076D01*
X37668609Y64317980D01*
X37644800Y64341790D01*
X37632895Y64377504D01*
X37632895Y64401314D01*
X37644800Y64437028D01*
X37656704Y64448933D01*
X37882895Y64687028D02*
X37882895Y64544171D01*
X37882895Y64615600D02*
X37632895Y64615600D01*
X37668609Y64591790D01*
X37692419Y64567980D01*
X37704323Y64544171D01*
%TO.C,C2*%
D13*
X29406780Y63419171D02*
X29406780Y62847742D01*
X29406780Y63133457D02*
X28406780Y63133457D01*
X28549638Y63038219D01*
X28644876Y62942980D01*
X28692495Y62847742D01*
X28406780Y64038219D02*
X28406780Y64133457D01*
X28454400Y64228695D01*
X28502019Y64276314D01*
X28597257Y64323933D01*
X28787733Y64371552D01*
X29025828Y64371552D01*
X29216304Y64323933D01*
X29311542Y64276314D01*
X29359161Y64228695D01*
X29406780Y64133457D01*
X29406780Y64038219D01*
X29359161Y63942980D01*
X29311542Y63895361D01*
X29216304Y63847742D01*
X29025828Y63800123D01*
X28787733Y63800123D01*
X28597257Y63847742D01*
X28502019Y63895361D01*
X28454400Y63942980D01*
X28406780Y64038219D01*
X28740114Y64800123D02*
X29406780Y64800123D01*
X28835352Y64800123D02*
X28787733Y64847742D01*
X28740114Y64942980D01*
X28740114Y65085838D01*
X28787733Y65181076D01*
X28882971Y65228695D01*
X29406780Y65228695D01*
X28882971Y66038219D02*
X28882971Y65704885D01*
X29406780Y65704885D02*
X28406780Y65704885D01*
X28406780Y66181076D01*
D14*
X30213685Y64448933D02*
X30225590Y64437028D01*
X30237495Y64401314D01*
X30237495Y64377504D01*
X30225590Y64341790D01*
X30201780Y64317980D01*
X30177971Y64306076D01*
X30130352Y64294171D01*
X30094638Y64294171D01*
X30047019Y64306076D01*
X30023209Y64317980D01*
X29999400Y64341790D01*
X29987495Y64377504D01*
X29987495Y64401314D01*
X29999400Y64437028D01*
X30011304Y64448933D01*
X30011304Y64544171D02*
X29999400Y64556076D01*
X29987495Y64579885D01*
X29987495Y64639409D01*
X29999400Y64663219D01*
X30011304Y64675123D01*
X30035114Y64687028D01*
X30058923Y64687028D01*
X30094638Y64675123D01*
X30237495Y64532266D01*
X30237495Y64687028D01*
%TO.C,C3*%
D13*
X41319471Y57986135D02*
X40915410Y58390196D01*
X41117440Y58188165D02*
X41824547Y58895272D01*
X41656188Y58861600D01*
X41521501Y58861600D01*
X41420486Y58895272D01*
X42464310Y58255509D02*
X42531654Y58188165D01*
X42565326Y58087150D01*
X42565326Y58019807D01*
X42531654Y57918791D01*
X42430639Y57750433D01*
X42262280Y57582074D01*
X42093921Y57481059D01*
X41992906Y57447387D01*
X41925562Y57447387D01*
X41824547Y57481059D01*
X41757204Y57548402D01*
X41723532Y57649417D01*
X41723532Y57716761D01*
X41757204Y57817776D01*
X41858219Y57986135D01*
X42026578Y58154494D01*
X42194936Y58255509D01*
X42295952Y58289181D01*
X42363295Y58289181D01*
X42464310Y58255509D01*
X43137746Y57582074D02*
X43205089Y57514730D01*
X43238761Y57413715D01*
X43238761Y57346372D01*
X43205089Y57245356D01*
X43104074Y57076997D01*
X42935715Y56908639D01*
X42767356Y56807623D01*
X42666341Y56773952D01*
X42598997Y56773952D01*
X42497982Y56807623D01*
X42430639Y56874967D01*
X42396967Y56975982D01*
X42396967Y57043326D01*
X42430639Y57144341D01*
X42531654Y57312700D01*
X42700013Y57481059D01*
X42868372Y57582074D01*
X42969387Y57615746D01*
X43036730Y57615746D01*
X43137746Y57582074D01*
X43440791Y56807623D02*
X42969387Y56336219D01*
X43373448Y56740280D02*
X43440791Y56740280D01*
X43541807Y56706608D01*
X43642822Y56605593D01*
X43676494Y56504578D01*
X43642822Y56403562D01*
X43272433Y56033173D01*
X44215242Y55831143D02*
X43979539Y56066845D01*
X43609150Y55696456D02*
X44316257Y56403562D01*
X44652974Y56066845D01*
D14*
X43468402Y58005328D02*
X43451566Y58005328D01*
X43417895Y58022164D01*
X43401059Y58039000D01*
X43384223Y58072671D01*
X43384223Y58106343D01*
X43392641Y58131597D01*
X43417895Y58173687D01*
X43443148Y58198940D01*
X43485238Y58224194D01*
X43510492Y58232612D01*
X43544164Y58232612D01*
X43577835Y58215776D01*
X43594671Y58198940D01*
X43611507Y58165269D01*
X43611507Y58148433D01*
X43687269Y58106343D02*
X43796702Y57996910D01*
X43670433Y57988492D01*
X43695687Y57963238D01*
X43704104Y57937984D01*
X43704104Y57921148D01*
X43695687Y57895895D01*
X43653597Y57853805D01*
X43628343Y57845387D01*
X43611507Y57845387D01*
X43586253Y57853805D01*
X43535746Y57904312D01*
X43527328Y57929566D01*
X43527328Y57946402D01*
%TO.C,R1*%
D13*
X38477780Y63419171D02*
X38477780Y62847742D01*
X38477780Y63133457D02*
X37477780Y63133457D01*
X37620638Y63038219D01*
X37715876Y62942980D01*
X37763495Y62847742D01*
X37477780Y64038219D02*
X37477780Y64133457D01*
X37525400Y64228695D01*
X37573019Y64276314D01*
X37668257Y64323933D01*
X37858733Y64371552D01*
X38096828Y64371552D01*
X38287304Y64323933D01*
X38382542Y64276314D01*
X38430161Y64228695D01*
X38477780Y64133457D01*
X38477780Y64038219D01*
X38430161Y63942980D01*
X38382542Y63895361D01*
X38287304Y63847742D01*
X38096828Y63800123D01*
X37858733Y63800123D01*
X37668257Y63847742D01*
X37573019Y63895361D01*
X37525400Y63942980D01*
X37477780Y64038219D01*
X37477780Y64990600D02*
X37477780Y65085838D01*
X37525400Y65181076D01*
X37573019Y65228695D01*
X37668257Y65276314D01*
X37858733Y65323933D01*
X38096828Y65323933D01*
X38287304Y65276314D01*
X38382542Y65228695D01*
X38430161Y65181076D01*
X38477780Y65085838D01*
X38477780Y64990600D01*
X38430161Y64895361D01*
X38382542Y64847742D01*
X38287304Y64800123D01*
X38096828Y64752504D01*
X37858733Y64752504D01*
X37668257Y64800123D01*
X37573019Y64847742D01*
X37525400Y64895361D01*
X37477780Y64990600D01*
X38477780Y65752504D02*
X37477780Y65752504D01*
X38096828Y65847742D02*
X38477780Y66133457D01*
X37811114Y66133457D02*
X38192066Y65752504D01*
D14*
X36968495Y64448933D02*
X36849447Y64365600D01*
X36968495Y64306076D02*
X36718495Y64306076D01*
X36718495Y64401314D01*
X36730400Y64425123D01*
X36742304Y64437028D01*
X36766114Y64448933D01*
X36801828Y64448933D01*
X36825638Y64437028D01*
X36837542Y64425123D01*
X36849447Y64401314D01*
X36849447Y64306076D01*
X36968495Y64687028D02*
X36968495Y64544171D01*
X36968495Y64615600D02*
X36718495Y64615600D01*
X36754209Y64591790D01*
X36778019Y64567980D01*
X36789923Y64544171D01*
%TO.C,R2*%
D13*
X30806980Y63419171D02*
X30806980Y62847742D01*
X30806980Y63133457D02*
X29806980Y63133457D01*
X29949838Y63038219D01*
X30045076Y62942980D01*
X30092695Y62847742D01*
X29806980Y64038219D02*
X29806980Y64133457D01*
X29854600Y64228695D01*
X29902219Y64276314D01*
X29997457Y64323933D01*
X30187933Y64371552D01*
X30426028Y64371552D01*
X30616504Y64323933D01*
X30711742Y64276314D01*
X30759361Y64228695D01*
X30806980Y64133457D01*
X30806980Y64038219D01*
X30759361Y63942980D01*
X30711742Y63895361D01*
X30616504Y63847742D01*
X30426028Y63800123D01*
X30187933Y63800123D01*
X29997457Y63847742D01*
X29902219Y63895361D01*
X29854600Y63942980D01*
X29806980Y64038219D01*
X29806980Y64990600D02*
X29806980Y65085838D01*
X29854600Y65181076D01*
X29902219Y65228695D01*
X29997457Y65276314D01*
X30187933Y65323933D01*
X30426028Y65323933D01*
X30616504Y65276314D01*
X30711742Y65228695D01*
X30759361Y65181076D01*
X30806980Y65085838D01*
X30806980Y64990600D01*
X30759361Y64895361D01*
X30711742Y64847742D01*
X30616504Y64800123D01*
X30426028Y64752504D01*
X30187933Y64752504D01*
X29997457Y64800123D01*
X29902219Y64847742D01*
X29854600Y64895361D01*
X29806980Y64990600D01*
X30806980Y65752504D02*
X29806980Y65752504D01*
X30426028Y65847742D02*
X30806980Y66133457D01*
X30140314Y66133457D02*
X30521266Y65752504D01*
D14*
X29297695Y64448933D02*
X29178647Y64365600D01*
X29297695Y64306076D02*
X29047695Y64306076D01*
X29047695Y64401314D01*
X29059600Y64425123D01*
X29071504Y64437028D01*
X29095314Y64448933D01*
X29131028Y64448933D01*
X29154838Y64437028D01*
X29166742Y64425123D01*
X29178647Y64401314D01*
X29178647Y64306076D01*
X29071504Y64544171D02*
X29059600Y64556076D01*
X29047695Y64579885D01*
X29047695Y64639409D01*
X29059600Y64663219D01*
X29071504Y64675123D01*
X29095314Y64687028D01*
X29119123Y64687028D01*
X29154838Y64675123D01*
X29297695Y64532266D01*
X29297695Y64687028D01*
%TO.C,R3*%
D13*
X65480514Y60518619D02*
X65004323Y60518619D01*
X64956704Y60042428D01*
X65004323Y60090047D01*
X65099561Y60137666D01*
X65337657Y60137666D01*
X65432895Y60090047D01*
X65480514Y60042428D01*
X65528133Y59947190D01*
X65528133Y59709095D01*
X65480514Y59613857D01*
X65432895Y59566238D01*
X65337657Y59518619D01*
X65099561Y59518619D01*
X65004323Y59566238D01*
X64956704Y59613857D01*
X66480514Y59518619D02*
X65909085Y59518619D01*
X66194800Y59518619D02*
X66194800Y60518619D01*
X66099561Y60375761D01*
X66004323Y60280523D01*
X65909085Y60232904D01*
X67099561Y60518619D02*
X67194800Y60518619D01*
X67290038Y60471000D01*
X67337657Y60423380D01*
X67385276Y60328142D01*
X67432895Y60137666D01*
X67432895Y59899571D01*
X67385276Y59709095D01*
X67337657Y59613857D01*
X67290038Y59566238D01*
X67194800Y59518619D01*
X67099561Y59518619D01*
X67004323Y59566238D01*
X66956704Y59613857D01*
X66909085Y59709095D01*
X66861466Y59899571D01*
X66861466Y60137666D01*
X66909085Y60328142D01*
X66956704Y60423380D01*
X67004323Y60471000D01*
X67099561Y60518619D01*
X68432895Y59518619D02*
X68099561Y59994809D01*
X67861466Y59518619D02*
X67861466Y60518619D01*
X68242419Y60518619D01*
X68337657Y60471000D01*
X68385276Y60423380D01*
X68432895Y60328142D01*
X68432895Y60185285D01*
X68385276Y60090047D01*
X68337657Y60042428D01*
X68242419Y59994809D01*
X67861466Y59994809D01*
D14*
X66653133Y58687904D02*
X66569800Y58806952D01*
X66510276Y58687904D02*
X66510276Y58937904D01*
X66605514Y58937904D01*
X66629323Y58926000D01*
X66641228Y58914095D01*
X66653133Y58890285D01*
X66653133Y58854571D01*
X66641228Y58830761D01*
X66629323Y58818857D01*
X66605514Y58806952D01*
X66510276Y58806952D01*
X66736466Y58937904D02*
X66891228Y58937904D01*
X66807895Y58842666D01*
X66843609Y58842666D01*
X66867419Y58830761D01*
X66879323Y58818857D01*
X66891228Y58795047D01*
X66891228Y58735523D01*
X66879323Y58711714D01*
X66867419Y58699809D01*
X66843609Y58687904D01*
X66772180Y58687904D01*
X66748371Y58699809D01*
X66736466Y58711714D01*
%TO.C,R4*%
D13*
X28079780Y62895314D02*
X28079780Y62419123D01*
X28555971Y62371504D01*
X28508352Y62419123D01*
X28460733Y62514361D01*
X28460733Y62752457D01*
X28508352Y62847695D01*
X28555971Y62895314D01*
X28651209Y62942933D01*
X28889304Y62942933D01*
X28984542Y62895314D01*
X29032161Y62847695D01*
X29079780Y62752457D01*
X29079780Y62514361D01*
X29032161Y62419123D01*
X28984542Y62371504D01*
X29079780Y63895314D02*
X29079780Y63323885D01*
X29079780Y63609600D02*
X28079780Y63609600D01*
X28222638Y63514361D01*
X28317876Y63419123D01*
X28365495Y63323885D01*
X28079780Y64514361D02*
X28079780Y64609600D01*
X28127400Y64704838D01*
X28175019Y64752457D01*
X28270257Y64800076D01*
X28460733Y64847695D01*
X28698828Y64847695D01*
X28889304Y64800076D01*
X28984542Y64752457D01*
X29032161Y64704838D01*
X29079780Y64609600D01*
X29079780Y64514361D01*
X29032161Y64419123D01*
X28984542Y64371504D01*
X28889304Y64323885D01*
X28698828Y64276266D01*
X28460733Y64276266D01*
X28270257Y64323885D01*
X28175019Y64371504D01*
X28127400Y64419123D01*
X28079780Y64514361D01*
X29079780Y65847695D02*
X28603590Y65514361D01*
X29079780Y65276266D02*
X28079780Y65276266D01*
X28079780Y65657219D01*
X28127400Y65752457D01*
X28175019Y65800076D01*
X28270257Y65847695D01*
X28413114Y65847695D01*
X28508352Y65800076D01*
X28555971Y65752457D01*
X28603590Y65657219D01*
X28603590Y65276266D01*
D14*
X27570495Y64067933D02*
X27451447Y63984600D01*
X27570495Y63925076D02*
X27320495Y63925076D01*
X27320495Y64020314D01*
X27332400Y64044123D01*
X27344304Y64056028D01*
X27368114Y64067933D01*
X27403828Y64067933D01*
X27427638Y64056028D01*
X27439542Y64044123D01*
X27451447Y64020314D01*
X27451447Y63925076D01*
X27403828Y64282219D02*
X27570495Y64282219D01*
X27308590Y64222695D02*
X27487161Y64163171D01*
X27487161Y64317933D01*
%TO.C,R5*%
D13*
X26733580Y48899914D02*
X26733580Y48423723D01*
X27209771Y48376104D01*
X27162152Y48423723D01*
X27114533Y48518961D01*
X27114533Y48757057D01*
X27162152Y48852295D01*
X27209771Y48899914D01*
X27305009Y48947533D01*
X27543104Y48947533D01*
X27638342Y48899914D01*
X27685961Y48852295D01*
X27733580Y48757057D01*
X27733580Y48518961D01*
X27685961Y48423723D01*
X27638342Y48376104D01*
X27733580Y49899914D02*
X27733580Y49328485D01*
X27733580Y49614200D02*
X26733580Y49614200D01*
X26876438Y49518961D01*
X26971676Y49423723D01*
X27019295Y49328485D01*
X26733580Y50518961D02*
X26733580Y50614200D01*
X26781200Y50709438D01*
X26828819Y50757057D01*
X26924057Y50804676D01*
X27114533Y50852295D01*
X27352628Y50852295D01*
X27543104Y50804676D01*
X27638342Y50757057D01*
X27685961Y50709438D01*
X27733580Y50614200D01*
X27733580Y50518961D01*
X27685961Y50423723D01*
X27638342Y50376104D01*
X27543104Y50328485D01*
X27352628Y50280866D01*
X27114533Y50280866D01*
X26924057Y50328485D01*
X26828819Y50376104D01*
X26781200Y50423723D01*
X26733580Y50518961D01*
X27733580Y51852295D02*
X27257390Y51518961D01*
X27733580Y51280866D02*
X26733580Y51280866D01*
X26733580Y51661819D01*
X26781200Y51757057D01*
X26828819Y51804676D01*
X26924057Y51852295D01*
X27066914Y51852295D01*
X27162152Y51804676D01*
X27209771Y51757057D01*
X27257390Y51661819D01*
X27257390Y51280866D01*
D14*
X26224295Y50072533D02*
X26105247Y49989200D01*
X26224295Y49929676D02*
X25974295Y49929676D01*
X25974295Y50024914D01*
X25986200Y50048723D01*
X25998104Y50060628D01*
X26021914Y50072533D01*
X26057628Y50072533D01*
X26081438Y50060628D01*
X26093342Y50048723D01*
X26105247Y50024914D01*
X26105247Y49929676D01*
X25974295Y50298723D02*
X25974295Y50179676D01*
X26093342Y50167771D01*
X26081438Y50179676D01*
X26069533Y50203485D01*
X26069533Y50263009D01*
X26081438Y50286819D01*
X26093342Y50298723D01*
X26117152Y50310628D01*
X26176676Y50310628D01*
X26200485Y50298723D01*
X26212390Y50286819D01*
X26224295Y50263009D01*
X26224295Y50203485D01*
X26212390Y50179676D01*
X26200485Y50167771D01*
%TO.C,R6*%
D13*
X47037580Y53233771D02*
X47037580Y52662342D01*
X47037580Y52948057D02*
X46037580Y52948057D01*
X46180438Y52852819D01*
X46275676Y52757580D01*
X46323295Y52662342D01*
X46037580Y53852819D02*
X46037580Y53948057D01*
X46085200Y54043295D01*
X46132819Y54090914D01*
X46228057Y54138533D01*
X46418533Y54186152D01*
X46656628Y54186152D01*
X46847104Y54138533D01*
X46942342Y54090914D01*
X46989961Y54043295D01*
X47037580Y53948057D01*
X47037580Y53852819D01*
X46989961Y53757580D01*
X46942342Y53709961D01*
X46847104Y53662342D01*
X46656628Y53614723D01*
X46418533Y53614723D01*
X46228057Y53662342D01*
X46132819Y53709961D01*
X46085200Y53757580D01*
X46037580Y53852819D01*
X46037580Y54805200D02*
X46037580Y54900438D01*
X46085200Y54995676D01*
X46132819Y55043295D01*
X46228057Y55090914D01*
X46418533Y55138533D01*
X46656628Y55138533D01*
X46847104Y55090914D01*
X46942342Y55043295D01*
X46989961Y54995676D01*
X47037580Y54900438D01*
X47037580Y54805200D01*
X46989961Y54709961D01*
X46942342Y54662342D01*
X46847104Y54614723D01*
X46656628Y54567104D01*
X46418533Y54567104D01*
X46228057Y54614723D01*
X46132819Y54662342D01*
X46085200Y54709961D01*
X46037580Y54805200D01*
X47037580Y55567104D02*
X46037580Y55567104D01*
X46656628Y55662342D02*
X47037580Y55948057D01*
X46370914Y55948057D02*
X46751866Y55567104D01*
D14*
X45528295Y54263533D02*
X45409247Y54180200D01*
X45528295Y54120676D02*
X45278295Y54120676D01*
X45278295Y54215914D01*
X45290200Y54239723D01*
X45302104Y54251628D01*
X45325914Y54263533D01*
X45361628Y54263533D01*
X45385438Y54251628D01*
X45397342Y54239723D01*
X45409247Y54215914D01*
X45409247Y54120676D01*
X45278295Y54477819D02*
X45278295Y54430200D01*
X45290200Y54406390D01*
X45302104Y54394485D01*
X45337819Y54370676D01*
X45385438Y54358771D01*
X45480676Y54358771D01*
X45504485Y54370676D01*
X45516390Y54382580D01*
X45528295Y54406390D01*
X45528295Y54454009D01*
X45516390Y54477819D01*
X45504485Y54489723D01*
X45480676Y54501628D01*
X45421152Y54501628D01*
X45397342Y54489723D01*
X45385438Y54477819D01*
X45373533Y54454009D01*
X45373533Y54406390D01*
X45385438Y54382580D01*
X45397342Y54370676D01*
X45421152Y54358771D01*
%TO.C,R7*%
D13*
X27501780Y55545171D02*
X27501780Y54973742D01*
X27501780Y55259457D02*
X26501780Y55259457D01*
X26644638Y55164219D01*
X26739876Y55068980D01*
X26787495Y54973742D01*
X26501780Y56164219D02*
X26501780Y56259457D01*
X26549400Y56354695D01*
X26597019Y56402314D01*
X26692257Y56449933D01*
X26882733Y56497552D01*
X27120828Y56497552D01*
X27311304Y56449933D01*
X27406542Y56402314D01*
X27454161Y56354695D01*
X27501780Y56259457D01*
X27501780Y56164219D01*
X27454161Y56068980D01*
X27406542Y56021361D01*
X27311304Y55973742D01*
X27120828Y55926123D01*
X26882733Y55926123D01*
X26692257Y55973742D01*
X26597019Y56021361D01*
X26549400Y56068980D01*
X26501780Y56164219D01*
X26501780Y57116600D02*
X26501780Y57211838D01*
X26549400Y57307076D01*
X26597019Y57354695D01*
X26692257Y57402314D01*
X26882733Y57449933D01*
X27120828Y57449933D01*
X27311304Y57402314D01*
X27406542Y57354695D01*
X27454161Y57307076D01*
X27501780Y57211838D01*
X27501780Y57116600D01*
X27454161Y57021361D01*
X27406542Y56973742D01*
X27311304Y56926123D01*
X27120828Y56878504D01*
X26882733Y56878504D01*
X26692257Y56926123D01*
X26597019Y56973742D01*
X26549400Y57021361D01*
X26501780Y57116600D01*
X27501780Y57878504D02*
X26501780Y57878504D01*
X27120828Y57973742D02*
X27501780Y58259457D01*
X26835114Y58259457D02*
X27216066Y57878504D01*
D14*
X28332495Y56574933D02*
X28213447Y56491600D01*
X28332495Y56432076D02*
X28082495Y56432076D01*
X28082495Y56527314D01*
X28094400Y56551123D01*
X28106304Y56563028D01*
X28130114Y56574933D01*
X28165828Y56574933D01*
X28189638Y56563028D01*
X28201542Y56551123D01*
X28213447Y56527314D01*
X28213447Y56432076D01*
X28082495Y56658266D02*
X28082495Y56824933D01*
X28332495Y56717790D01*
%TO.C,R8*%
D13*
X27512333Y54425780D02*
X27559952Y54473400D01*
X27655190Y54521019D01*
X27893285Y54521019D01*
X27988523Y54473400D01*
X28036142Y54425780D01*
X28083761Y54330542D01*
X28083761Y54235304D01*
X28036142Y54092447D01*
X27464714Y53521019D01*
X28083761Y53521019D01*
X28464714Y54425780D02*
X28512333Y54473400D01*
X28607571Y54521019D01*
X28845666Y54521019D01*
X28940904Y54473400D01*
X28988523Y54425780D01*
X29036142Y54330542D01*
X29036142Y54235304D01*
X28988523Y54092447D01*
X28417095Y53521019D01*
X29036142Y53521019D01*
X29464714Y53521019D02*
X29464714Y54521019D01*
X29559952Y53901971D02*
X29845666Y53521019D01*
X29845666Y54187685D02*
X29464714Y53806733D01*
D14*
X28637333Y55030304D02*
X28554000Y55149352D01*
X28494476Y55030304D02*
X28494476Y55280304D01*
X28589714Y55280304D01*
X28613523Y55268400D01*
X28625428Y55256495D01*
X28637333Y55232685D01*
X28637333Y55196971D01*
X28625428Y55173161D01*
X28613523Y55161257D01*
X28589714Y55149352D01*
X28494476Y55149352D01*
X28780190Y55173161D02*
X28756380Y55185066D01*
X28744476Y55196971D01*
X28732571Y55220780D01*
X28732571Y55232685D01*
X28744476Y55256495D01*
X28756380Y55268400D01*
X28780190Y55280304D01*
X28827809Y55280304D01*
X28851619Y55268400D01*
X28863523Y55256495D01*
X28875428Y55232685D01*
X28875428Y55220780D01*
X28863523Y55196971D01*
X28851619Y55185066D01*
X28827809Y55173161D01*
X28780190Y55173161D01*
X28756380Y55161257D01*
X28744476Y55149352D01*
X28732571Y55125542D01*
X28732571Y55077923D01*
X28744476Y55054114D01*
X28756380Y55042209D01*
X28780190Y55030304D01*
X28827809Y55030304D01*
X28851619Y55042209D01*
X28863523Y55054114D01*
X28875428Y55077923D01*
X28875428Y55125542D01*
X28863523Y55149352D01*
X28851619Y55161257D01*
X28827809Y55173161D01*
%TO.C,SW1*%
D13*
X37744780Y61408038D02*
X37887638Y61360419D01*
X38125733Y61360419D01*
X38220971Y61408038D01*
X38268590Y61455657D01*
X38316209Y61550895D01*
X38316209Y61646133D01*
X38268590Y61741371D01*
X38220971Y61788990D01*
X38125733Y61836609D01*
X37935257Y61884228D01*
X37840019Y61931847D01*
X37792400Y61979466D01*
X37744780Y62074704D01*
X37744780Y62169942D01*
X37792400Y62265180D01*
X37840019Y62312800D01*
X37935257Y62360419D01*
X38173352Y62360419D01*
X38316209Y62312800D01*
X38649542Y62360419D02*
X38887638Y61360419D01*
X39078114Y62074704D01*
X39268590Y61360419D01*
X39506685Y62360419D01*
X39649542Y61265180D02*
X40411447Y61265180D01*
X40649542Y61360419D02*
X40649542Y62360419D01*
X41030495Y62360419D01*
X41125733Y62312800D01*
X41173352Y62265180D01*
X41220971Y62169942D01*
X41220971Y62027085D01*
X41173352Y61931847D01*
X41125733Y61884228D01*
X41030495Y61836609D01*
X40649542Y61836609D01*
X42078114Y62027085D02*
X42078114Y61360419D01*
X41649542Y62027085D02*
X41649542Y61503276D01*
X41697161Y61408038D01*
X41792400Y61360419D01*
X41935257Y61360419D01*
X42030495Y61408038D01*
X42078114Y61455657D01*
X42506685Y61408038D02*
X42601923Y61360419D01*
X42792400Y61360419D01*
X42887638Y61408038D01*
X42935257Y61503276D01*
X42935257Y61550895D01*
X42887638Y61646133D01*
X42792400Y61693752D01*
X42649542Y61693752D01*
X42554304Y61741371D01*
X42506685Y61836609D01*
X42506685Y61884228D01*
X42554304Y61979466D01*
X42649542Y62027085D01*
X42792400Y62027085D01*
X42887638Y61979466D01*
X43363828Y61360419D02*
X43363828Y62360419D01*
X43792400Y61360419D02*
X43792400Y61884228D01*
X43744780Y61979466D01*
X43649542Y62027085D01*
X43506685Y62027085D01*
X43411447Y61979466D01*
X43363828Y61931847D01*
X39459066Y66908038D02*
X39601923Y66860419D01*
X39840019Y66860419D01*
X39935257Y66908038D01*
X39982876Y66955657D01*
X40030495Y67050895D01*
X40030495Y67146133D01*
X39982876Y67241371D01*
X39935257Y67288990D01*
X39840019Y67336609D01*
X39649542Y67384228D01*
X39554304Y67431847D01*
X39506685Y67479466D01*
X39459066Y67574704D01*
X39459066Y67669942D01*
X39506685Y67765180D01*
X39554304Y67812800D01*
X39649542Y67860419D01*
X39887638Y67860419D01*
X40030495Y67812800D01*
X40363828Y67860419D02*
X40601923Y66860419D01*
X40792400Y67574704D01*
X40982876Y66860419D01*
X41220971Y67860419D01*
X42125733Y66860419D02*
X41554304Y66860419D01*
X41840019Y66860419D02*
X41840019Y67860419D01*
X41744780Y67717561D01*
X41649542Y67622323D01*
X41554304Y67574704D01*
%TO.C,SW2*%
X30023180Y61408038D02*
X30166038Y61360419D01*
X30404133Y61360419D01*
X30499371Y61408038D01*
X30546990Y61455657D01*
X30594609Y61550895D01*
X30594609Y61646133D01*
X30546990Y61741371D01*
X30499371Y61788990D01*
X30404133Y61836609D01*
X30213657Y61884228D01*
X30118419Y61931847D01*
X30070800Y61979466D01*
X30023180Y62074704D01*
X30023180Y62169942D01*
X30070800Y62265180D01*
X30118419Y62312800D01*
X30213657Y62360419D01*
X30451752Y62360419D01*
X30594609Y62312800D01*
X30927942Y62360419D02*
X31166038Y61360419D01*
X31356514Y62074704D01*
X31546990Y61360419D01*
X31785085Y62360419D01*
X31927942Y61265180D02*
X32689847Y61265180D01*
X32927942Y61360419D02*
X32927942Y62360419D01*
X33308895Y62360419D01*
X33404133Y62312800D01*
X33451752Y62265180D01*
X33499371Y62169942D01*
X33499371Y62027085D01*
X33451752Y61931847D01*
X33404133Y61884228D01*
X33308895Y61836609D01*
X32927942Y61836609D01*
X34356514Y62027085D02*
X34356514Y61360419D01*
X33927942Y62027085D02*
X33927942Y61503276D01*
X33975561Y61408038D01*
X34070800Y61360419D01*
X34213657Y61360419D01*
X34308895Y61408038D01*
X34356514Y61455657D01*
X34785085Y61408038D02*
X34880323Y61360419D01*
X35070800Y61360419D01*
X35166038Y61408038D01*
X35213657Y61503276D01*
X35213657Y61550895D01*
X35166038Y61646133D01*
X35070800Y61693752D01*
X34927942Y61693752D01*
X34832704Y61741371D01*
X34785085Y61836609D01*
X34785085Y61884228D01*
X34832704Y61979466D01*
X34927942Y62027085D01*
X35070800Y62027085D01*
X35166038Y61979466D01*
X35642228Y61360419D02*
X35642228Y62360419D01*
X36070800Y61360419D02*
X36070800Y61884228D01*
X36023180Y61979466D01*
X35927942Y62027085D01*
X35785085Y62027085D01*
X35689847Y61979466D01*
X35642228Y61931847D01*
X31737466Y66908038D02*
X31880323Y66860419D01*
X32118419Y66860419D01*
X32213657Y66908038D01*
X32261276Y66955657D01*
X32308895Y67050895D01*
X32308895Y67146133D01*
X32261276Y67241371D01*
X32213657Y67288990D01*
X32118419Y67336609D01*
X31927942Y67384228D01*
X31832704Y67431847D01*
X31785085Y67479466D01*
X31737466Y67574704D01*
X31737466Y67669942D01*
X31785085Y67765180D01*
X31832704Y67812800D01*
X31927942Y67860419D01*
X32166038Y67860419D01*
X32308895Y67812800D01*
X32642228Y67860419D02*
X32880323Y66860419D01*
X33070800Y67574704D01*
X33261276Y66860419D01*
X33499371Y67860419D01*
X33832704Y67765180D02*
X33880323Y67812800D01*
X33975561Y67860419D01*
X34213657Y67860419D01*
X34308895Y67812800D01*
X34356514Y67765180D01*
X34404133Y67669942D01*
X34404133Y67574704D01*
X34356514Y67431847D01*
X33785085Y66860419D01*
X34404133Y66860419D01*
%TD*%
M02*
